<svg width="40" height="40" viewBox="0 0 40 40" fill="none" xmlns="http://www.w3.org/2000/svg">
<path d="M19.9016 0.0504436L1.12573 6.65815L4.09282 31.2576L19.9215 39.9572L35.8319 31.1397L38.7978 6.54113L19.9016 0.0504436Z" fill="#B3B3B3"/>
<path d="M36.9252 7.96283L19.8579 2.1427V37.8787L34.161 29.9628L36.925 7.96283H36.9252Z" fill="#A6120D"/>
<path d="M3.23267 8.06779L5.77523 30.0681L19.8575 37.8788V2.1422L3.23281 8.06764L3.23267 8.06779Z" fill="#DD1B16"/>
<path d="M24.5559 21.1667L19.8578 23.3637H14.9061L12.5784 29.1858L8.24902 29.2658L19.8578 3.44045L24.5559 21.1669V21.1667ZM24.1017 20.0607L19.889 11.7208L16.4334 19.9171H19.8576L24.1017 20.0608V20.0607Z" fill="#F2F2F2"/>
<path d="M19.8577 3.44034L19.8888 11.7208L23.8097 19.9235H19.8666L19.8577 23.3584L25.3102 23.3636L27.8585 29.2667L32.0012 29.3434L19.8577 3.44034Z" fill="#B3B3B3"/>
</svg>
