<svg width="40" height="40" viewBox="0 0 40 40" fill="none" xmlns="http://www.w3.org/2000/svg">
<path fill-rule="evenodd" clip-rule="evenodd" d="M6.90991 13H4.72353V16.3339C4.39682 16.2488 4.12708 16.2205 3.77217 16.2205C1.48641 16.2205 0.00976562 17.6685 0.00976562 19.8976C0.00976562 22.2119 1.40113 23.4185 4.07039 23.4187C4.96487 23.4187 5.78837 23.3335 6.90991 23.1205V13ZM3.98521 17.9808C4.25504 17.9808 4.46799 18.0092 4.72353 18.0943V21.6014C4.4112 21.644 4.21236 21.6581 3.97101 21.6581C2.84938 21.6581 2.23883 21.0192 2.23883 19.8549C2.23883 18.6624 2.87777 17.9808 3.98521 17.9808ZM10.3882 21.4449V16.3764H8.20184V20.6924C8.20184 22.5949 8.10237 23.3191 7.78995 23.9437C7.49182 24.5544 7.02333 24.9518 6.05786 25.4062L8.08817 26.3717C9.05355 25.8888 9.52213 25.4488 9.87714 24.753C10.2604 24.0289 10.3882 23.1912 10.3882 21.4449ZM10.3882 13.0115H8.20184V15.2547H10.3882V13.0115ZM14.6053 16.2203C13.5972 16.2203 12.6744 16.4191 11.7089 16.8733L11.7087 18.5628C12.5607 18.1226 13.4694 17.8954 14.2786 17.8954C14.8323 17.8954 15.0311 18.0373 15.0311 18.4348V18.9175C12.3477 19.1447 11.2545 19.8546 11.2545 21.3881C11.2545 22.8078 12.0781 23.4469 13.9096 23.4469C14.8181 23.4469 16.0533 23.3474 17.033 23.2054V18.7617C17.033 17.8529 16.9762 17.427 16.7918 17.1005C16.4651 16.5183 15.7269 16.2203 14.6053 16.2203ZM13.2138 21.2888C13.2138 20.7208 13.6824 20.4937 15.1307 20.3517L15.1306 21.8141C14.7046 21.8851 14.4065 21.9134 14.0799 21.9134C13.4837 21.9134 13.2138 21.7146 13.2138 21.2888ZM21.5337 16.2203C20.4547 16.2203 19.3899 16.3764 18.098 16.7171V23.3332H20.2843V18.1369C20.7246 18.0091 20.9944 17.9807 21.2925 17.9807C22.0733 17.9807 22.3572 18.2932 22.3572 19.1308V23.3332H24.5437V19.0456C24.5437 17.9522 24.4018 17.4411 23.9475 16.9727C23.4647 16.4757 22.6554 16.2203 21.5337 16.2203ZM27.7363 25.1078C26.9271 25.1078 26.1605 24.9234 25.3937 24.5258L25.3935 26.5419C26.1603 26.8401 26.8984 26.9678 27.7502 26.9678C29.4256 26.9678 30.6041 26.4427 31.2856 25.3777C31.754 24.6536 31.9102 23.7734 31.9102 21.8993V21.3029C31.903 21.1534 31.8994 21.0038 31.8958 20.8543C31.8923 20.7057 31.8887 20.5571 31.8817 20.4085L31.8676 19.2158L31.8393 18.2931V18.0659C32.083 18.0895 32.0273 18.0698 32.0282 18.0669C32.0289 18.0645 32.0662 18.073 32.3258 18.1237L33.0745 16.5465C32.0239 16.3336 31.1577 16.2343 30.2207 16.2343C27.0263 16.2343 25.223 17.6398 25.223 20.1246C25.223 22.1263 26.4442 23.3899 28.361 23.3899C28.9288 23.3899 29.3548 23.3046 29.7807 23.0918V23.1344C29.7807 24.5258 29.1701 25.1078 27.7363 25.1078ZM29.5112 17.9949H29.7382L29.7384 18.1653L29.7527 18.8895L29.7668 19.8974C29.7668 20.0521 29.7706 20.2031 29.7742 20.3482C29.7776 20.4827 29.7808 20.6122 29.7808 20.7351V21.4875C29.4971 21.5726 29.2556 21.6295 28.9575 21.6295C27.9921 21.6295 27.4524 21.0049 27.4524 19.9115C27.4524 19.1449 27.7224 18.6053 28.2476 18.3071C28.5885 18.0942 29.0854 17.9807 29.5112 17.9949ZM39.99 19.798C39.99 17.5691 38.6553 16.1918 36.4689 16.1918C34.24 16.1918 32.8485 17.6257 32.8483 19.9259C32.8483 22.1407 34.1972 23.518 36.3838 23.518C38.5987 23.518 39.99 22.084 39.99 19.798ZM37.7608 19.8547C37.7608 21.0616 37.2639 21.7573 36.4262 21.7573C35.5745 21.7573 35.0775 21.0616 35.0773 19.8547C35.0773 18.6481 35.5744 17.9523 36.4406 17.9523C37.2781 17.9523 37.7608 18.6622 37.7608 19.8547Z" fill="#092E20"/>
</svg>
