<svg width="40" height="40" viewBox="0 0 40 40" fill="none" xmlns="http://www.w3.org/2000/svg">
<g clip-path="url(#clip0)">
<path d="M39.8576 19.0768C39.5722 18.7853 35.9099 14.0721 35.2915 13.2946C34.6257 12.5172 34.3403 12.663 33.9122 12.7116C33.4842 12.7601 28.8706 13.5862 28.3474 13.6348C27.8242 13.7319 27.4913 13.9263 27.8242 14.4122C28.1096 14.8495 31.1536 19.2226 31.8195 20.243L19.691 23.2069L10.0833 6.73502C9.70281 6.15194 9.60768 5.95758 8.75155 6.00617C7.89542 6.05476 1.18908 6.63784 0.713454 6.63784C0.237826 6.68643 -0.285363 6.88079 0.190264 8.04694C0.665891 9.2131 8.27592 25.928 8.46618 26.4139C8.65643 26.8998 9.22718 27.6772 10.5114 27.3857C11.8431 27.0455 16.4091 25.8308 18.93 25.1505C20.2617 27.58 22.9252 32.5362 23.4484 33.265C24.1143 34.2368 24.5899 34.0425 25.5888 33.7509C26.3973 33.508 38.0502 29.2321 38.5734 28.9891C39.0966 28.7462 39.4295 28.6004 39.049 28.0659C38.7636 27.6772 35.7196 23.4499 34.1025 21.2634C35.1964 20.9718 39.1441 19.9028 39.5722 19.7571C40.0478 19.6113 40.1429 19.3684 39.8576 19.0768ZM17.836 23.6928C17.6933 23.7414 10.8919 25.3935 10.5589 25.4907C10.1784 25.5878 10.1784 25.5393 10.1784 25.3935C10.0833 25.2477 2.09277 8.33848 1.95008 8.14412C1.85496 7.94976 1.85496 7.7554 1.95008 7.7554C2.04521 7.7554 8.37105 7.17233 8.5613 7.17233C8.79912 7.17233 8.75155 7.22092 8.84668 7.36669C8.84668 7.36669 17.7409 23.0612 17.8836 23.3041C18.0738 23.5471 17.9787 23.6443 17.836 23.6928ZM36.9562 27.3371C37.0514 27.5314 37.1941 27.6286 36.8136 27.7258C36.4806 27.8716 25.3509 31.7101 25.1131 31.8073C24.8753 31.9045 24.7326 31.9531 24.4473 31.5158C24.1619 31.0785 20.5471 24.7132 20.5471 24.7132L32.3902 21.5549C32.6756 21.4577 32.7707 21.4091 32.961 21.7007C33.1512 22.0408 36.8611 27.1913 36.9562 27.3371ZM37.7172 18.7853C37.4319 18.8339 33.1037 19.9514 33.1037 19.9514L29.5365 14.9953C29.4413 14.8495 29.3462 14.7037 29.584 14.6551C29.8218 14.6066 33.8647 13.8777 34.0549 13.8291C34.2452 13.7805 34.3879 13.7319 34.6257 14.0721C34.8635 14.3636 37.9075 18.348 38.0502 18.4937C38.1929 18.6395 38.0026 18.7367 37.7172 18.7853Z" fill="#FB503B"/>
</g>
<defs>
<clipPath id="clip0">
<rect width="40" height="40" fill="white"/>
</clipPath>
</defs>
</svg>
