<svg width="18" height="40" viewBox="0 0 18 40" fill="none" xmlns="http://www.w3.org/2000/svg">
<path fill-rule="evenodd" clip-rule="evenodd" d="M9.91546 40L8.8454 39.6361C8.8454 39.6361 8.97608 34.2077 7.01813 33.8182C5.7133 32.3115 7.22745 -30.0779 11.9257 33.6102C11.9257 33.6102 10.3072 34.4152 10.0201 35.7921C9.70671 37.1428 9.91546 40 9.91546 40Z" fill="white"/>
<path fill-rule="evenodd" clip-rule="evenodd" d="M9.91546 40L8.8454 39.6361C8.8454 39.6361 8.97608 34.2077 7.01813 33.8182C5.7133 32.3115 7.22745 -30.0779 11.9257 33.6102C11.9257 33.6102 10.3072 34.4152 10.0201 35.7921C9.70671 37.1428 9.91546 40 9.91546 40Z" fill="#A6A385"/>
<path fill-rule="evenodd" clip-rule="evenodd" d="M10.4893 34.7529C10.4893 34.7529 19.8604 28.6229 17.6674 15.8694C15.5533 6.59714 10.5676 3.55817 10.0194 2.38925C9.41922 1.55809 8.84473 0.10376 8.84473 0.10376L9.23649 25.8955C9.23649 25.9216 8.42722 33.7917 10.4896 34.7532" fill="white"/>
<path fill-rule="evenodd" clip-rule="evenodd" d="M10.4893 34.7529C10.4893 34.7529 19.8604 28.6229 17.6674 15.8694C15.5533 6.59714 10.5676 3.55817 10.0194 2.38925C9.41922 1.55809 8.84473 0.10376 8.84473 0.10376L9.23649 25.8955C9.23649 25.9216 8.42722 33.7917 10.4896 34.7532" fill="#499D4A"/>
<path fill-rule="evenodd" clip-rule="evenodd" d="M8.29716 35.0907C8.29716 35.0907 -0.499802 29.1166 0.0223585 18.5975C0.518213 8.07803 6.73068 2.90922 7.93142 1.97419C8.71466 1.14303 8.74069 0.831164 8.79301 0C9.3412 1.16892 9.23682 17.4806 9.31489 19.4025C9.54967 26.805 8.89739 33.6885 8.29716 35.0907Z" fill="white"/>
<path fill-rule="evenodd" clip-rule="evenodd" d="M8.29716 35.0907C8.29716 35.0907 -0.499802 29.1166 0.0223585 18.5975C0.518213 8.07803 6.73068 2.90922 7.93142 1.97419C8.71466 1.14303 8.74069 0.831164 8.79301 0C9.3412 1.16892 9.23682 17.4806 9.31489 19.4025C9.54967 26.805 8.89739 33.6885 8.29716 35.0907Z" fill="#58AA50"/>
</svg>
