<svg width="40" height="40" viewBox="0 0 40 40" fill="none" xmlns="http://www.w3.org/2000/svg">
<g clip-path="url(#clip0)">
<path fill-rule="evenodd" clip-rule="evenodd" d="M21.6234 0.426744C20.6406 -0.143529 19.3594 -0.140965 18.3757 0.426744C17.1633 1.11707 15.9509 1.80744 14.7385 2.49783C11.0243 4.61275 7.31005 6.72774 3.5953 8.84151C2.6365 9.36192 1.98981 10.4243 2.00012 11.5269V28.4754C1.9932 29.5996 2.67323 30.6721 3.65676 31.1854C4.1907 31.4785 4.71891 31.7828 5.24709 32.0871C6.11894 32.5894 6.9907 33.0916 7.88799 33.5432C9.5524 34.387 11.6347 34.5736 13.3195 33.6936C14.687 32.9642 15.2945 31.3421 15.2928 29.8514C15.2997 26.3188 15.2986 22.7862 15.2974 19.2536C15.2967 17.1927 15.2961 15.1318 15.297 13.0709C15.3295 12.8223 15.1486 12.5566 14.8858 12.5626C14.2563 12.5523 13.6258 12.5566 12.9962 12.5609C12.7583 12.5377 12.5261 12.7415 12.5441 12.9883C12.5397 15.8993 12.5403 18.8108 12.541 21.7224C12.5416 24.3693 12.5422 27.0163 12.539 29.6631C12.5527 30.432 12.0493 31.1709 11.3311 31.4306C10.5173 31.7378 9.61033 31.4996 8.87166 31.0987C8.42792 30.846 7.98408 30.5936 7.54024 30.3412C6.67262 29.8479 5.805 29.3546 4.93812 28.8589C4.85125 28.8174 4.77909 28.75 4.73134 28.6659C4.6836 28.5818 4.66257 28.4849 4.67108 28.3884C4.67108 26.5244 4.67118 24.6604 4.67127 22.7965C4.67146 19.0687 4.67165 15.341 4.67108 11.6138C4.6472 11.3884 4.78186 11.1854 4.98249 11.0934C7.71473 9.54176 10.4462 7.98796 13.1777 6.43411C15.3552 5.19545 17.5328 3.95675 19.7108 2.71909C19.796 2.66037 19.8969 2.62903 20.0001 2.62918C20.1034 2.62933 20.2042 2.66097 20.2892 2.71994C22.458 3.95197 24.6265 5.1847 26.795 6.41744C29.5361 7.97571 32.2773 9.53401 35.0192 11.091C35.2206 11.1829 35.3494 11.3893 35.3289 11.6138C35.3286 13.646 35.3288 15.6784 35.3289 17.7108C35.3292 21.2697 35.3294 24.8288 35.3272 28.3875C35.3418 28.5854 35.2427 28.7771 35.0636 28.864C32.5342 30.3062 30.0029 31.7452 27.4715 33.1843C25.164 34.4961 22.8564 35.808 20.5502 37.1222C20.5205 37.1389 20.49 37.157 20.459 37.1754C20.2486 37.2999 20.0104 37.4409 19.7748 37.3037C19.0487 36.8894 18.3276 36.4657 17.6066 36.0421C17.0689 35.7262 16.5312 35.4103 15.9914 35.0983C15.8541 35.0098 15.6792 34.9719 15.5359 35.0708C15.5016 35.0894 15.4673 35.1081 15.433 35.1268C14.9006 35.4168 14.3656 35.7082 13.7862 35.8939C13.7125 35.924 13.6342 35.9483 13.5555 35.9728C13.3418 36.0392 13.1247 36.1066 12.9869 36.2938C13.1556 36.5274 13.4039 36.6666 13.6498 36.8044C13.7147 36.8408 13.7794 36.8771 13.8424 36.915C14.5155 37.3079 15.1891 37.7002 15.8627 38.0925C16.6678 38.5615 17.4731 39.0304 18.2775 39.5006C19.2502 40.1269 20.5571 40.1715 21.5611 39.5927C23.8969 38.2646 26.2324 36.9358 28.5679 35.607C31.1591 34.1326 33.7504 32.6582 36.3424 31.1847C37.3234 30.6686 38.0068 29.6003 37.9999 28.4753V11.5269C38.0094 10.4466 37.3874 9.40324 36.4576 8.87513C33.5626 7.22446 30.6667 5.5759 27.7709 3.92731C25.7216 2.76071 23.6724 1.59411 21.6234 0.426744ZM29.0578 13.1519C27.124 12.0844 24.8233 12.0276 22.6743 12.1671V12.1669C21.1218 12.3252 19.4889 12.7674 18.3577 13.9156C17.1976 15.07 16.9451 16.934 17.4961 18.441C17.891 19.5057 18.885 20.1982 19.9129 20.5645C21.2371 21.0468 22.6277 21.1959 24.0189 21.3451C25.2878 21.4811 26.557 21.6172 27.7766 22.0062C28.2748 22.1766 28.8549 22.4372 29.0075 22.9963C29.1484 23.6587 28.994 24.4285 28.4728 24.8887C27.5361 25.6536 26.2659 25.708 25.1048 25.7577C25.0413 25.7604 24.9781 25.7632 24.9153 25.766C24.7926 25.764 24.6689 25.7626 24.5446 25.7612C23.1875 25.746 21.7457 25.7299 20.5767 24.9695C19.9154 24.5161 19.6305 23.7136 19.5146 22.9491C19.5017 22.7107 19.3158 22.4922 19.065 22.5103C18.4371 22.5026 17.8092 22.5043 17.1813 22.5094C16.9622 22.4905 16.7344 22.6513 16.7224 22.8819C16.6721 24.2477 17.1788 25.6628 18.2161 26.571C19.4293 27.6506 21.0646 28.0669 22.636 28.2475C24.3072 28.4118 26.015 28.4024 27.6606 28.0324C28.8976 27.7418 30.1379 27.2067 30.9894 26.2236C32.0395 25.0289 32.2459 23.2501 31.775 21.7619C31.415 20.6516 30.3861 19.9392 29.3343 19.5728C27.9041 19.0668 26.4092 18.8672 24.9136 18.6675C23.7527 18.5125 22.5914 18.3575 21.4596 18.059C21.4404 18.0529 21.421 18.0468 21.4015 18.0406C20.9637 17.9025 20.452 17.7409 20.2602 17.2815C20.0477 16.613 20.2285 15.783 20.8239 15.3719C21.5995 14.8291 22.5839 14.7492 23.4993 14.7002C23.532 14.6999 23.5649 14.6995 23.5977 14.6992C24.8228 14.687 26.1167 14.674 27.2366 15.2394C27.9857 15.6265 28.4198 16.4213 28.5989 17.2238C28.6321 17.4595 28.7859 17.7054 29.0504 17.6952C29.477 17.704 29.9037 17.7023 30.3303 17.7007C30.5273 17.6999 30.7242 17.6992 30.921 17.6994C31.1352 17.715 31.3698 17.5902 31.4116 17.364C31.3852 15.6867 30.5551 13.9699 29.0578 13.1519Z" fill="#8CC84B"/>
</g>
<defs>
<clipPath id="clip0">
<rect width="40" height="40" fill="white"/>
</clipPath>
</defs>
</svg>
