<svg width="40" height="40" viewBox="0 0 40 40" fill="none" xmlns="http://www.w3.org/2000/svg">
<path fill-rule="evenodd" clip-rule="evenodd" d="M0 30L3.03329 14.1175H10.0472C13.0803 14.3136 14.5969 15.8821 14.5969 18.6275C14.5969 23.3334 10.9952 26.0785 7.77222 25.8823H4.36031L3.60198 30H0ZM5.11841 22.9413L6.06637 17.0588H8.53076C9.85777 17.0588 10.8055 17.647 10.8055 18.8234C10.6161 22.1569 9.09945 22.7452 7.39338 22.9413H5.11863H5.11841ZM13.8922 25.8823L16.9253 10H20.5273L19.769 14.1175H23.1811C26.2144 14.3136 27.3518 15.8821 26.9727 17.8431L25.6457 25.8823H21.8543L23.1813 18.6275C23.3707 17.647 23.3707 17.0588 22.0439 17.0588H19.2003L17.4942 25.8823H13.8922ZM25.4029 30L28.4359 14.1175H35.4501C38.4834 14.3136 40 15.8821 40 18.6275C40 23.3334 36.398 26.0785 33.1753 25.8823H29.763L29.0046 30H25.4029ZM30.5211 22.9413L31.469 17.0588H33.9336C35.2606 17.0588 36.2084 17.647 36.2084 18.8234C36.019 22.1569 34.5023 22.7452 32.7962 22.9413H30.5213H30.5211Z" fill="#232531"/>
</svg>
