<svg width="40" height="40" viewBox="0 0 40 40" fill="none" xmlns="http://www.w3.org/2000/svg">
<path d="M0.11792 19.929C0.11792 22.9312 3.04953 25.7338 7.67122 27.3136C6.74829 31.9598 7.50592 35.7048 10.0361 37.1639C12.6368 38.6639 16.5113 37.6256 20.1889 34.4109C23.7736 37.4958 27.3964 38.7098 29.9244 37.2464C32.5228 35.7423 33.3129 31.7434 32.3645 26.952C37.1784 25.3605 39.8711 22.9708 39.8711 19.929C39.8711 16.9965 36.9342 14.4596 32.3746 12.8899C33.3957 7.90062 32.5306 4.24655 29.8955 2.72708C27.3551 1.26214 23.6901 2.53897 20.0528 5.70446C16.2685 2.3446 12.6398 1.31886 10.0075 2.84255C7.46951 4.3117 6.74532 8.12483 7.67122 12.857C3.20546 14.4139 0.11792 17.0084 0.11792 19.929Z" fill="white"/>
<path d="M31.4089 14.4485C31.0331 14.3196 30.6542 14.2002 30.2724 14.0904C30.3357 13.8331 30.3943 13.5747 30.448 13.3152C31.3083 9.13917 30.7458 5.77494 28.825 4.66748C26.9833 3.60534 23.9712 4.71279 20.9292 7.36003C20.6294 7.62148 20.3363 7.89046 20.0501 8.16671C19.8585 7.98302 19.6635 7.80289 19.4652 7.62642C16.277 4.7956 13.0813 3.60284 11.1625 4.71358C9.32258 5.77869 8.7776 8.94152 9.5521 12.8992C9.62916 13.2911 9.71616 13.681 9.81303 14.0685C9.36086 14.1969 8.92415 14.3338 8.50636 14.4794C4.76869 15.7825 2.38159 17.8249 2.38159 19.9433C2.38159 22.1313 4.94399 24.3259 8.83728 25.6565C9.15297 25.7638 9.47129 25.8633 9.79193 25.9549C9.68777 26.3723 9.59529 26.7927 9.5146 27.2153C8.77619 31.1042 9.35289 34.192 11.188 35.2506C13.0834 36.3435 16.2645 35.2201 19.3622 32.5124C19.607 32.2984 19.8528 32.0713 20.0989 31.8334C20.4088 32.1324 20.7271 32.4228 21.0532 32.7041C24.0537 35.2861 27.0171 36.3287 28.8506 35.2673C30.7443 34.1711 31.3595 30.8539 30.5605 26.818C30.4996 26.5097 30.4285 26.1949 30.3488 25.8743C30.5722 25.8083 30.7914 25.7402 31.0053 25.6693C35.0527 24.3284 37.6859 22.1605 37.6859 19.9433C37.6859 17.8172 35.2219 15.7611 31.4089 14.4485Z" fill="#53C1DE"/>
<path d="M30.5308 24.2379C30.3378 24.3018 30.1397 24.3635 29.9378 24.4234C29.491 23.0089 28.8879 21.5047 28.1501 19.9509C28.8543 18.4338 29.434 16.949 29.8683 15.5436C30.2294 15.6483 30.58 15.7584 30.9178 15.8748C34.1848 16.9993 36.1776 18.6622 36.1776 19.9434C36.1776 21.3082 34.0253 23.08 30.5309 24.2379H30.5308ZM29.0808 27.1111C29.4341 28.8957 29.4846 30.5092 29.2505 31.7705C29.0402 32.9039 28.6174 33.6595 28.0946 33.9622C26.982 34.6062 24.6026 33.7691 22.0368 31.561C21.7426 31.3079 21.4462 31.0376 21.149 30.7517C22.1438 29.6636 23.138 28.3987 24.1083 26.994C25.8151 26.8426 27.4275 26.595 28.8898 26.257C28.9616 26.5476 29.0257 26.8325 29.0808 27.1111ZM14.4174 33.8509C13.3305 34.2348 12.4647 34.2458 11.9415 33.9441C10.8278 33.3019 10.365 30.8223 10.9964 27.4967C11.0714 27.1036 11.1574 26.7128 11.2542 26.3245C12.7002 26.6444 14.3009 26.8745 16.0118 27.0132C16.9884 28.3877 18.0113 29.6511 19.0422 30.7575C18.8231 30.9694 18.5989 31.1759 18.3696 31.3768C16.9998 32.5743 15.6272 33.4236 14.4176 33.8509H14.4174ZM9.32503 24.2295C7.60354 23.641 6.18189 22.8764 5.2074 22.042C4.33182 21.2921 3.88965 20.5476 3.88965 19.9434C3.88965 18.658 5.80628 17.0182 9.00285 15.9037C9.40407 15.7644 9.80928 15.6369 10.218 15.5214C10.6598 16.9584 11.2393 18.4608 11.9387 19.9801C11.2303 21.5221 10.6425 23.0484 10.1965 24.5023C9.90385 24.4185 9.61325 24.3275 9.32503 24.2295ZM11.0321 12.6096C10.3686 9.21868 10.8092 6.66082 11.918 6.01897C13.0992 5.33525 15.7108 6.3102 18.4635 8.75432C18.6394 8.91056 18.8162 9.07415 18.9932 9.24336C17.9676 10.3447 16.9541 11.5986 15.9858 12.9651C14.3254 13.119 12.736 13.3662 11.2748 13.6972C11.1848 13.3367 11.1039 12.974 11.0321 12.6095V12.6096ZM26.2607 16.3699C25.9155 15.7738 25.5576 15.1851 25.1871 14.6044C26.3136 14.7466 27.3928 14.9356 28.4062 15.167C28.102 16.1421 27.7228 17.1618 27.2762 18.2071C26.95 17.588 26.6114 16.9755 26.2607 16.3699ZM20.0505 10.3211C20.7461 11.0747 21.4428 11.9162 22.128 12.8292C20.7379 12.7635 19.3455 12.7632 17.9554 12.8282C18.6413 11.9237 19.3439 11.0834 20.0505 10.3211ZM13.8004 16.3803C13.4541 16.981 13.1219 17.5897 12.8039 18.206C12.3647 17.1643 11.989 16.1401 11.6821 15.1511C12.6894 14.9256 13.7636 14.7414 14.8827 14.6016C14.5081 15.1859 14.1472 15.779 13.8004 16.3803ZM14.9149 25.3928C13.7587 25.2638 12.6683 25.089 11.6613 24.8697C11.973 23.8632 12.3571 22.817 12.8056 21.753C13.1249 22.3697 13.4586 22.9788 13.8065 23.5798C14.1615 24.1929 14.5311 24.7974 14.9149 25.3928ZM20.0922 29.6722C19.3774 28.9008 18.6644 28.0477 17.9681 27.1301C18.644 27.1567 19.3332 27.1701 20.0336 27.1701C20.7533 27.1701 21.4646 27.154 22.1648 27.1228C21.4773 28.0571 20.7831 28.9114 20.0922 29.6722ZM27.2906 21.6988C27.7625 22.7744 28.1603 23.8149 28.4762 24.8044C27.4525 25.038 26.3474 25.2261 25.1829 25.3658C25.5561 24.7742 25.9174 24.1753 26.2668 23.5693C26.6219 22.9535 26.9632 22.3298 27.2906 21.6988ZM24.9603 22.8159C24.4255 23.7449 23.8606 24.6563 23.2666 25.5486C22.2191 25.6235 21.1367 25.6621 20.0336 25.6621C18.9351 25.6621 17.8664 25.6278 16.8372 25.5611C16.2277 24.6709 15.6522 23.7579 15.1118 22.8242C14.5739 21.8954 14.0715 20.9465 13.6056 19.9796C14.0703 19.0124 14.5712 18.063 15.1073 17.1335V17.1338C15.6432 16.2041 16.2142 15.295 16.8191 14.4086C17.869 14.3292 18.9455 14.2877 20.0338 14.2877C21.1268 14.2877 22.2048 14.3296 23.2544 14.4096C23.8532 15.2946 24.4205 16.2005 24.9554 17.1255C25.4933 18.053 26.0009 18.9977 26.4774 19.9582C26.0058 20.9285 25.4998 21.8817 24.9604 22.8159H24.9603ZM28.0715 5.97412C29.2536 6.65597 29.7135 9.40539 28.9707 13.011C28.922 13.2459 28.8691 13.4799 28.8119 13.7129C27.3473 13.3749 25.7568 13.1234 24.0915 12.9671C23.1214 11.5858 22.1163 10.3297 21.1073 9.24258C21.3717 8.98768 21.6424 8.73938 21.9191 8.49793C24.5256 6.22958 26.9616 5.334 28.0715 5.97412Z" fill="white"/>
<path d="M20.0336 16.7908C21.7748 16.7908 23.1862 18.2023 23.1862 19.9434C23.1862 21.6845 21.7748 23.096 20.0336 23.096C18.2926 23.096 16.8811 21.6845 16.8811 19.9434C16.8811 18.2023 18.2926 16.7908 20.0336 16.7908Z" fill="#53C1DE"/>
</svg>
