<svg width="40" height="40" viewBox="0 0 40 40" fill="none" xmlns="http://www.w3.org/2000/svg">
<path d="M39.6337 23.9499C39.4012 23.2456 38.792 22.7551 38.0042 22.6373C37.6327 22.5819 37.2073 22.6055 36.7039 22.7093C35.8264 22.8903 35.1754 22.9593 34.7003 22.9726C36.4936 19.9449 37.9518 16.4922 38.7912 13.2421C40.1487 7.98668 39.4233 5.59253 38.5756 4.50961C36.3324 1.64323 33.0596 0.10338 29.1112 0.0562631C27.0049 0.0305081 25.1558 0.446376 24.1912 0.745437C23.2931 0.586968 22.3275 0.498492 21.3142 0.48213C19.4149 0.45183 17.7367 0.865879 16.3028 1.71685C15.5089 1.4484 14.2348 1.06995 12.7635 0.828459C9.30291 0.260334 6.51381 0.703017 4.47371 2.14424C2.00336 3.88921 0.858178 6.92103 1.06997 11.1555C1.13724 12.4999 1.88928 16.5904 3.0734 20.4697C3.75394 22.6995 4.47962 24.5511 5.2303 25.9737C6.29489 27.9909 7.43401 29.1788 8.71282 29.6054C9.42957 29.8442 10.7319 30.0114 12.1016 28.8707C12.2752 29.0809 12.5068 29.2899 12.8142 29.4839C13.2046 29.7301 13.682 29.9313 14.1588 30.0505C15.8769 30.48 17.4863 30.3726 18.8594 29.7706C18.8678 30.0148 18.8743 30.2481 18.8798 30.4496C18.8889 30.7764 18.898 31.0968 18.91 31.3965C18.9913 33.4226 19.1292 34.9981 19.5376 36.1004C19.56 36.161 19.5902 36.2534 19.622 36.3514C19.8258 36.9753 20.1665 38.0197 21.0334 38.8377C21.931 39.685 23.0168 39.9448 24.0112 39.9448C24.51 39.9448 24.9858 39.8794 25.4032 39.79C26.8909 39.4711 28.5806 38.9854 29.8029 37.245C30.9586 35.5997 31.5203 33.1216 31.622 29.217C31.6352 29.1065 31.6473 29.0011 31.6589 28.9007L31.6832 28.6943L31.9554 28.7182L32.0256 28.7229C33.5409 28.792 35.3937 28.4707 36.5316 27.9421C37.4308 27.5249 40.3121 26.0037 39.6337 23.9499Z" fill="black"/>
<path d="M37.0427 24.3494C32.537 25.2789 32.2272 23.7534 32.2272 23.7534C36.9843 16.6946 38.9731 7.7344 37.257 5.54144C32.5751 -0.440542 24.4706 2.38857 24.3353 2.4619L24.2918 2.46977C23.4016 2.28494 22.4055 2.17495 21.2857 2.15662C19.2472 2.12329 17.7006 2.69111 16.5271 3.58103C16.5271 3.58103 2.06948 -2.37505 2.74199 11.0718C2.88501 13.9324 6.84219 32.7171 11.562 27.0432C13.2872 24.9684 14.9541 23.2142 14.9541 23.2142C15.7819 23.7642 16.773 24.0447 17.812 23.944L17.8927 23.8755C17.8676 24.1331 17.8791 24.385 17.925 24.6833C16.7091 26.0418 17.0665 26.2803 14.6358 26.7807C12.1762 27.2876 13.6211 28.1899 14.5644 28.426C15.7081 28.7118 18.3539 29.117 20.1416 26.6143L20.0704 26.8999C20.5467 27.2815 20.8812 29.3819 20.8252 31.2861C20.7691 33.1902 20.7317 34.4975 21.107 35.5186C21.4825 36.5397 21.8566 38.8372 25.052 38.1526C27.7219 37.5804 29.1056 36.0976 29.2981 33.6242C29.4346 31.8659 29.7438 32.1259 29.7632 30.5538L30.0112 29.8096C30.2971 27.4261 30.0567 26.6571 31.7015 27.0147L32.1015 27.0499C33.312 27.1049 34.8967 26.8551 35.8267 26.4228C37.8292 25.4935 39.017 23.9417 37.0424 24.3494H37.0427Z" fill="#336791"/>
<path fill-rule="evenodd" clip-rule="evenodd" d="M36.8986 23.747C37.8173 23.5573 38.3703 23.7244 38.5421 24.2439C38.8739 25.2477 37.0444 26.4031 36.0305 26.8739C35.1281 27.2928 33.6889 27.5578 32.4418 27.5578C31.8438 27.5579 31.2907 27.4966 30.861 27.3625C30.6574 29.2341 30.2246 32.7233 29.9723 34.1846C29.501 36.9187 28.2825 38.1589 25.4766 38.7603C24.9989 38.8627 24.5647 38.9086 24.1702 38.9086C21.4821 38.9088 20.6308 36.7813 20.2822 35.9102L20.2821 35.9098C19.8567 34.8462 19.7089 31.355 19.7388 27.812C18.7689 28.689 17.5552 29.1423 16.1761 29.1423C15.609 29.1423 15.0144 29.0661 14.3972 28.9116C14.2201 28.8674 12.6655 28.45 12.6861 27.4561C12.7052 26.5471 14.0012 26.2795 14.4905 26.1784L14.4914 26.1782C16.2089 25.8246 16.32 25.6836 16.8535 25.0063L16.8536 25.0062C16.9806 24.8436 17.1104 24.6833 17.243 24.5252C17.2411 24.5052 17.2392 24.4851 17.2377 24.4649C16.4676 24.4443 15.7146 24.2389 15.0292 23.871C13.9728 24.999 12.9492 26.1573 11.9597 27.3443C11.1484 28.3197 10.3686 28.6063 9.73263 28.6063C9.47311 28.6063 9.23783 28.5588 9.03376 28.4907C7.29029 27.9091 5.63318 25.082 4.10878 20.0879C2.95071 16.2936 2.21684 12.3316 2.15245 11.0437C1.96111 7.21558 2.94889 4.50585 5.08853 2.98994C6.88169 1.71962 9.39448 1.3339 12.5566 1.84294C14.3857 2.13761 15.8813 2.65104 16.46 2.86647C17.7923 1.95793 19.4015 1.51221 21.2632 1.54236C22.2784 1.55903 23.2109 1.68962 24.0662 1.90233C24.4724 1.72386 26.5677 1.08923 29.0476 1.1171C32.6548 1.15528 35.6348 2.54696 37.6652 5.1414C38.1688 5.78497 38.413 6.8385 38.3908 8.27214C38.3706 9.57838 38.1244 11.1809 37.6787 12.9065C36.7377 16.5493 34.9935 20.4538 32.8733 23.6838C33.194 23.92 34.1709 24.3099 36.8986 23.747ZM31.6941 13.1744C31.7747 12.6508 31.8508 12.1492 31.86 11.5967C29.6548 11.3229 28.7762 11.8313 28.4301 12.3258C27.2679 13.9872 29.5381 18.0585 30.5076 19.7972L30.5076 19.7972C30.7568 20.2438 30.9368 20.5665 31.0197 20.7674C31.1057 20.9757 31.2043 21.1785 31.3151 21.3748C31.9818 19.9558 31.8096 18.5178 31.6417 17.121L31.6416 17.1198C31.5586 16.4286 31.4728 15.7139 31.4951 15.0265C31.5176 14.3197 31.6073 13.7375 31.6941 13.1744ZM36.7859 5.82951C34.9758 3.51641 32.4191 2.30729 29.187 2.23593C27.9112 2.2076 26.7717 2.36864 25.9385 2.54135C27.8757 3.39612 29.2945 4.66341 30.2675 5.79588C32.0461 7.86628 32.9187 10.1538 32.9907 10.9181C33.0017 11.0354 32.9933 11.1341 32.9722 11.2178C33.0004 12.0148 32.8981 12.6909 32.7977 13.3444C32.7159 13.8746 32.6313 14.423 32.611 15.0624C32.5913 15.6656 32.6686 16.3079 32.7504 16.9878C32.9495 18.6446 33.1731 20.5133 32.0294 22.4021L32.0855 22.4721C32.1304 22.5283 32.1752 22.5847 32.2197 22.6413C36.6455 15.6767 38.1743 7.60373 36.7859 5.82951ZM9.38733 27.4317C9.59061 27.4993 10.2077 27.7047 11.1011 26.6305C12.3643 25.1109 13.551 23.8177 14.0971 23.2329C13.9588 23.1149 13.8265 22.9901 13.7006 22.859C12.4739 21.579 11.9154 19.806 12.1688 17.9945C12.4414 16.0454 12.3394 14.3242 12.2845 13.3992L12.2845 13.3989L12.2839 13.3883C12.2694 13.1412 12.2588 12.9609 12.2591 12.8331C12.2512 12.4969 12.1756 6.99803 15.3625 3.77956C15.3779 3.76399 15.3936 3.74912 15.4094 3.73425C15.4221 3.72235 15.4347 3.71046 15.4471 3.69821C13.505 3.06539 8.67182 1.81764 5.73211 3.90228C3.92577 5.18336 3.0966 7.56721 3.2675 10.9878C3.32173 12.0693 4.00591 15.9264 5.17671 19.7621C6.52976 24.1949 8.06446 26.9904 9.38706 27.4316L9.38733 27.4317ZM13.2746 18.149C13.069 19.6198 13.518 21.0548 14.5067 22.0865V22.0864C15.2842 22.8978 16.3067 23.3468 17.3578 23.3499C17.4783 22.8553 17.6725 22.3344 17.8813 21.7744L17.8828 21.7706L17.9655 21.5485C18.0721 21.2613 18.1971 20.9836 18.3294 20.6898L18.3295 20.6896C18.9712 19.2636 19.7698 17.489 18.8493 13.2316C18.6715 12.4093 18.2436 11.9312 17.5416 11.7704C16.0029 11.4179 13.8454 12.5738 13.3799 12.9867C13.3837 13.0749 13.3903 13.1856 13.3978 13.3116L13.3991 13.3328C13.4562 14.2964 13.5624 16.0898 13.2746 18.149ZM13.9231 27.5081C14.0851 27.6185 14.3611 27.7517 14.6681 27.8284C16.1578 28.2012 18.2321 28.2268 19.6556 26.2337C19.8242 25.9973 19.7727 25.6937 19.7268 25.5338C19.6299 25.195 19.3906 24.8871 19.1451 24.7856L19.145 24.7856C18.842 24.6599 18.6749 24.5905 18.3097 24.9996L18.3094 24.9999C18.0641 25.2738 17.887 25.4986 17.7308 25.6971C17.0493 26.5623 16.7373 26.8559 14.7167 27.2718C14.2992 27.3578 14.0584 27.4445 13.9231 27.5081ZM21.3188 35.4952C21.8955 36.937 22.7708 38.1982 25.2426 37.6686V37.6687C27.6268 37.1574 28.4748 36.2992 28.8721 33.9949C29.1732 32.2507 29.7657 27.3139 29.849 26.2594C29.7457 24.158 30.8794 23.7376 31.5105 23.5556C31.4296 23.4396 31.3233 23.3067 31.2136 23.1697C30.8559 22.7228 30.3659 22.1105 29.9875 21.1933C29.9296 21.053 29.7457 20.7229 29.5325 20.3409L29.5325 20.3409C28.3704 18.2567 25.9523 13.9202 27.5153 11.6859C28.2337 10.6587 29.651 10.2474 31.7349 10.4593C31.4578 9.6361 30.7635 8.10974 29.4812 6.59458C27.9931 4.83612 25.3564 2.72603 21.2447 2.65877C19.1579 2.62422 17.4452 3.26477 16.1591 4.56161C14.1166 6.6217 13.5706 9.87774 13.4261 11.62C13.5212 11.567 13.623 11.5124 13.7344 11.4561C14.2522 11.1935 15.2904 10.7357 16.4252 10.6183C18.318 10.4221 19.5667 11.2665 19.9406 12.9958C20.9388 17.6124 20.0191 19.656 19.3475 21.148L19.3435 21.1569C19.2207 21.4299 19.1047 21.688 19.012 21.9373L18.9289 22.1608C18.7305 22.6921 18.5477 23.1828 18.4422 23.6173C18.9367 23.4908 19.3482 23.6612 19.5724 23.7541L19.5724 23.7541C20.1368 23.988 20.6072 24.5522 20.8002 25.2267C20.831 25.334 20.8541 25.4435 20.8693 25.5542C20.8862 25.6103 20.895 25.6698 20.8934 25.7315C20.7635 30.3669 20.9465 34.5644 21.3188 35.4952ZM32.809 26.4338C33.835 26.3855 34.915 26.1608 35.5604 25.8613C36.311 25.5127 36.8403 25.1245 37.1497 24.8353L37.1245 24.8403C34.831 25.3138 33.2064 25.2489 32.2956 24.6478C32.2386 24.6102 32.1867 24.5719 32.1393 24.5332C32.0629 24.5599 31.9838 24.5822 31.9028 24.6049L31.9027 24.6049C31.3869 24.7497 30.8995 24.8866 30.9632 26.1961C31.0989 26.3069 31.6758 26.4868 32.809 26.4338ZM16.4137 12.4878C16.5997 12.3469 16.9674 12.2947 17.3734 12.3512V12.3513C17.8717 12.4206 18.3854 12.6565 18.3362 13.0104C18.2968 13.2929 17.8497 13.6758 17.3581 13.6758C17.3158 13.6758 17.2733 13.673 17.2305 13.667C16.9357 13.6261 16.6379 13.4403 16.434 13.17C16.3618 13.0746 16.2446 12.8895 16.2679 12.7221C16.2767 12.6589 16.3091 12.5671 16.4137 12.4878ZM29.8234 12.071C30.2918 12.0059 30.7854 12.085 30.8242 12.3624C30.8416 12.4871 30.7468 12.6789 30.5831 12.851C30.4756 12.9638 30.2492 13.1597 29.9408 13.2025C29.9011 13.2081 29.8617 13.2106 29.8226 13.2106C29.3605 13.2106 28.9701 12.8416 28.9398 12.6254C28.902 12.3474 29.3555 12.1362 29.8234 12.071Z" fill="white"/>
</svg>
