<svg width="40" height="40" viewBox="0 0 40 40" fill="none" xmlns="http://www.w3.org/2000/svg">
<path d="M20 39.9689C31.0457 39.9689 40 31.0504 40 20.0489C40 9.04731 31.0457 0.128784 20 0.128784C8.9543 0.128784 0 9.04731 0 20.0489C0 31.0504 8.9543 39.9689 20 39.9689Z" fill="#1A171B"/>
<path d="M28.7041 7.48933C26.675 7.55982 24.904 8.67363 23.5857 10.2143C22.126 11.9036 21.1549 13.9073 20.4553 15.9525C19.2037 14.9308 18.2381 13.6082 16.2301 13.0314C14.678 12.5876 13.0479 12.7709 11.5488 13.8833C10.8386 14.4117 10.3494 15.2103 10.1168 15.9611C9.5144 17.9121 10.75 19.6484 11.3113 20.2719L12.5383 21.5816C12.7913 21.8384 13.4005 22.5084 13.1027 23.4689C12.7808 24.5131 11.5168 25.1893 10.2202 24.7909C9.64112 24.6151 8.80924 24.1854 8.99549 23.5803C9.07252 23.3329 9.25034 23.1477 9.34565 22.9337C9.43315 22.7499 9.47487 22.612 9.50143 22.5311C9.73831 21.7607 9.41471 20.7585 8.58627 20.5041C7.81345 20.2681 7.02267 20.455 6.7161 21.4462C6.36845 22.5722 6.90939 24.6157 9.80722 25.5055C13.2024 26.5445 16.0744 24.7033 16.4818 22.3018C16.7384 20.7977 16.0565 19.6803 14.8072 18.2432L13.7894 17.122C13.1729 16.5086 12.9611 15.4629 13.5993 14.6593C14.1377 13.9814 14.9046 13.6921 16.1605 14.0323C17.9938 14.5281 18.811 15.795 20.1746 16.8169C19.6117 18.6562 19.2437 20.5024 18.9106 22.1579L18.7076 23.3922C17.7329 28.4844 16.9888 31.2805 15.0552 32.8857C14.6657 33.1617 14.1088 33.5747 13.2694 33.6035C12.8294 33.617 12.6872 33.3156 12.6811 33.1842C12.6707 32.8765 12.931 32.7356 13.104 32.597C13.3624 32.4567 13.7532 32.2239 13.7266 31.4779C13.6985 30.5965 12.9654 29.8322 11.9057 29.8672C11.1119 29.8942 9.90206 30.6382 9.94753 32.0001C9.99487 33.4068 11.3113 34.461 13.296 34.3942C14.3569 34.3579 16.726 33.9278 19.0609 31.1634C21.7784 27.9946 22.5384 24.3619 23.1101 21.703L23.7482 18.1927C24.1028 18.2351 24.4818 18.2632 24.8942 18.273C28.2787 18.3442 29.9717 16.598 29.9969 15.328C30.0136 14.5594 29.4905 13.803 28.7581 13.8201C28.2339 13.8349 27.5753 14.1824 27.4172 14.9045C27.2628 15.6129 28.4942 16.2522 27.5317 16.8732C26.848 17.3139 25.6222 17.6245 23.8959 17.3721L24.2098 15.6442C24.8504 12.3675 25.6406 8.33701 28.6381 8.23897C28.8566 8.22792 29.6559 8.24877 29.6745 8.77525C29.68 8.95111 29.6362 8.99593 29.4295 9.39853C29.2191 9.71243 29.1397 9.97963 29.1495 10.2867C29.1784 11.1233 29.8172 11.6731 30.7409 11.64C31.9778 11.6002 32.3336 10.4008 32.3133 9.78479C32.2633 8.33748 30.7317 7.42319 28.7039 7.48933H28.7041Z" fill="white"/>
</svg>
