<svg width="40" height="40" viewBox="0 0 40 40" fill="none" xmlns="http://www.w3.org/2000/svg">
<path d="M33.3855 0.000488281C36.1008 1.38414 38.4331 5.01509 38.3161 9.94209C37.9612 16.0129 33.5597 21.2449 28.7707 26.0653C28.5025 20.1866 27.2242 16.4402 25.2284 11.1719C23.344 5.86282 28.8531 0.170415 33.3855 0.000488281Z" fill="url(#paint0_linear)"/>
<path d="M18.6978 25.8588C20.1559 24.0451 21.1894 22.43 21.9105 20.9707C26.8507 23.5536 25.685 23.0713 28.0676 25.8232C28.0756 25.9089 28.0832 25.9943 28.0904 26.0794C28.288 29.8952 25.5045 38.7164 14.544 39.9253C13.7853 33.9979 16.2518 28.9419 18.6978 25.8588Z" fill="url(#paint1_linear)"/>
<path d="M1.05893 3.68567C8.86842 0.595309 17.2732 3.761 22.1255 10.3568C22.595 10.9947 23.0401 11.6575 23.4599 12.3395C24.2182 17.1797 23.6399 19.8677 22.1642 21.2927C21.1938 20.803 20.1585 20.3689 19.0532 19.9674C16.4839 19.034 14.1124 18.4162 10.7256 17.4134C2.6836 15.2187 0.700387 8.3229 1.05893 3.68567Z" fill="url(#paint2_linear)"/>
<path d="M23.1613 11.8656C23.2126 11.9452 23.2632 12.0241 23.3131 12.1043L23.3747 12.2031C23.5 12.4044 23.6229 12.6069 23.7441 12.8119L23.7645 12.846L23.7971 12.9015L23.8267 12.9527L23.9134 13.1017L23.9194 13.1125L24.0369 13.3186L24.0406 13.3246C24.1255 13.4746 24.2093 13.6253 24.2918 13.7771L24.302 13.7964L24.3937 13.9663L24.3962 13.9707L24.4968 14.1598L24.5257 14.2152L24.5817 14.3233L24.6504 14.4562L24.7168 14.5853C24.7842 14.719 24.8511 14.8529 24.9168 14.9866L24.9337 15.0197C25.0521 15.2622 25.1676 15.5061 25.2801 15.7513L25.3658 15.9387L25.3742 15.9574L25.429 16.0792L25.493 16.2232L25.529 16.3065L25.587 16.4396L25.6285 16.5354L25.7159 16.7415L25.7219 16.7559L25.8153 16.98L25.8267 17.0072C25.9263 17.2495 26.0226 17.4919 26.116 17.7356L26.1251 17.7581L26.2022 17.9625L26.207 17.9737L26.2517 18.0943C26.3011 18.2281 26.3499 18.362 26.3981 18.4962L26.4168 18.5488C26.4698 18.6987 26.5222 18.8495 26.5728 18.9994L26.589 19.047C26.6366 19.1881 26.6825 19.3291 26.7283 19.4701L26.7506 19.5394L26.756 19.5556L26.8283 19.7841L26.8312 19.7943L26.8982 20.0124L26.9651 20.2372L26.967 20.2421L27.0225 20.4318L27.04 20.4934L27.0736 20.611C27.1115 20.7464 27.1489 20.8815 27.1851 21.0171L27.2122 21.1183L27.2647 21.3183L27.267 21.328C27.3309 21.5739 27.3911 21.8197 27.4484 22.065L27.4538 22.0904L27.4598 22.1162C27.5346 22.4399 27.6033 22.7623 27.6665 23.0835L27.6727 23.1155C27.7694 23.6093 27.853 24.1057 27.9233 24.6039L27.9245 24.6105C27.9463 24.7623 27.9661 24.9136 27.9848 25.065L27.9925 25.1299L28.0179 25.3463V25.3469L28.0395 25.547L28.0468 25.6133L28.0625 25.7718L28.0686 25.8356L28.0709 25.8616L28.0902 26.0791C26.3649 23.8572 24.3039 22.3258 21.8308 21.1279C23.8267 17.1819 23.5464 14.3703 23.1613 11.8656Z" fill="url(#paint3_linear)"/>
<defs>
<linearGradient id="paint0_linear" x1="31.5845" y1="0.000488281" x2="31.5845" y2="26.0653" gradientUnits="userSpaceOnUse">
<stop stop-color="#73B723"/>
<stop offset="1" stop-color="#D8EE61"/>
</linearGradient>
<linearGradient id="paint1_linear" x1="26.0262" y1="25.9465" x2="13.0608" y2="35.64" gradientUnits="userSpaceOnUse">
<stop stop-color="#98C9EA"/>
<stop offset="0.68865" stop-color="#026FB2"/>
<stop offset="1" stop-color="#086EB6"/>
</linearGradient>
<linearGradient id="paint2_linear" x1="1.01929" y1="3.68221" x2="17.7984" y2="18.7391" gradientUnits="userSpaceOnUse">
<stop stop-color="#D73721"/>
<stop offset="1" stop-color="#F7D768"/>
</linearGradient>
<linearGradient id="paint3_linear" x1="23.7688" y1="16.2708" x2="29.2689" y2="18.4735" gradientUnits="userSpaceOnUse">
<stop stop-color="#D4C883"/>
<stop offset="1" stop-color="#A1D1A7"/>
</linearGradient>
</defs>
</svg>
