<svg width="40" height="40" viewBox="0 0 40 40" fill="none" xmlns="http://www.w3.org/2000/svg">
<g clip-path="url(#clip0)">
<path d="M35.4532 9.57763C35.4729 10.2113 35.8192 10.7595 36.3237 11.0702C36.6081 11.2453 36.9439 11.346 37.3015 11.346C37.6244 11.346 37.9297 11.2639 38.1954 11.1189C38.761 10.8103 39.1507 10.2129 39.1507 9.52085C39.1507 8.5044 38.3143 7.69567 37.3015 7.69567C36.9587 7.69567 36.6359 7.7882 36.3592 7.95017C35.82 8.26579 35.4523 8.84879 35.4523 9.52085C35.4523 9.53979 35.4526 9.55872 35.4532 9.57763ZM35.4532 9.57763L35.953 9.56208L35.4532 9.57767C35.4532 9.57766 35.4532 9.57765 35.4532 9.57763ZM7.26937 8.36598L6.92912 8.56093L7.03736 8.93783C7.09045 9.12271 7.11899 9.31812 7.11899 9.52085C7.11899 10.5158 6.4254 11.3621 5.47264 11.603L5.09518 11.6984V12.0877V26.5511C5.09518 27.4403 5.57605 28.2581 6.35069 28.702L18.9456 35.9181L19.2758 36.1074L19.5461 35.8394C19.9444 35.4446 20.4972 35.1993 21.1111 35.1993C21.7249 35.1993 22.2777 35.4446 22.676 35.8394L22.9463 36.1074L23.2765 35.9181L35.8714 28.702C36.6461 28.2581 37.1269 27.4403 37.1269 26.5511V12.0877V11.6984L36.7495 11.603C35.7967 11.3621 35.1031 10.5158 35.1031 9.52085C35.1031 9.31812 35.1317 9.12271 35.1847 8.93783L35.293 8.56093L34.9527 8.36598L22.3794 1.16212C21.5953 0.712867 20.6269 0.712867 19.8428 1.16212L7.26937 8.36598ZM18.9943 36.7666L19.1025 36.3897L18.7623 36.1948L6.16799 28.9789C5.28463 28.4728 4.74598 27.5472 4.74598 26.5511V12.0877V11.6984L4.36852 11.603C3.41576 11.3621 2.72217 10.5158 2.72217 9.52085C2.72217 8.34167 3.69792 7.37049 4.92058 7.37049C5.5344 7.37049 6.08727 7.61582 6.4855 8.0106L6.75581 8.27856L7.08607 8.08934L19.6601 0.885131C20.5563 0.371623 21.6658 0.371623 22.5621 0.885132L35.136 8.08934L35.4663 8.27856L35.7366 8.0106C36.1348 7.61582 36.6877 7.37049 37.3015 7.37049C38.5242 7.37049 39.4999 8.34167 39.4999 9.52085C39.4999 10.5158 38.8064 11.3621 37.8536 11.603L37.4761 11.6984V12.0877V26.5511C37.4761 27.5472 36.9375 28.4728 36.0541 28.9789L23.4598 36.1948L23.1196 36.3897L23.2278 36.7666C23.2809 36.9515 23.3095 37.1469 23.3095 37.3496C23.3095 38.5288 22.3337 39.5 21.1111 39.5C19.8884 39.5 18.9126 38.5288 18.9126 37.3496C18.9126 37.1469 18.9412 36.9515 18.9943 36.7666ZM22.9603 37.3496L22.9602 37.3436L22.9598 37.3119L22.9599 37.3119L22.9597 37.306C22.9432 36.6141 22.5377 36.0228 21.9599 35.7278C21.7049 35.5976 21.4158 35.5245 21.1111 35.5245C20.8063 35.5245 20.5172 35.5976 20.2622 35.7278C19.6844 36.0228 19.2789 36.6141 19.2624 37.306H19.2623L19.2623 37.3119L19.2619 37.3436H19.2618V37.3496C19.2618 38.3661 20.0983 39.1748 21.1111 39.1748C22.1238 39.1748 22.9603 38.3661 22.9603 37.3496ZM5.86289 7.95017L5.64139 8.32857L5.86289 7.95017C5.58618 7.7882 5.26338 7.69567 4.92058 7.69567C3.9078 7.69567 3.07137 8.5044 3.07137 9.52085C3.07137 10.5373 3.9078 11.346 4.92058 11.346C5.27826 11.346 5.61406 11.2453 5.89844 11.0702C6.41812 10.7502 6.76979 10.178 6.76979 9.52085C6.76979 8.84879 6.40209 8.26579 5.86289 7.95017Z" fill="#282828" stroke="#282828"/>
<path fill-rule="evenodd" clip-rule="evenodd" d="M6.26979 9.52702C6.26979 10.2634 5.66573 10.8604 4.92058 10.8604C4.17543 10.8604 3.57137 10.2634 3.57137 9.52702C3.57137 8.79064 4.17543 8.19368 4.92058 8.19368C5.66573 8.19368 6.26979 8.79064 6.26979 9.52702ZM7.61899 9.52702C7.61899 10.9998 6.41087 12.1937 4.92058 12.1937C3.43029 12.1937 2.22217 10.9998 2.22217 9.52702C2.22217 8.05426 3.43029 6.86035 4.92058 6.86035C6.41087 6.86035 7.61899 8.05426 7.61899 9.52702ZM21.1197 38.6963C21.8649 38.6963 22.4689 38.0994 22.4689 37.363C22.4689 36.6266 21.8649 36.0296 21.1197 36.0296C20.3746 36.0296 19.7705 36.6266 19.7705 37.363C19.7705 38.0994 20.3746 38.6963 21.1197 38.6963ZM21.1197 40.0296C22.61 40.0296 23.8181 38.8357 23.8181 37.363C23.8181 35.8902 22.61 34.6963 21.1197 34.6963C19.6294 34.6963 18.4213 35.8902 18.4213 37.363C18.4213 38.8357 19.6294 40.0296 21.1197 40.0296ZM37.3015 10.8604C38.0467 10.8604 38.6507 10.2634 38.6507 9.52702C38.6507 8.79064 38.0467 8.19368 37.3015 8.19368C36.5564 8.19368 35.9523 8.79064 35.9523 9.52702C35.9523 10.2634 36.5564 10.8604 37.3015 10.8604ZM37.3015 12.1937C38.7918 12.1937 39.9999 10.9998 39.9999 9.52702C39.9999 8.05426 38.7918 6.86035 37.3015 6.86035C35.8112 6.86035 34.6031 8.05426 34.6031 9.52702C34.6031 10.9998 35.8112 12.1937 37.3015 12.1937Z" fill="#939393"/>
<path d="M29.6831 13.7745L21.3168 9.08243C21.1207 8.97252 20.8793 8.97252 20.6832 9.08243L12.3169 13.7745C12.1208 13.8846 12 14.0879 12 14.3077V23.692C12 23.9118 12.1208 24.1153 12.3169 24.2252L20.6832 28.9175C20.7813 28.9723 20.8904 29 20.9999 29C21.1096 29 21.2187 28.9723 21.3168 28.9175L29.6831 24.2252C29.8792 24.1153 30 23.9118 30 23.692V14.3077C30 14.0879 29.8792 13.8846 29.6831 13.7745ZM20.9999 10.3266L28.0986 14.3077L20.9999 18.289L13.9014 14.3077L20.9999 10.3266ZM21.6337 27.3179V19.235C21.6337 18.8949 21.35 18.6193 20.9999 18.6193C20.65 18.6193 20.3663 18.8949 20.3663 19.235V27.3179L13.2676 23.3365V15.3741L20.6832 19.5332C20.7813 19.588 20.8904 19.6157 20.9999 19.6157C21.1096 19.6157 21.2187 19.588 21.3168 19.5332L28.7324 15.3741V23.3365L21.6337 27.3179Z" fill="#43BAD6"/>
</g>
<defs>
<clipPath id="clip0">
<rect width="40" height="40" fill="white"/>
</clipPath>
</defs>
</svg>
