<svg width="290" height="20" viewBox="0 0 290 20" fill="none" xmlns="http://www.w3.org/2000/svg">
<path d="M184 0L186.245 6.90983H193.511L187.633 11.1803L189.878 18.0902L184 13.8197L178.122 18.0902L180.367 11.1803L174.489 6.90983H181.755L184 0Z" fill="#FF0000"/>
<path d="M208 0L210.245 6.90983H217.511L211.633 11.1803L213.878 18.0902L208 13.8197L202.122 18.0902L204.367 11.1803L198.489 6.90983H205.755L208 0Z" fill="#FF0000"/>
<path d="M232 0L234.245 6.90983H241.511L235.633 11.1803L237.878 18.0902L232 13.8197L226.122 18.0902L228.367 11.1803L222.489 6.90983H229.755L232 0Z" fill="#FF0000"/>
<path d="M256 0L258.245 6.90983H265.511L259.633 11.1803L261.878 18.0902L256 13.8197L250.122 18.0902L252.367 11.1803L246.489 6.90983H253.755L256 0Z" fill="#FF0000"/>
<path d="M280 0L282.245 6.90983H289.511L283.633 11.1803L285.878 18.0902L280 13.8197L274.122 18.0902L276.367 11.1803L270.489 6.90983H277.755L280 0Z" fill="#FF0000"/>
<g clip-path="url(#clip0)">
<path d="M22.6234 0H19.2544V20H22.6234V0Z" fill="black"/>
<path d="M34.4148 13.6199C34.4148 16.6807 31.7053 16.9247 30.8993 16.9247C28.8855 16.9247 28.5191 15.1343 28.5191 14.0543V6.3999H25.1501V14.0383C25.1501 15.9343 25.7768 17.4991 26.8751 18.5423C27.8453 19.4647 29.299 19.9687 30.874 19.9687C31.9908 19.9687 33.5725 19.6383 34.4148 18.9079V19.9999H37.7837V6.3999H34.4148V13.6199Z" fill="black"/>
<path d="M44.5215 1.6001H41.1526V6.4001H38.6259V9.6001H41.1526V20.0001H44.5215V9.6001H47.0482V6.4001H44.5215V1.6001Z" fill="black"/>
<path d="M57.658 15.9338C56.9244 16.5602 55.9558 16.9074 54.8929 16.9074C52.5498 16.9074 50.8291 15.273 50.8291 13.029C50.8291 10.785 52.495 9.21936 54.8929 9.21936C55.9373 9.21936 56.9244 9.54976 57.6765 10.1762L58.1877 10.5938L60.4592 8.43696L59.8907 7.94976C58.5541 6.80336 56.7795 6.16016 54.892 6.16016C50.6809 6.16016 47.6227 9.04656 47.6227 13.0122C47.6227 16.961 50.7541 19.9506 54.892 19.9506C56.8149 19.9506 58.608 19.3074 59.9278 18.1426L60.4769 17.6554L58.17 15.5002L57.658 15.9338Z" fill="black"/>
<path d="M72.4839 7.5856C71.5137 6.664 70.3767 6.16 68.8017 6.16C67.6849 6.16 66.4198 6.4904 65.5776 7.22V0H62.2086V20H65.5776V12.508C65.5776 9.4472 67.8668 9.204 68.6728 9.204C70.6866 9.204 70.631 10.9952 70.631 12.0736V20H74V12.0904C74 10.1944 73.5831 8.6296 72.4839 7.5856Z" fill="black"/>
<path d="M54.7817 10.7505C56.1276 10.7505 57.2183 11.7849 57.2183 13.0641C57.2183 14.3417 56.1276 15.3777 54.7817 15.3777C53.4367 15.3777 52.3468 14.3417 52.3468 13.0641C52.3476 11.7857 53.4375 10.7505 54.7817 10.7505Z" fill="#FF0000"/>
<path d="M14.5379 14.9769C13.2568 16.2289 11.5168 16.9073 9.68575 16.9073C5.93273 16.9073 3.20388 14.1073 3.20388 10.2641C3.20388 6.40326 5.93273 3.60326 9.68575 3.60326C11.4991 3.60326 13.2198 4.28086 14.5202 5.51606L15.0323 6.00326L17.2844 3.86406L16.79 3.37686C14.9228 1.55046 12.3961 0.560059 9.68575 0.560059C4.15645 0.560059 0 4.73366 0 10.2809C0 15.8113 4.17498 19.9681 9.68575 19.9681C12.4146 19.9681 14.9413 18.9601 16.8086 17.1337L17.303 16.6465L15.0693 14.4729L14.5379 14.9769Z" fill="black"/>
</g>
<defs>
<clipPath id="clip0">
<rect width="74" height="20" fill="white"/>
</clipPath>
</defs>
</svg>
