<svg width="230" height="60" viewBox="0 0 230 60" fill="none" xmlns="http://www.w3.org/2000/svg">
<rect width="230" height="60" rx="3" fill="white"/>
<path d="M170 0H227C228.657 0 230 1.34315 230 3V57C230 58.6569 228.657 60 227 60H170V0Z" fill="#FAFCFC"/>
<rect opacity="0.5" x="170" width="7" height="60" fill="url(#paint0_linear)"/>
<path d="M200 20L203.09 26.5836L210 27.6393L205 32.7639L206.18 40L200 36.5836L193.82 40L195 32.7639L190 27.6393L196.91 26.5836L200 20Z" fill="#FFBA00"/>
<g clip-path="url(#clip0)">
<path d="M36.4007 20H33.2139V40H36.4007V20Z" fill="#282828"/>
<path d="M47.5549 33.62C47.5549 36.6808 44.9918 36.9248 44.2294 36.9248C42.3244 36.9248 41.9779 35.1344 41.9779 34.0544V26.4H38.791V34.0384C38.791 35.9344 39.3838 37.4992 40.4227 38.5424C41.3405 39.4648 42.7156 39.9688 44.2055 39.9688C45.2619 39.9688 46.7581 39.6384 47.5549 38.908V40H50.7417V26.4H47.5549V33.62Z" fill="#282828"/>
<path d="M57.1151 21.6H53.9282V26.4H51.5381V29.6H53.9282V40H57.1151V29.6H59.5052V26.4H57.1151V21.6Z" fill="#282828"/>
<path d="M69.5417 35.9336C68.8477 36.56 67.9315 36.9072 66.9261 36.9072C64.7096 36.9072 63.0819 35.2728 63.0819 33.0288C63.0819 30.7848 64.6578 29.2192 66.9261 29.2192C67.914 29.2192 68.8477 29.5496 69.5592 30.176L70.0428 30.5936L72.1915 28.4368L71.6538 27.9496C70.3894 26.8032 68.7107 26.16 66.9253 26.16C62.9417 26.16 60.0488 29.0464 60.0488 33.012C60.0488 36.9608 63.011 39.9504 66.9253 39.9504C68.7442 39.9504 70.4404 39.3072 71.6888 38.1424L72.2083 37.6552L70.0261 35.5L69.5417 35.9336Z" fill="#282828"/>
<path d="M83.5656 27.5856C82.6478 26.664 81.5722 26.16 80.0824 26.16C79.0259 26.16 77.8293 26.4904 77.0326 27.22V20H73.8457V40H77.0326V32.508C77.0326 29.4472 79.198 29.204 79.9605 29.204C81.8654 29.204 81.8128 30.9952 81.8128 32.0736V40H84.9997V32.0904C84.9997 30.1944 84.6053 28.6296 83.5656 27.5856Z" fill="#282828"/>
<path d="M66.8209 30.7504C68.094 30.7504 69.1258 31.7848 69.1258 33.064C69.1258 34.3416 68.094 35.3776 66.8209 35.3776C65.5485 35.3776 64.5176 34.3416 64.5176 33.064C64.5184 31.7856 65.5493 30.7504 66.8209 30.7504Z" fill="#F44545"/>
<path d="M28.7521 34.9768C27.5403 36.2288 25.8943 36.9072 24.1622 36.9072C20.612 36.9072 18.0307 34.1072 18.0307 30.264C18.0307 26.4032 20.612 23.6032 24.1622 23.6032C25.8775 23.6032 27.5052 24.2808 28.7353 25.516L29.2197 26.0032L31.3501 23.864L30.8825 23.3768C29.1162 21.5504 26.726 20.56 24.1622 20.56C18.9318 20.56 15 24.7336 15 30.2808C15 35.8112 18.9493 39.968 24.1622 39.968C26.7435 39.968 29.1337 38.96 30.9 37.1336L31.3677 36.6464L29.2548 34.4728L28.7521 34.9768Z" fill="#282828"/>
</g>
<defs>
<linearGradient id="paint0_linear" x1="170" y1="30" x2="177" y2="30" gradientUnits="userSpaceOnUse">
<stop stop-color="#E8EFEF"/>
<stop offset="1" stop-color="#FAFCFC" stop-opacity="0"/>
</linearGradient>
<clipPath id="clip0">
<rect width="70" height="20" fill="white" transform="translate(15 20)"/>
</clipPath>
</defs>
</svg>
