<svg width="225" height="100" viewBox="0 0 225 100" fill="none" xmlns="http://www.w3.org/2000/svg">
<path d="M14.7112 48.0749C14.7112 48.0749 15.9106 45.2724 13.8152 42.3493C11.7161 39.4293 8.58187 38.9224 8.58187 38.9224C8.58187 38.9224 7.26489 42.2333 9.30993 45.0798C11.3534 47.929 14.7112 48.0749 14.7112 48.0749Z" fill="black"/>
<path d="M19.1989 46.8212C19.1989 46.8212 22.3856 46.5499 24.1939 43.8011C26.0021 41.0542 24.5872 38.0105 24.5872 38.0105C24.5872 38.0105 21.6311 38.6115 19.7739 41.4318C17.9187 44.2501 19.1989 46.8212 19.1989 46.8212Z" fill="black"/>
<path d="M21.5578 49.6587C19.5509 53.6115 21.6942 56.772 21.6942 56.772C21.6942 56.772 25.914 55.9359 27.8678 52.0867C29.8187 48.2324 27.415 44.4805 27.415 44.4805C27.415 44.4805 23.5647 45.706 21.5578 49.6587Z" fill="black"/>
<path d="M30.6197 52.3949C30.6197 52.3949 26.735 54.9467 25.8164 60.0446C24.8994 65.1516 28.3385 68.1091 28.3385 68.1091C28.3385 68.1091 32.7582 65.8989 33.6542 60.9263C34.5472 55.9542 30.6197 52.3949 30.6197 52.3949Z" fill="black"/>
<path d="M35.2531 75.1912C35.2531 75.1912 39.7629 73.1437 40.8591 68.2094C41.9527 63.2715 38.1672 59.5714 38.1672 59.5714C38.1672 59.5714 34.1823 61.9765 33.0583 67.0403C31.9379 72.1015 35.2531 75.1912 35.2531 75.1912Z" fill="black"/>
<path d="M44.6068 82.1699C44.6068 82.1699 48.8963 79.7256 49.5025 74.7156C50.1057 69.7023 45.9721 66.3607 45.9721 66.3607C45.9721 66.3607 42.2406 69.1136 41.6194 74.2549C41.0015 79.3934 44.6068 82.1699 44.6068 82.1699Z" fill="black"/>
<path d="M17.403 40.6905C17.403 40.6905 20.4966 38.7306 20.4115 34.596C20.329 30.4608 17.5781 28.0108 17.5781 28.0108C17.5781 28.0108 14.025 30.3887 14.1059 34.4228C14.1886 38.4539 17.403 40.6905 17.403 40.6905Z" fill="black"/>
<path d="M15.8928 59.0185C15.8928 59.0185 16.2629 55.473 12.8442 52.924C9.41997 50.3738 5.67527 50.877 5.67527 50.877C5.67527 50.877 5.34936 55.0308 8.68387 57.5174C12.0191 60.0063 15.8928 59.0185 15.8928 59.0185Z" fill="black"/>
<path d="M23.5652 71.1956C23.5652 71.1956 22.9869 66.7976 18.1005 64.608C13.207 62.4171 8.80667 64.0207 8.80667 64.0207C8.80667 64.0207 9.61141 69.1479 14.3764 71.283C19.1468 73.4135 23.5652 71.1956 23.5652 71.1956Z" fill="black"/>
<path d="M31.3617 78.561C31.3617 78.561 29.427 74.5377 24.0692 73.8731C18.7066 73.2034 15.0185 76.0047 15.0185 76.0047C15.0185 76.0047 17.4096 80.6534 22.632 81.3085C27.8519 81.9547 31.3617 78.561 31.3617 78.561Z" fill="black"/>
<path d="M34.7156 81.5895C29.3101 81.5405 25.9925 84.7418 25.9925 84.7418C25.9925 84.7418 28.9447 89.0808 34.211 89.1307C39.4834 89.1791 42.543 85.4093 42.543 85.4093C42.543 85.4093 40.1202 81.6356 34.7156 81.5895Z" fill="black"/>
<path d="M17.5749 43.3114L16.6227 42.8632C16.5702 43.1275 11.5791 69.4636 51.2718 87.5649L51.7542 86.8344C13.962 69.5961 17.3695 44.3138 17.5749 43.3114Z" fill="black"/>
<path d="M210.288 48.2138C210.288 48.2138 209.089 45.4113 211.184 42.4882C213.283 39.5682 216.418 39.0613 216.418 39.0613C216.418 39.0613 217.735 42.3722 215.69 45.2188C213.646 48.0679 210.288 48.2138 210.288 48.2138Z" fill="black"/>
<path d="M205.801 46.9601C205.801 46.9601 202.614 46.6888 200.806 43.94C198.997 41.1931 200.412 38.1494 200.412 38.1494C200.412 38.1494 203.369 38.7504 205.226 41.5707C207.081 44.389 205.801 46.9601 205.801 46.9601Z" fill="black"/>
<path d="M203.442 49.7977C205.449 53.7504 203.305 56.9109 203.305 56.9109C203.305 56.9109 199.086 56.0748 197.132 52.2256C195.181 48.3713 197.585 44.6194 197.585 44.6194C197.585 44.6194 201.435 45.8449 203.442 49.7977Z" fill="black"/>
<path d="M194.38 52.5338C194.38 52.5338 198.265 55.0856 199.183 60.1835C200.1 65.2905 196.661 68.248 196.661 68.248C196.661 68.248 192.241 66.0378 191.345 61.0652C190.452 56.0932 194.38 52.5338 194.38 52.5338Z" fill="black"/>
<path d="M189.747 75.3306C189.747 75.3306 185.237 73.2831 184.14 68.3488C183.047 63.4109 186.832 59.7108 186.832 59.7108C186.832 59.7108 190.817 62.1159 191.941 67.1797C193.062 72.2409 189.747 75.3306 189.747 75.3306Z" fill="black"/>
<path d="M180.393 82.3088C180.393 82.3088 176.103 79.8645 175.497 74.8545C174.894 69.8412 179.028 66.4996 179.028 66.4996C179.028 66.4996 182.759 69.2525 183.38 74.3938C183.998 79.5323 180.393 82.3088 180.393 82.3088Z" fill="black"/>
<path d="M207.597 40.8294C207.597 40.8294 204.503 38.8695 204.588 34.7349C204.671 30.5997 207.422 28.1498 207.422 28.1498C207.422 28.1498 210.975 30.5277 210.894 34.5617C210.811 38.5928 207.597 40.8294 207.597 40.8294Z" fill="black"/>
<path d="M209.107 59.1574C209.107 59.1574 208.737 55.612 212.155 53.0629C215.58 50.5128 219.324 51.0159 219.324 51.0159C219.324 51.0159 219.65 55.1697 216.316 57.6563C212.981 60.1452 209.107 59.1574 209.107 59.1574Z" fill="black"/>
<path d="M201.434 71.3346C201.434 71.3346 202.013 66.9365 206.899 64.7469C211.793 62.556 216.193 64.1596 216.193 64.1596C216.193 64.1596 215.388 69.2868 210.623 71.4219C205.853 73.5525 201.434 71.3346 201.434 71.3346Z" fill="black"/>
<path d="M193.638 78.6999C193.638 78.6999 195.573 74.6767 200.93 74.012C206.293 73.3423 209.981 76.1437 209.981 76.1437C209.981 76.1437 207.59 80.7924 202.368 81.4474C197.148 82.0936 193.638 78.6999 193.638 78.6999Z" fill="black"/>
<path d="M190.284 81.7284C195.689 81.6794 199.007 84.8807 199.007 84.8807C199.007 84.8807 196.055 89.2197 190.789 89.2697C185.516 89.318 182.457 85.5482 182.457 85.5482C182.457 85.5482 184.879 81.7745 190.284 81.7284Z" fill="black"/>
<path d="M207.425 43.4504L208.377 43.0021C208.429 43.2664 213.421 69.6025 173.728 87.7039L173.245 86.9733C211.038 69.735 207.63 44.4527 207.425 43.4504Z" fill="black"/>
<path d="M81.2141 13.9992C80.2504 13.9992 79.4807 13.8184 78.9049 13.4569C78.329 13.0953 77.9177 12.5812 77.6709 11.9146C77.4242 11.2366 77.3008 10.4457 77.3008 9.54182V4.33873C77.3008 3.43483 77.4242 2.66086 77.6709 2.01683C77.9295 1.3615 78.3408 0.864357 78.9049 0.525394C79.4807 0.175131 80.2504 0 81.2141 0C82.1777 0 82.9416 0.175131 83.5056 0.525394C84.0697 0.875655 84.4752 1.3728 84.7219 2.01683C84.9805 2.66086 85.1097 3.43483 85.1097 4.33873V9.55877C85.1097 10.4514 84.9805 11.231 84.7219 11.8976C84.4752 12.5642 84.0697 13.084 83.5056 13.4569C82.9416 13.8184 82.1777 13.9992 81.2141 13.9992ZM81.2141 12.4908C81.7429 12.4908 82.1424 12.3891 82.4127 12.1857C82.683 11.9711 82.8652 11.6773 82.9592 11.3044C83.0532 10.9203 83.1002 10.474 83.1002 9.96553V3.94892C83.1002 3.44048 83.0532 3.00548 82.9592 2.64392C82.8652 2.27106 82.683 1.98859 82.4127 1.79651C82.1424 1.59313 81.7429 1.49144 81.2141 1.49144C80.6852 1.49144 80.2798 1.59313 79.9978 1.79651C79.7275 1.98859 79.5453 2.27106 79.4513 2.64392C79.3573 3.00548 79.3103 3.44048 79.3103 3.94892V9.96553C79.3103 10.474 79.3573 10.9203 79.4513 11.3044C79.5453 11.6773 79.7275 11.9711 79.9978 12.1857C80.2798 12.3891 80.6852 12.4908 81.2141 12.4908Z" fill="black"/>
<path d="M87.0675 13.8467V0.118637H88.4248L92.4791 9.23676V0.118637H94.1361V13.8467H92.8669L88.7597 4.47432V13.8467H87.0675Z" fill="black"/>
<path d="M96.3805 13.8467V0.118637H101.916V1.54228H98.3724V6.0844H101.246V7.44025H98.3724V12.4739H101.951V13.8467H96.3805Z" fill="black"/>
<path d="M111.236 13.9992C110.272 13.9992 109.503 13.8184 108.927 13.4569C108.351 13.0953 107.94 12.5812 107.693 11.9146C107.446 11.2366 107.323 10.4457 107.323 9.54182V4.33873C107.323 3.43483 107.446 2.66086 107.693 2.01683C107.951 1.3615 108.363 0.864357 108.927 0.525394C109.503 0.175131 110.272 0 111.236 0C112.2 0 112.963 0.175131 113.527 0.525394C114.092 0.875655 114.497 1.3728 114.744 2.01683C115.002 2.66086 115.132 3.43483 115.132 4.33873V9.55877C115.132 10.4514 115.002 11.231 114.744 11.8976C114.497 12.5642 114.092 13.084 113.527 13.4569C112.963 13.8184 112.2 13.9992 111.236 13.9992ZM111.236 12.4908C111.765 12.4908 112.164 12.3891 112.435 12.1857C112.705 11.9711 112.887 11.6773 112.981 11.3044C113.075 10.9203 113.122 10.474 113.122 9.96553V3.94892C113.122 3.44048 113.075 3.00548 112.981 2.64392C112.887 2.27106 112.705 1.98859 112.435 1.79651C112.164 1.59313 111.765 1.49144 111.236 1.49144C110.707 1.49144 110.302 1.59313 110.02 1.79651C109.749 1.98859 109.567 2.27106 109.473 2.64392C109.379 3.00548 109.332 3.44048 109.332 3.94892V9.96553C109.332 10.474 109.379 10.9203 109.473 11.3044C109.567 11.6773 109.749 11.9711 110.02 12.1857C110.302 12.3891 110.707 12.4908 111.236 12.4908Z" fill="black"/>
<path d="M117.089 13.8467V0.118637H122.607V1.49144H119.081V6.06745H121.814V7.4233H119.081V13.8467H117.089Z" fill="black"/>
<path d="M129.572 13.8467V1.54228H127.157V0.118637H133.908V1.54228H131.564V13.8467H129.572Z" fill="black"/>
<path d="M135.285 13.8467V0.118637H137.277V6.0505H140.943V0.118637H142.935V13.8467H140.943V7.4233H137.277V13.8467H135.285Z" fill="black"/>
<path d="M145.166 13.8467V0.118637H150.701V1.54228H147.158V6.0844H150.031V7.44025H147.158V12.4739H150.736V13.8467H145.166Z" fill="black"/>
<path d="M40.4596 38.7981V25.0701H43.7383C44.3847 25.0701 44.9429 25.1379 45.413 25.2735C45.8948 25.4091 46.2943 25.6181 46.6116 25.9006C46.9289 26.1831 47.164 26.5446 47.3167 26.9853C47.4695 27.4146 47.5459 27.9231 47.5459 28.5106C47.5459 29.0755 47.4695 29.567 47.3167 29.9851C47.1757 30.3919 46.9524 30.7139 46.6469 30.9511C46.3531 31.1884 45.9712 31.341 45.5011 31.4087C46.0769 31.533 46.5411 31.7477 46.8937 32.0528C47.2462 32.3465 47.5048 32.7307 47.6693 33.2052C47.8455 33.6685 47.9337 34.2278 47.9337 34.8831C47.9337 35.4707 47.8632 36.0073 47.7222 36.4932C47.5811 36.979 47.3579 37.3914 47.0523 37.7304C46.7585 38.0694 46.3766 38.3349 45.9065 38.527C45.4482 38.7078 44.9018 38.7981 44.2672 38.7981H40.4596ZM42.4515 37.4253H43.7912C44.6843 37.4253 45.2778 37.2276 45.5716 36.8322C45.8771 36.4254 46.0299 35.7757 46.0299 34.8831C46.0299 34.3069 45.9477 33.8267 45.7831 33.4425C45.6304 33.0471 45.3777 32.7533 45.0251 32.5612C44.6844 32.3578 44.2202 32.2561 43.6326 32.2561H42.4515V37.4253ZM42.4515 30.7986H43.6326C44.1967 30.7986 44.6373 30.7252 44.9546 30.5783C45.2719 30.4201 45.4952 30.1715 45.6245 29.8326C45.7538 29.4936 45.8184 29.0529 45.8184 28.5106C45.8184 27.8779 45.7185 27.4203 45.5187 27.1378C45.3189 26.8553 45.0075 26.6802 44.5845 26.6124C44.1614 26.5333 43.6091 26.4938 42.9275 26.4938H42.4515V30.7986Z" fill="black"/>
<path d="M49.7037 38.7981V25.0701H55.2388V26.4938H51.6956V31.0359H54.5689V32.3917H51.6956V37.4253H55.274V38.7981H49.7037Z" fill="black"/>
<path d="M60.249 38.9507C59.4264 38.9507 58.7389 38.7812 58.1866 38.4422C57.646 38.1033 57.2347 37.6344 56.9526 37.0355C56.6706 36.4367 56.5061 35.7418 56.4591 34.9509L58.2218 34.4933C58.2571 34.9792 58.3335 35.4481 58.451 35.9C58.5802 36.352 58.7859 36.7248 59.0679 37.0186C59.35 37.3011 59.7437 37.4423 60.249 37.4423C60.766 37.4423 61.1539 37.3067 61.4124 37.0355C61.6827 36.7531 61.8178 36.352 61.8178 35.8322C61.8178 35.2108 61.6709 34.7136 61.3771 34.3408C61.0833 33.9566 60.7132 33.5725 60.2666 33.1883L57.8693 31.1545C57.3992 30.7591 57.0525 30.3297 56.8292 29.8665C56.606 29.3919 56.4943 28.81 56.4943 28.1208C56.4943 27.1152 56.794 26.3356 57.3933 25.7819C57.9927 25.2283 58.8094 24.9515 59.8435 24.9515C60.4076 24.9515 60.9012 25.0249 61.3243 25.1718C61.7591 25.3074 62.1175 25.5221 62.3995 25.8158C62.6933 26.1096 62.9225 26.4825 63.087 26.9344C63.2633 27.3751 63.3808 27.8948 63.4396 28.4937L61.7473 28.9343C61.7121 28.4824 61.6416 28.07 61.5358 27.6971C61.43 27.3129 61.242 27.0079 60.9717 26.7819C60.7132 26.5446 60.3371 26.426 59.8435 26.426C59.35 26.426 58.9622 26.5559 58.6801 26.8158C58.4098 27.0644 58.2747 27.4372 58.2747 27.9344C58.2747 28.3524 58.3452 28.697 58.4862 28.9682C58.639 29.2394 58.8799 29.5162 59.209 29.7987L61.6239 31.8324C62.1645 32.2844 62.6404 32.8267 63.0518 33.4595C63.4631 34.0809 63.6687 34.821 63.6687 35.6797C63.6687 36.3576 63.5218 36.9451 63.228 37.4423C62.9342 37.9281 62.5288 38.301 62.0117 38.5609C61.5064 38.8207 60.9188 38.9507 60.249 38.9507Z" fill="black"/>
<path d="M66.7827 38.7981V26.4938H64.3678V25.0701H71.1191V26.4938H68.7746V38.7981H66.7827Z" fill="black"/>
<path d="M76.5237 38.7981V25.0701H80.0668C80.9247 25.0701 81.6063 25.2227 82.1116 25.5277C82.6287 25.8215 83.0048 26.2508 83.2398 26.8158C83.4748 27.3807 83.5923 28.0643 83.5923 28.8665C83.5923 29.5896 83.4572 30.2167 83.1869 30.7478C82.9284 31.2788 82.5406 31.6912 82.0235 31.985C81.5064 32.2674 80.8601 32.4087 80.0845 32.4087H78.5156V38.7981H76.5237ZM78.5156 31.0359H79.4322C80.0081 31.0359 80.4605 30.9737 80.7896 30.8495C81.1186 30.7252 81.3536 30.5105 81.4947 30.2054C81.6357 29.8891 81.7062 29.4484 81.7062 28.8835C81.7062 28.2281 81.6533 27.7253 81.5475 27.3751C81.4535 27.0248 81.2479 26.7819 80.9306 26.6463C80.6133 26.5107 80.1197 26.4429 79.4499 26.4429H78.5156V31.0359Z" fill="black"/>
<path d="M84.9932 38.7981V25.0701H86.9851V31.002H90.6516V25.0701H92.6435V38.7981H90.6516V32.3748H86.9851V38.7981H84.9932Z" fill="black"/>
<path d="M94.8742 38.7981V25.0701H98.4173C99.2752 25.0701 99.9568 25.2227 100.462 25.5277C100.979 25.8215 101.355 26.2508 101.59 26.8158C101.825 27.3807 101.943 28.0643 101.943 28.8665C101.943 29.5896 101.808 30.2167 101.537 30.7478C101.279 31.2788 100.891 31.6912 100.374 31.985C99.8569 32.2674 99.2106 32.4087 98.435 32.4087H96.8661V38.7981H94.8742ZM96.8661 31.0359H97.7828C98.3586 31.0359 98.811 30.9737 99.1401 30.8495C99.4691 30.7252 99.7041 30.5105 99.8452 30.2054C99.9862 29.8891 100.057 29.4484 100.057 28.8835C100.057 28.2281 100.004 27.7253 99.898 27.3751C99.804 27.0248 99.5984 26.7819 99.2811 26.6463C98.9638 26.5107 98.4702 26.4429 97.8004 26.4429H96.8661V31.0359Z" fill="black"/>
<path d="M107.372 38.7981V25.0701H110.474C111.532 25.0701 112.366 25.2283 112.977 25.5447C113.6 25.8497 114.041 26.313 114.299 26.9344C114.57 27.5559 114.705 28.3298 114.705 29.2563V34.3069C114.705 35.2786 114.57 36.0977 114.299 36.7644C114.041 37.431 113.612 37.9394 113.013 38.2897C112.425 38.6287 111.632 38.7981 110.633 38.7981H107.372ZM109.364 37.4253H110.492C111.221 37.4253 111.738 37.2898 112.043 37.0186C112.349 36.7474 112.531 36.352 112.59 35.8322C112.66 35.3125 112.695 34.6854 112.695 33.951V29.4936C112.695 28.7818 112.648 28.2055 112.554 27.7649C112.46 27.3242 112.255 27.0022 111.937 26.7988C111.62 26.5955 111.121 26.4938 110.439 26.4938H109.364V37.4253Z" fill="black"/>
<path d="M116.668 38.7981V25.0701H122.203V26.4938H118.659V31.0359H121.533V32.3917H118.659V37.4253H122.238V38.7981H116.668Z" fill="black"/>
<path d="M126.331 38.7981L123.141 25.0701H125.009L127.266 35.1882L129.416 25.0701H131.232L128.077 38.7981H126.331Z" fill="black"/>
<path d="M132.746 38.7981V25.0701H138.281V26.4938H134.738V31.0359H137.611V32.3917H134.738V37.4253H138.316V38.7981H132.746Z" fill="black"/>
<path d="M139.924 38.7981V25.0701H141.916V37.4253H145.565V38.7981H139.924Z" fill="black"/>
<path d="M150.476 38.9507C149.512 38.9507 148.743 38.7699 148.167 38.4083C147.591 38.0468 147.18 37.5327 146.933 36.8661C146.686 36.1881 146.563 35.3972 146.563 34.4933V29.2902C146.563 28.3863 146.686 27.6124 146.933 26.9683C147.191 26.313 147.603 25.8158 148.167 25.4769C148.743 25.1266 149.512 24.9515 150.476 24.9515C151.44 24.9515 152.204 25.1266 152.768 25.4769C153.332 25.8271 153.737 26.3243 153.984 26.9683C154.242 27.6124 154.372 28.3863 154.372 29.2902V34.5103C154.372 35.4029 154.242 36.1825 153.984 36.8491C153.737 37.5157 153.332 38.0355 152.768 38.4083C152.204 38.7699 151.44 38.9507 150.476 38.9507ZM150.476 37.4423C151.005 37.4423 151.404 37.3406 151.675 37.1372C151.945 36.9226 152.127 36.6288 152.221 36.2559C152.315 35.8718 152.362 35.4255 152.362 34.917V28.9004C152.362 28.392 152.315 27.957 152.221 27.5954C152.127 27.2225 151.945 26.9401 151.675 26.748C151.404 26.5446 151.005 26.4429 150.476 26.4429C149.947 26.4429 149.542 26.5446 149.26 26.748C148.989 26.9401 148.807 27.2225 148.713 27.5954C148.619 27.957 148.572 28.392 148.572 28.9004V34.917C148.572 35.4255 148.619 35.8718 148.713 36.2559C148.807 36.6288 148.989 36.9226 149.26 37.1372C149.542 37.3406 149.947 37.4423 150.476 37.4423Z" fill="black"/>
<path d="M156.329 38.7981V25.0701H159.873C160.73 25.0701 161.412 25.2227 161.917 25.5277C162.434 25.8215 162.811 26.2508 163.046 26.8158C163.281 27.3807 163.398 28.0643 163.398 28.8665C163.398 29.5896 163.263 30.2167 162.993 30.7478C162.734 31.2788 162.346 31.6912 161.829 31.985C161.312 32.2674 160.666 32.4087 159.89 32.4087H158.321V38.7981H156.329ZM158.321 31.0359H159.238C159.814 31.0359 160.266 30.9737 160.595 30.8495C160.924 30.7252 161.159 30.5105 161.3 30.2054C161.441 29.8891 161.512 29.4484 161.512 28.8835C161.512 28.2281 161.459 27.7253 161.353 27.3751C161.259 27.0248 161.054 26.7819 160.736 26.6463C160.419 26.5107 159.925 26.4429 159.256 26.4429H158.321V31.0359Z" fill="black"/>
<path d="M164.799 38.7981V25.0701H170.334V26.4938H166.791V31.0359H169.664V32.3917H166.791V37.4253H170.369V38.7981H164.799Z" fill="black"/>
<path d="M171.977 38.7981V25.0701H174.851C175.802 25.0701 176.59 25.1944 177.213 25.443C177.836 25.6803 178.294 26.0701 178.588 26.6124C178.893 27.1434 179.046 27.844 179.046 28.714C179.046 29.245 178.987 29.7309 178.87 30.1715C178.752 30.6009 178.564 30.9681 178.306 31.2732C178.047 31.5669 177.706 31.7816 177.283 31.9172L179.31 38.7981H177.389L175.52 32.3578H173.969V38.7981H171.977ZM173.969 30.985H174.727C175.291 30.985 175.75 30.9172 176.102 30.7817C176.455 30.6461 176.713 30.4144 176.878 30.0868C177.042 29.7591 177.125 29.3015 177.125 28.714C177.125 27.9118 176.972 27.3355 176.666 26.9853C176.361 26.6237 175.755 26.4429 174.851 26.4429H173.969V30.985Z" fill="black"/>
<path d="M184.485 38.9507C183.662 38.9507 182.975 38.7812 182.423 38.4422C181.882 38.1033 181.471 37.6344 181.189 37.0355C180.907 36.4367 180.742 35.7418 180.695 34.9509L182.458 34.4933C182.493 34.9792 182.569 35.4481 182.687 35.9C182.816 36.352 183.022 36.7248 183.304 37.0186C183.586 37.3011 183.98 37.4423 184.485 37.4423C185.002 37.4423 185.39 37.3067 185.648 37.0355C185.919 36.7531 186.054 36.352 186.054 35.8322C186.054 35.2108 185.907 34.7136 185.613 34.3408C185.319 33.9566 184.949 33.5725 184.503 33.1883L182.105 31.1545C181.635 30.7591 181.289 30.3297 181.065 29.8665C180.842 29.3919 180.73 28.81 180.73 28.1208C180.73 27.1152 181.03 26.3356 181.629 25.7819C182.229 25.2283 183.045 24.9515 184.08 24.9515C184.644 24.9515 185.137 25.0249 185.56 25.1718C185.995 25.3074 186.354 25.5221 186.636 25.8158C186.929 26.1096 187.158 26.4825 187.323 26.9344C187.499 27.3751 187.617 27.8948 187.676 28.4937L185.983 28.9343C185.948 28.4824 185.878 28.07 185.772 27.6971C185.666 27.3129 185.478 27.0079 185.208 26.7819C184.949 26.5446 184.573 26.426 184.08 26.426C183.586 26.426 183.198 26.5559 182.916 26.8158C182.646 27.0644 182.511 27.4372 182.511 27.9344C182.511 28.3524 182.581 28.697 182.722 28.9682C182.875 29.2394 183.116 29.5162 183.445 29.7987L185.86 31.8324C186.401 32.2844 186.876 32.8267 187.288 33.4595C187.699 34.0809 187.905 34.821 187.905 35.6797C187.905 36.3576 187.758 36.9451 187.464 37.4423C187.17 37.9281 186.765 38.301 186.248 38.5609C185.742 38.8207 185.155 38.9507 184.485 38.9507Z" fill="black"/>
<path d="M77.714 63.7496V50.0216H79.6706V63.7496H77.714Z" fill="black"/>
<path d="M81.9807 63.7496V50.0216H83.338L87.3923 59.1397V50.0216H89.0493V63.7496H87.7801L83.6729 54.3773V63.7496H81.9807Z" fill="black"/>
<path d="M99.0059 63.9022C97.9718 63.9022 97.1786 63.7044 96.6262 63.309C96.0739 62.9135 95.6978 62.3599 95.4981 61.6481C95.2983 60.9249 95.1984 60.0832 95.1984 59.1228V50.0216H97.1022V59.2075C97.1022 59.7951 97.1433 60.3317 97.2256 60.8176C97.3078 61.3034 97.4841 61.6876 97.7544 61.9701C98.0364 62.2525 98.4536 62.3938 99.0059 62.3938C99.57 62.3938 99.9872 62.2525 100.257 61.9701C100.528 61.6876 100.704 61.3034 100.786 60.8176C100.869 60.3317 100.91 59.7951 100.91 59.2075V50.0216H102.796V59.1228C102.796 60.0832 102.696 60.9249 102.496 61.6481C102.296 62.3599 101.92 62.9135 101.368 63.309C100.827 63.7044 100.04 63.9022 99.0059 63.9022Z" fill="black"/>
<path d="M104.893 63.7496V50.0216H106.885V56.4958L110.164 50.0216H112.014L109.194 56.0721L112.473 63.7496H110.534L107.802 57.3093L106.885 58.9025V63.7496H104.893Z" fill="black"/>
<path d="M113.621 63.7496V50.0216H116.494C117.446 50.0216 118.233 50.1459 118.856 50.3945C119.479 50.6317 119.937 51.0215 120.231 51.5639C120.536 52.0949 120.689 52.7955 120.689 53.6655C120.689 54.1965 120.631 54.6824 120.513 55.123C120.395 55.5524 120.207 55.9196 119.949 56.2246C119.69 56.5184 119.35 56.7331 118.927 56.8687L120.954 63.7496H119.032L117.164 57.3093H115.613V63.7496H113.621ZM115.613 55.9365H116.371C116.935 55.9365 117.393 55.8687 117.745 55.7331C118.098 55.5976 118.357 55.3659 118.521 55.0383C118.686 54.7106 118.768 54.253 118.768 53.6655C118.768 52.8633 118.615 52.287 118.31 51.9367C118.004 51.5752 117.399 51.3944 116.494 51.3944H115.613V55.9365Z" fill="black"/>
<path d="M121.986 63.7496L125.018 50.0216H126.939L129.989 63.7496H128.103L127.45 60.2922H124.542L123.854 63.7496H121.986ZM124.806 58.9194H127.186L125.987 52.7333L124.806 58.9194Z" fill="black"/>
<path d="M131.543 63.7496V50.0216H133.5V63.7496H131.543Z" fill="black"/>
<path d="M135.81 63.7496V50.0216H137.167L141.222 59.1397V50.0216H142.879V63.7496H141.609L137.502 54.3773V63.7496H135.81Z" fill="black"/>
<path d="M145.123 63.7496V50.0216H150.658V51.4453H147.115V55.9874H149.988V57.3432H147.115V62.3768H150.693V63.7496H145.123Z" fill="black"/>
<g clip-path="url(#clip0)">
<path d="M95.8489 77.873H92.1484V99.9998H95.8489V77.873Z" fill="black"/>
<path d="M108.801 92.9414C108.801 96.3277 105.825 96.5976 104.939 96.5976C102.727 96.5976 102.325 94.6168 102.325 93.422V84.9536H98.6244V93.4043C98.6244 95.5019 99.3127 97.2331 100.519 98.3872C101.585 99.4077 103.182 99.9653 104.912 99.9653C106.138 99.9653 107.876 99.5998 108.801 98.7917V99.9998H112.501V84.9536H108.801V92.9414Z" fill="black"/>
<path d="M119.902 79.6431H116.202V84.9535H113.426V88.4938H116.202V99.9997H119.902V88.4938H122.678V84.9535H119.902V79.6431Z" fill="black"/>
<path d="M134.331 95.5011C133.525 96.1942 132.462 96.5783 131.294 96.5783C128.72 96.5783 126.83 94.7701 126.83 92.2875C126.83 89.8048 128.66 88.0727 131.294 88.0727C132.441 88.0727 133.525 88.4383 134.352 89.1313L134.913 89.5933L137.408 87.2071L136.784 86.6681C135.316 85.3998 133.366 84.6882 131.293 84.6882C126.668 84.6882 123.308 87.8816 123.308 92.2689C123.308 96.6376 126.748 99.9451 131.293 99.9451C133.405 99.9451 135.375 99.2335 136.824 97.9448L137.428 97.4058L134.894 95.0214L134.331 95.5011Z" fill="black"/>
<path d="M150.616 86.2653C149.551 85.2457 148.302 84.6881 146.572 84.6881C145.345 84.6881 143.955 85.0536 143.03 85.8608V77.873H139.33V99.9998H143.03V91.7111C143.03 88.3249 145.545 88.0558 146.43 88.0558C148.642 88.0558 148.581 90.0375 148.581 91.2305V99.9998H152.282V91.2491C152.282 89.1515 151.824 87.4203 150.616 86.2653Z" fill="black"/>
<path d="M131.172 89.7666C132.65 89.7666 133.848 90.911 133.848 92.3262C133.848 93.7397 132.65 94.8859 131.172 94.8859C129.694 94.8859 128.497 93.7397 128.497 92.3262C128.498 90.9119 129.695 89.7666 131.172 89.7666Z" fill="#FF0000"/>
<path d="M86.9678 94.4423C85.5606 95.8274 83.6493 96.578 81.6381 96.578C77.5158 96.578 74.5183 93.4802 74.5183 89.2283C74.5183 84.957 77.5158 81.8592 81.6381 81.8592C83.6299 81.8592 85.5199 82.6089 86.9483 83.9754L87.5108 84.5145L89.9846 82.1478L89.4415 81.6088C87.3905 79.5882 84.6152 78.4924 81.6381 78.4924C75.5647 78.4924 70.9992 83.1098 70.9992 89.2469C70.9992 95.3654 75.585 99.9643 81.6381 99.9643C84.6355 99.9643 87.4109 98.8491 89.4619 96.8285L90.0049 96.2894L87.5515 93.8847L86.9678 94.4423Z" fill="black"/>
</g>
<defs>
<clipPath id="clip0">
<rect width="81.2824" height="22.1268" fill="white" transform="translate(70.9992 77.873)"/>
</clipPath>
</defs>
</svg>
