<svg width="290" height="20" viewBox="0 0 290 20" fill="none" xmlns="http://www.w3.org/2000/svg">
<path d="M184 0L186.245 6.90983H193.511L187.633 11.1803L189.878 18.0902L184 13.8197L178.122 18.0902L180.367 11.1803L174.489 6.90983H181.755L184 0Z" fill="#784CFB"/>
<path d="M208 0L210.245 6.90983H217.511L211.633 11.1803L213.878 18.0902L208 13.8197L202.122 18.0902L204.367 11.1803L198.489 6.90983H205.755L208 0Z" fill="#784CFB"/>
<path d="M232 0L234.245 6.90983H241.511L235.633 11.1803L237.878 18.0902L232 13.8197L226.122 18.0902L228.367 11.1803L222.489 6.90983H229.755L232 0Z" fill="#784CFB"/>
<path d="M256 0L258.245 6.90983H265.511L259.633 11.1803L261.878 18.0902L256 13.8197L250.122 18.0902L252.367 11.1803L246.489 6.90983H253.755L256 0Z" fill="#784CFB"/>
<path d="M280 0L282.245 6.90983H289.511L283.633 11.1803L285.878 18.0902L280 13.8197L274.122 18.0902L276.367 11.1803L270.489 6.90983H277.755L280 0Z" fill="#784CFB"/>
<g clip-path="url(#clip0)">
<path d="M7.15915 10.0387L6.7203 9.73548H6.681L2.0305 6.45161C1.64823 6.18565 1.32463 5.84616 1.07922 5.45363C0.83381 5.06111 0.671675 4.62368 0.6026 4.16774L0.42575 3L0 0L6.92335 9.67742L7.15915 10.0387Z" fill="#774EFB"/>
<path d="M14.3248 10.0387L13.8794 10.3419H13.8401L0 20L1.47375 17.9548L1.72265 17.5871L6.92335 10.3677L7.10675 10.1226C7.10558 10.1075 7.10558 10.0925 7.10675 10.0774L6.92335 9.67742L0 0L13.8401 9.67742H13.8794L14.3248 10.0387Z" fill="url(#paint0_linear)"/>
<path d="M4.83372 10.0193L4.36867 10.3484L4.32937 10.3742L0.949575 12.729L1.45393 10.3742L1.46047 10.3484L1.52597 10.0193L1.45393 9.73546L1.44737 9.70965L0.890625 7.42578L4.36212 9.70965L4.40142 9.73546L4.83372 10.0193Z" fill="url(#paint1_linear)"/>
<path opacity="0.2" d="M7.1657 10.0387L0 0L0.42575 3L7.1657 10.0387Z" fill="black"/>
<path opacity="0.2" d="M14.3248 10.0386L13.8794 10.3418H13.8401L0 19.9999L0.6026 15.916C0.616324 15.7689 0.647091 15.6239 0.6943 15.4837C0.701608 15.4162 0.721598 15.3505 0.75325 15.2902C0.795364 15.1582 0.845676 15.029 0.9039 14.9031C0.952098 14.803 1.00679 14.706 1.06765 14.6128C1.10273 14.543 1.14675 14.4779 1.19865 14.4192C1.23306 14.374 1.27025 14.3309 1.31 14.2902C1.3755 14.2128 1.43445 14.1353 1.49995 14.0708C1.66221 13.9005 1.83979 13.7451 2.0305 13.6063L6.68755 10.3805H6.72685L7.1657 10.0773L14.3248 10.0386Z" fill="black"/>
<path d="M0 19.9999C0 19.9999 5.895 11.3741 7.15915 10.0386C4.95068 13.4797 2.56103 16.8046 0 19.9999H0Z" fill="#50E2B6"/>
<path opacity="0.2" d="M4.83361 10.019L4.36856 10.3481L4.32926 10.3739L0.949463 12.7287L1.45381 10.3739L1.46036 10.3481L1.52586 10.019H4.83361Z" fill="black"/>
<path d="M14.3249 9.99983L13.4472 10.1998C13.1017 10.2808 12.7478 10.3219 12.3926 10.3224H9.05868C8.69231 10.3223 8.32728 10.279 7.97138 10.1934L7.15918 9.99983L7.97138 9.80628C8.32728 9.72063 8.69231 9.67731 9.05868 9.67725H12.3926C12.7478 9.67774 13.1017 9.71888 13.4472 9.79983L14.3249 9.99983Z" fill="url(#paint2_linear)"/>
<path d="M18.7653 4.36133H23.3503C27.0314 4.36133 29.5728 6.79358 29.5728 9.96778C29.5728 13.142 27.0314 15.6065 23.3503 15.6065H18.7653V4.36133ZM23.3503 13.3936C23.811 13.4259 24.2736 13.3618 24.7074 13.2055C25.1413 13.0493 25.5367 12.8044 25.8676 12.4869C26.1986 12.1695 26.4576 11.7867 26.6277 11.3636C26.7978 10.9406 26.8751 10.4869 26.8545 10.0323C26.8728 9.57434 26.7934 9.11769 26.6214 8.69185C26.4494 8.26601 26.1886 7.88043 25.8559 7.56002C25.5232 7.23962 25.1259 6.9915 24.6898 6.8317C24.2537 6.67191 23.7885 6.60397 23.3241 6.63229H21.3591V13.4L23.3503 13.3936Z" fill="#0F303B"/>
<path d="M31.8392 4.36133H40.6686V6.56778H34.4003V8.8581H39.9219V11.0646H34.4003V13.4323H40.7538V15.6387H31.8392V4.36133Z" fill="#0F303B"/>
<path d="M42.2407 13.9934L43.7603 12.258C44.7237 13.1095 45.964 13.5945 47.258 13.6257C48.3126 13.6257 48.9479 13.2257 48.9479 12.5612C48.9479 11.916 48.5484 11.6128 46.5899 11.1289C44.2319 10.5483 42.7123 9.92247 42.7123 7.68376C42.7123 5.6386 44.4153 4.28376 46.8126 4.28376C48.3861 4.25651 49.9214 4.7621 51.1618 5.71602L49.8518 7.58699C48.9711 6.92719 47.9107 6.54086 46.8061 6.47731C45.817 6.47731 45.2996 6.90957 45.2996 7.45796C45.2996 8.19989 45.8039 8.4386 47.8279 8.94183C50.2055 9.53538 51.5417 10.3612 51.5417 12.3225C51.5417 14.5612 49.7667 15.8192 47.2449 15.8192C45.4068 15.8314 43.6273 15.1821 42.2407 13.9934Z" fill="#0F303B"/>
<path d="M53.8606 4.36133H56.4347V15.6387H53.8606V4.36133Z" fill="#0F303B"/>
<path d="M58.8384 10.0324C58.845 9.25143 59.01 8.47968 59.3238 7.76248C59.6376 7.04528 60.0938 6.39713 60.6657 5.85614C61.2375 5.31514 61.9134 4.89223 62.6535 4.61227C63.3937 4.33231 64.1833 4.20095 64.9757 4.22592C66.6489 4.14558 68.2896 4.69969 69.5607 5.77431L67.9363 7.65818C67.1193 6.88074 66.0266 6.44791 64.8906 6.45173C63.9732 6.4804 63.1047 6.86572 62.475 7.52343C61.8454 8.18114 61.5057 9.0577 61.5304 9.96141C61.5059 10.4312 61.5802 10.9009 61.7487 11.341C61.9172 11.7812 62.1763 12.1822 62.5097 12.5191C62.843 12.8559 63.2435 13.1212 63.6859 13.2984C64.1283 13.4755 64.6031 13.5607 65.0805 13.5485C65.9365 13.5836 66.7826 13.3584 67.504 12.9033V11.2904H64.884V9.1485H69.9668V14.0453C68.5694 15.2068 66.7977 15.8404 64.9692 15.8324C61.347 15.8324 58.8384 13.3679 58.8384 10.0324Z" fill="#0F303B"/>
<path d="M72.4629 4.36133H74.8405L80.3229 11.3033V4.36133H82.8643V15.6387H80.6766L75.0043 8.47101V15.6387H72.4629V4.36133Z" fill="#0F303B"/>
<path d="M85.6744 4.36143H91.0454C92.2914 4.28347 93.5181 4.69396 94.458 5.50336C94.7942 5.84391 95.0565 6.24837 95.2288 6.69206C95.4011 7.13575 95.4798 7.60937 95.4601 8.08401C95.4985 8.86569 95.2705 9.63756 94.8124 10.277C94.3543 10.9164 93.6924 11.3867 92.9318 11.613L95.7942 15.6388H92.7812L90.2725 12.0324H88.2486V15.6388H85.6744V4.36143ZM90.8555 9.83885C92.1065 9.83885 92.8205 9.19369 92.8205 8.2453C92.8205 7.18078 92.0541 6.6324 90.7965 6.6324H88.2355V9.8582L90.8555 9.83885Z" fill="url(#paint3_linear)"/>
<path d="M97.595 10.8066V4.35498H100.169V10.7356C100.169 12.5743 101.125 13.5227 102.697 13.5227C104.269 13.5227 105.226 12.6066 105.226 10.8195V4.36788H107.8V10.7292C107.8 14.1421 105.835 15.8195 102.665 15.8195C99.4945 15.8195 97.595 14.1227 97.595 10.8066Z" fill="url(#paint4_linear)"/>
<path d="M109.594 13.9937L111.12 12.2583C112.088 13.1042 113.331 13.5823 114.625 13.6067C115.679 13.6067 116.315 13.2067 116.315 12.5421C116.315 11.897 115.915 11.5937 113.957 11.1099C111.599 10.5292 110.079 9.90343 110.079 7.66472C110.079 5.61956 111.782 4.26472 114.179 4.26472C115.753 4.23746 117.288 4.74306 118.528 5.69698L117.218 7.56794C116.338 6.90815 115.277 6.52182 114.173 6.45827C113.184 6.45827 112.666 6.89052 112.666 7.43891C112.666 8.18085 113.171 8.41956 115.194 8.92278C117.572 9.51633 118.908 10.3421 118.908 12.3034C118.908 14.5421 117.133 15.8002 114.612 15.8002C112.771 15.8208 110.987 15.1784 109.594 13.9937Z" fill="url(#paint5_linear)"/>
<path d="M121.103 4.36133H123.677V8.82584H128.426V4.36133H131V15.6387H128.426V11.1226H123.677V15.6387H121.103V4.36133Z" fill="url(#paint6_linear)"/>
</g>
<defs>
<linearGradient id="paint0_linear" x1="14.3641" y1="10" x2="6.7858" y2="10" gradientUnits="userSpaceOnUse">
<stop stop-color="#784CFB"/>
<stop offset="1" stop-color="#2AF4FF"/>
</linearGradient>
<linearGradient id="paint1_linear" x1="30.7399" y1="90.2622" x2="7.79105" y2="90.2622" gradientUnits="userSpaceOnUse">
<stop stop-color="#784CFB"/>
<stop offset="1" stop-color="#2AF4FF"/>
</linearGradient>
<linearGradient id="paint2_linear" x1="149.828" y1="19.6772" x2="98.7368" y2="19.6772" gradientUnits="userSpaceOnUse">
<stop stop-color="#784CFB"/>
<stop offset="1" stop-color="#2AF4FF"/>
</linearGradient>
<linearGradient id="paint3_linear" x1="1391.12" y1="179.297" x2="2116.4" y2="179.297" gradientUnits="userSpaceOnUse">
<stop stop-color="#784CFB"/>
<stop offset="1" stop-color="#2AF4FF"/>
</linearGradient>
<linearGradient id="paint4_linear" x1="1414.03" y1="183.66" x2="2145.41" y2="183.66" gradientUnits="userSpaceOnUse">
<stop stop-color="#784CFB"/>
<stop offset="1" stop-color="#2AF4FF"/>
</linearGradient>
<linearGradient id="paint5_linear" x1="1311.11" y1="183.087" x2="1978.65" y2="183.087" gradientUnits="userSpaceOnUse">
<stop stop-color="#784CFB"/>
<stop offset="1" stop-color="#2AF4FF"/>
</linearGradient>
<linearGradient id="paint6_linear" x1="1397.82" y1="179.161" x2="2107.15" y2="179.161" gradientUnits="userSpaceOnUse">
<stop stop-color="#784CFB"/>
<stop offset="1" stop-color="#2AF4FF"/>
</linearGradient>
<clipPath id="clip0">
<rect width="131" height="20" fill="white"/>
</clipPath>
</defs>
</svg>
