<svg width="230" height="60" viewBox="0 0 230 60" fill="none" xmlns="http://www.w3.org/2000/svg">
<rect width="230" height="60" rx="3" fill="white"/>
<path d="M170 0H227C228.657 0 230 1.34315 230 3V57C230 58.6569 228.657 60 227 60H170V0Z" fill="#FAFCFC"/>
<rect opacity="0.5" x="170" width="7" height="60" fill="url(#paint0_linear)"/>
<path d="M200 20L203.09 26.5836L210 27.6393L205 32.7639L206.18 40L200 36.5836L193.82 40L195 32.7639L190 27.6393L196.91 26.5836L200 20Z" fill="#FFBA00"/>
<path fill-rule="evenodd" clip-rule="evenodd" d="M22 30L16.9845 33.6065C16.7981 33.7452 16.6245 33.9007 16.4659 34.071C16.4196 34.1177 16.3766 34.1711 16.3321 34.2265C16.3152 34.2476 16.298 34.269 16.2803 34.2903C16.2414 34.3311 16.2051 34.3742 16.1715 34.4194C16.1207 34.4781 16.0777 34.5431 16.0434 34.6129C15.984 34.7061 15.9305 34.8031 15.8834 34.9032C15.8265 35.0291 15.7773 35.1584 15.7362 35.2903C15.7052 35.3507 15.6857 35.4163 15.6786 35.4839C15.6324 35.6241 15.6023 35.7691 15.5889 35.9161L15 40L29 30L15 20L15.4161 23L15.5889 24.1677C15.6564 24.6237 15.8149 25.0611 16.0547 25.4536C16.2946 25.8462 16.6109 26.1856 16.9845 26.4516L22 30ZM19.7239 30.0194L19.2694 30.3484L19.231 30.3742L15.9279 32.7291L16.4208 30.3742L16.4272 30.3484L16.4912 30.0194L16.4208 29.7355L16.4144 29.7097L15.8703 27.4259L19.263 29.7097L19.3014 29.7355L19.7239 30.0194Z" fill="#784CFB"/>
<path fill-rule="evenodd" clip-rule="evenodd" d="M74.6359 30.0073C74.6425 29.2004 74.8099 28.403 75.1281 27.662C75.4463 26.9209 75.909 26.2513 76.4888 25.6923C77.0687 25.1333 77.7541 24.6964 78.5047 24.4071C79.2552 24.1178 80.0559 23.9821 80.8595 24.0079C82.5561 23.9249 84.22 24.4974 85.509 25.6077L83.8617 27.5542C83.0332 26.7509 81.9251 26.3037 80.7732 26.3077C79.8429 26.3373 78.9622 26.7354 78.3237 27.415C77.6851 28.0945 77.3407 29.0002 77.3658 29.9339C77.3409 30.4193 77.4163 30.9046 77.5871 31.3594C77.758 31.8141 78.0207 32.2285 78.3588 32.5766C78.6968 32.9246 79.1029 33.1987 79.5515 33.3817C80.0002 33.5648 80.4817 33.6528 80.9658 33.6402C81.8337 33.6765 82.6918 33.4437 83.4233 32.9736V31.3071H80.7665V29.094H85.9208V34.1535C84.5037 35.3536 82.7071 36.0082 80.8529 35.9999C77.1798 35.9999 74.6359 33.4535 74.6359 30.0073ZM57.8052 34.1L59.3461 32.3069C60.3231 33.1867 61.5808 33.6878 62.893 33.7201C63.9624 33.7201 64.6067 33.3068 64.6067 32.6202C64.6067 31.9536 64.2015 31.6403 62.2155 31.1404C59.8244 30.5404 58.2834 29.8938 58.2834 27.5807C58.2834 25.4676 60.0104 24.0678 62.4414 24.0678C64.037 24.0396 65.5938 24.562 66.8517 25.5476L65.5233 27.4808C64.6302 26.799 63.5549 26.3999 62.4347 26.3342C61.4318 26.3342 60.907 26.7808 60.907 27.3474C60.907 28.114 61.4185 28.3607 63.4709 28.8806C65.882 29.4939 67.2369 30.3471 67.2369 32.3736C67.2369 34.6866 65.4369 35.9865 62.8797 35.9865C61.0157 35.999 59.2113 35.3282 57.8052 34.1ZM38.6495 24.1478H34V35.7665H38.6495C42.3823 35.7665 44.9594 33.2201 44.9594 29.9405C44.9594 26.6608 42.3823 24.1478 38.6495 24.1478ZM40.0257 33.2858C39.5857 33.4473 39.1167 33.5135 38.6495 33.4801L36.6303 33.4868V26.4942H38.6229C39.0938 26.4649 39.5656 26.5351 40.0079 26.7002C40.4501 26.8653 40.8529 27.1217 41.1903 27.4527C41.5277 27.7838 41.7921 28.1822 41.9665 28.6222C42.141 29.0622 42.2215 29.534 42.203 30.0071C42.2238 30.4768 42.1454 30.9456 41.973 31.3827C41.8005 31.8198 41.5378 32.2153 41.2022 32.5433C40.8666 32.8713 40.4657 33.1244 40.0257 33.2858ZM56.2106 24.1478H47.2571V35.7998H56.2969V33.5201H49.8541V31.0737H55.4534V28.7939H49.8541V26.4275H56.2106V24.1478ZM72.1993 24.1478H69.589V35.7998H72.1993V24.1478ZM90.8635 24.1478H88.4524V35.7998H91.0295V28.394L96.7815 35.7998H99V24.1478H96.4229V31.3203L90.8635 24.1478Z" fill="#282828"/>
<path fill-rule="evenodd" clip-rule="evenodd" d="M127.748 34.1041L129.263 32.3019C130.224 33.1803 131.457 33.6768 132.742 33.7021C133.789 33.7021 134.42 33.2867 134.42 32.5966C134.42 31.9267 134.023 31.6118 132.079 31.1093C129.737 30.5064 128.229 29.8565 128.229 27.5318C128.229 25.408 129.92 24.0011 132.3 24.0011C133.862 23.9728 135.386 24.4978 136.618 25.4884L135.317 27.4313C134.443 26.7461 133.39 26.3449 132.293 26.2789C131.311 26.2789 130.797 26.7278 130.797 27.2973C130.797 28.0677 131.298 28.3156 133.308 28.8382C135.668 29.4545 136.995 30.3121 136.995 32.3488C136.995 34.6735 135.232 35.9799 132.729 35.9799C130.902 36.0013 129.13 35.3342 127.748 34.1041ZM109.332 24.1016H104V36H106.5V32H108.5L111 36H114L111.205 31.6319C111.96 31.3968 112.618 30.9085 113.072 30.2445C113.527 29.5805 113.753 28.779 113.715 27.9673C113.735 27.4744 113.657 26.9826 113.486 26.5218C113.315 26.0611 113.054 25.6411 112.72 25.2874C111.787 24.4469 110.569 24.0207 109.332 24.1016ZM111.095 28.1348C111.095 29.1196 110.386 29.7896 109.144 29.7896H106.5V26.4599H109.085C110.334 26.4599 111.095 27.0293 111.095 28.1348ZM115.835 24.0948V30.7944C115.835 34.238 117.721 36 120.868 36C124.016 36 125.966 34.2581 125.966 30.714V24.1082H123.411V30.8078C123.411 32.6636 122.461 33.6149 120.901 33.6149C119.34 33.6149 118.391 32.6301 118.391 30.7207V24.0948H115.835ZM141.5 24.0011H139V36H141.5V31H146.444V36H149V24.0011H146.444V28.5H141.5V24.0011Z" fill="#784CFB"/>
<defs>
<linearGradient id="paint0_linear" x1="170" y1="30" x2="177" y2="30" gradientUnits="userSpaceOnUse">
<stop stop-color="#E8EFEF"/>
<stop offset="1" stop-color="#FAFCFC" stop-opacity="0"/>
</linearGradient>
</defs>
</svg>
