<svg width="194" height="54" viewBox="0 0 194 54" fill="none" xmlns="http://www.w3.org/2000/svg">
<path d="M88 34L90.2451 40.9098H97.5106L91.6327 45.1803L93.8779 52.0902L88 47.8197L82.1221 52.0902L84.3673 45.1803L78.4894 40.9098H85.7549L88 34Z" fill="#784CFB"/>
<path d="M112 34L114.245 40.9098H121.511L115.633 45.1803L117.878 52.0902L112 47.8197L106.122 52.0902L108.367 45.1803L102.489 40.9098H109.755L112 34Z" fill="#784CFB"/>
<path d="M136 34L138.245 40.9098H145.511L139.633 45.1803L141.878 52.0902L136 47.8197L130.122 52.0902L132.367 45.1803L126.489 40.9098H133.755L136 34Z" fill="#784CFB"/>
<path d="M160 34L162.245 40.9098H169.511L163.633 45.1803L165.878 52.0902L160 47.8197L154.122 52.0902L156.367 45.1803L150.489 40.9098H157.755L160 34Z" fill="#784CFB"/>
<path d="M184 34L186.245 40.9098H193.511L187.633 45.1803L189.878 52.0902L184 47.8197L178.122 52.0902L180.367 45.1803L174.489 40.9098H181.755L184 34Z" fill="#784CFB"/>
<g clip-path="url(#clip0)">
<path d="M8.66796 12.0465L8.13662 11.6826H8.08904L2.45843 7.74194C1.9956 7.42278 1.6038 7.01539 1.30667 6.54436C1.00954 6.07333 0.813233 5.54842 0.7296 5.00129L0.515478 3.6L0 0L8.38247 11.6129L8.66796 12.0465Z" fill="#774EFB"/>
<path d="M17.3439 12.0465L16.8046 12.4103H16.757L0 24L1.78435 21.5458L2.0857 21.1045L8.38247 12.4413L8.60452 12.1471C8.60311 12.1291 8.60311 12.1109 8.60452 12.0929L8.38247 11.6129L0 0L16.757 11.6129H16.8046L17.3439 12.0465Z" fill="url(#paint0_linear)"/>
<path d="M5.85249 12.0234L5.28943 12.4182L5.24185 12.4492L1.14974 15.275L1.76039 12.4492L1.76832 12.4182L1.84762 12.0234L1.76039 11.6827L1.75246 11.6518L1.07837 8.91113L5.2815 11.6518L5.32908 11.6827L5.85249 12.0234Z" fill="url(#paint1_linear)"/>
<path opacity="0.2" d="M8.6759 12.0465L0 0L0.515478 3.6L8.6759 12.0465Z" fill="black"/>
<path opacity="0.2" d="M17.3439 12.0464L16.8046 12.4103H16.757L0 23.9999L0.7296 19.0993C0.746216 18.9228 0.783467 18.7488 0.840626 18.5806C0.849475 18.4995 0.873677 18.4208 0.912 18.3483C0.96299 18.19 1.0239 18.0348 1.0944 17.8838C1.15276 17.7636 1.21898 17.6473 1.29266 17.5354C1.33513 17.4517 1.38844 17.3736 1.45127 17.3032C1.49294 17.2489 1.53796 17.1972 1.58609 17.1483C1.66539 17.0554 1.73676 16.9625 1.81607 16.8851C2.01253 16.6808 2.22753 16.4942 2.45843 16.3277L8.09697 12.4567H8.14456L8.67589 12.0928L17.3439 12.0464Z" fill="black"/>
<path d="M0 23.9999C0 23.9999 7.13739 13.649 8.66796 12.0464C5.99405 16.1757 3.10078 20.1656 0 23.9999H0Z" fill="#50E2B6"/>
<path opacity="0.2" d="M5.85233 12.0232L5.28927 12.418L5.24169 12.449L1.14958 15.2748L1.76023 12.449L1.76816 12.418L1.84746 12.0232H5.85233Z" fill="black"/>
<path d="M17.3439 12.0001L16.2813 12.2401C15.8629 12.3373 15.4345 12.3866 15.0045 12.3872H10.9679C10.5243 12.3871 10.0823 12.3352 9.65142 12.2324L8.66805 12.0001L9.65142 11.7679C10.0823 11.6651 10.5243 11.6131 10.9679 11.613H15.0045C15.4345 11.6136 15.8629 11.663 16.2813 11.7601L17.3439 12.0001Z" fill="url(#paint2_linear)"/>
<path d="M22.7202 5.2334H28.2715C32.7284 5.2334 35.8054 8.15211 35.8054 11.9611C35.8054 15.7702 32.7284 18.7276 28.2715 18.7276H22.7202V5.2334ZM28.2715 16.0721C28.8294 16.1109 29.3894 16.034 29.9147 15.8465C30.44 15.659 30.9187 15.3651 31.3194 14.9841C31.7201 14.6032 32.0337 14.1438 32.2396 13.6361C32.4456 13.1285 32.5392 12.584 32.5143 12.0386C32.5364 11.489 32.4402 10.941 32.232 10.43C32.0237 9.91901 31.708 9.45632 31.3052 9.07184C30.9023 8.68735 30.4214 8.38961 29.8934 8.19785C29.3654 8.00609 28.802 7.92457 28.2398 7.95856H25.8606V16.0798L28.2715 16.0721Z" fill="#0F303B"/>
<path d="M38.5494 5.2334H49.2396V7.88114H41.6502V10.6295H48.3356V13.2773H41.6502V16.1186H49.3427V18.7663H38.5494V5.2334Z" fill="#0F303B"/>
<path d="M51.1431 16.7923L52.983 14.7097C54.1494 15.7315 55.6511 16.3135 57.2178 16.351C58.4946 16.351 59.2639 15.871 59.2639 15.0736C59.2639 14.2994 58.7801 13.9355 56.4089 13.3549C53.5539 12.6581 51.7141 11.9071 51.7141 9.22066C51.7141 6.76647 53.776 5.14066 56.6785 5.14066C58.5836 5.10795 60.4425 5.71467 61.9444 6.85937L60.3583 9.10453C59.2919 8.31278 58.0081 7.84918 56.6706 7.77292C55.4731 7.77292 54.8466 8.29163 54.8466 8.94969C54.8466 9.84002 55.4573 10.1265 57.9078 10.7303C60.7865 11.4426 62.4043 12.4336 62.4043 14.7871C62.4043 17.4736 60.2552 18.9832 57.202 18.9832C54.9764 18.9978 52.8219 18.2187 51.1431 16.7923Z" fill="#0F303B"/>
<path d="M65.2119 5.2334H68.3286V18.7663H65.2119V5.2334Z" fill="#0F303B"/>
<path d="M71.2388 12.0387C71.2468 11.1016 71.4466 10.1755 71.8265 9.31483C72.2065 8.45419 72.7589 7.67641 73.4512 7.02722C74.1435 6.37803 74.9618 5.87053 75.858 5.53458C76.7542 5.19863 77.7101 5.041 78.6696 5.07096C80.6954 4.97455 82.6819 5.63948 84.2209 6.92902L82.2542 9.18967C81.265 8.25675 79.942 7.73735 78.5665 7.74193C77.4558 7.77633 76.4043 8.23872 75.6419 9.02797C74.8795 9.81722 74.4683 10.8691 74.4982 11.9535C74.4685 12.5173 74.5585 13.0809 74.7625 13.6091C74.9665 14.1372 75.2802 14.6185 75.6838 15.0227C76.0875 15.4269 76.5723 15.7453 77.1079 15.9579C77.6436 16.1705 78.2185 16.2727 78.7965 16.2581C79.8328 16.3002 80.8573 16.0299 81.7308 15.4839V13.5484H78.5586V10.9781H84.7126V16.8542C83.0206 18.2481 80.8756 19.0083 78.6617 18.9987C74.2762 18.9987 71.2388 16.0413 71.2388 12.0387Z" fill="#0F303B"/>
<path d="M87.7348 5.2334H90.6135L97.2513 13.5637V5.2334H100.328V18.7663H97.6795L90.8118 10.165V18.7663H87.7348V5.2334Z" fill="#0F303B"/>
<path d="M103.731 5.23367H110.234C111.742 5.14011 113.227 5.6327 114.365 6.60399C114.772 7.01264 115.09 7.49799 115.299 8.03042C115.507 8.56285 115.602 9.13119 115.579 9.70076C115.625 10.6388 115.349 11.565 114.794 12.3323C114.24 13.0996 113.438 13.6639 112.517 13.9356L115.983 18.7666H112.335L109.298 14.4388H106.847V18.7666H103.731V5.23367ZM110.004 11.8066C111.518 11.8066 112.383 11.0324 112.383 9.89431C112.383 8.61689 111.455 7.95883 109.932 7.95883H106.831V11.8298L110.004 11.8066Z" fill="url(#paint3_linear)"/>
<path d="M118.163 12.9678V5.22583H121.28V12.8826C121.28 15.0891 122.438 16.2271 124.341 16.2271C126.245 16.2271 127.402 15.1278 127.402 12.9832V5.24131H130.519V12.8749C130.519 16.9703 128.14 18.9832 124.302 18.9832C120.463 18.9832 118.163 16.9471 118.163 12.9678Z" fill="url(#paint4_linear)"/>
<path d="M132.692 16.7923L134.539 14.7097C135.711 15.7248 137.216 16.2986 138.782 16.3278C140.059 16.3278 140.828 15.8478 140.828 15.0504C140.828 14.2762 140.344 13.9123 137.973 13.3317C135.118 12.6349 133.278 11.8839 133.278 9.19747C133.278 6.74327 135.34 5.11747 138.243 5.11747C140.148 5.08476 142.007 5.69147 143.509 6.83618L141.923 9.08134C140.856 8.28958 139.572 7.82599 138.235 7.74973C137.037 7.74973 136.411 8.26843 136.411 8.9265C136.411 9.81682 137.022 10.1033 139.472 10.7071C142.351 11.4194 143.969 12.4104 143.969 14.7639C143.969 17.4504 141.819 18.96 138.766 18.96C136.538 18.9848 134.378 18.2139 132.692 16.7923Z" fill="url(#paint5_linear)"/>
<path d="M146.626 5.2334H149.742V10.5908H155.492V5.2334H158.609V18.7663H155.492V13.3469H149.742V18.7663H146.626V5.2334Z" fill="url(#paint6_linear)"/>
</g>
<path d="M1.01953 43.7695L1.48242 39.4688H6.06445V40.6992H2.66602L2.43164 42.7383C2.82617 42.5117 3.27148 42.3984 3.76758 42.3984C4.58008 42.3984 5.21094 42.6582 5.66016 43.1777C6.11328 43.6973 6.33984 44.3965 6.33984 45.2754C6.33984 46.1426 6.08984 46.834 5.58984 47.3496C5.08984 47.8613 4.4043 48.1172 3.5332 48.1172C2.75195 48.1172 2.10352 47.8965 1.58789 47.4551C1.07617 47.0098 0.798828 46.4238 0.755859 45.6973H2.13281C2.1875 46.1113 2.33594 46.4297 2.57812 46.6523C2.82031 46.8711 3.13672 46.9805 3.52734 46.9805C3.96484 46.9805 4.30469 46.8242 4.54688 46.5117C4.79297 46.1992 4.91602 45.7734 4.91602 45.2344C4.91602 44.7148 4.78125 44.3047 4.51172 44.0039C4.24219 43.6992 3.87109 43.5469 3.39844 43.5469C3.14062 43.5469 2.92188 43.582 2.74219 43.6523C2.5625 43.7188 2.36719 43.8516 2.15625 44.0508L1.01953 43.7695ZM13.8105 44.7129H12.1582V48H10.6758V39.4688H13.6758C14.6602 39.4688 15.4199 39.6895 15.9551 40.1309C16.4902 40.5723 16.7578 41.2109 16.7578 42.0469C16.7578 42.6172 16.6191 43.0957 16.3418 43.4824C16.0684 43.8652 15.6855 44.1602 15.1934 44.3672L17.1094 47.9238V48H15.5215L13.8105 44.7129ZM12.1582 43.5234H13.6816C14.1816 43.5234 14.5723 43.3984 14.8535 43.1484C15.1348 42.8945 15.2754 42.5488 15.2754 42.1113C15.2754 41.6543 15.1445 41.3008 14.8828 41.0508C14.625 40.8008 14.2383 40.6719 13.7227 40.6641H12.1582V43.5234ZM20.8184 48.1172C19.916 48.1172 19.1836 47.834 18.6211 47.2676C18.0625 46.6973 17.7832 45.9395 17.7832 44.9941V44.8184C17.7832 44.1855 17.9043 43.6211 18.1465 43.125C18.3926 42.625 18.7363 42.2363 19.1777 41.959C19.6191 41.6816 20.1113 41.543 20.6543 41.543C21.5176 41.543 22.1836 41.8184 22.6523 42.3691C23.125 42.9199 23.3613 43.6992 23.3613 44.707V45.2812H19.2188C19.2617 45.8047 19.4355 46.2188 19.7402 46.5234C20.0488 46.8281 20.4355 46.9805 20.9004 46.9805C21.5527 46.9805 22.084 46.7168 22.4941 46.1895L23.2617 46.9219C23.0078 47.3008 22.668 47.5957 22.2422 47.8066C21.8203 48.0137 21.3457 48.1172 20.8184 48.1172ZM20.6484 42.6855C20.2578 42.6855 19.9414 42.8223 19.6992 43.0957C19.4609 43.3691 19.3086 43.75 19.2422 44.2383H21.9551V44.1328C21.9238 43.6562 21.7969 43.2969 21.5742 43.0547C21.3516 42.8086 21.043 42.6855 20.6484 42.6855ZM26.625 46.1953L27.9668 41.6602H29.4375L27.2402 48H26.0039L23.7891 41.6602H25.2656L26.625 46.1953ZM31.8457 48H30.4219V41.6602H31.8457V48ZM30.334 40.0137C30.334 39.7949 30.4023 39.6133 30.5391 39.4688C30.6797 39.3242 30.8789 39.252 31.1367 39.252C31.3945 39.252 31.5938 39.3242 31.7344 39.4688C31.875 39.6133 31.9453 39.7949 31.9453 40.0137C31.9453 40.2285 31.875 40.4082 31.7344 40.5527C31.5938 40.6934 31.3945 40.7637 31.1367 40.7637C30.8789 40.7637 30.6797 40.6934 30.5391 40.5527C30.4023 40.4082 30.334 40.2285 30.334 40.0137ZM36.1934 48.1172C35.291 48.1172 34.5586 47.834 33.9961 47.2676C33.4375 46.6973 33.1582 45.9395 33.1582 44.9941V44.8184C33.1582 44.1855 33.2793 43.6211 33.5215 43.125C33.7676 42.625 34.1113 42.2363 34.5527 41.959C34.9941 41.6816 35.4863 41.543 36.0293 41.543C36.8926 41.543 37.5586 41.8184 38.0273 42.3691C38.5 42.9199 38.7363 43.6992 38.7363 44.707V45.2812H34.5938C34.6367 45.8047 34.8105 46.2188 35.1152 46.5234C35.4238 46.8281 35.8105 46.9805 36.2754 46.9805C36.9277 46.9805 37.459 46.7168 37.8691 46.1895L38.6367 46.9219C38.3828 47.3008 38.043 47.5957 37.6172 47.8066C37.1953 48.0137 36.7207 48.1172 36.1934 48.1172ZM36.0234 42.6855C35.6328 42.6855 35.3164 42.8223 35.0742 43.0957C34.8359 43.3691 34.6836 43.75 34.6172 44.2383H37.3301V44.1328C37.2988 43.6562 37.1719 43.2969 36.9492 43.0547C36.7266 42.8086 36.418 42.6855 36.0234 42.6855ZM45.416 46.0371L46.4238 41.6602H47.8125L46.084 48H44.9121L43.5527 43.6465L42.2168 48H41.0449L39.3105 41.6602H40.6992L41.7246 45.9902L43.0254 41.6602H44.0977L45.416 46.0371ZM52.3184 46.2773C52.3184 46.0234 52.2129 45.8301 52.002 45.6973C51.7949 45.5645 51.4492 45.4473 50.9648 45.3457C50.4805 45.2441 50.0762 45.1152 49.752 44.959C49.041 44.6152 48.6855 44.1172 48.6855 43.4648C48.6855 42.918 48.916 42.4609 49.377 42.0938C49.8379 41.7266 50.4238 41.543 51.1348 41.543C51.8926 41.543 52.5039 41.7305 52.9688 42.1055C53.4375 42.4805 53.6719 42.9668 53.6719 43.5645H52.248C52.248 43.291 52.1465 43.0645 51.9434 42.8848C51.7402 42.7012 51.4707 42.6094 51.1348 42.6094C50.8223 42.6094 50.5664 42.6816 50.3672 42.8262C50.1719 42.9707 50.0742 43.1641 50.0742 43.4062C50.0742 43.625 50.166 43.7949 50.3496 43.916C50.5332 44.0371 50.9043 44.1602 51.4629 44.2852C52.0215 44.4062 52.459 44.5527 52.7754 44.7246C53.0957 44.8926 53.332 45.0957 53.4844 45.334C53.6406 45.5723 53.7188 45.8613 53.7188 46.2012C53.7188 46.7715 53.4824 47.2344 53.0098 47.5898C52.5371 47.9414 51.918 48.1172 51.1523 48.1172C50.6328 48.1172 50.1699 48.0234 49.7637 47.8359C49.3574 47.6484 49.041 47.3906 48.8145 47.0625C48.5879 46.7344 48.4746 46.3809 48.4746 46.002H49.8574C49.877 46.3379 50.0039 46.5977 50.2383 46.7812C50.4727 46.9609 50.7832 47.0508 51.1699 47.0508C51.5449 47.0508 51.8301 46.9805 52.0254 46.8398C52.2207 46.6953 52.3184 46.5078 52.3184 46.2773Z" fill="#65767C"/>
<defs>
<linearGradient id="paint0_linear" x1="17.3914" y1="12" x2="8.21593" y2="12" gradientUnits="userSpaceOnUse">
<stop stop-color="#784CFB"/>
<stop offset="1" stop-color="#2AF4FF"/>
</linearGradient>
<linearGradient id="paint1_linear" x1="37.2185" y1="108.315" x2="9.43308" y2="108.315" gradientUnits="userSpaceOnUse">
<stop stop-color="#784CFB"/>
<stop offset="1" stop-color="#2AF4FF"/>
</linearGradient>
<linearGradient id="paint2_linear" x1="181.405" y1="23.613" x2="119.546" y2="23.613" gradientUnits="userSpaceOnUse">
<stop stop-color="#784CFB"/>
<stop offset="1" stop-color="#2AF4FF"/>
</linearGradient>
<linearGradient id="paint3_linear" x1="1684.31" y1="215.157" x2="2562.44" y2="215.157" gradientUnits="userSpaceOnUse">
<stop stop-color="#784CFB"/>
<stop offset="1" stop-color="#2AF4FF"/>
</linearGradient>
<linearGradient id="paint4_linear" x1="1712.04" y1="220.392" x2="2597.57" y2="220.392" gradientUnits="userSpaceOnUse">
<stop stop-color="#784CFB"/>
<stop offset="1" stop-color="#2AF4FF"/>
</linearGradient>
<linearGradient id="paint5_linear" x1="1587.43" y1="219.705" x2="2395.66" y2="219.705" gradientUnits="userSpaceOnUse">
<stop stop-color="#784CFB"/>
<stop offset="1" stop-color="#2AF4FF"/>
</linearGradient>
<linearGradient id="paint6_linear" x1="1692.42" y1="214.993" x2="2551.23" y2="214.993" gradientUnits="userSpaceOnUse">
<stop stop-color="#784CFB"/>
<stop offset="1" stop-color="#2AF4FF"/>
</linearGradient>
<clipPath id="clip0">
<rect width="158.609" height="24" fill="white"/>
</clipPath>
</defs>
</svg>
