<svg width="40" height="40" viewBox="0 0 40 40" fill="none" xmlns="http://www.w3.org/2000/svg">
<path fill-rule="evenodd" clip-rule="evenodd" d="M11.4693 27.4698L19.3646 11.759C19.6322 11.2272 20.4021 11.2303 20.6682 11.7591L28.5633 27.4698C28.6782 27.6983 28.6616 27.9698 28.5196 28.1831L24.1276 34.7793V39.0322C24.1276 39.4264 23.8041 39.7501 23.4 39.7501H16.6326C16.2285 39.7501 15.9051 39.4264 15.9051 39.0322V34.7793L11.5131 28.1831C11.371 27.9698 11.3545 27.6983 11.4693 27.4698ZM20.7439 15.0002V27.7888C20.7439 28.183 20.4204 28.5068 20.0163 28.5068C19.6122 28.5068 19.2888 28.183 19.2888 27.7888V15.0002L12.9579 27.7382L17.0251 33.8466H23.0077L27.0749 27.7382L20.7439 15.0002ZM22.6725 35.2826H17.3601V38.3142H22.6725V35.2826Z" fill="#939393"/>
<path fill-rule="evenodd" clip-rule="evenodd" d="M22.5469 2.65625H32.7348L32.8086 2.44821C32.821 2.4131 32.8341 2.37828 32.8477 2.34375H33.0724V4.6875H32.8477C32.8341 4.65297 32.821 4.61815 32.8086 4.58304L32.7348 4.375H26.9586L27.9746 4.95849C33.3464 8.04352 36.6875 13.7378 36.6875 19.9219C36.6875 20.3965 36.3027 20.7813 35.8281 20.7813C35.3535 20.7813 34.9688 20.3965 34.9688 19.9219C34.9688 12.7036 29.8821 6.43005 22.9311 4.79092L22.3438 5H17.3438L16.7564 4.791C9.8054 6.43005 4.71875 12.7036 4.71875 19.9219C4.71875 20.3965 4.33397 20.7813 3.85938 20.7813C3.38478 20.7813 3 20.3965 3 19.9219C3 13.7299 6.34773 8.0389 11.7129 4.95771L12.7289 4.37422H7.17344V2.65625H17.1406L17.3438 5H22.3438L22.5469 2.65625Z" fill="#43BAD6"/>
<path d="M4.51548 7.03125C6.45703 7.03125 8.03096 5.45717 8.03096 3.51562C8.03096 1.57408 6.45703 0 4.51548 0C2.5739 0 0.999947 1.57414 1 3.51572C1.00005 5.45723 2.57397 7.03125 4.51548 7.03125ZM5.76161 2.25389C6.4468 2.94335 6.4468 4.05665 5.76161 4.74611C5.0734 5.43861 3.9541 5.44207 3.26161 4.75385C2.56611 4.06262 2.56611 2.93738 3.26161 2.24615C3.9541 1.55793 5.0734 1.56139 5.76161 2.25389Z" fill="#4F4F4F"/>
<path d="M35.5155 7.03125C37.457 7.03125 39.031 5.45717 39.031 3.51562C39.031 1.57408 37.457 0 35.5155 0C33.5739 0 31.9999 1.57414 32 3.51572C32.0001 5.45723 33.574 7.03125 35.5155 7.03125ZM36.7616 2.25389C37.4468 2.94335 37.4468 4.05665 36.7616 4.74611C36.0734 5.43861 34.9541 5.44207 34.2616 4.75385C33.5661 4.06262 33.5661 2.93738 34.2616 2.24615C34.9541 1.55793 36.0734 1.56139 36.7616 2.25389Z" fill="#4F4F4F"/>
<path d="M19.5155 7.03125C21.457 7.03125 23.031 5.45717 23.031 3.51562C23.031 1.57408 21.457 0 19.5155 0C17.5739 0 15.9999 1.57414 16 3.51572C16.0001 5.45723 17.574 7.03125 19.5155 7.03125ZM20.7616 2.25389C21.4468 2.94335 21.4468 4.05665 20.7616 4.74611C20.0734 5.43861 18.9541 5.44207 18.2616 4.75385C17.5661 4.06262 17.5661 2.93738 18.2616 2.24615C18.9541 1.55793 20.0734 1.56139 20.7616 2.25389Z" fill="#4F4F4F"/>
</svg>
