<svg width="290" height="20" viewBox="0 0 290 20" fill="none" xmlns="http://www.w3.org/2000/svg">
<path d="M184 0L186.245 6.90983H193.511L187.633 11.1803L189.878 18.0902L184 13.8197L178.122 18.0902L180.367 11.1803L174.489 6.90983H181.755L184 0Z" fill="#FFBA00"/>
<path d="M208 0L210.245 6.90983H217.511L211.633 11.1803L213.878 18.0902L208 13.8197L202.122 18.0902L204.367 11.1803L198.489 6.90983H205.755L208 0Z" fill="#FFBA00"/>
<path d="M232 0L234.245 6.90983H241.511L235.633 11.1803L237.878 18.0902L232 13.8197L226.122 18.0902L228.367 11.1803L222.489 6.90983H229.755L232 0Z" fill="#FFBA00"/>
<path d="M256 0L258.245 6.90983H265.511L259.633 11.1803L261.878 18.0902L256 13.8197L250.122 18.0902L252.367 11.1803L246.489 6.90983H253.755L256 0Z" fill="#FFBA00"/>
<path d="M280 0L282.245 6.90983H289.511L283.633 11.1803L285.878 18.0902L280 13.8197L274.122 18.0902L276.367 11.1803L270.489 6.90983H277.755L280 0Z" fill="#FFBA00"/>
<path d="M8.20441 7.03333C8.20441 7.03333 7.0963 6.92286 7.0963 7.91238V12.3076H14.414V13.6267C14.414 13.6267 14.4359 14.2857 13.7488 14.2857H7.0963V20H15.0793C15.0793 20 19.9128 19.2524 19.9574 14.2857V7.03333H8.20441ZM19.7351 0H5.32199C0.110241 1.23048 0 5.51619 0 5.51619V20H5.54437V6.81333C5.54437 5.69238 6.65248 5.49524 6.65248 5.49524H19.736V0H19.7351ZM38.7631 15.8552C38.3829 16.1095 38.1016 16.2962 37.903 16.4152C37.1921 16.8562 36.5145 17.1962 35.8863 17.4676C34.9769 17.841 34.1662 18.0276 33.4392 18.0276C30.9426 18.0276 28.8756 17.2638 27.2048 15.719C25.5341 14.1743 24.7092 12.24 24.7092 9.8981C24.7092 7.64095 25.4533 5.68857 26.9578 4.02476C28.4622 2.3619 30.2811 1.54667 32.4309 1.54667C33.3242 1.54667 34.2821 1.69905 35.2743 2.02286C36.5639 2.42952 37.6055 3.04095 38.4323 3.8381L36.9935 5.43333C36.3824 4.84 35.5889 4.3981 34.6623 4.12667C33.9685 3.92286 33.2082 3.8219 32.3643 3.8219C30.8599 3.8219 29.5864 4.43143 28.5781 5.63714C27.5698 6.85905 27.0575 8.3019 27.0575 9.99905C27.0575 11.68 27.6354 13.0543 28.7929 14.1581C29.9504 15.261 31.4216 15.821 33.2073 15.821C33.9514 15.821 34.7127 15.5829 35.4891 15.1257C36.1344 14.6333 36.4651 14.3952 36.4813 14.3781V10.899H31.6535L32.3472 8.72667H38.7631V15.8552ZM53.3463 11.6114C53.3463 13.2914 52.7513 14.7514 51.5605 15.9733C50.3697 17.1952 48.8986 17.8238 47.1461 17.8238C45.5258 17.8238 44.1041 17.2124 42.88 16.0076C41.6559 14.8029 41.061 13.3429 41.061 11.6286C41.061 9.93143 41.6407 8.47143 42.7973 7.21524C43.9539 5.95905 45.3766 5.34857 47.0464 5.34857C48.8986 5.34857 50.403 5.94286 51.5767 7.14762C52.7513 8.31905 53.3463 9.81238 53.3463 11.6114ZM51.0806 11.6457C51.0806 10.5086 50.7005 9.54095 49.9402 8.76C49.1799 7.9619 48.2371 7.57143 47.1129 7.57143C46.0551 7.57143 45.1618 7.97905 44.4177 8.79429C43.6735 9.60857 43.3096 10.5419 43.3096 11.5943C43.3096 12.6981 43.6897 13.6314 44.4338 14.4124C45.178 15.1933 46.1045 15.6 47.2279 15.6C48.2704 15.6 49.1628 15.2095 49.924 14.4286C50.7005 13.6476 51.0816 12.7143 51.0816 11.6457H51.0806ZM67.7308 11.6114C67.7308 13.2914 67.1359 14.7514 65.9451 15.9733C64.7543 17.1952 63.2832 17.8238 61.5307 17.8238C59.9104 17.8238 58.4886 17.2124 57.2646 16.0076C56.0415 14.8029 55.4456 13.3429 55.4456 11.6286C55.4456 9.93143 56.0253 8.47143 57.1819 7.21524C58.3394 5.95905 59.7611 5.34857 61.4309 5.34857C63.2832 5.34857 64.7876 5.94286 65.9613 7.14762C67.1359 8.31905 67.7308 9.81238 67.7308 11.6114ZM65.4652 11.6457C65.4652 10.5086 65.085 9.54095 64.3247 8.76C63.5645 7.9619 62.6217 7.57143 61.4974 7.57143C60.4397 7.57143 59.5464 7.97905 58.8022 8.79429C58.0581 9.60857 57.6941 10.5419 57.6941 11.5943C57.6941 12.6981 58.0743 13.6314 58.8193 14.4124C59.5625 15.1933 60.4891 15.6 61.6134 15.6C62.655 15.6 63.5474 15.2095 64.3086 14.4286C65.085 13.6476 65.4661 12.7143 65.4661 11.6457H65.4652ZM81.0415 17.4838L78.9583 17.8067V15.7867L78.5116 16.2952C78.1182 16.6646 77.6724 16.9737 77.1888 17.2124C76.4789 17.5405 75.7058 17.7086 74.924 17.7048C73.3037 17.7048 71.9143 17.1105 70.79 15.9048C69.6657 14.699 69.1041 13.2743 69.1041 11.6114C69.1041 9.89714 69.6657 8.42095 70.7739 7.1981C71.882 5.97524 73.2372 5.36476 74.8575 5.36476C75.7841 5.36476 76.5938 5.51714 77.2714 5.82286C77.7514 6.04381 78.1648 6.33238 78.5116 6.68952C78.6276 6.84191 78.7435 7.01143 78.8595 7.16381V1.86857L81.0738 1.54571L81.0415 17.4838ZM79.0904 11.7638C79.0904 10.5762 78.6932 9.57429 77.8835 8.76C77.0738 7.92762 76.1633 7.52095 75.1227 7.52095C73.9651 7.52095 73.0395 7.91143 72.3286 8.69238C71.6662 9.4381 71.3194 10.3552 71.3194 11.4248C71.3194 12.6295 71.6662 13.6305 72.3609 14.4114C73.0547 15.1924 73.9319 15.5829 75.0067 15.5829C76.0645 15.5829 76.9911 15.2267 77.8179 14.4971C78.6609 13.7495 79.0914 12.8333 79.0914 11.7638H79.0904ZM92.7308 4.07619H86.5307V8.3019H91.3414V10.4743H86.5307V17.4676L84.1168 17.8238V1.88571H92.2509L92.7308 4.07619ZM97.7078 2.83619L96.2196 4.72L94.7979 2.83619L96.3023 0.969524L97.7078 2.83619ZM97.2612 17.4838L95.0459 17.7895V5.99333L97.2612 5.65429V17.4848V17.4838ZM107.265 5.53524L106.223 7.94476C106.086 7.92385 105.948 7.91271 105.81 7.91143C105.595 7.91143 105.38 7.92857 105.164 7.9619C104.949 7.99524 104.718 8.08095 104.471 8.2C104.008 8.40381 103.611 8.84476 103.264 9.50667C102.88 10.2579 102.681 11.0903 102.684 11.9343V17.4676L100.47 17.8238V5.99333L102.52 5.62V8.08095C102.784 7.65619 103.065 7.23238 103.329 6.79143C103.709 6.34952 104.156 6.02762 104.652 5.84C104.916 5.73905 105.396 5.65333 106.123 5.58571C106.818 5.53524 107.215 5.50095 107.265 5.53524ZM123.765 17.4838L121.549 17.8067V9.71048C121.549 8.96286 121.384 8.42 121.053 8.08095C120.723 7.74095 120.227 7.57143 119.581 7.57143C118.805 7.57143 118.209 7.89429 117.813 8.53905C117.547 8.98 117.399 9.45524 117.399 9.93048V17.4667L115.184 17.8743V9.76095C115.184 9.04857 115.019 8.50476 114.704 8.13238C114.373 7.75809 113.944 7.57143 113.381 7.57143H113.166C112.389 7.57143 111.826 7.89429 111.479 8.55619C111.215 9.04857 111.083 9.67619 111.083 10.44V17.4667L108.785 17.8743V5.99333L110.851 5.63714V7.14762C111.083 6.79048 111.314 6.5019 111.53 6.29905C112.125 5.73905 112.819 5.46667 113.596 5.46667C114.472 5.46667 115.116 5.60286 115.563 5.89143C115.943 6.12952 116.307 6.60381 116.671 7.28286C117.432 6.07809 118.506 5.46667 119.929 5.46667C121.284 5.46667 122.294 5.89143 122.954 6.75714C123.5 7.46952 123.765 8.5219 123.765 9.89714V17.4838ZM133.886 13.9029C133.886 14.9886 133.506 15.8886 132.746 16.5848C131.985 17.2971 131.025 17.6371 129.868 17.6371C128.992 17.6371 128.214 17.4333 127.503 17.0257C126.793 16.619 126.264 16.16 125.916 15.6171L127.471 14.2257C127.586 14.3952 127.686 14.5305 127.785 14.6324C128.364 15.2267 129.058 15.5324 129.868 15.5324C130.43 15.5324 130.877 15.38 131.191 15.0914C131.521 14.8029 131.671 14.3952 131.671 13.8686C131.671 13.2752 131.291 12.8676 130.53 12.6467C129.025 12.1886 128.214 11.9343 128.099 11.8829C127.405 11.5267 126.908 11.1533 126.594 10.7286C126.247 10.2362 126.065 9.59143 126.065 8.76C126.065 7.74095 126.446 6.89333 127.19 6.21429C127.934 5.53524 128.826 5.21238 129.851 5.21238C130.629 5.21238 131.356 5.3819 132.018 5.73905C132.679 6.09524 133.158 6.46857 133.439 6.91048L132.116 8.35238C131.918 8.15307 131.702 7.97144 131.472 7.80952C130.943 7.43619 130.43 7.24952 129.951 7.24952C129.488 7.24952 129.108 7.35143 128.81 7.55429C128.462 7.80952 128.281 8.18286 128.281 8.67524C128.281 9.15048 128.446 9.50667 128.794 9.72762C129.091 9.91429 129.72 10.1181 130.712 10.3381C131.703 10.5762 132.464 10.9838 133.01 11.561C133.622 12.1714 133.886 12.9352 133.886 13.9029Z" fill="#4385F4"/>
</svg>
