<svg width="210" height="54" viewBox="0 0 210 54" fill="none" xmlns="http://www.w3.org/2000/svg">
<path d="M104 0L106.245 6.90983H113.511L107.633 11.1803L109.878 18.0902L104 13.8197L98.1221 18.0902L100.367 11.1803L94.4894 6.90983H101.755L104 0Z" fill="#FFBA00"/>
<path d="M128 0L130.245 6.90983H137.511L131.633 11.1803L133.878 18.0902L128 13.8197L122.122 18.0902L124.367 11.1803L118.489 6.90983H125.755L128 0Z" fill="#FFBA00"/>
<path d="M152 0L154.245 6.90983H161.511L155.633 11.1803L157.878 18.0902L152 13.8197L146.122 18.0902L148.367 11.1803L142.489 6.90983H149.755L152 0Z" fill="#FFBA00"/>
<path d="M176 0L178.245 6.90983H185.511L179.633 11.1803L181.878 18.0902L176 13.8197L170.122 18.0902L172.367 11.1803L166.489 6.90983H173.755L176 0Z" fill="#FFBA00"/>
<path d="M200 0L202.245 6.90983H209.511L203.633 11.1803L205.878 18.0902L200 13.8197L194.122 18.0902L196.367 11.1803L190.489 6.90983H197.755L200 0Z" fill="#FFBA00"/>
<path d="M9.85754 38.44C9.85754 38.44 8.52615 38.3074 8.52615 39.4949V44.7691H17.3183V46.352C17.3183 46.352 17.3446 47.1429 16.5191 47.1429H8.52615V54H18.1176C18.1176 54 23.9251 53.1029 23.9787 47.1429V38.44H9.85754ZM23.7115 30H6.39433C0.132454 31.4766 0 36.6194 0 36.6194V54H6.66152V38.176C6.66152 36.8309 7.99291 36.5943 7.99291 36.5943H23.7127V30H23.7115ZM46.5735 49.0263C46.1168 49.3314 45.7788 49.5554 45.5402 49.6983C44.6861 50.2274 43.8719 50.6354 43.1172 50.9611C42.0244 51.4091 41.0504 51.6331 40.1769 51.6331C37.1773 51.6331 34.6938 50.7166 32.6864 48.8629C30.6791 47.0091 29.6879 44.688 29.6879 41.8777C29.6879 39.1691 30.582 36.8263 32.3895 34.8297C34.1971 32.8343 36.3826 31.856 38.9654 31.856C40.0388 31.856 41.1897 32.0389 42.3818 32.4274C43.9313 32.9154 45.1828 33.6491 46.1762 34.6057L44.4474 36.52C43.7132 35.808 42.7598 35.2777 41.6465 34.952C40.8129 34.7074 39.8995 34.5863 38.8855 34.5863C37.078 34.5863 35.5479 35.3177 34.3364 36.7646C33.1249 38.2309 32.5094 39.9623 32.5094 41.9989C32.5094 44.016 33.2037 45.6651 34.5944 46.9897C35.9852 48.3131 37.7528 48.9851 39.8983 48.9851C40.7924 48.9851 41.707 48.6994 42.6399 48.1509C43.4152 47.56 43.8126 47.2743 43.832 47.2537V43.0789H38.0314L38.8649 40.472H46.5735V49.0263ZM64.0951 43.9337C64.0951 45.9497 63.3803 47.7017 61.9496 49.168C60.5189 50.6343 58.7513 51.3886 56.6457 51.3886C54.6989 51.3886 52.9907 50.6549 51.52 49.2091C50.0493 47.7634 49.3345 46.0114 49.3345 43.9543C49.3345 41.9177 50.031 40.1657 51.4207 38.6583C52.8103 37.1509 54.5196 36.4183 56.5258 36.4183C58.7513 36.4183 60.5588 37.1314 61.969 38.5771C63.3803 39.9829 64.0951 41.7749 64.0951 43.9337ZM61.373 43.9749C61.373 42.6103 60.9162 41.4491 60.0028 40.512C59.0893 39.5543 57.9566 39.0857 56.6058 39.0857C55.3349 39.0857 54.2616 39.5749 53.3675 40.5531C52.4734 41.5303 52.0361 42.6503 52.0361 43.9131C52.0361 45.2377 52.4929 46.3577 53.3869 47.2949C54.281 48.232 55.3943 48.72 56.7439 48.72C57.9965 48.72 59.0687 48.2514 59.9833 47.3143C60.9162 46.3771 61.3741 45.2571 61.3741 43.9749H61.373ZM81.3781 43.9337C81.3781 45.9497 80.6633 47.7017 79.2326 49.168C77.8018 50.6343 76.0342 51.3886 73.9287 51.3886C71.9818 51.3886 70.2736 50.6549 68.8029 49.2091C67.3334 47.7634 66.6175 46.0114 66.6175 43.9543C66.6175 41.9177 67.314 40.1657 68.7036 38.6583C70.0944 37.1509 71.8026 36.4183 73.8088 36.4183C76.0342 36.4183 77.8418 37.1314 79.252 38.5771C80.6633 39.9829 81.3781 41.7749 81.3781 43.9337ZM78.6559 43.9749C78.6559 42.6103 78.1992 41.4491 77.2857 40.512C76.3722 39.5543 75.2395 39.0857 73.8887 39.0857C72.6178 39.0857 71.5445 39.5749 70.6505 40.5531C69.7564 41.5303 69.3191 42.6503 69.3191 43.9131C69.3191 45.2377 69.7758 46.3577 70.671 47.2949C71.5639 48.232 72.6772 48.72 74.028 48.72C75.2795 48.72 76.3517 48.2514 77.2663 47.3143C78.1992 46.3771 78.6571 45.2571 78.6571 43.9749H78.6559ZM97.3707 50.9806L94.8678 51.368V48.944L94.3312 49.5543C93.8584 49.9975 93.3228 50.3684 92.7417 50.6549C91.8888 51.0486 90.96 51.2503 90.0207 51.2457C88.0738 51.2457 86.4045 50.5326 85.0537 49.0857C83.7029 47.6389 83.028 45.9291 83.028 43.9337C83.028 41.8766 83.7029 40.1051 85.0343 38.6377C86.3656 37.1703 87.9939 36.4377 89.9408 36.4377C91.0541 36.4377 92.0269 36.6206 92.841 36.9874C93.4177 37.2526 93.9144 37.5989 94.3312 38.0274C94.4705 38.2103 94.6098 38.4137 94.7491 38.5966V32.2423L97.4096 31.8549L97.3707 50.9806ZM95.0265 44.1166C95.0265 42.6914 94.5492 41.4891 93.5764 40.512C92.6035 39.5131 91.5097 39.0251 90.2593 39.0251C88.8686 39.0251 87.7564 39.4937 86.9023 40.4309C86.1065 41.3257 85.6897 42.4263 85.6897 43.7097C85.6897 45.1554 86.1064 46.3566 86.9411 47.2937C87.7747 48.2309 88.8286 48.6994 90.12 48.6994C91.3909 48.6994 92.5042 48.272 93.4976 47.3966C94.5104 46.4994 95.0277 45.4 95.0277 44.1166H95.0265ZM111.415 34.8914H103.966V39.9623H109.746V42.5691H103.966V50.9611L101.066 51.3886V32.2629H110.839L111.415 34.8914ZM117.395 33.4034L115.607 35.664L113.899 33.4034L115.706 31.1634L117.395 33.4034ZM116.859 50.9806L114.197 51.3474V37.192L116.859 36.7851V50.9817V50.9806ZM128.878 36.6423L127.626 39.5337C127.462 39.5086 127.296 39.4953 127.129 39.4937C126.871 39.4937 126.613 39.5143 126.354 39.5543C126.095 39.5943 125.817 39.6971 125.521 39.84C124.965 40.0846 124.487 40.6137 124.07 41.408C123.609 42.3095 123.37 43.3084 123.374 44.3211V50.9611L120.713 51.3886V37.192L123.176 36.744V39.6971C123.494 39.1874 123.832 38.6789 124.149 38.1497C124.606 37.6194 125.143 37.2331 125.739 37.008C126.056 36.8869 126.633 36.784 127.506 36.7029C128.341 36.6423 128.818 36.6011 128.878 36.6423ZM148.702 50.9806L146.041 51.368V41.6526C146.041 40.7554 145.842 40.104 145.445 39.6971C145.047 39.2891 144.451 39.0857 143.676 39.0857C142.743 39.0857 142.027 39.4731 141.551 40.2469C141.232 40.776 141.054 41.3463 141.054 41.9166V50.96L138.393 51.4491V41.7131C138.393 40.8583 138.194 40.2057 137.816 39.7589C137.419 39.3097 136.903 39.0857 136.227 39.0857H135.968C135.034 39.0857 134.358 39.4731 133.942 40.2674C133.624 40.8583 133.466 41.6114 133.466 42.528V50.96L130.705 51.4491V37.192L133.187 36.7646V38.5771C133.466 38.1486 133.743 37.8023 134.002 37.5589C134.717 36.8869 135.552 36.56 136.485 36.56C137.537 36.56 138.312 36.7234 138.848 37.0697C139.305 37.3554 139.742 37.9246 140.18 38.7394C141.093 37.2937 142.385 36.56 144.094 36.56C145.722 36.56 146.935 37.0697 147.728 38.1086C148.385 38.9634 148.702 40.2263 148.702 41.8766V50.9806ZM160.863 46.6834C160.863 47.9863 160.406 49.0663 159.493 49.9017C158.579 50.7566 157.426 51.1646 156.035 51.1646C154.982 51.1646 154.048 50.92 153.194 50.4309C152.34 49.9429 151.705 49.392 151.287 48.7406L153.156 47.0709C153.294 47.2743 153.414 47.4366 153.532 47.5589C154.229 48.272 155.062 48.6389 156.035 48.6389C156.711 48.6389 157.248 48.456 157.625 48.1097C158.022 47.7634 158.201 47.2743 158.201 46.6423C158.201 45.9303 157.745 45.4411 156.831 45.176C155.022 44.6263 154.048 44.3211 153.91 44.2594C153.076 43.832 152.48 43.384 152.102 42.8743C151.685 42.2834 151.467 41.5097 151.467 40.512C151.467 39.2891 151.923 38.272 152.818 37.4571C153.712 36.6423 154.784 36.2549 156.015 36.2549C156.95 36.2549 157.823 36.4583 158.618 36.8869C159.413 37.3143 159.988 37.7623 160.326 38.2926L158.737 40.0229C158.498 39.7837 158.239 39.5657 157.963 39.3714C157.327 38.9234 156.711 38.6994 156.136 38.6994C155.579 38.6994 155.122 38.8217 154.764 39.0651C154.346 39.3714 154.128 39.8194 154.128 40.4103C154.128 40.9806 154.327 41.408 154.745 41.6731C155.102 41.8971 155.857 42.1417 157.049 42.4057C158.24 42.6914 159.155 43.1806 159.81 43.8731C160.546 44.6057 160.863 45.5223 160.863 46.6834Z" fill="#4385F4"/>
<path d="M7.59429 11.0659H2.60079V15.3516H8.46122V18H0V2H8.44388V4.67033H2.60079V8.48352H7.59429V11.0659Z" fill="#282828"/>
<path d="M15.0364 7.51648L17.4031 2H20.394L16.7182 9.93407L20.4893 18H17.4638L15.0364 12.3956L12.609 18H9.58337L13.3545 9.93407L9.67874 2H12.6696L15.0364 7.51648Z" fill="#282828"/>
<path d="M29.934 11.0659H24.9405V15.3516H30.8009V18H22.3397V2H30.7836V4.67033H24.9405V8.48352H29.934V11.0659Z" fill="#282828"/>
<path d="M35.4602 15.3516H40.9825V18H32.8594V2H35.4602V15.3516Z" fill="#282828"/>
<path d="M45.6157 15.3516H51.138V18H43.0149V2H45.6157V15.3516Z" fill="#282828"/>
<path d="M60.7648 11.0659H55.7712V15.3516H61.6317V18H53.1705V2H61.6143V4.67033H55.7712V8.48352H60.7648V11.0659Z" fill="#282828"/>
<path d="M73.9546 18H71.3538L66.2909 7.47253V18H63.6901V2H66.2909L71.3624 12.5495V2H73.9546V18Z" fill="#282828"/>
<path d="M86 4.67033H82.1335V18H79.5327V4.67033H75.7182V2H86V4.67033Z" fill="#282828"/>
</svg>
