<svg width="230" height="60" viewBox="0 0 230 60" fill="none" xmlns="http://www.w3.org/2000/svg">
<rect width="230" height="60" rx="3" fill="white"/>
<path d="M170 0H227C228.657 0 230 1.34315 230 3V57C230 58.6569 228.657 60 227 60H170V0Z" fill="#FAFCFC"/>
<rect opacity="0.5" x="170" width="7" height="60" fill="url(#paint0_linear)"/>
<path d="M200 20L203.09 26.5836L210 27.6393L205 32.7639L206.18 40L200 36.5836L193.82 40L195 32.7639L190 27.6393L196.91 26.5836L200 20Z" fill="#FFBA00"/>
<path d="M28.2219 27.0333C28.2219 27.0333 27.1114 26.9229 27.1114 27.9124V32.3076H34.4448V33.6267C34.4448 33.6267 34.4667 34.2857 33.7781 34.2857H27.1114V40H35.1114C35.1114 40 39.9552 39.2524 40 34.2857V27.0333H28.2219ZM39.7771 20H25.3333C20.1105 21.2305 20 25.5162 20 25.5162V40H25.5562V26.8133C25.5562 25.6924 26.6667 25.4952 26.6667 25.4952H39.7781L39.7771 20Z" fill="#4385F4"/>
<path d="M57.3577 35.0897C57.0234 35.3133 56.776 35.4775 56.6014 35.5822C55.9763 35.9699 55.3805 36.2689 54.8281 36.5076C54.0284 36.8359 53.3156 37 52.6763 37C50.4811 37 48.6635 36.3283 47.1944 34.97C45.7253 33.6116 45 31.9107 45 29.8513C45 27.8665 45.6543 26.1497 46.9772 24.6866C48.3 23.2244 49.8994 22.5075 51.7897 22.5075C52.5752 22.5075 53.4175 22.6415 54.29 22.9262C55.424 23.2838 56.3398 23.8215 57.0669 24.5225L55.8017 25.9252C55.2643 25.4035 54.5666 25.0149 53.7518 24.7762C53.1418 24.597 52.4733 24.5082 51.7312 24.5082C50.4084 24.5082 49.2886 25.0442 48.4019 26.1045C47.5153 27.1789 47.0649 28.4477 47.0649 29.9401C47.0649 31.4182 47.573 32.6267 48.5908 33.5973C49.6086 34.5671 50.9022 35.0596 52.4724 35.0596C53.1267 35.0596 53.7961 34.8502 54.4788 34.4482C55.0462 34.0152 55.337 33.8059 55.3513 33.7908V30.7315H51.1061L51.7162 28.8212H57.3577V35.0897ZM70.1808 31.3579C70.1808 32.8352 69.6577 34.1191 68.6106 35.1936C67.5635 36.268 66.2699 36.8208 64.729 36.8208C63.3042 36.8208 62.054 36.2831 60.9777 35.2237C59.9014 34.1643 59.3783 32.8805 59.3783 31.373C59.3783 29.8806 59.888 28.5968 60.905 27.4922C61.922 26.3875 63.173 25.8507 64.6412 25.8507C66.2699 25.8507 67.5928 26.3733 68.6248 27.4327C69.6577 28.4628 70.1808 29.7759 70.1808 31.3579ZM68.1886 31.3881C68.1886 30.3881 67.8543 29.5373 67.1858 28.8505C66.5173 28.1487 65.6883 27.8054 64.6997 27.8054C63.7696 27.8054 62.9841 28.1638 62.3298 28.8807C61.6755 29.5967 61.3554 30.4175 61.3554 31.3429C61.3554 32.3135 61.6897 33.1342 62.344 33.8209C62.9983 34.5077 63.8131 34.8653 64.8008 34.8653C65.7175 34.8653 66.5022 34.5219 67.1716 33.8352C67.8543 33.1485 68.1886 32.3277 68.1886 31.3881ZM82.8292 31.3579C82.8292 32.8352 82.3061 34.1191 81.259 35.1936C80.212 36.268 78.9184 36.8208 77.3774 36.8208C75.9526 36.8208 74.7025 36.2831 73.6262 35.2237C72.5507 34.1643 72.0267 32.8805 72.0267 31.373C72.0267 29.8806 72.5365 28.5968 73.5535 27.4922C74.5713 26.3875 75.8214 25.8507 77.2897 25.8507C78.9184 25.8507 80.2412 26.3733 81.2733 27.4327C82.3061 28.4628 82.8292 29.7759 82.8292 31.3579ZM80.837 31.3881C80.837 30.3881 80.5028 29.5373 79.8343 28.8505C79.1657 28.1487 78.3368 27.8054 77.3482 27.8054C76.4181 27.8054 75.6326 28.1638 74.9783 28.8807C74.324 29.5967 74.0039 30.4175 74.0039 31.3429C74.0039 32.3135 74.3382 33.1342 74.9933 33.8209C75.6468 34.5077 76.4616 34.8653 77.4501 34.8653C78.366 34.8653 79.1507 34.5219 79.8201 33.8352C80.5028 33.1485 80.837 32.3277 80.837 31.3881ZM94.5334 36.5218L92.7017 36.8057V35.0294L92.3089 35.4766C91.9629 35.8014 91.571 36.0732 91.1457 36.2831C90.5215 36.5717 89.8417 36.7195 89.1543 36.7161C87.7295 36.7161 86.5078 36.1935 85.5192 35.1333C84.5306 34.073 84.0368 32.8202 84.0368 31.3579C84.0368 29.8505 84.5306 28.5524 85.505 27.4771C86.4794 26.4018 87.671 25.8649 89.0958 25.8649C89.9106 25.8649 90.6226 25.9989 91.2184 26.2678C91.6404 26.4621 92.0039 26.7158 92.3089 27.0299C92.4109 27.1639 92.5128 27.3129 92.6148 27.4469V22.7906L94.5618 22.5067L94.5334 36.5218ZM92.8178 31.4919C92.8178 30.4476 92.4685 29.5666 91.7565 28.8505C91.0446 28.1186 90.244 27.761 89.329 27.761C88.3111 27.761 87.4972 28.1043 86.8721 28.7911C86.2897 29.4468 85.9847 30.2533 85.9847 31.1938C85.9847 32.2532 86.2897 33.1334 86.9006 33.8201C87.5106 34.5068 88.2819 34.8502 89.227 34.8502C90.1571 34.8502 90.9719 34.537 91.6989 33.8955C92.4401 33.2381 92.8178 32.4324 92.8178 31.4919ZM104.812 24.7318H99.3602V28.4477H103.59V30.358H99.3602V36.5076L97.2376 36.8208V22.8057H104.39L104.812 24.7318ZM109.188 23.6414L107.88 25.298L106.63 23.6414L107.952 22L109.188 23.6414ZM108.796 36.5218L106.848 36.7906V26.4177L108.796 26.1195V36.5218ZM117.592 26.0149L116.676 28.1337C116.555 28.1153 116.434 28.1055 116.312 28.1043C116.123 28.1043 115.935 28.1194 115.745 28.1487C115.555 28.178 115.352 28.2534 115.135 28.3581C114.728 28.5373 114.379 28.9251 114.074 29.5071C113.736 30.1677 113.561 30.8997 113.564 31.6418V36.5076L111.617 36.8208V26.4177L113.419 26.0894V28.2534C113.652 27.8799 113.899 27.5072 114.131 27.1195C114.465 26.7309 114.858 26.4478 115.294 26.2828C115.527 26.1941 115.949 26.1187 116.588 26.0592C117.199 26.0149 117.548 25.9847 117.592 26.0149ZM132.1 36.5218L130.152 36.8057V29.6863C130.152 29.0289 130.007 28.5516 129.716 28.2534C129.425 27.9544 128.989 27.8054 128.422 27.8054C127.739 27.8054 127.215 28.0893 126.867 28.6562C126.633 29.044 126.503 29.4619 126.503 29.8798V36.5067L124.555 36.8652V29.7307C124.555 29.1043 124.41 28.6261 124.133 28.2986C123.842 27.9695 123.465 27.8054 122.97 27.8054H122.781C122.097 27.8054 121.603 28.0893 121.298 28.6713C121.065 29.1043 120.949 29.6562 120.949 30.3278V36.5067L118.929 36.8652V26.4177L120.745 26.1045V27.4327C120.949 27.1186 121.152 26.8649 121.342 26.6865C121.865 26.1941 122.476 25.9546 123.159 25.9546C123.929 25.9546 124.496 26.0743 124.889 26.3281C125.223 26.5374 125.543 26.9545 125.863 27.5516C126.531 26.4922 127.477 25.9546 128.728 25.9546C129.919 25.9546 130.807 26.3281 131.387 27.0893C131.868 27.7158 132.1 28.6412 132.1 29.8505V36.5218ZM141 33.3729C141 34.3276 140.666 35.119 139.997 35.7312C139.329 36.3577 138.485 36.6566 137.467 36.6566C136.696 36.6566 136.013 36.4774 135.388 36.119C134.763 35.7614 134.298 35.3577 133.992 34.8804L135.359 33.6568C135.46 33.8059 135.548 33.9248 135.635 34.0144C136.145 34.537 136.755 34.8058 137.467 34.8058C137.962 34.8058 138.354 34.6718 138.63 34.4181C138.921 34.1643 139.052 33.8059 139.052 33.3428C139.052 32.821 138.718 32.4626 138.049 32.2683C136.726 31.8654 136.013 31.6418 135.912 31.5966C135.301 31.2834 134.865 30.9551 134.588 30.5816C134.283 30.1486 134.123 29.5817 134.123 28.8505C134.123 27.9544 134.458 27.2091 135.112 26.612C135.766 26.0149 136.551 25.7309 137.452 25.7309C138.136 25.7309 138.775 25.88 139.357 26.1941C139.939 26.5073 140.36 26.8356 140.607 27.2242L139.444 28.4921C139.269 28.3168 139.08 28.1571 138.877 28.0147C138.412 27.6864 137.962 27.5223 137.54 27.5223C137.133 27.5223 136.798 27.6119 136.537 27.7903C136.231 28.0147 136.071 28.343 136.071 28.776C136.071 29.1939 136.217 29.5071 136.523 29.7014C136.784 29.8656 137.336 30.0448 138.209 30.2382C139.08 30.4476 139.75 30.806 140.23 31.3135C140.768 31.8504 141 32.522 141 33.3729Z" fill="#282828"/>
<defs>
<linearGradient id="paint0_linear" x1="170" y1="30" x2="177" y2="30" gradientUnits="userSpaceOnUse">
<stop stop-color="#E8EFEF"/>
<stop offset="1" stop-color="#FAFCFC" stop-opacity="0"/>
</linearGradient>
</defs>
</svg>
