<svg width="40" height="40" viewBox="0 0 40 40" fill="none" xmlns="http://www.w3.org/2000/svg">
<path fill-rule="evenodd" clip-rule="evenodd" d="M10 17.2838C10 16.9429 10.2798 16.6665 10.625 16.6665H29.375C29.7202 16.6665 30 16.9429 30 17.2838C30 17.6247 29.7202 17.9011 29.375 17.9011H10.625C10.2798 17.9011 10 17.6247 10 17.2838ZM11.25 19.7529C11.25 19.412 11.5298 19.1356 11.875 19.1356H21.875C22.2202 19.1356 22.5 19.412 22.5 19.7529C22.5 20.0938 22.2202 20.3702 21.875 20.3702H11.875C11.5298 20.3702 11.25 20.0938 11.25 19.7529ZM10.625 21.6048C10.2798 21.6048 10 21.8811 10 22.2221C10 22.563 10.2798 22.8393 10.625 22.8393H28.125C28.4702 22.8393 28.75 22.563 28.75 22.2221C28.75 21.8811 28.4702 21.6048 28.125 21.6048H10.625ZM11.25 24.6912C11.25 24.3503 11.5298 24.0739 11.875 24.0739H19.375C19.7202 24.0739 20 24.3503 20 24.6912C20 25.0321 19.7202 25.3085 19.375 25.3085H11.875C11.5298 25.3085 11.25 25.0321 11.25 24.6912ZM11.875 26.543C11.5298 26.543 11.25 26.8194 11.25 27.1603C11.25 27.5012 11.5298 27.7776 11.875 27.7776H19.375C19.7202 27.7776 20 27.5012 20 27.1603C20 26.8194 19.7202 26.543 19.375 26.543H11.875Z" fill="#939393"/>
<path d="M34.8076 18.481V15.0697C34.8076 12.8866 32.7354 11.1113 30.187 11.1113H29.5776C29.1973 11.1113 28.8889 11.4067 28.8889 11.7711C28.8889 12.1354 29.1973 12.4308 29.5776 12.4308H30.187C31.8859 12.4308 33.2674 13.6143 33.2674 15.0697V18.481C33.2674 19.6507 33.7179 20.7617 34.5497 21.6669C33.7179 22.5721 33.2674 23.6831 33.2674 24.8528V28.2641C33.2674 29.7195 31.8859 30.903 30.187 30.903H29.5776C29.1972 30.903 28.8889 31.1984 28.8889 31.5627C28.8889 31.9271 29.1972 32.2224 29.5776 32.2224H30.187C32.7354 32.2224 34.8076 30.4472 34.8076 28.2641V24.8528C34.8076 23.8255 35.2743 22.8597 36.1222 22.1333L36.6667 21.6669L36.1222 21.2004C35.2743 20.474 34.8076 19.5089 34.8076 18.481Z" fill="#43BAD6"/>
<path d="M6.75619 28.2641V24.8528C6.75619 23.6831 6.30258 22.5721 5.46502 21.6669C6.30258 20.7617 6.75619 19.6507 6.75619 18.481V15.0697C6.75619 13.6143 8.14733 12.4308 9.85804 12.4308H10.4224C10.8027 12.4308 11.111 12.1354 11.111 11.7711C11.111 11.4067 10.8027 11.1113 10.4224 11.1113H9.85804C7.29197 11.1113 5.20527 12.8866 5.20527 15.0697V18.481C5.20527 19.5083 4.73537 20.474 3.88153 21.2004L3.33325 21.6669L3.88153 22.1333C4.73537 22.8597 5.20527 23.8248 5.20527 24.8528V28.2641C5.20527 30.4472 7.29197 32.2224 9.85804 32.2224H10.4224C10.8027 32.2224 11.111 31.9271 11.111 31.5627C11.111 31.1984 10.8027 30.903 10.4224 30.903H9.85804C8.14733 30.903 6.75619 29.7195 6.75619 28.2641Z" fill="#43BAD6"/>
<path fill-rule="evenodd" clip-rule="evenodd" d="M37.5 2.37059H2.5C1.80964 2.37059 1.25 2.93438 1.25 3.62985V6.14836H38.75V3.62985C38.75 2.93438 38.1904 2.37059 37.5 2.37059ZM0 3.62985V6.77799V36.3706C0 37.7615 1.11929 38.8891 2.5 38.8891H37.5C38.8807 38.8891 40 37.7615 40 36.3706V6.77799V3.62985C40 2.23891 38.8807 1.11133 37.5 1.11133H2.5C1.11929 1.11133 0 2.23891 0 3.62985ZM38.75 36.3706V7.40762H1.25V36.3706C1.25 37.0661 1.80964 37.6298 2.5 37.6298H37.5C38.1904 37.6298 38.75 37.0661 38.75 36.3706ZM3.125 4.88911C2.77982 4.88911 2.5 4.60721 2.5 4.25948C2.5 3.91174 2.77982 3.62985 3.125 3.62985C3.47018 3.62985 3.75 3.91174 3.75 4.25948C3.75 4.60721 3.47018 4.88911 3.125 4.88911ZM5 4.25948C5 4.60721 5.27982 4.88911 5.625 4.88911C5.97018 4.88911 6.25 4.60721 6.25 4.25948C6.25 3.91174 5.97018 3.62985 5.625 3.62985C5.27982 3.62985 5 3.91174 5 4.25948ZM8.125 4.88911C7.77982 4.88911 7.5 4.60721 7.5 4.25948C7.5 3.91174 7.77982 3.62985 8.125 3.62985C8.47018 3.62985 8.75 3.91174 8.75 4.25948C8.75 4.60721 8.47018 4.88911 8.125 4.88911Z" fill="#4F4F4F"/>
</svg>
