<svg width="40" height="40" viewBox="0 0 40 40" fill="none" xmlns="http://www.w3.org/2000/svg">
<path fill-rule="evenodd" clip-rule="evenodd" d="M36 1.5H4C2.61929 1.5 1.5 2.61929 1.5 4V36C1.5 37.3807 2.61929 38.5 4 38.5H36C37.3807 38.5 38.5 37.3807 38.5 36V4C38.5 2.61929 37.3807 1.5 36 1.5ZM4 0C1.79086 0 0 1.79086 0 4V36C0 38.2091 1.79086 40 4 40H36C38.2091 40 40 38.2091 40 36V4C40 1.79086 38.2091 0 36 0H4Z" fill="black"/>
<path d="M4 8C4 5.79086 5.79086 4 8 4H32C34.2091 4 36 5.79086 36 8V22C36 24.2091 34.2091 26 32 26H8C5.79086 26 4 24.2091 4 22V8Z" fill="#F4F4F4"/>
<path fill-rule="evenodd" clip-rule="evenodd" d="M15 32.5C15.6904 32.5 16.25 31.9404 16.25 31.25C16.25 30.5596 15.6904 30 15 30C14.3096 30 13.75 30.5596 13.75 31.25C13.75 31.9404 14.3096 32.5 15 32.5ZM20 32.5C20.6904 32.5 21.25 31.9404 21.25 31.25C21.25 30.5596 20.6904 30 20 30C19.3096 30 18.75 30.5596 18.75 31.25C18.75 31.9404 19.3096 32.5 20 32.5ZM26.25 31.25C26.25 31.9404 25.6904 32.5 25 32.5C24.3096 32.5 23.75 31.9404 23.75 31.25C23.75 30.5596 24.3096 30 25 30C25.6904 30 26.25 30.5596 26.25 31.25Z" fill="#939393"/>
<path d="M31.6433 15.9302C31.9108 15.6512 32 15.3721 32 15C32 14.6279 31.9108 14.3488 31.6433 14.0698L27.1847 9.4186C26.6497 8.86047 25.9363 8.86047 25.4013 9.4186C24.8662 9.97674 24.8662 10.7209 25.4013 11.2791L28.9682 15L25.4013 18.7209C24.8662 19.2791 24.8662 20.0233 25.4013 20.5814C25.9363 21.1395 26.6497 21.1395 27.1847 20.5814L31.6433 15.9302Z" fill="#43BAD6"/>
<path d="M8.35669 14.0698C8.08917 14.3488 8 14.6279 8 15C8 15.3721 8.08917 15.6512 8.35669 15.9302L12.8153 20.5814C13.3503 21.1395 14.0637 21.1395 14.5987 20.5814C15.1338 20.0233 15.1338 19.2791 14.5987 18.7209L11.0318 15L14.5987 11.2791C15.1338 10.7209 15.1338 9.97674 14.5987 9.4186C14.0637 8.86047 13.3503 8.86047 12.8153 9.4186L8.35669 14.0698Z" fill="#43BAD6"/>
</svg>
