<svg width="360" height="151" viewBox="0 0 360 151" fill="none" xmlns="http://www.w3.org/2000/svg">
<path d="M95 91.0001H125M125 91.0001L120.588 86M125 91.0001L120.588 96" stroke="#BEBEBE" stroke-width="2" stroke-linecap="round"/>
<path d="M167 51C167 51 150.413 26 107 26C61.725 26 47 51 47 51" stroke="#BEBEBE" stroke-width="2" stroke-linecap="round" stroke-dasharray="0.5 4"/>
<circle cx="320" cy="91" r="29.5" stroke="#CACACA"/>
<circle cx="320" cy="91" r="9.5" stroke="#43BAD6"/>
<path d="M310.648 142.842C310.525 143.895 310.136 144.708 309.479 145.282C308.828 145.852 307.96 146.137 306.875 146.137C305.699 146.137 304.756 145.715 304.045 144.872C303.339 144.029 302.985 142.901 302.985 141.488V140.531C302.985 139.606 303.149 138.793 303.478 138.091C303.81 137.389 304.28 136.851 304.886 136.478C305.492 136.099 306.194 135.91 306.991 135.91C308.049 135.91 308.896 136.206 309.534 136.799C310.172 137.387 310.544 138.202 310.648 139.246H309.329C309.215 138.453 308.967 137.879 308.584 137.523C308.206 137.168 307.675 136.99 306.991 136.99C306.153 136.99 305.494 137.3 305.016 137.92C304.542 138.54 304.305 139.422 304.305 140.565V141.529C304.305 142.609 304.53 143.468 304.981 144.106C305.433 144.744 306.064 145.063 306.875 145.063C307.604 145.063 308.162 144.899 308.55 144.571C308.942 144.239 309.201 143.662 309.329 142.842H310.648ZM313.622 146H312.357V135.5H313.622V146ZM317.026 146H315.762V138.604H317.026V146ZM315.659 136.642C315.659 136.437 315.721 136.263 315.844 136.122C315.971 135.981 316.158 135.91 316.404 135.91C316.65 135.91 316.837 135.981 316.965 136.122C317.092 136.263 317.156 136.437 317.156 136.642C317.156 136.847 317.092 137.018 316.965 137.154C316.837 137.291 316.65 137.359 316.404 137.359C316.158 137.359 315.971 137.291 315.844 137.154C315.721 137.018 315.659 136.847 315.659 136.642ZM322.126 146.137C321.123 146.137 320.308 145.809 319.679 145.152C319.05 144.492 318.735 143.61 318.735 142.507V142.274C318.735 141.541 318.874 140.887 319.152 140.312C319.435 139.734 319.827 139.283 320.328 138.959C320.834 138.631 321.381 138.467 321.969 138.467C322.93 138.467 323.678 138.784 324.211 139.417C324.744 140.05 325.011 140.957 325.011 142.138V142.664H320C320.018 143.393 320.23 143.983 320.636 144.435C321.046 144.881 321.565 145.104 322.194 145.104C322.641 145.104 323.019 145.013 323.329 144.831C323.639 144.649 323.91 144.407 324.143 144.106L324.915 144.708C324.295 145.66 323.366 146.137 322.126 146.137ZM321.969 139.506C321.458 139.506 321.03 139.693 320.684 140.066C320.337 140.436 320.123 140.955 320.041 141.625H323.746V141.529C323.71 140.887 323.536 140.39 323.227 140.039C322.917 139.684 322.497 139.506 321.969 139.506ZM327.677 138.604L327.718 139.533C328.283 138.822 329.021 138.467 329.933 138.467C331.496 138.467 332.284 139.349 332.298 141.112V146H331.033V141.105C331.029 140.572 330.906 140.178 330.664 139.923C330.427 139.668 330.056 139.54 329.55 139.54C329.14 139.54 328.78 139.649 328.47 139.868C328.16 140.087 327.918 140.374 327.745 140.729V146H326.48V138.604H327.677ZM335.921 136.812V138.604H337.302V139.581H335.921V144.168C335.921 144.464 335.982 144.688 336.105 144.838C336.229 144.984 336.438 145.057 336.734 145.057C336.88 145.057 337.081 145.029 337.336 144.975V146C337.003 146.091 336.68 146.137 336.365 146.137C335.8 146.137 335.374 145.966 335.087 145.624C334.8 145.282 334.656 144.797 334.656 144.168V139.581H333.31V138.604H334.656V136.812H335.921Z" fill="black"/>
<circle cx="40" cy="91" r="29.5" stroke="#CACACA"/>
<circle cx="40" cy="91" r="10" fill="#43BAD6"/>
<path d="M15.2471 136.047L18.501 144.168L21.7549 136.047H23.457V146H22.1445V142.124L22.2676 137.94L19 146H17.9951L14.7344 137.961L14.8643 142.124V146H13.5518V136.047H15.2471ZM30.1426 146C30.0697 145.854 30.0104 145.594 29.9648 145.221C29.377 145.831 28.6751 146.137 27.8594 146.137C27.1302 146.137 26.5309 145.932 26.0615 145.521C25.5967 145.107 25.3643 144.583 25.3643 143.949C25.3643 143.179 25.6559 142.582 26.2393 142.158C26.8271 141.73 27.652 141.516 28.7139 141.516H29.9443V140.935C29.9443 140.493 29.8122 140.142 29.5479 139.882C29.2835 139.618 28.8939 139.485 28.3789 139.485C27.9277 139.485 27.5495 139.599 27.2441 139.827C26.9388 140.055 26.7861 140.331 26.7861 140.654H25.5146C25.5146 140.285 25.6445 139.93 25.9043 139.588C26.1686 139.242 26.5241 138.968 26.9707 138.768C27.4219 138.567 27.9163 138.467 28.4541 138.467C29.3063 138.467 29.974 138.681 30.457 139.109C30.9401 139.533 31.1908 140.119 31.209 140.866V144.271C31.209 144.95 31.2956 145.49 31.4688 145.891V146H30.1426ZM28.0439 145.036C28.4404 145.036 28.8164 144.934 29.1719 144.729C29.5273 144.523 29.7848 144.257 29.9443 143.929V142.411H28.9531C27.4036 142.411 26.6289 142.865 26.6289 143.771C26.6289 144.168 26.7611 144.478 27.0254 144.701C27.2897 144.924 27.6292 145.036 28.0439 145.036ZM34.3877 138.604L34.4287 139.533C34.9938 138.822 35.7321 138.467 36.6436 138.467C38.2067 138.467 38.9951 139.349 39.0088 141.112V146H37.7441V141.105C37.7396 140.572 37.6165 140.178 37.375 139.923C37.138 139.668 36.7666 139.54 36.2607 139.54C35.8506 139.54 35.4906 139.649 35.1807 139.868C34.8708 140.087 34.6292 140.374 34.4561 140.729V146H33.1914V138.604H34.3877ZM45.4824 146C45.4095 145.854 45.3503 145.594 45.3047 145.221C44.7168 145.831 44.015 146.137 43.1992 146.137C42.4701 146.137 41.8708 145.932 41.4014 145.521C40.9365 145.107 40.7041 144.583 40.7041 143.949C40.7041 143.179 40.9958 142.582 41.5791 142.158C42.167 141.73 42.9919 141.516 44.0537 141.516H45.2842V140.935C45.2842 140.493 45.152 140.142 44.8877 139.882C44.6234 139.618 44.2337 139.485 43.7188 139.485C43.2676 139.485 42.8893 139.599 42.584 139.827C42.2786 140.055 42.126 140.331 42.126 140.654H40.8545C40.8545 140.285 40.9844 139.93 41.2441 139.588C41.5085 139.242 41.8639 138.968 42.3105 138.768C42.7617 138.567 43.2562 138.467 43.7939 138.467C44.6462 138.467 45.3138 138.681 45.7969 139.109C46.2799 139.533 46.5306 140.119 46.5488 140.866V144.271C46.5488 144.95 46.6354 145.49 46.8086 145.891V146H45.4824ZM43.3838 145.036C43.7803 145.036 44.1562 144.934 44.5117 144.729C44.8672 144.523 45.1247 144.257 45.2842 143.929V142.411H44.293C42.7435 142.411 41.9688 142.865 41.9688 143.771C41.9688 144.168 42.1009 144.478 42.3652 144.701C42.6296 144.924 42.9691 145.036 43.3838 145.036ZM48.2305 142.24C48.2305 141.087 48.4971 140.171 49.0303 139.492C49.5635 138.809 50.2699 138.467 51.1494 138.467C52.0518 138.467 52.7559 138.786 53.2617 139.424L53.3232 138.604H54.4785V145.822C54.4785 146.779 54.1937 147.534 53.624 148.085C53.0589 148.636 52.2979 148.912 51.3408 148.912C50.8076 148.912 50.2858 148.798 49.7754 148.57C49.265 148.342 48.8753 148.03 48.6064 147.634L49.2627 146.875C49.805 147.545 50.4681 147.88 51.252 147.88C51.8672 147.88 52.3457 147.707 52.6875 147.36C53.0339 147.014 53.207 146.526 53.207 145.897V145.262C52.7012 145.845 52.0107 146.137 51.1357 146.137C50.2699 146.137 49.568 145.788 49.0303 145.091C48.4971 144.394 48.2305 143.443 48.2305 142.24ZM49.502 142.384C49.502 143.218 49.6729 143.874 50.0146 144.353C50.3564 144.826 50.835 145.063 51.4502 145.063C52.2477 145.063 52.8333 144.701 53.207 143.977V140.6C52.8197 139.893 52.2386 139.54 51.4639 139.54C50.8486 139.54 50.3678 139.779 50.0215 140.258C49.6751 140.736 49.502 141.445 49.502 142.384ZM59.4619 146.137C58.4593 146.137 57.6436 145.809 57.0146 145.152C56.3857 144.492 56.0713 143.61 56.0713 142.507V142.274C56.0713 141.541 56.2103 140.887 56.4883 140.312C56.7708 139.734 57.1628 139.283 57.6641 138.959C58.1699 138.631 58.7168 138.467 59.3047 138.467C60.2663 138.467 61.0137 138.784 61.5469 139.417C62.0801 140.05 62.3467 140.957 62.3467 142.138V142.664H57.3359C57.3542 143.393 57.5661 143.983 57.9717 144.435C58.3818 144.881 58.9014 145.104 59.5303 145.104C59.9769 145.104 60.3551 145.013 60.665 144.831C60.9749 144.649 61.2461 144.407 61.4785 144.106L62.251 144.708C61.6312 145.66 60.7015 146.137 59.4619 146.137ZM59.3047 139.506C58.7943 139.506 58.3659 139.693 58.0195 140.066C57.6732 140.436 57.459 140.955 57.377 141.625H61.082V141.529C61.0456 140.887 60.8724 140.39 60.5625 140.039C60.2526 139.684 59.8333 139.506 59.3047 139.506ZM67.3916 139.738C67.2002 139.706 66.9928 139.69 66.7695 139.69C65.9401 139.69 65.3773 140.044 65.0811 140.75V146H63.8164V138.604H65.0469L65.0674 139.458C65.4821 138.797 66.07 138.467 66.8311 138.467C67.0771 138.467 67.264 138.499 67.3916 138.562V139.738Z" fill="black"/>
<path d="M47 51C47 51 84.5632 1 180.462 1C280.473 1 313 51 313 51" stroke="#BEBEBE" stroke-width="2" stroke-linecap="round" stroke-dasharray="0.5 4"/>
<path d="M53 51L47 51L47 45" stroke="#BEBEBE" stroke-width="2" stroke-linecap="round"/>
<path d="M313 45V51H307" stroke="#BEBEBE" stroke-width="2" stroke-linecap="round"/>
<circle opacity="0.2" cx="180" cy="91" r="30" fill="#43BAD6"/>
<circle cx="180" cy="91" r="10" fill="#BEBEBE"/>
<path d="M148.5 141.345C148.5 142.306 148.347 143.136 148.042 143.833C147.737 144.526 147.308 145.068 146.757 145.46L148.534 146.854L147.639 147.682L145.54 146.014C145.212 146.096 144.866 146.137 144.501 146.137C143.717 146.137 143.022 145.945 142.416 145.562C141.81 145.175 141.338 144.626 141.001 143.915C140.668 143.2 140.497 142.372 140.488 141.434V140.716C140.488 139.759 140.655 138.913 140.987 138.18C141.32 137.446 141.789 136.885 142.396 136.498C143.006 136.106 143.703 135.91 144.487 135.91C145.289 135.91 145.993 136.104 146.6 136.491C147.21 136.879 147.68 137.437 148.008 138.166C148.336 138.891 148.5 139.738 148.5 140.709V141.345ZM147.188 140.702C147.188 139.531 146.953 138.629 146.483 137.995C146.019 137.357 145.353 137.038 144.487 137.038C143.662 137.038 143.011 137.355 142.532 137.988C142.058 138.617 141.814 139.492 141.801 140.613V141.345C141.801 142.484 142.038 143.382 142.512 144.038C142.99 144.694 143.653 145.022 144.501 145.022C145.349 145.022 146.005 144.715 146.47 144.1C146.935 143.48 147.174 142.593 147.188 141.44V140.702ZM156.02 143.402H151.85L150.913 146H149.56L153.36 136.047H154.509L158.316 146H156.97L156.02 143.402ZM152.246 142.322H155.63L153.935 137.667L152.246 142.322ZM168.755 141.399H164.441V144.927H169.452V146H163.129V136.047H169.384V137.127H164.441V140.326H168.755V141.399ZM172.084 138.604L172.125 139.533C172.69 138.822 173.428 138.467 174.34 138.467C175.903 138.467 176.691 139.349 176.705 141.112V146H175.44V141.105C175.436 140.572 175.313 140.178 175.071 139.923C174.834 139.668 174.463 139.54 173.957 139.54C173.547 139.54 173.187 139.649 172.877 139.868C172.567 140.087 172.326 140.374 172.152 140.729V146H170.888V138.604H172.084ZM178.312 142.24C178.312 141.087 178.578 140.171 179.111 139.492C179.645 138.809 180.351 138.467 181.23 138.467C182.133 138.467 182.837 138.786 183.343 139.424L183.404 138.604H184.56V145.822C184.56 146.779 184.275 147.534 183.705 148.085C183.14 148.636 182.379 148.912 181.422 148.912C180.889 148.912 180.367 148.798 179.856 148.57C179.346 148.342 178.956 148.03 178.688 147.634L179.344 146.875C179.886 147.545 180.549 147.88 181.333 147.88C181.948 147.88 182.427 147.707 182.769 147.36C183.115 147.014 183.288 146.526 183.288 145.897V145.262C182.782 145.845 182.092 146.137 181.217 146.137C180.351 146.137 179.649 145.788 179.111 145.091C178.578 144.394 178.312 143.443 178.312 142.24ZM179.583 142.384C179.583 143.218 179.754 143.874 180.096 144.353C180.438 144.826 180.916 145.063 181.531 145.063C182.329 145.063 182.914 144.701 183.288 143.977V140.6C182.901 139.893 182.32 139.54 181.545 139.54C180.93 139.54 180.449 139.779 180.103 140.258C179.756 140.736 179.583 141.445 179.583 142.384ZM189.543 146.137C188.54 146.137 187.725 145.809 187.096 145.152C186.467 144.492 186.152 143.61 186.152 142.507V142.274C186.152 141.541 186.291 140.887 186.569 140.312C186.852 139.734 187.244 139.283 187.745 138.959C188.251 138.631 188.798 138.467 189.386 138.467C190.347 138.467 191.095 138.784 191.628 139.417C192.161 140.05 192.428 140.957 192.428 142.138V142.664H187.417C187.435 143.393 187.647 143.983 188.053 144.435C188.463 144.881 188.982 145.104 189.611 145.104C190.058 145.104 190.436 145.013 190.746 144.831C191.056 144.649 191.327 144.407 191.56 144.106L192.332 144.708C191.712 145.66 190.783 146.137 189.543 146.137ZM189.386 139.506C188.875 139.506 188.447 139.693 188.101 140.066C187.754 140.436 187.54 140.955 187.458 141.625H191.163V141.529C191.127 140.887 190.953 140.39 190.644 140.039C190.334 139.684 189.914 139.506 189.386 139.506ZM195.094 138.604L195.135 139.533C195.7 138.822 196.438 138.467 197.35 138.467C198.913 138.467 199.701 139.349 199.715 141.112V146H198.45V141.105C198.446 140.572 198.323 140.178 198.081 139.923C197.844 139.668 197.473 139.54 196.967 139.54C196.557 139.54 196.197 139.649 195.887 139.868C195.577 140.087 195.335 140.374 195.162 140.729V146H193.897V138.604H195.094ZM204.691 146.137C203.689 146.137 202.873 145.809 202.244 145.152C201.615 144.492 201.301 143.61 201.301 142.507V142.274C201.301 141.541 201.44 140.887 201.718 140.312C202 139.734 202.392 139.283 202.894 138.959C203.399 138.631 203.946 138.467 204.534 138.467C205.496 138.467 206.243 138.784 206.776 139.417C207.31 140.05 207.576 140.957 207.576 142.138V142.664H202.565C202.584 143.393 202.796 143.983 203.201 144.435C203.611 144.881 204.131 145.104 204.76 145.104C205.206 145.104 205.585 145.013 205.895 144.831C206.204 144.649 206.476 144.407 206.708 144.106L207.48 144.708C206.861 145.66 205.931 146.137 204.691 146.137ZM204.534 139.506C204.024 139.506 203.595 139.693 203.249 140.066C202.903 140.436 202.688 140.955 202.606 141.625H206.312V141.529C206.275 140.887 206.102 140.39 205.792 140.039C205.482 139.684 205.063 139.506 204.534 139.506ZM212.115 146.137C211.113 146.137 210.297 145.809 209.668 145.152C209.039 144.492 208.725 143.61 208.725 142.507V142.274C208.725 141.541 208.864 140.887 209.142 140.312C209.424 139.734 209.816 139.283 210.317 138.959C210.823 138.631 211.37 138.467 211.958 138.467C212.92 138.467 213.667 138.784 214.2 139.417C214.733 140.05 215 140.957 215 142.138V142.664H209.989C210.007 143.393 210.219 143.983 210.625 144.435C211.035 144.881 211.555 145.104 212.184 145.104C212.63 145.104 213.008 145.013 213.318 144.831C213.628 144.649 213.899 144.407 214.132 144.106L214.904 144.708C214.285 145.66 213.355 146.137 212.115 146.137ZM211.958 139.506C211.448 139.506 211.019 139.693 210.673 140.066C210.326 140.436 210.112 140.955 210.03 141.625H213.735V141.529C213.699 140.887 213.526 140.39 213.216 140.039C212.906 139.684 212.487 139.506 211.958 139.506ZM220.045 139.738C219.854 139.706 219.646 139.69 219.423 139.69C218.593 139.69 218.031 140.044 217.734 140.75V146H216.47V138.604H217.7L217.721 139.458C218.135 138.797 218.723 138.467 219.484 138.467C219.73 138.467 219.917 138.499 220.045 138.562V139.738Z" fill="black"/>
</svg>
