<svg width="131" height="690" viewBox="0 0 131 690" fill="none" xmlns="http://www.w3.org/2000/svg">
<circle cx="40" cy="630" r="29.5" stroke="#CACACA"/>
<circle cx="40" cy="630" r="9.5" stroke="#43BAD6"/>
<path d="M30.6484 681.842C30.5254 682.895 30.1357 683.708 29.4795 684.282C28.8278 684.852 27.9596 685.137 26.875 685.137C25.6992 685.137 24.7559 684.715 24.0449 683.872C23.3385 683.029 22.9854 681.901 22.9854 680.488V679.531C22.9854 678.606 23.1494 677.793 23.4775 677.091C23.8102 676.389 24.2796 675.851 24.8857 675.478C25.4919 675.099 26.1937 674.91 26.9912 674.91C28.0485 674.91 28.8962 675.206 29.5342 675.799C30.1722 676.387 30.5436 677.202 30.6484 678.246H29.3291C29.2152 677.453 28.9668 676.879 28.584 676.523C28.2057 676.168 27.6748 675.99 26.9912 675.99C26.1527 675.99 25.4941 676.3 25.0156 676.92C24.5417 677.54 24.3047 678.422 24.3047 679.565V680.529C24.3047 681.609 24.5303 682.468 24.9814 683.106C25.4326 683.744 26.0638 684.063 26.875 684.063C27.6042 684.063 28.1624 683.899 28.5498 683.571C28.9417 683.239 29.2015 682.662 29.3291 681.842H30.6484ZM33.6221 685H32.3574V674.5H33.6221V685ZM37.0264 685H35.7617V677.604H37.0264V685ZM35.6592 675.642C35.6592 675.437 35.7207 675.263 35.8438 675.122C35.9714 674.981 36.1582 674.91 36.4043 674.91C36.6504 674.91 36.8372 674.981 36.9648 675.122C37.0924 675.263 37.1562 675.437 37.1562 675.642C37.1562 675.847 37.0924 676.018 36.9648 676.154C36.8372 676.291 36.6504 676.359 36.4043 676.359C36.1582 676.359 35.9714 676.291 35.8438 676.154C35.7207 676.018 35.6592 675.847 35.6592 675.642ZM42.126 685.137C41.1234 685.137 40.3076 684.809 39.6787 684.152C39.0498 683.492 38.7354 682.61 38.7354 681.507V681.274C38.7354 680.541 38.8743 679.887 39.1523 679.312C39.4349 678.734 39.8268 678.283 40.3281 677.959C40.834 677.631 41.3809 677.467 41.9688 677.467C42.9303 677.467 43.6777 677.784 44.2109 678.417C44.7441 679.05 45.0107 679.957 45.0107 681.138V681.664H40C40.0182 682.393 40.2301 682.983 40.6357 683.435C41.0459 683.881 41.5654 684.104 42.1943 684.104C42.641 684.104 43.0192 684.013 43.3291 683.831C43.639 683.649 43.9102 683.407 44.1426 683.106L44.915 683.708C44.2952 684.66 43.3656 685.137 42.126 685.137ZM41.9688 678.506C41.4583 678.506 41.0299 678.693 40.6836 679.066C40.3372 679.436 40.123 679.955 40.041 680.625H43.7461V680.529C43.7096 679.887 43.5365 679.39 43.2266 679.039C42.9167 678.684 42.4974 678.506 41.9688 678.506ZM47.6768 677.604L47.7178 678.533C48.2829 677.822 49.0212 677.467 49.9326 677.467C51.4958 677.467 52.2842 678.349 52.2979 680.112V685H51.0332V680.105C51.0286 679.572 50.9056 679.178 50.6641 678.923C50.4271 678.668 50.0557 678.54 49.5498 678.54C49.1396 678.54 48.7796 678.649 48.4697 678.868C48.1598 679.087 47.9183 679.374 47.7451 679.729V685H46.4805V677.604H47.6768ZM55.9209 675.812V677.604H57.3018V678.581H55.9209V683.168C55.9209 683.464 55.9824 683.688 56.1055 683.838C56.2285 683.984 56.4382 684.057 56.7344 684.057C56.8802 684.057 57.0807 684.029 57.3359 683.975V685C57.0033 685.091 56.6797 685.137 56.3652 685.137C55.8001 685.137 55.374 684.966 55.0869 684.624C54.7998 684.282 54.6562 683.797 54.6562 683.168V678.581H53.3096V677.604H54.6562V675.812H55.9209Z" fill="black"/>
<path d="M13.6611 235V225.047H16.4707C17.3366 225.047 18.1022 225.238 18.7676 225.621C19.4329 226.004 19.9456 226.549 20.3057 227.255C20.6702 227.961 20.8548 228.772 20.8594 229.688V230.324C20.8594 231.263 20.6771 232.086 20.3125 232.792C19.9525 233.498 19.4352 234.041 18.7607 234.419C18.0908 234.797 17.3092 234.991 16.416 235H13.6611ZM14.9736 226.127V233.927H16.3545C17.3662 233.927 18.1523 233.612 18.7129 232.983C19.278 232.354 19.5605 231.459 19.5605 230.297V229.716C19.5605 228.586 19.2939 227.708 18.7607 227.084C18.2321 226.455 17.4801 226.136 16.5049 226.127H14.9736ZM25.7197 235.137C24.7171 235.137 23.9014 234.809 23.2725 234.152C22.6436 233.492 22.3291 232.61 22.3291 231.507V231.274C22.3291 230.541 22.4681 229.887 22.7461 229.312C23.0286 228.734 23.4206 228.283 23.9219 227.959C24.4277 227.631 24.9746 227.467 25.5625 227.467C26.5241 227.467 27.2715 227.784 27.8047 228.417C28.3379 229.05 28.6045 229.957 28.6045 231.138V231.664H23.5938C23.612 232.393 23.8239 232.983 24.2295 233.435C24.6396 233.881 25.1592 234.104 25.7881 234.104C26.2347 234.104 26.613 234.013 26.9229 233.831C27.2327 233.649 27.5039 233.407 27.7363 233.106L28.5088 233.708C27.889 234.66 26.9593 235.137 25.7197 235.137ZM25.5625 228.506C25.0521 228.506 24.6237 228.693 24.2773 229.066C23.931 229.436 23.7168 229.955 23.6348 230.625H27.3398V230.529C27.3034 229.887 27.1302 229.39 26.8203 229.039C26.5104 228.684 26.0911 228.506 25.5625 228.506ZM34.3809 233.038C34.3809 232.696 34.251 232.432 33.9912 232.245C33.736 232.054 33.2871 231.89 32.6445 231.753C32.0065 231.616 31.4984 231.452 31.1201 231.261C30.7464 231.069 30.4684 230.841 30.2861 230.577C30.1084 230.313 30.0195 229.998 30.0195 229.634C30.0195 229.028 30.2747 228.515 30.7852 228.096C31.3001 227.676 31.9564 227.467 32.7539 227.467C33.5924 227.467 34.2715 227.683 34.791 228.116C35.3151 228.549 35.5771 229.103 35.5771 229.777H34.3057C34.3057 229.431 34.1576 229.132 33.8613 228.882C33.5697 228.631 33.2005 228.506 32.7539 228.506C32.2936 228.506 31.9336 228.606 31.6738 228.807C31.4141 229.007 31.2842 229.269 31.2842 229.593C31.2842 229.898 31.4049 230.128 31.6465 230.283C31.888 230.438 32.3232 230.586 32.9521 230.728C33.5856 230.869 34.0983 231.037 34.4902 231.233C34.8822 231.429 35.1715 231.666 35.3584 231.944C35.5498 232.218 35.6455 232.553 35.6455 232.949C35.6455 233.61 35.3812 234.141 34.8525 234.542C34.3239 234.938 33.638 235.137 32.7949 235.137C32.2025 235.137 31.6784 235.032 31.2227 234.822C30.7669 234.613 30.4092 234.321 30.1494 233.947C29.8942 233.569 29.7666 233.161 29.7666 232.724H31.0312C31.054 233.147 31.2227 233.485 31.5371 233.735C31.8561 233.981 32.2754 234.104 32.7949 234.104C33.2734 234.104 33.6562 234.009 33.9434 233.817C34.235 233.621 34.3809 233.362 34.3809 233.038ZM38.667 235H37.4023V227.604H38.667V235ZM37.2998 225.642C37.2998 225.437 37.3613 225.263 37.4844 225.122C37.612 224.981 37.7988 224.91 38.0449 224.91C38.291 224.91 38.4779 224.981 38.6055 225.122C38.7331 225.263 38.7969 225.437 38.7969 225.642C38.7969 225.847 38.7331 226.018 38.6055 226.154C38.4779 226.291 38.291 226.359 38.0449 226.359C37.7988 226.359 37.612 226.291 37.4844 226.154C37.3613 226.018 37.2998 225.847 37.2998 225.642ZM40.3965 231.24C40.3965 230.087 40.6631 229.171 41.1963 228.492C41.7295 227.809 42.4359 227.467 43.3154 227.467C44.2178 227.467 44.9219 227.786 45.4277 228.424L45.4893 227.604H46.6445V234.822C46.6445 235.779 46.3597 236.534 45.79 237.085C45.2249 237.636 44.4639 237.912 43.5068 237.912C42.9736 237.912 42.4518 237.798 41.9414 237.57C41.431 237.342 41.0413 237.03 40.7725 236.634L41.4287 235.875C41.971 236.545 42.6341 236.88 43.418 236.88C44.0332 236.88 44.5117 236.707 44.8535 236.36C45.1999 236.014 45.373 235.526 45.373 234.897V234.262C44.8672 234.845 44.1768 235.137 43.3018 235.137C42.4359 235.137 41.734 234.788 41.1963 234.091C40.6631 233.394 40.3965 232.443 40.3965 231.24ZM41.668 231.384C41.668 232.218 41.8389 232.874 42.1807 233.353C42.5225 233.826 43.001 234.063 43.6162 234.063C44.4137 234.063 44.9993 233.701 45.373 232.977V229.6C44.9857 228.893 44.4046 228.54 43.6299 228.54C43.0146 228.54 42.5339 228.779 42.1875 229.258C41.8411 229.736 41.668 230.445 41.668 231.384ZM49.7549 227.604L49.7959 228.533C50.361 227.822 51.0993 227.467 52.0107 227.467C53.5739 227.467 54.3623 228.349 54.376 230.112V235H53.1113V230.105C53.1068 229.572 52.9837 229.178 52.7422 228.923C52.5052 228.668 52.1338 228.54 51.6279 228.54C51.2178 228.54 50.8577 228.649 50.5479 228.868C50.238 229.087 49.9964 229.374 49.8232 229.729V235H48.5586V227.604H49.7549ZM59.3525 235.137C58.3499 235.137 57.5342 234.809 56.9053 234.152C56.2764 233.492 55.9619 232.61 55.9619 231.507V231.274C55.9619 230.541 56.1009 229.887 56.3789 229.312C56.6615 228.734 57.0534 228.283 57.5547 227.959C58.0605 227.631 58.6074 227.467 59.1953 227.467C60.1569 227.467 60.9043 227.784 61.4375 228.417C61.9707 229.05 62.2373 229.957 62.2373 231.138V231.664H57.2266C57.2448 232.393 57.4567 232.983 57.8623 233.435C58.2725 233.881 58.792 234.104 59.4209 234.104C59.8675 234.104 60.2458 234.013 60.5557 233.831C60.8656 233.649 61.1367 233.407 61.3691 233.106L62.1416 233.708C61.5218 234.66 60.5921 235.137 59.3525 235.137ZM59.1953 228.506C58.6849 228.506 58.2565 228.693 57.9102 229.066C57.5638 229.436 57.3496 229.955 57.2676 230.625H60.9727V230.529C60.9362 229.887 60.763 229.39 60.4531 229.039C60.1432 228.684 59.724 228.506 59.1953 228.506ZM67.2822 228.738C67.0908 228.706 66.8835 228.69 66.6602 228.69C65.8307 228.69 65.2679 229.044 64.9717 229.75V235H63.707V227.604H64.9375L64.958 228.458C65.3727 227.797 65.9606 227.467 66.7217 227.467C66.9678 227.467 67.1546 227.499 67.2822 227.562V228.738Z" fill="#282828"/>
<circle cx="40" cy="180" r="30" fill="#43BAD6"/>
<circle cx="40" cy="180" r="10" fill="white"/>
<circle cx="40" cy="30" r="29.5" stroke="#CACACA"/>
<circle cx="40" cy="30" r="10" fill="#43BAD6"/>
<path d="M15.2471 75.0469L18.501 83.168L21.7549 75.0469H23.457V85H22.1445V81.124L22.2676 76.9404L19 85H17.9951L14.7344 76.9609L14.8643 81.124V85H13.5518V75.0469H15.2471ZM30.1426 85C30.0697 84.8542 30.0104 84.5944 29.9648 84.2207C29.377 84.8314 28.6751 85.1367 27.8594 85.1367C27.1302 85.1367 26.5309 84.9316 26.0615 84.5215C25.5967 84.1068 25.3643 83.5827 25.3643 82.9492C25.3643 82.179 25.6559 81.582 26.2393 81.1582C26.8271 80.7298 27.652 80.5156 28.7139 80.5156H29.9443V79.9346C29.9443 79.4925 29.8122 79.1416 29.5479 78.8818C29.2835 78.6175 28.8939 78.4854 28.3789 78.4854C27.9277 78.4854 27.5495 78.5993 27.2441 78.8271C26.9388 79.055 26.7861 79.3307 26.7861 79.6543H25.5146C25.5146 79.2852 25.6445 78.9297 25.9043 78.5879C26.1686 78.2415 26.5241 77.9681 26.9707 77.7676C27.4219 77.5671 27.9163 77.4668 28.4541 77.4668C29.3063 77.4668 29.974 77.681 30.457 78.1094C30.9401 78.5332 31.1908 79.1188 31.209 79.8662V83.2705C31.209 83.9495 31.2956 84.4896 31.4688 84.8906V85H30.1426ZM28.0439 84.0361C28.4404 84.0361 28.8164 83.9336 29.1719 83.7285C29.5273 83.5234 29.7848 83.2568 29.9443 82.9287V81.4111H28.9531C27.4036 81.4111 26.6289 81.8646 26.6289 82.7715C26.6289 83.168 26.7611 83.4779 27.0254 83.7012C27.2897 83.9245 27.6292 84.0361 28.0439 84.0361ZM34.3877 77.6035L34.4287 78.5332C34.9938 77.8223 35.7321 77.4668 36.6436 77.4668C38.2067 77.4668 38.9951 78.3486 39.0088 80.1123V85H37.7441V80.1055C37.7396 79.5723 37.6165 79.1781 37.375 78.9229C37.138 78.6676 36.7666 78.54 36.2607 78.54C35.8506 78.54 35.4906 78.6494 35.1807 78.8682C34.8708 79.0869 34.6292 79.374 34.4561 79.7295V85H33.1914V77.6035H34.3877ZM45.4824 85C45.4095 84.8542 45.3503 84.5944 45.3047 84.2207C44.7168 84.8314 44.015 85.1367 43.1992 85.1367C42.4701 85.1367 41.8708 84.9316 41.4014 84.5215C40.9365 84.1068 40.7041 83.5827 40.7041 82.9492C40.7041 82.179 40.9958 81.582 41.5791 81.1582C42.167 80.7298 42.9919 80.5156 44.0537 80.5156H45.2842V79.9346C45.2842 79.4925 45.152 79.1416 44.8877 78.8818C44.6234 78.6175 44.2337 78.4854 43.7188 78.4854C43.2676 78.4854 42.8893 78.5993 42.584 78.8271C42.2786 79.055 42.126 79.3307 42.126 79.6543H40.8545C40.8545 79.2852 40.9844 78.9297 41.2441 78.5879C41.5085 78.2415 41.8639 77.9681 42.3105 77.7676C42.7617 77.5671 43.2562 77.4668 43.7939 77.4668C44.6462 77.4668 45.3138 77.681 45.7969 78.1094C46.2799 78.5332 46.5306 79.1188 46.5488 79.8662V83.2705C46.5488 83.9495 46.6354 84.4896 46.8086 84.8906V85H45.4824ZM43.3838 84.0361C43.7803 84.0361 44.1562 83.9336 44.5117 83.7285C44.8672 83.5234 45.1247 83.2568 45.2842 82.9287V81.4111H44.293C42.7435 81.4111 41.9688 81.8646 41.9688 82.7715C41.9688 83.168 42.1009 83.4779 42.3652 83.7012C42.6296 83.9245 42.9691 84.0361 43.3838 84.0361ZM48.2305 81.2402C48.2305 80.0872 48.4971 79.1712 49.0303 78.4922C49.5635 77.8086 50.2699 77.4668 51.1494 77.4668C52.0518 77.4668 52.7559 77.7858 53.2617 78.4238L53.3232 77.6035H54.4785V84.8223C54.4785 85.7793 54.1937 86.5335 53.624 87.085C53.0589 87.6364 52.2979 87.9121 51.3408 87.9121C50.8076 87.9121 50.2858 87.7982 49.7754 87.5703C49.265 87.3424 48.8753 87.0303 48.6064 86.6338L49.2627 85.875C49.805 86.5449 50.4681 86.8799 51.252 86.8799C51.8672 86.8799 52.3457 86.7067 52.6875 86.3604C53.0339 86.014 53.207 85.5264 53.207 84.8975V84.2617C52.7012 84.8451 52.0107 85.1367 51.1357 85.1367C50.2699 85.1367 49.568 84.7881 49.0303 84.0908C48.4971 83.3936 48.2305 82.4434 48.2305 81.2402ZM49.502 81.3838C49.502 82.2178 49.6729 82.874 50.0146 83.3525C50.3564 83.8265 50.835 84.0635 51.4502 84.0635C52.2477 84.0635 52.8333 83.7012 53.207 82.9766V79.5996C52.8197 78.8932 52.2386 78.54 51.4639 78.54C50.8486 78.54 50.3678 78.7793 50.0215 79.2578C49.6751 79.7363 49.502 80.445 49.502 81.3838ZM59.4619 85.1367C58.4593 85.1367 57.6436 84.8086 57.0146 84.1523C56.3857 83.4915 56.0713 82.6097 56.0713 81.5068V81.2744C56.0713 80.5407 56.2103 79.8867 56.4883 79.3125C56.7708 78.7337 57.1628 78.2826 57.6641 77.959C58.1699 77.6309 58.7168 77.4668 59.3047 77.4668C60.2663 77.4668 61.0137 77.7835 61.5469 78.417C62.0801 79.0505 62.3467 79.9574 62.3467 81.1377V81.6641H57.3359C57.3542 82.3932 57.5661 82.9834 57.9717 83.4346C58.3818 83.8812 58.9014 84.1045 59.5303 84.1045C59.9769 84.1045 60.3551 84.0133 60.665 83.8311C60.9749 83.6488 61.2461 83.4072 61.4785 83.1064L62.251 83.708C61.6312 84.6605 60.7015 85.1367 59.4619 85.1367ZM59.3047 78.5059C58.7943 78.5059 58.3659 78.6927 58.0195 79.0664C57.6732 79.4355 57.459 79.9551 57.377 80.625H61.082V80.5293C61.0456 79.8867 60.8724 79.39 60.5625 79.0391C60.2526 78.6836 59.8333 78.5059 59.3047 78.5059ZM67.3916 78.7383C67.2002 78.7064 66.9928 78.6904 66.7695 78.6904C65.9401 78.6904 65.3773 79.0436 65.0811 79.75V85H63.8164V77.6035H65.0469L65.0674 78.458C65.4821 77.7972 66.07 77.4668 66.8311 77.4668C67.0771 77.4668 67.264 77.4987 67.3916 77.5625V78.7383Z" fill="black"/>
<path d="M80 315C80 315 105 277.68 105 180C105 78.1312 80 45 80 45" stroke="#BEBEBE" stroke-width="2" stroke-linecap="round" stroke-dasharray="0.5 4"/>
<path d="M80 51L80 45L86 45" stroke="#BEBEBE" stroke-width="2" stroke-linecap="round"/>
<path d="M80 45C80 45 130 120.47 130 318C130 524.001 80 591 80 591" stroke="#BEBEBE" stroke-width="2" stroke-linecap="round" stroke-dasharray="0.5 4"/>
<path d="M86 591L80 591L80 585" stroke="#BEBEBE" stroke-width="2" stroke-linecap="round"/>
<path d="M39.9999 255L39.9999 285M39.9999 285L45 280.588M39.9999 285L35 280.588" stroke="#BEBEBE" stroke-width="2" stroke-linecap="round"/>
<path d="M39.9999 405L39.9999 435M39.9999 435L45 430.588M39.9999 435L35 430.588" stroke="#BEBEBE" stroke-width="2" stroke-linecap="round"/>
<circle cx="40" cy="330" r="30" fill="#F0F0F0"/>
<circle cx="40" cy="330" r="10" fill="#43BAD6"/>
<path d="M16.6895 380.604H12.5127V385H11.2002V375.047H17.3662V376.127H12.5127V379.531H16.6895V380.604ZM22.1377 378.738C21.9463 378.706 21.7389 378.69 21.5156 378.69C20.6862 378.69 20.1234 379.044 19.8271 379.75V385H18.5625V377.604H19.793L19.8135 378.458C20.2282 377.797 20.8161 377.467 21.5771 377.467C21.8232 377.467 22.0101 377.499 22.1377 377.562V378.738ZM22.835 381.233C22.835 380.509 22.9762 379.857 23.2588 379.278C23.5459 378.7 23.9424 378.253 24.4482 377.938C24.9587 377.624 25.5397 377.467 26.1914 377.467C27.1986 377.467 28.012 377.815 28.6318 378.513C29.2562 379.21 29.5684 380.137 29.5684 381.295V381.384C29.5684 382.104 29.4294 382.751 29.1514 383.325C28.8779 383.895 28.4837 384.339 27.9688 384.658C27.4583 384.977 26.8704 385.137 26.2051 385.137C25.2025 385.137 24.389 384.788 23.7646 384.091C23.1449 383.394 22.835 382.471 22.835 381.322V381.233ZM24.1064 381.384C24.1064 382.204 24.2956 382.863 24.6738 383.359C25.0566 383.856 25.5671 384.104 26.2051 384.104C26.8477 384.104 27.3581 383.854 27.7363 383.353C28.1146 382.847 28.3037 382.14 28.3037 381.233C28.3037 380.422 28.11 379.766 27.7227 379.265C27.3398 378.759 26.8294 378.506 26.1914 378.506C25.5671 378.506 25.0635 378.754 24.6807 379.251C24.2979 379.748 24.1064 380.459 24.1064 381.384ZM32.3506 377.604L32.3916 378.533C32.9567 377.822 33.695 377.467 34.6064 377.467C36.1696 377.467 36.958 378.349 36.9717 380.112V385H35.707V380.105C35.7025 379.572 35.5794 379.178 35.3379 378.923C35.1009 378.668 34.7295 378.54 34.2236 378.54C33.8135 378.54 33.4535 378.649 33.1436 378.868C32.8337 379.087 32.5921 379.374 32.4189 379.729V385H31.1543V377.604H32.3506ZM40.5947 375.812V377.604H41.9756V378.581H40.5947V383.168C40.5947 383.464 40.6562 383.688 40.7793 383.838C40.9023 383.984 41.112 384.057 41.4082 384.057C41.554 384.057 41.7546 384.029 42.0098 383.975V385C41.6771 385.091 41.3535 385.137 41.0391 385.137C40.474 385.137 40.0479 384.966 39.7607 384.624C39.4736 384.282 39.3301 383.797 39.3301 383.168V378.581H37.9834V377.604H39.3301V375.812H40.5947ZM46.0908 381.288H42.7549V380.256H46.0908V381.288ZM53.1523 380.399H48.8389V383.927H53.8496V385H47.5264V375.047H53.7812V376.127H48.8389V379.326H53.1523V380.399ZM56.4814 377.604L56.5225 378.533C57.0876 377.822 57.8258 377.467 58.7373 377.467C60.3005 377.467 61.0889 378.349 61.1025 380.112V385H59.8379V380.105C59.8333 379.572 59.7103 379.178 59.4688 378.923C59.2318 378.668 58.8604 378.54 58.3545 378.54C57.9443 378.54 57.5843 378.649 57.2744 378.868C56.9645 379.087 56.723 379.374 56.5498 379.729V385H55.2852V377.604H56.4814ZM62.7021 381.24C62.7021 380.105 62.971 379.194 63.5088 378.506C64.0465 377.813 64.7507 377.467 65.6211 377.467C66.487 377.467 67.1729 377.763 67.6787 378.355V374.5H68.9434V385H67.7812L67.7197 384.207C67.2139 384.827 66.5098 385.137 65.6074 385.137C64.7507 385.137 64.0511 384.786 63.5088 384.084C62.971 383.382 62.7021 382.466 62.7021 381.336V381.24ZM63.9668 381.384C63.9668 382.222 64.14 382.879 64.4863 383.353C64.8327 383.826 65.3112 384.063 65.9219 384.063C66.724 384.063 67.3096 383.703 67.6787 382.983V379.586C67.3005 378.889 66.7194 378.54 65.9355 378.54C65.3158 378.54 64.8327 378.779 64.4863 379.258C64.14 379.736 63.9668 380.445 63.9668 381.384Z" fill="black"/>
<circle cx="40" cy="480" r="29.5" stroke="#CACACA"/>
<circle cx="40" cy="480" r="9.5" stroke="#43BAD6"/>
<path d="M12.0479 535V525.047H15.3018C16.3818 525.047 17.193 525.27 17.7354 525.717C18.2822 526.163 18.5557 526.824 18.5557 527.699C18.5557 528.164 18.4235 528.576 18.1592 528.937C17.8949 529.292 17.5348 529.568 17.0791 529.764C17.6169 529.914 18.0407 530.201 18.3506 530.625C18.665 531.044 18.8223 531.546 18.8223 532.129C18.8223 533.022 18.5329 533.724 17.9541 534.234C17.3753 534.745 16.5573 535 15.5 535H12.0479ZM13.3604 530.345V533.927H15.5273C16.138 533.927 16.6188 533.77 16.9697 533.455C17.3252 533.136 17.5029 532.699 17.5029 532.143C17.5029 530.944 16.8512 530.345 15.5479 530.345H13.3604ZM13.3604 529.292H15.3428C15.917 529.292 16.375 529.148 16.7168 528.861C17.0632 528.574 17.2363 528.185 17.2363 527.692C17.2363 527.146 17.0768 526.749 16.7578 526.503C16.4388 526.252 15.9535 526.127 15.3018 526.127H13.3604V529.292ZM25.1387 535C25.0658 534.854 25.0065 534.594 24.9609 534.221C24.373 534.831 23.6712 535.137 22.8555 535.137C22.1263 535.137 21.527 534.932 21.0576 534.521C20.5928 534.107 20.3604 533.583 20.3604 532.949C20.3604 532.179 20.652 531.582 21.2354 531.158C21.8232 530.73 22.6481 530.516 23.71 530.516H24.9404V529.935C24.9404 529.493 24.8083 529.142 24.5439 528.882C24.2796 528.618 23.89 528.485 23.375 528.485C22.9238 528.485 22.5456 528.599 22.2402 528.827C21.9349 529.055 21.7822 529.331 21.7822 529.654H20.5107C20.5107 529.285 20.6406 528.93 20.9004 528.588C21.1647 528.242 21.5202 527.968 21.9668 527.768C22.418 527.567 22.9124 527.467 23.4502 527.467C24.3024 527.467 24.9701 527.681 25.4531 528.109C25.9362 528.533 26.1868 529.119 26.2051 529.866V533.271C26.2051 533.95 26.2917 534.49 26.4648 534.891V535H25.1387ZM23.04 534.036C23.4365 534.036 23.8125 533.934 24.168 533.729C24.5234 533.523 24.7809 533.257 24.9404 532.929V531.411H23.9492C22.3997 531.411 21.625 531.865 21.625 532.771C21.625 533.168 21.7572 533.478 22.0215 533.701C22.2858 533.924 22.6253 534.036 23.04 534.036ZM31.1543 534.104C31.6055 534.104 31.9997 533.968 32.3369 533.694C32.6742 533.421 32.861 533.079 32.8975 532.669H34.0938C34.071 533.093 33.9251 533.496 33.6562 533.879C33.3874 534.262 33.0273 534.567 32.5762 534.795C32.1296 535.023 31.6556 535.137 31.1543 535.137C30.1471 535.137 29.3451 534.802 28.748 534.132C28.1556 533.457 27.8594 532.537 27.8594 531.37V531.158C27.8594 530.438 27.9915 529.798 28.2559 529.237C28.5202 528.677 28.8984 528.242 29.3906 527.932C29.8874 527.622 30.473 527.467 31.1475 527.467C31.9769 527.467 32.665 527.715 33.2119 528.212C33.7633 528.709 34.0573 529.354 34.0938 530.146H32.8975C32.861 529.668 32.6787 529.276 32.3506 528.971C32.027 528.661 31.626 528.506 31.1475 528.506C30.5049 528.506 30.0059 528.738 29.6504 529.203C29.2995 529.663 29.124 530.331 29.124 531.206V531.445C29.124 532.298 29.2995 532.954 29.6504 533.414C30.0013 533.874 30.5026 534.104 31.1543 534.104ZM37.5801 531.575L36.7871 532.402V535H35.5225V524.5H36.7871V530.851L37.4639 530.037L39.7676 527.604H41.3057L38.4277 530.693L41.6406 535H40.1572L37.5801 531.575ZM45.2432 531.288H41.9072V530.256H45.2432V531.288ZM52.3047 530.399H47.9912V533.927H53.002V535H46.6787V525.047H52.9336V526.127H47.9912V529.326H52.3047V530.399ZM55.6338 527.604L55.6748 528.533C56.2399 527.822 56.9782 527.467 57.8896 527.467C59.4528 527.467 60.2412 528.349 60.2549 530.112V535H58.9902V530.105C58.9857 529.572 58.8626 529.178 58.6211 528.923C58.3841 528.668 58.0127 528.54 57.5068 528.54C57.0967 528.54 56.7367 528.649 56.4268 528.868C56.1169 529.087 55.8753 529.374 55.7021 529.729V535H54.4375V527.604H55.6338ZM61.8545 531.24C61.8545 530.105 62.1234 529.194 62.6611 528.506C63.1989 527.813 63.903 527.467 64.7734 527.467C65.6393 527.467 66.3252 527.763 66.8311 528.355V524.5H68.0957V535H66.9336L66.8721 534.207C66.3662 534.827 65.6621 535.137 64.7598 535.137C63.903 535.137 63.2035 534.786 62.6611 534.084C62.1234 533.382 61.8545 532.466 61.8545 531.336V531.24ZM63.1191 531.384C63.1191 532.222 63.2923 532.879 63.6387 533.353C63.985 533.826 64.4635 534.063 65.0742 534.063C65.8763 534.063 66.4619 533.703 66.8311 532.983V529.586C66.4528 528.889 65.8717 528.54 65.0879 528.54C64.4681 528.54 63.985 528.779 63.6387 529.258C63.2923 529.736 63.1191 530.445 63.1191 531.384Z" fill="black"/>
</svg>
