<svg width="640" height="151" viewBox="0 0 640 151" fill="none" xmlns="http://www.w3.org/2000/svg">
<circle cx="600" cy="91" r="29.5" stroke="#CACACA"/>
<circle cx="600" cy="91" r="9.5" stroke="#43BAD6"/>
<path d="M590.648 142.842C590.525 143.895 590.136 144.708 589.479 145.282C588.828 145.852 587.96 146.137 586.875 146.137C585.699 146.137 584.756 145.715 584.045 144.872C583.339 144.029 582.985 142.901 582.985 141.488V140.531C582.985 139.606 583.149 138.793 583.478 138.091C583.81 137.389 584.28 136.851 584.886 136.478C585.492 136.099 586.194 135.91 586.991 135.91C588.049 135.91 588.896 136.206 589.534 136.799C590.172 137.387 590.544 138.202 590.648 139.246H589.329C589.215 138.453 588.967 137.879 588.584 137.523C588.206 137.168 587.675 136.99 586.991 136.99C586.153 136.99 585.494 137.3 585.016 137.92C584.542 138.54 584.305 139.422 584.305 140.565V141.529C584.305 142.609 584.53 143.468 584.981 144.106C585.433 144.744 586.064 145.063 586.875 145.063C587.604 145.063 588.162 144.899 588.55 144.571C588.942 144.239 589.201 143.662 589.329 142.842H590.648ZM593.622 146H592.357V135.5H593.622V146ZM597.026 146H595.762V138.604H597.026V146ZM595.659 136.642C595.659 136.437 595.721 136.263 595.844 136.122C595.971 135.981 596.158 135.91 596.404 135.91C596.65 135.91 596.837 135.981 596.965 136.122C597.092 136.263 597.156 136.437 597.156 136.642C597.156 136.847 597.092 137.018 596.965 137.154C596.837 137.291 596.65 137.359 596.404 137.359C596.158 137.359 595.971 137.291 595.844 137.154C595.721 137.018 595.659 136.847 595.659 136.642ZM602.126 146.137C601.123 146.137 600.308 145.809 599.679 145.152C599.05 144.492 598.735 143.61 598.735 142.507V142.274C598.735 141.541 598.874 140.887 599.152 140.312C599.435 139.734 599.827 139.283 600.328 138.959C600.834 138.631 601.381 138.467 601.969 138.467C602.93 138.467 603.678 138.784 604.211 139.417C604.744 140.05 605.011 140.957 605.011 142.138V142.664H600C600.018 143.393 600.23 143.983 600.636 144.435C601.046 144.881 601.565 145.104 602.194 145.104C602.641 145.104 603.019 145.013 603.329 144.831C603.639 144.649 603.91 144.407 604.143 144.106L604.915 144.708C604.295 145.66 603.366 146.137 602.126 146.137ZM601.969 139.506C601.458 139.506 601.03 139.693 600.684 140.066C600.337 140.436 600.123 140.955 600.041 141.625H603.746V141.529C603.71 140.887 603.536 140.39 603.227 140.039C602.917 139.684 602.497 139.506 601.969 139.506ZM607.677 138.604L607.718 139.533C608.283 138.822 609.021 138.467 609.933 138.467C611.496 138.467 612.284 139.349 612.298 141.112V146H611.033V141.105C611.029 140.572 610.906 140.178 610.664 139.923C610.427 139.668 610.056 139.54 609.55 139.54C609.14 139.54 608.78 139.649 608.47 139.868C608.16 140.087 607.918 140.374 607.745 140.729V146H606.48V138.604H607.677ZM615.921 136.812V138.604H617.302V139.581H615.921V144.168C615.921 144.464 615.982 144.688 616.105 144.838C616.229 144.984 616.438 145.057 616.734 145.057C616.88 145.057 617.081 145.029 617.336 144.975V146C617.003 146.091 616.68 146.137 616.365 146.137C615.8 146.137 615.374 145.966 615.087 145.624C614.8 145.282 614.656 144.797 614.656 144.168V139.581H613.31V138.604H614.656V136.812H615.921Z" fill="black"/>
<rect width="80" height="90" transform="translate(140 61)" fill="white"/>
<path d="M153.661 146V136.047H156.471C157.337 136.047 158.102 136.238 158.768 136.621C159.433 137.004 159.946 137.549 160.306 138.255C160.67 138.961 160.855 139.772 160.859 140.688V141.324C160.859 142.263 160.677 143.086 160.312 143.792C159.952 144.498 159.435 145.041 158.761 145.419C158.091 145.797 157.309 145.991 156.416 146H153.661ZM154.974 137.127V144.927H156.354C157.366 144.927 158.152 144.612 158.713 143.983C159.278 143.354 159.561 142.459 159.561 141.297V140.716C159.561 139.586 159.294 138.708 158.761 138.084C158.232 137.455 157.48 137.136 156.505 137.127H154.974ZM165.72 146.137C164.717 146.137 163.901 145.809 163.272 145.152C162.644 144.492 162.329 143.61 162.329 142.507V142.274C162.329 141.541 162.468 140.887 162.746 140.312C163.029 139.734 163.421 139.283 163.922 138.959C164.428 138.631 164.975 138.467 165.562 138.467C166.524 138.467 167.271 138.784 167.805 139.417C168.338 140.05 168.604 140.957 168.604 142.138V142.664H163.594C163.612 143.393 163.824 143.983 164.229 144.435C164.64 144.881 165.159 145.104 165.788 145.104C166.235 145.104 166.613 145.013 166.923 144.831C167.233 144.649 167.504 144.407 167.736 144.106L168.509 144.708C167.889 145.66 166.959 146.137 165.72 146.137ZM165.562 139.506C165.052 139.506 164.624 139.693 164.277 140.066C163.931 140.436 163.717 140.955 163.635 141.625H167.34V141.529C167.303 140.887 167.13 140.39 166.82 140.039C166.51 139.684 166.091 139.506 165.562 139.506ZM174.381 144.038C174.381 143.696 174.251 143.432 173.991 143.245C173.736 143.054 173.287 142.89 172.645 142.753C172.007 142.616 171.498 142.452 171.12 142.261C170.746 142.069 170.468 141.841 170.286 141.577C170.108 141.313 170.02 140.998 170.02 140.634C170.02 140.028 170.275 139.515 170.785 139.096C171.3 138.676 171.956 138.467 172.754 138.467C173.592 138.467 174.271 138.683 174.791 139.116C175.315 139.549 175.577 140.103 175.577 140.777H174.306C174.306 140.431 174.158 140.132 173.861 139.882C173.57 139.631 173.201 139.506 172.754 139.506C172.294 139.506 171.934 139.606 171.674 139.807C171.414 140.007 171.284 140.269 171.284 140.593C171.284 140.898 171.405 141.128 171.646 141.283C171.888 141.438 172.323 141.586 172.952 141.728C173.586 141.869 174.098 142.037 174.49 142.233C174.882 142.429 175.172 142.666 175.358 142.944C175.55 143.218 175.646 143.553 175.646 143.949C175.646 144.61 175.381 145.141 174.853 145.542C174.324 145.938 173.638 146.137 172.795 146.137C172.202 146.137 171.678 146.032 171.223 145.822C170.767 145.613 170.409 145.321 170.149 144.947C169.894 144.569 169.767 144.161 169.767 143.724H171.031C171.054 144.147 171.223 144.485 171.537 144.735C171.856 144.981 172.275 145.104 172.795 145.104C173.273 145.104 173.656 145.009 173.943 144.817C174.235 144.621 174.381 144.362 174.381 144.038ZM178.667 146H177.402V138.604H178.667V146ZM177.3 136.642C177.3 136.437 177.361 136.263 177.484 136.122C177.612 135.981 177.799 135.91 178.045 135.91C178.291 135.91 178.478 135.981 178.605 136.122C178.733 136.263 178.797 136.437 178.797 136.642C178.797 136.847 178.733 137.018 178.605 137.154C178.478 137.291 178.291 137.359 178.045 137.359C177.799 137.359 177.612 137.291 177.484 137.154C177.361 137.018 177.3 136.847 177.3 136.642ZM180.396 142.24C180.396 141.087 180.663 140.171 181.196 139.492C181.729 138.809 182.436 138.467 183.315 138.467C184.218 138.467 184.922 138.786 185.428 139.424L185.489 138.604H186.645V145.822C186.645 146.779 186.36 147.534 185.79 148.085C185.225 148.636 184.464 148.912 183.507 148.912C182.974 148.912 182.452 148.798 181.941 148.57C181.431 148.342 181.041 148.03 180.772 147.634L181.429 146.875C181.971 147.545 182.634 147.88 183.418 147.88C184.033 147.88 184.512 147.707 184.854 147.36C185.2 147.014 185.373 146.526 185.373 145.897V145.262C184.867 145.845 184.177 146.137 183.302 146.137C182.436 146.137 181.734 145.788 181.196 145.091C180.663 144.394 180.396 143.443 180.396 142.24ZM181.668 142.384C181.668 143.218 181.839 143.874 182.181 144.353C182.522 144.826 183.001 145.063 183.616 145.063C184.414 145.063 184.999 144.701 185.373 143.977V140.6C184.986 139.893 184.405 139.54 183.63 139.54C183.015 139.54 182.534 139.779 182.188 140.258C181.841 140.736 181.668 141.445 181.668 142.384ZM189.755 138.604L189.796 139.533C190.361 138.822 191.099 138.467 192.011 138.467C193.574 138.467 194.362 139.349 194.376 141.112V146H193.111V141.105C193.107 140.572 192.984 140.178 192.742 139.923C192.505 139.668 192.134 139.54 191.628 139.54C191.218 139.54 190.858 139.649 190.548 139.868C190.238 140.087 189.996 140.374 189.823 140.729V146H188.559V138.604H189.755ZM199.353 146.137C198.35 146.137 197.534 145.809 196.905 145.152C196.276 144.492 195.962 143.61 195.962 142.507V142.274C195.962 141.541 196.101 140.887 196.379 140.312C196.661 139.734 197.053 139.283 197.555 138.959C198.061 138.631 198.607 138.467 199.195 138.467C200.157 138.467 200.904 138.784 201.438 139.417C201.971 140.05 202.237 140.957 202.237 142.138V142.664H197.227C197.245 143.393 197.457 143.983 197.862 144.435C198.272 144.881 198.792 145.104 199.421 145.104C199.868 145.104 200.246 145.013 200.556 144.831C200.866 144.649 201.137 144.407 201.369 144.106L202.142 144.708C201.522 145.66 200.592 146.137 199.353 146.137ZM199.195 139.506C198.685 139.506 198.257 139.693 197.91 140.066C197.564 140.436 197.35 140.955 197.268 141.625H200.973V141.529C200.936 140.887 200.763 140.39 200.453 140.039C200.143 139.684 199.724 139.506 199.195 139.506ZM207.282 139.738C207.091 139.706 206.883 139.69 206.66 139.69C205.831 139.69 205.268 140.044 204.972 140.75V146H203.707V138.604H204.938L204.958 139.458C205.373 138.797 205.961 138.467 206.722 138.467C206.968 138.467 207.155 138.499 207.282 138.562V139.738Z" fill="#282828"/>
<circle cx="180" cy="91" r="30" fill="#43BAD6"/>
<circle cx="180" cy="91" r="10" fill="white"/>
<circle cx="40" cy="91" r="29.5" stroke="#CACACA"/>
<circle cx="40" cy="91" r="10" fill="#43BAD6"/>
<path d="M15.2471 136.047L18.501 144.168L21.7549 136.047H23.457V146H22.1445V142.124L22.2676 137.94L19 146H17.9951L14.7344 137.961L14.8643 142.124V146H13.5518V136.047H15.2471ZM30.1426 146C30.0697 145.854 30.0104 145.594 29.9648 145.221C29.377 145.831 28.6751 146.137 27.8594 146.137C27.1302 146.137 26.5309 145.932 26.0615 145.521C25.5967 145.107 25.3643 144.583 25.3643 143.949C25.3643 143.179 25.6559 142.582 26.2393 142.158C26.8271 141.73 27.652 141.516 28.7139 141.516H29.9443V140.935C29.9443 140.493 29.8122 140.142 29.5479 139.882C29.2835 139.618 28.8939 139.485 28.3789 139.485C27.9277 139.485 27.5495 139.599 27.2441 139.827C26.9388 140.055 26.7861 140.331 26.7861 140.654H25.5146C25.5146 140.285 25.6445 139.93 25.9043 139.588C26.1686 139.242 26.5241 138.968 26.9707 138.768C27.4219 138.567 27.9163 138.467 28.4541 138.467C29.3063 138.467 29.974 138.681 30.457 139.109C30.9401 139.533 31.1908 140.119 31.209 140.866V144.271C31.209 144.95 31.2956 145.49 31.4688 145.891V146H30.1426ZM28.0439 145.036C28.4404 145.036 28.8164 144.934 29.1719 144.729C29.5273 144.523 29.7848 144.257 29.9443 143.929V142.411H28.9531C27.4036 142.411 26.6289 142.865 26.6289 143.771C26.6289 144.168 26.7611 144.478 27.0254 144.701C27.2897 144.924 27.6292 145.036 28.0439 145.036ZM34.3877 138.604L34.4287 139.533C34.9938 138.822 35.7321 138.467 36.6436 138.467C38.2067 138.467 38.9951 139.349 39.0088 141.112V146H37.7441V141.105C37.7396 140.572 37.6165 140.178 37.375 139.923C37.138 139.668 36.7666 139.54 36.2607 139.54C35.8506 139.54 35.4906 139.649 35.1807 139.868C34.8708 140.087 34.6292 140.374 34.4561 140.729V146H33.1914V138.604H34.3877ZM45.4824 146C45.4095 145.854 45.3503 145.594 45.3047 145.221C44.7168 145.831 44.015 146.137 43.1992 146.137C42.4701 146.137 41.8708 145.932 41.4014 145.521C40.9365 145.107 40.7041 144.583 40.7041 143.949C40.7041 143.179 40.9958 142.582 41.5791 142.158C42.167 141.73 42.9919 141.516 44.0537 141.516H45.2842V140.935C45.2842 140.493 45.152 140.142 44.8877 139.882C44.6234 139.618 44.2337 139.485 43.7188 139.485C43.2676 139.485 42.8893 139.599 42.584 139.827C42.2786 140.055 42.126 140.331 42.126 140.654H40.8545C40.8545 140.285 40.9844 139.93 41.2441 139.588C41.5085 139.242 41.8639 138.968 42.3105 138.768C42.7617 138.567 43.2562 138.467 43.7939 138.467C44.6462 138.467 45.3138 138.681 45.7969 139.109C46.2799 139.533 46.5306 140.119 46.5488 140.866V144.271C46.5488 144.95 46.6354 145.49 46.8086 145.891V146H45.4824ZM43.3838 145.036C43.7803 145.036 44.1562 144.934 44.5117 144.729C44.8672 144.523 45.1247 144.257 45.2842 143.929V142.411H44.293C42.7435 142.411 41.9688 142.865 41.9688 143.771C41.9688 144.168 42.1009 144.478 42.3652 144.701C42.6296 144.924 42.9691 145.036 43.3838 145.036ZM48.2305 142.24C48.2305 141.087 48.4971 140.171 49.0303 139.492C49.5635 138.809 50.2699 138.467 51.1494 138.467C52.0518 138.467 52.7559 138.786 53.2617 139.424L53.3232 138.604H54.4785V145.822C54.4785 146.779 54.1937 147.534 53.624 148.085C53.0589 148.636 52.2979 148.912 51.3408 148.912C50.8076 148.912 50.2858 148.798 49.7754 148.57C49.265 148.342 48.8753 148.03 48.6064 147.634L49.2627 146.875C49.805 147.545 50.4681 147.88 51.252 147.88C51.8672 147.88 52.3457 147.707 52.6875 147.36C53.0339 147.014 53.207 146.526 53.207 145.897V145.262C52.7012 145.845 52.0107 146.137 51.1357 146.137C50.2699 146.137 49.568 145.788 49.0303 145.091C48.4971 144.394 48.2305 143.443 48.2305 142.24ZM49.502 142.384C49.502 143.218 49.6729 143.874 50.0146 144.353C50.3564 144.826 50.835 145.063 51.4502 145.063C52.2477 145.063 52.8333 144.701 53.207 143.977V140.6C52.8197 139.893 52.2386 139.54 51.4639 139.54C50.8486 139.54 50.3678 139.779 50.0215 140.258C49.6751 140.736 49.502 141.445 49.502 142.384ZM59.4619 146.137C58.4593 146.137 57.6436 145.809 57.0146 145.152C56.3857 144.492 56.0713 143.61 56.0713 142.507V142.274C56.0713 141.541 56.2103 140.887 56.4883 140.312C56.7708 139.734 57.1628 139.283 57.6641 138.959C58.1699 138.631 58.7168 138.467 59.3047 138.467C60.2663 138.467 61.0137 138.784 61.5469 139.417C62.0801 140.05 62.3467 140.957 62.3467 142.138V142.664H57.3359C57.3542 143.393 57.5661 143.983 57.9717 144.435C58.3818 144.881 58.9014 145.104 59.5303 145.104C59.9769 145.104 60.3551 145.013 60.665 144.831C60.9749 144.649 61.2461 144.407 61.4785 144.106L62.251 144.708C61.6312 145.66 60.7015 146.137 59.4619 146.137ZM59.3047 139.506C58.7943 139.506 58.3659 139.693 58.0195 140.066C57.6732 140.436 57.459 140.955 57.377 141.625H61.082V141.529C61.0456 140.887 60.8724 140.39 60.5625 140.039C60.2526 139.684 59.8333 139.506 59.3047 139.506ZM67.3916 139.738C67.2002 139.706 66.9928 139.69 66.7695 139.69C65.9401 139.69 65.3773 140.044 65.0811 140.75V146H63.8164V138.604H65.0469L65.0674 139.458C65.4821 138.797 66.07 138.467 66.8311 138.467C67.0771 138.467 67.264 138.499 67.3916 138.562V139.738Z" fill="black"/>
<path d="M317 51C317 51 279.68 26 182 26C80.1312 26 47 51 47 51" stroke="#BEBEBE" stroke-width="2" stroke-linecap="round" stroke-dasharray="0.5 4"/>
<path d="M53 51L47 51L47 45" stroke="#BEBEBE" stroke-width="2" stroke-linecap="round"/>
<path d="M47 51C47 51 122.47 0.999999 320 0.999999C526.001 0.999999 593 51 593 51" stroke="#BEBEBE" stroke-width="2" stroke-linecap="round" stroke-dasharray="0.5 4"/>
<path d="M593 45V51H587" stroke="#BEBEBE" stroke-width="2" stroke-linecap="round"/>
<path d="M235 91.0001H265M265 91.0001L260.588 86M265 91.0001L260.588 96" stroke="#BEBEBE" stroke-width="2" stroke-linecap="round"/>
<path d="M375 91.0001H405M405 91.0001L400.588 86M405 91.0001L400.588 96" stroke="#BEBEBE" stroke-width="2" stroke-linecap="round"/>
<circle cx="320" cy="91" r="30" fill="#F0F0F0"/>
<circle cx="320" cy="91" r="10" fill="#43BAD6"/>
<path d="M296.689 141.604H292.513V146H291.2V136.047H297.366V137.127H292.513V140.531H296.689V141.604ZM302.138 139.738C301.946 139.706 301.739 139.69 301.516 139.69C300.686 139.69 300.123 140.044 299.827 140.75V146H298.562V138.604H299.793L299.813 139.458C300.228 138.797 300.816 138.467 301.577 138.467C301.823 138.467 302.01 138.499 302.138 138.562V139.738ZM302.835 142.233C302.835 141.509 302.976 140.857 303.259 140.278C303.546 139.7 303.942 139.253 304.448 138.938C304.959 138.624 305.54 138.467 306.191 138.467C307.199 138.467 308.012 138.815 308.632 139.513C309.256 140.21 309.568 141.137 309.568 142.295V142.384C309.568 143.104 309.429 143.751 309.151 144.325C308.878 144.895 308.484 145.339 307.969 145.658C307.458 145.977 306.87 146.137 306.205 146.137C305.202 146.137 304.389 145.788 303.765 145.091C303.145 144.394 302.835 143.471 302.835 142.322V142.233ZM304.106 142.384C304.106 143.204 304.296 143.863 304.674 144.359C305.057 144.856 305.567 145.104 306.205 145.104C306.848 145.104 307.358 144.854 307.736 144.353C308.115 143.847 308.304 143.14 308.304 142.233C308.304 141.422 308.11 140.766 307.723 140.265C307.34 139.759 306.829 139.506 306.191 139.506C305.567 139.506 305.063 139.754 304.681 140.251C304.298 140.748 304.106 141.459 304.106 142.384ZM312.351 138.604L312.392 139.533C312.957 138.822 313.695 138.467 314.606 138.467C316.17 138.467 316.958 139.349 316.972 141.112V146H315.707V141.105C315.702 140.572 315.579 140.178 315.338 139.923C315.101 139.668 314.729 139.54 314.224 139.54C313.813 139.54 313.453 139.649 313.144 139.868C312.834 140.087 312.592 140.374 312.419 140.729V146H311.154V138.604H312.351ZM320.595 136.812V138.604H321.976V139.581H320.595V144.168C320.595 144.464 320.656 144.688 320.779 144.838C320.902 144.984 321.112 145.057 321.408 145.057C321.554 145.057 321.755 145.029 322.01 144.975V146C321.677 146.091 321.354 146.137 321.039 146.137C320.474 146.137 320.048 145.966 319.761 145.624C319.474 145.282 319.33 144.797 319.33 144.168V139.581H317.983V138.604H319.33V136.812H320.595ZM326.091 142.288H322.755V141.256H326.091V142.288ZM333.152 141.399H328.839V144.927H333.85V146H327.526V136.047H333.781V137.127H328.839V140.326H333.152V141.399ZM336.481 138.604L336.522 139.533C337.088 138.822 337.826 138.467 338.737 138.467C340.3 138.467 341.089 139.349 341.103 141.112V146H339.838V141.105C339.833 140.572 339.71 140.178 339.469 139.923C339.232 139.668 338.86 139.54 338.354 139.54C337.944 139.54 337.584 139.649 337.274 139.868C336.965 140.087 336.723 140.374 336.55 140.729V146H335.285V138.604H336.481ZM342.702 142.24C342.702 141.105 342.971 140.194 343.509 139.506C344.047 138.813 344.751 138.467 345.621 138.467C346.487 138.467 347.173 138.763 347.679 139.355V135.5H348.943V146H347.781L347.72 145.207C347.214 145.827 346.51 146.137 345.607 146.137C344.751 146.137 344.051 145.786 343.509 145.084C342.971 144.382 342.702 143.466 342.702 142.336V142.24ZM343.967 142.384C343.967 143.222 344.14 143.879 344.486 144.353C344.833 144.826 345.311 145.063 345.922 145.063C346.724 145.063 347.31 144.703 347.679 143.983V140.586C347.3 139.889 346.719 139.54 345.936 139.54C345.316 139.54 344.833 139.779 344.486 140.258C344.14 140.736 343.967 141.445 343.967 142.384Z" fill="black"/>
<circle cx="460" cy="91" r="29.5" stroke="#CACACA"/>
<circle cx="460" cy="91" r="9.5" stroke="#43BAD6"/>
<path d="M432.048 146V136.047H435.302C436.382 136.047 437.193 136.27 437.735 136.717C438.282 137.163 438.556 137.824 438.556 138.699C438.556 139.164 438.424 139.576 438.159 139.937C437.895 140.292 437.535 140.568 437.079 140.764C437.617 140.914 438.041 141.201 438.351 141.625C438.665 142.044 438.822 142.546 438.822 143.129C438.822 144.022 438.533 144.724 437.954 145.234C437.375 145.745 436.557 146 435.5 146H432.048ZM433.36 141.345V144.927H435.527C436.138 144.927 436.619 144.77 436.97 144.455C437.325 144.136 437.503 143.699 437.503 143.143C437.503 141.944 436.851 141.345 435.548 141.345H433.36ZM433.36 140.292H435.343C435.917 140.292 436.375 140.148 436.717 139.861C437.063 139.574 437.236 139.185 437.236 138.692C437.236 138.146 437.077 137.749 436.758 137.503C436.439 137.252 435.953 137.127 435.302 137.127H433.36V140.292ZM445.139 146C445.066 145.854 445.007 145.594 444.961 145.221C444.373 145.831 443.671 146.137 442.855 146.137C442.126 146.137 441.527 145.932 441.058 145.521C440.593 145.107 440.36 144.583 440.36 143.949C440.36 143.179 440.652 142.582 441.235 142.158C441.823 141.73 442.648 141.516 443.71 141.516H444.94V140.935C444.94 140.493 444.808 140.142 444.544 139.882C444.28 139.618 443.89 139.485 443.375 139.485C442.924 139.485 442.546 139.599 442.24 139.827C441.935 140.055 441.782 140.331 441.782 140.654H440.511C440.511 140.285 440.641 139.93 440.9 139.588C441.165 139.242 441.52 138.968 441.967 138.768C442.418 138.567 442.912 138.467 443.45 138.467C444.302 138.467 444.97 138.681 445.453 139.109C445.936 139.533 446.187 140.119 446.205 140.866V144.271C446.205 144.95 446.292 145.49 446.465 145.891V146H445.139ZM443.04 145.036C443.437 145.036 443.812 144.934 444.168 144.729C444.523 144.523 444.781 144.257 444.94 143.929V142.411H443.949C442.4 142.411 441.625 142.865 441.625 143.771C441.625 144.168 441.757 144.478 442.021 144.701C442.286 144.924 442.625 145.036 443.04 145.036ZM451.154 145.104C451.605 145.104 452 144.968 452.337 144.694C452.674 144.421 452.861 144.079 452.897 143.669H454.094C454.071 144.093 453.925 144.496 453.656 144.879C453.387 145.262 453.027 145.567 452.576 145.795C452.13 146.023 451.656 146.137 451.154 146.137C450.147 146.137 449.345 145.802 448.748 145.132C448.156 144.457 447.859 143.537 447.859 142.37V142.158C447.859 141.438 447.992 140.798 448.256 140.237C448.52 139.677 448.898 139.242 449.391 138.932C449.887 138.622 450.473 138.467 451.147 138.467C451.977 138.467 452.665 138.715 453.212 139.212C453.763 139.709 454.057 140.354 454.094 141.146H452.897C452.861 140.668 452.679 140.276 452.351 139.971C452.027 139.661 451.626 139.506 451.147 139.506C450.505 139.506 450.006 139.738 449.65 140.203C449.299 140.663 449.124 141.331 449.124 142.206V142.445C449.124 143.298 449.299 143.954 449.65 144.414C450.001 144.874 450.503 145.104 451.154 145.104ZM457.58 142.575L456.787 143.402V146H455.522V135.5H456.787V141.851L457.464 141.037L459.768 138.604H461.306L458.428 141.693L461.641 146H460.157L457.58 142.575ZM465.243 142.288H461.907V141.256H465.243V142.288ZM472.305 141.399H467.991V144.927H473.002V146H466.679V136.047H472.934V137.127H467.991V140.326H472.305V141.399ZM475.634 138.604L475.675 139.533C476.24 138.822 476.978 138.467 477.89 138.467C479.453 138.467 480.241 139.349 480.255 141.112V146H478.99V141.105C478.986 140.572 478.863 140.178 478.621 139.923C478.384 139.668 478.013 139.54 477.507 139.54C477.097 139.54 476.737 139.649 476.427 139.868C476.117 140.087 475.875 140.374 475.702 140.729V146H474.438V138.604H475.634ZM481.854 142.24C481.854 141.105 482.123 140.194 482.661 139.506C483.199 138.813 483.903 138.467 484.773 138.467C485.639 138.467 486.325 138.763 486.831 139.355V135.5H488.096V146H486.934L486.872 145.207C486.366 145.827 485.662 146.137 484.76 146.137C483.903 146.137 483.203 145.786 482.661 145.084C482.123 144.382 481.854 143.466 481.854 142.336V142.24ZM483.119 142.384C483.119 143.222 483.292 143.879 483.639 144.353C483.985 144.826 484.464 145.063 485.074 145.063C485.876 145.063 486.462 144.703 486.831 143.983V140.586C486.453 139.889 485.872 139.54 485.088 139.54C484.468 139.54 483.985 139.779 483.639 140.258C483.292 140.736 483.119 141.445 483.119 142.384Z" fill="black"/>
</svg>
