<svg width="131" height="390" viewBox="0 0 131 390" fill="none" xmlns="http://www.w3.org/2000/svg">
<path d="M39.9999 105L39.9999 135M39.9999 135L45 130.588M39.9999 135L35 130.588" stroke="#BEBEBE" stroke-width="2" stroke-linecap="round"/>
<circle cx="40" cy="330" r="29.5" stroke="#CACACA"/>
<circle cx="40" cy="330" r="9.5" stroke="#43BAD6"/>
<path d="M30.6484 381.842C30.5254 382.895 30.1357 383.708 29.4795 384.282C28.8278 384.852 27.9596 385.137 26.875 385.137C25.6992 385.137 24.7559 384.715 24.0449 383.872C23.3385 383.029 22.9854 381.901 22.9854 380.488V379.531C22.9854 378.606 23.1494 377.793 23.4775 377.091C23.8102 376.389 24.2796 375.851 24.8857 375.478C25.4919 375.099 26.1937 374.91 26.9912 374.91C28.0485 374.91 28.8962 375.206 29.5342 375.799C30.1722 376.387 30.5436 377.202 30.6484 378.246H29.3291C29.2152 377.453 28.9668 376.879 28.584 376.523C28.2057 376.168 27.6748 375.99 26.9912 375.99C26.1527 375.99 25.4941 376.3 25.0156 376.92C24.5417 377.54 24.3047 378.422 24.3047 379.565V380.529C24.3047 381.609 24.5303 382.468 24.9814 383.106C25.4326 383.744 26.0638 384.063 26.875 384.063C27.6042 384.063 28.1624 383.899 28.5498 383.571C28.9417 383.239 29.2015 382.662 29.3291 381.842H30.6484ZM33.6221 385H32.3574V374.5H33.6221V385ZM37.0264 385H35.7617V377.604H37.0264V385ZM35.6592 375.642C35.6592 375.437 35.7207 375.263 35.8438 375.122C35.9714 374.981 36.1582 374.91 36.4043 374.91C36.6504 374.91 36.8372 374.981 36.9648 375.122C37.0924 375.263 37.1562 375.437 37.1562 375.642C37.1562 375.847 37.0924 376.018 36.9648 376.154C36.8372 376.291 36.6504 376.359 36.4043 376.359C36.1582 376.359 35.9714 376.291 35.8438 376.154C35.7207 376.018 35.6592 375.847 35.6592 375.642ZM42.126 385.137C41.1234 385.137 40.3076 384.809 39.6787 384.152C39.0498 383.492 38.7354 382.61 38.7354 381.507V381.274C38.7354 380.541 38.8743 379.887 39.1523 379.312C39.4349 378.734 39.8268 378.283 40.3281 377.959C40.834 377.631 41.3809 377.467 41.9688 377.467C42.9303 377.467 43.6777 377.784 44.2109 378.417C44.7441 379.05 45.0107 379.957 45.0107 381.138V381.664H40C40.0182 382.393 40.2301 382.983 40.6357 383.435C41.0459 383.881 41.5654 384.104 42.1943 384.104C42.641 384.104 43.0192 384.013 43.3291 383.831C43.639 383.649 43.9102 383.407 44.1426 383.106L44.915 383.708C44.2952 384.66 43.3656 385.137 42.126 385.137ZM41.9688 378.506C41.4583 378.506 41.0299 378.693 40.6836 379.066C40.3372 379.436 40.123 379.955 40.041 380.625H43.7461V380.529C43.7096 379.887 43.5365 379.39 43.2266 379.039C42.9167 378.684 42.4974 378.506 41.9688 378.506ZM47.6768 377.604L47.7178 378.533C48.2829 377.822 49.0212 377.467 49.9326 377.467C51.4958 377.467 52.2842 378.349 52.2979 380.112V385H51.0332V380.105C51.0286 379.572 50.9056 379.178 50.6641 378.923C50.4271 378.668 50.0557 378.54 49.5498 378.54C49.1396 378.54 48.7796 378.649 48.4697 378.868C48.1598 379.087 47.9183 379.374 47.7451 379.729V385H46.4805V377.604H47.6768ZM55.9209 375.812V377.604H57.3018V378.581H55.9209V383.168C55.9209 383.464 55.9824 383.688 56.1055 383.838C56.2285 383.984 56.4382 384.057 56.7344 384.057C56.8802 384.057 57.0807 384.029 57.3359 383.975V385C57.0033 385.091 56.6797 385.137 56.3652 385.137C55.8001 385.137 55.374 384.966 55.0869 384.624C54.7998 384.282 54.6562 383.797 54.6562 383.168V378.581H53.3096V377.604H54.6562V375.812H55.9209Z" fill="black"/>
<circle cx="40" cy="30" r="29.5" stroke="#CACACA"/>
<circle cx="40" cy="30" r="10" fill="#43BAD6"/>
<path d="M15.2471 75.0469L18.501 83.168L21.7549 75.0469H23.457V85H22.1445V81.124L22.2676 76.9404L19 85H17.9951L14.7344 76.9609L14.8643 81.124V85H13.5518V75.0469H15.2471ZM30.1426 85C30.0697 84.8542 30.0104 84.5944 29.9648 84.2207C29.377 84.8314 28.6751 85.1367 27.8594 85.1367C27.1302 85.1367 26.5309 84.9316 26.0615 84.5215C25.5967 84.1068 25.3643 83.5827 25.3643 82.9492C25.3643 82.179 25.6559 81.582 26.2393 81.1582C26.8271 80.7298 27.652 80.5156 28.7139 80.5156H29.9443V79.9346C29.9443 79.4925 29.8122 79.1416 29.5479 78.8818C29.2835 78.6175 28.8939 78.4854 28.3789 78.4854C27.9277 78.4854 27.5495 78.5993 27.2441 78.8271C26.9388 79.055 26.7861 79.3307 26.7861 79.6543H25.5146C25.5146 79.2852 25.6445 78.9297 25.9043 78.5879C26.1686 78.2415 26.5241 77.9681 26.9707 77.7676C27.4219 77.5671 27.9163 77.4668 28.4541 77.4668C29.3063 77.4668 29.974 77.681 30.457 78.1094C30.9401 78.5332 31.1908 79.1188 31.209 79.8662V83.2705C31.209 83.9495 31.2956 84.4896 31.4688 84.8906V85H30.1426ZM28.0439 84.0361C28.4404 84.0361 28.8164 83.9336 29.1719 83.7285C29.5273 83.5234 29.7848 83.2568 29.9443 82.9287V81.4111H28.9531C27.4036 81.4111 26.6289 81.8646 26.6289 82.7715C26.6289 83.168 26.7611 83.4779 27.0254 83.7012C27.2897 83.9245 27.6292 84.0361 28.0439 84.0361ZM34.3877 77.6035L34.4287 78.5332C34.9938 77.8223 35.7321 77.4668 36.6436 77.4668C38.2067 77.4668 38.9951 78.3486 39.0088 80.1123V85H37.7441V80.1055C37.7396 79.5723 37.6165 79.1781 37.375 78.9229C37.138 78.6676 36.7666 78.54 36.2607 78.54C35.8506 78.54 35.4906 78.6494 35.1807 78.8682C34.8708 79.0869 34.6292 79.374 34.4561 79.7295V85H33.1914V77.6035H34.3877ZM45.4824 85C45.4095 84.8542 45.3503 84.5944 45.3047 84.2207C44.7168 84.8314 44.015 85.1367 43.1992 85.1367C42.4701 85.1367 41.8708 84.9316 41.4014 84.5215C40.9365 84.1068 40.7041 83.5827 40.7041 82.9492C40.7041 82.179 40.9958 81.582 41.5791 81.1582C42.167 80.7298 42.9919 80.5156 44.0537 80.5156H45.2842V79.9346C45.2842 79.4925 45.152 79.1416 44.8877 78.8818C44.6234 78.6175 44.2337 78.4854 43.7188 78.4854C43.2676 78.4854 42.8893 78.5993 42.584 78.8271C42.2786 79.055 42.126 79.3307 42.126 79.6543H40.8545C40.8545 79.2852 40.9844 78.9297 41.2441 78.5879C41.5085 78.2415 41.8639 77.9681 42.3105 77.7676C42.7617 77.5671 43.2562 77.4668 43.7939 77.4668C44.6462 77.4668 45.3138 77.681 45.7969 78.1094C46.2799 78.5332 46.5306 79.1188 46.5488 79.8662V83.2705C46.5488 83.9495 46.6354 84.4896 46.8086 84.8906V85H45.4824ZM43.3838 84.0361C43.7803 84.0361 44.1562 83.9336 44.5117 83.7285C44.8672 83.5234 45.1247 83.2568 45.2842 82.9287V81.4111H44.293C42.7435 81.4111 41.9688 81.8646 41.9688 82.7715C41.9688 83.168 42.1009 83.4779 42.3652 83.7012C42.6296 83.9245 42.9691 84.0361 43.3838 84.0361ZM48.2305 81.2402C48.2305 80.0872 48.4971 79.1712 49.0303 78.4922C49.5635 77.8086 50.2699 77.4668 51.1494 77.4668C52.0518 77.4668 52.7559 77.7858 53.2617 78.4238L53.3232 77.6035H54.4785V84.8223C54.4785 85.7793 54.1937 86.5335 53.624 87.085C53.0589 87.6364 52.2979 87.9121 51.3408 87.9121C50.8076 87.9121 50.2858 87.7982 49.7754 87.5703C49.265 87.3424 48.8753 87.0303 48.6064 86.6338L49.2627 85.875C49.805 86.5449 50.4681 86.8799 51.252 86.8799C51.8672 86.8799 52.3457 86.7067 52.6875 86.3604C53.0339 86.014 53.207 85.5264 53.207 84.8975V84.2617C52.7012 84.8451 52.0107 85.1367 51.1357 85.1367C50.2699 85.1367 49.568 84.7881 49.0303 84.0908C48.4971 83.3936 48.2305 82.4434 48.2305 81.2402ZM49.502 81.3838C49.502 82.2178 49.6729 82.874 50.0146 83.3525C50.3564 83.8265 50.835 84.0635 51.4502 84.0635C52.2477 84.0635 52.8333 83.7012 53.207 82.9766V79.5996C52.8197 78.8932 52.2386 78.54 51.4639 78.54C50.8486 78.54 50.3678 78.7793 50.0215 79.2578C49.6751 79.7363 49.502 80.445 49.502 81.3838ZM59.4619 85.1367C58.4593 85.1367 57.6436 84.8086 57.0146 84.1523C56.3857 83.4915 56.0713 82.6097 56.0713 81.5068V81.2744C56.0713 80.5407 56.2103 79.8867 56.4883 79.3125C56.7708 78.7337 57.1628 78.2826 57.6641 77.959C58.1699 77.6309 58.7168 77.4668 59.3047 77.4668C60.2663 77.4668 61.0137 77.7835 61.5469 78.417C62.0801 79.0505 62.3467 79.9574 62.3467 81.1377V81.6641H57.3359C57.3542 82.3932 57.5661 82.9834 57.9717 83.4346C58.3818 83.8812 58.9014 84.1045 59.5303 84.1045C59.9769 84.1045 60.3551 84.0133 60.665 83.8311C60.9749 83.6488 61.2461 83.4072 61.4785 83.1064L62.251 83.708C61.6312 84.6605 60.7015 85.1367 59.4619 85.1367ZM59.3047 78.5059C58.7943 78.5059 58.3659 78.6927 58.0195 79.0664C57.6732 79.4355 57.459 79.9551 57.377 80.625H61.082V80.5293C61.0456 79.8867 60.8724 79.39 60.5625 79.0391C60.2526 78.6836 59.8333 78.5059 59.3047 78.5059ZM67.3916 78.7383C67.2002 78.7064 66.9928 78.6904 66.7695 78.6904C65.9401 78.6904 65.3773 79.0436 65.0811 79.75V85H63.8164V77.6035H65.0469L65.0674 78.458C65.4821 77.7972 66.07 77.4668 66.8311 77.4668C67.0771 77.4668 67.264 77.4987 67.3916 77.5625V78.7383Z" fill="black"/>
<path d="M80 162C80 162 105 145.413 105 102C105 56.7251 80 42.0001 80 42.0001" stroke="#BEBEBE" stroke-width="2" stroke-linecap="round" stroke-dasharray="0.5 4"/>
<path d="M80 42.0001C80 42.0001 130 79.5634 130 175.462C130 275.473 80 308 80 308" stroke="#BEBEBE" stroke-width="2" stroke-linecap="round" stroke-dasharray="0.5 4"/>
<path d="M80 48.0001L80 42.0001L86 42.0001" stroke="#BEBEBE" stroke-width="2" stroke-linecap="round"/>
<path d="M86 308L80 308L80 302" stroke="#BEBEBE" stroke-width="2" stroke-linecap="round"/>
<circle opacity="0.2" cx="40" cy="180" r="30" fill="#43BAD6"/>
<circle cx="40" cy="180" r="10" fill="#BEBEBE"/>
<path d="M8.5 230.345C8.5 231.306 8.34733 232.136 8.04199 232.833C7.73665 233.526 7.30827 234.068 6.75684 234.46L8.53418 235.854L7.63867 236.682L5.54004 235.014C5.21191 235.096 4.86556 235.137 4.50098 235.137C3.71712 235.137 3.02214 234.945 2.41602 234.562C1.8099 234.175 1.33822 233.626 1.00098 232.915C0.668294 232.2 0.497396 231.372 0.488281 230.434V229.716C0.488281 228.759 0.654622 227.913 0.987305 227.18C1.31999 226.446 1.78939 225.885 2.39551 225.498C3.00618 225.106 3.70345 224.91 4.4873 224.91C5.28939 224.91 5.99349 225.104 6.59961 225.491C7.21029 225.879 7.67969 226.437 8.00781 227.166C8.33594 227.891 8.5 228.738 8.5 229.709V230.345ZM7.1875 229.702C7.1875 228.531 6.9528 227.629 6.4834 226.995C6.01855 226.357 5.35319 226.038 4.4873 226.038C3.66243 226.038 3.01074 226.355 2.53223 226.988C2.05827 227.617 1.81445 228.492 1.80078 229.613V230.345C1.80078 231.484 2.03776 232.382 2.51172 233.038C2.99023 233.694 3.65332 234.022 4.50098 234.022C5.34863 234.022 6.00488 233.715 6.46973 233.1C6.93457 232.48 7.17383 231.593 7.1875 230.44V229.702ZM16.0195 232.402H11.8496L10.9131 235H9.55957L13.3604 225.047H14.5088L18.3164 235H16.9697L16.0195 232.402ZM12.2461 231.322H15.6299L13.9346 226.667L12.2461 231.322ZM28.7549 230.399H24.4414V233.927H29.4521V235H23.1289V225.047H29.3838V226.127H24.4414V229.326H28.7549V230.399ZM32.084 227.604L32.125 228.533C32.6901 227.822 33.4284 227.467 34.3398 227.467C35.903 227.467 36.6914 228.349 36.7051 230.112V235H35.4404V230.105C35.4359 229.572 35.3128 229.178 35.0713 228.923C34.8343 228.668 34.4629 228.54 33.957 228.54C33.5469 228.54 33.1868 228.649 32.877 228.868C32.5671 229.087 32.3255 229.374 32.1523 229.729V235H30.8877V227.604H32.084ZM38.3115 231.24C38.3115 230.087 38.5781 229.171 39.1113 228.492C39.6445 227.809 40.3509 227.467 41.2305 227.467C42.1328 227.467 42.8369 227.786 43.3428 228.424L43.4043 227.604H44.5596V234.822C44.5596 235.779 44.2747 236.534 43.7051 237.085C43.14 237.636 42.3789 237.912 41.4219 237.912C40.8887 237.912 40.3669 237.798 39.8564 237.57C39.346 237.342 38.9564 237.03 38.6875 236.634L39.3438 235.875C39.8861 236.545 40.5492 236.88 41.333 236.88C41.9482 236.88 42.4268 236.707 42.7686 236.36C43.1149 236.014 43.2881 235.526 43.2881 234.897V234.262C42.7822 234.845 42.0918 235.137 41.2168 235.137C40.3509 235.137 39.6491 234.788 39.1113 234.091C38.5781 233.394 38.3115 232.443 38.3115 231.24ZM39.583 231.384C39.583 232.218 39.7539 232.874 40.0957 233.353C40.4375 233.826 40.916 234.063 41.5312 234.063C42.3288 234.063 42.9144 233.701 43.2881 232.977V229.6C42.9007 228.893 42.3197 228.54 41.5449 228.54C40.9297 228.54 40.4489 228.779 40.1025 229.258C39.7562 229.736 39.583 230.445 39.583 231.384ZM49.543 235.137C48.5404 235.137 47.7246 234.809 47.0957 234.152C46.4668 233.492 46.1523 232.61 46.1523 231.507V231.274C46.1523 230.541 46.2913 229.887 46.5693 229.312C46.8519 228.734 47.2438 228.283 47.7451 227.959C48.251 227.631 48.7979 227.467 49.3857 227.467C50.3473 227.467 51.0947 227.784 51.6279 228.417C52.1611 229.05 52.4277 229.957 52.4277 231.138V231.664H47.417C47.4352 232.393 47.6471 232.983 48.0527 233.435C48.4629 233.881 48.9824 234.104 49.6113 234.104C50.0579 234.104 50.4362 234.013 50.7461 233.831C51.056 233.649 51.3271 233.407 51.5596 233.106L52.332 233.708C51.7122 234.66 50.7826 235.137 49.543 235.137ZM49.3857 228.506C48.8753 228.506 48.4469 228.693 48.1006 229.066C47.7542 229.436 47.54 229.955 47.458 230.625H51.1631V230.529C51.1266 229.887 50.9535 229.39 50.6436 229.039C50.3337 228.684 49.9144 228.506 49.3857 228.506ZM55.0938 227.604L55.1348 228.533C55.6999 227.822 56.4382 227.467 57.3496 227.467C58.9128 227.467 59.7012 228.349 59.7148 230.112V235H58.4502V230.105C58.4456 229.572 58.3226 229.178 58.0811 228.923C57.8441 228.668 57.4727 228.54 56.9668 228.54C56.5566 228.54 56.1966 228.649 55.8867 228.868C55.5768 229.087 55.3353 229.374 55.1621 229.729V235H53.8975V227.604H55.0938ZM64.6914 235.137C63.6888 235.137 62.873 234.809 62.2441 234.152C61.6152 233.492 61.3008 232.61 61.3008 231.507V231.274C61.3008 230.541 61.4398 229.887 61.7178 229.312C62.0003 228.734 62.3923 228.283 62.8936 227.959C63.3994 227.631 63.9463 227.467 64.5342 227.467C65.4958 227.467 66.2432 227.784 66.7764 228.417C67.3096 229.05 67.5762 229.957 67.5762 231.138V231.664H62.5654C62.5837 232.393 62.7956 232.983 63.2012 233.435C63.6113 233.881 64.1309 234.104 64.7598 234.104C65.2064 234.104 65.5846 234.013 65.8945 233.831C66.2044 233.649 66.4756 233.407 66.708 233.106L67.4805 233.708C66.8607 234.66 65.931 235.137 64.6914 235.137ZM64.5342 228.506C64.0238 228.506 63.5954 228.693 63.249 229.066C62.9027 229.436 62.6885 229.955 62.6064 230.625H66.3115V230.529C66.2751 229.887 66.1019 229.39 65.792 229.039C65.4821 228.684 65.0628 228.506 64.5342 228.506ZM72.1152 235.137C71.1126 235.137 70.2969 234.809 69.668 234.152C69.0391 233.492 68.7246 232.61 68.7246 231.507V231.274C68.7246 230.541 68.8636 229.887 69.1416 229.312C69.4242 228.734 69.8161 228.283 70.3174 227.959C70.8232 227.631 71.3701 227.467 71.958 227.467C72.9196 227.467 73.667 227.784 74.2002 228.417C74.7334 229.05 75 229.957 75 231.138V231.664H69.9893C70.0075 232.393 70.2194 232.983 70.625 233.435C71.0352 233.881 71.5547 234.104 72.1836 234.104C72.6302 234.104 73.0085 234.013 73.3184 233.831C73.6283 233.649 73.8994 233.407 74.1318 233.106L74.9043 233.708C74.2845 234.66 73.3548 235.137 72.1152 235.137ZM71.958 228.506C71.4476 228.506 71.0192 228.693 70.6729 229.066C70.3265 229.436 70.1123 229.955 70.0303 230.625H73.7354V230.529C73.6989 229.887 73.5257 229.39 73.2158 229.039C72.9059 228.684 72.4867 228.506 71.958 228.506ZM80.0449 228.738C79.8535 228.706 79.6462 228.69 79.4229 228.69C78.5934 228.69 78.0306 229.044 77.7344 229.75V235H76.4697V227.604H77.7002L77.7207 228.458C78.1354 227.797 78.7233 227.467 79.4844 227.467C79.7305 227.467 79.9173 227.499 80.0449 227.562V228.738Z" fill="black"/>
</svg>
