<svg width="360" height="151" viewBox="0 0 360 151" fill="none" xmlns="http://www.w3.org/2000/svg">
<path d="M95 91.0001H125M125 91.0001L120.588 86M125 91.0001L120.588 96" stroke="#BEBEBE" stroke-width="2" stroke-linecap="round"/>
<path d="M167 51C167 51 150.413 26 107 26C61.725 26 47 51 47 51" stroke="#BEBEBE" stroke-width="2" stroke-linecap="round" stroke-dasharray="0.5 4"/>
<circle cx="320" cy="91" r="29.5" stroke="#CACACA"/>
<circle cx="320" cy="91" r="9.5" stroke="#43BAD6"/>
<path d="M310.648 142.842C310.525 143.895 310.136 144.708 309.479 145.282C308.828 145.852 307.96 146.137 306.875 146.137C305.699 146.137 304.756 145.715 304.045 144.872C303.339 144.029 302.985 142.901 302.985 141.488V140.531C302.985 139.606 303.149 138.793 303.478 138.091C303.81 137.389 304.28 136.851 304.886 136.478C305.492 136.099 306.194 135.91 306.991 135.91C308.049 135.91 308.896 136.206 309.534 136.799C310.172 137.387 310.544 138.202 310.648 139.246H309.329C309.215 138.453 308.967 137.879 308.584 137.523C308.206 137.168 307.675 136.99 306.991 136.99C306.153 136.99 305.494 137.3 305.016 137.92C304.542 138.54 304.305 139.422 304.305 140.565V141.529C304.305 142.609 304.53 143.468 304.981 144.106C305.433 144.744 306.064 145.063 306.875 145.063C307.604 145.063 308.162 144.899 308.55 144.571C308.942 144.239 309.201 143.662 309.329 142.842H310.648ZM313.622 146H312.357V135.5H313.622V146ZM317.026 146H315.762V138.604H317.026V146ZM315.659 136.642C315.659 136.437 315.721 136.263 315.844 136.122C315.971 135.981 316.158 135.91 316.404 135.91C316.65 135.91 316.837 135.981 316.965 136.122C317.092 136.263 317.156 136.437 317.156 136.642C317.156 136.847 317.092 137.018 316.965 137.154C316.837 137.291 316.65 137.359 316.404 137.359C316.158 137.359 315.971 137.291 315.844 137.154C315.721 137.018 315.659 136.847 315.659 136.642ZM322.126 146.137C321.123 146.137 320.308 145.809 319.679 145.152C319.05 144.492 318.735 143.61 318.735 142.507V142.274C318.735 141.541 318.874 140.887 319.152 140.312C319.435 139.734 319.827 139.283 320.328 138.959C320.834 138.631 321.381 138.467 321.969 138.467C322.93 138.467 323.678 138.784 324.211 139.417C324.744 140.05 325.011 140.957 325.011 142.138V142.664H320C320.018 143.393 320.23 143.983 320.636 144.435C321.046 144.881 321.565 145.104 322.194 145.104C322.641 145.104 323.019 145.013 323.329 144.831C323.639 144.649 323.91 144.407 324.143 144.106L324.915 144.708C324.295 145.66 323.366 146.137 322.126 146.137ZM321.969 139.506C321.458 139.506 321.03 139.693 320.684 140.066C320.337 140.436 320.123 140.955 320.041 141.625H323.746V141.529C323.71 140.887 323.536 140.39 323.227 140.039C322.917 139.684 322.497 139.506 321.969 139.506ZM327.677 138.604L327.718 139.533C328.283 138.822 329.021 138.467 329.933 138.467C331.496 138.467 332.284 139.349 332.298 141.112V146H331.033V141.105C331.029 140.572 330.906 140.178 330.664 139.923C330.427 139.668 330.056 139.54 329.55 139.54C329.14 139.54 328.78 139.649 328.47 139.868C328.16 140.087 327.918 140.374 327.745 140.729V146H326.48V138.604H327.677ZM335.921 136.812V138.604H337.302V139.581H335.921V144.168C335.921 144.464 335.982 144.688 336.105 144.838C336.229 144.984 336.438 145.057 336.734 145.057C336.88 145.057 337.081 145.029 337.336 144.975V146C337.003 146.091 336.68 146.137 336.365 146.137C335.8 146.137 335.374 145.966 335.087 145.624C334.8 145.282 334.656 144.797 334.656 144.168V139.581H333.31V138.604H334.656V136.812H335.921Z" fill="black"/>
<circle cx="40" cy="91" r="29.5" stroke="#CACACA"/>
<circle cx="40" cy="91" r="10" fill="#43BAD6"/>
<path d="M15.2471 136.047L18.501 144.168L21.7549 136.047H23.457V146H22.1445V142.124L22.2676 137.94L19 146H17.9951L14.7344 137.961L14.8643 142.124V146H13.5518V136.047H15.2471ZM30.1426 146C30.0697 145.854 30.0104 145.594 29.9648 145.221C29.377 145.831 28.6751 146.137 27.8594 146.137C27.1302 146.137 26.5309 145.932 26.0615 145.521C25.5967 145.107 25.3643 144.583 25.3643 143.949C25.3643 143.179 25.6559 142.582 26.2393 142.158C26.8271 141.73 27.652 141.516 28.7139 141.516H29.9443V140.935C29.9443 140.493 29.8122 140.142 29.5479 139.882C29.2835 139.618 28.8939 139.485 28.3789 139.485C27.9277 139.485 27.5495 139.599 27.2441 139.827C26.9388 140.055 26.7861 140.331 26.7861 140.654H25.5146C25.5146 140.285 25.6445 139.93 25.9043 139.588C26.1686 139.242 26.5241 138.968 26.9707 138.768C27.4219 138.567 27.9163 138.467 28.4541 138.467C29.3063 138.467 29.974 138.681 30.457 139.109C30.9401 139.533 31.1908 140.119 31.209 140.866V144.271C31.209 144.95 31.2956 145.49 31.4688 145.891V146H30.1426ZM28.0439 145.036C28.4404 145.036 28.8164 144.934 29.1719 144.729C29.5273 144.523 29.7848 144.257 29.9443 143.929V142.411H28.9531C27.4036 142.411 26.6289 142.865 26.6289 143.771C26.6289 144.168 26.7611 144.478 27.0254 144.701C27.2897 144.924 27.6292 145.036 28.0439 145.036ZM34.3877 138.604L34.4287 139.533C34.9938 138.822 35.7321 138.467 36.6436 138.467C38.2067 138.467 38.9951 139.349 39.0088 141.112V146H37.7441V141.105C37.7396 140.572 37.6165 140.178 37.375 139.923C37.138 139.668 36.7666 139.54 36.2607 139.54C35.8506 139.54 35.4906 139.649 35.1807 139.868C34.8708 140.087 34.6292 140.374 34.4561 140.729V146H33.1914V138.604H34.3877ZM45.4824 146C45.4095 145.854 45.3503 145.594 45.3047 145.221C44.7168 145.831 44.015 146.137 43.1992 146.137C42.4701 146.137 41.8708 145.932 41.4014 145.521C40.9365 145.107 40.7041 144.583 40.7041 143.949C40.7041 143.179 40.9958 142.582 41.5791 142.158C42.167 141.73 42.9919 141.516 44.0537 141.516H45.2842V140.935C45.2842 140.493 45.152 140.142 44.8877 139.882C44.6234 139.618 44.2337 139.485 43.7188 139.485C43.2676 139.485 42.8893 139.599 42.584 139.827C42.2786 140.055 42.126 140.331 42.126 140.654H40.8545C40.8545 140.285 40.9844 139.93 41.2441 139.588C41.5085 139.242 41.8639 138.968 42.3105 138.768C42.7617 138.567 43.2562 138.467 43.7939 138.467C44.6462 138.467 45.3138 138.681 45.7969 139.109C46.2799 139.533 46.5306 140.119 46.5488 140.866V144.271C46.5488 144.95 46.6354 145.49 46.8086 145.891V146H45.4824ZM43.3838 145.036C43.7803 145.036 44.1562 144.934 44.5117 144.729C44.8672 144.523 45.1247 144.257 45.2842 143.929V142.411H44.293C42.7435 142.411 41.9688 142.865 41.9688 143.771C41.9688 144.168 42.1009 144.478 42.3652 144.701C42.6296 144.924 42.9691 145.036 43.3838 145.036ZM48.2305 142.24C48.2305 141.087 48.4971 140.171 49.0303 139.492C49.5635 138.809 50.2699 138.467 51.1494 138.467C52.0518 138.467 52.7559 138.786 53.2617 139.424L53.3232 138.604H54.4785V145.822C54.4785 146.779 54.1937 147.534 53.624 148.085C53.0589 148.636 52.2979 148.912 51.3408 148.912C50.8076 148.912 50.2858 148.798 49.7754 148.57C49.265 148.342 48.8753 148.03 48.6064 147.634L49.2627 146.875C49.805 147.545 50.4681 147.88 51.252 147.88C51.8672 147.88 52.3457 147.707 52.6875 147.36C53.0339 147.014 53.207 146.526 53.207 145.897V145.262C52.7012 145.845 52.0107 146.137 51.1357 146.137C50.2699 146.137 49.568 145.788 49.0303 145.091C48.4971 144.394 48.2305 143.443 48.2305 142.24ZM49.502 142.384C49.502 143.218 49.6729 143.874 50.0146 144.353C50.3564 144.826 50.835 145.063 51.4502 145.063C52.2477 145.063 52.8333 144.701 53.207 143.977V140.6C52.8197 139.893 52.2386 139.54 51.4639 139.54C50.8486 139.54 50.3678 139.779 50.0215 140.258C49.6751 140.736 49.502 141.445 49.502 142.384ZM59.4619 146.137C58.4593 146.137 57.6436 145.809 57.0146 145.152C56.3857 144.492 56.0713 143.61 56.0713 142.507V142.274C56.0713 141.541 56.2103 140.887 56.4883 140.312C56.7708 139.734 57.1628 139.283 57.6641 138.959C58.1699 138.631 58.7168 138.467 59.3047 138.467C60.2663 138.467 61.0137 138.784 61.5469 139.417C62.0801 140.05 62.3467 140.957 62.3467 142.138V142.664H57.3359C57.3542 143.393 57.5661 143.983 57.9717 144.435C58.3818 144.881 58.9014 145.104 59.5303 145.104C59.9769 145.104 60.3551 145.013 60.665 144.831C60.9749 144.649 61.2461 144.407 61.4785 144.106L62.251 144.708C61.6312 145.66 60.7015 146.137 59.4619 146.137ZM59.3047 139.506C58.7943 139.506 58.3659 139.693 58.0195 140.066C57.6732 140.436 57.459 140.955 57.377 141.625H61.082V141.529C61.0456 140.887 60.8724 140.39 60.5625 140.039C60.2526 139.684 59.8333 139.506 59.3047 139.506ZM67.3916 139.738C67.2002 139.706 66.9928 139.69 66.7695 139.69C65.9401 139.69 65.3773 140.044 65.0811 140.75V146H63.8164V138.604H65.0469L65.0674 139.458C65.4821 138.797 66.07 138.467 66.8311 138.467C67.0771 138.467 67.264 138.499 67.3916 138.562V139.738Z" fill="black"/>
<path d="M47 51C47 51 84.5632 1 180.462 1C280.473 1 313 51 313 51" stroke="#BEBEBE" stroke-width="2" stroke-linecap="round" stroke-dasharray="0.5 4"/>
<path d="M53 51L47 51L47 45" stroke="#BEBEBE" stroke-width="2" stroke-linecap="round"/>
<path d="M313 45V51H307" stroke="#BEBEBE" stroke-width="2" stroke-linecap="round"/>
<circle opacity="0.2" cx="180" cy="91" r="30" fill="#43BAD6"/>
<circle cx="180" cy="91" r="10" fill="#BEBEBE"/>
<path d="M153.661 146V136.047H156.471C157.337 136.047 158.102 136.238 158.768 136.621C159.433 137.004 159.946 137.549 160.306 138.255C160.67 138.961 160.855 139.772 160.859 140.688V141.324C160.859 142.263 160.677 143.086 160.312 143.792C159.952 144.498 159.435 145.041 158.761 145.419C158.091 145.797 157.309 145.991 156.416 146H153.661ZM154.974 137.127V144.927H156.354C157.366 144.927 158.152 144.612 158.713 143.983C159.278 143.354 159.561 142.459 159.561 141.297V140.716C159.561 139.586 159.294 138.708 158.761 138.084C158.232 137.455 157.48 137.136 156.505 137.127H154.974ZM165.72 146.137C164.717 146.137 163.901 145.809 163.272 145.152C162.644 144.492 162.329 143.61 162.329 142.507V142.274C162.329 141.541 162.468 140.887 162.746 140.312C163.029 139.734 163.421 139.283 163.922 138.959C164.428 138.631 164.975 138.467 165.562 138.467C166.524 138.467 167.271 138.784 167.805 139.417C168.338 140.05 168.604 140.957 168.604 142.138V142.664H163.594C163.612 143.393 163.824 143.983 164.229 144.435C164.64 144.881 165.159 145.104 165.788 145.104C166.235 145.104 166.613 145.013 166.923 144.831C167.233 144.649 167.504 144.407 167.736 144.106L168.509 144.708C167.889 145.66 166.959 146.137 165.72 146.137ZM165.562 139.506C165.052 139.506 164.624 139.693 164.277 140.066C163.931 140.436 163.717 140.955 163.635 141.625H167.34V141.529C167.303 140.887 167.13 140.39 166.82 140.039C166.51 139.684 166.091 139.506 165.562 139.506ZM174.381 144.038C174.381 143.696 174.251 143.432 173.991 143.245C173.736 143.054 173.287 142.89 172.645 142.753C172.007 142.616 171.498 142.452 171.12 142.261C170.746 142.069 170.468 141.841 170.286 141.577C170.108 141.313 170.02 140.998 170.02 140.634C170.02 140.028 170.275 139.515 170.785 139.096C171.3 138.676 171.956 138.467 172.754 138.467C173.592 138.467 174.271 138.683 174.791 139.116C175.315 139.549 175.577 140.103 175.577 140.777H174.306C174.306 140.431 174.158 140.132 173.861 139.882C173.57 139.631 173.201 139.506 172.754 139.506C172.294 139.506 171.934 139.606 171.674 139.807C171.414 140.007 171.284 140.269 171.284 140.593C171.284 140.898 171.405 141.128 171.646 141.283C171.888 141.438 172.323 141.586 172.952 141.728C173.586 141.869 174.098 142.037 174.49 142.233C174.882 142.429 175.172 142.666 175.358 142.944C175.55 143.218 175.646 143.553 175.646 143.949C175.646 144.61 175.381 145.141 174.853 145.542C174.324 145.938 173.638 146.137 172.795 146.137C172.202 146.137 171.678 146.032 171.223 145.822C170.767 145.613 170.409 145.321 170.149 144.947C169.894 144.569 169.767 144.161 169.767 143.724H171.031C171.054 144.147 171.223 144.485 171.537 144.735C171.856 144.981 172.275 145.104 172.795 145.104C173.273 145.104 173.656 145.009 173.943 144.817C174.235 144.621 174.381 144.362 174.381 144.038ZM178.667 146H177.402V138.604H178.667V146ZM177.3 136.642C177.3 136.437 177.361 136.263 177.484 136.122C177.612 135.981 177.799 135.91 178.045 135.91C178.291 135.91 178.478 135.981 178.605 136.122C178.733 136.263 178.797 136.437 178.797 136.642C178.797 136.847 178.733 137.018 178.605 137.154C178.478 137.291 178.291 137.359 178.045 137.359C177.799 137.359 177.612 137.291 177.484 137.154C177.361 137.018 177.3 136.847 177.3 136.642ZM180.396 142.24C180.396 141.087 180.663 140.171 181.196 139.492C181.729 138.809 182.436 138.467 183.315 138.467C184.218 138.467 184.922 138.786 185.428 139.424L185.489 138.604H186.645V145.822C186.645 146.779 186.36 147.534 185.79 148.085C185.225 148.636 184.464 148.912 183.507 148.912C182.974 148.912 182.452 148.798 181.941 148.57C181.431 148.342 181.041 148.03 180.772 147.634L181.429 146.875C181.971 147.545 182.634 147.88 183.418 147.88C184.033 147.88 184.512 147.707 184.854 147.36C185.2 147.014 185.373 146.526 185.373 145.897V145.262C184.867 145.845 184.177 146.137 183.302 146.137C182.436 146.137 181.734 145.788 181.196 145.091C180.663 144.394 180.396 143.443 180.396 142.24ZM181.668 142.384C181.668 143.218 181.839 143.874 182.181 144.353C182.522 144.826 183.001 145.063 183.616 145.063C184.414 145.063 184.999 144.701 185.373 143.977V140.6C184.986 139.893 184.405 139.54 183.63 139.54C183.015 139.54 182.534 139.779 182.188 140.258C181.841 140.736 181.668 141.445 181.668 142.384ZM189.755 138.604L189.796 139.533C190.361 138.822 191.099 138.467 192.011 138.467C193.574 138.467 194.362 139.349 194.376 141.112V146H193.111V141.105C193.107 140.572 192.984 140.178 192.742 139.923C192.505 139.668 192.134 139.54 191.628 139.54C191.218 139.54 190.858 139.649 190.548 139.868C190.238 140.087 189.996 140.374 189.823 140.729V146H188.559V138.604H189.755ZM199.353 146.137C198.35 146.137 197.534 145.809 196.905 145.152C196.276 144.492 195.962 143.61 195.962 142.507V142.274C195.962 141.541 196.101 140.887 196.379 140.312C196.661 139.734 197.053 139.283 197.555 138.959C198.061 138.631 198.607 138.467 199.195 138.467C200.157 138.467 200.904 138.784 201.438 139.417C201.971 140.05 202.237 140.957 202.237 142.138V142.664H197.227C197.245 143.393 197.457 143.983 197.862 144.435C198.272 144.881 198.792 145.104 199.421 145.104C199.868 145.104 200.246 145.013 200.556 144.831C200.866 144.649 201.137 144.407 201.369 144.106L202.142 144.708C201.522 145.66 200.592 146.137 199.353 146.137ZM199.195 139.506C198.685 139.506 198.257 139.693 197.91 140.066C197.564 140.436 197.35 140.955 197.268 141.625H200.973V141.529C200.936 140.887 200.763 140.39 200.453 140.039C200.143 139.684 199.724 139.506 199.195 139.506ZM207.282 139.738C207.091 139.706 206.883 139.69 206.66 139.69C205.831 139.69 205.268 140.044 204.972 140.75V146H203.707V138.604H204.938L204.958 139.458C205.373 138.797 205.961 138.467 206.722 138.467C206.968 138.467 207.155 138.499 207.282 138.562V139.738Z" fill="black"/>
</svg>
