<svg width="172" height="528" viewBox="0 0 172 528" fill="none" xmlns="http://www.w3.org/2000/svg">
<circle cx="47" cy="471" r="29.5" stroke="#CACACA"/>
<circle cx="47" cy="471" r="9.5" stroke="#43BAD6"/>
<path d="M26.7393 519.529H25.5293V524H24.2168V514.047H25.5293V518.436H26.5547L30.0342 514.047H31.668L27.8672 518.873L31.9482 524H30.3418L26.7393 519.529ZM39.0166 516.604V524H37.7451V517.649H35.2295L35.0791 520.418C34.9971 521.689 34.7829 522.599 34.4365 523.146C34.0947 523.692 33.5501 523.977 32.8027 524H32.2969V522.886L32.6592 522.858C33.0693 522.813 33.3633 522.576 33.541 522.147C33.7188 521.719 33.8327 520.926 33.8828 519.769L34.0195 516.604H39.0166ZM45.832 516.604H47.0967V524H45.832V518.606L42.4209 524H41.1562V516.604H42.4209V522.004L45.832 516.604ZM52.1963 524.137C51.1937 524.137 50.3779 523.809 49.749 523.152C49.1201 522.492 48.8057 521.61 48.8057 520.507V520.274C48.8057 519.541 48.9447 518.887 49.2227 518.312C49.5052 517.734 49.8971 517.283 50.3984 516.959C50.9043 516.631 51.4512 516.467 52.0391 516.467C53.0007 516.467 53.748 516.784 54.2812 517.417C54.8145 518.05 55.0811 518.957 55.0811 520.138V520.664H50.0703C50.0885 521.393 50.3005 521.983 50.7061 522.435C51.1162 522.881 51.6357 523.104 52.2646 523.104C52.7113 523.104 53.0895 523.013 53.3994 522.831C53.7093 522.649 53.9805 522.407 54.2129 522.106L54.9854 522.708C54.3656 523.66 53.4359 524.137 52.1963 524.137ZM52.0391 517.506C51.5286 517.506 51.1003 517.693 50.7539 518.066C50.4076 518.436 50.1934 518.955 50.1113 519.625H53.8164V519.529C53.7799 518.887 53.6068 518.39 53.2969 518.039C52.987 517.684 52.5677 517.506 52.0391 517.506ZM62.5938 524H61.3291V520.842H57.9316V524H56.6602V516.604H57.9316V519.81H61.3291V516.604H62.5938V524ZM70.127 517.629H67.6455V524H66.3809V517.629H63.9473V516.604H70.127V517.629Z" fill="black"/>
<circle cx="47.5" cy="30" r="29.5" stroke="#CACACA"/>
<circle cx="47.5" cy="30" r="10" fill="#43BAD6"/>
<path d="M15.1172 73.0469L18.3711 81.168L21.625 73.0469H23.3271V83H22.0146V79.124L22.1377 74.9404L18.8701 83H17.8652L14.6045 74.9609L14.7344 79.124V83H13.4219V73.0469H15.1172ZM28.5156 83.1367C27.513 83.1367 26.6973 82.8086 26.0684 82.1523C25.4395 81.4915 25.125 80.6097 25.125 79.5068V79.2744C25.125 78.5407 25.264 77.8867 25.542 77.3125C25.8245 76.7337 26.2165 76.2826 26.7178 75.959C27.2236 75.6309 27.7705 75.4668 28.3584 75.4668C29.32 75.4668 30.0674 75.7835 30.6006 76.417C31.1338 77.0505 31.4004 77.9574 31.4004 79.1377V79.6641H26.3896C26.4079 80.3932 26.6198 80.9834 27.0254 81.4346C27.4355 81.8812 27.9551 82.1045 28.584 82.1045C29.0306 82.1045 29.4089 82.0133 29.7188 81.8311C30.0286 81.6488 30.2998 81.4072 30.5322 81.1064L31.3047 81.708C30.6849 82.6605 29.7552 83.1367 28.5156 83.1367ZM28.3584 76.5059C27.848 76.5059 27.4196 76.6927 27.0732 77.0664C26.7269 77.4355 26.5127 77.9551 26.4307 78.625H30.1357V78.5293C30.0993 77.8867 29.9261 77.39 29.6162 77.0391C29.3063 76.6836 28.887 76.5059 28.3584 76.5059ZM38.9131 83H37.6484V79.8418H34.251V83H32.9795V75.6035H34.251V78.8096H37.6484V75.6035H38.9131V83ZM44.0195 83.1367C43.0169 83.1367 42.2012 82.8086 41.5723 82.1523C40.9434 81.4915 40.6289 80.6097 40.6289 79.5068V79.2744C40.6289 78.5407 40.7679 77.8867 41.0459 77.3125C41.3285 76.7337 41.7204 76.2826 42.2217 75.959C42.7275 75.6309 43.2744 75.4668 43.8623 75.4668C44.8239 75.4668 45.5713 75.7835 46.1045 76.417C46.6377 77.0505 46.9043 77.9574 46.9043 79.1377V79.6641H41.8936C41.9118 80.3932 42.1237 80.9834 42.5293 81.4346C42.9395 81.8812 43.459 82.1045 44.0879 82.1045C44.5345 82.1045 44.9128 82.0133 45.2227 81.8311C45.5326 81.6488 45.8037 81.4072 46.0361 81.1064L46.8086 81.708C46.1888 82.6605 45.2591 83.1367 44.0195 83.1367ZM43.8623 76.5059C43.3519 76.5059 42.9235 76.6927 42.5771 77.0664C42.2308 77.4355 42.0166 77.9551 41.9346 78.625H45.6396V78.5293C45.6032 77.8867 45.43 77.39 45.1201 77.0391C44.8102 76.6836 44.391 76.5059 43.8623 76.5059ZM48.3125 81.9678L48.75 81.4277C49.2422 80.7897 49.5225 79.8327 49.5908 78.5566L49.707 75.6035H54.4717V81.9678H55.4219V85.1738H54.1572V83H48.9961V85.1738H47.7314L47.7383 81.9678H48.3125ZM49.8096 81.9678H53.207V76.7725H50.9307L50.8555 78.5361C50.778 80.0081 50.4294 81.152 49.8096 81.9678ZM62.7227 79.7871H61.834V83H60.5693V79.7871H59.6807L57.6094 83H56.0098L58.6553 79.1719L56.2627 75.6035H57.7939L59.7012 78.666H60.5693V75.6035H61.834V78.666H62.6953L64.6162 75.6035H66.1475L63.748 79.1787L66.3936 83H64.7939L62.7227 79.7871ZM70.4746 83.1367C69.472 83.1367 68.6562 82.8086 68.0273 82.1523C67.3984 81.4915 67.084 80.6097 67.084 79.5068V79.2744C67.084 78.5407 67.223 77.8867 67.501 77.3125C67.7835 76.7337 68.1755 76.2826 68.6768 75.959C69.1826 75.6309 69.7295 75.4668 70.3174 75.4668C71.279 75.4668 72.0264 75.7835 72.5596 76.417C73.0928 77.0505 73.3594 77.9574 73.3594 79.1377V79.6641H68.3486C68.3669 80.3932 68.5788 80.9834 68.9844 81.4346C69.3945 81.8812 69.9141 82.1045 70.543 82.1045C70.9896 82.1045 71.3678 82.0133 71.6777 81.8311C71.9876 81.6488 72.2588 81.4072 72.4912 81.1064L73.2637 81.708C72.6439 82.6605 71.7142 83.1367 70.4746 83.1367ZM70.3174 76.5059C69.807 76.5059 69.3786 76.6927 69.0322 77.0664C68.6859 77.4355 68.4717 77.9551 68.3896 78.625H72.0947V78.5293C72.0583 77.8867 71.8851 77.39 71.5752 77.0391C71.2653 76.6836 70.846 76.5059 70.3174 76.5059ZM81.0771 79.3838C81.0771 80.5094 80.8197 81.4163 80.3047 82.1045C79.7897 82.7926 79.0924 83.1367 78.2129 83.1367C77.3151 83.1367 76.6087 82.8519 76.0938 82.2822V85.8438H74.8291V75.6035H75.9844L76.0459 76.4238C76.5609 75.7858 77.2764 75.4668 78.1924 75.4668C79.0811 75.4668 79.7829 75.8018 80.2979 76.4717C80.8174 77.1416 81.0771 78.0736 81.0771 79.2676V79.3838ZM79.8125 79.2402C79.8125 78.4062 79.6348 77.7477 79.2793 77.2646C78.9238 76.7816 78.4362 76.54 77.8164 76.54C77.0508 76.54 76.4766 76.8796 76.0938 77.5586V81.0928C76.472 81.7673 77.0508 82.1045 77.8301 82.1045C78.4362 82.1045 78.917 81.8652 79.2725 81.3867C79.6325 80.9036 79.8125 80.1882 79.8125 79.2402Z" fill="black"/>
<path d="M93.5 306C93.5 306 113.5 290.381 113.5 249.5C113.5 206.866 93.5 193 93.5 193" stroke="#BEBEBE" stroke-width="2" stroke-linecap="round" stroke-dasharray="0.5 4"/>
<path d="M93 199L93 193L99.5 193" stroke="#BEBEBE" stroke-width="2" stroke-linecap="round"/>
<path d="M93.5 133C93.5 133 113.5 117.381 113.5 76.5C113.5 33.866 93.5 20 93.5 20" stroke="#BEBEBE" stroke-width="2" stroke-linecap="round" stroke-dasharray="0.5 4"/>
<path d="M94 20C94 20 171 80.8181 171 240C171 406.008 94 460 94 460" stroke="#BEBEBE" stroke-width="2" stroke-linecap="round" stroke-dasharray="0.5 4"/>
<path d="M99.5 481.5L93.5 481.5L93.5 475" stroke="#BEBEBE" stroke-width="2" stroke-linecap="round"/>
<path d="M93 26L93 20L99.5 20" stroke="#BEBEBE" stroke-width="2" stroke-linecap="round"/>
<path d="M45.9999 249L45.9999 279M45.9999 279L51 274.588M45.9999 279L41 274.588" stroke="#BEBEBE" stroke-width="2" stroke-linecap="round"/>
<circle cx="46.5" cy="177" r="30" fill="#F0F0F0"/>
<circle cx="46.5" cy="177" r="10" fill="#43BAD6"/>
<path d="M8.6084 220.047V226.814C8.60384 227.753 8.30762 228.521 7.71973 229.118C7.13639 229.715 6.34342 230.05 5.34082 230.123L4.99219 230.137C3.90299 230.137 3.03483 229.843 2.3877 229.255C1.74056 228.667 1.41243 227.858 1.40332 226.828V220.047H2.70215V226.787C2.70215 227.507 2.90039 228.068 3.29688 228.469C3.69336 228.865 4.25846 229.063 4.99219 229.063C5.73503 229.063 6.30241 228.865 6.69434 228.469C7.09082 228.072 7.28906 227.514 7.28906 226.794V220.047H8.6084ZM13.9268 223.861L16.3125 220.047H17.8574L14.7129 224.982L17.9326 230H16.374L13.9268 226.117L11.4658 230H9.91406L13.1406 224.982L9.98926 220.047H11.5273L13.9268 223.861ZM22.6699 228.968L23.1074 228.428C23.5996 227.79 23.8799 226.833 23.9482 225.557L24.0645 222.604H28.8291V228.968H29.7793V232.174H28.5146V230H23.3535V232.174H22.0889L22.0957 228.968H22.6699ZM24.167 228.968H27.5645V223.772H25.2881L25.2129 225.536C25.1354 227.008 24.7868 228.152 24.167 228.968ZM35.9658 222.604H37.2305V230H35.9658V224.606L32.5547 230H31.29V222.604H32.5547V228.004L35.9658 222.604ZM43.3281 224.627C43.3281 224.281 43.196 224.007 42.9316 223.807C42.6673 223.602 42.305 223.499 41.8447 223.499C41.3981 223.499 41.0244 223.615 40.7236 223.848C40.4274 224.08 40.2793 224.354 40.2793 224.668H39.0215C39.0215 224.025 39.2904 223.499 39.8281 223.089C40.3659 222.679 41.0381 222.474 41.8447 222.474C42.7106 222.474 43.3851 222.66 43.8682 223.034C44.3512 223.403 44.5928 223.932 44.5928 224.62C44.5928 224.953 44.4925 225.258 44.292 225.536C44.0915 225.814 43.8066 226.035 43.4375 226.199C44.2988 226.491 44.7295 227.065 44.7295 227.922C44.7295 228.601 44.4674 229.139 43.9434 229.535C43.4193 229.932 42.7197 230.13 41.8447 230.13C40.9925 230.13 40.2884 229.923 39.7324 229.508C39.181 229.089 38.9053 228.523 38.9053 227.812H40.1631C40.1631 228.173 40.3226 228.482 40.6416 228.742C40.9652 228.997 41.3662 229.125 41.8447 229.125C42.3278 229.125 42.7174 229.013 43.0137 228.79C43.3099 228.567 43.458 228.277 43.458 227.922C43.458 227.507 43.3327 227.211 43.082 227.033C42.8359 226.851 42.4508 226.76 41.9268 226.76H40.6621V225.693H42.0361C42.8975 225.671 43.3281 225.315 43.3281 224.627ZM52.4131 230H51.1484V226.842H47.751V230H46.4795V222.604H47.751V225.81H51.1484V222.604H52.4131V230ZM59.0166 230C58.9437 229.854 58.8844 229.594 58.8389 229.221C58.251 229.831 57.5492 230.137 56.7334 230.137C56.0042 230.137 55.4049 229.932 54.9355 229.521C54.4707 229.107 54.2383 228.583 54.2383 227.949C54.2383 227.179 54.5299 226.582 55.1133 226.158C55.7012 225.73 56.526 225.516 57.5879 225.516H58.8184V224.935C58.8184 224.493 58.6862 224.142 58.4219 223.882C58.1576 223.618 57.7679 223.485 57.2529 223.485C56.8018 223.485 56.4235 223.599 56.1182 223.827C55.8128 224.055 55.6602 224.331 55.6602 224.654H54.3887C54.3887 224.285 54.5186 223.93 54.7783 223.588C55.0426 223.242 55.3981 222.968 55.8447 222.768C56.2959 222.567 56.7904 222.467 57.3281 222.467C58.1803 222.467 58.848 222.681 59.3311 223.109C59.8141 223.533 60.0648 224.119 60.083 224.866V228.271C60.083 228.95 60.1696 229.49 60.3428 229.891V230H59.0166ZM56.918 229.036C57.3145 229.036 57.6904 228.934 58.0459 228.729C58.4014 228.523 58.6589 228.257 58.8184 227.929V226.411H57.8271C56.2777 226.411 55.5029 226.865 55.5029 227.771C55.5029 228.168 55.6351 228.478 55.8994 228.701C56.1637 228.924 56.5033 229.036 56.918 229.036ZM66.8506 222.604H68.1152V230H66.8506V224.606L63.4395 230H62.1748V222.604H63.4395V228.004L66.8506 222.604ZM67.1924 219.91C67.1924 220.462 67.0033 220.906 66.625 221.243C66.2513 221.576 65.7591 221.742 65.1484 221.742C64.5378 221.742 64.0433 221.574 63.665 221.236C63.2868 220.899 63.0977 220.457 63.0977 219.91H64.1299C64.1299 220.229 64.2165 220.48 64.3896 220.662C64.5628 220.84 64.8158 220.929 65.1484 220.929C65.4674 220.929 65.7158 220.84 65.8936 220.662C66.0758 220.484 66.167 220.234 66.167 219.91H67.1924ZM76.1885 230H74.9238V226.842H71.5264V230H70.2549V222.604H71.5264V225.81H74.9238V222.604H76.1885V230ZM81.2949 230.137C80.2923 230.137 79.4766 229.809 78.8477 229.152C78.2188 228.492 77.9043 227.61 77.9043 226.507V226.274C77.9043 225.541 78.0433 224.887 78.3213 224.312C78.6038 223.734 78.9958 223.283 79.4971 222.959C80.0029 222.631 80.5498 222.467 81.1377 222.467C82.0993 222.467 82.8467 222.784 83.3799 223.417C83.9131 224.05 84.1797 224.957 84.1797 226.138V226.664H79.1689C79.1872 227.393 79.3991 227.983 79.8047 228.435C80.2148 228.881 80.7344 229.104 81.3633 229.104C81.8099 229.104 82.1882 229.013 82.498 228.831C82.8079 228.649 83.0791 228.407 83.3115 228.106L84.084 228.708C83.4642 229.66 82.5345 230.137 81.2949 230.137ZM81.1377 223.506C80.6273 223.506 80.1989 223.693 79.8525 224.066C79.5062 224.436 79.292 224.955 79.21 225.625H82.915V225.529C82.8786 224.887 82.7054 224.39 82.3955 224.039C82.0856 223.684 81.6663 223.506 81.1377 223.506ZM91.8975 226.384C91.8975 227.509 91.64 228.416 91.125 229.104C90.61 229.793 89.9128 230.137 89.0332 230.137C88.1354 230.137 87.429 229.852 86.9141 229.282V232.844H85.6494V222.604H86.8047L86.8662 223.424C87.3812 222.786 88.0967 222.467 89.0127 222.467C89.9014 222.467 90.6032 222.802 91.1182 223.472C91.6377 224.142 91.8975 225.074 91.8975 226.268V226.384ZM90.6328 226.24C90.6328 225.406 90.4551 224.748 90.0996 224.265C89.7441 223.782 89.2565 223.54 88.6367 223.54C87.8711 223.54 87.2969 223.88 86.9141 224.559V228.093C87.2923 228.767 87.8711 229.104 88.6504 229.104C89.2565 229.104 89.7373 228.865 90.0928 228.387C90.4528 227.904 90.6328 227.188 90.6328 226.24Z" fill="black"/>
<circle cx="47.5" cy="324" r="30" fill="#43BAD6"/>
<circle cx="47.5" cy="324" r="10" fill="white"/>
<path d="M15.6299 367.047V373.814C15.6253 374.753 15.3291 375.521 14.7412 376.118C14.1579 376.715 13.3649 377.05 12.3623 377.123L12.0137 377.137C10.9245 377.137 10.0563 376.843 9.40918 376.255C8.76204 375.667 8.43392 374.858 8.4248 373.828V367.047H9.72363V373.787C9.72363 374.507 9.92188 375.068 10.3184 375.469C10.7148 375.865 11.2799 376.063 12.0137 376.063C12.7565 376.063 13.3239 375.865 13.7158 375.469C14.1123 375.072 14.3105 374.514 14.3105 373.794V367.047H15.6299ZM19.1094 377H17.7969V367.047H19.1094V377ZM24.7285 375.968L25.166 375.428C25.6582 374.79 25.9385 373.833 26.0068 372.557L26.123 369.604H30.8877V375.968H31.8379V379.174H30.5732V377H25.4121V379.174H24.1475L24.1543 375.968H24.7285ZM26.2256 375.968H29.623V370.772H27.3467L27.2715 372.536C27.194 374.008 26.8454 375.152 26.2256 375.968ZM38.0244 369.604H39.2891V377H38.0244V371.606L34.6133 377H33.3486V369.604H34.6133V375.004L38.0244 369.604ZM45.3867 371.627C45.3867 371.281 45.2546 371.007 44.9902 370.807C44.7259 370.602 44.3636 370.499 43.9033 370.499C43.4567 370.499 43.083 370.615 42.7822 370.848C42.486 371.08 42.3379 371.354 42.3379 371.668H41.0801C41.0801 371.025 41.349 370.499 41.8867 370.089C42.4245 369.679 43.0967 369.474 43.9033 369.474C44.7692 369.474 45.4437 369.66 45.9268 370.034C46.4098 370.403 46.6514 370.932 46.6514 371.62C46.6514 371.953 46.5511 372.258 46.3506 372.536C46.1501 372.814 45.8652 373.035 45.4961 373.199C46.3574 373.491 46.7881 374.065 46.7881 374.922C46.7881 375.601 46.526 376.139 46.002 376.535C45.4779 376.932 44.7783 377.13 43.9033 377.13C43.0511 377.13 42.347 376.923 41.791 376.508C41.2396 376.089 40.9639 375.523 40.9639 374.812H42.2217C42.2217 375.173 42.3812 375.482 42.7002 375.742C43.0238 375.997 43.4248 376.125 43.9033 376.125C44.3864 376.125 44.776 376.013 45.0723 375.79C45.3685 375.567 45.5166 375.277 45.5166 374.922C45.5166 374.507 45.3913 374.211 45.1406 374.033C44.8945 373.851 44.5094 373.76 43.9854 373.76H42.7207V372.693H44.0947C44.9561 372.671 45.3867 372.315 45.3867 371.627ZM52.9951 377C52.9222 376.854 52.863 376.594 52.8174 376.221C52.2295 376.831 51.5277 377.137 50.7119 377.137C49.9827 377.137 49.3835 376.932 48.9141 376.521C48.4492 376.107 48.2168 375.583 48.2168 374.949C48.2168 374.179 48.5085 373.582 49.0918 373.158C49.6797 372.73 50.5046 372.516 51.5664 372.516H52.7969V371.935C52.7969 371.493 52.6647 371.142 52.4004 370.882C52.1361 370.618 51.7464 370.485 51.2314 370.485C50.7803 370.485 50.402 370.599 50.0967 370.827C49.7913 371.055 49.6387 371.331 49.6387 371.654H48.3672C48.3672 371.285 48.4971 370.93 48.7568 370.588C49.0212 370.242 49.3766 369.968 49.8232 369.768C50.2744 369.567 50.7689 369.467 51.3066 369.467C52.1589 369.467 52.8265 369.681 53.3096 370.109C53.7926 370.533 54.0433 371.119 54.0615 371.866V375.271C54.0615 375.95 54.1481 376.49 54.3213 376.891V377H52.9951ZM50.8965 376.036C51.293 376.036 51.6689 375.934 52.0244 375.729C52.3799 375.523 52.6374 375.257 52.7969 374.929V373.411H51.8057C50.2562 373.411 49.4814 373.865 49.4814 374.771C49.4814 375.168 49.6136 375.478 49.8779 375.701C50.1423 375.924 50.4818 376.036 50.8965 376.036ZM60.8291 369.604H62.0938V377H60.8291V371.606L57.418 377H56.1533V369.604H57.418V375.004L60.8291 369.604ZM61.1709 366.91C61.1709 367.462 60.9818 367.906 60.6035 368.243C60.2298 368.576 59.7376 368.742 59.127 368.742C58.5163 368.742 58.0218 368.574 57.6436 368.236C57.2653 367.899 57.0762 367.457 57.0762 366.91H58.1084C58.1084 367.229 58.195 367.48 58.3682 367.662C58.5413 367.84 58.7943 367.929 59.127 367.929C59.446 367.929 59.6943 367.84 59.8721 367.662C60.0544 367.484 60.1455 367.234 60.1455 366.91H61.1709ZM70.167 377H68.9023V373.842H65.5049V377H64.2334V369.604H65.5049V372.81H68.9023V369.604H70.167V377ZM75.2734 377.137C74.2708 377.137 73.4551 376.809 72.8262 376.152C72.1973 375.492 71.8828 374.61 71.8828 373.507V373.274C71.8828 372.541 72.0218 371.887 72.2998 371.312C72.5824 370.734 72.9743 370.283 73.4756 369.959C73.9814 369.631 74.5283 369.467 75.1162 369.467C76.0778 369.467 76.8252 369.784 77.3584 370.417C77.8916 371.05 78.1582 371.957 78.1582 373.138V373.664H73.1475C73.1657 374.393 73.3776 374.983 73.7832 375.435C74.1934 375.881 74.7129 376.104 75.3418 376.104C75.7884 376.104 76.1667 376.013 76.4766 375.831C76.7865 375.649 77.0576 375.407 77.29 375.106L78.0625 375.708C77.4427 376.66 76.513 377.137 75.2734 377.137ZM75.1162 370.506C74.6058 370.506 74.1774 370.693 73.8311 371.066C73.4847 371.436 73.2705 371.955 73.1885 372.625H76.8936V372.529C76.8571 371.887 76.6839 371.39 76.374 371.039C76.0641 370.684 75.6449 370.506 75.1162 370.506ZM85.876 373.384C85.876 374.509 85.6185 375.416 85.1035 376.104C84.5885 376.793 83.8913 377.137 83.0117 377.137C82.1139 377.137 81.4076 376.852 80.8926 376.282V379.844H79.6279V369.604H80.7832L80.8447 370.424C81.3597 369.786 82.0752 369.467 82.9912 369.467C83.8799 369.467 84.5817 369.802 85.0967 370.472C85.6162 371.142 85.876 372.074 85.876 373.268V373.384ZM84.6113 373.24C84.6113 372.406 84.4336 371.748 84.0781 371.265C83.7227 370.782 83.235 370.54 82.6152 370.54C81.8496 370.54 81.2754 370.88 80.8926 371.559V375.093C81.2708 375.767 81.8496 376.104 82.6289 376.104C83.235 376.104 83.7158 375.865 84.0713 375.387C84.4313 374.904 84.6113 374.188 84.6113 373.24Z" fill="black"/>
</svg>
