<svg width="442" height="139" viewBox="0 0 442 139" fill="none" xmlns="http://www.w3.org/2000/svg">
<circle cx="412" cy="82" r="29.5" stroke="#CACACA"/>
<circle cx="412" cy="82" r="9.5" stroke="#43BAD6"/>
<path d="M133.5 82.0001H167.5M167.5 82.0001L162.5 77M167.5 82.0001L162.5 87" stroke="#BEBEBE" stroke-width="2" stroke-linecap="round"/>
<path d="M207 44C207 44 191.381 24 150.5 24C107.866 24 95 42 95 42" stroke="#BEBEBE" stroke-width="2" stroke-linecap="round" stroke-dasharray="0.5 4"/>
<path d="M391.739 130.529H390.529V135H389.217V125.047H390.529V129.436H391.555L395.034 125.047H396.668L392.867 129.873L396.948 135H395.342L391.739 130.529ZM404.017 127.604V135H402.745V128.649H400.229L400.079 131.418C399.997 132.689 399.783 133.599 399.437 134.146C399.095 134.692 398.55 134.977 397.803 135H397.297V133.886L397.659 133.858C398.069 133.813 398.363 133.576 398.541 133.147C398.719 132.719 398.833 131.926 398.883 130.769L399.02 127.604H404.017ZM410.832 127.604H412.097V135H410.832V129.606L407.421 135H406.156V127.604H407.421V133.004L410.832 127.604ZM417.196 135.137C416.194 135.137 415.378 134.809 414.749 134.152C414.12 133.492 413.806 132.61 413.806 131.507V131.274C413.806 130.541 413.945 129.887 414.223 129.312C414.505 128.734 414.897 128.283 415.398 127.959C415.904 127.631 416.451 127.467 417.039 127.467C418.001 127.467 418.748 127.784 419.281 128.417C419.814 129.05 420.081 129.957 420.081 131.138V131.664H415.07C415.089 132.393 415.3 132.983 415.706 133.435C416.116 133.881 416.636 134.104 417.265 134.104C417.711 134.104 418.09 134.013 418.399 133.831C418.709 133.649 418.98 133.407 419.213 133.106L419.985 133.708C419.366 134.66 418.436 135.137 417.196 135.137ZM417.039 128.506C416.529 128.506 416.1 128.693 415.754 129.066C415.408 129.436 415.193 129.955 415.111 130.625H418.816V130.529C418.78 129.887 418.607 129.39 418.297 129.039C417.987 128.684 417.568 128.506 417.039 128.506ZM427.594 135H426.329V131.842H422.932V135H421.66V127.604H422.932V130.81H426.329V127.604H427.594V135ZM435.127 128.629H432.646V135H431.381V128.629H428.947V127.604H435.127V128.629Z" fill="black"/>
<circle cx="63.5" cy="82" r="29.5" stroke="#CACACA"/>
<circle cx="63.5" cy="82" r="10" fill="#43BAD6"/>
<path d="M3.30957 125.047L6.56348 133.168L9.81738 125.047H11.5195V135H10.207V131.124L10.3301 126.94L7.0625 135H6.05762L2.79688 126.961L2.92676 131.124V135H1.61426V125.047H3.30957ZM16.708 135.137C15.7054 135.137 14.8896 134.809 14.2607 134.152C13.6318 133.492 13.3174 132.61 13.3174 131.507V131.274C13.3174 130.541 13.4564 129.887 13.7344 129.312C14.0169 128.734 14.4089 128.283 14.9102 127.959C15.416 127.631 15.9629 127.467 16.5508 127.467C17.5124 127.467 18.2598 127.784 18.793 128.417C19.3262 129.05 19.5928 129.957 19.5928 131.138V131.664H14.582C14.6003 132.393 14.8122 132.983 15.2178 133.435C15.6279 133.881 16.1475 134.104 16.7764 134.104C17.223 134.104 17.6012 134.013 17.9111 133.831C18.221 133.649 18.4922 133.407 18.7246 133.106L19.4971 133.708C18.8773 134.66 17.9476 135.137 16.708 135.137ZM16.5508 128.506C16.0404 128.506 15.612 128.693 15.2656 129.066C14.9193 129.436 14.7051 129.955 14.623 130.625H18.3281V130.529C18.2917 129.887 18.1185 129.39 17.8086 129.039C17.4987 128.684 17.0794 128.506 16.5508 128.506ZM27.1055 135H25.8408V131.842H22.4434V135H21.1719V127.604H22.4434V130.81H25.8408V127.604H27.1055V135ZM32.2119 135.137C31.2093 135.137 30.3936 134.809 29.7646 134.152C29.1357 133.492 28.8213 132.61 28.8213 131.507V131.274C28.8213 130.541 28.9603 129.887 29.2383 129.312C29.5208 128.734 29.9128 128.283 30.4141 127.959C30.9199 127.631 31.4668 127.467 32.0547 127.467C33.0163 127.467 33.7637 127.784 34.2969 128.417C34.8301 129.05 35.0967 129.957 35.0967 131.138V131.664H30.0859C30.1042 132.393 30.3161 132.983 30.7217 133.435C31.1318 133.881 31.6514 134.104 32.2803 134.104C32.7269 134.104 33.1051 134.013 33.415 133.831C33.7249 133.649 33.9961 133.407 34.2285 133.106L35.001 133.708C34.3812 134.66 33.4515 135.137 32.2119 135.137ZM32.0547 128.506C31.5443 128.506 31.1159 128.693 30.7695 129.066C30.4232 129.436 30.209 129.955 30.127 130.625H33.832V130.529C33.7956 129.887 33.6224 129.39 33.3125 129.039C33.0026 128.684 32.5833 128.506 32.0547 128.506ZM36.5049 133.968L36.9424 133.428C37.4346 132.79 37.7148 131.833 37.7832 130.557L37.8994 127.604H42.6641V133.968H43.6143V137.174H42.3496V135H37.1885V137.174H35.9238L35.9307 133.968H36.5049ZM38.002 133.968H41.3994V128.772H39.123L39.0479 130.536C38.9704 132.008 38.6217 133.152 38.002 133.968ZM50.915 131.787H50.0264V135H48.7617V131.787H47.873L45.8018 135H44.2021L46.8477 131.172L44.4551 127.604H45.9863L47.8936 130.666H48.7617V127.604H50.0264V130.666H50.8877L52.8086 127.604H54.3398L51.9404 131.179L54.5859 135H52.9863L50.915 131.787ZM58.667 135.137C57.6644 135.137 56.8486 134.809 56.2197 134.152C55.5908 133.492 55.2764 132.61 55.2764 131.507V131.274C55.2764 130.541 55.4154 129.887 55.6934 129.312C55.9759 128.734 56.3678 128.283 56.8691 127.959C57.375 127.631 57.9219 127.467 58.5098 127.467C59.4714 127.467 60.2188 127.784 60.752 128.417C61.2852 129.05 61.5518 129.957 61.5518 131.138V131.664H56.541C56.5592 132.393 56.7712 132.983 57.1768 133.435C57.5869 133.881 58.1064 134.104 58.7354 134.104C59.182 134.104 59.5602 134.013 59.8701 133.831C60.18 133.649 60.4512 133.407 60.6836 133.106L61.4561 133.708C60.8363 134.66 59.9066 135.137 58.667 135.137ZM58.5098 128.506C57.9993 128.506 57.571 128.693 57.2246 129.066C56.8783 129.436 56.6641 129.955 56.582 130.625H60.2871V130.529C60.2507 129.887 60.0775 129.39 59.7676 129.039C59.4577 128.684 59.0384 128.506 58.5098 128.506ZM69.2695 131.384C69.2695 132.509 69.012 133.416 68.4971 134.104C67.9821 134.793 67.2848 135.137 66.4053 135.137C65.5075 135.137 64.8011 134.852 64.2861 134.282V137.844H63.0215V127.604H64.1768L64.2383 128.424C64.7533 127.786 65.4688 127.467 66.3848 127.467C67.2734 127.467 67.9753 127.802 68.4902 128.472C69.0098 129.142 69.2695 130.074 69.2695 131.268V131.384ZM68.0049 131.24C68.0049 130.406 67.8271 129.748 67.4717 129.265C67.1162 128.782 66.6286 128.54 66.0088 128.54C65.2432 128.54 64.6689 128.88 64.2861 129.559V133.093C64.6644 133.767 65.2432 134.104 66.0225 134.104C66.6286 134.104 67.1094 133.865 67.4648 133.387C67.8249 132.904 68.0049 132.188 68.0049 131.24ZM80.4053 135H79.1406V128.649H75.7363V135H74.4648V127.604H80.4053V135ZM88.6836 131.384C88.6836 132.509 88.4261 133.416 87.9111 134.104C87.3962 134.793 86.6989 135.137 85.8193 135.137C84.9215 135.137 84.2152 134.852 83.7002 134.282V137.844H82.4355V127.604H83.5908L83.6523 128.424C84.1673 127.786 84.8828 127.467 85.7988 127.467C86.6875 127.467 87.3893 127.802 87.9043 128.472C88.4238 129.142 88.6836 130.074 88.6836 131.268V131.384ZM87.4189 131.24C87.4189 130.406 87.2412 129.748 86.8857 129.265C86.5303 128.782 86.0426 128.54 85.4229 128.54C84.6572 128.54 84.083 128.88 83.7002 129.559V133.093C84.0785 133.767 84.6572 134.104 85.4365 134.104C86.0426 134.104 86.5234 133.865 86.8789 133.387C87.2389 132.904 87.4189 132.188 87.4189 131.24ZM89.9619 131.233C89.9619 130.509 90.1032 129.857 90.3857 129.278C90.6729 128.7 91.0693 128.253 91.5752 127.938C92.0856 127.624 92.6667 127.467 93.3184 127.467C94.3255 127.467 95.139 127.815 95.7588 128.513C96.3831 129.21 96.6953 130.137 96.6953 131.295V131.384C96.6953 132.104 96.5563 132.751 96.2783 133.325C96.0049 133.895 95.6107 134.339 95.0957 134.658C94.5853 134.977 93.9974 135.137 93.332 135.137C92.3294 135.137 91.516 134.788 90.8916 134.091C90.2718 133.394 89.9619 132.471 89.9619 131.322V131.233ZM91.2334 131.384C91.2334 132.204 91.4225 132.863 91.8008 133.359C92.1836 133.856 92.694 134.104 93.332 134.104C93.9746 134.104 94.485 133.854 94.8633 133.353C95.2415 132.847 95.4307 132.14 95.4307 131.233C95.4307 130.422 95.237 129.766 94.8496 129.265C94.4668 128.759 93.9564 128.506 93.3184 128.506C92.694 128.506 92.1904 128.754 91.8076 129.251C91.4248 129.748 91.2334 130.459 91.2334 131.384ZM101.351 135.137C100.348 135.137 99.5322 134.809 98.9033 134.152C98.2744 133.492 97.96 132.61 97.96 131.507V131.274C97.96 130.541 98.099 129.887 98.377 129.312C98.6595 128.734 99.0514 128.283 99.5527 127.959C100.059 127.631 100.605 127.467 101.193 127.467C102.155 127.467 102.902 127.784 103.436 128.417C103.969 129.05 104.235 129.957 104.235 131.138V131.664H99.2246C99.2428 132.393 99.4548 132.983 99.8604 133.435C100.271 133.881 100.79 134.104 101.419 134.104C101.866 134.104 102.244 134.013 102.554 133.831C102.864 133.649 103.135 133.407 103.367 133.106L104.14 133.708C103.52 134.66 102.59 135.137 101.351 135.137ZM101.193 128.506C100.683 128.506 100.255 128.693 99.9082 129.066C99.5618 129.436 99.3477 129.955 99.2656 130.625H102.971V130.529C102.934 129.887 102.761 129.39 102.451 129.039C102.141 128.684 101.722 128.506 101.193 128.506ZM108.009 131.849H107.086V135H105.814V127.604H107.086V130.734H107.913L110.401 127.604H111.933L109.007 131.158L112.179 135H110.572L108.009 131.849ZM118.762 128.629H116.28V135H115.016V128.629H112.582V127.604H118.762V128.629ZM124.449 135C124.376 134.854 124.317 134.594 124.271 134.221C123.684 134.831 122.982 135.137 122.166 135.137C121.437 135.137 120.838 134.932 120.368 134.521C119.903 134.107 119.671 133.583 119.671 132.949C119.671 132.179 119.963 131.582 120.546 131.158C121.134 130.73 121.959 130.516 123.021 130.516H124.251V129.935C124.251 129.493 124.119 129.142 123.854 128.882C123.59 128.618 123.201 128.485 122.686 128.485C122.234 128.485 121.856 128.599 121.551 128.827C121.245 129.055 121.093 129.331 121.093 129.654H119.821C119.821 129.285 119.951 128.93 120.211 128.588C120.475 128.242 120.831 127.968 121.277 127.768C121.729 127.567 122.223 127.467 122.761 127.467C123.613 127.467 124.281 127.681 124.764 128.109C125.247 128.533 125.497 129.119 125.516 129.866V133.271C125.516 133.95 125.602 134.49 125.775 134.891V135H124.449ZM122.351 134.036C122.747 134.036 123.123 133.934 123.479 133.729C123.834 133.523 124.091 133.257 124.251 132.929V131.411H123.26C121.71 131.411 120.936 131.865 120.936 132.771C120.936 133.168 121.068 133.478 121.332 133.701C121.596 133.924 121.936 134.036 122.351 134.036Z" fill="black"/>
<path d="M95 42C95 42 134.67 1 238.5 1C346.783 1 382 42 382 42" stroke="#BEBEBE" stroke-width="2" stroke-linecap="round" stroke-dasharray="0.5 4"/>
<path d="M95 36V42H101.5" stroke="#BEBEBE" stroke-width="2" stroke-linecap="round"/>
<path d="M382 35.5V42H375.5" stroke="#BEBEBE" stroke-width="2" stroke-linecap="round"/>
<circle opacity="0.2" cx="238" cy="82" r="30" fill="#43BAD6"/>
<circle cx="238" cy="82" r="10" fill="#BEBEBE"/>
<path d="M206.376 130.345C206.376 131.306 206.223 132.136 205.918 132.833C205.613 133.526 205.184 134.068 204.633 134.46L206.41 135.854L205.515 136.682L203.416 135.014C203.088 135.096 202.742 135.137 202.377 135.137C201.593 135.137 200.898 134.945 200.292 134.562C199.686 134.175 199.214 133.626 198.877 132.915C198.544 132.2 198.373 131.372 198.364 130.434V129.716C198.364 128.759 198.531 127.913 198.863 127.18C199.196 126.446 199.665 125.885 200.271 125.498C200.882 125.106 201.579 124.91 202.363 124.91C203.165 124.91 203.869 125.104 204.476 125.491C205.086 125.879 205.556 126.437 205.884 127.166C206.212 127.891 206.376 128.738 206.376 129.709V130.345ZM205.063 129.702C205.063 128.531 204.829 127.629 204.359 126.995C203.895 126.357 203.229 126.038 202.363 126.038C201.538 126.038 200.887 126.355 200.408 126.988C199.934 127.617 199.69 128.492 199.677 129.613V130.345C199.677 131.484 199.914 132.382 200.388 133.038C200.866 133.694 201.529 134.022 202.377 134.022C203.225 134.022 203.881 133.715 204.346 133.1C204.811 132.48 205.05 131.593 205.063 130.44V129.702ZM213.896 132.402H209.726L208.789 135H207.436L211.236 125.047H212.385L216.192 135H214.846L213.896 132.402ZM210.122 131.322H213.506L211.811 126.667L210.122 131.322ZM225.592 127.604H226.856V135H225.592V129.606L222.181 135H220.916V127.604H222.181V133.004L225.592 127.604ZM234.93 135H233.665V131.842H230.268V135H228.996V127.604H230.268V130.81H233.665V127.604H234.93V135ZM242.866 131.787H241.978V135H240.713V131.787H239.824L237.753 135H236.153L238.799 131.172L236.406 127.604H237.938L239.845 130.666H240.713V127.604H241.978V130.666H242.839L244.76 127.604H246.291L243.892 131.179L246.537 135H244.938L242.866 131.787ZM250.618 135.137C249.616 135.137 248.8 134.809 248.171 134.152C247.542 133.492 247.228 132.61 247.228 131.507V131.274C247.228 130.541 247.367 129.887 247.645 129.312C247.927 128.734 248.319 128.283 248.82 127.959C249.326 127.631 249.873 127.467 250.461 127.467C251.423 127.467 252.17 127.784 252.703 128.417C253.236 129.05 253.503 129.957 253.503 131.138V131.664H248.492C248.51 132.393 248.722 132.983 249.128 133.435C249.538 133.881 250.058 134.104 250.687 134.104C251.133 134.104 251.511 134.013 251.821 133.831C252.131 133.649 252.402 133.407 252.635 133.106L253.407 133.708C252.787 134.66 251.858 135.137 250.618 135.137ZM250.461 128.506C249.951 128.506 249.522 128.693 249.176 129.066C248.829 129.436 248.615 129.955 248.533 130.625H252.238V130.529C252.202 129.887 252.029 129.39 251.719 129.039C251.409 128.684 250.99 128.506 250.461 128.506ZM261.016 135H259.751V131.842H256.354V135H255.082V127.604H256.354V130.81H259.751V127.604H261.016V135ZM266.122 135.137C265.119 135.137 264.304 134.809 263.675 134.152C263.046 133.492 262.731 132.61 262.731 131.507V131.274C262.731 130.541 262.87 129.887 263.148 129.312C263.431 128.734 263.823 128.283 264.324 127.959C264.83 127.631 265.377 127.467 265.965 127.467C266.926 127.467 267.674 127.784 268.207 128.417C268.74 129.05 269.007 129.957 269.007 131.138V131.664H263.996C264.014 132.393 264.226 132.983 264.632 133.435C265.042 133.881 265.562 134.104 266.19 134.104C266.637 134.104 267.015 134.013 267.325 133.831C267.635 133.649 267.906 133.407 268.139 133.106L268.911 133.708C268.291 134.66 267.362 135.137 266.122 135.137ZM265.965 128.506C265.454 128.506 265.026 128.693 264.68 129.066C264.333 129.436 264.119 129.955 264.037 130.625H267.742V130.529C267.706 129.887 267.533 129.39 267.223 129.039C266.913 128.684 266.493 128.506 265.965 128.506ZM276.725 131.384C276.725 132.509 276.467 133.416 275.952 134.104C275.437 134.793 274.74 135.137 273.86 135.137C272.963 135.137 272.256 134.852 271.741 134.282V137.844H270.477V127.604H271.632L271.693 128.424C272.208 127.786 272.924 127.467 273.84 127.467C274.729 127.467 275.43 127.802 275.945 128.472C276.465 129.142 276.725 130.074 276.725 131.268V131.384ZM275.46 131.24C275.46 130.406 275.282 129.748 274.927 129.265C274.571 128.782 274.084 128.54 273.464 128.54C272.698 128.54 272.124 128.88 271.741 129.559V133.093C272.119 133.767 272.698 134.104 273.478 134.104C274.084 134.104 274.564 133.865 274.92 133.387C275.28 132.904 275.46 132.188 275.46 131.24Z" fill="black"/>
</svg>
