<svg width="172" height="709" viewBox="0 0 172 709" fill="none" xmlns="http://www.w3.org/2000/svg">
<circle cx="44" cy="652" r="29.5" stroke="#CACACA"/>
<circle cx="44" cy="652" r="9.5" stroke="#43BAD6"/>
<path d="M22.2393 700.53H21.0293V705H19.7168V695.047H21.0293V699.436H22.0547L25.5342 695.047H27.168L23.3672 699.873L27.4482 705H25.8418L22.2393 700.53ZM34.5166 697.604V705H33.2451V698.65H30.7295L30.5791 701.418C30.4971 702.69 30.2829 703.599 29.9365 704.146C29.5947 704.693 29.0501 704.977 28.3027 705H27.7969V703.886L28.1592 703.859C28.5693 703.813 28.8633 703.576 29.041 703.148C29.2188 702.719 29.3327 701.926 29.3828 700.769L29.5195 697.604H34.5166ZM41.332 697.604H42.5967V705H41.332V699.607L37.9209 705H36.6562V697.604H37.9209V703.004L41.332 697.604ZM47.6963 705.137C46.6937 705.137 45.8779 704.809 45.249 704.153C44.6201 703.492 44.3057 702.61 44.3057 701.507V701.275C44.3057 700.541 44.4447 699.887 44.7227 699.313C45.0052 698.734 45.3971 698.283 45.8984 697.959C46.4043 697.631 46.9512 697.467 47.5391 697.467C48.5007 697.467 49.248 697.784 49.7812 698.417C50.3145 699.051 50.5811 699.958 50.5811 701.138V701.664H45.5703C45.5885 702.393 45.8005 702.984 46.2061 703.435C46.6162 703.881 47.1357 704.105 47.7646 704.105C48.2113 704.105 48.5895 704.014 48.8994 703.831C49.2093 703.649 49.4805 703.407 49.7129 703.107L50.4854 703.708C49.8656 704.661 48.9359 705.137 47.6963 705.137ZM47.5391 698.506C47.0286 698.506 46.6003 698.693 46.2539 699.067C45.9076 699.436 45.6934 699.955 45.6113 700.625H49.3164V700.53C49.2799 699.887 49.1068 699.39 48.7969 699.039C48.487 698.684 48.0677 698.506 47.5391 698.506ZM58.0938 705H56.8291V701.842H53.4316V705H52.1602V697.604H53.4316V700.81H56.8291V697.604H58.0938V705ZM65.627 698.629H63.1455V705H61.8809V698.629H59.4473V697.604H65.627V698.629Z" fill="black"/>
<circle cx="44.5" cy="30" r="29.5" stroke="#CACACA"/>
<circle cx="44.5" cy="30" r="10" fill="#43BAD6"/>
<path d="M12.1172 73.0469L15.3711 81.168L18.625 73.0469H20.3271V83H19.0146V79.124L19.1377 74.9404L15.8701 83H14.8652L11.6045 74.9609L11.7344 79.124V83H10.4219V73.0469H12.1172ZM25.5156 83.1367C24.513 83.1367 23.6973 82.8086 23.0684 82.1523C22.4395 81.4915 22.125 80.6097 22.125 79.5068V79.2744C22.125 78.5407 22.264 77.8867 22.542 77.3125C22.8245 76.7337 23.2165 76.2826 23.7178 75.959C24.2236 75.6309 24.7705 75.4668 25.3584 75.4668C26.32 75.4668 27.0674 75.7835 27.6006 76.417C28.1338 77.0505 28.4004 77.9574 28.4004 79.1377V79.6641H23.3896C23.4079 80.3932 23.6198 80.9834 24.0254 81.4346C24.4355 81.8812 24.9551 82.1045 25.584 82.1045C26.0306 82.1045 26.4089 82.0133 26.7188 81.8311C27.0286 81.6488 27.2998 81.4072 27.5322 81.1064L28.3047 81.708C27.6849 82.6605 26.7552 83.1367 25.5156 83.1367ZM25.3584 76.5059C24.848 76.5059 24.4196 76.6927 24.0732 77.0664C23.7269 77.4355 23.5127 77.9551 23.4307 78.625H27.1357V78.5293C27.0993 77.8867 26.9261 77.39 26.6162 77.0391C26.3063 76.6836 25.887 76.5059 25.3584 76.5059ZM35.9131 83H34.6484V79.8418H31.251V83H29.9795V75.6035H31.251V78.8096H34.6484V75.6035H35.9131V83ZM41.0195 83.1367C40.0169 83.1367 39.2012 82.8086 38.5723 82.1523C37.9434 81.4915 37.6289 80.6097 37.6289 79.5068V79.2744C37.6289 78.5407 37.7679 77.8867 38.0459 77.3125C38.3285 76.7337 38.7204 76.2826 39.2217 75.959C39.7275 75.6309 40.2744 75.4668 40.8623 75.4668C41.8239 75.4668 42.5713 75.7835 43.1045 76.417C43.6377 77.0505 43.9043 77.9574 43.9043 79.1377V79.6641H38.8936C38.9118 80.3932 39.1237 80.9834 39.5293 81.4346C39.9395 81.8812 40.459 82.1045 41.0879 82.1045C41.5345 82.1045 41.9128 82.0133 42.2227 81.8311C42.5326 81.6488 42.8037 81.4072 43.0361 81.1064L43.8086 81.708C43.1888 82.6605 42.2591 83.1367 41.0195 83.1367ZM40.8623 76.5059C40.3519 76.5059 39.9235 76.6927 39.5771 77.0664C39.2308 77.4355 39.0166 77.9551 38.9346 78.625H42.6396V78.5293C42.6032 77.8867 42.43 77.39 42.1201 77.0391C41.8102 76.6836 41.391 76.5059 40.8623 76.5059ZM45.3125 81.9678L45.75 81.4277C46.2422 80.7897 46.5225 79.8327 46.5908 78.5566L46.707 75.6035H51.4717V81.9678H52.4219V85.1738H51.1572V83H45.9961V85.1738H44.7314L44.7383 81.9678H45.3125ZM46.8096 81.9678H50.207V76.7725H47.9307L47.8555 78.5361C47.778 80.0081 47.4294 81.152 46.8096 81.9678ZM59.7227 79.7871H58.834V83H57.5693V79.7871H56.6807L54.6094 83H53.0098L55.6553 79.1719L53.2627 75.6035H54.7939L56.7012 78.666H57.5693V75.6035H58.834V78.666H59.6953L61.6162 75.6035H63.1475L60.748 79.1787L63.3936 83H61.7939L59.7227 79.7871ZM67.4746 83.1367C66.472 83.1367 65.6562 82.8086 65.0273 82.1523C64.3984 81.4915 64.084 80.6097 64.084 79.5068V79.2744C64.084 78.5407 64.223 77.8867 64.501 77.3125C64.7835 76.7337 65.1755 76.2826 65.6768 75.959C66.1826 75.6309 66.7295 75.4668 67.3174 75.4668C68.279 75.4668 69.0264 75.7835 69.5596 76.417C70.0928 77.0505 70.3594 77.9574 70.3594 79.1377V79.6641H65.3486C65.3669 80.3932 65.5788 80.9834 65.9844 81.4346C66.3945 81.8812 66.9141 82.1045 67.543 82.1045C67.9896 82.1045 68.3678 82.0133 68.6777 81.8311C68.9876 81.6488 69.2588 81.4072 69.4912 81.1064L70.2637 81.708C69.6439 82.6605 68.7142 83.1367 67.4746 83.1367ZM67.3174 76.5059C66.807 76.5059 66.3786 76.6927 66.0322 77.0664C65.6859 77.4355 65.4717 77.9551 65.3896 78.625H69.0947V78.5293C69.0583 77.8867 68.8851 77.39 68.5752 77.0391C68.2653 76.6836 67.846 76.5059 67.3174 76.5059ZM78.0771 79.3838C78.0771 80.5094 77.8197 81.4163 77.3047 82.1045C76.7897 82.7926 76.0924 83.1367 75.2129 83.1367C74.3151 83.1367 73.6087 82.8519 73.0938 82.2822V85.8438H71.8291V75.6035H72.9844L73.0459 76.4238C73.5609 75.7858 74.2764 75.4668 75.1924 75.4668C76.0811 75.4668 76.7829 75.8018 77.2979 76.4717C77.8174 77.1416 78.0771 78.0736 78.0771 79.2676V79.3838ZM76.8125 79.2402C76.8125 78.4062 76.6348 77.7477 76.2793 77.2646C75.9238 76.7816 75.4362 76.54 74.8164 76.54C74.0508 76.54 73.4766 76.8796 73.0938 77.5586V81.0928C73.472 81.7673 74.0508 82.1045 74.8301 82.1045C75.4362 82.1045 75.917 81.8652 76.2725 81.3867C76.6325 80.9036 76.8125 80.1882 76.8125 79.2402Z" fill="black"/>
<path d="M88.5 288C88.5 288 125.5 255.103 125.5 169C125.5 79.2045 88.5 50 88.5 50" stroke="#BEBEBE" stroke-width="2" stroke-linecap="round" stroke-dasharray="0.5 4"/>
<path d="M88 56L88 50L94 50" stroke="#BEBEBE" stroke-width="2" stroke-linecap="round"/>
<path d="M88.5 50C88.5 50 170.5 127.405 170.5 330C170.5 541.284 88.5 610 88.5 610" stroke="#BEBEBE" stroke-width="2" stroke-linecap="round" stroke-dasharray="0.5 4"/>
<path d="M94 610L88 610L88 604" stroke="#BEBEBE" stroke-width="2" stroke-linecap="round"/>
<path d="M43.9999 249L43.9999 279M43.9999 279L49 274.588M43.9999 279L39 274.588" stroke="#BEBEBE" stroke-width="2" stroke-linecap="round"/>
<path d="M43.9999 413L43.9999 443M43.9999 443L49 438.588M43.9999 443L39 438.588" stroke="#BEBEBE" stroke-width="2" stroke-linecap="round"/>
<path d="M8.58984 220.047V226.814C8.58529 227.753 8.28906 228.521 7.70117 229.118C7.11784 229.715 6.32487 230.05 5.32227 230.123L4.97363 230.137C3.88444 230.137 3.01628 229.843 2.36914 229.255C1.72201 228.667 1.39388 227.858 1.38477 226.828V220.047H2.68359V226.787C2.68359 227.507 2.88184 228.068 3.27832 228.469C3.6748 228.865 4.23991 229.063 4.97363 229.063C5.71647 229.063 6.28385 228.865 6.67578 228.469C7.07227 228.072 7.27051 227.514 7.27051 226.794V220.047H8.58984ZM12.0693 230H10.7568V220.047H12.0693V230ZM17.6885 228.968L18.126 228.428C18.6182 227.79 18.8984 226.833 18.9668 225.557L19.083 222.604H23.8477V228.968H24.7979V232.174H23.5332V230H18.3721V232.174H17.1074L17.1143 228.968H17.6885ZM19.1855 228.968H22.583V223.772H20.3066L20.2314 225.536C20.154 227.008 19.8053 228.152 19.1855 228.968ZM30.9844 222.604H32.249V230H30.9844V224.606L27.5732 230H26.3086V222.604H27.5732V228.004L30.9844 222.604ZM38.3467 224.627C38.3467 224.281 38.2145 224.007 37.9502 223.807C37.6859 223.602 37.3236 223.499 36.8633 223.499C36.4167 223.499 36.043 223.615 35.7422 223.848C35.446 224.08 35.2979 224.354 35.2979 224.668H34.04C34.04 224.025 34.3089 223.499 34.8467 223.089C35.3844 222.679 36.0566 222.474 36.8633 222.474C37.7292 222.474 38.4036 222.66 38.8867 223.034C39.3698 223.403 39.6113 223.932 39.6113 224.62C39.6113 224.953 39.5111 225.258 39.3105 225.536C39.11 225.814 38.8252 226.035 38.4561 226.199C39.3174 226.491 39.748 227.065 39.748 227.922C39.748 228.601 39.486 229.139 38.9619 229.535C38.4378 229.932 37.7383 230.13 36.8633 230.13C36.0111 230.13 35.307 229.923 34.751 229.508C34.1995 229.089 33.9238 228.523 33.9238 227.812H35.1816C35.1816 228.173 35.3411 228.482 35.6602 228.742C35.9837 228.997 36.3848 229.125 36.8633 229.125C37.3464 229.125 37.736 229.013 38.0322 228.79C38.3285 228.567 38.4766 228.277 38.4766 227.922C38.4766 227.507 38.3512 227.211 38.1006 227.033C37.8545 226.851 37.4694 226.76 36.9453 226.76H35.6807V225.693H37.0547C37.916 225.671 38.3467 225.315 38.3467 224.627ZM47.4316 230H46.167V226.842H42.7695V230H41.498V222.604H42.7695V225.81H46.167V222.604H47.4316V230ZM54.0352 230C53.9622 229.854 53.903 229.594 53.8574 229.221C53.2695 229.831 52.5677 230.137 51.752 230.137C51.0228 230.137 50.4235 229.932 49.9541 229.521C49.4893 229.107 49.2568 228.583 49.2568 227.949C49.2568 227.179 49.5485 226.582 50.1318 226.158C50.7197 225.73 51.5446 225.516 52.6064 225.516H53.8369V224.935C53.8369 224.493 53.7048 224.142 53.4404 223.882C53.1761 223.618 52.7865 223.485 52.2715 223.485C51.8203 223.485 51.4421 223.599 51.1367 223.827C50.8314 224.055 50.6787 224.331 50.6787 224.654H49.4072C49.4072 224.285 49.5371 223.93 49.7969 223.588C50.0612 223.242 50.4167 222.968 50.8633 222.768C51.3145 222.567 51.8089 222.467 52.3467 222.467C53.1989 222.467 53.8665 222.681 54.3496 223.109C54.8327 223.533 55.0833 224.119 55.1016 224.866V228.271C55.1016 228.95 55.1882 229.49 55.3613 229.891V230H54.0352ZM51.9365 229.036C52.333 229.036 52.709 228.934 53.0645 228.729C53.4199 228.523 53.6774 228.257 53.8369 227.929V226.411H52.8457C51.2962 226.411 50.5215 226.865 50.5215 227.771C50.5215 228.168 50.6536 228.478 50.918 228.701C51.1823 228.924 51.5218 229.036 51.9365 229.036ZM61.8691 222.604H63.1338V230H61.8691V224.606L58.458 230H57.1934V222.604H58.458V228.004L61.8691 222.604ZM62.2109 219.91C62.2109 220.462 62.0218 220.906 61.6436 221.243C61.2699 221.576 60.7777 221.742 60.167 221.742C59.5563 221.742 59.0618 221.574 58.6836 221.236C58.3053 220.899 58.1162 220.457 58.1162 219.91H59.1484C59.1484 220.229 59.235 220.48 59.4082 220.662C59.5814 220.84 59.8343 220.929 60.167 220.929C60.486 220.929 60.7344 220.84 60.9121 220.662C61.0944 220.484 61.1855 220.234 61.1855 219.91H62.2109ZM71.207 230H69.9424V226.842H66.5449V230H65.2734V222.604H66.5449V225.81H69.9424V222.604H71.207V230ZM76.3135 230.137C75.3109 230.137 74.4951 229.809 73.8662 229.152C73.2373 228.492 72.9229 227.61 72.9229 226.507V226.274C72.9229 225.541 73.0618 224.887 73.3398 224.312C73.6224 223.734 74.0143 223.283 74.5156 222.959C75.0215 222.631 75.5684 222.467 76.1562 222.467C77.1178 222.467 77.8652 222.784 78.3984 223.417C78.9316 224.05 79.1982 224.957 79.1982 226.138V226.664H74.1875C74.2057 227.393 74.4176 227.983 74.8232 228.435C75.2334 228.881 75.7529 229.104 76.3818 229.104C76.8285 229.104 77.2067 229.013 77.5166 228.831C77.8265 228.649 78.0977 228.407 78.3301 228.106L79.1025 228.708C78.4827 229.66 77.5531 230.137 76.3135 230.137ZM76.1562 223.506C75.6458 223.506 75.2174 223.693 74.8711 224.066C74.5247 224.436 74.3105 224.955 74.2285 225.625H77.9336V225.529C77.8971 224.887 77.724 224.39 77.4141 224.039C77.1042 223.684 76.6849 223.506 76.1562 223.506ZM86.916 226.384C86.916 227.509 86.6585 228.416 86.1436 229.104C85.6286 229.793 84.9313 230.137 84.0518 230.137C83.154 230.137 82.4476 229.852 81.9326 229.282V232.844H80.668V222.604H81.8232L81.8848 223.424C82.3997 222.786 83.1152 222.467 84.0312 222.467C84.9199 222.467 85.6217 222.802 86.1367 223.472C86.6562 224.142 86.916 225.074 86.916 226.268V226.384ZM85.6514 226.24C85.6514 225.406 85.4736 224.748 85.1182 224.265C84.7627 223.782 84.2751 223.54 83.6553 223.54C82.8896 223.54 82.3154 223.88 81.9326 224.559V228.093C82.3109 228.767 82.8896 229.104 83.6689 229.104C84.2751 229.104 84.7559 228.865 85.1113 228.387C85.4714 227.904 85.6514 227.188 85.6514 226.24Z" fill="black"/>
<circle cx="43.5" cy="177" r="30" fill="#43BAD6"/>
<circle cx="43.5" cy="177" r="10" fill="white"/>
<circle cx="45" cy="324" r="30" fill="#F0F0F0"/>
<circle cx="45" cy="324" r="10" fill="#43BAD6"/>
<path d="M20.6895 372.604H16.5127V377H15.2002V367.047H21.3662V368.127H16.5127V371.531H20.6895V372.604ZM26.1377 370.738C25.9463 370.706 25.7389 370.69 25.5156 370.69C24.6862 370.69 24.1234 371.044 23.8271 371.75V377H22.5625V369.604H23.793L23.8135 370.458C24.2282 369.797 24.8161 369.467 25.5771 369.467C25.8232 369.467 26.0101 369.499 26.1377 369.562V370.738ZM26.835 373.233C26.835 372.509 26.9762 371.857 27.2588 371.278C27.5459 370.7 27.9424 370.253 28.4482 369.938C28.9587 369.624 29.5397 369.467 30.1914 369.467C31.1986 369.467 32.012 369.815 32.6318 370.513C33.2562 371.21 33.5684 372.137 33.5684 373.295V373.384C33.5684 374.104 33.4294 374.751 33.1514 375.325C32.8779 375.895 32.4837 376.339 31.9688 376.658C31.4583 376.977 30.8704 377.137 30.2051 377.137C29.2025 377.137 28.389 376.788 27.7646 376.091C27.1449 375.394 26.835 374.471 26.835 373.322V373.233ZM28.1064 373.384C28.1064 374.204 28.2956 374.863 28.6738 375.359C29.0566 375.856 29.5671 376.104 30.2051 376.104C30.8477 376.104 31.3581 375.854 31.7363 375.353C32.1146 374.847 32.3037 374.14 32.3037 373.233C32.3037 372.422 32.11 371.766 31.7227 371.265C31.3398 370.759 30.8294 370.506 30.1914 370.506C29.5671 370.506 29.0635 370.754 28.6807 371.251C28.2979 371.748 28.1064 372.459 28.1064 373.384ZM36.3506 369.604L36.3916 370.533C36.9567 369.822 37.695 369.467 38.6064 369.467C40.1696 369.467 40.958 370.349 40.9717 372.112V377H39.707V372.105C39.7025 371.572 39.5794 371.178 39.3379 370.923C39.1009 370.668 38.7295 370.54 38.2236 370.54C37.8135 370.54 37.4535 370.649 37.1436 370.868C36.8337 371.087 36.5921 371.374 36.4189 371.729V377H35.1543V369.604H36.3506ZM44.5947 367.812V369.604H45.9756V370.581H44.5947V375.168C44.5947 375.464 44.6562 375.688 44.7793 375.838C44.9023 375.984 45.112 376.057 45.4082 376.057C45.554 376.057 45.7546 376.029 46.0098 375.975V377C45.6771 377.091 45.3535 377.137 45.0391 377.137C44.474 377.137 44.0479 376.966 43.7607 376.624C43.4736 376.282 43.3301 375.797 43.3301 375.168V370.581H41.9834V369.604H43.3301V367.812H44.5947ZM50.0908 373.288H46.7549V372.256H50.0908V373.288ZM57.1523 372.399H52.8389V375.927H57.8496V377H51.5264V367.047H57.7812V368.127H52.8389V371.326H57.1523V372.399ZM60.4814 369.604L60.5225 370.533C61.0876 369.822 61.8258 369.467 62.7373 369.467C64.3005 369.467 65.0889 370.349 65.1025 372.112V377H63.8379V372.105C63.8333 371.572 63.7103 371.178 63.4688 370.923C63.2318 370.668 62.8604 370.54 62.3545 370.54C61.9443 370.54 61.5843 370.649 61.2744 370.868C60.9645 371.087 60.723 371.374 60.5498 371.729V377H59.2852V369.604H60.4814ZM66.7021 373.24C66.7021 372.105 66.971 371.194 67.5088 370.506C68.0465 369.813 68.7507 369.467 69.6211 369.467C70.487 369.467 71.1729 369.763 71.6787 370.355V366.5H72.9434V377H71.7812L71.7197 376.207C71.2139 376.827 70.5098 377.137 69.6074 377.137C68.7507 377.137 68.0511 376.786 67.5088 376.084C66.971 375.382 66.7021 374.466 66.7021 373.336V373.24ZM67.9668 373.384C67.9668 374.222 68.14 374.879 68.4863 375.353C68.8327 375.826 69.3112 376.063 69.9219 376.063C70.724 376.063 71.3096 375.703 71.6787 374.983V371.586C71.3005 370.889 70.7194 370.54 69.9355 370.54C69.3158 370.54 68.8327 370.779 68.4863 371.258C68.14 371.736 67.9668 372.445 67.9668 373.384ZM9.39648 390.384C9.39648 391.509 9.139 392.416 8.62402 393.104C8.10905 393.793 7.41178 394.137 6.53223 394.137C5.63444 394.137 4.92806 393.852 4.41309 393.282V396.844H3.14844V386.604H4.30371L4.36523 387.424C4.88021 386.786 5.5957 386.467 6.51172 386.467C7.40039 386.467 8.10221 386.802 8.61719 387.472C9.13672 388.142 9.39648 389.074 9.39648 390.268V390.384ZM8.13184 390.24C8.13184 389.406 7.9541 388.748 7.59863 388.265C7.24316 387.782 6.75553 387.54 6.13574 387.54C5.37012 387.54 4.7959 387.88 4.41309 388.559V392.093C4.79134 392.767 5.37012 393.104 6.14941 393.104C6.75553 393.104 7.23633 392.865 7.5918 392.387C7.95182 391.904 8.13184 391.188 8.13184 390.24ZM15.5762 394C15.5033 393.854 15.444 393.594 15.3984 393.221C14.8105 393.831 14.1087 394.137 13.293 394.137C12.5638 394.137 11.9645 393.932 11.4951 393.521C11.0303 393.107 10.7979 392.583 10.7979 391.949C10.7979 391.179 11.0895 390.582 11.6729 390.158C12.2607 389.73 13.0856 389.516 14.1475 389.516H15.3779V388.935C15.3779 388.493 15.2458 388.142 14.9814 387.882C14.7171 387.618 14.3275 387.485 13.8125 387.485C13.3613 387.485 12.9831 387.599 12.6777 387.827C12.3724 388.055 12.2197 388.331 12.2197 388.654H10.9482C10.9482 388.285 11.0781 387.93 11.3379 387.588C11.6022 387.242 11.9577 386.968 12.4043 386.768C12.8555 386.567 13.3499 386.467 13.8877 386.467C14.7399 386.467 15.4076 386.681 15.8906 387.109C16.3737 387.533 16.6243 388.119 16.6426 388.866V392.271C16.6426 392.95 16.7292 393.49 16.9023 393.891V394H15.5762ZM13.4775 393.036C13.874 393.036 14.25 392.934 14.6055 392.729C14.9609 392.523 15.2184 392.257 15.3779 391.929V390.411H14.3867C12.8372 390.411 12.0625 390.865 12.0625 391.771C12.0625 392.168 12.1947 392.478 12.459 392.701C12.7233 392.924 13.0628 393.036 13.4775 393.036ZM22.6924 388.627C22.6924 388.281 22.5602 388.007 22.2959 387.807C22.0316 387.602 21.6693 387.499 21.209 387.499C20.7624 387.499 20.3887 387.615 20.0879 387.848C19.7917 388.08 19.6436 388.354 19.6436 388.668H18.3857C18.3857 388.025 18.6546 387.499 19.1924 387.089C19.7301 386.679 20.4023 386.474 21.209 386.474C22.0749 386.474 22.7493 386.66 23.2324 387.034C23.7155 387.403 23.957 387.932 23.957 388.62C23.957 388.953 23.8568 389.258 23.6562 389.536C23.4557 389.814 23.1709 390.035 22.8018 390.199C23.6631 390.491 24.0938 391.065 24.0938 391.922C24.0938 392.601 23.8317 393.139 23.3076 393.535C22.7835 393.932 22.084 394.13 21.209 394.13C20.3568 394.13 19.6527 393.923 19.0967 393.508C18.5452 393.089 18.2695 392.523 18.2695 391.812H19.5273C19.5273 392.173 19.6868 392.482 20.0059 392.742C20.3294 392.997 20.7305 393.125 21.209 393.125C21.6921 393.125 22.0817 393.013 22.3779 392.79C22.6742 392.567 22.8223 392.277 22.8223 391.922C22.8223 391.507 22.6969 391.211 22.4463 391.033C22.2002 390.851 21.8151 390.76 21.291 390.76H20.0264V389.693H21.4004C22.2617 389.671 22.6924 389.315 22.6924 388.627ZM31.9824 390.384C31.9824 391.509 31.7249 392.416 31.21 393.104C30.695 393.793 29.9977 394.137 29.1182 394.137C28.2204 394.137 27.514 393.852 26.999 393.282V396.844H25.7344V386.604H26.8896L26.9512 387.424C27.4661 386.786 28.1816 386.467 29.0977 386.467C29.9863 386.467 30.6882 386.802 31.2031 387.472C31.7227 388.142 31.9824 389.074 31.9824 390.268V390.384ZM30.7178 390.24C30.7178 389.406 30.54 388.748 30.1846 388.265C29.8291 387.782 29.3415 387.54 28.7217 387.54C27.9561 387.54 27.3818 387.88 26.999 388.559V392.093C27.3773 392.767 27.9561 393.104 28.7354 393.104C29.3415 393.104 29.8223 392.865 30.1777 392.387C30.5378 391.904 30.7178 391.188 30.7178 390.24ZM38.1621 394C38.0892 393.854 38.0299 393.594 37.9844 393.221C37.3965 393.831 36.6947 394.137 35.8789 394.137C35.1497 394.137 34.5505 393.932 34.0811 393.521C33.6162 393.107 33.3838 392.583 33.3838 391.949C33.3838 391.179 33.6755 390.582 34.2588 390.158C34.8467 389.73 35.6715 389.516 36.7334 389.516H37.9639V388.935C37.9639 388.493 37.8317 388.142 37.5674 387.882C37.3031 387.618 36.9134 387.485 36.3984 387.485C35.9473 387.485 35.569 387.599 35.2637 387.827C34.9583 388.055 34.8057 388.331 34.8057 388.654H33.5342C33.5342 388.285 33.6641 387.93 33.9238 387.588C34.1882 387.242 34.5436 386.968 34.9902 386.768C35.4414 386.567 35.9359 386.467 36.4736 386.467C37.3258 386.467 37.9935 386.681 38.4766 387.109C38.9596 387.533 39.2103 388.119 39.2285 388.866V392.271C39.2285 392.95 39.3151 393.49 39.4883 393.891V394H38.1621ZM36.0635 393.036C36.46 393.036 36.8359 392.934 37.1914 392.729C37.5469 392.523 37.8044 392.257 37.9639 391.929V390.411H36.9727C35.4232 390.411 34.6484 390.865 34.6484 391.771C34.6484 392.168 34.7806 392.478 35.0449 392.701C35.3092 392.924 35.6488 393.036 36.0635 393.036ZM44.458 387.027C45.3877 387.027 46.1305 387.34 46.6865 387.964C47.2471 388.584 47.5273 389.402 47.5273 390.418V390.534C47.5273 391.231 47.3929 391.856 47.124 392.407C46.8551 392.954 46.4678 393.38 45.9619 393.686C45.4606 393.986 44.8818 394.137 44.2256 394.137C43.2321 394.137 42.4323 393.806 41.8262 393.146C41.2201 392.48 40.917 391.589 40.917 390.473V389.857C40.917 388.303 41.2041 387.068 41.7783 386.152C42.3571 385.236 43.2093 384.678 44.335 384.478C44.973 384.364 45.4036 384.225 45.627 384.061C45.8503 383.896 45.9619 383.671 45.9619 383.384H47.001C47.001 383.953 46.8711 384.398 46.6113 384.717C46.3561 385.036 45.946 385.261 45.3809 385.394L44.4375 385.605C43.6855 385.783 43.1204 386.084 42.7422 386.508C42.3685 386.927 42.1247 387.488 42.0107 388.189C42.6807 387.415 43.4964 387.027 44.458 387.027ZM44.2119 388.066C43.5921 388.066 43.0999 388.276 42.7354 388.695C42.3708 389.11 42.1885 389.687 42.1885 390.425V390.534C42.1885 391.327 42.3708 391.956 42.7354 392.421C43.1045 392.881 43.6012 393.111 44.2256 393.111C44.8545 393.111 45.3512 392.879 45.7158 392.414C46.0804 391.949 46.2627 391.27 46.2627 390.377C46.2627 389.68 46.0781 389.121 45.709 388.702C45.3444 388.278 44.8454 388.066 44.2119 388.066ZM48.6143 390.233C48.6143 389.509 48.7555 388.857 49.0381 388.278C49.3252 387.7 49.7217 387.253 50.2275 386.938C50.738 386.624 51.319 386.467 51.9707 386.467C52.9779 386.467 53.7913 386.815 54.4111 387.513C55.0355 388.21 55.3477 389.137 55.3477 390.295V390.384C55.3477 391.104 55.2087 391.751 54.9307 392.325C54.6572 392.895 54.263 393.339 53.748 393.658C53.2376 393.977 52.6497 394.137 51.9844 394.137C50.9818 394.137 50.1683 393.788 49.5439 393.091C48.9242 392.394 48.6143 391.471 48.6143 390.322V390.233ZM49.8857 390.384C49.8857 391.204 50.0749 391.863 50.4531 392.359C50.8359 392.856 51.3464 393.104 51.9844 393.104C52.627 393.104 53.1374 392.854 53.5156 392.353C53.8939 391.847 54.083 391.14 54.083 390.233C54.083 389.422 53.8893 388.766 53.502 388.265C53.1191 387.759 52.6087 387.506 51.9707 387.506C51.3464 387.506 50.8428 387.754 50.46 388.251C50.0771 388.748 49.8857 389.459 49.8857 390.384ZM62.2793 387.629H59.7979V394H58.5332V387.629H56.0996V386.604H62.2793V387.629ZM69.0947 394H67.8232V391.32C67.2673 391.466 66.6976 391.539 66.1143 391.539C65.1891 391.539 64.4827 391.302 63.9951 390.828C63.512 390.354 63.266 389.68 63.2568 388.805V386.597H64.5215V388.846C64.5443 389.949 65.0752 390.5 66.1143 390.5C66.6976 390.5 67.2673 390.427 67.8232 390.281V386.604H69.0947V394ZM75.9102 386.604H77.1748V394H75.9102V388.606L72.499 394H71.2344V386.604H72.499V392.004L75.9102 386.604ZM81.5088 390.849H80.5859V394H79.3145V386.604H80.5859V389.734H81.4131L83.9014 386.604H85.4326L82.5068 390.158L85.6787 394H84.0723L81.5088 390.849Z" fill="black"/>
<circle cx="44.5" cy="488" r="29.5" stroke="#CACACA"/>
<circle cx="44.5" cy="488" r="9.5" stroke="#43BAD6"/>
<path d="M16.0479 541V531.047H19.3018C20.3818 531.047 21.193 531.27 21.7354 531.717C22.2822 532.163 22.5557 532.824 22.5557 533.699C22.5557 534.164 22.4235 534.576 22.1592 534.937C21.8949 535.292 21.5348 535.568 21.0791 535.764C21.6169 535.914 22.0407 536.201 22.3506 536.625C22.665 537.044 22.8223 537.546 22.8223 538.129C22.8223 539.022 22.5329 539.724 21.9541 540.234C21.3753 540.745 20.5573 541 19.5 541H16.0479ZM17.3604 536.345V539.927H19.5273C20.138 539.927 20.6188 539.77 20.9697 539.455C21.3252 539.136 21.5029 538.699 21.5029 538.143C21.5029 536.944 20.8512 536.345 19.5479 536.345H17.3604ZM17.3604 535.292H19.3428C19.917 535.292 20.375 535.148 20.7168 534.861C21.0632 534.574 21.2363 534.185 21.2363 533.692C21.2363 533.146 21.0768 532.749 20.7578 532.503C20.4388 532.252 19.9535 532.127 19.3018 532.127H17.3604V535.292ZM29.1387 541C29.0658 540.854 29.0065 540.594 28.9609 540.221C28.373 540.831 27.6712 541.137 26.8555 541.137C26.1263 541.137 25.527 540.932 25.0576 540.521C24.5928 540.107 24.3604 539.583 24.3604 538.949C24.3604 538.179 24.652 537.582 25.2354 537.158C25.8232 536.73 26.6481 536.516 27.71 536.516H28.9404V535.935C28.9404 535.493 28.8083 535.142 28.5439 534.882C28.2796 534.618 27.89 534.485 27.375 534.485C26.9238 534.485 26.5456 534.599 26.2402 534.827C25.9349 535.055 25.7822 535.331 25.7822 535.654H24.5107C24.5107 535.285 24.6406 534.93 24.9004 534.588C25.1647 534.242 25.5202 533.968 25.9668 533.768C26.418 533.567 26.9124 533.467 27.4502 533.467C28.3024 533.467 28.9701 533.681 29.4531 534.109C29.9362 534.533 30.1868 535.119 30.2051 535.866V539.271C30.2051 539.95 30.2917 540.49 30.4648 540.891V541H29.1387ZM27.04 540.036C27.4365 540.036 27.8125 539.934 28.168 539.729C28.5234 539.523 28.7809 539.257 28.9404 538.929V537.411H27.9492C26.3997 537.411 25.625 537.865 25.625 538.771C25.625 539.168 25.7572 539.478 26.0215 539.701C26.2858 539.924 26.6253 540.036 27.04 540.036ZM35.1543 540.104C35.6055 540.104 35.9997 539.968 36.3369 539.694C36.6742 539.421 36.861 539.079 36.8975 538.669H38.0938C38.071 539.093 37.9251 539.496 37.6562 539.879C37.3874 540.262 37.0273 540.567 36.5762 540.795C36.1296 541.023 35.6556 541.137 35.1543 541.137C34.1471 541.137 33.3451 540.802 32.748 540.132C32.1556 539.457 31.8594 538.537 31.8594 537.37V537.158C31.8594 536.438 31.9915 535.798 32.2559 535.237C32.5202 534.677 32.8984 534.242 33.3906 533.932C33.8874 533.622 34.473 533.467 35.1475 533.467C35.9769 533.467 36.665 533.715 37.2119 534.212C37.7633 534.709 38.0573 535.354 38.0938 536.146H36.8975C36.861 535.668 36.6787 535.276 36.3506 534.971C36.027 534.661 35.626 534.506 35.1475 534.506C34.5049 534.506 34.0059 534.738 33.6504 535.203C33.2995 535.663 33.124 536.331 33.124 537.206V537.445C33.124 538.298 33.2995 538.954 33.6504 539.414C34.0013 539.874 34.5026 540.104 35.1543 540.104ZM41.5801 537.575L40.7871 538.402V541H39.5225V530.5H40.7871V536.851L41.4639 536.037L43.7676 533.604H45.3057L42.4277 536.693L45.6406 541H44.1572L41.5801 537.575ZM49.2432 537.288H45.9072V536.256H49.2432V537.288ZM56.3047 536.399H51.9912V539.927H57.002V541H50.6787V531.047H56.9336V532.127H51.9912V535.326H56.3047V536.399ZM59.6338 533.604L59.6748 534.533C60.2399 533.822 60.9782 533.467 61.8896 533.467C63.4528 533.467 64.2412 534.349 64.2549 536.112V541H62.9902V536.105C62.9857 535.572 62.8626 535.178 62.6211 534.923C62.3841 534.668 62.0127 534.54 61.5068 534.54C61.0967 534.54 60.7367 534.649 60.4268 534.868C60.1169 535.087 59.8753 535.374 59.7021 535.729V541H58.4375V533.604H59.6338ZM65.8545 537.24C65.8545 536.105 66.1234 535.194 66.6611 534.506C67.1989 533.813 67.903 533.467 68.7734 533.467C69.6393 533.467 70.3252 533.763 70.8311 534.355V530.5H72.0957V541H70.9336L70.8721 540.207C70.3662 540.827 69.6621 541.137 68.7598 541.137C67.903 541.137 67.2035 540.786 66.6611 540.084C66.1234 539.382 65.8545 538.466 65.8545 537.336V537.24ZM67.1191 537.384C67.1191 538.222 67.2923 538.879 67.6387 539.353C67.985 539.826 68.4635 540.063 69.0742 540.063C69.8763 540.063 70.4619 539.703 70.8311 538.983V535.586C70.4528 534.889 69.8717 534.54 69.0879 534.54C68.4681 534.54 67.985 534.779 67.6387 535.258C67.2923 535.736 67.1191 536.445 67.1191 537.384ZM9.39648 554.384C9.39648 555.509 9.139 556.416 8.62402 557.104C8.10905 557.793 7.41178 558.137 6.53223 558.137C5.63444 558.137 4.92806 557.852 4.41309 557.282V560.844H3.14844V550.604H4.30371L4.36523 551.424C4.88021 550.786 5.5957 550.467 6.51172 550.467C7.40039 550.467 8.10221 550.802 8.61719 551.472C9.13672 552.142 9.39648 553.074 9.39648 554.268V554.384ZM8.13184 554.24C8.13184 553.406 7.9541 552.748 7.59863 552.265C7.24316 551.782 6.75553 551.54 6.13574 551.54C5.37012 551.54 4.7959 551.88 4.41309 552.559V556.093C4.79134 556.767 5.37012 557.104 6.14941 557.104C6.75553 557.104 7.23633 556.865 7.5918 556.387C7.95182 555.904 8.13184 555.188 8.13184 554.24ZM15.5762 558C15.5033 557.854 15.444 557.594 15.3984 557.221C14.8105 557.831 14.1087 558.137 13.293 558.137C12.5638 558.137 11.9645 557.932 11.4951 557.521C11.0303 557.107 10.7979 556.583 10.7979 555.949C10.7979 555.179 11.0895 554.582 11.6729 554.158C12.2607 553.73 13.0856 553.516 14.1475 553.516H15.3779V552.935C15.3779 552.493 15.2458 552.142 14.9814 551.882C14.7171 551.618 14.3275 551.485 13.8125 551.485C13.3613 551.485 12.9831 551.599 12.6777 551.827C12.3724 552.055 12.2197 552.331 12.2197 552.654H10.9482C10.9482 552.285 11.0781 551.93 11.3379 551.588C11.6022 551.242 11.9577 550.968 12.4043 550.768C12.8555 550.567 13.3499 550.467 13.8877 550.467C14.7399 550.467 15.4076 550.681 15.8906 551.109C16.3737 551.533 16.6243 552.119 16.6426 552.866V556.271C16.6426 556.95 16.7292 557.49 16.9023 557.891V558H15.5762ZM13.4775 557.036C13.874 557.036 14.25 556.934 14.6055 556.729C14.9609 556.523 15.2184 556.257 15.3779 555.929V554.411H14.3867C12.8372 554.411 12.0625 554.865 12.0625 555.771C12.0625 556.168 12.1947 556.478 12.459 556.701C12.7233 556.924 13.0628 557.036 13.4775 557.036ZM22.6924 552.627C22.6924 552.281 22.5602 552.007 22.2959 551.807C22.0316 551.602 21.6693 551.499 21.209 551.499C20.7624 551.499 20.3887 551.615 20.0879 551.848C19.7917 552.08 19.6436 552.354 19.6436 552.668H18.3857C18.3857 552.025 18.6546 551.499 19.1924 551.089C19.7301 550.679 20.4023 550.474 21.209 550.474C22.0749 550.474 22.7493 550.66 23.2324 551.034C23.7155 551.403 23.957 551.932 23.957 552.62C23.957 552.953 23.8568 553.258 23.6562 553.536C23.4557 553.814 23.1709 554.035 22.8018 554.199C23.6631 554.491 24.0938 555.065 24.0938 555.922C24.0938 556.601 23.8317 557.139 23.3076 557.535C22.7835 557.932 22.084 558.13 21.209 558.13C20.3568 558.13 19.6527 557.923 19.0967 557.508C18.5452 557.089 18.2695 556.523 18.2695 555.812H19.5273C19.5273 556.173 19.6868 556.482 20.0059 556.742C20.3294 556.997 20.7305 557.125 21.209 557.125C21.6921 557.125 22.0817 557.013 22.3779 556.79C22.6742 556.567 22.8223 556.277 22.8223 555.922C22.8223 555.507 22.6969 555.211 22.4463 555.033C22.2002 554.851 21.8151 554.76 21.291 554.76H20.0264V553.693H21.4004C22.2617 553.671 22.6924 553.315 22.6924 552.627ZM31.9824 554.384C31.9824 555.509 31.7249 556.416 31.21 557.104C30.695 557.793 29.9977 558.137 29.1182 558.137C28.2204 558.137 27.514 557.852 26.999 557.282V560.844H25.7344V550.604H26.8896L26.9512 551.424C27.4661 550.786 28.1816 550.467 29.0977 550.467C29.9863 550.467 30.6882 550.802 31.2031 551.472C31.7227 552.142 31.9824 553.074 31.9824 554.268V554.384ZM30.7178 554.24C30.7178 553.406 30.54 552.748 30.1846 552.265C29.8291 551.782 29.3415 551.54 28.7217 551.54C27.9561 551.54 27.3818 551.88 26.999 552.559V556.093C27.3773 556.767 27.9561 557.104 28.7354 557.104C29.3415 557.104 29.8223 556.865 30.1777 556.387C30.5378 555.904 30.7178 555.188 30.7178 554.24ZM38.1621 558C38.0892 557.854 38.0299 557.594 37.9844 557.221C37.3965 557.831 36.6947 558.137 35.8789 558.137C35.1497 558.137 34.5505 557.932 34.0811 557.521C33.6162 557.107 33.3838 556.583 33.3838 555.949C33.3838 555.179 33.6755 554.582 34.2588 554.158C34.8467 553.73 35.6715 553.516 36.7334 553.516H37.9639V552.935C37.9639 552.493 37.8317 552.142 37.5674 551.882C37.3031 551.618 36.9134 551.485 36.3984 551.485C35.9473 551.485 35.569 551.599 35.2637 551.827C34.9583 552.055 34.8057 552.331 34.8057 552.654H33.5342C33.5342 552.285 33.6641 551.93 33.9238 551.588C34.1882 551.242 34.5436 550.968 34.9902 550.768C35.4414 550.567 35.9359 550.467 36.4736 550.467C37.3258 550.467 37.9935 550.681 38.4766 551.109C38.9596 551.533 39.2103 552.119 39.2285 552.866V556.271C39.2285 556.95 39.3151 557.49 39.4883 557.891V558H38.1621ZM36.0635 557.036C36.46 557.036 36.8359 556.934 37.1914 556.729C37.5469 556.523 37.8044 556.257 37.9639 555.929V554.411H36.9727C35.4232 554.411 34.6484 554.865 34.6484 555.771C34.6484 556.168 34.7806 556.478 35.0449 556.701C35.3092 556.924 35.6488 557.036 36.0635 557.036ZM44.458 551.027C45.3877 551.027 46.1305 551.34 46.6865 551.964C47.2471 552.584 47.5273 553.402 47.5273 554.418V554.534C47.5273 555.231 47.3929 555.856 47.124 556.407C46.8551 556.954 46.4678 557.38 45.9619 557.686C45.4606 557.986 44.8818 558.137 44.2256 558.137C43.2321 558.137 42.4323 557.806 41.8262 557.146C41.2201 556.48 40.917 555.589 40.917 554.473V553.857C40.917 552.303 41.2041 551.068 41.7783 550.152C42.3571 549.236 43.2093 548.678 44.335 548.478C44.973 548.364 45.4036 548.225 45.627 548.061C45.8503 547.896 45.9619 547.671 45.9619 547.384H47.001C47.001 547.953 46.8711 548.398 46.6113 548.717C46.3561 549.036 45.946 549.261 45.3809 549.394L44.4375 549.605C43.6855 549.783 43.1204 550.084 42.7422 550.508C42.3685 550.927 42.1247 551.488 42.0107 552.189C42.6807 551.415 43.4964 551.027 44.458 551.027ZM44.2119 552.066C43.5921 552.066 43.0999 552.276 42.7354 552.695C42.3708 553.11 42.1885 553.687 42.1885 554.425V554.534C42.1885 555.327 42.3708 555.956 42.7354 556.421C43.1045 556.881 43.6012 557.111 44.2256 557.111C44.8545 557.111 45.3512 556.879 45.7158 556.414C46.0804 555.949 46.2627 555.27 46.2627 554.377C46.2627 553.68 46.0781 553.121 45.709 552.702C45.3444 552.278 44.8454 552.066 44.2119 552.066ZM48.6143 554.233C48.6143 553.509 48.7555 552.857 49.0381 552.278C49.3252 551.7 49.7217 551.253 50.2275 550.938C50.738 550.624 51.319 550.467 51.9707 550.467C52.9779 550.467 53.7913 550.815 54.4111 551.513C55.0355 552.21 55.3477 553.137 55.3477 554.295V554.384C55.3477 555.104 55.2087 555.751 54.9307 556.325C54.6572 556.895 54.263 557.339 53.748 557.658C53.2376 557.977 52.6497 558.137 51.9844 558.137C50.9818 558.137 50.1683 557.788 49.5439 557.091C48.9242 556.394 48.6143 555.471 48.6143 554.322V554.233ZM49.8857 554.384C49.8857 555.204 50.0749 555.863 50.4531 556.359C50.8359 556.856 51.3464 557.104 51.9844 557.104C52.627 557.104 53.1374 556.854 53.5156 556.353C53.8939 555.847 54.083 555.14 54.083 554.233C54.083 553.422 53.8893 552.766 53.502 552.265C53.1191 551.759 52.6087 551.506 51.9707 551.506C51.3464 551.506 50.8428 551.754 50.46 552.251C50.0771 552.748 49.8857 553.459 49.8857 554.384ZM62.2793 551.629H59.7979V558H58.5332V551.629H56.0996V550.604H62.2793V551.629ZM69.0947 558H67.8232V555.32C67.2673 555.466 66.6976 555.539 66.1143 555.539C65.1891 555.539 64.4827 555.302 63.9951 554.828C63.512 554.354 63.266 553.68 63.2568 552.805V550.597H64.5215V552.846C64.5443 553.949 65.0752 554.5 66.1143 554.5C66.6976 554.5 67.2673 554.427 67.8232 554.281V550.604H69.0947V558ZM75.9102 550.604H77.1748V558H75.9102V552.606L72.499 558H71.2344V550.604H72.499V556.004L75.9102 550.604ZM81.5088 554.849H80.5859V558H79.3145V550.604H80.5859V553.734H81.4131L83.9014 550.604H85.4326L82.5068 554.158L85.6787 558H84.0723L81.5088 554.849Z" fill="black"/>
</svg>
