<svg width="114" height="381" viewBox="0 0 114 381" fill="none" xmlns="http://www.w3.org/2000/svg">
<circle cx="57" cy="30" r="29.5" stroke="#CACACA"/>
<circle cx="57" cy="30" r="9.5" stroke="#43BAD6"/>
<path d="M56.9999 102L56.9999 132M56.9999 132L62 127.522M56.9999 132L52 127.522" stroke="#BEBEBE" stroke-width="2" stroke-linecap="round"/>
<path d="M56.9999 249L56.9999 279M56.9999 249L62 253.412M56.9999 249L52 253.412M56.9999 279L62 274.588M56.9999 279L52 274.588" stroke="#BEBEBE" stroke-width="2" stroke-linecap="round"/>
<path d="M36.7393 78.5293H35.5293V83H34.2168V73.0469H35.5293V77.4355H36.5547L40.0342 73.0469H41.668L37.8672 77.873L41.9482 83H40.3418L36.7393 78.5293ZM49.0166 75.6035V83H47.7451V76.6494H45.2295L45.0791 79.418C44.9971 80.6895 44.7829 81.5986 44.4365 82.1455C44.0947 82.6924 43.5501 82.9772 42.8027 83H42.2969V81.8857L42.6592 81.8584C43.0693 81.8128 43.3633 81.5758 43.541 81.1475C43.7188 80.7191 43.8327 79.9261 43.8828 78.7686L44.0195 75.6035H49.0166ZM55.832 75.6035H57.0967V83H55.832V77.6064L52.4209 83H51.1562V75.6035H52.4209V81.0039L55.832 75.6035ZM62.1963 83.1367C61.1937 83.1367 60.3779 82.8086 59.749 82.1523C59.1201 81.4915 58.8057 80.6097 58.8057 79.5068V79.2744C58.8057 78.5407 58.9447 77.8867 59.2227 77.3125C59.5052 76.7337 59.8971 76.2826 60.3984 75.959C60.9043 75.6309 61.4512 75.4668 62.0391 75.4668C63.0007 75.4668 63.748 75.7835 64.2812 76.417C64.8145 77.0505 65.0811 77.9574 65.0811 79.1377V79.6641H60.0703C60.0885 80.3932 60.3005 80.9834 60.7061 81.4346C61.1162 81.8812 61.6357 82.1045 62.2646 82.1045C62.7113 82.1045 63.0895 82.0133 63.3994 81.8311C63.7093 81.6488 63.9805 81.4072 64.2129 81.1064L64.9854 81.708C64.3656 82.6605 63.4359 83.1367 62.1963 83.1367ZM62.0391 76.5059C61.5286 76.5059 61.1003 76.6927 60.7539 77.0664C60.4076 77.4355 60.1934 77.9551 60.1113 78.625H63.8164V78.5293C63.7799 77.8867 63.6068 77.39 63.2969 77.0391C62.987 76.6836 62.5677 76.5059 62.0391 76.5059ZM72.5938 83H71.3291V79.8418H67.9316V83H66.6602V75.6035H67.9316V78.8096H71.3291V75.6035H72.5938V83ZM80.127 76.6289H77.6455V83H76.3809V76.6289H73.9473V75.6035H80.127V76.6289Z" fill="black"/>
<circle cx="57.5" cy="177" r="29.5" stroke="#CACACA"/>
<circle cx="57.5" cy="177" r="10" fill="#43BAD6"/>
<path d="M25.1172 220.047L28.3711 228.168L31.625 220.047H33.3271V230H32.0146V226.124L32.1377 221.94L28.8701 230H27.8652L24.6045 221.961L24.7344 226.124V230H23.4219V220.047H25.1172ZM38.5156 230.137C37.513 230.137 36.6973 229.809 36.0684 229.152C35.4395 228.492 35.125 227.61 35.125 226.507V226.274C35.125 225.541 35.264 224.887 35.542 224.312C35.8245 223.734 36.2165 223.283 36.7178 222.959C37.2236 222.631 37.7705 222.467 38.3584 222.467C39.32 222.467 40.0674 222.784 40.6006 223.417C41.1338 224.05 41.4004 224.957 41.4004 226.138V226.664H36.3896C36.4079 227.393 36.6198 227.983 37.0254 228.435C37.4355 228.881 37.9551 229.104 38.584 229.104C39.0306 229.104 39.4089 229.013 39.7188 228.831C40.0286 228.649 40.2998 228.407 40.5322 228.106L41.3047 228.708C40.6849 229.66 39.7552 230.137 38.5156 230.137ZM38.3584 223.506C37.848 223.506 37.4196 223.693 37.0732 224.066C36.7269 224.436 36.5127 224.955 36.4307 225.625H40.1357V225.529C40.0993 224.887 39.9261 224.39 39.6162 224.039C39.3063 223.684 38.887 223.506 38.3584 223.506ZM48.9131 230H47.6484V226.842H44.251V230H42.9795V222.604H44.251V225.81H47.6484V222.604H48.9131V230ZM54.0195 230.137C53.0169 230.137 52.2012 229.809 51.5723 229.152C50.9434 228.492 50.6289 227.61 50.6289 226.507V226.274C50.6289 225.541 50.7679 224.887 51.0459 224.312C51.3285 223.734 51.7204 223.283 52.2217 222.959C52.7275 222.631 53.2744 222.467 53.8623 222.467C54.8239 222.467 55.5713 222.784 56.1045 223.417C56.6377 224.05 56.9043 224.957 56.9043 226.138V226.664H51.8936C51.9118 227.393 52.1237 227.983 52.5293 228.435C52.9395 228.881 53.459 229.104 54.0879 229.104C54.5345 229.104 54.9128 229.013 55.2227 228.831C55.5326 228.649 55.8037 228.407 56.0361 228.106L56.8086 228.708C56.1888 229.66 55.2591 230.137 54.0195 230.137ZM53.8623 223.506C53.3519 223.506 52.9235 223.693 52.5771 224.066C52.2308 224.436 52.0166 224.955 51.9346 225.625H55.6396V225.529C55.6032 224.887 55.43 224.39 55.1201 224.039C54.8102 223.684 54.391 223.506 53.8623 223.506ZM58.3125 228.968L58.75 228.428C59.2422 227.79 59.5225 226.833 59.5908 225.557L59.707 222.604H64.4717V228.968H65.4219V232.174H64.1572V230H58.9961V232.174H57.7314L57.7383 228.968H58.3125ZM59.8096 228.968H63.207V223.772H60.9307L60.8555 225.536C60.778 227.008 60.4294 228.152 59.8096 228.968ZM72.7227 226.787H71.834V230H70.5693V226.787H69.6807L67.6094 230H66.0098L68.6553 226.172L66.2627 222.604H67.7939L69.7012 225.666H70.5693V222.604H71.834V225.666H72.6953L74.6162 222.604H76.1475L73.748 226.179L76.3936 230H74.7939L72.7227 226.787ZM80.4746 230.137C79.472 230.137 78.6562 229.809 78.0273 229.152C77.3984 228.492 77.084 227.61 77.084 226.507V226.274C77.084 225.541 77.223 224.887 77.501 224.312C77.7835 223.734 78.1755 223.283 78.6768 222.959C79.1826 222.631 79.7295 222.467 80.3174 222.467C81.279 222.467 82.0264 222.784 82.5596 223.417C83.0928 224.05 83.3594 224.957 83.3594 226.138V226.664H78.3486C78.3669 227.393 78.5788 227.983 78.9844 228.435C79.3945 228.881 79.9141 229.104 80.543 229.104C80.9896 229.104 81.3678 229.013 81.6777 228.831C81.9876 228.649 82.2588 228.407 82.4912 228.106L83.2637 228.708C82.6439 229.66 81.7142 230.137 80.4746 230.137ZM80.3174 223.506C79.807 223.506 79.3786 223.693 79.0322 224.066C78.6859 224.436 78.4717 224.955 78.3896 225.625H82.0947V225.529C82.0583 224.887 81.8851 224.39 81.5752 224.039C81.2653 223.684 80.846 223.506 80.3174 223.506ZM91.0771 226.384C91.0771 227.509 90.8197 228.416 90.3047 229.104C89.7897 229.793 89.0924 230.137 88.2129 230.137C87.3151 230.137 86.6087 229.852 86.0938 229.282V232.844H84.8291V222.604H85.9844L86.0459 223.424C86.5609 222.786 87.2764 222.467 88.1924 222.467C89.0811 222.467 89.7829 222.802 90.2979 223.472C90.8174 224.142 91.0771 225.074 91.0771 226.268V226.384ZM89.8125 226.24C89.8125 225.406 89.6348 224.748 89.2793 224.265C88.9238 223.782 88.4362 223.54 87.8164 223.54C87.0508 223.54 86.4766 223.88 86.0938 224.559V228.093C86.472 228.767 87.0508 229.104 87.8301 229.104C88.4362 229.104 88.917 228.865 89.2725 228.387C89.6325 227.904 89.8125 227.188 89.8125 226.24Z" fill="black"/>
<circle cx="57.5" cy="324" r="30" fill="#F0F0F0"/>
<circle cx="57.5" cy="324" r="10" fill="#43BAD6"/>
<path d="M7.37793 368.127H2.5791V371.107H5.05371C6.09277 371.121 6.90397 371.388 7.4873 371.907C8.07064 372.427 8.3623 373.133 8.3623 374.026C8.3623 374.924 8.06836 375.64 7.48047 376.173C6.89258 376.706 6.09049 376.982 5.07422 377H1.25977V367.047H7.37793V368.127ZM2.5791 372.188V375.927H4.97852C5.63021 375.927 6.13607 375.754 6.49609 375.407C6.86068 375.061 7.04297 374.596 7.04297 374.013C7.04297 373.452 6.86751 373.01 6.5166 372.687C6.17025 372.363 5.67578 372.197 5.0332 372.188H2.5791ZM14.7266 369.604H15.9912V377H14.7266V371.606L11.3154 377H10.0508V369.604H11.3154V375.004L14.7266 369.604ZM22.0889 371.627C22.0889 371.281 21.9567 371.007 21.6924 370.807C21.4281 370.602 21.0658 370.499 20.6055 370.499C20.1589 370.499 19.7852 370.615 19.4844 370.848C19.1882 371.08 19.04 371.354 19.04 371.668H17.7822C17.7822 371.025 18.0511 370.499 18.5889 370.089C19.1266 369.679 19.7988 369.474 20.6055 369.474C21.4714 369.474 22.1458 369.66 22.6289 370.034C23.112 370.403 23.3535 370.932 23.3535 371.62C23.3535 371.953 23.2533 372.258 23.0527 372.536C22.8522 372.814 22.5674 373.035 22.1982 373.199C23.0596 373.491 23.4902 374.065 23.4902 374.922C23.4902 375.601 23.2282 376.139 22.7041 376.535C22.18 376.932 21.4805 377.13 20.6055 377.13C19.7533 377.13 19.0492 376.923 18.4932 376.508C17.9417 376.089 17.666 375.523 17.666 374.812H18.9238C18.9238 375.173 19.0833 375.482 19.4023 375.742C19.7259 375.997 20.127 376.125 20.6055 376.125C21.0885 376.125 21.4782 376.013 21.7744 375.79C22.0706 375.567 22.2188 375.277 22.2188 374.922C22.2188 374.507 22.0934 374.211 21.8428 374.033C21.5967 373.851 21.2116 373.76 20.6875 373.76H19.4229V372.693H20.7969C21.6582 372.671 22.0889 372.315 22.0889 371.627ZM31.1738 377H29.9092V373.842H26.5117V377H25.2402V369.604H26.5117V372.81H29.9092V369.604H31.1738V377ZM36.2803 377.137C35.2777 377.137 34.4619 376.809 33.833 376.152C33.2041 375.492 32.8896 374.61 32.8896 373.507V373.274C32.8896 372.541 33.0286 371.887 33.3066 371.312C33.5892 370.734 33.9811 370.283 34.4824 369.959C34.9883 369.631 35.5352 369.467 36.123 369.467C37.0846 369.467 37.832 369.784 38.3652 370.417C38.8984 371.05 39.165 371.957 39.165 373.138V373.664H34.1543C34.1725 374.393 34.3844 374.983 34.79 375.435C35.2002 375.881 35.7197 376.104 36.3486 376.104C36.7952 376.104 37.1735 376.013 37.4834 375.831C37.7933 375.649 38.0645 375.407 38.2969 375.106L39.0693 375.708C38.4495 376.66 37.5199 377.137 36.2803 377.137ZM36.123 370.506C35.6126 370.506 35.1842 370.693 34.8379 371.066C34.4915 371.436 34.2773 371.955 34.1953 372.625H37.9004V372.529C37.8639 371.887 37.6908 371.39 37.3809 371.039C37.071 370.684 36.6517 370.506 36.123 370.506ZM43.6016 376.104C44.0527 376.104 44.4469 375.968 44.7842 375.694C45.1214 375.421 45.3083 375.079 45.3447 374.669H46.541C46.5182 375.093 46.3724 375.496 46.1035 375.879C45.8346 376.262 45.4746 376.567 45.0234 376.795C44.5768 377.023 44.1029 377.137 43.6016 377.137C42.5944 377.137 41.7923 376.802 41.1953 376.132C40.6029 375.457 40.3066 374.537 40.3066 373.37V373.158C40.3066 372.438 40.4388 371.798 40.7031 371.237C40.9674 370.677 41.3457 370.242 41.8379 369.932C42.3346 369.622 42.9202 369.467 43.5947 369.467C44.4242 369.467 45.1123 369.715 45.6592 370.212C46.2106 370.709 46.5046 371.354 46.541 372.146H45.3447C45.3083 371.668 45.126 371.276 44.7979 370.971C44.4743 370.661 44.0732 370.506 43.5947 370.506C42.9521 370.506 42.4531 370.738 42.0977 371.203C41.7467 371.663 41.5713 372.331 41.5713 373.206V373.445C41.5713 374.298 41.7467 374.954 42.0977 375.414C42.4486 375.874 42.9499 376.104 43.6016 376.104ZM57.1299 374.402H52.96L52.0234 377H50.6699L54.4707 367.047H55.6191L59.4268 377H58.0801L57.1299 374.402ZM53.3564 373.322H56.7402L55.0449 368.667L53.3564 373.322ZM66.6113 377H65.3467V373.842H61.9492V377H60.6777V369.604H61.9492V372.81H65.3467V369.604H66.6113V377ZM73.2148 377C73.1419 376.854 73.0827 376.594 73.0371 376.221C72.4492 376.831 71.7474 377.137 70.9316 377.137C70.2025 377.137 69.6032 376.932 69.1338 376.521C68.6689 376.107 68.4365 375.583 68.4365 374.949C68.4365 374.179 68.7282 373.582 69.3115 373.158C69.8994 372.73 70.7243 372.516 71.7861 372.516H73.0166V371.935C73.0166 371.493 72.8844 371.142 72.6201 370.882C72.3558 370.618 71.9661 370.485 71.4512 370.485C71 370.485 70.6217 370.599 70.3164 370.827C70.0111 371.055 69.8584 371.331 69.8584 371.654H68.5869C68.5869 371.285 68.7168 370.93 68.9766 370.588C69.2409 370.242 69.5964 369.968 70.043 369.768C70.4941 369.567 70.9886 369.467 71.5264 369.467C72.3786 369.467 73.0462 369.681 73.5293 370.109C74.0124 370.533 74.263 371.119 74.2812 371.866V375.271C74.2812 375.95 74.3678 376.49 74.541 376.891V377H73.2148ZM71.1162 376.036C71.5127 376.036 71.8887 375.934 72.2441 375.729C72.5996 375.523 72.8571 375.257 73.0166 374.929V373.411H72.0254C70.4759 373.411 69.7012 373.865 69.7012 374.771C69.7012 375.168 69.8333 375.478 70.0977 375.701C70.362 375.924 70.7015 376.036 71.1162 376.036ZM82.3271 369.604V377H81.0557V370.649H78.54L78.3896 373.418C78.3076 374.689 78.0934 375.599 77.7471 376.146C77.4053 376.692 76.8607 376.977 76.1133 377H75.6074V375.886L75.9697 375.858C76.3799 375.813 76.6738 375.576 76.8516 375.147C77.0293 374.719 77.1432 373.926 77.1934 372.769L77.3301 369.604H82.3271ZM89.1426 369.604H90.4072V377H89.1426V371.606L85.7314 377H84.4668V369.604H85.7314V375.004L89.1426 369.604ZM97.9336 370.629H95.4521V377H94.1875V370.629H91.7539V369.604H97.9336V370.629ZM103.949 369.604H105.214V377H103.949V371.606L100.538 377H99.2734V369.604H100.538V375.004L103.949 369.604ZM109.548 373.849H108.625V377H107.354V369.604H108.625V372.734H109.452L111.94 369.604H113.472L110.546 373.158L113.718 377H112.111L109.548 373.849Z" fill="black"/>
</svg>
