<svg width="442" height="143" viewBox="0 0 442 143" fill="none" xmlns="http://www.w3.org/2000/svg">
<circle cx="412" cy="86" r="29.5" stroke="#CACACA"/>
<circle cx="412" cy="86" r="9.5" stroke="#43BAD6"/>
<path d="M133.5 86.0001H167.5M167.5 86.0001L162.5 81M167.5 86.0001L162.5 91" stroke="#BEBEBE" stroke-width="2" stroke-linecap="round"/>
<path d="M207 48C207 48 191.381 28 150.5 28C107.866 28 94 48 94 48" stroke="#BEBEBE" stroke-width="2" stroke-linecap="round" stroke-dasharray="0.5 4"/>
<path d="M391.739 134.529H390.529V139H389.217V129.047H390.529V133.436H391.555L395.034 129.047H396.668L392.867 133.873L396.948 139H395.342L391.739 134.529ZM404.017 131.604V139H402.745V132.649H400.229L400.079 135.418C399.997 136.689 399.783 137.599 399.437 138.146C399.095 138.692 398.55 138.977 397.803 139H397.297V137.886L397.659 137.858C398.069 137.813 398.363 137.576 398.541 137.147C398.719 136.719 398.833 135.926 398.883 134.769L399.02 131.604H404.017ZM410.832 131.604H412.097V139H410.832V133.606L407.421 139H406.156V131.604H407.421V137.004L410.832 131.604ZM417.196 139.137C416.194 139.137 415.378 138.809 414.749 138.152C414.12 137.492 413.806 136.61 413.806 135.507V135.274C413.806 134.541 413.945 133.887 414.223 133.312C414.505 132.734 414.897 132.283 415.398 131.959C415.904 131.631 416.451 131.467 417.039 131.467C418.001 131.467 418.748 131.784 419.281 132.417C419.814 133.05 420.081 133.957 420.081 135.138V135.664H415.07C415.089 136.393 415.3 136.983 415.706 137.435C416.116 137.881 416.636 138.104 417.265 138.104C417.711 138.104 418.09 138.013 418.399 137.831C418.709 137.649 418.98 137.407 419.213 137.106L419.985 137.708C419.366 138.66 418.436 139.137 417.196 139.137ZM417.039 132.506C416.529 132.506 416.1 132.693 415.754 133.066C415.408 133.436 415.193 133.955 415.111 134.625H418.816V134.529C418.78 133.887 418.607 133.39 418.297 133.039C417.987 132.684 417.568 132.506 417.039 132.506ZM427.594 139H426.329V135.842H422.932V139H421.66V131.604H422.932V134.81H426.329V131.604H427.594V139ZM435.127 132.629H432.646V139H431.381V132.629H428.947V131.604H435.127V132.629Z" fill="black"/>
<circle cx="63.5" cy="86" r="29.5" stroke="#CACACA"/>
<circle cx="63.5" cy="86" r="10" fill="#43BAD6"/>
<path d="M3.30957 129.047L6.56348 137.168L9.81738 129.047H11.5195V139H10.207V135.124L10.3301 130.94L7.0625 139H6.05762L2.79688 130.961L2.92676 135.124V139H1.61426V129.047H3.30957ZM16.708 139.137C15.7054 139.137 14.8896 138.809 14.2607 138.152C13.6318 137.492 13.3174 136.61 13.3174 135.507V135.274C13.3174 134.541 13.4564 133.887 13.7344 133.312C14.0169 132.734 14.4089 132.283 14.9102 131.959C15.416 131.631 15.9629 131.467 16.5508 131.467C17.5124 131.467 18.2598 131.784 18.793 132.417C19.3262 133.05 19.5928 133.957 19.5928 135.138V135.664H14.582C14.6003 136.393 14.8122 136.983 15.2178 137.435C15.6279 137.881 16.1475 138.104 16.7764 138.104C17.223 138.104 17.6012 138.013 17.9111 137.831C18.221 137.649 18.4922 137.407 18.7246 137.106L19.4971 137.708C18.8773 138.66 17.9476 139.137 16.708 139.137ZM16.5508 132.506C16.0404 132.506 15.612 132.693 15.2656 133.066C14.9193 133.436 14.7051 133.955 14.623 134.625H18.3281V134.529C18.2917 133.887 18.1185 133.39 17.8086 133.039C17.4987 132.684 17.0794 132.506 16.5508 132.506ZM27.1055 139H25.8408V135.842H22.4434V139H21.1719V131.604H22.4434V134.81H25.8408V131.604H27.1055V139ZM32.2119 139.137C31.2093 139.137 30.3936 138.809 29.7646 138.152C29.1357 137.492 28.8213 136.61 28.8213 135.507V135.274C28.8213 134.541 28.9603 133.887 29.2383 133.312C29.5208 132.734 29.9128 132.283 30.4141 131.959C30.9199 131.631 31.4668 131.467 32.0547 131.467C33.0163 131.467 33.7637 131.784 34.2969 132.417C34.8301 133.05 35.0967 133.957 35.0967 135.138V135.664H30.0859C30.1042 136.393 30.3161 136.983 30.7217 137.435C31.1318 137.881 31.6514 138.104 32.2803 138.104C32.7269 138.104 33.1051 138.013 33.415 137.831C33.7249 137.649 33.9961 137.407 34.2285 137.106L35.001 137.708C34.3812 138.66 33.4515 139.137 32.2119 139.137ZM32.0547 132.506C31.5443 132.506 31.1159 132.693 30.7695 133.066C30.4232 133.436 30.209 133.955 30.127 134.625H33.832V134.529C33.7956 133.887 33.6224 133.39 33.3125 133.039C33.0026 132.684 32.5833 132.506 32.0547 132.506ZM36.5049 137.968L36.9424 137.428C37.4346 136.79 37.7148 135.833 37.7832 134.557L37.8994 131.604H42.6641V137.968H43.6143V141.174H42.3496V139H37.1885V141.174H35.9238L35.9307 137.968H36.5049ZM38.002 137.968H41.3994V132.772H39.123L39.0479 134.536C38.9704 136.008 38.6217 137.152 38.002 137.968ZM50.915 135.787H50.0264V139H48.7617V135.787H47.873L45.8018 139H44.2021L46.8477 135.172L44.4551 131.604H45.9863L47.8936 134.666H48.7617V131.604H50.0264V134.666H50.8877L52.8086 131.604H54.3398L51.9404 135.179L54.5859 139H52.9863L50.915 135.787ZM58.667 139.137C57.6644 139.137 56.8486 138.809 56.2197 138.152C55.5908 137.492 55.2764 136.61 55.2764 135.507V135.274C55.2764 134.541 55.4154 133.887 55.6934 133.312C55.9759 132.734 56.3678 132.283 56.8691 131.959C57.375 131.631 57.9219 131.467 58.5098 131.467C59.4714 131.467 60.2188 131.784 60.752 132.417C61.2852 133.05 61.5518 133.957 61.5518 135.138V135.664H56.541C56.5592 136.393 56.7712 136.983 57.1768 137.435C57.5869 137.881 58.1064 138.104 58.7354 138.104C59.182 138.104 59.5602 138.013 59.8701 137.831C60.18 137.649 60.4512 137.407 60.6836 137.106L61.4561 137.708C60.8363 138.66 59.9066 139.137 58.667 139.137ZM58.5098 132.506C57.9993 132.506 57.571 132.693 57.2246 133.066C56.8783 133.436 56.6641 133.955 56.582 134.625H60.2871V134.529C60.2507 133.887 60.0775 133.39 59.7676 133.039C59.4577 132.684 59.0384 132.506 58.5098 132.506ZM69.2695 135.384C69.2695 136.509 69.012 137.416 68.4971 138.104C67.9821 138.793 67.2848 139.137 66.4053 139.137C65.5075 139.137 64.8011 138.852 64.2861 138.282V141.844H63.0215V131.604H64.1768L64.2383 132.424C64.7533 131.786 65.4688 131.467 66.3848 131.467C67.2734 131.467 67.9753 131.802 68.4902 132.472C69.0098 133.142 69.2695 134.074 69.2695 135.268V135.384ZM68.0049 135.24C68.0049 134.406 67.8271 133.748 67.4717 133.265C67.1162 132.782 66.6286 132.54 66.0088 132.54C65.2432 132.54 64.6689 132.88 64.2861 133.559V137.093C64.6644 137.767 65.2432 138.104 66.0225 138.104C66.6286 138.104 67.1094 137.865 67.4648 137.387C67.8249 136.904 68.0049 136.188 68.0049 135.24ZM80.4053 139H79.1406V132.649H75.7363V139H74.4648V131.604H80.4053V139ZM88.6836 135.384C88.6836 136.509 88.4261 137.416 87.9111 138.104C87.3962 138.793 86.6989 139.137 85.8193 139.137C84.9215 139.137 84.2152 138.852 83.7002 138.282V141.844H82.4355V131.604H83.5908L83.6523 132.424C84.1673 131.786 84.8828 131.467 85.7988 131.467C86.6875 131.467 87.3893 131.802 87.9043 132.472C88.4238 133.142 88.6836 134.074 88.6836 135.268V135.384ZM87.4189 135.24C87.4189 134.406 87.2412 133.748 86.8857 133.265C86.5303 132.782 86.0426 132.54 85.4229 132.54C84.6572 132.54 84.083 132.88 83.7002 133.559V137.093C84.0785 137.767 84.6572 138.104 85.4365 138.104C86.0426 138.104 86.5234 137.865 86.8789 137.387C87.2389 136.904 87.4189 136.188 87.4189 135.24ZM89.9619 135.233C89.9619 134.509 90.1032 133.857 90.3857 133.278C90.6729 132.7 91.0693 132.253 91.5752 131.938C92.0856 131.624 92.6667 131.467 93.3184 131.467C94.3255 131.467 95.139 131.815 95.7588 132.513C96.3831 133.21 96.6953 134.137 96.6953 135.295V135.384C96.6953 136.104 96.5563 136.751 96.2783 137.325C96.0049 137.895 95.6107 138.339 95.0957 138.658C94.5853 138.977 93.9974 139.137 93.332 139.137C92.3294 139.137 91.516 138.788 90.8916 138.091C90.2718 137.394 89.9619 136.471 89.9619 135.322V135.233ZM91.2334 135.384C91.2334 136.204 91.4225 136.863 91.8008 137.359C92.1836 137.856 92.694 138.104 93.332 138.104C93.9746 138.104 94.485 137.854 94.8633 137.353C95.2415 136.847 95.4307 136.14 95.4307 135.233C95.4307 134.422 95.237 133.766 94.8496 133.265C94.4668 132.759 93.9564 132.506 93.3184 132.506C92.694 132.506 92.1904 132.754 91.8076 133.251C91.4248 133.748 91.2334 134.459 91.2334 135.384ZM101.351 139.137C100.348 139.137 99.5322 138.809 98.9033 138.152C98.2744 137.492 97.96 136.61 97.96 135.507V135.274C97.96 134.541 98.099 133.887 98.377 133.312C98.6595 132.734 99.0514 132.283 99.5527 131.959C100.059 131.631 100.605 131.467 101.193 131.467C102.155 131.467 102.902 131.784 103.436 132.417C103.969 133.05 104.235 133.957 104.235 135.138V135.664H99.2246C99.2428 136.393 99.4548 136.983 99.8604 137.435C100.271 137.881 100.79 138.104 101.419 138.104C101.866 138.104 102.244 138.013 102.554 137.831C102.864 137.649 103.135 137.407 103.367 137.106L104.14 137.708C103.52 138.66 102.59 139.137 101.351 139.137ZM101.193 132.506C100.683 132.506 100.255 132.693 99.9082 133.066C99.5618 133.436 99.3477 133.955 99.2656 134.625H102.971V134.529C102.934 133.887 102.761 133.39 102.451 133.039C102.141 132.684 101.722 132.506 101.193 132.506ZM108.009 135.849H107.086V139H105.814V131.604H107.086V134.734H107.913L110.401 131.604H111.933L109.007 135.158L112.179 139H110.572L108.009 135.849ZM118.762 132.629H116.28V139H115.016V132.629H112.582V131.604H118.762V132.629ZM124.449 139C124.376 138.854 124.317 138.594 124.271 138.221C123.684 138.831 122.982 139.137 122.166 139.137C121.437 139.137 120.838 138.932 120.368 138.521C119.903 138.107 119.671 137.583 119.671 136.949C119.671 136.179 119.963 135.582 120.546 135.158C121.134 134.73 121.959 134.516 123.021 134.516H124.251V133.935C124.251 133.493 124.119 133.142 123.854 132.882C123.59 132.618 123.201 132.485 122.686 132.485C122.234 132.485 121.856 132.599 121.551 132.827C121.245 133.055 121.093 133.331 121.093 133.654H119.821C119.821 133.285 119.951 132.93 120.211 132.588C120.475 132.242 120.831 131.968 121.277 131.768C121.729 131.567 122.223 131.467 122.761 131.467C123.613 131.467 124.281 131.681 124.764 132.109C125.247 132.533 125.497 133.119 125.516 133.866V137.271C125.516 137.95 125.602 138.49 125.775 138.891V139H124.449ZM122.351 138.036C122.747 138.036 123.123 137.934 123.479 137.729C123.834 137.523 124.091 137.257 124.251 136.929V135.411H123.26C121.71 135.411 120.936 135.865 120.936 136.771C120.936 137.168 121.068 137.478 121.332 137.701C121.596 137.924 121.936 138.036 122.351 138.036Z" fill="black"/>
<path d="M94 48C94 48 134.67 1 238.5 1C346.783 1 382 48 382 48" stroke="#BEBEBE" stroke-width="2" stroke-linecap="round" stroke-dasharray="0.5 4"/>
<path d="M100 48.5L94 48.5L94 42" stroke="#BEBEBE" stroke-width="2" stroke-linecap="round"/>
<path d="M382 42V48H375.5" stroke="#BEBEBE" stroke-width="2" stroke-linecap="round"/>
<circle opacity="0.2" cx="238" cy="86" r="30" fill="#43BAD6"/>
<circle cx="238" cy="86" r="10" fill="#BEBEBE"/>
<path d="M204.148 129.047V135.814C204.144 136.753 203.848 137.521 203.26 138.118C202.676 138.715 201.883 139.05 200.881 139.123L200.532 139.137C199.443 139.137 198.575 138.843 197.928 138.255C197.281 137.667 196.952 136.858 196.943 135.828V129.047H198.242V135.787C198.242 136.507 198.44 137.068 198.837 137.469C199.233 137.865 199.799 138.063 200.532 138.063C201.275 138.063 201.842 137.865 202.234 137.469C202.631 137.072 202.829 136.514 202.829 135.794V129.047H204.148ZM209.467 132.861L211.853 129.047H213.397L210.253 133.982L213.473 139H211.914L209.467 135.117L207.006 139H205.454L208.681 133.982L205.529 129.047H207.067L209.467 132.861ZM218.21 137.968L218.647 137.428C219.14 136.79 219.42 135.833 219.488 134.557L219.604 131.604H224.369V137.968H225.319V141.174H224.055V139H218.894V141.174H217.629L217.636 137.968H218.21ZM219.707 137.968H223.104V132.772H220.828L220.753 134.536C220.675 136.008 220.327 137.152 219.707 137.968ZM231.506 131.604H232.771V139H231.506V133.606L228.095 139H226.83V131.604H228.095V137.004L231.506 131.604ZM238.868 133.627C238.868 133.281 238.736 133.007 238.472 132.807C238.207 132.602 237.845 132.499 237.385 132.499C236.938 132.499 236.564 132.615 236.264 132.848C235.967 133.08 235.819 133.354 235.819 133.668H234.562C234.562 133.025 234.83 132.499 235.368 132.089C235.906 131.679 236.578 131.474 237.385 131.474C238.251 131.474 238.925 131.66 239.408 132.034C239.891 132.403 240.133 132.932 240.133 133.62C240.133 133.953 240.033 134.258 239.832 134.536C239.632 134.814 239.347 135.035 238.978 135.199C239.839 135.491 240.27 136.065 240.27 136.922C240.27 137.601 240.007 138.139 239.483 138.535C238.959 138.932 238.26 139.13 237.385 139.13C236.533 139.13 235.828 138.923 235.272 138.508C234.721 138.089 234.445 137.523 234.445 136.812H235.703C235.703 137.173 235.863 137.482 236.182 137.742C236.505 137.997 236.906 138.125 237.385 138.125C237.868 138.125 238.257 138.013 238.554 137.79C238.85 137.567 238.998 137.277 238.998 136.922C238.998 136.507 238.873 136.211 238.622 136.033C238.376 135.851 237.991 135.76 237.467 135.76H236.202V134.693H237.576C238.438 134.671 238.868 134.315 238.868 133.627ZM246.477 139C246.404 138.854 246.344 138.594 246.299 138.221C245.711 138.831 245.009 139.137 244.193 139.137C243.464 139.137 242.865 138.932 242.396 138.521C241.931 138.107 241.698 137.583 241.698 136.949C241.698 136.179 241.99 135.582 242.573 135.158C243.161 134.73 243.986 134.516 245.048 134.516H246.278V133.935C246.278 133.493 246.146 133.142 245.882 132.882C245.618 132.618 245.228 132.485 244.713 132.485C244.262 132.485 243.883 132.599 243.578 132.827C243.273 133.055 243.12 133.331 243.12 133.654H241.849C241.849 133.285 241.979 132.93 242.238 132.588C242.503 132.242 242.858 131.968 243.305 131.768C243.756 131.567 244.25 131.467 244.788 131.467C245.64 131.467 246.308 131.681 246.791 132.109C247.274 132.533 247.525 133.119 247.543 133.866V137.271C247.543 137.95 247.63 138.49 247.803 138.891V139H246.477ZM244.378 138.036C244.774 138.036 245.15 137.934 245.506 137.729C245.861 137.523 246.119 137.257 246.278 136.929V135.411H245.287C243.738 135.411 242.963 135.865 242.963 136.771C242.963 137.168 243.095 137.478 243.359 137.701C243.624 137.924 243.963 138.036 244.378 138.036ZM254.311 131.604H255.575V139H254.311V133.606L250.899 139H249.635V131.604H250.899V137.004L254.311 131.604ZM254.652 128.91C254.652 129.462 254.463 129.906 254.085 130.243C253.711 130.576 253.219 130.742 252.608 130.742C251.998 130.742 251.503 130.574 251.125 130.236C250.747 129.899 250.558 129.457 250.558 128.91H251.59C251.59 129.229 251.676 129.48 251.85 129.662C252.023 129.84 252.276 129.929 252.608 129.929C252.927 129.929 253.176 129.84 253.354 129.662C253.536 129.484 253.627 129.234 253.627 128.91H254.652ZM263.648 139H262.384V135.842H258.986V139H257.715V131.604H258.986V134.81H262.384V131.604H263.648V139ZM268.755 139.137C267.752 139.137 266.937 138.809 266.308 138.152C265.679 137.492 265.364 136.61 265.364 135.507V135.274C265.364 134.541 265.503 133.887 265.781 133.312C266.064 132.734 266.456 132.283 266.957 131.959C267.463 131.631 268.01 131.467 268.598 131.467C269.559 131.467 270.307 131.784 270.84 132.417C271.373 133.05 271.64 133.957 271.64 135.138V135.664H266.629C266.647 136.393 266.859 136.983 267.265 137.435C267.675 137.881 268.194 138.104 268.823 138.104C269.27 138.104 269.648 138.013 269.958 137.831C270.268 137.649 270.539 137.407 270.771 137.106L271.544 137.708C270.924 138.66 269.994 139.137 268.755 139.137ZM268.598 132.506C268.087 132.506 267.659 132.693 267.312 133.066C266.966 133.436 266.752 133.955 266.67 134.625H270.375V134.529C270.339 133.887 270.165 133.39 269.855 133.039C269.546 132.684 269.126 132.506 268.598 132.506ZM279.357 135.384C279.357 136.509 279.1 137.416 278.585 138.104C278.07 138.793 277.373 139.137 276.493 139.137C275.595 139.137 274.889 138.852 274.374 138.282V141.844H273.109V131.604H274.265L274.326 132.424C274.841 131.786 275.557 131.467 276.473 131.467C277.361 131.467 278.063 131.802 278.578 132.472C279.098 133.142 279.357 134.074 279.357 135.268V135.384ZM278.093 135.24C278.093 134.406 277.915 133.748 277.56 133.265C277.204 132.782 276.716 132.54 276.097 132.54C275.331 132.54 274.757 132.88 274.374 133.559V137.093C274.752 137.767 275.331 138.104 276.11 138.104C276.716 138.104 277.197 137.865 277.553 137.387C277.913 136.904 278.093 136.188 278.093 135.24Z" fill="black"/>
</svg>
