<svg width="134" height="381" viewBox="0 0 134 381" fill="none" xmlns="http://www.w3.org/2000/svg">
<path d="M41.9999 102L41.9999 132M41.9999 132L47 127.588M41.9999 132L37 127.588" stroke="#BEBEBE" stroke-width="2" stroke-linecap="round"/>
<circle cx="43" cy="324" r="29.5" stroke="#CACACA"/>
<circle cx="43" cy="324" r="9.5" stroke="#43BAD6"/>
<path d="M22.7393 372.529H21.5293V377H20.2168V367.047H21.5293V371.436H22.5547L26.0342 367.047H27.668L23.8672 371.873L27.9482 377H26.3418L22.7393 372.529ZM35.0166 369.604V377H33.7451V370.649H31.2295L31.0791 373.418C30.9971 374.689 30.7829 375.599 30.4365 376.146C30.0947 376.692 29.5501 376.977 28.8027 377H28.2969V375.886L28.6592 375.858C29.0693 375.813 29.3633 375.576 29.541 375.147C29.7188 374.719 29.8327 373.926 29.8828 372.769L30.0195 369.604H35.0166ZM41.832 369.604H43.0967V377H41.832V371.606L38.4209 377H37.1562V369.604H38.4209V375.004L41.832 369.604ZM48.1963 377.137C47.1937 377.137 46.3779 376.809 45.749 376.152C45.1201 375.492 44.8057 374.61 44.8057 373.507V373.274C44.8057 372.541 44.9447 371.887 45.2227 371.312C45.5052 370.734 45.8971 370.283 46.3984 369.959C46.9043 369.631 47.4512 369.467 48.0391 369.467C49.0007 369.467 49.748 369.784 50.2812 370.417C50.8145 371.05 51.0811 371.957 51.0811 373.138V373.664H46.0703C46.0885 374.393 46.3005 374.983 46.7061 375.435C47.1162 375.881 47.6357 376.104 48.2646 376.104C48.7113 376.104 49.0895 376.013 49.3994 375.831C49.7093 375.649 49.9805 375.407 50.2129 375.106L50.9854 375.708C50.3656 376.66 49.4359 377.137 48.1963 377.137ZM48.0391 370.506C47.5286 370.506 47.1003 370.693 46.7539 371.066C46.4076 371.436 46.1934 371.955 46.1113 372.625H49.8164V372.529C49.7799 371.887 49.6068 371.39 49.2969 371.039C48.987 370.684 48.5677 370.506 48.0391 370.506ZM58.5938 377H57.3291V373.842H53.9316V377H52.6602V369.604H53.9316V372.81H57.3291V369.604H58.5938V377ZM66.127 370.629H63.6455V377H62.3809V370.629H59.9473V369.604H66.127V370.629Z" fill="black"/>
<circle cx="42.5" cy="30" r="29.5" stroke="#CACACA"/>
<circle cx="42.5" cy="30" r="10" fill="#43BAD6"/>
<path d="M10.1172 73.0469L13.3711 81.168L16.625 73.0469H18.3271V83H17.0146V79.124L17.1377 74.9404L13.8701 83H12.8652L9.60449 74.9609L9.73438 79.124V83H8.42188V73.0469H10.1172ZM23.5156 83.1367C22.513 83.1367 21.6973 82.8086 21.0684 82.1523C20.4395 81.4915 20.125 80.6097 20.125 79.5068V79.2744C20.125 78.5407 20.264 77.8867 20.542 77.3125C20.8245 76.7337 21.2165 76.2826 21.7178 75.959C22.2236 75.6309 22.7705 75.4668 23.3584 75.4668C24.32 75.4668 25.0674 75.7835 25.6006 76.417C26.1338 77.0505 26.4004 77.9574 26.4004 79.1377V79.6641H21.3896C21.4079 80.3932 21.6198 80.9834 22.0254 81.4346C22.4355 81.8812 22.9551 82.1045 23.584 82.1045C24.0306 82.1045 24.4089 82.0133 24.7188 81.8311C25.0286 81.6488 25.2998 81.4072 25.5322 81.1064L26.3047 81.708C25.6849 82.6605 24.7552 83.1367 23.5156 83.1367ZM23.3584 76.5059C22.848 76.5059 22.4196 76.6927 22.0732 77.0664C21.7269 77.4355 21.5127 77.9551 21.4307 78.625H25.1357V78.5293C25.0993 77.8867 24.9261 77.39 24.6162 77.0391C24.3063 76.6836 23.887 76.5059 23.3584 76.5059ZM33.9131 83H32.6484V79.8418H29.251V83H27.9795V75.6035H29.251V78.8096H32.6484V75.6035H33.9131V83ZM39.0195 83.1367C38.0169 83.1367 37.2012 82.8086 36.5723 82.1523C35.9434 81.4915 35.6289 80.6097 35.6289 79.5068V79.2744C35.6289 78.5407 35.7679 77.8867 36.0459 77.3125C36.3285 76.7337 36.7204 76.2826 37.2217 75.959C37.7275 75.6309 38.2744 75.4668 38.8623 75.4668C39.8239 75.4668 40.5713 75.7835 41.1045 76.417C41.6377 77.0505 41.9043 77.9574 41.9043 79.1377V79.6641H36.8936C36.9118 80.3932 37.1237 80.9834 37.5293 81.4346C37.9395 81.8812 38.459 82.1045 39.0879 82.1045C39.5345 82.1045 39.9128 82.0133 40.2227 81.8311C40.5326 81.6488 40.8037 81.4072 41.0361 81.1064L41.8086 81.708C41.1888 82.6605 40.2591 83.1367 39.0195 83.1367ZM38.8623 76.5059C38.3519 76.5059 37.9235 76.6927 37.5771 77.0664C37.2308 77.4355 37.0166 77.9551 36.9346 78.625H40.6396V78.5293C40.6032 77.8867 40.43 77.39 40.1201 77.0391C39.8102 76.6836 39.391 76.5059 38.8623 76.5059ZM43.3125 81.9678L43.75 81.4277C44.2422 80.7897 44.5225 79.8327 44.5908 78.5566L44.707 75.6035H49.4717V81.9678H50.4219V85.1738H49.1572V83H43.9961V85.1738H42.7314L42.7383 81.9678H43.3125ZM44.8096 81.9678H48.207V76.7725H45.9307L45.8555 78.5361C45.778 80.0081 45.4294 81.152 44.8096 81.9678ZM57.7227 79.7871H56.834V83H55.5693V79.7871H54.6807L52.6094 83H51.0098L53.6553 79.1719L51.2627 75.6035H52.7939L54.7012 78.666H55.5693V75.6035H56.834V78.666H57.6953L59.6162 75.6035H61.1475L58.748 79.1787L61.3936 83H59.7939L57.7227 79.7871ZM65.4746 83.1367C64.472 83.1367 63.6562 82.8086 63.0273 82.1523C62.3984 81.4915 62.084 80.6097 62.084 79.5068V79.2744C62.084 78.5407 62.223 77.8867 62.501 77.3125C62.7835 76.7337 63.1755 76.2826 63.6768 75.959C64.1826 75.6309 64.7295 75.4668 65.3174 75.4668C66.279 75.4668 67.0264 75.7835 67.5596 76.417C68.0928 77.0505 68.3594 77.9574 68.3594 79.1377V79.6641H63.3486C63.3669 80.3932 63.5788 80.9834 63.9844 81.4346C64.3945 81.8812 64.9141 82.1045 65.543 82.1045C65.9896 82.1045 66.3678 82.0133 66.6777 81.8311C66.9876 81.6488 67.2588 81.4072 67.4912 81.1064L68.2637 81.708C67.6439 82.6605 66.7142 83.1367 65.4746 83.1367ZM65.3174 76.5059C64.807 76.5059 64.3786 76.6927 64.0322 77.0664C63.6859 77.4355 63.4717 77.9551 63.3896 78.625H67.0947V78.5293C67.0583 77.8867 66.8851 77.39 66.5752 77.0391C66.2653 76.6836 65.846 76.5059 65.3174 76.5059ZM76.0771 79.3838C76.0771 80.5094 75.8197 81.4163 75.3047 82.1045C74.7897 82.7926 74.0924 83.1367 73.2129 83.1367C72.3151 83.1367 71.6087 82.8519 71.0938 82.2822V85.8438H69.8291V75.6035H70.9844L71.0459 76.4238C71.5609 75.7858 72.2764 75.4668 73.1924 75.4668C74.0811 75.4668 74.7829 75.8018 75.2979 76.4717C75.8174 77.1416 76.0771 78.0736 76.0771 79.2676V79.3838ZM74.8125 79.2402C74.8125 78.4062 74.6348 77.7477 74.2793 77.2646C73.9238 76.7816 73.4362 76.54 72.8164 76.54C72.0508 76.54 71.4766 76.8796 71.0938 77.5586V81.0928C71.472 81.7673 72.0508 82.1045 72.8301 82.1045C73.4362 82.1045 73.917 81.8652 74.2725 81.3867C74.6325 80.9036 74.8125 80.1882 74.8125 79.2402Z" fill="black"/>
<path d="M85.5 149C85.5 149 105.5 133.381 105.5 92.5C105.5 49.866 85.5 36 85.5 36" stroke="#BEBEBE" stroke-width="2" stroke-linecap="round" stroke-dasharray="0.5 4"/>
<path d="M85.5 36C85.5 36 132.5 76.67 132.5 180.5C132.5 288.783 85.5 324 85.5 324" stroke="#BEBEBE" stroke-width="2" stroke-linecap="round" stroke-dasharray="0.5 4"/>
<path d="M85 42L85 36L91.5 36" stroke="#BEBEBE" stroke-width="2" stroke-linecap="round"/>
<path d="M91.5 324L85.5 324L85.5 317.5" stroke="#BEBEBE" stroke-width="2" stroke-linecap="round"/>
<circle opacity="0.2" cx="42.5" cy="177" r="30" fill="#43BAD6"/>
<circle cx="42.5" cy="177" r="10" fill="#BEBEBE"/>
<path d="M8.64844 220.047V226.814C8.64388 227.753 8.34766 228.521 7.75977 229.118C7.17643 229.715 6.38346 230.05 5.38086 230.123L5.03223 230.137C3.94303 230.137 3.07487 229.843 2.42773 229.255C1.7806 228.667 1.45247 227.858 1.44336 226.828V220.047H2.74219V226.787C2.74219 227.507 2.94043 228.068 3.33691 228.469C3.7334 228.865 4.2985 229.063 5.03223 229.063C5.77507 229.063 6.34245 228.865 6.73438 228.469C7.13086 228.072 7.3291 227.514 7.3291 226.794V220.047H8.64844ZM13.9668 223.861L16.3525 220.047H17.8975L14.7529 224.982L17.9727 230H16.4141L13.9668 226.117L11.5059 230H9.9541L13.1807 224.982L10.0293 220.047H11.5674L13.9668 223.861ZM22.71 228.968L23.1475 228.428C23.6396 227.79 23.9199 226.833 23.9883 225.557L24.1045 222.604H28.8691V228.968H29.8193V232.174H28.5547V230H23.3936V232.174H22.1289L22.1357 228.968H22.71ZM24.207 228.968H27.6045V223.772H25.3281L25.2529 225.536C25.1755 227.008 24.8268 228.152 24.207 228.968ZM36.0059 222.604H37.2705V230H36.0059V224.606L32.5947 230H31.3301V222.604H32.5947V228.004L36.0059 222.604ZM43.3682 224.627C43.3682 224.281 43.236 224.007 42.9717 223.807C42.7074 223.602 42.3451 223.499 41.8848 223.499C41.4382 223.499 41.0645 223.615 40.7637 223.848C40.4674 224.08 40.3193 224.354 40.3193 224.668H39.0615C39.0615 224.025 39.3304 223.499 39.8682 223.089C40.4059 222.679 41.0781 222.474 41.8848 222.474C42.7507 222.474 43.4251 222.66 43.9082 223.034C44.3913 223.403 44.6328 223.932 44.6328 224.62C44.6328 224.953 44.5326 225.258 44.332 225.536C44.1315 225.814 43.8467 226.035 43.4775 226.199C44.3389 226.491 44.7695 227.065 44.7695 227.922C44.7695 228.601 44.5075 229.139 43.9834 229.535C43.4593 229.932 42.7598 230.13 41.8848 230.13C41.0326 230.13 40.3285 229.923 39.7725 229.508C39.221 229.089 38.9453 228.523 38.9453 227.812H40.2031C40.2031 228.173 40.3626 228.482 40.6816 228.742C41.0052 228.997 41.4062 229.125 41.8848 229.125C42.3678 229.125 42.7575 229.013 43.0537 228.79C43.3499 228.567 43.498 228.277 43.498 227.922C43.498 227.507 43.3727 227.211 43.1221 227.033C42.876 226.851 42.4909 226.76 41.9668 226.76H40.7021V225.693H42.0762C42.9375 225.671 43.3682 225.315 43.3682 224.627ZM50.9766 230C50.9036 229.854 50.8444 229.594 50.7988 229.221C50.2109 229.831 49.5091 230.137 48.6934 230.137C47.9642 230.137 47.3649 229.932 46.8955 229.521C46.4307 229.107 46.1982 228.583 46.1982 227.949C46.1982 227.179 46.4899 226.582 47.0732 226.158C47.6611 225.73 48.486 225.516 49.5479 225.516H50.7783V224.935C50.7783 224.493 50.6462 224.142 50.3818 223.882C50.1175 223.618 49.7279 223.485 49.2129 223.485C48.7617 223.485 48.3835 223.599 48.0781 223.827C47.7728 224.055 47.6201 224.331 47.6201 224.654H46.3486C46.3486 224.285 46.4785 223.93 46.7383 223.588C47.0026 223.242 47.3581 222.968 47.8047 222.768C48.2559 222.567 48.7503 222.467 49.2881 222.467C50.1403 222.467 50.8079 222.681 51.291 223.109C51.7741 223.533 52.0247 224.119 52.043 224.866V228.271C52.043 228.95 52.1296 229.49 52.3027 229.891V230H50.9766ZM48.8779 229.036C49.2744 229.036 49.6504 228.934 50.0059 228.729C50.3613 228.523 50.6188 228.257 50.7783 227.929V226.411H49.7871C48.2376 226.411 47.4629 226.865 47.4629 227.771C47.4629 228.168 47.5951 228.478 47.8594 228.701C48.1237 228.924 48.4632 229.036 48.8779 229.036ZM58.8105 222.604H60.0752V230H58.8105V224.606L55.3994 230H54.1348V222.604H55.3994V228.004L58.8105 222.604ZM59.1523 219.91C59.1523 220.462 58.9632 220.906 58.585 221.243C58.2113 221.576 57.7191 221.742 57.1084 221.742C56.4977 221.742 56.0033 221.574 55.625 221.236C55.2467 220.899 55.0576 220.457 55.0576 219.91H56.0898C56.0898 220.229 56.1764 220.48 56.3496 220.662C56.5228 220.84 56.7757 220.929 57.1084 220.929C57.4274 220.929 57.6758 220.84 57.8535 220.662C58.0358 220.484 58.127 220.234 58.127 219.91H59.1523ZM68.1484 230H66.8838V226.842H63.4863V230H62.2148V222.604H63.4863V225.81H66.8838V222.604H68.1484V230ZM73.2549 230.137C72.2523 230.137 71.4365 229.809 70.8076 229.152C70.1787 228.492 69.8643 227.61 69.8643 226.507V226.274C69.8643 225.541 70.0033 224.887 70.2812 224.312C70.5638 223.734 70.9557 223.283 71.457 222.959C71.9629 222.631 72.5098 222.467 73.0977 222.467C74.0592 222.467 74.8066 222.784 75.3398 223.417C75.873 224.05 76.1396 224.957 76.1396 226.138V226.664H71.1289C71.1471 227.393 71.359 227.983 71.7646 228.435C72.1748 228.881 72.6943 229.104 73.3232 229.104C73.7699 229.104 74.1481 229.013 74.458 228.831C74.7679 228.649 75.0391 228.407 75.2715 228.106L76.0439 228.708C75.4242 229.66 74.4945 230.137 73.2549 230.137ZM73.0977 223.506C72.5872 223.506 72.1589 223.693 71.8125 224.066C71.4661 224.436 71.252 224.955 71.1699 225.625H74.875V225.529C74.8385 224.887 74.6654 224.39 74.3555 224.039C74.0456 223.684 73.6263 223.506 73.0977 223.506ZM83.8574 226.384C83.8574 227.509 83.5999 228.416 83.085 229.104C82.57 229.793 81.8727 230.137 80.9932 230.137C80.0954 230.137 79.389 229.852 78.874 229.282V232.844H77.6094V222.604H78.7646L78.8262 223.424C79.3411 222.786 80.0566 222.467 80.9727 222.467C81.8613 222.467 82.5632 222.802 83.0781 223.472C83.5977 224.142 83.8574 225.074 83.8574 226.268V226.384ZM82.5928 226.24C82.5928 225.406 82.415 224.748 82.0596 224.265C81.7041 223.782 81.2165 223.54 80.5967 223.54C79.8311 223.54 79.2568 223.88 78.874 224.559V228.093C79.2523 228.767 79.8311 229.104 80.6104 229.104C81.2165 229.104 81.6973 228.865 82.0527 228.387C82.4128 227.904 82.5928 227.188 82.5928 226.24Z" fill="black"/>
</svg>
