<svg width="616" height="175" viewBox="0 0 616 175" fill="none" xmlns="http://www.w3.org/2000/svg">
<circle cx="586" cy="118" r="29.5" stroke="#CACACA"/>
<circle cx="586" cy="118" r="9.5" stroke="#43BAD6"/>
<path d="M565.739 166.529H564.529V171H563.217V161.047H564.529V165.436H565.555L569.034 161.047H570.668L566.867 165.873L570.948 171H569.342L565.739 166.529ZM578.017 163.604V171H576.745V164.649H574.229L574.079 167.418C573.997 168.689 573.783 169.599 573.437 170.146C573.095 170.692 572.55 170.977 571.803 171H571.297V169.886L571.659 169.858C572.069 169.813 572.363 169.576 572.541 169.147C572.719 168.719 572.833 167.926 572.883 166.769L573.02 163.604H578.017ZM584.832 163.604H586.097V171H584.832V165.606L581.421 171H580.156V163.604H581.421V169.004L584.832 163.604ZM591.196 171.137C590.194 171.137 589.378 170.809 588.749 170.152C588.12 169.492 587.806 168.61 587.806 167.507V167.274C587.806 166.541 587.945 165.887 588.223 165.312C588.505 164.734 588.897 164.283 589.398 163.959C589.904 163.631 590.451 163.467 591.039 163.467C592.001 163.467 592.748 163.784 593.281 164.417C593.814 165.05 594.081 165.957 594.081 167.138V167.664H589.07C589.089 168.393 589.3 168.983 589.706 169.435C590.116 169.881 590.636 170.104 591.265 170.104C591.711 170.104 592.09 170.013 592.399 169.831C592.709 169.649 592.98 169.407 593.213 169.106L593.985 169.708C593.366 170.66 592.436 171.137 591.196 171.137ZM591.039 164.506C590.529 164.506 590.1 164.693 589.754 165.066C589.408 165.436 589.193 165.955 589.111 166.625H592.816V166.529C592.78 165.887 592.607 165.39 592.297 165.039C591.987 164.684 591.568 164.506 591.039 164.506ZM601.594 171H600.329V167.842H596.932V171H595.66V163.604H596.932V166.81H600.329V163.604H601.594V171ZM609.127 164.629H606.646V171H605.381V164.629H602.947V163.604H609.127V164.629Z" fill="black"/>
<circle cx="63.5" cy="118" r="29.5" stroke="#CACACA"/>
<circle cx="63.5" cy="118" r="10" fill="#43BAD6"/>
<path d="M3.30957 161.047L6.56348 169.168L9.81738 161.047H11.5195V171H10.207V167.124L10.3301 162.94L7.0625 171H6.05762L2.79688 162.961L2.92676 167.124V171H1.61426V161.047H3.30957ZM16.708 171.137C15.7054 171.137 14.8896 170.809 14.2607 170.152C13.6318 169.492 13.3174 168.61 13.3174 167.507V167.274C13.3174 166.541 13.4564 165.887 13.7344 165.312C14.0169 164.734 14.4089 164.283 14.9102 163.959C15.416 163.631 15.9629 163.467 16.5508 163.467C17.5124 163.467 18.2598 163.784 18.793 164.417C19.3262 165.05 19.5928 165.957 19.5928 167.138V167.664H14.582C14.6003 168.393 14.8122 168.983 15.2178 169.435C15.6279 169.881 16.1475 170.104 16.7764 170.104C17.223 170.104 17.6012 170.013 17.9111 169.831C18.221 169.649 18.4922 169.407 18.7246 169.106L19.4971 169.708C18.8773 170.66 17.9476 171.137 16.708 171.137ZM16.5508 164.506C16.0404 164.506 15.612 164.693 15.2656 165.066C14.9193 165.436 14.7051 165.955 14.623 166.625H18.3281V166.529C18.2917 165.887 18.1185 165.39 17.8086 165.039C17.4987 164.684 17.0794 164.506 16.5508 164.506ZM27.1055 171H25.8408V167.842H22.4434V171H21.1719V163.604H22.4434V166.81H25.8408V163.604H27.1055V171ZM32.2119 171.137C31.2093 171.137 30.3936 170.809 29.7646 170.152C29.1357 169.492 28.8213 168.61 28.8213 167.507V167.274C28.8213 166.541 28.9603 165.887 29.2383 165.312C29.5208 164.734 29.9128 164.283 30.4141 163.959C30.9199 163.631 31.4668 163.467 32.0547 163.467C33.0163 163.467 33.7637 163.784 34.2969 164.417C34.8301 165.05 35.0967 165.957 35.0967 167.138V167.664H30.0859C30.1042 168.393 30.3161 168.983 30.7217 169.435C31.1318 169.881 31.6514 170.104 32.2803 170.104C32.7269 170.104 33.1051 170.013 33.415 169.831C33.7249 169.649 33.9961 169.407 34.2285 169.106L35.001 169.708C34.3812 170.66 33.4515 171.137 32.2119 171.137ZM32.0547 164.506C31.5443 164.506 31.1159 164.693 30.7695 165.066C30.4232 165.436 30.209 165.955 30.127 166.625H33.832V166.529C33.7956 165.887 33.6224 165.39 33.3125 165.039C33.0026 164.684 32.5833 164.506 32.0547 164.506ZM36.5049 169.968L36.9424 169.428C37.4346 168.79 37.7148 167.833 37.7832 166.557L37.8994 163.604H42.6641V169.968H43.6143V173.174H42.3496V171H37.1885V173.174H35.9238L35.9307 169.968H36.5049ZM38.002 169.968H41.3994V164.772H39.123L39.0479 166.536C38.9704 168.008 38.6217 169.152 38.002 169.968ZM50.915 167.787H50.0264V171H48.7617V167.787H47.873L45.8018 171H44.2021L46.8477 167.172L44.4551 163.604H45.9863L47.8936 166.666H48.7617V163.604H50.0264V166.666H50.8877L52.8086 163.604H54.3398L51.9404 167.179L54.5859 171H52.9863L50.915 167.787ZM58.667 171.137C57.6644 171.137 56.8486 170.809 56.2197 170.152C55.5908 169.492 55.2764 168.61 55.2764 167.507V167.274C55.2764 166.541 55.4154 165.887 55.6934 165.312C55.9759 164.734 56.3678 164.283 56.8691 163.959C57.375 163.631 57.9219 163.467 58.5098 163.467C59.4714 163.467 60.2188 163.784 60.752 164.417C61.2852 165.05 61.5518 165.957 61.5518 167.138V167.664H56.541C56.5592 168.393 56.7712 168.983 57.1768 169.435C57.5869 169.881 58.1064 170.104 58.7354 170.104C59.182 170.104 59.5602 170.013 59.8701 169.831C60.18 169.649 60.4512 169.407 60.6836 169.106L61.4561 169.708C60.8363 170.66 59.9066 171.137 58.667 171.137ZM58.5098 164.506C57.9993 164.506 57.571 164.693 57.2246 165.066C56.8783 165.436 56.6641 165.955 56.582 166.625H60.2871V166.529C60.2507 165.887 60.0775 165.39 59.7676 165.039C59.4577 164.684 59.0384 164.506 58.5098 164.506ZM69.2695 167.384C69.2695 168.509 69.012 169.416 68.4971 170.104C67.9821 170.793 67.2848 171.137 66.4053 171.137C65.5075 171.137 64.8011 170.852 64.2861 170.282V173.844H63.0215V163.604H64.1768L64.2383 164.424C64.7533 163.786 65.4688 163.467 66.3848 163.467C67.2734 163.467 67.9753 163.802 68.4902 164.472C69.0098 165.142 69.2695 166.074 69.2695 167.268V167.384ZM68.0049 167.24C68.0049 166.406 67.8271 165.748 67.4717 165.265C67.1162 164.782 66.6286 164.54 66.0088 164.54C65.2432 164.54 64.6689 164.88 64.2861 165.559V169.093C64.6644 169.767 65.2432 170.104 66.0225 170.104C66.6286 170.104 67.1094 169.865 67.4648 169.387C67.8249 168.904 68.0049 168.188 68.0049 167.24ZM80.4053 171H79.1406V164.649H75.7363V171H74.4648V163.604H80.4053V171ZM88.6836 167.384C88.6836 168.509 88.4261 169.416 87.9111 170.104C87.3962 170.793 86.6989 171.137 85.8193 171.137C84.9215 171.137 84.2152 170.852 83.7002 170.282V173.844H82.4355V163.604H83.5908L83.6523 164.424C84.1673 163.786 84.8828 163.467 85.7988 163.467C86.6875 163.467 87.3893 163.802 87.9043 164.472C88.4238 165.142 88.6836 166.074 88.6836 167.268V167.384ZM87.4189 167.24C87.4189 166.406 87.2412 165.748 86.8857 165.265C86.5303 164.782 86.0426 164.54 85.4229 164.54C84.6572 164.54 84.083 164.88 83.7002 165.559V169.093C84.0785 169.767 84.6572 170.104 85.4365 170.104C86.0426 170.104 86.5234 169.865 86.8789 169.387C87.2389 168.904 87.4189 168.188 87.4189 167.24ZM89.9619 167.233C89.9619 166.509 90.1032 165.857 90.3857 165.278C90.6729 164.7 91.0693 164.253 91.5752 163.938C92.0856 163.624 92.6667 163.467 93.3184 163.467C94.3255 163.467 95.139 163.815 95.7588 164.513C96.3831 165.21 96.6953 166.137 96.6953 167.295V167.384C96.6953 168.104 96.5563 168.751 96.2783 169.325C96.0049 169.895 95.6107 170.339 95.0957 170.658C94.5853 170.977 93.9974 171.137 93.332 171.137C92.3294 171.137 91.516 170.788 90.8916 170.091C90.2718 169.394 89.9619 168.471 89.9619 167.322V167.233ZM91.2334 167.384C91.2334 168.204 91.4225 168.863 91.8008 169.359C92.1836 169.856 92.694 170.104 93.332 170.104C93.9746 170.104 94.485 169.854 94.8633 169.353C95.2415 168.847 95.4307 168.14 95.4307 167.233C95.4307 166.422 95.237 165.766 94.8496 165.265C94.4668 164.759 93.9564 164.506 93.3184 164.506C92.694 164.506 92.1904 164.754 91.8076 165.251C91.4248 165.748 91.2334 166.459 91.2334 167.384ZM101.351 171.137C100.348 171.137 99.5322 170.809 98.9033 170.152C98.2744 169.492 97.96 168.61 97.96 167.507V167.274C97.96 166.541 98.099 165.887 98.377 165.312C98.6595 164.734 99.0514 164.283 99.5527 163.959C100.059 163.631 100.605 163.467 101.193 163.467C102.155 163.467 102.902 163.784 103.436 164.417C103.969 165.05 104.235 165.957 104.235 167.138V167.664H99.2246C99.2428 168.393 99.4548 168.983 99.8604 169.435C100.271 169.881 100.79 170.104 101.419 170.104C101.866 170.104 102.244 170.013 102.554 169.831C102.864 169.649 103.135 169.407 103.367 169.106L104.14 169.708C103.52 170.66 102.59 171.137 101.351 171.137ZM101.193 164.506C100.683 164.506 100.255 164.693 99.9082 165.066C99.5618 165.436 99.3477 165.955 99.2656 166.625H102.971V166.529C102.934 165.887 102.761 165.39 102.451 165.039C102.141 164.684 101.722 164.506 101.193 164.506ZM108.009 167.849H107.086V171H105.814V163.604H107.086V166.734H107.913L110.401 163.604H111.933L109.007 167.158L112.179 171H110.572L108.009 167.849ZM118.762 164.629H116.28V171H115.016V164.629H112.582V163.604H118.762V164.629ZM124.449 171C124.376 170.854 124.317 170.594 124.271 170.221C123.684 170.831 122.982 171.137 122.166 171.137C121.437 171.137 120.838 170.932 120.368 170.521C119.903 170.107 119.671 169.583 119.671 168.949C119.671 168.179 119.963 167.582 120.546 167.158C121.134 166.73 121.959 166.516 123.021 166.516H124.251V165.935C124.251 165.493 124.119 165.142 123.854 164.882C123.59 164.618 123.201 164.485 122.686 164.485C122.234 164.485 121.856 164.599 121.551 164.827C121.245 165.055 121.093 165.331 121.093 165.654H119.821C119.821 165.285 119.951 164.93 120.211 164.588C120.475 164.242 120.831 163.968 121.277 163.768C121.729 163.567 122.223 163.467 122.761 163.467C123.613 163.467 124.281 163.681 124.764 164.109C125.247 164.533 125.497 165.119 125.516 165.866V169.271C125.516 169.95 125.602 170.49 125.775 170.891V171H124.449ZM122.351 170.036C122.747 170.036 123.123 169.934 123.479 169.729C123.834 169.523 124.091 169.257 124.251 168.929V167.411H123.26C121.71 167.411 120.936 167.865 120.936 168.771C120.936 169.168 121.068 169.478 121.332 169.701C121.596 169.924 121.936 170.036 122.351 170.036Z" fill="black"/>
<path d="M381 78C381 78 365.381 58 324.5 58C281.866 58 268 78 268 78" stroke="#BEBEBE" stroke-width="2" stroke-linecap="round" stroke-dasharray="0.5 4"/>
<path d="M274 78.5L268 78.5L268 72" stroke="#BEBEBE" stroke-width="2" stroke-linecap="round"/>
<path d="M208 78C208 78 192.381 58 151.5 58C108.866 58 95 78 95 78" stroke="#BEBEBE" stroke-width="2" stroke-linecap="round" stroke-dasharray="0.5 4"/>
<path d="M95 78C95 78 158.721 1 325.5 1C499.432 1 556 78 556 78" stroke="#BEBEBE" stroke-width="2" stroke-linecap="round" stroke-dasharray="0.5 4"/>
<path d="M556.5 72V78H550" stroke="#BEBEBE" stroke-width="2" stroke-linecap="round"/>
<path d="M101 78.5L95 78.5L95 72" stroke="#BEBEBE" stroke-width="2" stroke-linecap="round"/>
<circle cx="237.5" cy="118" r="30" fill="#F0F0F0"/>
<path d="M308 118H342M342 118L337 113M342 118L337 123" stroke="#BEBEBE" stroke-width="2" stroke-linecap="round"/>
<circle cx="237.5" cy="118" r="10" fill="#43BAD6"/>
<path d="M199.608 161.047V167.814C199.604 168.753 199.308 169.521 198.72 170.118C198.136 170.715 197.343 171.05 196.341 171.123L195.992 171.137C194.903 171.137 194.035 170.843 193.388 170.255C192.741 169.667 192.412 168.858 192.403 167.828V161.047H193.702V167.787C193.702 168.507 193.9 169.068 194.297 169.469C194.693 169.865 195.258 170.063 195.992 170.063C196.735 170.063 197.302 169.865 197.694 169.469C198.091 169.072 198.289 168.514 198.289 167.794V161.047H199.608ZM204.927 164.861L207.312 161.047H208.857L205.713 165.982L208.933 171H207.374L204.927 167.117L202.466 171H200.914L204.141 165.982L200.989 161.047H202.527L204.927 164.861ZM213.67 169.968L214.107 169.428C214.6 168.79 214.88 167.833 214.948 166.557L215.064 163.604H219.829V169.968H220.779V173.174H219.515V171H214.354V173.174H213.089L213.096 169.968H213.67ZM215.167 169.968H218.564V164.772H216.288L216.213 166.536C216.135 168.008 215.787 169.152 215.167 169.968ZM226.966 163.604H228.23V171H226.966V165.606L223.555 171H222.29V163.604H223.555V169.004L226.966 163.604ZM234.328 165.627C234.328 165.281 234.196 165.007 233.932 164.807C233.667 164.602 233.305 164.499 232.845 164.499C232.398 164.499 232.024 164.615 231.724 164.848C231.427 165.08 231.279 165.354 231.279 165.668H230.021C230.021 165.025 230.29 164.499 230.828 164.089C231.366 163.679 232.038 163.474 232.845 163.474C233.711 163.474 234.385 163.66 234.868 164.034C235.351 164.403 235.593 164.932 235.593 165.62C235.593 165.953 235.493 166.258 235.292 166.536C235.091 166.814 234.807 167.035 234.438 167.199C235.299 167.491 235.729 168.065 235.729 168.922C235.729 169.601 235.467 170.139 234.943 170.535C234.419 170.932 233.72 171.13 232.845 171.13C231.993 171.13 231.288 170.923 230.732 170.508C230.181 170.089 229.905 169.523 229.905 168.812H231.163C231.163 169.173 231.323 169.482 231.642 169.742C231.965 169.997 232.366 170.125 232.845 170.125C233.328 170.125 233.717 170.013 234.014 169.79C234.31 169.567 234.458 169.277 234.458 168.922C234.458 168.507 234.333 168.211 234.082 168.033C233.836 167.851 233.451 167.76 232.927 167.76H231.662V166.693H233.036C233.897 166.671 234.328 166.315 234.328 165.627ZM243.413 171H242.148V167.842H238.751V171H237.479V163.604H238.751V166.81H242.148V163.604H243.413V171ZM250.017 171C249.944 170.854 249.884 170.594 249.839 170.221C249.251 170.831 248.549 171.137 247.733 171.137C247.004 171.137 246.405 170.932 245.936 170.521C245.471 170.107 245.238 169.583 245.238 168.949C245.238 168.179 245.53 167.582 246.113 167.158C246.701 166.73 247.526 166.516 248.588 166.516H249.818V165.935C249.818 165.493 249.686 165.142 249.422 164.882C249.158 164.618 248.768 164.485 248.253 164.485C247.802 164.485 247.424 164.599 247.118 164.827C246.813 165.055 246.66 165.331 246.66 165.654H245.389C245.389 165.285 245.519 164.93 245.778 164.588C246.043 164.242 246.398 163.968 246.845 163.768C247.296 163.567 247.79 163.467 248.328 163.467C249.18 163.467 249.848 163.681 250.331 164.109C250.814 164.533 251.065 165.119 251.083 165.866V169.271C251.083 169.95 251.17 170.49 251.343 170.891V171H250.017ZM247.918 170.036C248.314 170.036 248.69 169.934 249.046 169.729C249.401 169.523 249.659 169.257 249.818 168.929V167.411H248.827C247.278 167.411 246.503 167.865 246.503 168.771C246.503 169.168 246.635 169.478 246.899 169.701C247.164 169.924 247.503 170.036 247.918 170.036ZM257.851 163.604H259.115V171H257.851V165.606L254.439 171H253.175V163.604H254.439V169.004L257.851 163.604ZM258.192 160.91C258.192 161.462 258.003 161.906 257.625 162.243C257.251 162.576 256.759 162.742 256.148 162.742C255.538 162.742 255.043 162.574 254.665 162.236C254.287 161.899 254.098 161.457 254.098 160.91H255.13C255.13 161.229 255.216 161.48 255.39 161.662C255.563 161.84 255.816 161.929 256.148 161.929C256.467 161.929 256.716 161.84 256.894 161.662C257.076 161.484 257.167 161.234 257.167 160.91H258.192ZM267.188 171H265.924V167.842H262.526V171H261.255V163.604H262.526V166.81H265.924V163.604H267.188V171ZM272.295 171.137C271.292 171.137 270.477 170.809 269.848 170.152C269.219 169.492 268.904 168.61 268.904 167.507V167.274C268.904 166.541 269.043 165.887 269.321 165.312C269.604 164.734 269.996 164.283 270.497 163.959C271.003 163.631 271.55 163.467 272.138 163.467C273.099 163.467 273.847 163.784 274.38 164.417C274.913 165.05 275.18 165.957 275.18 167.138V167.664H270.169C270.187 168.393 270.399 168.983 270.805 169.435C271.215 169.881 271.734 170.104 272.363 170.104C272.81 170.104 273.188 170.013 273.498 169.831C273.808 169.649 274.079 169.407 274.312 169.106L275.084 169.708C274.464 170.66 273.535 171.137 272.295 171.137ZM272.138 164.506C271.627 164.506 271.199 164.693 270.853 165.066C270.506 165.436 270.292 165.955 270.21 166.625H273.915V166.529C273.879 165.887 273.705 165.39 273.396 165.039C273.086 164.684 272.666 164.506 272.138 164.506ZM282.897 167.384C282.897 168.509 282.64 169.416 282.125 170.104C281.61 170.793 280.913 171.137 280.033 171.137C279.135 171.137 278.429 170.852 277.914 170.282V173.844H276.649V163.604H277.805L277.866 164.424C278.381 163.786 279.097 163.467 280.013 163.467C280.901 163.467 281.603 163.802 282.118 164.472C282.638 165.142 282.897 166.074 282.897 167.268V167.384ZM281.633 167.24C281.633 166.406 281.455 165.748 281.1 165.265C280.744 164.782 280.257 164.54 279.637 164.54C278.871 164.54 278.297 164.88 277.914 165.559V169.093C278.292 169.767 278.871 170.104 279.65 170.104C280.257 170.104 280.737 169.865 281.093 169.387C281.453 168.904 281.633 168.188 281.633 167.24Z" fill="black"/>
<circle cx="412" cy="118" r="30" fill="#43BAD6"/>
<circle cx="412" cy="118" r="10" fill="white"/>
<path d="M380.13 161.047V167.814C380.125 168.753 379.829 169.521 379.241 170.118C378.658 170.715 377.865 171.05 376.862 171.123L376.514 171.137C375.424 171.137 374.556 170.843 373.909 170.255C373.262 169.667 372.934 168.858 372.925 167.828V161.047H374.224V167.787C374.224 168.507 374.422 169.068 374.818 169.469C375.215 169.865 375.78 170.063 376.514 170.063C377.257 170.063 377.824 169.865 378.216 169.469C378.612 169.072 378.811 168.514 378.811 167.794V161.047H380.13ZM383.609 171H382.297V161.047H383.609V171ZM389.229 169.968L389.666 169.428C390.158 168.79 390.438 167.833 390.507 166.557L390.623 163.604H395.388V169.968H396.338V173.174H395.073V171H389.912V173.174H388.647L388.654 169.968H389.229ZM390.726 169.968H394.123V164.772H391.847L391.771 166.536C391.694 168.008 391.345 169.152 390.726 169.968ZM402.524 163.604H403.789V171H402.524V165.606L399.113 171H397.849V163.604H399.113V169.004L402.524 163.604ZM409.887 165.627C409.887 165.281 409.755 165.007 409.49 164.807C409.226 164.602 408.864 164.499 408.403 164.499C407.957 164.499 407.583 164.615 407.282 164.848C406.986 165.08 406.838 165.354 406.838 165.668H405.58C405.58 165.025 405.849 164.499 406.387 164.089C406.924 163.679 407.597 163.474 408.403 163.474C409.269 163.474 409.944 163.66 410.427 164.034C410.91 164.403 411.151 164.932 411.151 165.62C411.151 165.953 411.051 166.258 410.851 166.536C410.65 166.814 410.365 167.035 409.996 167.199C410.857 167.491 411.288 168.065 411.288 168.922C411.288 169.601 411.026 170.139 410.502 170.535C409.978 170.932 409.278 171.13 408.403 171.13C407.551 171.13 406.847 170.923 406.291 170.508C405.74 170.089 405.464 169.523 405.464 168.812H406.722C406.722 169.173 406.881 169.482 407.2 169.742C407.524 169.997 407.925 170.125 408.403 170.125C408.886 170.125 409.276 170.013 409.572 169.79C409.868 169.567 410.017 169.277 410.017 168.922C410.017 168.507 409.891 168.211 409.641 168.033C409.395 167.851 409.009 167.76 408.485 167.76H407.221V166.693H408.595C409.456 166.671 409.887 166.315 409.887 165.627ZM417.495 171C417.422 170.854 417.363 170.594 417.317 170.221C416.729 170.831 416.028 171.137 415.212 171.137C414.483 171.137 413.883 170.932 413.414 170.521C412.949 170.107 412.717 169.583 412.717 168.949C412.717 168.179 413.008 167.582 413.592 167.158C414.18 166.73 415.005 166.516 416.066 166.516H417.297V165.935C417.297 165.493 417.165 165.142 416.9 164.882C416.636 164.618 416.246 164.485 415.731 164.485C415.28 164.485 414.902 164.599 414.597 164.827C414.291 165.055 414.139 165.331 414.139 165.654H412.867C412.867 165.285 412.997 164.93 413.257 164.588C413.521 164.242 413.877 163.968 414.323 163.768C414.774 163.567 415.269 163.467 415.807 163.467C416.659 163.467 417.326 163.681 417.81 164.109C418.293 164.533 418.543 165.119 418.562 165.866V169.271C418.562 169.95 418.648 170.49 418.821 170.891V171H417.495ZM415.396 170.036C415.793 170.036 416.169 169.934 416.524 169.729C416.88 169.523 417.137 169.257 417.297 168.929V167.411H416.306C414.756 167.411 413.981 167.865 413.981 168.771C413.981 169.168 414.114 169.478 414.378 169.701C414.642 169.924 414.982 170.036 415.396 170.036ZM425.329 163.604H426.594V171H425.329V165.606L421.918 171H420.653V163.604H421.918V169.004L425.329 163.604ZM425.671 160.91C425.671 161.462 425.482 161.906 425.104 162.243C424.73 162.576 424.238 162.742 423.627 162.742C423.016 162.742 422.522 162.574 422.144 162.236C421.765 161.899 421.576 161.457 421.576 160.91H422.608C422.608 161.229 422.695 161.48 422.868 161.662C423.041 161.84 423.294 161.929 423.627 161.929C423.946 161.929 424.194 161.84 424.372 161.662C424.554 161.484 424.646 161.234 424.646 160.91H425.671ZM434.667 171H433.402V167.842H430.005V171H428.733V163.604H430.005V166.81H433.402V163.604H434.667V171ZM439.773 171.137C438.771 171.137 437.955 170.809 437.326 170.152C436.697 169.492 436.383 168.61 436.383 167.507V167.274C436.383 166.541 436.522 165.887 436.8 165.312C437.082 164.734 437.474 164.283 437.976 163.959C438.481 163.631 439.028 163.467 439.616 163.467C440.578 163.467 441.325 163.784 441.858 164.417C442.392 165.05 442.658 165.957 442.658 167.138V167.664H437.647C437.666 168.393 437.878 168.983 438.283 169.435C438.693 169.881 439.213 170.104 439.842 170.104C440.288 170.104 440.667 170.013 440.977 169.831C441.286 169.649 441.558 169.407 441.79 169.106L442.562 169.708C441.943 170.66 441.013 171.137 439.773 171.137ZM439.616 164.506C439.106 164.506 438.677 164.693 438.331 165.066C437.985 165.436 437.771 165.955 437.688 166.625H441.394V166.529C441.357 165.887 441.184 165.39 440.874 165.039C440.564 164.684 440.145 164.506 439.616 164.506ZM450.376 167.384C450.376 168.509 450.118 169.416 449.604 170.104C449.089 170.793 448.391 171.137 447.512 171.137C446.614 171.137 445.908 170.852 445.393 170.282V173.844H444.128V163.604H445.283L445.345 164.424C445.86 163.786 446.575 163.467 447.491 163.467C448.38 163.467 449.082 163.802 449.597 164.472C450.116 165.142 450.376 166.074 450.376 167.268V167.384ZM449.111 167.24C449.111 166.406 448.934 165.748 448.578 165.265C448.223 164.782 447.735 164.54 447.115 164.54C446.35 164.54 445.775 164.88 445.393 165.559V169.093C445.771 169.767 446.35 170.104 447.129 170.104C447.735 170.104 448.216 169.865 448.571 169.387C448.931 168.904 449.111 168.188 449.111 167.24Z" fill="black"/>
</svg>
