<svg width="694" height="197" viewBox="0 0 694 197" fill="none" xmlns="http://www.w3.org/2000/svg">
<circle cx="513.5" cy="123" r="29.5" stroke="#CACACA"/>
<circle cx="513.5" cy="123" r="9.5" stroke="#43BAD6"/>
<circle cx="663.5" cy="123" r="29.5" stroke="#CACACA"/>
<circle cx="663.5" cy="123" r="9.5" stroke="#43BAD6"/>
<path d="M641.739 171.529H640.529V176H639.217V166.047H640.529V170.436H641.555L645.034 166.047H646.668L642.867 170.873L646.948 176H645.342L641.739 171.529ZM654.017 168.604V176H652.745V169.649H650.229L650.079 172.418C649.997 173.689 649.783 174.599 649.437 175.146C649.095 175.692 648.55 175.977 647.803 176H647.297V174.886L647.659 174.858C648.069 174.813 648.363 174.576 648.541 174.147C648.719 173.719 648.833 172.926 648.883 171.769L649.02 168.604H654.017ZM660.832 168.604H662.097V176H660.832V170.606L657.421 176H656.156V168.604H657.421V174.004L660.832 168.604ZM667.196 176.137C666.194 176.137 665.378 175.809 664.749 175.152C664.12 174.492 663.806 173.61 663.806 172.507V172.274C663.806 171.541 663.945 170.887 664.223 170.312C664.505 169.734 664.897 169.283 665.398 168.959C665.904 168.631 666.451 168.467 667.039 168.467C668.001 168.467 668.748 168.784 669.281 169.417C669.814 170.05 670.081 170.957 670.081 172.138V172.664H665.07C665.089 173.393 665.3 173.983 665.706 174.435C666.116 174.881 666.636 175.104 667.265 175.104C667.711 175.104 668.09 175.013 668.399 174.831C668.709 174.649 668.98 174.407 669.213 174.106L669.985 174.708C669.366 175.66 668.436 176.137 667.196 176.137ZM667.039 169.506C666.529 169.506 666.1 169.693 665.754 170.066C665.408 170.436 665.193 170.955 665.111 171.625H668.816V171.529C668.78 170.887 668.607 170.39 668.297 170.039C667.987 169.684 667.568 169.506 667.039 169.506ZM677.594 176H676.329V172.842H672.932V176H671.66V168.604H672.932V171.81H676.329V168.604H677.594V176ZM685.127 169.629H682.646V176H681.381V169.629H678.947V168.604H685.127V169.629Z" fill="black"/>
<circle cx="63.5" cy="123" r="29.5" stroke="#CACACA"/>
<circle cx="63.5" cy="123" r="10" fill="#43BAD6"/>
<path d="M3.30957 166.047L6.56348 174.168L9.81738 166.047H11.5195V176H10.207V172.124L10.3301 167.94L7.0625 176H6.05762L2.79688 167.961L2.92676 172.124V176H1.61426V166.047H3.30957ZM16.708 176.137C15.7054 176.137 14.8896 175.809 14.2607 175.152C13.6318 174.492 13.3174 173.61 13.3174 172.507V172.274C13.3174 171.541 13.4564 170.887 13.7344 170.312C14.0169 169.734 14.4089 169.283 14.9102 168.959C15.416 168.631 15.9629 168.467 16.5508 168.467C17.5124 168.467 18.2598 168.784 18.793 169.417C19.3262 170.05 19.5928 170.957 19.5928 172.138V172.664H14.582C14.6003 173.393 14.8122 173.983 15.2178 174.435C15.6279 174.881 16.1475 175.104 16.7764 175.104C17.223 175.104 17.6012 175.013 17.9111 174.831C18.221 174.649 18.4922 174.407 18.7246 174.106L19.4971 174.708C18.8773 175.66 17.9476 176.137 16.708 176.137ZM16.5508 169.506C16.0404 169.506 15.612 169.693 15.2656 170.066C14.9193 170.436 14.7051 170.955 14.623 171.625H18.3281V171.529C18.2917 170.887 18.1185 170.39 17.8086 170.039C17.4987 169.684 17.0794 169.506 16.5508 169.506ZM27.1055 176H25.8408V172.842H22.4434V176H21.1719V168.604H22.4434V171.81H25.8408V168.604H27.1055V176ZM32.2119 176.137C31.2093 176.137 30.3936 175.809 29.7646 175.152C29.1357 174.492 28.8213 173.61 28.8213 172.507V172.274C28.8213 171.541 28.9603 170.887 29.2383 170.312C29.5208 169.734 29.9128 169.283 30.4141 168.959C30.9199 168.631 31.4668 168.467 32.0547 168.467C33.0163 168.467 33.7637 168.784 34.2969 169.417C34.8301 170.05 35.0967 170.957 35.0967 172.138V172.664H30.0859C30.1042 173.393 30.3161 173.983 30.7217 174.435C31.1318 174.881 31.6514 175.104 32.2803 175.104C32.7269 175.104 33.1051 175.013 33.415 174.831C33.7249 174.649 33.9961 174.407 34.2285 174.106L35.001 174.708C34.3812 175.66 33.4515 176.137 32.2119 176.137ZM32.0547 169.506C31.5443 169.506 31.1159 169.693 30.7695 170.066C30.4232 170.436 30.209 170.955 30.127 171.625H33.832V171.529C33.7956 170.887 33.6224 170.39 33.3125 170.039C33.0026 169.684 32.5833 169.506 32.0547 169.506ZM36.5049 174.968L36.9424 174.428C37.4346 173.79 37.7148 172.833 37.7832 171.557L37.8994 168.604H42.6641V174.968H43.6143V178.174H42.3496V176H37.1885V178.174H35.9238L35.9307 174.968H36.5049ZM38.002 174.968H41.3994V169.772H39.123L39.0479 171.536C38.9704 173.008 38.6217 174.152 38.002 174.968ZM50.915 172.787H50.0264V176H48.7617V172.787H47.873L45.8018 176H44.2021L46.8477 172.172L44.4551 168.604H45.9863L47.8936 171.666H48.7617V168.604H50.0264V171.666H50.8877L52.8086 168.604H54.3398L51.9404 172.179L54.5859 176H52.9863L50.915 172.787ZM58.667 176.137C57.6644 176.137 56.8486 175.809 56.2197 175.152C55.5908 174.492 55.2764 173.61 55.2764 172.507V172.274C55.2764 171.541 55.4154 170.887 55.6934 170.312C55.9759 169.734 56.3678 169.283 56.8691 168.959C57.375 168.631 57.9219 168.467 58.5098 168.467C59.4714 168.467 60.2188 168.784 60.752 169.417C61.2852 170.05 61.5518 170.957 61.5518 172.138V172.664H56.541C56.5592 173.393 56.7712 173.983 57.1768 174.435C57.5869 174.881 58.1064 175.104 58.7354 175.104C59.182 175.104 59.5602 175.013 59.8701 174.831C60.18 174.649 60.4512 174.407 60.6836 174.106L61.4561 174.708C60.8363 175.66 59.9066 176.137 58.667 176.137ZM58.5098 169.506C57.9993 169.506 57.571 169.693 57.2246 170.066C56.8783 170.436 56.6641 170.955 56.582 171.625H60.2871V171.529C60.2507 170.887 60.0775 170.39 59.7676 170.039C59.4577 169.684 59.0384 169.506 58.5098 169.506ZM69.2695 172.384C69.2695 173.509 69.012 174.416 68.4971 175.104C67.9821 175.793 67.2848 176.137 66.4053 176.137C65.5075 176.137 64.8011 175.852 64.2861 175.282V178.844H63.0215V168.604H64.1768L64.2383 169.424C64.7533 168.786 65.4688 168.467 66.3848 168.467C67.2734 168.467 67.9753 168.802 68.4902 169.472C69.0098 170.142 69.2695 171.074 69.2695 172.268V172.384ZM68.0049 172.24C68.0049 171.406 67.8271 170.748 67.4717 170.265C67.1162 169.782 66.6286 169.54 66.0088 169.54C65.2432 169.54 64.6689 169.88 64.2861 170.559V174.093C64.6644 174.767 65.2432 175.104 66.0225 175.104C66.6286 175.104 67.1094 174.865 67.4648 174.387C67.8249 173.904 68.0049 173.188 68.0049 172.24ZM80.4053 176H79.1406V169.649H75.7363V176H74.4648V168.604H80.4053V176ZM88.6836 172.384C88.6836 173.509 88.4261 174.416 87.9111 175.104C87.3962 175.793 86.6989 176.137 85.8193 176.137C84.9215 176.137 84.2152 175.852 83.7002 175.282V178.844H82.4355V168.604H83.5908L83.6523 169.424C84.1673 168.786 84.8828 168.467 85.7988 168.467C86.6875 168.467 87.3893 168.802 87.9043 169.472C88.4238 170.142 88.6836 171.074 88.6836 172.268V172.384ZM87.4189 172.24C87.4189 171.406 87.2412 170.748 86.8857 170.265C86.5303 169.782 86.0426 169.54 85.4229 169.54C84.6572 169.54 84.083 169.88 83.7002 170.559V174.093C84.0785 174.767 84.6572 175.104 85.4365 175.104C86.0426 175.104 86.5234 174.865 86.8789 174.387C87.2389 173.904 87.4189 173.188 87.4189 172.24ZM89.9619 172.233C89.9619 171.509 90.1032 170.857 90.3857 170.278C90.6729 169.7 91.0693 169.253 91.5752 168.938C92.0856 168.624 92.6667 168.467 93.3184 168.467C94.3255 168.467 95.139 168.815 95.7588 169.513C96.3831 170.21 96.6953 171.137 96.6953 172.295V172.384C96.6953 173.104 96.5563 173.751 96.2783 174.325C96.0049 174.895 95.6107 175.339 95.0957 175.658C94.5853 175.977 93.9974 176.137 93.332 176.137C92.3294 176.137 91.516 175.788 90.8916 175.091C90.2718 174.394 89.9619 173.471 89.9619 172.322V172.233ZM91.2334 172.384C91.2334 173.204 91.4225 173.863 91.8008 174.359C92.1836 174.856 92.694 175.104 93.332 175.104C93.9746 175.104 94.485 174.854 94.8633 174.353C95.2415 173.847 95.4307 173.14 95.4307 172.233C95.4307 171.422 95.237 170.766 94.8496 170.265C94.4668 169.759 93.9564 169.506 93.3184 169.506C92.694 169.506 92.1904 169.754 91.8076 170.251C91.4248 170.748 91.2334 171.459 91.2334 172.384ZM101.351 176.137C100.348 176.137 99.5322 175.809 98.9033 175.152C98.2744 174.492 97.96 173.61 97.96 172.507V172.274C97.96 171.541 98.099 170.887 98.377 170.312C98.6595 169.734 99.0514 169.283 99.5527 168.959C100.059 168.631 100.605 168.467 101.193 168.467C102.155 168.467 102.902 168.784 103.436 169.417C103.969 170.05 104.235 170.957 104.235 172.138V172.664H99.2246C99.2428 173.393 99.4548 173.983 99.8604 174.435C100.271 174.881 100.79 175.104 101.419 175.104C101.866 175.104 102.244 175.013 102.554 174.831C102.864 174.649 103.135 174.407 103.367 174.106L104.14 174.708C103.52 175.66 102.59 176.137 101.351 176.137ZM101.193 169.506C100.683 169.506 100.255 169.693 99.9082 170.066C99.5618 170.436 99.3477 170.955 99.2656 171.625H102.971V171.529C102.934 170.887 102.761 170.39 102.451 170.039C102.141 169.684 101.722 169.506 101.193 169.506ZM108.009 172.849H107.086V176H105.814V168.604H107.086V171.734H107.913L110.401 168.604H111.933L109.007 172.158L112.179 176H110.572L108.009 172.849ZM118.762 169.629H116.28V176H115.016V169.629H112.582V168.604H118.762V169.629ZM124.449 176C124.376 175.854 124.317 175.594 124.271 175.221C123.684 175.831 122.982 176.137 122.166 176.137C121.437 176.137 120.838 175.932 120.368 175.521C119.903 175.107 119.671 174.583 119.671 173.949C119.671 173.179 119.963 172.582 120.546 172.158C121.134 171.73 121.959 171.516 123.021 171.516H124.251V170.935C124.251 170.493 124.119 170.142 123.854 169.882C123.59 169.618 123.201 169.485 122.686 169.485C122.234 169.485 121.856 169.599 121.551 169.827C121.245 170.055 121.093 170.331 121.093 170.654H119.821C119.821 170.285 119.951 169.93 120.211 169.588C120.475 169.242 120.831 168.968 121.277 168.768C121.729 168.567 122.223 168.467 122.761 168.467C123.613 168.467 124.281 168.681 124.764 169.109C125.247 169.533 125.497 170.119 125.516 170.866V174.271C125.516 174.95 125.602 175.49 125.775 175.891V176H124.449ZM122.351 175.036C122.747 175.036 123.123 174.934 123.479 174.729C123.834 174.523 124.091 174.257 124.251 173.929V172.411H123.26C121.71 172.411 120.936 172.865 120.936 173.771C120.936 174.168 121.068 174.478 121.332 174.701C121.596 174.924 121.936 175.036 122.351 175.036Z" fill="black"/>
<path d="M333 83C333 83 300.103 46 214 46C124.205 46 95 83 95 83" stroke="#BEBEBE" stroke-width="2" stroke-linecap="round" stroke-dasharray="0.5 4"/>
<path d="M101 83.5L95 83.5L95 77" stroke="#BEBEBE" stroke-width="2" stroke-linecap="round"/>
<path d="M95 83C95 83 169.502 1 364.5 1C567.86 1 634 83 634 83" stroke="#BEBEBE" stroke-width="2" stroke-linecap="round" stroke-dasharray="0.5 4"/>
<path d="M634.5 77V83H628" stroke="#BEBEBE" stroke-width="2" stroke-linecap="round"/>
<path d="M271 123H305M305 123L300 118M305 123L300 128" stroke="#BEBEBE" stroke-width="2" stroke-linecap="round"/>
<path d="M421 123H455M455 123L450 118M455 123L450 128" stroke="#BEBEBE" stroke-width="2" stroke-linecap="round"/>
<circle cx="363" cy="123" r="30" fill="#F0F0F0"/>
<circle cx="363" cy="123" r="10" fill="#43BAD6"/>
<path d="M178.59 166.047V172.814C178.585 173.753 178.289 174.521 177.701 175.118C177.118 175.715 176.325 176.05 175.322 176.123L174.974 176.137C173.884 176.137 173.016 175.843 172.369 175.255C171.722 174.667 171.394 173.858 171.385 172.828V166.047H172.684V172.787C172.684 173.507 172.882 174.068 173.278 174.469C173.675 174.865 174.24 175.063 174.974 175.063C175.716 175.063 176.284 174.865 176.676 174.469C177.072 174.072 177.271 173.514 177.271 172.794V166.047H178.59ZM182.069 176H180.757V166.047H182.069V176ZM187.688 174.968L188.126 174.428C188.618 173.79 188.898 172.833 188.967 171.557L189.083 168.604H193.848V174.968H194.798V178.174H193.533V176H188.372V178.174H187.107L187.114 174.968H187.688ZM189.186 174.968H192.583V169.772H190.307L190.231 171.536C190.154 173.008 189.805 174.152 189.186 174.968ZM200.984 168.604H202.249V176H200.984V170.606L197.573 176H196.309V168.604H197.573V174.004L200.984 168.604ZM208.347 170.627C208.347 170.281 208.215 170.007 207.95 169.807C207.686 169.602 207.324 169.499 206.863 169.499C206.417 169.499 206.043 169.615 205.742 169.848C205.446 170.08 205.298 170.354 205.298 170.668H204.04C204.04 170.025 204.309 169.499 204.847 169.089C205.384 168.679 206.057 168.474 206.863 168.474C207.729 168.474 208.404 168.66 208.887 169.034C209.37 169.403 209.611 169.932 209.611 170.62C209.611 170.953 209.511 171.258 209.311 171.536C209.11 171.814 208.825 172.035 208.456 172.199C209.317 172.491 209.748 173.065 209.748 173.922C209.748 174.601 209.486 175.139 208.962 175.535C208.438 175.932 207.738 176.13 206.863 176.13C206.011 176.13 205.307 175.923 204.751 175.508C204.2 175.089 203.924 174.523 203.924 173.812H205.182C205.182 174.173 205.341 174.482 205.66 174.742C205.984 174.997 206.385 175.125 206.863 175.125C207.346 175.125 207.736 175.013 208.032 174.79C208.328 174.567 208.477 174.277 208.477 173.922C208.477 173.507 208.351 173.211 208.101 173.033C207.854 172.851 207.469 172.76 206.945 172.76H205.681V171.693H207.055C207.916 171.671 208.347 171.315 208.347 170.627ZM217.432 176H216.167V172.842H212.77V176H211.498V168.604H212.77V171.81H216.167V168.604H217.432V176ZM224.035 176C223.962 175.854 223.903 175.594 223.857 175.221C223.27 175.831 222.568 176.137 221.752 176.137C221.023 176.137 220.424 175.932 219.954 175.521C219.489 175.107 219.257 174.583 219.257 173.949C219.257 173.179 219.549 172.582 220.132 172.158C220.72 171.73 221.545 171.516 222.606 171.516H223.837V170.935C223.837 170.493 223.705 170.142 223.44 169.882C223.176 169.618 222.786 169.485 222.271 169.485C221.82 169.485 221.442 169.599 221.137 169.827C220.831 170.055 220.679 170.331 220.679 170.654H219.407C219.407 170.285 219.537 169.93 219.797 169.588C220.061 169.242 220.417 168.968 220.863 168.768C221.314 168.567 221.809 168.467 222.347 168.467C223.199 168.467 223.867 168.681 224.35 169.109C224.833 169.533 225.083 170.119 225.102 170.866V174.271C225.102 174.95 225.188 175.49 225.361 175.891V176H224.035ZM221.937 175.036C222.333 175.036 222.709 174.934 223.064 174.729C223.42 174.523 223.677 174.257 223.837 173.929V172.411H222.846C221.296 172.411 220.521 172.865 220.521 173.771C220.521 174.168 220.654 174.478 220.918 174.701C221.182 174.924 221.522 175.036 221.937 175.036ZM231.869 168.604H233.134V176H231.869V170.606L228.458 176H227.193V168.604H228.458V174.004L231.869 168.604ZM232.211 165.91C232.211 166.462 232.022 166.906 231.644 167.243C231.27 167.576 230.778 167.742 230.167 167.742C229.556 167.742 229.062 167.574 228.684 167.236C228.305 166.899 228.116 166.457 228.116 165.91H229.148C229.148 166.229 229.235 166.48 229.408 166.662C229.581 166.84 229.834 166.929 230.167 166.929C230.486 166.929 230.734 166.84 230.912 166.662C231.094 166.484 231.186 166.234 231.186 165.91H232.211ZM241.207 176H239.942V172.842H236.545V176H235.273V168.604H236.545V171.81H239.942V168.604H241.207V176ZM246.313 176.137C245.311 176.137 244.495 175.809 243.866 175.152C243.237 174.492 242.923 173.61 242.923 172.507V172.274C242.923 171.541 243.062 170.887 243.34 170.312C243.622 169.734 244.014 169.283 244.516 168.959C245.021 168.631 245.568 168.467 246.156 168.467C247.118 168.467 247.865 168.784 248.398 169.417C248.932 170.05 249.198 170.957 249.198 172.138V172.664H244.188C244.206 173.393 244.418 173.983 244.823 174.435C245.233 174.881 245.753 175.104 246.382 175.104C246.828 175.104 247.207 175.013 247.517 174.831C247.826 174.649 248.098 174.407 248.33 174.106L249.103 174.708C248.483 175.66 247.553 176.137 246.313 176.137ZM246.156 169.506C245.646 169.506 245.217 169.693 244.871 170.066C244.525 170.436 244.311 170.955 244.229 171.625H247.934V171.529C247.897 170.887 247.724 170.39 247.414 170.039C247.104 169.684 246.685 169.506 246.156 169.506ZM256.916 172.384C256.916 173.509 256.659 174.416 256.144 175.104C255.629 175.793 254.931 176.137 254.052 176.137C253.154 176.137 252.448 175.852 251.933 175.282V178.844H250.668V168.604H251.823L251.885 169.424C252.4 168.786 253.115 168.467 254.031 168.467C254.92 168.467 255.622 168.802 256.137 169.472C256.656 170.142 256.916 171.074 256.916 172.268V172.384ZM255.651 172.24C255.651 171.406 255.474 170.748 255.118 170.265C254.763 169.782 254.275 169.54 253.655 169.54C252.89 169.54 252.315 169.88 251.933 170.559V174.093C252.311 174.767 252.89 175.104 253.669 175.104C254.275 175.104 254.756 174.865 255.111 174.387C255.471 173.904 255.651 173.188 255.651 172.24Z" fill="black"/>
<circle cx="213.5" cy="123" r="30" fill="#43BAD6"/>
<circle cx="213.5" cy="123" r="10" fill="white"/>
<path d="M338.689 171.604H334.513V176H333.2V166.047H339.366V167.127H334.513V170.531H338.689V171.604ZM344.138 169.738C343.946 169.706 343.739 169.69 343.516 169.69C342.686 169.69 342.123 170.044 341.827 170.75V176H340.562V168.604H341.793L341.813 169.458C342.228 168.797 342.816 168.467 343.577 168.467C343.823 168.467 344.01 168.499 344.138 168.562V169.738ZM344.835 172.233C344.835 171.509 344.976 170.857 345.259 170.278C345.546 169.7 345.942 169.253 346.448 168.938C346.959 168.624 347.54 168.467 348.191 168.467C349.199 168.467 350.012 168.815 350.632 169.513C351.256 170.21 351.568 171.137 351.568 172.295V172.384C351.568 173.104 351.429 173.751 351.151 174.325C350.878 174.895 350.484 175.339 349.969 175.658C349.458 175.977 348.87 176.137 348.205 176.137C347.202 176.137 346.389 175.788 345.765 175.091C345.145 174.394 344.835 173.471 344.835 172.322V172.233ZM346.106 172.384C346.106 173.204 346.296 173.863 346.674 174.359C347.057 174.856 347.567 175.104 348.205 175.104C348.848 175.104 349.358 174.854 349.736 174.353C350.115 173.847 350.304 173.14 350.304 172.233C350.304 171.422 350.11 170.766 349.723 170.265C349.34 169.759 348.829 169.506 348.191 169.506C347.567 169.506 347.063 169.754 346.681 170.251C346.298 170.748 346.106 171.459 346.106 172.384ZM354.351 168.604L354.392 169.533C354.957 168.822 355.695 168.467 356.606 168.467C358.17 168.467 358.958 169.349 358.972 171.112V176H357.707V171.105C357.702 170.572 357.579 170.178 357.338 169.923C357.101 169.668 356.729 169.54 356.224 169.54C355.813 169.54 355.453 169.649 355.144 169.868C354.834 170.087 354.592 170.374 354.419 170.729V176H353.154V168.604H354.351ZM362.595 166.812V168.604H363.976V169.581H362.595V174.168C362.595 174.464 362.656 174.688 362.779 174.838C362.902 174.984 363.112 175.057 363.408 175.057C363.554 175.057 363.755 175.029 364.01 174.975V176C363.677 176.091 363.354 176.137 363.039 176.137C362.474 176.137 362.048 175.966 361.761 175.624C361.474 175.282 361.33 174.797 361.33 174.168V169.581H359.983V168.604H361.33V166.812H362.595ZM368.091 172.288H364.755V171.256H368.091V172.288ZM375.152 171.399H370.839V174.927H375.85V176H369.526V166.047H375.781V167.127H370.839V170.326H375.152V171.399ZM378.481 168.604L378.522 169.533C379.088 168.822 379.826 168.467 380.737 168.467C382.3 168.467 383.089 169.349 383.103 171.112V176H381.838V171.105C381.833 170.572 381.71 170.178 381.469 169.923C381.232 169.668 380.86 169.54 380.354 169.54C379.944 169.54 379.584 169.649 379.274 169.868C378.965 170.087 378.723 170.374 378.55 170.729V176H377.285V168.604H378.481ZM384.702 172.24C384.702 171.105 384.971 170.194 385.509 169.506C386.047 168.813 386.751 168.467 387.621 168.467C388.487 168.467 389.173 168.763 389.679 169.355V165.5H390.943V176H389.781L389.72 175.207C389.214 175.827 388.51 176.137 387.607 176.137C386.751 176.137 386.051 175.786 385.509 175.084C384.971 174.382 384.702 173.466 384.702 172.336V172.24ZM385.967 172.384C385.967 173.222 386.14 173.879 386.486 174.353C386.833 174.826 387.311 175.063 387.922 175.063C388.724 175.063 389.31 174.703 389.679 173.983V170.586C389.3 169.889 388.719 169.54 387.936 169.54C387.316 169.54 386.833 169.779 386.486 170.258C386.14 170.736 385.967 171.445 385.967 172.384ZM327.396 189.384C327.396 190.509 327.139 191.416 326.624 192.104C326.109 192.793 325.412 193.137 324.532 193.137C323.634 193.137 322.928 192.852 322.413 192.282V195.844H321.148V185.604H322.304L322.365 186.424C322.88 185.786 323.596 185.467 324.512 185.467C325.4 185.467 326.102 185.802 326.617 186.472C327.137 187.142 327.396 188.074 327.396 189.268V189.384ZM326.132 189.24C326.132 188.406 325.954 187.748 325.599 187.265C325.243 186.782 324.756 186.54 324.136 186.54C323.37 186.54 322.796 186.88 322.413 187.559V191.093C322.791 191.767 323.37 192.104 324.149 192.104C324.756 192.104 325.236 191.865 325.592 191.387C325.952 190.904 326.132 190.188 326.132 189.24ZM333.576 193C333.503 192.854 333.444 192.594 333.398 192.221C332.811 192.831 332.109 193.137 331.293 193.137C330.564 193.137 329.965 192.932 329.495 192.521C329.03 192.107 328.798 191.583 328.798 190.949C328.798 190.179 329.09 189.582 329.673 189.158C330.261 188.73 331.086 188.516 332.147 188.516H333.378V187.935C333.378 187.493 333.246 187.142 332.981 186.882C332.717 186.618 332.327 186.485 331.812 186.485C331.361 186.485 330.983 186.599 330.678 186.827C330.372 187.055 330.22 187.331 330.22 187.654H328.948C328.948 187.285 329.078 186.93 329.338 186.588C329.602 186.242 329.958 185.968 330.404 185.768C330.855 185.567 331.35 185.467 331.888 185.467C332.74 185.467 333.408 185.681 333.891 186.109C334.374 186.533 334.624 187.119 334.643 187.866V191.271C334.643 191.95 334.729 192.49 334.902 192.891V193H333.576ZM331.478 192.036C331.874 192.036 332.25 191.934 332.605 191.729C332.961 191.523 333.218 191.257 333.378 190.929V189.411H332.387C330.837 189.411 330.062 189.865 330.062 190.771C330.062 191.168 330.195 191.478 330.459 191.701C330.723 191.924 331.063 192.036 331.478 192.036ZM340.692 187.627C340.692 187.281 340.56 187.007 340.296 186.807C340.032 186.602 339.669 186.499 339.209 186.499C338.762 186.499 338.389 186.615 338.088 186.848C337.792 187.08 337.644 187.354 337.644 187.668H336.386C336.386 187.025 336.655 186.499 337.192 186.089C337.73 185.679 338.402 185.474 339.209 185.474C340.075 185.474 340.749 185.66 341.232 186.034C341.715 186.403 341.957 186.932 341.957 187.62C341.957 187.953 341.857 188.258 341.656 188.536C341.456 188.814 341.171 189.035 340.802 189.199C341.663 189.491 342.094 190.065 342.094 190.922C342.094 191.601 341.832 192.139 341.308 192.535C340.784 192.932 340.084 193.13 339.209 193.13C338.357 193.13 337.653 192.923 337.097 192.508C336.545 192.089 336.27 191.523 336.27 190.812H337.527C337.527 191.173 337.687 191.482 338.006 191.742C338.329 191.997 338.73 192.125 339.209 192.125C339.692 192.125 340.082 192.013 340.378 191.79C340.674 191.567 340.822 191.277 340.822 190.922C340.822 190.507 340.697 190.211 340.446 190.033C340.2 189.851 339.815 189.76 339.291 189.76H338.026V188.693H339.4C340.262 188.671 340.692 188.315 340.692 187.627ZM349.982 189.384C349.982 190.509 349.725 191.416 349.21 192.104C348.695 192.793 347.998 193.137 347.118 193.137C346.22 193.137 345.514 192.852 344.999 192.282V195.844H343.734V185.604H344.89L344.951 186.424C345.466 185.786 346.182 185.467 347.098 185.467C347.986 185.467 348.688 185.802 349.203 186.472C349.723 187.142 349.982 188.074 349.982 189.268V189.384ZM348.718 189.24C348.718 188.406 348.54 187.748 348.185 187.265C347.829 186.782 347.341 186.54 346.722 186.54C345.956 186.54 345.382 186.88 344.999 187.559V191.093C345.377 191.767 345.956 192.104 346.735 192.104C347.341 192.104 347.822 191.865 348.178 191.387C348.538 190.904 348.718 190.188 348.718 189.24ZM356.162 193C356.089 192.854 356.03 192.594 355.984 192.221C355.396 192.831 354.695 193.137 353.879 193.137C353.15 193.137 352.55 192.932 352.081 192.521C351.616 192.107 351.384 191.583 351.384 190.949C351.384 190.179 351.675 189.582 352.259 189.158C352.847 188.73 353.672 188.516 354.733 188.516H355.964V187.935C355.964 187.493 355.832 187.142 355.567 186.882C355.303 186.618 354.913 186.485 354.398 186.485C353.947 186.485 353.569 186.599 353.264 186.827C352.958 187.055 352.806 187.331 352.806 187.654H351.534C351.534 187.285 351.664 186.93 351.924 186.588C352.188 186.242 352.544 185.968 352.99 185.768C353.441 185.567 353.936 185.467 354.474 185.467C355.326 185.467 355.993 185.681 356.477 186.109C356.96 186.533 357.21 187.119 357.229 187.866V191.271C357.229 191.95 357.315 192.49 357.488 192.891V193H356.162ZM354.063 192.036C354.46 192.036 354.836 191.934 355.191 191.729C355.547 191.523 355.804 191.257 355.964 190.929V189.411H354.973C353.423 189.411 352.648 189.865 352.648 190.771C352.648 191.168 352.781 191.478 353.045 191.701C353.309 191.924 353.649 192.036 354.063 192.036ZM362.458 186.027C363.388 186.027 364.131 186.34 364.687 186.964C365.247 187.584 365.527 188.402 365.527 189.418V189.534C365.527 190.231 365.393 190.856 365.124 191.407C364.855 191.954 364.468 192.38 363.962 192.686C363.461 192.986 362.882 193.137 362.226 193.137C361.232 193.137 360.432 192.806 359.826 192.146C359.22 191.48 358.917 190.589 358.917 189.473V188.857C358.917 187.303 359.204 186.068 359.778 185.152C360.357 184.236 361.209 183.678 362.335 183.478C362.973 183.364 363.404 183.225 363.627 183.061C363.85 182.896 363.962 182.671 363.962 182.384H365.001C365.001 182.953 364.871 183.398 364.611 183.717C364.356 184.036 363.946 184.261 363.381 184.394L362.438 184.605C361.686 184.783 361.12 185.084 360.742 185.508C360.368 185.927 360.125 186.488 360.011 187.189C360.681 186.415 361.496 186.027 362.458 186.027ZM362.212 187.066C361.592 187.066 361.1 187.276 360.735 187.695C360.371 188.11 360.188 188.687 360.188 189.425V189.534C360.188 190.327 360.371 190.956 360.735 191.421C361.104 191.881 361.601 192.111 362.226 192.111C362.854 192.111 363.351 191.879 363.716 191.414C364.08 190.949 364.263 190.27 364.263 189.377C364.263 188.68 364.078 188.121 363.709 187.702C363.344 187.278 362.845 187.066 362.212 187.066ZM366.614 189.233C366.614 188.509 366.756 187.857 367.038 187.278C367.325 186.7 367.722 186.253 368.228 185.938C368.738 185.624 369.319 185.467 369.971 185.467C370.978 185.467 371.791 185.815 372.411 186.513C373.035 187.21 373.348 188.137 373.348 189.295V189.384C373.348 190.104 373.209 190.751 372.931 191.325C372.657 191.895 372.263 192.339 371.748 192.658C371.238 192.977 370.65 193.137 369.984 193.137C368.982 193.137 368.168 192.788 367.544 192.091C366.924 191.394 366.614 190.471 366.614 189.322V189.233ZM367.886 189.384C367.886 190.204 368.075 190.863 368.453 191.359C368.836 191.856 369.346 192.104 369.984 192.104C370.627 192.104 371.137 191.854 371.516 191.353C371.894 190.847 372.083 190.14 372.083 189.233C372.083 188.422 371.889 187.766 371.502 187.265C371.119 186.759 370.609 186.506 369.971 186.506C369.346 186.506 368.843 186.754 368.46 187.251C368.077 187.748 367.886 188.459 367.886 189.384ZM380.279 186.629H377.798V193H376.533V186.629H374.1V185.604H380.279V186.629ZM387.095 193H385.823V190.32C385.267 190.466 384.698 190.539 384.114 190.539C383.189 190.539 382.483 190.302 381.995 189.828C381.512 189.354 381.266 188.68 381.257 187.805V185.597H382.521V187.846C382.544 188.949 383.075 189.5 384.114 189.5C384.698 189.5 385.267 189.427 385.823 189.281V185.604H387.095V193ZM393.91 185.604H395.175V193H393.91V187.606L390.499 193H389.234V185.604H390.499V191.004L393.91 185.604ZM399.509 189.849H398.586V193H397.314V185.604H398.586V188.734H399.413L401.901 185.604H403.433L400.507 189.158L403.679 193H402.072L399.509 189.849Z" fill="black"/>
<path d="M485.048 176V166.047H488.302C489.382 166.047 490.193 166.27 490.735 166.717C491.282 167.163 491.556 167.824 491.556 168.699C491.556 169.164 491.424 169.576 491.159 169.937C490.895 170.292 490.535 170.568 490.079 170.764C490.617 170.914 491.041 171.201 491.351 171.625C491.665 172.044 491.822 172.546 491.822 173.129C491.822 174.022 491.533 174.724 490.954 175.234C490.375 175.745 489.557 176 488.5 176H485.048ZM486.36 171.345V174.927H488.527C489.138 174.927 489.619 174.77 489.97 174.455C490.325 174.136 490.503 173.699 490.503 173.143C490.503 171.944 489.851 171.345 488.548 171.345H486.36ZM486.36 170.292H488.343C488.917 170.292 489.375 170.148 489.717 169.861C490.063 169.574 490.236 169.185 490.236 168.692C490.236 168.146 490.077 167.749 489.758 167.503C489.439 167.252 488.953 167.127 488.302 167.127H486.36V170.292ZM498.139 176C498.066 175.854 498.007 175.594 497.961 175.221C497.373 175.831 496.671 176.137 495.855 176.137C495.126 176.137 494.527 175.932 494.058 175.521C493.593 175.107 493.36 174.583 493.36 173.949C493.36 173.179 493.652 172.582 494.235 172.158C494.823 171.73 495.648 171.516 496.71 171.516H497.94V170.935C497.94 170.493 497.808 170.142 497.544 169.882C497.28 169.618 496.89 169.485 496.375 169.485C495.924 169.485 495.546 169.599 495.24 169.827C494.935 170.055 494.782 170.331 494.782 170.654H493.511C493.511 170.285 493.641 169.93 493.9 169.588C494.165 169.242 494.52 168.968 494.967 168.768C495.418 168.567 495.912 168.467 496.45 168.467C497.302 168.467 497.97 168.681 498.453 169.109C498.936 169.533 499.187 170.119 499.205 170.866V174.271C499.205 174.95 499.292 175.49 499.465 175.891V176H498.139ZM496.04 175.036C496.437 175.036 496.812 174.934 497.168 174.729C497.523 174.523 497.781 174.257 497.94 173.929V172.411H496.949C495.4 172.411 494.625 172.865 494.625 173.771C494.625 174.168 494.757 174.478 495.021 174.701C495.286 174.924 495.625 175.036 496.04 175.036ZM504.154 175.104C504.605 175.104 505 174.968 505.337 174.694C505.674 174.421 505.861 174.079 505.897 173.669H507.094C507.071 174.093 506.925 174.496 506.656 174.879C506.387 175.262 506.027 175.567 505.576 175.795C505.13 176.023 504.656 176.137 504.154 176.137C503.147 176.137 502.345 175.802 501.748 175.132C501.156 174.457 500.859 173.537 500.859 172.37V172.158C500.859 171.438 500.992 170.798 501.256 170.237C501.52 169.677 501.898 169.242 502.391 168.932C502.887 168.622 503.473 168.467 504.147 168.467C504.977 168.467 505.665 168.715 506.212 169.212C506.763 169.709 507.057 170.354 507.094 171.146H505.897C505.861 170.668 505.679 170.276 505.351 169.971C505.027 169.661 504.626 169.506 504.147 169.506C503.505 169.506 503.006 169.738 502.65 170.203C502.299 170.663 502.124 171.331 502.124 172.206V172.445C502.124 173.298 502.299 173.954 502.65 174.414C503.001 174.874 503.503 175.104 504.154 175.104ZM510.58 172.575L509.787 173.402V176H508.522V165.5H509.787V171.851L510.464 171.037L512.768 168.604H514.306L511.428 171.693L514.641 176H513.157L510.58 172.575ZM518.243 172.288H514.907V171.256H518.243V172.288ZM525.305 171.399H520.991V174.927H526.002V176H519.679V166.047H525.934V167.127H520.991V170.326H525.305V171.399ZM528.634 168.604L528.675 169.533C529.24 168.822 529.978 168.467 530.89 168.467C532.453 168.467 533.241 169.349 533.255 171.112V176H531.99V171.105C531.986 170.572 531.863 170.178 531.621 169.923C531.384 169.668 531.013 169.54 530.507 169.54C530.097 169.54 529.737 169.649 529.427 169.868C529.117 170.087 528.875 170.374 528.702 170.729V176H527.438V168.604H528.634ZM534.854 172.24C534.854 171.105 535.123 170.194 535.661 169.506C536.199 168.813 536.903 168.467 537.773 168.467C538.639 168.467 539.325 168.763 539.831 169.355V165.5H541.096V176H539.934L539.872 175.207C539.366 175.827 538.662 176.137 537.76 176.137C536.903 176.137 536.203 175.786 535.661 175.084C535.123 174.382 534.854 173.466 534.854 172.336V172.24ZM536.119 172.384C536.119 173.222 536.292 173.879 536.639 174.353C536.985 174.826 537.464 175.063 538.074 175.063C538.876 175.063 539.462 174.703 539.831 173.983V170.586C539.453 169.889 538.872 169.54 538.088 169.54C537.468 169.54 536.985 169.779 536.639 170.258C536.292 170.736 536.119 171.445 536.119 172.384ZM478.396 189.384C478.396 190.509 478.139 191.416 477.624 192.104C477.109 192.793 476.412 193.137 475.532 193.137C474.634 193.137 473.928 192.852 473.413 192.282V195.844H472.148V185.604H473.304L473.365 186.424C473.88 185.786 474.596 185.467 475.512 185.467C476.4 185.467 477.102 185.802 477.617 186.472C478.137 187.142 478.396 188.074 478.396 189.268V189.384ZM477.132 189.24C477.132 188.406 476.954 187.748 476.599 187.265C476.243 186.782 475.756 186.54 475.136 186.54C474.37 186.54 473.796 186.88 473.413 187.559V191.093C473.791 191.767 474.37 192.104 475.149 192.104C475.756 192.104 476.236 191.865 476.592 191.387C476.952 190.904 477.132 190.188 477.132 189.24ZM484.576 193C484.503 192.854 484.444 192.594 484.398 192.221C483.811 192.831 483.109 193.137 482.293 193.137C481.564 193.137 480.965 192.932 480.495 192.521C480.03 192.107 479.798 191.583 479.798 190.949C479.798 190.179 480.09 189.582 480.673 189.158C481.261 188.73 482.086 188.516 483.147 188.516H484.378V187.935C484.378 187.493 484.246 187.142 483.981 186.882C483.717 186.618 483.327 186.485 482.812 186.485C482.361 186.485 481.983 186.599 481.678 186.827C481.372 187.055 481.22 187.331 481.22 187.654H479.948C479.948 187.285 480.078 186.93 480.338 186.588C480.602 186.242 480.958 185.968 481.404 185.768C481.855 185.567 482.35 185.467 482.888 185.467C483.74 185.467 484.408 185.681 484.891 186.109C485.374 186.533 485.624 187.119 485.643 187.866V191.271C485.643 191.95 485.729 192.49 485.902 192.891V193H484.576ZM482.478 192.036C482.874 192.036 483.25 191.934 483.605 191.729C483.961 191.523 484.218 191.257 484.378 190.929V189.411H483.387C481.837 189.411 481.062 189.865 481.062 190.771C481.062 191.168 481.195 191.478 481.459 191.701C481.723 191.924 482.063 192.036 482.478 192.036ZM491.692 187.627C491.692 187.281 491.56 187.007 491.296 186.807C491.032 186.602 490.669 186.499 490.209 186.499C489.762 186.499 489.389 186.615 489.088 186.848C488.792 187.08 488.644 187.354 488.644 187.668H487.386C487.386 187.025 487.655 186.499 488.192 186.089C488.73 185.679 489.402 185.474 490.209 185.474C491.075 185.474 491.749 185.66 492.232 186.034C492.715 186.403 492.957 186.932 492.957 187.62C492.957 187.953 492.857 188.258 492.656 188.536C492.456 188.814 492.171 189.035 491.802 189.199C492.663 189.491 493.094 190.065 493.094 190.922C493.094 191.601 492.832 192.139 492.308 192.535C491.784 192.932 491.084 193.13 490.209 193.13C489.357 193.13 488.653 192.923 488.097 192.508C487.545 192.089 487.27 191.523 487.27 190.812H488.527C488.527 191.173 488.687 191.482 489.006 191.742C489.329 191.997 489.73 192.125 490.209 192.125C490.692 192.125 491.082 192.013 491.378 191.79C491.674 191.567 491.822 191.277 491.822 190.922C491.822 190.507 491.697 190.211 491.446 190.033C491.2 189.851 490.815 189.76 490.291 189.76H489.026V188.693H490.4C491.262 188.671 491.692 188.315 491.692 187.627ZM500.982 189.384C500.982 190.509 500.725 191.416 500.21 192.104C499.695 192.793 498.998 193.137 498.118 193.137C497.22 193.137 496.514 192.852 495.999 192.282V195.844H494.734V185.604H495.89L495.951 186.424C496.466 185.786 497.182 185.467 498.098 185.467C498.986 185.467 499.688 185.802 500.203 186.472C500.723 187.142 500.982 188.074 500.982 189.268V189.384ZM499.718 189.24C499.718 188.406 499.54 187.748 499.185 187.265C498.829 186.782 498.341 186.54 497.722 186.54C496.956 186.54 496.382 186.88 495.999 187.559V191.093C496.377 191.767 496.956 192.104 497.735 192.104C498.341 192.104 498.822 191.865 499.178 191.387C499.538 190.904 499.718 190.188 499.718 189.24ZM507.162 193C507.089 192.854 507.03 192.594 506.984 192.221C506.396 192.831 505.695 193.137 504.879 193.137C504.15 193.137 503.55 192.932 503.081 192.521C502.616 192.107 502.384 191.583 502.384 190.949C502.384 190.179 502.675 189.582 503.259 189.158C503.847 188.73 504.672 188.516 505.733 188.516H506.964V187.935C506.964 187.493 506.832 187.142 506.567 186.882C506.303 186.618 505.913 186.485 505.398 186.485C504.947 186.485 504.569 186.599 504.264 186.827C503.958 187.055 503.806 187.331 503.806 187.654H502.534C502.534 187.285 502.664 186.93 502.924 186.588C503.188 186.242 503.544 185.968 503.99 185.768C504.441 185.567 504.936 185.467 505.474 185.467C506.326 185.467 506.993 185.681 507.477 186.109C507.96 186.533 508.21 187.119 508.229 187.866V191.271C508.229 191.95 508.315 192.49 508.488 192.891V193H507.162ZM505.063 192.036C505.46 192.036 505.836 191.934 506.191 191.729C506.547 191.523 506.804 191.257 506.964 190.929V189.411H505.973C504.423 189.411 503.648 189.865 503.648 190.771C503.648 191.168 503.781 191.478 504.045 191.701C504.309 191.924 504.649 192.036 505.063 192.036ZM513.458 186.027C514.388 186.027 515.131 186.34 515.687 186.964C516.247 187.584 516.527 188.402 516.527 189.418V189.534C516.527 190.231 516.393 190.856 516.124 191.407C515.855 191.954 515.468 192.38 514.962 192.686C514.461 192.986 513.882 193.137 513.226 193.137C512.232 193.137 511.432 192.806 510.826 192.146C510.22 191.48 509.917 190.589 509.917 189.473V188.857C509.917 187.303 510.204 186.068 510.778 185.152C511.357 184.236 512.209 183.678 513.335 183.478C513.973 183.364 514.404 183.225 514.627 183.061C514.85 182.896 514.962 182.671 514.962 182.384H516.001C516.001 182.953 515.871 183.398 515.611 183.717C515.356 184.036 514.946 184.261 514.381 184.394L513.438 184.605C512.686 184.783 512.12 185.084 511.742 185.508C511.368 185.927 511.125 186.488 511.011 187.189C511.681 186.415 512.496 186.027 513.458 186.027ZM513.212 187.066C512.592 187.066 512.1 187.276 511.735 187.695C511.371 188.11 511.188 188.687 511.188 189.425V189.534C511.188 190.327 511.371 190.956 511.735 191.421C512.104 191.881 512.601 192.111 513.226 192.111C513.854 192.111 514.351 191.879 514.716 191.414C515.08 190.949 515.263 190.27 515.263 189.377C515.263 188.68 515.078 188.121 514.709 187.702C514.344 187.278 513.845 187.066 513.212 187.066ZM517.614 189.233C517.614 188.509 517.756 187.857 518.038 187.278C518.325 186.7 518.722 186.253 519.228 185.938C519.738 185.624 520.319 185.467 520.971 185.467C521.978 185.467 522.791 185.815 523.411 186.513C524.035 187.21 524.348 188.137 524.348 189.295V189.384C524.348 190.104 524.209 190.751 523.931 191.325C523.657 191.895 523.263 192.339 522.748 192.658C522.238 192.977 521.65 193.137 520.984 193.137C519.982 193.137 519.168 192.788 518.544 192.091C517.924 191.394 517.614 190.471 517.614 189.322V189.233ZM518.886 189.384C518.886 190.204 519.075 190.863 519.453 191.359C519.836 191.856 520.346 192.104 520.984 192.104C521.627 192.104 522.137 191.854 522.516 191.353C522.894 190.847 523.083 190.14 523.083 189.233C523.083 188.422 522.889 187.766 522.502 187.265C522.119 186.759 521.609 186.506 520.971 186.506C520.346 186.506 519.843 186.754 519.46 187.251C519.077 187.748 518.886 188.459 518.886 189.384ZM531.279 186.629H528.798V193H527.533V186.629H525.1V185.604H531.279V186.629ZM538.095 193H536.823V190.32C536.267 190.466 535.698 190.539 535.114 190.539C534.189 190.539 533.483 190.302 532.995 189.828C532.512 189.354 532.266 188.68 532.257 187.805V185.597H533.521V187.846C533.544 188.949 534.075 189.5 535.114 189.5C535.698 189.5 536.267 189.427 536.823 189.281V185.604H538.095V193ZM544.91 185.604H546.175V193H544.91V187.606L541.499 193H540.234V185.604H541.499V191.004L544.91 185.604ZM550.509 189.849H549.586V193H548.314V185.604H549.586V188.734H550.413L552.901 185.604H554.433L551.507 189.158L554.679 193H553.072L550.509 189.849Z" fill="black"/>
</svg>
