<svg width="124" height="381" viewBox="0 0 124 381" fill="none" xmlns="http://www.w3.org/2000/svg">
<path d="M39.9999 102L39.9999 132M39.9999 132L45 127.588M39.9999 132L35 127.588" stroke="#BEBEBE" stroke-width="2" stroke-linecap="round"/>
<circle cx="40" cy="324" r="29.5" stroke="#CACACA"/>
<circle cx="40" cy="324" r="9.5" stroke="#43BAD6"/>
<path d="M19.7393 372.529H18.5293V377H17.2168V367.047H18.5293V371.436H19.5547L23.0342 367.047H24.668L20.8672 371.873L24.9482 377H23.3418L19.7393 372.529ZM32.0166 369.604V377H30.7451V370.65H28.2295L28.0791 373.418C27.9971 374.69 27.7829 375.599 27.4365 376.146C27.0947 376.693 26.5501 376.977 25.8027 377H25.2969V375.886L25.6592 375.859C26.0693 375.813 26.3633 375.576 26.541 375.148C26.7188 374.719 26.8327 373.926 26.8828 372.769L27.0195 369.604H32.0166ZM38.832 369.604H40.0967V377H38.832V371.607L35.4209 377H34.1562V369.604H35.4209V375.004L38.832 369.604ZM45.1963 377.137C44.1937 377.137 43.3779 376.809 42.749 376.152C42.1201 375.492 41.8057 374.61 41.8057 373.507V373.275C41.8057 372.541 41.9447 371.887 42.2227 371.313C42.5052 370.734 42.8971 370.283 43.3984 369.959C43.9043 369.631 44.4512 369.467 45.0391 369.467C46.0007 369.467 46.748 369.784 47.2812 370.417C47.8145 371.051 48.0811 371.957 48.0811 373.138V373.664H43.0703C43.0885 374.393 43.3005 374.984 43.7061 375.435C44.1162 375.881 44.6357 376.105 45.2646 376.105C45.7113 376.105 46.0895 376.013 46.3994 375.831C46.7093 375.649 46.9805 375.407 47.2129 375.107L47.9854 375.708C47.3656 376.661 46.4359 377.137 45.1963 377.137ZM45.0391 370.506C44.5286 370.506 44.1003 370.693 43.7539 371.067C43.4076 371.436 43.1934 371.955 43.1113 372.625H46.8164V372.529C46.7799 371.887 46.6068 371.39 46.2969 371.039C45.987 370.684 45.5677 370.506 45.0391 370.506ZM55.5938 377H54.3291V373.842H50.9316V377H49.6602V369.604H50.9316V372.81H54.3291V369.604H55.5938V377ZM63.127 370.629H60.6455V377H59.3809V370.629H56.9473V369.604H63.127V370.629Z" fill="black"/>
<circle cx="40.5" cy="30.0002" r="29.5" stroke="#CACACA"/>
<circle cx="40.5" cy="30.0002" r="10" fill="#43BAD6"/>
<path d="M8.11719 73.0471L11.3711 81.1682L14.625 73.0471H16.3271V83.0002H15.0146V79.1242L15.1377 74.9406L11.8701 83.0002H10.8652L7.60449 74.9611L7.73438 79.1242V83.0002H6.42188V73.0471H8.11719ZM21.5156 83.1369C20.513 83.1369 19.6973 82.8088 19.0684 82.1525C18.4395 81.4917 18.125 80.6099 18.125 79.507V79.2746C18.125 78.5409 18.264 77.8869 18.542 77.3127C18.8245 76.7339 19.2165 76.2827 19.7178 75.9592C20.2236 75.631 20.7705 75.467 21.3584 75.467C22.32 75.467 23.0674 75.7837 23.6006 76.4172C24.1338 77.0506 24.4004 77.9575 24.4004 79.1379V79.6642H19.3896C19.4079 80.3934 19.6198 80.9836 20.0254 81.4348C20.4355 81.8814 20.9551 82.1047 21.584 82.1047C22.0306 82.1047 22.4089 82.0135 22.7188 81.8312C23.0286 81.6489 23.2998 81.4074 23.5322 81.1066L24.3047 81.7082C23.6849 82.6607 22.7552 83.1369 21.5156 83.1369ZM21.3584 76.506C20.848 76.506 20.4196 76.6929 20.0732 77.0666C19.7269 77.4357 19.5127 77.9553 19.4307 78.6252H23.1357V78.5295C23.0993 77.8869 22.9261 77.3902 22.6162 77.0392C22.3063 76.6838 21.887 76.506 21.3584 76.506ZM31.9131 83.0002H30.6484V79.842H27.251V83.0002H25.9795V75.6037H27.251V78.8098H30.6484V75.6037H31.9131V83.0002ZM37.0195 83.1369C36.0169 83.1369 35.2012 82.8088 34.5723 82.1525C33.9434 81.4917 33.6289 80.6099 33.6289 79.507V79.2746C33.6289 78.5409 33.7679 77.8869 34.0459 77.3127C34.3285 76.7339 34.7204 76.2827 35.2217 75.9592C35.7275 75.631 36.2744 75.467 36.8623 75.467C37.8239 75.467 38.5713 75.7837 39.1045 76.4172C39.6377 77.0506 39.9043 77.9575 39.9043 79.1379V79.6642H34.8936C34.9118 80.3934 35.1237 80.9836 35.5293 81.4348C35.9395 81.8814 36.459 82.1047 37.0879 82.1047C37.5345 82.1047 37.9128 82.0135 38.2227 81.8312C38.5326 81.6489 38.8037 81.4074 39.0361 81.1066L39.8086 81.7082C39.1888 82.6607 38.2591 83.1369 37.0195 83.1369ZM36.8623 76.506C36.3519 76.506 35.9235 76.6929 35.5771 77.0666C35.2308 77.4357 35.0166 77.9553 34.9346 78.6252H38.6396V78.5295C38.6032 77.8869 38.43 77.3902 38.1201 77.0392C37.8102 76.6838 37.391 76.506 36.8623 76.506ZM41.3125 81.968L41.75 81.4279C42.2422 80.7899 42.5225 79.8329 42.5908 78.5568L42.707 75.6037H47.4717V81.968H48.4219V85.174H47.1572V83.0002H41.9961V85.174H40.7314L40.7383 81.968H41.3125ZM42.8096 81.968H46.207V76.7726H43.9307L43.8555 78.5363C43.778 80.0083 43.4294 81.1522 42.8096 81.968ZM55.7227 79.7873H54.834V83.0002H53.5693V79.7873H52.6807L50.6094 83.0002H49.0098L51.6553 79.1721L49.2627 75.6037H50.7939L52.7012 78.6662H53.5693V75.6037H54.834V78.6662H55.6953L57.6162 75.6037H59.1475L56.748 79.1789L59.3936 83.0002H57.7939L55.7227 79.7873ZM63.4746 83.1369C62.472 83.1369 61.6562 82.8088 61.0273 82.1525C60.3984 81.4917 60.084 80.6099 60.084 79.507V79.2746C60.084 78.5409 60.223 77.8869 60.501 77.3127C60.7835 76.7339 61.1755 76.2827 61.6768 75.9592C62.1826 75.631 62.7295 75.467 63.3174 75.467C64.279 75.467 65.0264 75.7837 65.5596 76.4172C66.0928 77.0506 66.3594 77.9575 66.3594 79.1379V79.6642H61.3486C61.3669 80.3934 61.5788 80.9836 61.9844 81.4348C62.3945 81.8814 62.9141 82.1047 63.543 82.1047C63.9896 82.1047 64.3678 82.0135 64.6777 81.8312C64.9876 81.6489 65.2588 81.4074 65.4912 81.1066L66.2637 81.7082C65.6439 82.6607 64.7142 83.1369 63.4746 83.1369ZM63.3174 76.506C62.807 76.506 62.3786 76.6929 62.0322 77.0666C61.6859 77.4357 61.4717 77.9553 61.3896 78.6252H65.0947V78.5295C65.0583 77.8869 64.8851 77.3902 64.5752 77.0392C64.2653 76.6838 63.846 76.506 63.3174 76.506ZM74.0771 79.384C74.0771 80.5096 73.8197 81.4165 73.3047 82.1047C72.7897 82.7928 72.0924 83.1369 71.2129 83.1369C70.3151 83.1369 69.6087 82.8521 69.0938 82.2824V85.8439H67.8291V75.6037H68.9844L69.0459 76.424C69.5609 75.786 70.2764 75.467 71.1924 75.467C72.0811 75.467 72.7829 75.8019 73.2979 76.4719C73.8174 77.1418 74.0771 78.0738 74.0771 79.2678V79.384ZM72.8125 79.2404C72.8125 78.4064 72.6348 77.7479 72.2793 77.2648C71.9238 76.7818 71.4362 76.5402 70.8164 76.5402C70.0508 76.5402 69.4766 76.8797 69.0938 77.5588V81.093C69.472 81.7674 70.0508 82.1047 70.8301 82.1047C71.4362 82.1047 71.917 81.8654 72.2725 81.3869C72.6325 80.9038 72.8125 80.1883 72.8125 79.2404Z" fill="black"/>
<path d="M80 142C80 142 100 126.381 100 85.5002C100 42.8663 82 30.0002 82 30.0002" stroke="#BEBEBE" stroke-width="2" stroke-linecap="round" stroke-dasharray="0.5 4"/>
<path d="M82 30.0002C82 30.0002 123 69.6702 123 173.5C123 281.783 82 317 82 317" stroke="#BEBEBE" stroke-width="2" stroke-linecap="round" stroke-dasharray="0.5 4"/>
<path d="M88 30.0002L82 30.0002L82 36.5002" stroke="#BEBEBE" stroke-width="2" stroke-linecap="round"/>
<path d="M88.5 317L82 317L82 310.5" stroke="#BEBEBE" stroke-width="2" stroke-linecap="round"/>
<circle opacity="0.2" cx="40.5" cy="177" r="30" fill="#43BAD6"/>
<circle cx="40.5" cy="177" r="10" fill="#BEBEBE"/>
<path d="M8.87598 225.345C8.87598 226.306 8.72331 227.136 8.41797 227.833C8.11263 228.526 7.68424 229.068 7.13281 229.46L8.91016 230.855L8.01465 231.682L5.91602 230.014C5.58789 230.096 5.24154 230.137 4.87695 230.137C4.0931 230.137 3.39811 229.945 2.79199 229.563C2.18587 229.175 1.71419 228.626 1.37695 227.915C1.04427 227.2 0.873372 226.373 0.864258 225.434V224.716C0.864258 223.759 1.0306 222.914 1.36328 222.18C1.69596 221.446 2.16536 220.886 2.77148 220.498C3.38216 220.106 4.07943 219.91 4.86328 219.91C5.66536 219.91 6.36947 220.104 6.97559 220.491C7.58626 220.879 8.05566 221.437 8.38379 222.166C8.71191 222.891 8.87598 223.738 8.87598 224.709V225.345ZM7.56348 224.702C7.56348 223.531 7.32878 222.629 6.85938 221.995C6.39453 221.357 5.72917 221.038 4.86328 221.038C4.03841 221.038 3.38672 221.355 2.9082 221.988C2.43424 222.617 2.19043 223.492 2.17676 224.613V225.345C2.17676 226.484 2.41374 227.382 2.8877 228.038C3.36621 228.695 4.0293 229.023 4.87695 229.023C5.72461 229.023 6.38086 228.715 6.8457 228.1C7.31055 227.48 7.5498 226.594 7.56348 225.441V224.702ZM16.3955 227.403H12.2256L11.2891 230H9.93555L13.7363 220.047H14.8848L18.6924 230H17.3457L16.3955 227.403ZM12.6221 226.322H16.0059L14.3105 221.667L12.6221 226.322ZM28.0918 222.604H29.3564V230H28.0918V224.607L24.6807 230H23.416V222.604H24.6807V228.004L28.0918 222.604ZM37.4297 230H36.165V226.842H32.7676V230H31.4961V222.604H32.7676V225.81H36.165V222.604H37.4297V230ZM45.3662 226.787H44.4775V230H43.2129V226.787H42.3242L40.2529 230H38.6533L41.2988 226.172L38.9062 222.604H40.4375L42.3447 225.666H43.2129V222.604H44.4775V225.666H45.3389L47.2598 222.604H48.791L46.3916 226.179L49.0371 230H47.4375L45.3662 226.787ZM53.1182 230.137C52.1156 230.137 51.2998 229.809 50.6709 229.153C50.042 228.492 49.7275 227.61 49.7275 226.507V226.275C49.7275 225.541 49.8665 224.887 50.1445 224.313C50.4271 223.734 50.819 223.283 51.3203 222.959C51.8262 222.631 52.373 222.467 52.9609 222.467C53.9225 222.467 54.6699 222.784 55.2031 223.417C55.7363 224.051 56.0029 224.958 56.0029 226.138V226.664H50.9922C51.0104 227.393 51.2223 227.984 51.6279 228.435C52.0381 228.881 52.5576 229.105 53.1865 229.105C53.6331 229.105 54.0114 229.014 54.3213 228.831C54.6312 228.649 54.9023 228.407 55.1348 228.107L55.9072 228.708C55.2874 229.661 54.3577 230.137 53.1182 230.137ZM52.9609 223.506C52.4505 223.506 52.0221 223.693 51.6758 224.067C51.3294 224.436 51.1152 224.955 51.0332 225.625H54.7383V225.529C54.7018 224.887 54.5286 224.39 54.2188 224.039C53.9089 223.684 53.4896 223.506 52.9609 223.506ZM63.5156 230H62.251V226.842H58.8535V230H57.582V222.604H58.8535V225.81H62.251V222.604H63.5156V230ZM68.6221 230.137C67.6195 230.137 66.8037 229.809 66.1748 229.153C65.5459 228.492 65.2314 227.61 65.2314 226.507V226.275C65.2314 225.541 65.3704 224.887 65.6484 224.313C65.931 223.734 66.3229 223.283 66.8242 222.959C67.3301 222.631 67.877 222.467 68.4648 222.467C69.4264 222.467 70.1738 222.784 70.707 223.417C71.2402 224.051 71.5068 224.958 71.5068 226.138V226.664H66.4961C66.5143 227.393 66.7262 227.984 67.1318 228.435C67.542 228.881 68.0615 229.105 68.6904 229.105C69.137 229.105 69.5153 229.014 69.8252 228.831C70.1351 228.649 70.4062 228.407 70.6387 228.107L71.4111 228.708C70.7913 229.661 69.8617 230.137 68.6221 230.137ZM68.4648 223.506C67.9544 223.506 67.526 223.693 67.1797 224.067C66.8333 224.436 66.6191 224.955 66.5371 225.625H70.2422V225.529C70.2057 224.887 70.0326 224.39 69.7227 224.039C69.4128 223.684 68.9935 223.506 68.4648 223.506ZM79.2246 226.384C79.2246 227.51 78.9671 228.417 78.4521 229.105C77.9372 229.793 77.2399 230.137 76.3604 230.137C75.4626 230.137 74.7562 229.852 74.2412 229.282V232.844H72.9766V222.604H74.1318L74.1934 223.424C74.7083 222.786 75.4238 222.467 76.3398 222.467C77.2285 222.467 77.9303 222.802 78.4453 223.472C78.9648 224.142 79.2246 225.074 79.2246 226.268V226.384ZM77.96 226.24C77.96 225.406 77.7822 224.748 77.4268 224.265C77.0713 223.782 76.5837 223.54 75.9639 223.54C75.1982 223.54 74.624 223.88 74.2412 224.559V228.093C74.6195 228.767 75.1982 229.105 75.9775 229.105C76.5837 229.105 77.0645 228.865 77.4199 228.387C77.7799 227.904 77.96 227.188 77.96 226.24Z" fill="black"/>
</svg>
