<svg width="434" height="87" viewBox="0 0 434 87" fill="none" xmlns="http://www.w3.org/2000/svg">
<circle cx="30" cy="30" r="29.5" stroke="#CACACA"/>
<circle cx="30" cy="30" r="9.5" stroke="#43BAD6"/>
<path d="M100 30.0001H133.5M133.5 30.0001L128.5 25M133.5 30.0001L128.5 35" stroke="#BEBEBE" stroke-width="2" stroke-linecap="round"/>
<path d="M273.5 30.0001H307.5M273.5 30.0001L278.5 25M273.5 30.0001L278.5 35M307.5 30.0001L302.5 25M307.5 30.0001L302.5 35" stroke="#BEBEBE" stroke-width="2" stroke-linecap="round"/>
<path d="M9.73926 78.5293H8.5293V83H7.2168V73.0469H8.5293V77.4355H9.55469L13.0342 73.0469H14.668L10.8672 77.873L14.9482 83H13.3418L9.73926 78.5293ZM22.0166 75.6035V83H20.7451V76.6494H18.2295L18.0791 79.418C17.9971 80.6895 17.7829 81.5986 17.4365 82.1455C17.0947 82.6924 16.5501 82.9772 15.8027 83H15.2969V81.8857L15.6592 81.8584C16.0693 81.8128 16.3633 81.5758 16.541 81.1475C16.7188 80.7191 16.8327 79.9261 16.8828 78.7686L17.0195 75.6035H22.0166ZM28.832 75.6035H30.0967V83H28.832V77.6064L25.4209 83H24.1562V75.6035H25.4209V81.0039L28.832 75.6035ZM35.1963 83.1367C34.1937 83.1367 33.3779 82.8086 32.749 82.1523C32.1201 81.4915 31.8057 80.6097 31.8057 79.5068V79.2744C31.8057 78.5407 31.9447 77.8867 32.2227 77.3125C32.5052 76.7337 32.8971 76.2826 33.3984 75.959C33.9043 75.6309 34.4512 75.4668 35.0391 75.4668C36.0007 75.4668 36.748 75.7835 37.2812 76.417C37.8145 77.0505 38.0811 77.9574 38.0811 79.1377V79.6641H33.0703C33.0885 80.3932 33.3005 80.9834 33.7061 81.4346C34.1162 81.8812 34.6357 82.1045 35.2646 82.1045C35.7113 82.1045 36.0895 82.0133 36.3994 81.8311C36.7093 81.6488 36.9805 81.4072 37.2129 81.1064L37.9854 81.708C37.3656 82.6605 36.4359 83.1367 35.1963 83.1367ZM35.0391 76.5059C34.5286 76.5059 34.1003 76.6927 33.7539 77.0664C33.4076 77.4355 33.1934 77.9551 33.1113 78.625H36.8164V78.5293C36.7799 77.8867 36.6068 77.39 36.2969 77.0391C35.987 76.6836 35.5677 76.5059 35.0391 76.5059ZM45.5938 83H44.3291V79.8418H40.9316V83H39.6602V75.6035H40.9316V78.8096H44.3291V75.6035H45.5938V83ZM53.127 76.6289H50.6455V83H49.3809V76.6289H46.9473V75.6035H53.127V76.6289Z" fill="black"/>
<circle cx="203.5" cy="30" r="29.5" stroke="#CACACA"/>
<circle cx="203.5" cy="30" r="10" fill="#43BAD6"/>
<path d="M143.31 73.0469L146.563 81.168L149.817 73.0469H151.52V83H150.207V79.124L150.33 74.9404L147.062 83H146.058L142.797 74.9609L142.927 79.124V83H141.614V73.0469H143.31ZM156.708 83.1367C155.705 83.1367 154.89 82.8086 154.261 82.1523C153.632 81.4915 153.317 80.6097 153.317 79.5068V79.2744C153.317 78.5407 153.456 77.8867 153.734 77.3125C154.017 76.7337 154.409 76.2826 154.91 75.959C155.416 75.6309 155.963 75.4668 156.551 75.4668C157.512 75.4668 158.26 75.7835 158.793 76.417C159.326 77.0505 159.593 77.9574 159.593 79.1377V79.6641H154.582C154.6 80.3932 154.812 80.9834 155.218 81.4346C155.628 81.8812 156.147 82.1045 156.776 82.1045C157.223 82.1045 157.601 82.0133 157.911 81.8311C158.221 81.6488 158.492 81.4072 158.725 81.1064L159.497 81.708C158.877 82.6605 157.948 83.1367 156.708 83.1367ZM156.551 76.5059C156.04 76.5059 155.612 76.6927 155.266 77.0664C154.919 77.4355 154.705 77.9551 154.623 78.625H158.328V78.5293C158.292 77.8867 158.118 77.39 157.809 77.0391C157.499 76.6836 157.079 76.5059 156.551 76.5059ZM167.105 83H165.841V79.8418H162.443V83H161.172V75.6035H162.443V78.8096H165.841V75.6035H167.105V83ZM172.212 83.1367C171.209 83.1367 170.394 82.8086 169.765 82.1523C169.136 81.4915 168.821 80.6097 168.821 79.5068V79.2744C168.821 78.5407 168.96 77.8867 169.238 77.3125C169.521 76.7337 169.913 76.2826 170.414 75.959C170.92 75.6309 171.467 75.4668 172.055 75.4668C173.016 75.4668 173.764 75.7835 174.297 76.417C174.83 77.0505 175.097 77.9574 175.097 79.1377V79.6641H170.086C170.104 80.3932 170.316 80.9834 170.722 81.4346C171.132 81.8812 171.651 82.1045 172.28 82.1045C172.727 82.1045 173.105 82.0133 173.415 81.8311C173.725 81.6488 173.996 81.4072 174.229 81.1064L175.001 81.708C174.381 82.6605 173.451 83.1367 172.212 83.1367ZM172.055 76.5059C171.544 76.5059 171.116 76.6927 170.77 77.0664C170.423 77.4355 170.209 77.9551 170.127 78.625H173.832V78.5293C173.796 77.8867 173.622 77.39 173.312 77.0391C173.003 76.6836 172.583 76.5059 172.055 76.5059ZM176.505 81.9678L176.942 81.4277C177.435 80.7897 177.715 79.8327 177.783 78.5566L177.899 75.6035H182.664V81.9678H183.614V85.1738H182.35V83H177.188V85.1738H175.924L175.931 81.9678H176.505ZM178.002 81.9678H181.399V76.7725H179.123L179.048 78.5361C178.97 80.0081 178.622 81.152 178.002 81.9678ZM190.915 79.7871H190.026V83H188.762V79.7871H187.873L185.802 83H184.202L186.848 79.1719L184.455 75.6035H185.986L187.894 78.666H188.762V75.6035H190.026V78.666H190.888L192.809 75.6035H194.34L191.94 79.1787L194.586 83H192.986L190.915 79.7871ZM198.667 83.1367C197.664 83.1367 196.849 82.8086 196.22 82.1523C195.591 81.4915 195.276 80.6097 195.276 79.5068V79.2744C195.276 78.5407 195.415 77.8867 195.693 77.3125C195.976 76.7337 196.368 76.2826 196.869 75.959C197.375 75.6309 197.922 75.4668 198.51 75.4668C199.471 75.4668 200.219 75.7835 200.752 76.417C201.285 77.0505 201.552 77.9574 201.552 79.1377V79.6641H196.541C196.559 80.3932 196.771 80.9834 197.177 81.4346C197.587 81.8812 198.106 82.1045 198.735 82.1045C199.182 82.1045 199.56 82.0133 199.87 81.8311C200.18 81.6488 200.451 81.4072 200.684 81.1064L201.456 81.708C200.836 82.6605 199.907 83.1367 198.667 83.1367ZM198.51 76.5059C197.999 76.5059 197.571 76.6927 197.225 77.0664C196.878 77.4355 196.664 77.9551 196.582 78.625H200.287V78.5293C200.251 77.8867 200.077 77.39 199.768 77.0391C199.458 76.6836 199.038 76.5059 198.51 76.5059ZM209.27 79.3838C209.27 80.5094 209.012 81.4163 208.497 82.1045C207.982 82.7926 207.285 83.1367 206.405 83.1367C205.507 83.1367 204.801 82.8519 204.286 82.2822V85.8438H203.021V75.6035H204.177L204.238 76.4238C204.753 75.7858 205.469 75.4668 206.385 75.4668C207.273 75.4668 207.975 75.8018 208.49 76.4717C209.01 77.1416 209.27 78.0736 209.27 79.2676V79.3838ZM208.005 79.2402C208.005 78.4062 207.827 77.7477 207.472 77.2646C207.116 76.7816 206.629 76.54 206.009 76.54C205.243 76.54 204.669 76.8796 204.286 77.5586V81.0928C204.664 81.7673 205.243 82.1045 206.022 82.1045C206.629 82.1045 207.109 81.8652 207.465 81.3867C207.825 80.9036 208.005 80.1882 208.005 79.2402ZM220.405 83H219.141V76.6494H215.736V83H214.465V75.6035H220.405V83ZM228.684 79.3838C228.684 80.5094 228.426 81.4163 227.911 82.1045C227.396 82.7926 226.699 83.1367 225.819 83.1367C224.922 83.1367 224.215 82.8519 223.7 82.2822V85.8438H222.436V75.6035H223.591L223.652 76.4238C224.167 75.7858 224.883 75.4668 225.799 75.4668C226.688 75.4668 227.389 75.8018 227.904 76.4717C228.424 77.1416 228.684 78.0736 228.684 79.2676V79.3838ZM227.419 79.2402C227.419 78.4062 227.241 77.7477 226.886 77.2646C226.53 76.7816 226.043 76.54 225.423 76.54C224.657 76.54 224.083 76.8796 223.7 77.5586V81.0928C224.078 81.7673 224.657 82.1045 225.437 82.1045C226.043 82.1045 226.523 81.8652 226.879 81.3867C227.239 80.9036 227.419 80.1882 227.419 79.2402ZM229.962 79.2334C229.962 78.5088 230.103 77.8571 230.386 77.2783C230.673 76.6995 231.069 76.2529 231.575 75.9385C232.086 75.624 232.667 75.4668 233.318 75.4668C234.326 75.4668 235.139 75.8154 235.759 76.5127C236.383 77.21 236.695 78.1374 236.695 79.2949V79.3838C236.695 80.1038 236.556 80.751 236.278 81.3252C236.005 81.8949 235.611 82.3392 235.096 82.6582C234.585 82.9772 233.997 83.1367 233.332 83.1367C232.329 83.1367 231.516 82.7881 230.892 82.0908C230.272 81.3936 229.962 80.4707 229.962 79.3223V79.2334ZM231.233 79.3838C231.233 80.2041 231.423 80.8626 231.801 81.3594C232.184 81.8561 232.694 82.1045 233.332 82.1045C233.975 82.1045 234.485 81.8538 234.863 81.3525C235.242 80.8467 235.431 80.1403 235.431 79.2334C235.431 78.4222 235.237 77.766 234.85 77.2646C234.467 76.7588 233.956 76.5059 233.318 76.5059C232.694 76.5059 232.19 76.7542 231.808 77.251C231.425 77.7477 231.233 78.4587 231.233 79.3838ZM241.351 83.1367C240.348 83.1367 239.532 82.8086 238.903 82.1523C238.274 81.4915 237.96 80.6097 237.96 79.5068V79.2744C237.96 78.5407 238.099 77.8867 238.377 77.3125C238.66 76.7337 239.051 76.2826 239.553 75.959C240.059 75.6309 240.605 75.4668 241.193 75.4668C242.155 75.4668 242.902 75.7835 243.436 76.417C243.969 77.0505 244.235 77.9574 244.235 79.1377V79.6641H239.225C239.243 80.3932 239.455 80.9834 239.86 81.4346C240.271 81.8812 240.79 82.1045 241.419 82.1045C241.866 82.1045 242.244 82.0133 242.554 81.8311C242.864 81.6488 243.135 81.4072 243.367 81.1064L244.14 81.708C243.52 82.6605 242.59 83.1367 241.351 83.1367ZM241.193 76.5059C240.683 76.5059 240.255 76.6927 239.908 77.0664C239.562 77.4355 239.348 77.9551 239.266 78.625H242.971V78.5293C242.934 77.8867 242.761 77.39 242.451 77.0391C242.141 76.6836 241.722 76.5059 241.193 76.5059ZM248.009 79.8486H247.086V83H245.814V75.6035H247.086V78.7344H247.913L250.401 75.6035H251.933L249.007 79.1582L252.179 83H250.572L248.009 79.8486ZM258.762 76.6289H256.28V83H255.016V76.6289H252.582V75.6035H258.762V76.6289ZM264.449 83C264.376 82.8542 264.317 82.5944 264.271 82.2207C263.684 82.8314 262.982 83.1367 262.166 83.1367C261.437 83.1367 260.838 82.9316 260.368 82.5215C259.903 82.1068 259.671 81.5827 259.671 80.9492C259.671 80.179 259.963 79.582 260.546 79.1582C261.134 78.7298 261.959 78.5156 263.021 78.5156H264.251V77.9346C264.251 77.4925 264.119 77.1416 263.854 76.8818C263.59 76.6175 263.201 76.4854 262.686 76.4854C262.234 76.4854 261.856 76.5993 261.551 76.8271C261.245 77.055 261.093 77.3307 261.093 77.6543H259.821C259.821 77.2852 259.951 76.9297 260.211 76.5879C260.475 76.2415 260.831 75.9681 261.277 75.7676C261.729 75.5671 262.223 75.4668 262.761 75.4668C263.613 75.4668 264.281 75.681 264.764 76.1094C265.247 76.5332 265.497 77.1188 265.516 77.8662V81.2705C265.516 81.9495 265.602 82.4896 265.775 82.8906V83H264.449ZM262.351 82.0361C262.747 82.0361 263.123 81.9336 263.479 81.7285C263.834 81.5234 264.091 81.2568 264.251 80.9287V79.4111H263.26C261.71 79.4111 260.936 79.8646 260.936 80.7715C260.936 81.168 261.068 81.4779 261.332 81.7012C261.596 81.9245 261.936 82.0361 262.351 82.0361Z" fill="black"/>
<circle cx="377.5" cy="30" r="30" fill="#F0F0F0"/>
<circle cx="377.5" cy="30" r="10" fill="#43BAD6"/>
<path d="M327.378 74.127H322.579V77.1074H325.054C326.093 77.1211 326.904 77.3877 327.487 77.9072C328.071 78.4268 328.362 79.1331 328.362 80.0264C328.362 80.9242 328.068 81.6396 327.48 82.1729C326.893 82.7061 326.09 82.9818 325.074 83H321.26V73.0469H327.378V74.127ZM322.579 78.1875V81.9268H324.979C325.63 81.9268 326.136 81.7536 326.496 81.4072C326.861 81.0609 327.043 80.596 327.043 80.0127C327.043 79.4521 326.868 79.0101 326.517 78.6865C326.17 78.363 325.676 78.1966 325.033 78.1875H322.579ZM334.727 75.6035H335.991V83H334.727V77.6064L331.315 83H330.051V75.6035H331.315V81.0039L334.727 75.6035ZM342.089 77.627C342.089 77.2806 341.957 77.0072 341.692 76.8066C341.428 76.6016 341.066 76.499 340.605 76.499C340.159 76.499 339.785 76.6152 339.484 76.8477C339.188 77.0801 339.04 77.3535 339.04 77.668H337.782C337.782 77.0254 338.051 76.499 338.589 76.0889C339.127 75.6787 339.799 75.4736 340.605 75.4736C341.471 75.4736 342.146 75.6605 342.629 76.0342C343.112 76.4033 343.354 76.932 343.354 77.6201C343.354 77.9528 343.253 78.2581 343.053 78.5361C342.852 78.8141 342.567 79.0352 342.198 79.1992C343.06 79.4909 343.49 80.0651 343.49 80.9219C343.49 81.6009 343.228 82.1387 342.704 82.5352C342.18 82.9316 341.48 83.1299 340.605 83.1299C339.753 83.1299 339.049 82.9225 338.493 82.5078C337.942 82.0885 337.666 81.5234 337.666 80.8125H338.924C338.924 81.1725 339.083 81.4824 339.402 81.7422C339.726 81.9974 340.127 82.125 340.605 82.125C341.089 82.125 341.478 82.0133 341.774 81.79C342.071 81.5667 342.219 81.2773 342.219 80.9219C342.219 80.5072 342.093 80.2109 341.843 80.0332C341.597 79.8509 341.212 79.7598 340.688 79.7598H339.423V78.6934H340.797C341.658 78.6706 342.089 78.3151 342.089 77.627ZM351.174 83H349.909V79.8418H346.512V83H345.24V75.6035H346.512V78.8096H349.909V75.6035H351.174V83ZM356.28 83.1367C355.278 83.1367 354.462 82.8086 353.833 82.1523C353.204 81.4915 352.89 80.6097 352.89 79.5068V79.2744C352.89 78.5407 353.029 77.8867 353.307 77.3125C353.589 76.7337 353.981 76.2826 354.482 75.959C354.988 75.6309 355.535 75.4668 356.123 75.4668C357.085 75.4668 357.832 75.7835 358.365 76.417C358.898 77.0505 359.165 77.9574 359.165 79.1377V79.6641H354.154C354.173 80.3932 354.384 80.9834 354.79 81.4346C355.2 81.8812 355.72 82.1045 356.349 82.1045C356.795 82.1045 357.174 82.0133 357.483 81.8311C357.793 81.6488 358.064 81.4072 358.297 81.1064L359.069 81.708C358.45 82.6605 357.52 83.1367 356.28 83.1367ZM356.123 76.5059C355.613 76.5059 355.184 76.6927 354.838 77.0664C354.492 77.4355 354.277 77.9551 354.195 78.625H357.9V78.5293C357.864 77.8867 357.691 77.39 357.381 77.0391C357.071 76.6836 356.652 76.5059 356.123 76.5059ZM363.602 82.1045C364.053 82.1045 364.447 81.9678 364.784 81.6943C365.121 81.4209 365.308 81.0791 365.345 80.6689H366.541C366.518 81.0928 366.372 81.4961 366.104 81.8789C365.835 82.2617 365.475 82.5671 365.023 82.7949C364.577 83.0228 364.103 83.1367 363.602 83.1367C362.594 83.1367 361.792 82.8018 361.195 82.1318C360.603 81.4574 360.307 80.5368 360.307 79.3701V79.1582C360.307 78.4382 360.439 77.7979 360.703 77.2373C360.967 76.6768 361.346 76.2415 361.838 75.9316C362.335 75.6217 362.92 75.4668 363.595 75.4668C364.424 75.4668 365.112 75.7152 365.659 76.2119C366.211 76.7087 366.505 77.3535 366.541 78.1465H365.345C365.308 77.668 365.126 77.276 364.798 76.9707C364.474 76.6608 364.073 76.5059 363.595 76.5059C362.952 76.5059 362.453 76.7383 362.098 77.2031C361.747 77.6634 361.571 78.3311 361.571 79.2061V79.4453C361.571 80.2975 361.747 80.9538 362.098 81.4141C362.449 81.8743 362.95 82.1045 363.602 82.1045ZM377.13 80.4023H372.96L372.023 83H370.67L374.471 73.0469H375.619L379.427 83H378.08L377.13 80.4023ZM373.356 79.3223H376.74L375.045 74.667L373.356 79.3223ZM386.611 83H385.347V79.8418H381.949V83H380.678V75.6035H381.949V78.8096H385.347V75.6035H386.611V83ZM393.215 83C393.142 82.8542 393.083 82.5944 393.037 82.2207C392.449 82.8314 391.747 83.1367 390.932 83.1367C390.202 83.1367 389.603 82.9316 389.134 82.5215C388.669 82.1068 388.437 81.5827 388.437 80.9492C388.437 80.179 388.728 79.582 389.312 79.1582C389.899 78.7298 390.724 78.5156 391.786 78.5156H393.017V77.9346C393.017 77.4925 392.884 77.1416 392.62 76.8818C392.356 76.6175 391.966 76.4854 391.451 76.4854C391 76.4854 390.622 76.5993 390.316 76.8271C390.011 77.055 389.858 77.3307 389.858 77.6543H388.587C388.587 77.2852 388.717 76.9297 388.977 76.5879C389.241 76.2415 389.596 75.9681 390.043 75.7676C390.494 75.5671 390.989 75.4668 391.526 75.4668C392.379 75.4668 393.046 75.681 393.529 76.1094C394.012 76.5332 394.263 77.1188 394.281 77.8662V81.2705C394.281 81.9495 394.368 82.4896 394.541 82.8906V83H393.215ZM391.116 82.0361C391.513 82.0361 391.889 81.9336 392.244 81.7285C392.6 81.5234 392.857 81.2568 393.017 80.9287V79.4111H392.025C390.476 79.4111 389.701 79.8646 389.701 80.7715C389.701 81.168 389.833 81.4779 390.098 81.7012C390.362 81.9245 390.701 82.0361 391.116 82.0361ZM402.327 75.6035V83H401.056V76.6494H398.54L398.39 79.418C398.308 80.6895 398.093 81.5986 397.747 82.1455C397.405 82.6924 396.861 82.9772 396.113 83H395.607V81.8857L395.97 81.8584C396.38 81.8128 396.674 81.5758 396.852 81.1475C397.029 80.7191 397.143 79.9261 397.193 78.7686L397.33 75.6035H402.327ZM409.143 75.6035H410.407V83H409.143V77.6064L405.731 83H404.467V75.6035H405.731V81.0039L409.143 75.6035ZM417.934 76.6289H415.452V83H414.188V76.6289H411.754V75.6035H417.934V76.6289ZM423.949 75.6035H425.214V83H423.949V77.6064L420.538 83H419.273V75.6035H420.538V81.0039L423.949 75.6035ZM429.548 79.8486H428.625V83H427.354V75.6035H428.625V78.7344H429.452L431.94 75.6035H433.472L430.546 79.1582L433.718 83H432.111L429.548 79.8486Z" fill="black"/>
</svg>
