<svg width="40" height="40" viewBox="0 0 40 40" fill="none" xmlns="http://www.w3.org/2000/svg">
<g clip-path="url(#clip0)">
<path d="M19.7812 34.978C20.1257 34.5115 20.3118 33.9493 20.3118 33.3583C20.3118 31.8507 19.0853 30.624 17.5775 30.624H4.29673C3.56602 30.624 2.87938 30.9084 2.36321 31.4247C1.8468 31.941 1.56242 32.6276 1.56242 33.3583C1.56242 33.9637 1.76055 34.5236 2.09485 34.9771C0.850861 35.6311 0 36.9358 0 38.4362V39.2175C0 39.649 0.349844 39.9987 0.781251 39.9987H21.093C21.5244 39.9987 21.8743 39.649 21.8743 39.2175V38.4362C21.8743 36.9365 21.0243 35.6324 19.7812 34.978ZM3.46798 32.5294C3.68915 32.3082 3.98352 32.1864 4.29673 32.1864H17.5775C18.2237 32.1864 18.7493 32.7121 18.7493 33.3582C18.7493 33.6715 18.6275 33.9657 18.4062 34.187C18.185 34.4082 17.8907 34.53 17.5775 34.53H4.29673C3.65055 34.53 3.12493 34.0043 3.12493 33.3582C3.12493 33.045 3.24672 32.7507 3.46798 32.5294ZM1.56242 38.4362C1.56242 37.144 2.61383 36.0926 3.9061 36.0926H4.29673H17.5775H17.9682C19.2604 36.0926 20.3118 37.144 20.3118 38.4362H1.56242Z" fill="#43BAD6"/>
<path d="M39.2729 32.8222C39.0076 32.411 38.691 32.0474 38.3319 31.7415L34.6815 28.5576C34.653 28.5148 34.6201 28.4742 34.5823 28.4365C34.5189 28.3731 34.447 28.3237 34.3706 28.2866L32.163 26.3612L21.9451 17.4478C22.3633 17.0106 22.5936 16.4388 22.5936 15.8307C22.5936 15.2043 22.3498 14.6157 21.9066 14.1725C21.7133 13.9795 21.4936 13.8277 21.2589 13.7165L22.2042 12.7712C22.4684 12.8414 22.7399 12.8774 23.0116 12.8774C23.8117 12.8773 24.6119 12.5728 25.2209 11.9637C25.8114 11.3733 26.1365 10.5885 26.1365 9.75393C26.1365 8.91931 25.8114 8.13455 25.221 7.54416L18.5922 0.915549C18.0018 0.325157 17.217 0 16.3822 0C15.5477 0 14.7631 0.325157 14.1728 0.915549C13.3568 1.73149 13.0882 2.89001 13.3653 3.93235L3.93362 13.3639C3.673 13.2946 3.40183 13.2581 3.12479 13.2581C2.28979 13.2581 1.50534 13.583 0.915416 14.1728C-0.303023 15.3913 -0.303023 17.3739 0.915416 18.5924L7.5441 25.2211C8.15339 25.8304 8.95363 26.135 9.75386 26.135C10.5542 26.135 11.3544 25.8304 11.9637 25.2211C12.7797 24.4051 13.0482 23.2467 12.7712 22.2043L13.7146 21.2609C13.8279 21.4976 13.9818 21.7161 14.1729 21.9071C14.6155 22.3497 15.204 22.5936 15.8303 22.5936C16.4377 22.5936 17.0093 22.3636 17.4472 21.9458L28.3305 34.4501C28.3605 34.4969 28.3955 34.5416 28.4364 34.5825C28.4504 34.5965 28.4652 34.6092 28.48 34.6219L31.723 38.348C31.8037 38.4431 31.8898 38.5367 31.9793 38.6262C32.87 39.5166 34.0465 39.9998 35.2816 39.9998C35.4994 39.9998 35.7191 39.9848 35.9392 39.9543C37.4102 39.7507 38.6816 38.8707 39.427 37.5396C40.2437 36.0808 40.1829 34.2287 39.2729 32.8222ZM15.2777 2.02039C15.5729 1.72516 15.9653 1.5625 16.3822 1.5625C16.7997 1.5625 17.1923 1.72516 17.4875 2.02039L24.1162 8.64908C24.4115 8.94431 24.574 9.33674 24.574 9.754C24.574 10.1713 24.4115 10.5637 24.1161 10.8589C23.5072 11.4681 22.5161 11.4681 21.9071 10.8589L15.2781 4.22993C14.6689 3.62087 14.6686 2.62946 15.2777 2.02039ZM10.8589 24.1163C10.2496 24.7255 9.25816 24.7256 8.64894 24.1163L2.02026 17.4876C1.41096 16.8783 1.41096 15.8871 2.02026 15.2777C2.31495 14.9829 2.70729 14.8206 3.12479 14.8206C3.54222 14.8206 3.93433 14.9828 4.22894 15.2774L10.8588 21.9072C11.468 22.5162 11.468 23.5073 10.8589 24.1163ZM14.1481 18.6178L11.9636 20.8024L5.33425 14.173L14.1728 5.33431L20.8021 11.9637L18.6136 14.1522C18.6065 14.1589 18.5996 14.1655 18.5921 14.1729L14.175 18.59C14.1659 18.599 14.1571 18.6084 14.1481 18.6178ZM16.9376 20.2476C16.9361 20.2492 16.9346 20.2507 16.933 20.2522L16.3829 20.8024C16.2353 20.9499 16.0391 21.0311 15.8302 21.0311C15.6214 21.0311 15.4251 20.9499 15.2776 20.8023C15.1299 20.6546 15.0486 20.4582 15.0486 20.2493C15.0486 20.0447 15.1266 19.8523 15.2682 19.7071L19.7058 15.2696C20.01 14.9738 20.5017 14.9775 20.8022 15.2777C20.9499 15.4253 21.0312 15.6217 21.0312 15.8307C21.0312 16.0396 20.9501 16.2354 20.8022 16.383L20.2552 16.93C20.2515 16.9336 20.2477 16.9374 20.244 16.9411L16.9376 20.2476ZM38.0638 36.7763C37.5596 37.6766 36.7072 38.2707 35.7251 38.4066C34.7452 38.5423 33.7825 38.2195 33.0839 37.5212C33.0238 37.4612 32.9663 37.3987 32.9127 37.3352C32.9102 37.3323 32.9077 37.3293 32.9051 37.3264L18.5554 20.8394L20.8387 18.5561L37.3084 32.9219C37.3108 32.9241 37.3133 32.9262 37.3159 32.9284C37.56 33.136 37.7766 33.3853 37.9605 33.6701C38.5512 34.583 38.5927 35.8315 38.0638 36.7763Z" fill="#4F4F4F"/>
</g>
<defs>
<clipPath id="clip0">
<rect width="40" height="40" fill="white"/>
</clipPath>
</defs>
</svg>
