<svg width="40" height="40" viewBox="0 0 40 40" fill="none" xmlns="http://www.w3.org/2000/svg">
<rect x="14" y="31" width="12" height="8" fill="#DFDFDF"/>
<mask id="path-2-inside-1" fill="white">
<path fill-rule="evenodd" clip-rule="evenodd" d="M36 1.5H4C2.61929 1.5 1.5 2.61929 1.5 4V28C1.5 29.3807 2.61929 30.5 4 30.5H36C37.3807 30.5 38.5 29.3807 38.5 28V4C38.5 2.61929 37.3807 1.5 36 1.5ZM4 0C1.79086 0 0 1.79086 0 4V28C0 30.2091 1.79086 32 4 32H36C38.2091 32 40 30.2091 40 28V4C40 1.79086 38.2091 0 36 0H4Z"/>
</mask>
<path fill-rule="evenodd" clip-rule="evenodd" d="M36 1.5H4C2.61929 1.5 1.5 2.61929 1.5 4V28C1.5 29.3807 2.61929 30.5 4 30.5H36C37.3807 30.5 38.5 29.3807 38.5 28V4C38.5 2.61929 37.3807 1.5 36 1.5ZM4 0C1.79086 0 0 1.79086 0 4V28C0 30.2091 1.79086 32 4 32H36C38.2091 32 40 30.2091 40 28V4C40 1.79086 38.2091 0 36 0H4Z" fill="#4F4F4F"/>
<path d="M4 3H36V0H4V3ZM3 4C3 3.44772 3.44772 3 4 3V0C1.79086 0 0 1.79086 0 4H3ZM3 28V4H0V28H3ZM4 29C3.44772 29 3 28.5523 3 28H0C0 30.2091 1.79086 32 4 32V29ZM36 29H4V32H36V29ZM37 28C37 28.5523 36.5523 29 36 29V32C38.2091 32 40 30.2091 40 28H37ZM37 4V28H40V4H37ZM36 3C36.5523 3 37 3.44772 37 4H40C40 1.79086 38.2091 0 36 0V3ZM1.5 4C1.5 2.61929 2.61929 1.5 4 1.5V-1.5C0.962434 -1.5 -1.5 0.962434 -1.5 4H1.5ZM1.5 28V4H-1.5V28H1.5ZM4 30.5C2.61929 30.5 1.5 29.3807 1.5 28H-1.5C-1.5 31.0376 0.962435 33.5 4 33.5V30.5ZM36 30.5H4V33.5H36V30.5ZM38.5 28C38.5 29.3807 37.3807 30.5 36 30.5V33.5C39.0376 33.5 41.5 31.0376 41.5 28H38.5ZM38.5 4V28H41.5V4H38.5ZM36 1.5C37.3807 1.5 38.5 2.61929 38.5 4H41.5C41.5 0.962434 39.0376 -1.5 36 -1.5V1.5ZM4 1.5H36V-1.5H4V1.5Z" fill="#4F4F4F" mask="url(#path-2-inside-1)"/>
<path fill-rule="evenodd" clip-rule="evenodd" d="M6 14.5556C6 14.2487 6.27982 14 6.625 14H25.375C25.7202 14 26 14.2487 26 14.5556C26 14.8624 25.7202 15.1111 25.375 15.1111H6.625C6.27982 15.1111 6 14.8624 6 14.5556ZM6 16.7778C6 16.471 6.27982 16.2222 6.625 16.2222H17.875C18.2202 16.2222 18.5 16.471 18.5 16.7778C18.5 17.0846 18.2202 17.3333 17.875 17.3333H6.625C6.27982 17.3333 6 17.0846 6 16.7778ZM6.625 18.4444C6.27982 18.4444 6 18.6932 6 19C6 19.3068 6.27982 19.5556 6.625 19.5556H24.125C24.4702 19.5556 24.75 19.3068 24.75 19C24.75 18.6932 24.4702 18.4444 24.125 18.4444H6.625ZM6 21.2222C6 20.9154 6.27982 20.6667 6.625 20.6667H15.375C15.7202 20.6667 16 20.9154 16 21.2222C16 21.529 15.7202 21.7778 15.375 21.7778H6.625C6.27982 21.7778 6 21.529 6 21.2222ZM6.625 22.8889C6.27982 22.8889 6 23.1376 6 23.4444C6 23.7513 6.27982 24 6.625 24H15.375C15.7202 24 16 23.7513 16 23.4444C16 23.1376 15.7202 22.8889 15.375 22.8889H6.625Z" fill="#C9C9C9"/>
<rect x="6" y="8" width="28" height="4" rx="1" fill="#43BAD6"/>
<rect x="30" y="14" width="4" height="10" rx="1" fill="#C9C9C9"/>
<mask id="path-7-inside-2" fill="white">
<path fill-rule="evenodd" clip-rule="evenodd" d="M10.75 38.5C10.3358 38.5 10 38.8358 10 39.25C10 39.6642 10.3358 40 10.75 40H29.25C29.6642 40 30 39.6642 30 39.25C30 38.8358 29.6642 38.5 29.25 38.5H10.75Z"/>
</mask>
<path fill-rule="evenodd" clip-rule="evenodd" d="M10.75 38.5C10.3358 38.5 10 38.8358 10 39.25C10 39.6642 10.3358 40 10.75 40H29.25C29.6642 40 30 39.6642 30 39.25C30 38.8358 29.6642 38.5 29.25 38.5H10.75Z" fill="#4F4F4F"/>
<path d="M11.5 39.25C11.5 39.6642 11.1642 40 10.75 40V37C9.50736 37 8.5 38.0074 8.5 39.25H11.5ZM10.75 38.5C11.1642 38.5 11.5 38.8358 11.5 39.25H8.5C8.5 40.4926 9.50736 41.5 10.75 41.5V38.5ZM29.25 38.5H10.75V41.5H29.25V38.5ZM28.5 39.25C28.5 38.8358 28.8358 38.5 29.25 38.5V41.5C30.4926 41.5 31.5 40.4926 31.5 39.25H28.5ZM29.25 40C28.8358 40 28.5 39.6642 28.5 39.25H31.5C31.5 38.0074 30.4926 37 29.25 37V40ZM10.75 40H29.25V37H10.75V40Z" fill="#4F4F4F" mask="url(#path-7-inside-2)"/>
</svg>
