<svg width="40" height="40" viewBox="0 0 40 40" fill="none" xmlns="http://www.w3.org/2000/svg">
<path fill-rule="evenodd" clip-rule="evenodd" d="M26.5 19.5H36C37.3807 19.5 38.5 20.6193 38.5 22V23H26.5V19.5ZM26.5 24.5V38.5H36C37.3807 38.5 38.5 37.3807 38.5 36V24.5H26.5ZM26.5 38.5V18H36C38.2091 18 40 19.7909 40 22V36C40 38.2091 38.2091 40 36 40H24L26.5 38.5Z" fill="#43BAD6"/>
<path fill-rule="evenodd" clip-rule="evenodd" d="M24 1.5H4C2.61929 1.5 1.5 2.61929 1.5 4V36C1.5 37.3807 2.61929 38.5 4 38.5H24C25.3807 38.5 26.5 37.3807 26.5 36V4C26.5 2.61929 25.3807 1.5 24 1.5ZM4 0C1.79086 0 0 1.79086 0 4V36C0 38.2091 1.79086 40 4 40H24C26.2091 40 28 38.2091 28 36V4C28 1.79086 26.2091 0 24 0H4Z" fill="#4F4F4F"/>
<rect x="6" y="34" width="16" height="1.5" rx="0.75" fill="#4F4F4F"/>
<rect x="4" y="4" width="20" height="9" rx="1" fill="#DFDFDF"/>
<rect x="4" y="15" width="9" height="9" rx="1" fill="#DFDFDF"/>
<rect x="15" y="15" width="9" height="9" rx="1" fill="#DFDFDF"/>
<path d="M28 29H35.25C35.6642 29 36 29.3358 36 29.75C36 30.1642 35.6642 30.5 35.25 30.5H28V29Z" fill="#43BAD6"/>
<path d="M28 33H35.25C35.6642 33 36 33.3358 36 33.75C36 34.1642 35.6642 34.5 35.25 34.5H28V33Z" fill="#43BAD6"/>
</svg>
