<svg width="40" height="40" viewBox="0 0 40 40" fill="none" xmlns="http://www.w3.org/2000/svg">
<g clip-path="url(#clip0)">
<path d="M37.9359 25.155C36.209 22.1639 32.3906 21.1402 29.3989 22.8676L26.2256 24.6996V17.9155C26.2256 17.0769 25.9483 16.2446 25.4445 15.572L21.5384 10.3641V8.14641C22.4477 7.82391 23.1009 6.95563 23.1009 5.93711V2.34359C23.1007 1.05133 22.0494 0 20.7571 0H6.69532C5.40306 0 4.35165 1.05133 4.35165 2.34359V5.93719C4.35165 6.95555 5.00485 7.82398 5.91407 8.14648V10.3641L2.00774 15.5723C1.50415 16.2447 1.22681 17.0769 1.22681 17.9155V33.0452C1.22681 35.1991 2.97907 36.9513 5.13282 36.9513H17.6877C19.4393 39.8874 23.2163 40.8701 26.177 39.1605L35.6486 33.692C38.6138 31.9797 39.6716 28.1624 37.9359 25.155ZM5.91407 2.34359C5.91407 1.91281 6.26454 1.56234 6.69524 1.56234H20.757C21.1878 1.56234 21.5383 1.91281 21.5383 2.34359V5.93719C21.5383 6.36797 21.1878 6.71836 20.757 6.71836H6.69532C6.26454 6.71836 5.91415 6.36789 5.91415 5.93719L5.91407 2.34359ZM3.25806 16.5093L7.32024 11.0932C7.42165 10.958 7.47649 10.7935 7.47649 10.6245V8.28086H19.9759V9.84328H6.94501C6.5136 9.84328 6.16376 10.1931 6.16376 10.6245C6.16376 11.0559 6.5136 11.4058 6.94501 11.4058H20.3665L24.1941 16.5091C24.4442 16.843 24.5996 17.2427 24.6466 17.6555H2.80587C2.85274 17.2426 3.00813 16.843 3.25806 16.5093ZM5.1329 35.3888C3.84063 35.3888 2.78931 34.3375 2.78931 33.0452V32.2562H16.9827C16.7349 33.2691 16.7366 34.351 17.0202 35.3889L5.1329 35.3888ZM17.5954 30.7016H2.78923V19.2177H24.6631V25.6016L19.9273 28.3361C18.9399 28.9065 18.1417 29.7184 17.5954 30.7016ZM25.3959 37.8074C23.154 39.102 20.2892 38.3364 18.9937 36.0929C17.692 33.8277 18.4809 30.9759 20.7087 29.6891L24.9491 27.2408L29.6363 35.3591L25.3959 37.8074ZM34.8674 32.339L30.9895 34.578L26.3021 26.4595L30.1801 24.2207C32.4235 22.9255 35.2874 23.6925 36.5828 25.9361C37.884 28.1909 37.0927 31.0539 34.8674 32.339Z" fill="#43BAD6"/>
<path d="M24.6631 25.6016L26.2256 24.6996V17.9155C26.2256 17.0769 25.9483 16.2446 25.4445 15.572L21.5384 10.3641V8.14641C22.4477 7.82391 23.1009 6.95563 23.1009 5.93711V2.34359C23.1007 1.05133 22.0494 0 20.7571 0H6.69532C5.40306 0 4.35165 1.05133 4.35165 2.34359V5.93719C4.35165 6.95555 5.00485 7.82398 5.91407 8.14648V10.3641L2.00774 15.5723C1.50415 16.2447 1.22681 17.0769 1.22681 17.9155V33.0452C1.22681 35.1991 2.97907 36.9513 5.13282 36.9513H17.6877L17.0202 35.3889C17.0202 35.3889 16.8097 34.7079 16.8021 33.8023C16.7945 32.8968 16.9827 32.2562 16.9827 32.2562L17.5954 30.7016L24.6631 25.6016ZM5.91407 2.34359C5.91407 1.91281 6.26454 1.56234 6.69524 1.56234H20.757C21.1878 1.56234 21.5383 1.91281 21.5383 2.34359V5.93719C21.5383 6.36797 21.1878 6.71836 20.757 6.71836H6.69532C6.26454 6.71836 5.91415 6.36789 5.91415 5.93719L5.91407 2.34359ZM3.25806 16.5093L7.32024 11.0932C7.42165 10.958 7.47649 10.7935 7.47649 10.6245V8.28086H19.9759V9.84328H6.94501C6.5136 9.84328 6.16376 10.1931 6.16376 10.6245C6.16376 11.0559 6.5136 11.4058 6.94501 11.4058H20.3665L24.1941 16.5091C24.4442 16.843 24.5996 17.2427 24.6466 17.6555H2.80587C2.85274 17.2426 3.00813 16.843 3.25806 16.5093ZM5.1329 35.3888C3.84063 35.3888 2.78931 34.3375 2.78931 33.0452V32.2562H16.9827C16.7349 33.2691 16.7366 34.351 17.0202 35.3889L5.1329 35.3888ZM17.5954 30.7016H2.78923V19.2177H24.6631V25.6016L17.5954 30.7016Z" fill="#4F4F4F"/>
</g>
<defs>
<clipPath id="clip0">
<rect width="40" height="40" fill="white"/>
</clipPath>
</defs>
</svg>
