<svg width="40" height="40" viewBox="0 0 40 40" fill="none" xmlns="http://www.w3.org/2000/svg">
<path fill-rule="evenodd" clip-rule="evenodd" d="M19 12.6667C19 12.2985 19.2518 12 19.5625 12H36.4375C36.7482 12 37 12.2985 37 12.6667C37 13.0349 36.7482 13.3333 36.4375 13.3333H19.5625C19.2518 13.3333 19 13.0349 19 12.6667ZM19 15.3333C19 14.9651 19.2518 14.6667 19.5625 14.6667H29.6875C29.9982 14.6667 30.25 14.9651 30.25 15.3333C30.25 15.7015 29.9982 16 29.6875 16H19.5625C19.2518 16 19 15.7015 19 15.3333ZM19.5625 17.3333C19.2518 17.3333 19 17.6318 19 18C19 18.3682 19.2518 18.6667 19.5625 18.6667H35.3125C35.6232 18.6667 35.875 18.3682 35.875 18C35.875 17.6318 35.6232 17.3333 35.3125 17.3333H19.5625ZM19 20.6667C19 20.2985 19.2518 20 19.5625 20H27.4375C27.7482 20 28 20.2985 28 20.6667C28 21.0349 27.7482 21.3333 27.4375 21.3333H19.5625C19.2518 21.3333 19 21.0349 19 20.6667ZM19.5625 22.6667C19.2518 22.6667 19 22.9651 19 23.3333C19 23.7015 19.2518 24 19.5625 24H27.4375C27.7482 24 28 23.7015 28 23.3333C28 22.9651 27.7482 22.6667 27.4375 22.6667H19.5625Z" fill="#C9C9C9"/>
<rect x="19" y="26" width="8" height="3" rx="1.5" fill="#DFDFDF"/>
<rect x="3" y="26" width="4" height="4" rx="2" fill="#DFDFDF"/>
<rect x="8" y="26" width="4" height="4" rx="2" fill="#DFDFDF"/>
<rect x="13" y="26" width="4" height="4" rx="2" fill="#DFDFDF"/>
<rect x="3" y="12" width="14" height="12" rx="2" fill="#43BAD6"/>
<rect x="29" y="26" width="8" height="3" rx="1.5" fill="#DFDFDF"/>
<path fill-rule="evenodd" clip-rule="evenodd" d="M37.5 2.37034H2.5C1.80964 2.37034 1.25 2.93413 1.25 3.6296V6.14812H38.75V3.6296C38.75 2.93413 38.1904 2.37034 37.5 2.37034ZM0 3.6296V6.77775V36.3703C0 37.7613 1.11929 38.8889 2.5 38.8889H37.5C38.8807 38.8889 40 37.7613 40 36.3703V6.77775V3.6296C40 2.23866 38.8807 1.11108 37.5 1.11108H2.5C1.11929 1.11108 0 2.23866 0 3.6296ZM38.75 36.3703V7.40738H1.25V36.3703C1.25 37.0658 1.80964 37.6296 2.5 37.6296H37.5C38.1904 37.6296 38.75 37.0658 38.75 36.3703ZM3.125 4.88886C2.77982 4.88886 2.5 4.60697 2.5 4.25923C2.5 3.9115 2.77982 3.6296 3.125 3.6296C3.47018 3.6296 3.75 3.9115 3.75 4.25923C3.75 4.60697 3.47018 4.88886 3.125 4.88886ZM5 4.25923C5 4.60697 5.27982 4.88886 5.625 4.88886C5.97018 4.88886 6.25 4.60697 6.25 4.25923C6.25 3.9115 5.97018 3.6296 5.625 3.6296C5.27982 3.6296 5 3.9115 5 4.25923ZM8.125 4.88886C7.77982 4.88886 7.5 4.60697 7.5 4.25923C7.5 3.9115 7.77982 3.6296 8.125 3.6296C8.47018 3.6296 8.75 3.9115 8.75 4.25923C8.75 4.60697 8.47018 4.88886 8.125 4.88886Z" fill="#4F4F4F"/>
</svg>
