<svg width="40" height="40" viewBox="0 0 40 40" fill="none" xmlns="http://www.w3.org/2000/svg">
<path d="M27.0042 18.8123C27.0014 18.8123 26.9988 18.8123 26.996 18.8123H23.6462V15.4543C23.6507 14.777 23.1054 14.2243 22.4281 14.2197C22.4253 14.2197 22.4225 14.2197 22.4199 14.2197H17.5804C16.9031 14.2197 16.354 14.7688 16.354 15.4461V18.8041H13.0042C12.327 18.7996 11.7742 19.3448 11.7697 20.0221C11.7697 20.0276 11.7697 20.0331 11.7697 20.0387V24.8699C11.7697 25.5472 12.3187 26.0963 12.996 26.0963H16.354V29.4461C16.3495 30.1233 16.8949 30.6761 17.5721 30.6806C17.5749 30.6806 17.5777 30.6806 17.5804 30.6806H22.4116C23.0889 30.6806 23.638 30.1316 23.638 29.4543V26.0963H26.996C27.6733 26.1008 28.226 25.5554 28.2306 24.8782C28.2306 24.8754 28.2306 24.8726 28.2306 24.8699V20.0387C28.2306 19.3614 27.6816 18.8123 27.0042 18.8123ZM26.5845 24.4502H22.8231C22.3686 24.4502 22.0001 24.8187 22.0001 25.2732V29.0345H18.0001V25.2732C18.0001 24.8187 17.6316 24.4502 17.1771 24.4502H13.4157V20.4584H17.1771C17.6316 20.4584 18.0001 20.0899 18.0001 19.6354V15.8658H21.9919V19.6271C21.9919 20.0817 22.3604 20.4502 22.8149 20.4502H26.5845V24.4502Z" fill="#43BAD6"/>
<path d="M34.321 8.06341H27.5391V5.16629C27.5818 3.84427 26.5447 2.73789 25.2226 2.6952C25.1552 2.69304 25.0879 2.69365 25.0206 2.69715H14.9794C13.6584 2.62832 12.5318 3.64334 12.4629 4.96423C12.4594 5.03151 12.4586 5.0989 12.4609 5.16629V8.04695H5.67901C3.06173 8.04695 0 9.53666 0 13.726V31.6272C0 35.8165 3.06173 37.3062 5.67901 37.3062H34.321C36.9383 37.3062 40 35.8165 40 31.6272V13.7424C40 9.55312 36.9465 8.06341 34.321 8.06341ZM14.107 5.16629C14.107 4.9276 14.107 4.28563 14.9877 4.28563H25.0206C25.9012 4.28563 25.9012 4.91937 25.9012 5.16629V8.04695H14.107V5.16629ZM38.3539 31.6272C38.3539 35.265 35.5391 35.6601 34.321 35.6601H5.67901C4.46914 35.6601 1.64609 35.265 1.64609 31.6272V13.7424C1.64609 10.1046 4.46091 9.7095 5.67901 9.7095H34.321C35.5309 9.7095 38.3539 10.1046 38.3539 13.7424V31.6272Z" fill="#4F4F4F"/>
</svg>
