<svg width="40" height="40" viewBox="0 0 40 40" fill="none" xmlns="http://www.w3.org/2000/svg">
<path fill-rule="evenodd" clip-rule="evenodd" d="M32 20C31.4477 20 31 19.5523 31 19C31 18.4477 31.4477 18 32 18C32.5523 18 33 18.4477 33 19C33 19.5523 32.5523 20 32 20ZM20 32C20.5523 32 21 31.5523 21 31C21 30.4477 20.5523 30 20 30C19.4477 30 19 30.4477 19 31C19 31.5523 19.4477 32 20 32ZM32 32C32.5523 32 33 31.5523 33 31C33 30.4477 32.5523 30 32 30C31.4477 30 31 30.4477 31 31C31 31.5523 31.4477 32 32 32ZM29 31C29 31.5523 28.5523 32 28 32C27.4477 32 27 31.5523 27 31C27 30.4477 27.4477 30 28 30C28.5523 30 29 30.4477 29 31ZM24 32C24.5523 32 25 31.5523 25 31C25 30.4477 24.5523 30 24 30C23.4477 30 23 30.4477 23 31C23 31.5523 23.4477 32 24 32ZM32 28C31.4477 28 31 27.5523 31 27C31 26.4477 31.4477 26 32 26C32.5523 26 33 26.4477 33 27C33 27.5523 32.5523 28 32 28ZM31 23C31 23.5523 31.4477 24 32 24C32.5523 24 33 23.5523 33 23C33 22.4477 32.5523 22 32 22C31.4477 22 31 22.4477 31 23Z" fill="#43BAD6"/>
<path fill-rule="evenodd" clip-rule="evenodd" d="M2 1.5H14C14.2761 1.5 14.5 1.72386 14.5 2V12C14.5 12.2761 14.2761 12.5 14 12.5H2C1.72386 12.5 1.5 12.2761 1.5 12V2C1.5 1.72386 1.72386 1.5 2 1.5ZM0 2C0 0.89543 0.895431 0 2 0H14C15.1046 0 16 0.895431 16 2V12C16 13.1046 15.1046 14 14 14H2C0.895431 14 0 13.1046 0 12V2ZM12 15.5C12 15.2239 11.7761 15 11.5 15H4.5C4.22386 15 4 15.2239 4 15.5C4 15.7761 4.22386 16 4.5 16H11.5C11.7761 16 12 15.7761 12 15.5Z" fill="#4F4F4F"/>
<path fill-rule="evenodd" clip-rule="evenodd" d="M2 25.5H14C14.2761 25.5 14.5 25.7239 14.5 26V36C14.5 36.2761 14.2761 36.5 14 36.5H2C1.72386 36.5 1.5 36.2761 1.5 36V26C1.5 25.7239 1.72386 25.5 2 25.5ZM0 26C0 24.8954 0.895431 24 2 24H14C15.1046 24 16 24.8954 16 26V36C16 37.1046 15.1046 38 14 38H2C0.895431 38 0 37.1046 0 36V26ZM12 39.5C12 39.2239 11.7761 39 11.5 39H4.5C4.22386 39 4 39.2239 4 39.5C4 39.7761 4.22386 40 4.5 40H11.5C11.7761 40 12 39.7761 12 39.5Z" fill="#4F4F4F"/>
<path fill-rule="evenodd" clip-rule="evenodd" d="M26 1.5H38C38.2761 1.5 38.5 1.72386 38.5 2V12C38.5 12.2761 38.2761 12.5 38 12.5H26C25.7239 12.5 25.5 12.2761 25.5 12V2C25.5 1.72386 25.7239 1.5 26 1.5ZM24 2C24 0.89543 24.8954 0 26 0H38C39.1046 0 40 0.895431 40 2V12C40 13.1046 39.1046 14 38 14H26C24.8954 14 24 13.1046 24 12V2ZM36 15.5C36 15.2239 35.7761 15 35.5 15H28.5C28.2239 15 28 15.2239 28 15.5C28 15.7761 28.2239 16 28.5 16H35.5C35.7761 16 36 15.7761 36 15.5Z" fill="#4F4F4F"/>
<rect x="17" y="7" width="6" height="1" rx="0.5" fill="#939393"/>
<rect x="8.5" y="17" width="6" height="1" rx="0.5" transform="rotate(90 8.5 17)" fill="#939393"/>
</svg>
