<svg width="40" height="40" viewBox="0 0 40 40" fill="none" xmlns="http://www.w3.org/2000/svg">
<path fill-rule="evenodd" clip-rule="evenodd" d="M7.63624 6.93251C7.5 7.1999 7.5 7.54993 7.5 8.25V9.25C7.5 9.95007 7.5 10.3001 7.63624 10.5675C7.75608 10.8027 7.94731 10.9939 8.18251 11.1138C8.4499 11.25 8.79993 11.25 9.5 11.25H10.5C11.2001 11.25 11.5501 11.25 11.8175 11.1138C12.0527 10.9939 12.2439 10.8027 12.3638 10.5675C12.5 10.3001 12.5 9.95007 12.5 9.25V8.25C12.5 7.54993 12.5 7.1999 12.3638 6.93251C12.2439 6.69731 12.0527 6.50608 11.8175 6.38624C11.5501 6.25 11.2001 6.25 10.5 6.25H9.5C8.79993 6.25 8.4499 6.25 8.18251 6.38624C7.94731 6.50608 7.75608 6.69731 7.63624 6.93251ZM13.8862 6.93251C13.75 7.1999 13.75 7.54993 13.75 8.25V9.25C13.75 9.95007 13.75 10.3001 13.8862 10.5675C14.0061 10.8027 14.1973 10.9939 14.4325 11.1138C14.6999 11.25 15.0499 11.25 15.75 11.25H16.75C17.4501 11.25 17.8001 11.25 18.0675 11.1138C18.3027 10.9939 18.4939 10.8027 18.6138 10.5675C18.75 10.3001 18.75 9.95007 18.75 9.25V8.25C18.75 7.54993 18.75 7.1999 18.6138 6.93251C18.4939 6.69731 18.3027 6.50608 18.0675 6.38624C17.8001 6.25 17.4501 6.25 16.75 6.25H15.75C15.0499 6.25 14.6999 6.25 14.4325 6.38624C14.1973 6.50608 14.0061 6.69731 13.8862 6.93251ZM20 8.25C20 7.54993 20 7.1999 20.1362 6.93251C20.2561 6.69731 20.4473 6.50608 20.6825 6.38624C20.9499 6.25 21.2999 6.25 22 6.25H23C23.7001 6.25 24.0501 6.25 24.3175 6.38624C24.5527 6.50608 24.7439 6.69731 24.8638 6.93251C25 7.1999 25 7.54993 25 8.25V9.25C25 9.95007 25 10.3001 24.8638 10.5675C24.7439 10.8027 24.5527 10.9939 24.3175 11.1138C24.0501 11.25 23.7001 11.25 23 11.25H22C21.2999 11.25 20.9499 11.25 20.6825 11.1138C20.4473 10.9939 20.2561 10.8027 20.1362 10.5675C20 10.3001 20 9.95007 20 9.25V8.25ZM7.63624 13.1825C7.5 13.4499 7.5 13.7999 7.5 14.5V15.5C7.5 16.2001 7.5 16.5501 7.63624 16.8175C7.75608 17.0527 7.94731 17.2439 8.18251 17.3638C8.4499 17.5 8.79993 17.5 9.5 17.5H10.5C11.2001 17.5 11.5501 17.5 11.8175 17.3638C12.0527 17.2439 12.2439 17.0527 12.3638 16.8175C12.5 16.5501 12.5 16.2001 12.5 15.5V14.5C12.5 13.7999 12.5 13.4499 12.3638 13.1825C12.2439 12.9473 12.0527 12.7561 11.8175 12.6362C11.5501 12.5 11.2001 12.5 10.5 12.5H9.5C8.79993 12.5 8.4499 12.5 8.18251 12.6362C7.94731 12.7561 7.75608 12.9473 7.63624 13.1825ZM13.75 14.5C13.75 13.7999 13.75 13.4499 13.8862 13.1825C14.0061 12.9473 14.1973 12.7561 14.4325 12.6362C14.6999 12.5 15.0499 12.5 15.75 12.5H16.75C17.4501 12.5 17.8001 12.5 18.0675 12.6362C18.3027 12.7561 18.4939 12.9473 18.6138 13.1825C18.75 13.4499 18.75 13.7999 18.75 14.5V15.5C18.75 16.2001 18.75 16.5501 18.6138 16.8175C18.4939 17.0527 18.3027 17.2439 18.0675 17.3638C17.8001 17.5 17.4501 17.5 16.75 17.5H15.75C15.0499 17.5 14.6999 17.5 14.4325 17.3638C14.1973 17.2439 14.0061 17.0527 13.8862 16.8175C13.75 16.5501 13.75 16.2001 13.75 15.5V14.5ZM20.1362 13.1825C20 13.4499 20 13.7999 20 14.5V15.5C20 16.2001 20 16.5501 20.1362 16.8175C20.2561 17.0527 20.4473 17.2439 20.6825 17.3638C20.9499 17.5 21.5222 15.5556 22.2222 15.5556C23.3333 15 25 15 25 15V14.5C25 13.7999 25 13.4499 24.8638 13.1825C24.7439 12.9473 24.5527 12.7561 24.3175 12.6362C24.0501 12.5 23.7001 12.5 23 12.5H22C21.2999 12.5 20.9499 12.5 20.6825 12.6362C20.4473 12.7561 20.2561 12.9473 20.1362 13.1825ZM7.5 20.75C7.5 20.0499 7.5 19.6999 7.63624 19.4325C7.75608 19.1973 7.94731 19.0061 8.18251 18.8862C8.4499 18.75 8.79993 18.75 9.5 18.75H10.5C11.2001 18.75 11.5501 18.75 11.8175 18.8862C12.0527 19.0061 12.2439 19.1973 12.3638 19.4325C12.5 19.6999 12.5 20.0499 12.5 20.75V21.75C12.5 22.4501 12.5 22.8001 12.3638 23.0675C12.2439 23.3027 12.0527 23.4939 11.8175 23.6138C11.5501 23.75 11.2001 23.75 10.5 23.75H9.5C8.79993 23.75 8.4499 23.75 8.18251 23.6138C7.94731 23.4939 7.75608 23.3027 7.63624 23.0675C7.5 22.8001 7.5 22.4501 7.5 21.75V20.75ZM13.8862 19.4325C13.75 19.6999 13.75 20.0499 13.75 20.75V21.75C13.75 22.4501 13.75 22.8001 13.8862 23.0675C14.0061 23.3027 14.1973 23.4939 14.4325 23.6138C14.6999 23.75 15.0499 23.75 15.75 23.75H16.75C17.4501 23.75 17.8001 23.75 18.0675 23.6138C18.3027 23.4939 18.4939 23.3027 18.6138 23.0675C18.75 22.8001 18.75 22.4501 18.75 21.75V20.75C18.75 20.0499 18.75 19.6999 18.6138 19.4325C18.4939 19.1973 18.3027 19.0061 18.0675 18.8862C17.8001 18.75 17.4501 18.75 16.75 18.75H15.75C15.0499 18.75 14.6999 18.75 14.4325 18.8862C14.1973 19.0061 14.0061 19.1973 13.8862 19.4325ZM7.63624 25.6825C7.5 25.9499 7.5 26.2999 7.5 27V28C7.5 28.7001 7.5 29.0501 7.63624 29.3175C7.75608 29.5527 7.94731 29.7439 8.18251 29.8638C8.4499 30 8.79993 30 9.5 30H10.5C11.2001 30 11.5501 30 11.8175 29.8638C12.0527 29.7439 12.2439 29.5527 12.3638 29.3175C12.5 29.0501 12.5 28.7001 12.5 28V27C12.5 26.2999 12.5 25.9499 12.3638 25.6825C12.2439 25.4473 12.0527 25.2561 11.8175 25.1362C11.5501 25 11.2001 25 10.5 25H9.5C8.79993 25 8.4499 25 8.18251 25.1362C7.94731 25.2561 7.75608 25.4473 7.63624 25.6825ZM13.75 27C13.75 26.2999 13.75 25.9499 13.8862 25.6825C14.0061 25.4473 14.1973 25.2561 14.4325 25.1362C14.6999 25 15.0499 25 15.75 25H16.75C17.4501 25 17.8001 25 18.0675 25.1362C18.3027 25.2561 18.4939 25.4473 18.6138 25.6825C18.75 25.9499 18.75 26.2999 18.75 27V28C18.75 28.7001 18.75 29.0501 18.6138 29.3175C18.4939 29.5527 18.3027 29.7439 18.0675 29.8638C17.8001 30 17.4501 30 16.75 30H15.75C15.0499 30 14.6999 30 14.4325 29.8638C14.1973 29.7439 14.0061 29.5527 13.8862 29.3175C13.75 29.0501 13.75 28.7001 13.75 28V27Z" fill="#DFDFDF"/>
<path fill-rule="evenodd" clip-rule="evenodd" d="M22.3097 2.20671C22.4151 1.95225 22.4621 1.66006 22.4831 1.25209C23.0481 1.2559 23.4905 1.26665 23.8612 1.29694C24.4092 1.34171 24.6895 1.42287 24.885 1.52248C25.3554 1.76217 25.7378 2.14462 25.9775 2.61502C26.0771 2.81052 26.1583 3.09078 26.2031 3.6388C26.249 4.20141 26.25 4.92928 26.25 6V14.4444H25.3333C23.4665 14.4444 22.5331 14.4444 21.82 14.8078C21.1928 15.1273 20.6829 15.6373 20.3633 16.2645C20 16.9775 20 17.9109 20 19.7778V24.1111C20 25.978 20 26.9114 20.3633 27.6244C20.6829 28.2516 21.1928 28.7616 21.82 29.0811C22.5331 29.4444 23.4665 29.4444 25.3333 29.4444H26.25V34C26.25 35.0707 26.249 35.7986 26.2031 36.3612C26.1583 36.9092 26.0771 37.1895 25.9775 37.385C25.7378 37.8554 25.3554 38.2378 24.885 38.4775C24.6895 38.5771 24.4092 38.6583 23.8612 38.7031C23.2986 38.749 22.5707 38.75 21.5 38.75H11C9.92928 38.75 9.20141 38.749 8.6388 38.7031C8.09078 38.6583 7.81052 38.5771 7.61502 38.4775C7.14462 38.2378 6.76217 37.8554 6.52248 37.385C6.42287 37.1895 6.34171 36.9092 6.29694 36.3612C6.25097 35.7986 6.25 35.0707 6.25 34V6C6.25 4.92928 6.25097 4.20141 6.29694 3.6388C6.34171 3.09078 6.42287 2.81052 6.52248 2.61502C6.76217 2.14462 7.14462 1.76217 7.61502 1.52248C7.81052 1.42287 8.09078 1.34171 8.6388 1.29694C9.00949 1.26665 9.45193 1.2559 10.0169 1.25209C10.0379 1.66006 10.0849 1.95225 10.1903 2.20671C10.444 2.81928 10.9307 3.30596 11.5433 3.5597C12.0027 3.75 12.5851 3.75 13.75 3.75H18.75C19.9149 3.75 20.4973 3.75 20.9567 3.5597C21.5693 3.30596 22.056 2.81928 22.3097 2.20671ZM29.6667 14.4444H27.5V6C27.5 3.8998 27.5 2.8497 27.0913 2.04754C26.7318 1.34193 26.1581 0.768251 25.4525 0.408726C24.7891 0.0707195 23.9562 0.0122362 22.5 0.00211716V0H21.5H11H10V0.00211717C8.54384 0.0122362 7.71091 0.0707196 7.04754 0.408726C6.34193 0.768251 5.76825 1.34193 5.40873 2.04754C5 2.8497 5 3.8998 5 6V34C5 36.1002 5 37.1503 5.40873 37.9525C5.76825 38.6581 6.34193 39.2318 7.04754 39.5913C7.8497 40 8.8998 40 11 40H21.5C23.6002 40 24.6503 40 25.4525 39.5913C26.1581 39.2318 26.7318 38.6581 27.0913 37.9525C27.5 37.1503 27.5 36.1002 27.5 34V29.4444H29.6667C31.5335 29.4444 32.4669 29.4444 33.18 29.0811C33.8072 28.7616 34.3171 28.2516 34.6367 27.6244C35 26.9114 35 25.978 35 24.1111V19.7778C35 17.9109 35 16.9775 34.6367 16.2645C34.3171 15.6373 33.8072 15.1273 33.18 14.8078C32.4669 14.4444 31.5335 14.4444 29.6667 14.4444ZM25.3333 15.5556C24.3816 15.5556 23.7346 15.5564 23.2345 15.5973C22.7474 15.6371 22.4982 15.7092 22.3245 15.7978C21.9063 16.0108 21.5664 16.3508 21.3533 16.7689C21.2648 16.9427 21.1926 17.1918 21.1528 17.6789C21.112 18.179 21.1111 18.826 21.1111 19.7778V24.1111C21.1111 25.0629 21.112 25.7099 21.1528 26.21C21.1926 26.6971 21.2648 26.9462 21.3533 27.12C21.5664 27.5381 21.9063 27.8781 22.3245 28.0911C22.4982 28.1797 22.7474 28.2518 23.2345 28.2916C23.7346 28.3325 24.3816 28.3333 25.3333 28.3333H29.6667C30.6184 28.3333 31.2654 28.3325 31.7655 28.2916C32.2526 28.2518 32.5018 28.1797 32.6755 28.0911C33.0937 27.8781 33.4336 27.5381 33.6467 27.12C33.7352 26.9462 33.8074 26.6971 33.8472 26.21C33.888 25.7099 33.8889 25.0629 33.8889 24.1111V19.7778C33.8889 18.826 33.888 18.179 33.8472 17.6789C33.8074 17.1918 33.7352 16.9427 33.6467 16.7689C33.4336 16.3508 33.0937 16.0108 32.6755 15.7978C32.5018 15.7092 32.2526 15.6371 31.7655 15.5973C31.2654 15.5564 30.6184 15.5556 29.6667 15.5556H25.3333ZM9.375 36.25C9.02982 36.25 8.75 36.5298 8.75 36.875C8.75 37.2202 9.02982 37.5 9.375 37.5H23.125C23.4702 37.5 23.75 37.2202 23.75 36.875C23.75 36.5298 23.4702 36.25 23.125 36.25H9.375Z" fill="#4F4F4F"/>
<path d="M22.7544 20.7953C22.7544 19.5507 22.7544 18.9285 22.9966 18.4531C23.2097 18.035 23.5496 17.695 23.9677 17.482C24.4431 17.2397 25.0654 17.2397 26.31 17.2397H28.6515C29.896 17.2397 30.5183 17.2397 30.9937 17.482C31.4118 17.695 31.7518 18.035 31.9648 18.4531C32.207 18.9285 32.207 19.5507 32.207 20.7953V23.1368C32.207 24.3814 32.207 25.0037 31.9648 25.479C31.7518 25.8972 31.4118 26.2371 30.9937 26.4502C30.5183 26.6924 29.896 26.6924 28.6515 26.6924H26.31C25.0654 26.6924 24.4431 26.6924 23.9677 26.4502C23.5496 26.2371 23.2097 25.8972 22.9966 25.479C22.7544 25.0037 22.7544 24.3814 22.7544 23.1368V20.7953Z" fill="#43BAD6"/>
</svg>
