<svg width="40" height="40" viewBox="0 0 40 40" fill="none" xmlns="http://www.w3.org/2000/svg">
<g clip-path="url(#clip0)">
<path d="M39.0671 4.80629C38.8034 4.74495 38.5263 4.8246 38.3359 5.01686L35.3031 8.50237C34.5819 9.33128 33.327 9.42312 32.4927 8.70805L32.0154 8.29891C31.178 7.58111 31.0797 6.32084 31.7958 5.48194L35.0275 1.69594C35.2164 1.50429 35.2933 1.22871 35.2307 0.966567C35.1685 0.704726 34.9756 0.493544 34.7205 0.407484C33.9185 0.137098 33.0792 7.4116e-05 32.2257 7.4116e-05C29.6811 7.4116e-05 27.3694 1.1866 25.8832 3.25539C24.4922 5.19203 24.0634 7.56539 24.6778 9.83681L18.923 15.5915L9.33564 5.98213V4.09615C9.33564 3.82179 9.1916 3.56728 8.9563 3.42629L3.43231 0.111463C3.1247 -0.0731681 2.73133 -0.0246451 2.47803 0.228956L0.268555 2.43812C0.0152587 2.69173 -0.0332642 3.0851 0.151062 3.39272L3.46527 8.91671C3.60626 9.152 3.86048 9.29573 4.13483 9.29604L6.02021 9.29665L15.6085 18.906L9.8758 24.6388C7.60438 24.0247 5.2298 24.4541 3.29224 25.846C1.22467 27.3313 0.0390625 29.6424 0.0390625 32.187C0.0390625 33.0403 0.176087 33.8798 0.446472 34.6815C0.532837 34.9381 0.746155 35.1319 1.00983 35.193C1.2738 35.2543 1.5506 35.1747 1.74133 34.9824L4.58735 32.321C5.37507 31.5844 6.60499 31.605 7.3676 32.3676L7.64503 32.645C8.40255 33.4026 8.42865 34.6224 7.70422 35.4117L5.05585 38.2969C4.86359 38.4876 4.78394 38.7644 4.84528 39.0284C4.90631 39.2921 5.1001 39.5054 5.35675 39.5918C6.15845 39.8622 6.99799 39.9992 7.85126 39.9992C10.3958 39.9992 12.7066 38.8133 14.1922 36.7457C15.5841 34.8081 16.0135 32.4339 15.3995 30.1624L20.0037 25.5583L32.0133 38.6033C32.0206 38.6112 32.0282 38.6189 32.0358 38.6265C33.8669 40.4576 36.8335 40.4582 38.6655 38.6262C40.4923 36.7985 40.4923 33.8246 38.6655 31.9969C38.6576 31.9889 38.6493 31.9813 38.6411 31.9737L25.5753 19.9864L30.2017 15.3599C30.8594 15.5357 31.5381 15.6248 32.2257 15.6248C36.5335 15.6248 40.0379 12.1201 40.0379 7.81258C40.0379 6.959 39.9008 6.11977 39.6305 5.31777C39.5441 5.06111 39.3308 4.86733 39.0671 4.80629ZM6.89728 7.96364C6.7508 7.81685 6.55213 7.74208 6.34461 7.74208L4.57764 7.74147L1.80481 3.11195L3.15155 1.76521L7.77314 4.53865V6.30562C7.77314 6.51253 7.85523 6.71089 8.00141 6.85738L17.8183 16.6966L16.7133 17.8013L6.89728 7.96364ZM24.4693 21.092L37.5717 33.1129C38.7784 34.3324 38.7747 36.3069 37.5605 37.5218C36.3434 38.7388 34.3732 38.7425 33.1513 37.5324L21.1093 24.4523L24.4693 21.092ZM32.2257 14.0623C31.5424 14.0623 30.8704 13.9527 30.2289 13.7367C29.9478 13.6424 29.6372 13.715 29.4272 13.9246C25.5106 17.8413 17.0712 26.2803 13.9636 29.3882C13.7537 29.5982 13.6807 29.9088 13.7756 30.1902C14.4251 32.1186 14.1144 34.1755 12.923 35.8341C11.7349 37.4879 9.88618 38.4367 7.85126 38.4367C7.62269 38.4367 7.39533 38.4242 7.17011 38.4001L9.1621 36.1115C10.1971 34.9225 10.1352 33.1352 9.02056 32.0206L7.99774 30.9977C6.87555 29.8756 5.07353 29.8215 3.88609 30.8744L1.63788 32.8678C1.61347 32.6426 1.60126 32.4153 1.60126 32.1867C1.60126 30.1515 2.54975 28.303 4.2038 27.115C5.86213 25.9236 7.91932 25.6126 9.84803 26.2623C10.1291 26.3572 10.4398 26.2843 10.6497 26.0743C10.6928 26.0316 26.1023 10.6217 26.1133 10.6107C26.3233 10.4008 26.3959 10.0904 26.3013 9.80904C25.6516 7.88063 25.9616 5.82436 27.1521 4.16695C28.3411 2.51167 30.1901 1.56258 32.2254 1.56258C32.461 1.56258 32.695 1.5757 32.927 1.60133L30.3076 4.79558C29.2947 6.03081 29.4274 7.84311 30.6094 8.91765L31.7834 9.98487C33.0081 11.0983 34.9032 11.0094 36.0183 9.78625L38.4387 7.13143C38.4632 7.35665 38.4754 7.584 38.4754 7.81258C38.4754 11.2586 35.6717 14.0623 32.2257 14.0623Z" fill="#939393"/>
<path d="M39.0671 4.80622C38.8034 4.74488 38.5263 4.82453 38.3359 5.01679L35.3031 8.5023C34.5819 9.33121 33.327 9.42305 32.4927 8.70798L32.0154 8.29884C31.178 7.58104 31.0797 6.32077 31.7958 5.48186L35.0275 1.69586C35.2164 1.50421 35.2933 1.22864 35.2307 0.966492C35.1685 0.704651 34.9756 0.49347 34.7205 0.40741C33.9185 0.137024 33.0792 0 32.2257 0C29.6811 0 27.3694 1.18652 25.8832 3.25531C24.4922 5.19196 24.0634 7.56531 24.6778 9.83674L18.923 15.5914L9.8758 24.6387C7.60438 24.0247 5.2298 24.4541 3.29224 25.846C1.22467 27.3313 0.0390625 29.6424 0.0390625 32.1869C0.0390625 33.0402 0.176087 33.8797 0.446472 34.6814C0.532837 34.9381 0.746155 35.1319 1.00983 35.1929C1.2738 35.2542 1.5506 35.1746 1.74133 34.9823L4.58735 32.3209C5.37507 31.5843 6.60499 31.6049 7.3676 32.3675L7.64503 32.645C8.40255 33.4025 8.42865 34.6224 7.70422 35.4116L5.05585 38.2968C4.86359 38.4876 4.78394 38.7644 4.84528 39.0283C4.90631 39.292 5.1001 39.5053 5.35675 39.5917C6.15845 39.8621 6.99799 39.9991 7.85126 39.9991C10.3958 39.9991 12.7066 38.8132 14.1922 36.7456C15.5841 34.8081 16.0135 32.4338 15.3995 30.1624L25.5753 19.9863L30.2017 15.3598C30.8594 15.5356 31.5381 15.6247 32.2257 15.6247C36.5335 15.6247 40.0379 12.1201 40.0379 7.81251C40.0379 6.95893 39.9008 6.11969 39.6305 5.31769C39.5441 5.06104 39.3308 4.86725 39.0671 4.80622ZM32.2257 14.0622C31.5424 14.0622 30.8704 13.9526 30.2289 13.7366C29.9478 13.6423 29.6372 13.7149 29.4272 13.9246C25.5106 17.8412 17.0712 26.2802 13.9636 29.3881C13.7537 29.5981 13.6807 29.9088 13.7756 30.1901C14.4251 32.1185 14.1144 34.1754 12.923 35.8341C11.7349 37.4878 9.88618 38.4366 7.85126 38.4366C7.62269 38.4366 7.39533 38.4241 7.17011 38.4L9.1621 36.1114C10.1971 34.9224 10.1352 33.1352 9.02056 32.0205L7.99774 30.9977C6.87555 29.8755 5.07353 29.8214 3.88609 30.8743L1.63788 32.8678C1.61347 32.6425 1.60126 32.4152 1.60126 32.1866C1.60126 30.1514 2.54975 28.3029 4.2038 27.1149C5.86213 25.9235 7.91932 25.6125 9.84803 26.2622C10.1291 26.3571 10.4398 26.2842 10.6497 26.0742C10.6928 26.0315 26.1023 10.6216 26.1133 10.6107C26.3233 10.4007 26.3959 10.0903 26.3013 9.80897C25.6516 7.88056 25.9616 5.82428 27.1521 4.16687C28.3411 2.5116 30.1901 1.5625 32.2254 1.5625C32.461 1.5625 32.695 1.57562 32.927 1.60126L30.3076 4.79551C29.2947 6.03074 29.4274 7.84304 30.6094 8.91758L31.7834 9.9848C33.0081 11.0982 34.9032 11.0093 36.0183 9.78618L38.4387 7.13135C38.4632 7.35657 38.4754 7.58393 38.4754 7.81251C38.4754 11.2586 35.6717 14.0622 32.2257 14.0622Z" fill="#43BAD6"/>
</g>
<defs>
<clipPath id="clip0">
<rect width="40" height="40" fill="white"/>
</clipPath>
</defs>
</svg>
