<svg width="40" height="40" viewBox="0 0 40 40" fill="none" xmlns="http://www.w3.org/2000/svg">
<rect x="14" y="31" width="12" height="8" fill="#DFDFDF"/>
<path d="M34 31V30.1V13.7517C34 13.3634 33.6701 13.0486 33.2632 13.0486H27.3684C26.9614 13.0486 26.6316 13.3634 26.6316 13.7517V30.1383L23.3011 30.1C23.3011 30.1 22.7901 24.8176 22.3084 22.1585C23.8287 21.0903 24.2437 19.1106 23.3144 17.5725L20.7604 13.3516C20.6286 13.134 20.3854 13 20.1223 13C19.859 13 19.6157 13.134 19.4842 13.3516L16.9292 17.5728C16.053 19.023 16.3636 20.9014 17.74 22.0099C17.2568 24.5589 16.6989 30.1 16.6989 30.1H13.3684V19.3767C13.3684 19.2652 13.3408 19.1636 13.2956 19.0732C13.2936 19.0697 13.2924 19.0658 13.2907 19.0623L10.3433 13.4373C10.2184 13.1991 9.9634 13.0486 9.68421 13.0486C9.40502 13.0486 9.15 13.1991 9.02508 13.4373L6.07771 19.0623C6.07599 19.0658 6.07484 19.0697 6.07311 19.0732C6.02706 19.1644 6 19.2677 6 19.3767V30.1V31H34ZM28.1053 30.1V14.4549H32.5263V15.8611H31.7895C31.3825 15.8611 31.0526 16.1759 31.0526 16.5642C31.0526 16.9526 31.3825 17.2674 31.7895 17.2674H32.5263V19.3767H31.7895C31.3825 19.3767 31.0526 19.6915 31.0526 20.0799C31.0526 20.4682 31.3825 20.783 31.7895 20.783H32.5263V22.8924H31.7895C31.3825 22.8924 31.0526 23.2071 31.0526 23.5955C31.0526 23.9839 31.3825 24.2986 31.7895 24.2986H32.5263V27.1111H31.7895C31.3825 27.1111 31.0526 27.4259 31.0526 27.8142C31.0526 28.2026 31.3825 28.5174 31.7895 28.5174H32.5263V30.1H28.1053ZM20.1223 22.8438C20.39 22.8438 20.6565 22.8144 20.9173 22.7594C21.054 23.5958 21.2549 25.0756 21.3738 27.1111H18.6311C18.7557 25.077 18.9661 23.5741 19.1115 22.7094C19.4379 22.7982 19.7778 22.8438 20.1223 22.8438ZM20.1223 21.4375C18.4382 21.4375 17.3523 19.6885 18.2057 18.2756L20.1223 15.1094L22.0378 18.2754C22.8881 19.6824 21.8171 21.4375 20.1223 21.4375ZM18.5634 28.5174H21.4386L21.4147 30.1H18.5853L18.5634 28.5174ZM10.4211 30.1V20.0799H11.8947V30.1H10.4211ZM7.47368 30.1V20.0799H8.94737V30.1H7.47368ZM7.92903 18.6736L9.68421 15.3239L11.4394 18.6736H7.92903Z" fill="#43BAD6"/>
<mask id="path-3-inside-1" fill="white">
<path fill-rule="evenodd" clip-rule="evenodd" d="M36 1.5H4C2.61929 1.5 1.5 2.61929 1.5 4V28C1.5 29.3807 2.61929 30.5 4 30.5H36C37.3807 30.5 38.5 29.3807 38.5 28V4C38.5 2.61929 37.3807 1.5 36 1.5ZM4 0C1.79086 0 0 1.79086 0 4V28C0 30.2091 1.79086 32 4 32H36C38.2091 32 40 30.2091 40 28V4C40 1.79086 38.2091 0 36 0H4Z"/>
</mask>
<path fill-rule="evenodd" clip-rule="evenodd" d="M36 1.5H4C2.61929 1.5 1.5 2.61929 1.5 4V28C1.5 29.3807 2.61929 30.5 4 30.5H36C37.3807 30.5 38.5 29.3807 38.5 28V4C38.5 2.61929 37.3807 1.5 36 1.5ZM4 0C1.79086 0 0 1.79086 0 4V28C0 30.2091 1.79086 32 4 32H36C38.2091 32 40 30.2091 40 28V4C40 1.79086 38.2091 0 36 0H4Z" fill="#4F4F4F"/>
<path d="M4 3H36V0H4V3ZM3 4C3 3.44772 3.44772 3 4 3V0C1.79086 0 0 1.79086 0 4H3ZM3 28V4H0V28H3ZM4 29C3.44772 29 3 28.5523 3 28H0C0 30.2091 1.79086 32 4 32V29ZM36 29H4V32H36V29ZM37 28C37 28.5523 36.5523 29 36 29V32C38.2091 32 40 30.2091 40 28H37ZM37 4V28H40V4H37ZM36 3C36.5523 3 37 3.44772 37 4H40C40 1.79086 38.2091 0 36 0V3ZM1.5 4C1.5 2.61929 2.61929 1.5 4 1.5V-1.5C0.962434 -1.5 -1.5 0.962434 -1.5 4H1.5ZM1.5 28V4H-1.5V28H1.5ZM4 30.5C2.61929 30.5 1.5 29.3807 1.5 28H-1.5C-1.5 31.0376 0.962435 33.5 4 33.5V30.5ZM36 30.5H4V33.5H36V30.5ZM38.5 28C38.5 29.3807 37.3807 30.5 36 30.5V33.5C39.0376 33.5 41.5 31.0376 41.5 28H38.5ZM38.5 4V28H41.5V4H38.5ZM36 1.5C37.3807 1.5 38.5 2.61929 38.5 4H41.5C41.5 0.962434 39.0376 -1.5 36 -1.5V1.5ZM4 1.5H36V-1.5H4V1.5Z" fill="#4F4F4F" mask="url(#path-3-inside-1)"/>
<mask id="path-5-inside-2" fill="white">
<path fill-rule="evenodd" clip-rule="evenodd" d="M10.75 38.5C10.3358 38.5 10 38.8358 10 39.25C10 39.6642 10.3358 40 10.75 40H29.25C29.6642 40 30 39.6642 30 39.25C30 38.8358 29.6642 38.5 29.25 38.5H10.75Z"/>
</mask>
<path fill-rule="evenodd" clip-rule="evenodd" d="M10.75 38.5C10.3358 38.5 10 38.8358 10 39.25C10 39.6642 10.3358 40 10.75 40H29.25C29.6642 40 30 39.6642 30 39.25C30 38.8358 29.6642 38.5 29.25 38.5H10.75Z" fill="#4F4F4F"/>
<path d="M11.5 39.25C11.5 39.6642 11.1642 40 10.75 40V37C9.50736 37 8.5 38.0074 8.5 39.25H11.5ZM10.75 38.5C11.1642 38.5 11.5 38.8358 11.5 39.25H8.5C8.5 40.4926 9.50736 41.5 10.75 41.5V38.5ZM29.25 38.5H10.75V41.5H29.25V38.5ZM28.5 39.25C28.5 38.8358 28.8358 38.5 29.25 38.5V41.5C30.4926 41.5 31.5 40.4926 31.5 39.25H28.5ZM29.25 40C28.8358 40 28.5 39.6642 28.5 39.25H31.5C31.5 38.0074 30.4926 37 29.25 37V40ZM10.75 40H29.25V37H10.75V40Z" fill="#4F4F4F" mask="url(#path-5-inside-2)"/>
</svg>
