<svg width="40" height="40" viewBox="0 0 40 40" fill="none" xmlns="http://www.w3.org/2000/svg">
<path fill-rule="evenodd" clip-rule="evenodd" d="M37.5 2.37034H2.5C1.80964 2.37034 1.25 2.93413 1.25 3.6296V6.14812H38.75V3.6296C38.75 2.93413 38.1904 2.37034 37.5 2.37034ZM0 3.6296V6.77775V36.3703C0 37.7613 1.11929 38.8889 2.5 38.8889H37.5C38.8807 38.8889 40 37.7613 40 36.3703V6.77775V3.6296C40 2.23866 38.8807 1.11108 37.5 1.11108H2.5C1.11929 1.11108 0 2.23866 0 3.6296ZM38.75 36.3703V7.40738H1.25V36.3703C1.25 37.0658 1.80964 37.6296 2.5 37.6296H37.5C38.1904 37.6296 38.75 37.0658 38.75 36.3703ZM3.125 4.88886C2.77982 4.88886 2.5 4.60697 2.5 4.25923C2.5 3.9115 2.77982 3.6296 3.125 3.6296C3.47018 3.6296 3.75 3.9115 3.75 4.25923C3.75 4.60697 3.47018 4.88886 3.125 4.88886ZM5 4.25923C5 4.60697 5.27982 4.88886 5.625 4.88886C5.97018 4.88886 6.25 4.60697 6.25 4.25923C6.25 3.9115 5.97018 3.6296 5.625 3.6296C5.27982 3.6296 5 3.9115 5 4.25923ZM8.125 4.88886C7.77982 4.88886 7.5 4.60697 7.5 4.25923C7.5 3.9115 7.77982 3.6296 8.125 3.6296C8.47018 3.6296 8.75 3.9115 8.75 4.25923C8.75 4.60697 8.47018 4.88886 8.125 4.88886Z" fill="#4F4F4F"/>
<path d="M9.72461 22.4541L14.9102 24.4229V26.5586L7.55371 23.2803V21.584L14.9102 18.3145V20.4502L9.72461 22.4541Z" fill="#43BAD6"/>
<path d="M17.8545 29.0986H16.1758L21.2119 15.2031H22.8906L17.8545 29.0986Z" fill="#43BAD6"/>
<path d="M29.834 22.4102L24.4023 20.415V18.3145L31.9961 21.584V23.2803L24.4023 26.5498V24.4492L29.834 22.4102Z" fill="#43BAD6"/>
</svg>
