<svg width="40" height="40" viewBox="0 0 40 40" fill="none" xmlns="http://www.w3.org/2000/svg">
<g clip-path="url(#clip0)">
<path fill-rule="evenodd" clip-rule="evenodd" d="M26.8598 11.2503C29.483 11.2766 31.7183 12.9467 32.5845 15.2773C32.7259 15.6579 33.0734 15.9375 33.4794 15.9375C34.0336 15.9375 34.4532 15.4304 34.276 14.9052C33.3069 12.0333 30.7261 9.89559 27.6158 9.57353L27.3986 9.55104L27.345 9.33929C26.339 5.36016 22.7745 2.5 18.5937 2.5C15.3335 2.5 12.3209 4.25577 10.7066 7.03384L10.6133 7.19443L10.4276 7.18921C7.6861 7.11203 5.10695 9.16027 4.7334 12.0247L4.7084 12.2164L4.52568 12.2796C1.78671 13.227 0 15.7688 0 18.5938C0 22.2981 3.01439 25.3125 6.71875 25.3125H17.4219C17.8965 25.3125 18.2812 24.9277 18.2812 24.4531C18.2812 23.9785 17.8965 23.5938 17.4219 23.5938H6.71875C3.96132 23.5938 1.71875 21.3512 1.71875 18.5938C1.71875 16.2415 3.40858 14.1978 5.73224 13.7281L6.44441 13.5844C6.43495 13.3155 6.43003 13.1451 6.42673 13.0307C6.42109 12.8353 6.42016 12.8032 6.40935 12.723L6.40622 12.6997L6.4066 12.6763C6.43964 10.6176 8.21775 8.90625 10.3125 8.90625C10.5767 8.90625 10.8205 8.94865 11.3144 9.03457C11.4034 9.05006 11.5006 9.06696 11.6074 9.08528L11.8842 8.48871C13.089 5.89363 15.7222 4.21875 18.5937 4.21875C22.2076 4.21875 25.3159 6.92967 25.8291 10.5238L25.9364 11.2746C26.2246 11.2689 26.4045 11.2664 26.5226 11.2648C26.724 11.2619 26.7458 11.2616 26.8184 11.2527L26.839 11.2501L26.8598 11.2503Z" fill="#43BAD6"/>
<path fill-rule="evenodd" clip-rule="evenodd" d="M21.25 28.75V35.25C21.25 35.8023 21.6978 36.25 22.25 36.25H37.75C38.3023 36.25 38.75 35.8023 38.75 35.25V28.75H21.25ZM21.25 27.5H38.75V19.75C38.75 19.1977 38.3023 18.75 37.75 18.75H22.25C21.6978 18.75 21.25 19.1977 21.25 19.75V27.5ZM38 17.5C39.1046 17.5 40 18.3954 40 19.5L40 35.5C40 36.6046 39.1046 37.5 38 37.5H22C20.8954 37.5 20 36.6046 20 35.5V19.5C20 18.3954 20.8954 17.5 22 17.5H38Z" fill="black"/>
<path d="M24.375 22.8125C24.375 22.2947 24.7947 21.875 25.3125 21.875H25.9375C26.4553 21.875 26.875 22.2947 26.875 22.8125C26.875 23.3303 26.4553 23.75 25.9375 23.75H25.3125C24.7947 23.75 24.375 23.3303 24.375 22.8125Z" fill="#939393"/>
<path d="M24.375 32.1875C24.375 31.6697 24.7947 31.25 25.3125 31.25H25.9375C26.4553 31.25 26.875 31.6697 26.875 32.1875C26.875 32.7053 26.4553 33.125 25.9375 33.125H25.3125C24.7947 33.125 24.375 32.7053 24.375 32.1875Z" fill="#939393"/>
<path d="M29.375 32.1875C29.375 31.6697 29.7947 31.25 30.3125 31.25H34.6875C35.2053 31.25 35.625 31.6697 35.625 32.1875C35.625 32.7053 35.2053 33.125 34.6875 33.125H30.3125C29.7947 33.125 29.375 32.7053 29.375 32.1875Z" fill="#939393"/>
<path d="M29.375 22.8125C29.375 22.2947 29.7947 21.875 30.3125 21.875H34.6875C35.2053 21.875 35.625 22.2947 35.625 22.8125C35.625 23.3303 35.2053 23.75 34.6875 23.75H30.3125C29.7947 23.75 29.375 23.3303 29.375 22.8125Z" fill="#939393"/>
</g>
<defs>
<clipPath id="clip0">
<rect width="40" height="40" fill="white"/>
</clipPath>
</defs>
</svg>
