<svg width="131" height="390" viewBox="0 0 131 390" fill="none" xmlns="http://www.w3.org/2000/svg">
<path d="M39.9999 105L39.9999 135M39.9999 135L45 130.588M39.9999 135L35 130.588" stroke="#BEBEBE" stroke-width="2" stroke-linecap="round"/>
<path d="M80 165C80 165 105 148.413 105 105C105 59.725 80 45 80 45" stroke="#BEBEBE" stroke-width="2" stroke-linecap="round" stroke-dasharray="0.5 4"/>
<path d="M80 45C80 45 130 82.5632 130 178.462C130 278.473 80 311 80 311" stroke="#BEBEBE" stroke-width="2" stroke-linecap="round" stroke-dasharray="0.5 4"/>
<path d="M80 51L80 45L86 45" stroke="#BEBEBE" stroke-width="2" stroke-linecap="round"/>
<path d="M86 311L80 311L80 305" stroke="#BEBEBE" stroke-width="2" stroke-linecap="round"/>
<circle cx="40" cy="330" r="29.5" stroke="#CACACA"/>
<circle cx="40" cy="330" r="9.5" stroke="#43BAD6"/>
<path d="M20.0391 380.529H18.8291V385H17.5166V375.047H18.8291V379.436H19.8545L23.334 375.047H24.9678L21.167 379.873L25.248 385H23.6416L20.0391 380.529ZM32.3164 377.604V385H31.0449V378.649H28.5293L28.3789 381.418C28.2969 382.689 28.0827 383.599 27.7363 384.146C27.3945 384.692 26.8499 384.977 26.1025 385H25.5967V383.886L25.959 383.858C26.3691 383.813 26.6631 383.576 26.8408 383.147C27.0186 382.719 27.1325 381.926 27.1826 380.769L27.3193 377.604H32.3164ZM39.1318 377.604H40.3965V385H39.1318V379.606L35.7207 385H34.4561V377.604H35.7207V383.004L39.1318 377.604ZM45.4961 385.137C44.4935 385.137 43.6777 384.809 43.0488 384.152C42.4199 383.492 42.1055 382.61 42.1055 381.507V381.274C42.1055 380.541 42.2445 379.887 42.5225 379.312C42.805 378.734 43.1969 378.283 43.6982 377.959C44.2041 377.631 44.751 377.467 45.3389 377.467C46.3005 377.467 47.0479 377.784 47.5811 378.417C48.1143 379.05 48.3809 379.957 48.3809 381.138V381.664H43.3701C43.3883 382.393 43.6003 382.983 44.0059 383.435C44.416 383.881 44.9355 384.104 45.5645 384.104C46.0111 384.104 46.3893 384.013 46.6992 383.831C47.0091 383.649 47.2803 383.407 47.5127 383.106L48.2852 383.708C47.6654 384.66 46.7357 385.137 45.4961 385.137ZM45.3389 378.506C44.8285 378.506 44.4001 378.693 44.0537 379.066C43.7074 379.436 43.4932 379.955 43.4111 380.625H47.1162V380.529C47.0798 379.887 46.9066 379.39 46.5967 379.039C46.2868 378.684 45.8675 378.506 45.3389 378.506ZM55.8936 385H54.6289V381.842H51.2314V385H49.96V377.604H51.2314V380.81H54.6289V377.604H55.8936V385ZM63.4268 378.629H60.9453V385H59.6807V378.629H57.2471V377.604H63.4268V378.629Z" fill="black"/>
<circle cx="40" cy="30" r="29.5" stroke="#CACACA"/>
<circle cx="40" cy="30" r="10" fill="#43BAD6"/>
<path d="M8.11719 75.0469L11.3711 83.168L14.625 75.0469H16.3271V85H15.0146V81.124L15.1377 76.9404L11.8701 85H10.8652L7.60449 76.9609L7.73438 81.124V85H6.42188V75.0469H8.11719ZM21.5156 85.1367C20.513 85.1367 19.6973 84.8086 19.0684 84.1523C18.4395 83.4915 18.125 82.6097 18.125 81.5068V81.2744C18.125 80.5407 18.264 79.8867 18.542 79.3125C18.8245 78.7337 19.2165 78.2826 19.7178 77.959C20.2236 77.6309 20.7705 77.4668 21.3584 77.4668C22.32 77.4668 23.0674 77.7835 23.6006 78.417C24.1338 79.0505 24.4004 79.9574 24.4004 81.1377V81.6641H19.3896C19.4079 82.3932 19.6198 82.9834 20.0254 83.4346C20.4355 83.8812 20.9551 84.1045 21.584 84.1045C22.0306 84.1045 22.4089 84.0133 22.7188 83.8311C23.0286 83.6488 23.2998 83.4072 23.5322 83.1064L24.3047 83.708C23.6849 84.6605 22.7552 85.1367 21.5156 85.1367ZM21.3584 78.5059C20.848 78.5059 20.4196 78.6927 20.0732 79.0664C19.7269 79.4355 19.5127 79.9551 19.4307 80.625H23.1357V80.5293C23.0993 79.8867 22.9261 79.39 22.6162 79.0391C22.3063 78.6836 21.887 78.5059 21.3584 78.5059ZM31.9131 85H30.6484V81.8418H27.251V85H25.9795V77.6035H27.251V80.8096H30.6484V77.6035H31.9131V85ZM37.0195 85.1367C36.0169 85.1367 35.2012 84.8086 34.5723 84.1523C33.9434 83.4915 33.6289 82.6097 33.6289 81.5068V81.2744C33.6289 80.5407 33.7679 79.8867 34.0459 79.3125C34.3285 78.7337 34.7204 78.2826 35.2217 77.959C35.7275 77.6309 36.2744 77.4668 36.8623 77.4668C37.8239 77.4668 38.5713 77.7835 39.1045 78.417C39.6377 79.0505 39.9043 79.9574 39.9043 81.1377V81.6641H34.8936C34.9118 82.3932 35.1237 82.9834 35.5293 83.4346C35.9395 83.8812 36.459 84.1045 37.0879 84.1045C37.5345 84.1045 37.9128 84.0133 38.2227 83.8311C38.5326 83.6488 38.8037 83.4072 39.0361 83.1064L39.8086 83.708C39.1888 84.6605 38.2591 85.1367 37.0195 85.1367ZM36.8623 78.5059C36.3519 78.5059 35.9235 78.6927 35.5771 79.0664C35.2308 79.4355 35.0166 79.9551 34.9346 80.625H38.6396V80.5293C38.6032 79.8867 38.43 79.39 38.1201 79.0391C37.8102 78.6836 37.391 78.5059 36.8623 78.5059ZM41.3125 83.9678L41.75 83.4277C42.2422 82.7897 42.5225 81.8327 42.5908 80.5566L42.707 77.6035H47.4717V83.9678H48.4219V87.1738H47.1572V85H41.9961V87.1738H40.7314L40.7383 83.9678H41.3125ZM42.8096 83.9678H46.207V78.7725H43.9307L43.8555 80.5361C43.778 82.0081 43.4294 83.152 42.8096 83.9678ZM55.7227 81.7871H54.834V85H53.5693V81.7871H52.6807L50.6094 85H49.0098L51.6553 81.1719L49.2627 77.6035H50.7939L52.7012 80.666H53.5693V77.6035H54.834V80.666H55.6953L57.6162 77.6035H59.1475L56.748 81.1787L59.3936 85H57.7939L55.7227 81.7871ZM63.4746 85.1367C62.472 85.1367 61.6562 84.8086 61.0273 84.1523C60.3984 83.4915 60.084 82.6097 60.084 81.5068V81.2744C60.084 80.5407 60.223 79.8867 60.501 79.3125C60.7835 78.7337 61.1755 78.2826 61.6768 77.959C62.1826 77.6309 62.7295 77.4668 63.3174 77.4668C64.279 77.4668 65.0264 77.7835 65.5596 78.417C66.0928 79.0505 66.3594 79.9574 66.3594 81.1377V81.6641H61.3486C61.3669 82.3932 61.5788 82.9834 61.9844 83.4346C62.3945 83.8812 62.9141 84.1045 63.543 84.1045C63.9896 84.1045 64.3678 84.0133 64.6777 83.8311C64.9876 83.6488 65.2588 83.4072 65.4912 83.1064L66.2637 83.708C65.6439 84.6605 64.7142 85.1367 63.4746 85.1367ZM63.3174 78.5059C62.807 78.5059 62.3786 78.6927 62.0322 79.0664C61.6859 79.4355 61.4717 79.9551 61.3896 80.625H65.0947V80.5293C65.0583 79.8867 64.8851 79.39 64.5752 79.0391C64.2653 78.6836 63.846 78.5059 63.3174 78.5059ZM74.0771 81.3838C74.0771 82.5094 73.8197 83.4163 73.3047 84.1045C72.7897 84.7926 72.0924 85.1367 71.2129 85.1367C70.3151 85.1367 69.6087 84.8519 69.0938 84.2822V87.8438H67.8291V77.6035H68.9844L69.0459 78.4238C69.5609 77.7858 70.2764 77.4668 71.1924 77.4668C72.0811 77.4668 72.7829 77.8018 73.2979 78.4717C73.8174 79.1416 74.0771 80.0736 74.0771 81.2676V81.3838ZM72.8125 81.2402C72.8125 80.4062 72.6348 79.7477 72.2793 79.2646C71.9238 78.7816 71.4362 78.54 70.8164 78.54C70.0508 78.54 69.4766 78.8796 69.0938 79.5586V83.0928C69.472 83.7673 70.0508 84.1045 70.8301 84.1045C71.4362 84.1045 71.917 83.8652 72.2725 83.3867C72.6325 82.9036 72.8125 82.1882 72.8125 81.2402Z" fill="black"/>
<circle opacity="0.2" cx="40" cy="180" r="30" fill="#43BAD6"/>
<circle cx="40" cy="180" r="10" fill="#BEBEBE"/>
<path d="M17.7217 237.44H16.416V235H9.27246V237.447H7.95996L7.95312 233.927H8.7666C9.19499 233.444 9.53451 232.797 9.78516 231.985C10.0404 231.17 10.1999 230.276 10.2637 229.306L10.4824 225.047H16.4365V233.927H17.7354L17.7217 237.44ZM10.2637 233.927H15.1172V226.127H11.7471L11.6035 229.053C11.5443 230.197 11.3916 231.172 11.1455 231.979C10.904 232.785 10.61 233.435 10.2637 233.927ZM23.8809 227.604H25.1455V235H23.8809V229.606L20.4697 235H19.2051V227.604H20.4697V233.004L23.8809 227.604ZM31.2432 229.627C31.2432 229.281 31.111 229.007 30.8467 228.807C30.5824 228.602 30.2201 228.499 29.7598 228.499C29.3132 228.499 28.9395 228.615 28.6387 228.848C28.3424 229.08 28.1943 229.354 28.1943 229.668H26.9365C26.9365 229.025 27.2054 228.499 27.7432 228.089C28.2809 227.679 28.9531 227.474 29.7598 227.474C30.6257 227.474 31.3001 227.66 31.7832 228.034C32.2663 228.403 32.5078 228.932 32.5078 229.62C32.5078 229.953 32.4076 230.258 32.207 230.536C32.0065 230.814 31.7217 231.035 31.3525 231.199C32.2139 231.491 32.6445 232.065 32.6445 232.922C32.6445 233.601 32.3825 234.139 31.8584 234.535C31.3343 234.932 30.6348 235.13 29.7598 235.13C28.9076 235.13 28.2035 234.923 27.6475 234.508C27.096 234.089 26.8203 233.523 26.8203 232.812H28.0781C28.0781 233.173 28.2376 233.482 28.5566 233.742C28.8802 233.997 29.2812 234.125 29.7598 234.125C30.2428 234.125 30.6325 234.013 30.9287 233.79C31.2249 233.567 31.373 233.277 31.373 232.922C31.373 232.507 31.2477 232.211 30.9971 232.033C30.751 231.851 30.3659 231.76 29.8418 231.76H28.5771V230.693H29.9512C30.8125 230.671 31.2432 230.315 31.2432 229.627ZM38.8516 235C38.7786 234.854 38.7194 234.594 38.6738 234.221C38.0859 234.831 37.3841 235.137 36.5684 235.137C35.8392 235.137 35.2399 234.932 34.7705 234.521C34.3057 234.107 34.0732 233.583 34.0732 232.949C34.0732 232.179 34.3649 231.582 34.9482 231.158C35.5361 230.73 36.361 230.516 37.4229 230.516H38.6533V229.935C38.6533 229.493 38.5212 229.142 38.2568 228.882C37.9925 228.618 37.6029 228.485 37.0879 228.485C36.6367 228.485 36.2585 228.599 35.9531 228.827C35.6478 229.055 35.4951 229.331 35.4951 229.654H34.2236C34.2236 229.285 34.3535 228.93 34.6133 228.588C34.8776 228.242 35.2331 227.968 35.6797 227.768C36.1309 227.567 36.6253 227.467 37.1631 227.467C38.0153 227.467 38.6829 227.681 39.166 228.109C39.6491 228.533 39.8997 229.119 39.918 229.866V233.271C39.918 233.95 40.0046 234.49 40.1777 234.891V235H38.8516ZM36.7529 234.036C37.1494 234.036 37.5254 233.934 37.8809 233.729C38.2363 233.523 38.4938 233.257 38.6533 232.929V231.411H37.6621C36.1126 231.411 35.3379 231.865 35.3379 232.771C35.3379 233.168 35.4701 233.478 35.7344 233.701C35.9987 233.924 36.3382 234.036 36.7529 234.036ZM46.6855 227.604H47.9502V235H46.6855V229.606L43.2744 235H42.0098V227.604H43.2744V233.004L46.6855 227.604ZM47.0273 224.91C47.0273 225.462 46.8382 225.906 46.46 226.243C46.0863 226.576 45.5941 226.742 44.9834 226.742C44.3727 226.742 43.8783 226.574 43.5 226.236C43.1217 225.899 42.9326 225.457 42.9326 224.91H43.9648C43.9648 225.229 44.0514 225.48 44.2246 225.662C44.3978 225.84 44.6507 225.929 44.9834 225.929C45.3024 225.929 45.5508 225.84 45.7285 225.662C45.9108 225.484 46.002 225.234 46.002 224.91H47.0273ZM56.0234 235H54.7588V231.842H51.3613V235H50.0898V227.604H51.3613V230.81H54.7588V227.604H56.0234V235ZM61.1299 235.137C60.1273 235.137 59.3115 234.809 58.6826 234.152C58.0537 233.492 57.7393 232.61 57.7393 231.507V231.274C57.7393 230.541 57.8783 229.887 58.1562 229.312C58.4388 228.734 58.8307 228.283 59.332 227.959C59.8379 227.631 60.3848 227.467 60.9727 227.467C61.9342 227.467 62.6816 227.784 63.2148 228.417C63.748 229.05 64.0146 229.957 64.0146 231.138V231.664H59.0039C59.0221 232.393 59.234 232.983 59.6396 233.435C60.0498 233.881 60.5693 234.104 61.1982 234.104C61.6449 234.104 62.0231 234.013 62.333 233.831C62.6429 233.649 62.9141 233.407 63.1465 233.106L63.9189 233.708C63.2992 234.66 62.3695 235.137 61.1299 235.137ZM60.9727 228.506C60.4622 228.506 60.0339 228.693 59.6875 229.066C59.3411 229.436 59.127 229.955 59.0449 230.625H62.75V230.529C62.7135 229.887 62.5404 229.39 62.2305 229.039C61.9206 228.684 61.5013 228.506 60.9727 228.506ZM71.7324 231.384C71.7324 232.509 71.4749 233.416 70.96 234.104C70.445 234.793 69.7477 235.137 68.8682 235.137C67.9704 235.137 67.264 234.852 66.749 234.282V237.844H65.4844V227.604H66.6396L66.7012 228.424C67.2161 227.786 67.9316 227.467 68.8477 227.467C69.7363 227.467 70.4382 227.802 70.9531 228.472C71.4727 229.142 71.7324 230.074 71.7324 231.268V231.384ZM70.4678 231.24C70.4678 230.406 70.29 229.748 69.9346 229.265C69.5791 228.782 69.0915 228.54 68.4717 228.54C67.7061 228.54 67.1318 228.88 66.749 229.559V233.093C67.1273 233.767 67.7061 234.104 68.4854 234.104C69.0915 234.104 69.5723 233.865 69.9277 233.387C70.2878 232.904 70.4678 232.188 70.4678 231.24Z" fill="black"/>
</svg>
