<svg width="80" height="240" viewBox="0 0 80 240" fill="none" xmlns="http://www.w3.org/2000/svg">
<path d="M39.9999 105L39.9999 135M39.9999 105L45 109.412M39.9999 105L35 109.412M39.9999 135L45 130.588M39.9999 135L35 130.588" stroke="#BEBEBE" stroke-width="2" stroke-linecap="round"/>
<circle cx="40" cy="30" r="29.5" stroke="#CACACA"/>
<circle cx="40" cy="30" r="9.5" stroke="#43BAD6"/>
<path d="M30.6484 81.8418C30.5254 82.8945 30.1357 83.708 29.4795 84.2822C28.8278 84.8519 27.9596 85.1367 26.875 85.1367C25.6992 85.1367 24.7559 84.7152 24.0449 83.8721C23.3385 83.029 22.9854 81.901 22.9854 80.4883V79.5312C22.9854 78.6061 23.1494 77.7926 23.4775 77.0908C23.8102 76.389 24.2796 75.8512 24.8857 75.4775C25.4919 75.0993 26.1937 74.9102 26.9912 74.9102C28.0485 74.9102 28.8962 75.2064 29.5342 75.7988C30.1722 76.3867 30.5436 77.2025 30.6484 78.2461H29.3291C29.2152 77.4531 28.9668 76.8789 28.584 76.5234C28.2057 76.168 27.6748 75.9902 26.9912 75.9902C26.1527 75.9902 25.4941 76.3001 25.0156 76.9199C24.5417 77.5397 24.3047 78.4215 24.3047 79.5654V80.5293C24.3047 81.6094 24.5303 82.4684 24.9814 83.1064C25.4326 83.7445 26.0638 84.0635 26.875 84.0635C27.6042 84.0635 28.1624 83.8994 28.5498 83.5713C28.9417 83.2386 29.2015 82.6621 29.3291 81.8418H30.6484ZM33.6221 85H32.3574V74.5H33.6221V85ZM37.0264 85H35.7617V77.6035H37.0264V85ZM35.6592 75.6416C35.6592 75.4365 35.7207 75.2633 35.8438 75.1221C35.9714 74.9808 36.1582 74.9102 36.4043 74.9102C36.6504 74.9102 36.8372 74.9808 36.9648 75.1221C37.0924 75.2633 37.1562 75.4365 37.1562 75.6416C37.1562 75.8467 37.0924 76.0176 36.9648 76.1543C36.8372 76.291 36.6504 76.3594 36.4043 76.3594C36.1582 76.3594 35.9714 76.291 35.8438 76.1543C35.7207 76.0176 35.6592 75.8467 35.6592 75.6416ZM42.126 85.1367C41.1234 85.1367 40.3076 84.8086 39.6787 84.1523C39.0498 83.4915 38.7354 82.6097 38.7354 81.5068V81.2744C38.7354 80.5407 38.8743 79.8867 39.1523 79.3125C39.4349 78.7337 39.8268 78.2826 40.3281 77.959C40.834 77.6309 41.3809 77.4668 41.9688 77.4668C42.9303 77.4668 43.6777 77.7835 44.2109 78.417C44.7441 79.0505 45.0107 79.9574 45.0107 81.1377V81.6641H40C40.0182 82.3932 40.2301 82.9834 40.6357 83.4346C41.0459 83.8812 41.5654 84.1045 42.1943 84.1045C42.641 84.1045 43.0192 84.0133 43.3291 83.8311C43.639 83.6488 43.9102 83.4072 44.1426 83.1064L44.915 83.708C44.2952 84.6605 43.3656 85.1367 42.126 85.1367ZM41.9688 78.5059C41.4583 78.5059 41.0299 78.6927 40.6836 79.0664C40.3372 79.4355 40.123 79.9551 40.041 80.625H43.7461V80.5293C43.7096 79.8867 43.5365 79.39 43.2266 79.0391C42.9167 78.6836 42.4974 78.5059 41.9688 78.5059ZM47.6768 77.6035L47.7178 78.5332C48.2829 77.8223 49.0212 77.4668 49.9326 77.4668C51.4958 77.4668 52.2842 78.3486 52.2979 80.1123V85H51.0332V80.1055C51.0286 79.5723 50.9056 79.1781 50.6641 78.9229C50.4271 78.6676 50.0557 78.54 49.5498 78.54C49.1396 78.54 48.7796 78.6494 48.4697 78.8682C48.1598 79.0869 47.9183 79.374 47.7451 79.7295V85H46.4805V77.6035H47.6768ZM55.9209 75.8125V77.6035H57.3018V78.5811H55.9209V83.168C55.9209 83.4642 55.9824 83.6875 56.1055 83.8379C56.2285 83.9837 56.4382 84.0566 56.7344 84.0566C56.8802 84.0566 57.0807 84.0293 57.3359 83.9746V85C57.0033 85.0911 56.6797 85.1367 56.3652 85.1367C55.8001 85.1367 55.374 84.9658 55.0869 84.624C54.7998 84.2822 54.6562 83.7969 54.6562 83.168V78.5811H53.3096V77.6035H54.6562V75.8125H55.9209Z" fill="black"/>
<circle cx="40" cy="180" r="29.5" stroke="#CACACA"/>
<circle cx="40" cy="180" r="10" fill="#43BAD6"/>
<path d="M15.2471 225.047L18.501 233.168L21.7549 225.047H23.457V235H22.1445V231.124L22.2676 226.94L19 235H17.9951L14.7344 226.961L14.8643 231.124V235H13.5518V225.047H15.2471ZM30.1426 235C30.0697 234.854 30.0104 234.594 29.9648 234.221C29.377 234.831 28.6751 235.137 27.8594 235.137C27.1302 235.137 26.5309 234.932 26.0615 234.521C25.5967 234.107 25.3643 233.583 25.3643 232.949C25.3643 232.179 25.6559 231.582 26.2393 231.158C26.8271 230.73 27.652 230.516 28.7139 230.516H29.9443V229.935C29.9443 229.493 29.8122 229.142 29.5479 228.882C29.2835 228.618 28.8939 228.485 28.3789 228.485C27.9277 228.485 27.5495 228.599 27.2441 228.827C26.9388 229.055 26.7861 229.331 26.7861 229.654H25.5146C25.5146 229.285 25.6445 228.93 25.9043 228.588C26.1686 228.242 26.5241 227.968 26.9707 227.768C27.4219 227.567 27.9163 227.467 28.4541 227.467C29.3063 227.467 29.974 227.681 30.457 228.109C30.9401 228.533 31.1908 229.119 31.209 229.866V233.271C31.209 233.95 31.2956 234.49 31.4688 234.891V235H30.1426ZM28.0439 234.036C28.4404 234.036 28.8164 233.934 29.1719 233.729C29.5273 233.523 29.7848 233.257 29.9443 232.929V231.411H28.9531C27.4036 231.411 26.6289 231.865 26.6289 232.771C26.6289 233.168 26.7611 233.478 27.0254 233.701C27.2897 233.924 27.6292 234.036 28.0439 234.036ZM34.3877 227.604L34.4287 228.533C34.9938 227.822 35.7321 227.467 36.6436 227.467C38.2067 227.467 38.9951 228.349 39.0088 230.112V235H37.7441V230.105C37.7396 229.572 37.6165 229.178 37.375 228.923C37.138 228.668 36.7666 228.54 36.2607 228.54C35.8506 228.54 35.4906 228.649 35.1807 228.868C34.8708 229.087 34.6292 229.374 34.4561 229.729V235H33.1914V227.604H34.3877ZM45.4824 235C45.4095 234.854 45.3503 234.594 45.3047 234.221C44.7168 234.831 44.015 235.137 43.1992 235.137C42.4701 235.137 41.8708 234.932 41.4014 234.521C40.9365 234.107 40.7041 233.583 40.7041 232.949C40.7041 232.179 40.9958 231.582 41.5791 231.158C42.167 230.73 42.9919 230.516 44.0537 230.516H45.2842V229.935C45.2842 229.493 45.152 229.142 44.8877 228.882C44.6234 228.618 44.2337 228.485 43.7188 228.485C43.2676 228.485 42.8893 228.599 42.584 228.827C42.2786 229.055 42.126 229.331 42.126 229.654H40.8545C40.8545 229.285 40.9844 228.93 41.2441 228.588C41.5085 228.242 41.8639 227.968 42.3105 227.768C42.7617 227.567 43.2562 227.467 43.7939 227.467C44.6462 227.467 45.3138 227.681 45.7969 228.109C46.2799 228.533 46.5306 229.119 46.5488 229.866V233.271C46.5488 233.95 46.6354 234.49 46.8086 234.891V235H45.4824ZM43.3838 234.036C43.7803 234.036 44.1562 233.934 44.5117 233.729C44.8672 233.523 45.1247 233.257 45.2842 232.929V231.411H44.293C42.7435 231.411 41.9688 231.865 41.9688 232.771C41.9688 233.168 42.1009 233.478 42.3652 233.701C42.6296 233.924 42.9691 234.036 43.3838 234.036ZM48.2305 231.24C48.2305 230.087 48.4971 229.171 49.0303 228.492C49.5635 227.809 50.2699 227.467 51.1494 227.467C52.0518 227.467 52.7559 227.786 53.2617 228.424L53.3232 227.604H54.4785V234.822C54.4785 235.779 54.1937 236.534 53.624 237.085C53.0589 237.636 52.2979 237.912 51.3408 237.912C50.8076 237.912 50.2858 237.798 49.7754 237.57C49.265 237.342 48.8753 237.03 48.6064 236.634L49.2627 235.875C49.805 236.545 50.4681 236.88 51.252 236.88C51.8672 236.88 52.3457 236.707 52.6875 236.36C53.0339 236.014 53.207 235.526 53.207 234.897V234.262C52.7012 234.845 52.0107 235.137 51.1357 235.137C50.2699 235.137 49.568 234.788 49.0303 234.091C48.4971 233.394 48.2305 232.443 48.2305 231.24ZM49.502 231.384C49.502 232.218 49.6729 232.874 50.0146 233.353C50.3564 233.826 50.835 234.063 51.4502 234.063C52.2477 234.063 52.8333 233.701 53.207 232.977V229.6C52.8197 228.893 52.2386 228.54 51.4639 228.54C50.8486 228.54 50.3678 228.779 50.0215 229.258C49.6751 229.736 49.502 230.445 49.502 231.384ZM59.4619 235.137C58.4593 235.137 57.6436 234.809 57.0146 234.152C56.3857 233.492 56.0713 232.61 56.0713 231.507V231.274C56.0713 230.541 56.2103 229.887 56.4883 229.312C56.7708 228.734 57.1628 228.283 57.6641 227.959C58.1699 227.631 58.7168 227.467 59.3047 227.467C60.2663 227.467 61.0137 227.784 61.5469 228.417C62.0801 229.05 62.3467 229.957 62.3467 231.138V231.664H57.3359C57.3542 232.393 57.5661 232.983 57.9717 233.435C58.3818 233.881 58.9014 234.104 59.5303 234.104C59.9769 234.104 60.3551 234.013 60.665 233.831C60.9749 233.649 61.2461 233.407 61.4785 233.106L62.251 233.708C61.6312 234.66 60.7015 235.137 59.4619 235.137ZM59.3047 228.506C58.7943 228.506 58.3659 228.693 58.0195 229.066C57.6732 229.436 57.459 229.955 57.377 230.625H61.082V230.529C61.0456 229.887 60.8724 229.39 60.5625 229.039C60.2526 228.684 59.8333 228.506 59.3047 228.506ZM67.3916 228.738C67.2002 228.706 66.9928 228.69 66.7695 228.69C65.9401 228.69 65.3773 229.044 65.0811 229.75V235H63.8164V227.604H65.0469L65.0674 228.458C65.4821 227.797 66.07 227.467 66.8311 227.467C67.0771 227.467 67.264 227.499 67.3916 227.562V228.738Z" fill="black"/>
</svg>
