<svg width="80" height="240" viewBox="0 0 80 240" fill="none" xmlns="http://www.w3.org/2000/svg">
<path d="M39.9999 105L39.9999 135M39.9999 105L45 109.412M39.9999 105L35 109.412M39.9999 135L45 130.588M39.9999 135L35 130.588" stroke="#BEBEBE" stroke-width="2" stroke-linecap="round"/>
<circle cx="40" cy="30" r="29.5" stroke="#CACACA"/>
<circle cx="40" cy="30" r="9.5" stroke="#43BAD6"/>
<path d="M20.0391 80.5293H18.8291V85H17.5166V75.0469H18.8291V79.4355H19.8545L23.334 75.0469H24.9678L21.167 79.873L25.248 85H23.6416L20.0391 80.5293ZM32.3164 77.6035V85H31.0449V78.6494H28.5293L28.3789 81.418C28.2969 82.6895 28.0827 83.5986 27.7363 84.1455C27.3945 84.6924 26.8499 84.9772 26.1025 85H25.5967V83.8857L25.959 83.8584C26.3691 83.8128 26.6631 83.5758 26.8408 83.1475C27.0186 82.7191 27.1325 81.9261 27.1826 80.7686L27.3193 77.6035H32.3164ZM39.1318 77.6035H40.3965V85H39.1318V79.6064L35.7207 85H34.4561V77.6035H35.7207V83.0039L39.1318 77.6035ZM45.4961 85.1367C44.4935 85.1367 43.6777 84.8086 43.0488 84.1523C42.4199 83.4915 42.1055 82.6097 42.1055 81.5068V81.2744C42.1055 80.5407 42.2445 79.8867 42.5225 79.3125C42.805 78.7337 43.1969 78.2826 43.6982 77.959C44.2041 77.6309 44.751 77.4668 45.3389 77.4668C46.3005 77.4668 47.0479 77.7835 47.5811 78.417C48.1143 79.0505 48.3809 79.9574 48.3809 81.1377V81.6641H43.3701C43.3883 82.3932 43.6003 82.9834 44.0059 83.4346C44.416 83.8812 44.9355 84.1045 45.5645 84.1045C46.0111 84.1045 46.3893 84.0133 46.6992 83.8311C47.0091 83.6488 47.2803 83.4072 47.5127 83.1064L48.2852 83.708C47.6654 84.6605 46.7357 85.1367 45.4961 85.1367ZM45.3389 78.5059C44.8285 78.5059 44.4001 78.6927 44.0537 79.0664C43.7074 79.4355 43.4932 79.9551 43.4111 80.625H47.1162V80.5293C47.0798 79.8867 46.9066 79.39 46.5967 79.0391C46.2868 78.6836 45.8675 78.5059 45.3389 78.5059ZM55.8936 85H54.6289V81.8418H51.2314V85H49.96V77.6035H51.2314V80.8096H54.6289V77.6035H55.8936V85ZM63.4268 78.6289H60.9453V85H59.6807V78.6289H57.2471V77.6035H63.4268V78.6289Z" fill="black"/>
<circle cx="40" cy="180" r="29.5" stroke="#CACACA"/>
<circle cx="40" cy="180" r="10" fill="#43BAD6"/>
<path d="M8.11719 225.047L11.3711 233.168L14.625 225.047H16.3271V235H15.0146V231.124L15.1377 226.94L11.8701 235H10.8652L7.60449 226.961L7.73438 231.124V235H6.42188V225.047H8.11719ZM21.5156 235.137C20.513 235.137 19.6973 234.809 19.0684 234.152C18.4395 233.492 18.125 232.61 18.125 231.507V231.274C18.125 230.541 18.264 229.887 18.542 229.312C18.8245 228.734 19.2165 228.283 19.7178 227.959C20.2236 227.631 20.7705 227.467 21.3584 227.467C22.32 227.467 23.0674 227.784 23.6006 228.417C24.1338 229.05 24.4004 229.957 24.4004 231.138V231.664H19.3896C19.4079 232.393 19.6198 232.983 20.0254 233.435C20.4355 233.881 20.9551 234.104 21.584 234.104C22.0306 234.104 22.4089 234.013 22.7188 233.831C23.0286 233.649 23.2998 233.407 23.5322 233.106L24.3047 233.708C23.6849 234.66 22.7552 235.137 21.5156 235.137ZM21.3584 228.506C20.848 228.506 20.4196 228.693 20.0732 229.066C19.7269 229.436 19.5127 229.955 19.4307 230.625H23.1357V230.529C23.0993 229.887 22.9261 229.39 22.6162 229.039C22.3063 228.684 21.887 228.506 21.3584 228.506ZM31.9131 235H30.6484V231.842H27.251V235H25.9795V227.604H27.251V230.81H30.6484V227.604H31.9131V235ZM37.0195 235.137C36.0169 235.137 35.2012 234.809 34.5723 234.152C33.9434 233.492 33.6289 232.61 33.6289 231.507V231.274C33.6289 230.541 33.7679 229.887 34.0459 229.312C34.3285 228.734 34.7204 228.283 35.2217 227.959C35.7275 227.631 36.2744 227.467 36.8623 227.467C37.8239 227.467 38.5713 227.784 39.1045 228.417C39.6377 229.05 39.9043 229.957 39.9043 231.138V231.664H34.8936C34.9118 232.393 35.1237 232.983 35.5293 233.435C35.9395 233.881 36.459 234.104 37.0879 234.104C37.5345 234.104 37.9128 234.013 38.2227 233.831C38.5326 233.649 38.8037 233.407 39.0361 233.106L39.8086 233.708C39.1888 234.66 38.2591 235.137 37.0195 235.137ZM36.8623 228.506C36.3519 228.506 35.9235 228.693 35.5771 229.066C35.2308 229.436 35.0166 229.955 34.9346 230.625H38.6396V230.529C38.6032 229.887 38.43 229.39 38.1201 229.039C37.8102 228.684 37.391 228.506 36.8623 228.506ZM41.3125 233.968L41.75 233.428C42.2422 232.79 42.5225 231.833 42.5908 230.557L42.707 227.604H47.4717V233.968H48.4219V237.174H47.1572V235H41.9961V237.174H40.7314L40.7383 233.968H41.3125ZM42.8096 233.968H46.207V228.772H43.9307L43.8555 230.536C43.778 232.008 43.4294 233.152 42.8096 233.968ZM55.7227 231.787H54.834V235H53.5693V231.787H52.6807L50.6094 235H49.0098L51.6553 231.172L49.2627 227.604H50.7939L52.7012 230.666H53.5693V227.604H54.834V230.666H55.6953L57.6162 227.604H59.1475L56.748 231.179L59.3936 235H57.7939L55.7227 231.787ZM63.4746 235.137C62.472 235.137 61.6562 234.809 61.0273 234.152C60.3984 233.492 60.084 232.61 60.084 231.507V231.274C60.084 230.541 60.223 229.887 60.501 229.312C60.7835 228.734 61.1755 228.283 61.6768 227.959C62.1826 227.631 62.7295 227.467 63.3174 227.467C64.279 227.467 65.0264 227.784 65.5596 228.417C66.0928 229.05 66.3594 229.957 66.3594 231.138V231.664H61.3486C61.3669 232.393 61.5788 232.983 61.9844 233.435C62.3945 233.881 62.9141 234.104 63.543 234.104C63.9896 234.104 64.3678 234.013 64.6777 233.831C64.9876 233.649 65.2588 233.407 65.4912 233.106L66.2637 233.708C65.6439 234.66 64.7142 235.137 63.4746 235.137ZM63.3174 228.506C62.807 228.506 62.3786 228.693 62.0322 229.066C61.6859 229.436 61.4717 229.955 61.3896 230.625H65.0947V230.529C65.0583 229.887 64.8851 229.39 64.5752 229.039C64.2653 228.684 63.846 228.506 63.3174 228.506ZM74.0771 231.384C74.0771 232.509 73.8197 233.416 73.3047 234.104C72.7897 234.793 72.0924 235.137 71.2129 235.137C70.3151 235.137 69.6087 234.852 69.0938 234.282V237.844H67.8291V227.604H68.9844L69.0459 228.424C69.5609 227.786 70.2764 227.467 71.1924 227.467C72.0811 227.467 72.7829 227.802 73.2979 228.472C73.8174 229.142 74.0771 230.074 74.0771 231.268V231.384ZM72.8125 231.24C72.8125 230.406 72.6348 229.748 72.2793 229.265C71.9238 228.782 71.4362 228.54 70.8164 228.54C70.0508 228.54 69.4766 228.88 69.0938 229.559V233.093C69.472 233.767 70.0508 234.104 70.8301 234.104C71.4362 234.104 71.917 233.865 72.2725 233.387C72.6325 232.904 72.8125 232.188 72.8125 231.24Z" fill="black"/>
</svg>
