<svg width="360" height="151" viewBox="0 0 360 151" fill="none" xmlns="http://www.w3.org/2000/svg">
<path d="M95 91.0001H125M125 91.0001L120.588 86M125 91.0001L120.588 96" stroke="#BEBEBE" stroke-width="2" stroke-linecap="round"/>
<path d="M167 51C167 51 150.413 26 107 26C61.725 26 47 51 47 51" stroke="#BEBEBE" stroke-width="2" stroke-linecap="round" stroke-dasharray="0.5 4"/>
<circle cx="320" cy="91" r="29.5" stroke="#CACACA"/>
<circle cx="320" cy="91" r="9.5" stroke="#43BAD6"/>
<path d="M300.039 141.529H298.829V146H297.517V136.047H298.829V140.436H299.854L303.334 136.047H304.968L301.167 140.873L305.248 146H303.642L300.039 141.529ZM312.316 138.604V146H311.045V139.649H308.529L308.379 142.418C308.297 143.689 308.083 144.599 307.736 145.146C307.395 145.692 306.85 145.977 306.103 146H305.597V144.886L305.959 144.858C306.369 144.813 306.663 144.576 306.841 144.147C307.019 143.719 307.132 142.926 307.183 141.769L307.319 138.604H312.316ZM319.132 138.604H320.396V146H319.132V140.606L315.721 146H314.456V138.604H315.721V144.004L319.132 138.604ZM325.496 146.137C324.493 146.137 323.678 145.809 323.049 145.152C322.42 144.492 322.105 143.61 322.105 142.507V142.274C322.105 141.541 322.244 140.887 322.522 140.312C322.805 139.734 323.197 139.283 323.698 138.959C324.204 138.631 324.751 138.467 325.339 138.467C326.3 138.467 327.048 138.784 327.581 139.417C328.114 140.05 328.381 140.957 328.381 142.138V142.664H323.37C323.388 143.393 323.6 143.983 324.006 144.435C324.416 144.881 324.936 145.104 325.564 145.104C326.011 145.104 326.389 145.013 326.699 144.831C327.009 144.649 327.28 144.407 327.513 144.106L328.285 144.708C327.665 145.66 326.736 146.137 325.496 146.137ZM325.339 139.506C324.828 139.506 324.4 139.693 324.054 140.066C323.707 140.436 323.493 140.955 323.411 141.625H327.116V141.529C327.08 140.887 326.907 140.39 326.597 140.039C326.287 139.684 325.868 139.506 325.339 139.506ZM335.894 146H334.629V142.842H331.231V146H329.96V138.604H331.231V141.81H334.629V138.604H335.894V146ZM343.427 139.629H340.945V146H339.681V139.629H337.247V138.604H343.427V139.629Z" fill="black"/>
<circle cx="40" cy="91" r="29.5" stroke="#CACACA"/>
<circle cx="40" cy="91" r="10" fill="#43BAD6"/>
<path d="M8.11719 136.047L11.3711 144.168L14.625 136.047H16.3271V146H15.0146V142.124L15.1377 137.94L11.8701 146H10.8652L7.60449 137.961L7.73438 142.124V146H6.42188V136.047H8.11719ZM21.5156 146.137C20.513 146.137 19.6973 145.809 19.0684 145.152C18.4395 144.492 18.125 143.61 18.125 142.507V142.274C18.125 141.541 18.264 140.887 18.542 140.312C18.8245 139.734 19.2165 139.283 19.7178 138.959C20.2236 138.631 20.7705 138.467 21.3584 138.467C22.32 138.467 23.0674 138.784 23.6006 139.417C24.1338 140.05 24.4004 140.957 24.4004 142.138V142.664H19.3896C19.4079 143.393 19.6198 143.983 20.0254 144.435C20.4355 144.881 20.9551 145.104 21.584 145.104C22.0306 145.104 22.4089 145.013 22.7188 144.831C23.0286 144.649 23.2998 144.407 23.5322 144.106L24.3047 144.708C23.6849 145.66 22.7552 146.137 21.5156 146.137ZM21.3584 139.506C20.848 139.506 20.4196 139.693 20.0732 140.066C19.7269 140.436 19.5127 140.955 19.4307 141.625H23.1357V141.529C23.0993 140.887 22.9261 140.39 22.6162 140.039C22.3063 139.684 21.887 139.506 21.3584 139.506ZM31.9131 146H30.6484V142.842H27.251V146H25.9795V138.604H27.251V141.81H30.6484V138.604H31.9131V146ZM37.0195 146.137C36.0169 146.137 35.2012 145.809 34.5723 145.152C33.9434 144.492 33.6289 143.61 33.6289 142.507V142.274C33.6289 141.541 33.7679 140.887 34.0459 140.312C34.3285 139.734 34.7204 139.283 35.2217 138.959C35.7275 138.631 36.2744 138.467 36.8623 138.467C37.8239 138.467 38.5713 138.784 39.1045 139.417C39.6377 140.05 39.9043 140.957 39.9043 142.138V142.664H34.8936C34.9118 143.393 35.1237 143.983 35.5293 144.435C35.9395 144.881 36.459 145.104 37.0879 145.104C37.5345 145.104 37.9128 145.013 38.2227 144.831C38.5326 144.649 38.8037 144.407 39.0361 144.106L39.8086 144.708C39.1888 145.66 38.2591 146.137 37.0195 146.137ZM36.8623 139.506C36.3519 139.506 35.9235 139.693 35.5771 140.066C35.2308 140.436 35.0166 140.955 34.9346 141.625H38.6396V141.529C38.6032 140.887 38.43 140.39 38.1201 140.039C37.8102 139.684 37.391 139.506 36.8623 139.506ZM41.3125 144.968L41.75 144.428C42.2422 143.79 42.5225 142.833 42.5908 141.557L42.707 138.604H47.4717V144.968H48.4219V148.174H47.1572V146H41.9961V148.174H40.7314L40.7383 144.968H41.3125ZM42.8096 144.968H46.207V139.772H43.9307L43.8555 141.536C43.778 143.008 43.4294 144.152 42.8096 144.968ZM55.7227 142.787H54.834V146H53.5693V142.787H52.6807L50.6094 146H49.0098L51.6553 142.172L49.2627 138.604H50.7939L52.7012 141.666H53.5693V138.604H54.834V141.666H55.6953L57.6162 138.604H59.1475L56.748 142.179L59.3936 146H57.7939L55.7227 142.787ZM63.4746 146.137C62.472 146.137 61.6562 145.809 61.0273 145.152C60.3984 144.492 60.084 143.61 60.084 142.507V142.274C60.084 141.541 60.223 140.887 60.501 140.312C60.7835 139.734 61.1755 139.283 61.6768 138.959C62.1826 138.631 62.7295 138.467 63.3174 138.467C64.279 138.467 65.0264 138.784 65.5596 139.417C66.0928 140.05 66.3594 140.957 66.3594 142.138V142.664H61.3486C61.3669 143.393 61.5788 143.983 61.9844 144.435C62.3945 144.881 62.9141 145.104 63.543 145.104C63.9896 145.104 64.3678 145.013 64.6777 144.831C64.9876 144.649 65.2588 144.407 65.4912 144.106L66.2637 144.708C65.6439 145.66 64.7142 146.137 63.4746 146.137ZM63.3174 139.506C62.807 139.506 62.3786 139.693 62.0322 140.066C61.6859 140.436 61.4717 140.955 61.3896 141.625H65.0947V141.529C65.0583 140.887 64.8851 140.39 64.5752 140.039C64.2653 139.684 63.846 139.506 63.3174 139.506ZM74.0771 142.384C74.0771 143.509 73.8197 144.416 73.3047 145.104C72.7897 145.793 72.0924 146.137 71.2129 146.137C70.3151 146.137 69.6087 145.852 69.0938 145.282V148.844H67.8291V138.604H68.9844L69.0459 139.424C69.5609 138.786 70.2764 138.467 71.1924 138.467C72.0811 138.467 72.7829 138.802 73.2979 139.472C73.8174 140.142 74.0771 141.074 74.0771 142.268V142.384ZM72.8125 142.24C72.8125 141.406 72.6348 140.748 72.2793 140.265C71.9238 139.782 71.4362 139.54 70.8164 139.54C70.0508 139.54 69.4766 139.88 69.0938 140.559V144.093C69.472 144.767 70.0508 145.104 70.8301 145.104C71.4362 145.104 71.917 144.865 72.2725 144.387C72.6325 143.904 72.8125 143.188 72.8125 142.24Z" fill="black"/>
<path d="M47 51C47 51 84.5632 1 180.462 1C280.473 1 313 51 313 51" stroke="#BEBEBE" stroke-width="2" stroke-linecap="round" stroke-dasharray="0.5 4"/>
<path d="M53 51L47 51L47 45" stroke="#BEBEBE" stroke-width="2" stroke-linecap="round"/>
<path d="M313 45V51H307" stroke="#BEBEBE" stroke-width="2" stroke-linecap="round"/>
<circle opacity="0.2" cx="180" cy="91" r="30" fill="#43BAD6"/>
<circle cx="180" cy="91" r="10" fill="#BEBEBE"/>
<path d="M157.722 148.44H156.416V146H149.272V148.447H147.96L147.953 144.927H148.767C149.195 144.444 149.535 143.797 149.785 142.985C150.04 142.17 150.2 141.276 150.264 140.306L150.482 136.047H156.437V144.927H157.735L157.722 148.44ZM150.264 144.927H155.117V137.127H151.747L151.604 140.053C151.544 141.197 151.392 142.172 151.146 142.979C150.904 143.785 150.61 144.435 150.264 144.927ZM163.881 138.604H165.146V146H163.881V140.606L160.47 146H159.205V138.604H160.47V144.004L163.881 138.604ZM171.243 140.627C171.243 140.281 171.111 140.007 170.847 139.807C170.582 139.602 170.22 139.499 169.76 139.499C169.313 139.499 168.939 139.615 168.639 139.848C168.342 140.08 168.194 140.354 168.194 140.668H166.937C166.937 140.025 167.205 139.499 167.743 139.089C168.281 138.679 168.953 138.474 169.76 138.474C170.626 138.474 171.3 138.66 171.783 139.034C172.266 139.403 172.508 139.932 172.508 140.62C172.508 140.953 172.408 141.258 172.207 141.536C172.007 141.814 171.722 142.035 171.353 142.199C172.214 142.491 172.645 143.065 172.645 143.922C172.645 144.601 172.382 145.139 171.858 145.535C171.334 145.932 170.635 146.13 169.76 146.13C168.908 146.13 168.203 145.923 167.647 145.508C167.096 145.089 166.82 144.523 166.82 143.812H168.078C168.078 144.173 168.238 144.482 168.557 144.742C168.88 144.997 169.281 145.125 169.76 145.125C170.243 145.125 170.632 145.013 170.929 144.79C171.225 144.567 171.373 144.277 171.373 143.922C171.373 143.507 171.248 143.211 170.997 143.033C170.751 142.851 170.366 142.76 169.842 142.76H168.577V141.693H169.951C170.812 141.671 171.243 141.315 171.243 140.627ZM178.852 146C178.779 145.854 178.719 145.594 178.674 145.221C178.086 145.831 177.384 146.137 176.568 146.137C175.839 146.137 175.24 145.932 174.771 145.521C174.306 145.107 174.073 144.583 174.073 143.949C174.073 143.179 174.365 142.582 174.948 142.158C175.536 141.73 176.361 141.516 177.423 141.516H178.653V140.935C178.653 140.493 178.521 140.142 178.257 139.882C177.993 139.618 177.603 139.485 177.088 139.485C176.637 139.485 176.258 139.599 175.953 139.827C175.648 140.055 175.495 140.331 175.495 140.654H174.224C174.224 140.285 174.354 139.93 174.613 139.588C174.878 139.242 175.233 138.968 175.68 138.768C176.131 138.567 176.625 138.467 177.163 138.467C178.015 138.467 178.683 138.681 179.166 139.109C179.649 139.533 179.9 140.119 179.918 140.866V144.271C179.918 144.95 180.005 145.49 180.178 145.891V146H178.852ZM176.753 145.036C177.149 145.036 177.525 144.934 177.881 144.729C178.236 144.523 178.494 144.257 178.653 143.929V142.411H177.662C176.113 142.411 175.338 142.865 175.338 143.771C175.338 144.168 175.47 144.478 175.734 144.701C175.999 144.924 176.338 145.036 176.753 145.036ZM186.686 138.604H187.95V146H186.686V140.606L183.274 146H182.01V138.604H183.274V144.004L186.686 138.604ZM187.027 135.91C187.027 136.462 186.838 136.906 186.46 137.243C186.086 137.576 185.594 137.742 184.983 137.742C184.373 137.742 183.878 137.574 183.5 137.236C183.122 136.899 182.933 136.457 182.933 135.91H183.965C183.965 136.229 184.051 136.48 184.225 136.662C184.398 136.84 184.651 136.929 184.983 136.929C185.302 136.929 185.551 136.84 185.729 136.662C185.911 136.484 186.002 136.234 186.002 135.91H187.027ZM196.023 146H194.759V142.842H191.361V146H190.09V138.604H191.361V141.81H194.759V138.604H196.023V146ZM201.13 146.137C200.127 146.137 199.312 145.809 198.683 145.152C198.054 144.492 197.739 143.61 197.739 142.507V142.274C197.739 141.541 197.878 140.887 198.156 140.312C198.439 139.734 198.831 139.283 199.332 138.959C199.838 138.631 200.385 138.467 200.973 138.467C201.934 138.467 202.682 138.784 203.215 139.417C203.748 140.05 204.015 140.957 204.015 142.138V142.664H199.004C199.022 143.393 199.234 143.983 199.64 144.435C200.05 144.881 200.569 145.104 201.198 145.104C201.645 145.104 202.023 145.013 202.333 144.831C202.643 144.649 202.914 144.407 203.146 144.106L203.919 144.708C203.299 145.66 202.369 146.137 201.13 146.137ZM200.973 139.506C200.462 139.506 200.034 139.693 199.688 140.066C199.341 140.436 199.127 140.955 199.045 141.625H202.75V141.529C202.714 140.887 202.54 140.39 202.23 140.039C201.921 139.684 201.501 139.506 200.973 139.506ZM211.732 142.384C211.732 143.509 211.475 144.416 210.96 145.104C210.445 145.793 209.748 146.137 208.868 146.137C207.97 146.137 207.264 145.852 206.749 145.282V148.844H205.484V138.604H206.64L206.701 139.424C207.216 138.786 207.932 138.467 208.848 138.467C209.736 138.467 210.438 138.802 210.953 139.472C211.473 140.142 211.732 141.074 211.732 142.268V142.384ZM210.468 142.24C210.468 141.406 210.29 140.748 209.935 140.265C209.579 139.782 209.091 139.54 208.472 139.54C207.706 139.54 207.132 139.88 206.749 140.559V144.093C207.127 144.767 207.706 145.104 208.485 145.104C209.091 145.104 209.572 144.865 209.928 144.387C210.288 143.904 210.468 143.188 210.468 142.24Z" fill="black"/>
</svg>
