<svg width="131" height="690" viewBox="0 0 131 690" fill="none" xmlns="http://www.w3.org/2000/svg">
<circle cx="40" cy="630" r="29.5" stroke="#CACACA"/>
<circle cx="40" cy="630" r="9.5" stroke="#43BAD6"/>
<path d="M20.0391 680.529H18.8291V685H17.5166V675.047H18.8291V679.436H19.8545L23.334 675.047H24.9678L21.167 679.873L25.248 685H23.6416L20.0391 680.529ZM32.3164 677.604V685H31.0449V678.649H28.5293L28.3789 681.418C28.2969 682.689 28.0827 683.599 27.7363 684.146C27.3945 684.692 26.8499 684.977 26.1025 685H25.5967V683.886L25.959 683.858C26.3691 683.813 26.6631 683.576 26.8408 683.147C27.0186 682.719 27.1325 681.926 27.1826 680.769L27.3193 677.604H32.3164ZM39.1318 677.604H40.3965V685H39.1318V679.606L35.7207 685H34.4561V677.604H35.7207V683.004L39.1318 677.604ZM45.4961 685.137C44.4935 685.137 43.6777 684.809 43.0488 684.152C42.4199 683.492 42.1055 682.61 42.1055 681.507V681.274C42.1055 680.541 42.2445 679.887 42.5225 679.312C42.805 678.734 43.1969 678.283 43.6982 677.959C44.2041 677.631 44.751 677.467 45.3389 677.467C46.3005 677.467 47.0479 677.784 47.5811 678.417C48.1143 679.05 48.3809 679.957 48.3809 681.138V681.664H43.3701C43.3883 682.393 43.6003 682.983 44.0059 683.435C44.416 683.881 44.9355 684.104 45.5645 684.104C46.0111 684.104 46.3893 684.013 46.6992 683.831C47.0091 683.649 47.2803 683.407 47.5127 683.106L48.2852 683.708C47.6654 684.66 46.7357 685.137 45.4961 685.137ZM45.3389 678.506C44.8285 678.506 44.4001 678.693 44.0537 679.066C43.7074 679.436 43.4932 679.955 43.4111 680.625H47.1162V680.529C47.0798 679.887 46.9066 679.39 46.5967 679.039C46.2868 678.684 45.8675 678.506 45.3389 678.506ZM55.8936 685H54.6289V681.842H51.2314V685H49.96V677.604H51.2314V680.81H54.6289V677.604H55.8936V685ZM63.4268 678.629H60.9453V685H59.6807V678.629H57.2471V677.604H63.4268V678.629Z" fill="black"/>
<path d="M17.7217 237.44H16.416V235H9.27246V237.447H7.95996L7.95312 233.927H8.7666C9.19499 233.444 9.53451 232.797 9.78516 231.985C10.0404 231.17 10.1999 230.276 10.2637 229.306L10.4824 225.047H16.4365V233.927H17.7354L17.7217 237.44ZM10.2637 233.927H15.1172V226.127H11.7471L11.6035 229.053C11.5443 230.197 11.3916 231.172 11.1455 231.979C10.904 232.785 10.61 233.435 10.2637 233.927ZM23.8809 227.604H25.1455V235H23.8809V229.606L20.4697 235H19.2051V227.604H20.4697V233.004L23.8809 227.604ZM31.2432 229.627C31.2432 229.281 31.111 229.007 30.8467 228.807C30.5824 228.602 30.2201 228.499 29.7598 228.499C29.3132 228.499 28.9395 228.615 28.6387 228.848C28.3424 229.08 28.1943 229.354 28.1943 229.668H26.9365C26.9365 229.025 27.2054 228.499 27.7432 228.089C28.2809 227.679 28.9531 227.474 29.7598 227.474C30.6257 227.474 31.3001 227.66 31.7832 228.034C32.2663 228.403 32.5078 228.932 32.5078 229.62C32.5078 229.953 32.4076 230.258 32.207 230.536C32.0065 230.814 31.7217 231.035 31.3525 231.199C32.2139 231.491 32.6445 232.065 32.6445 232.922C32.6445 233.601 32.3825 234.139 31.8584 234.535C31.3343 234.932 30.6348 235.13 29.7598 235.13C28.9076 235.13 28.2035 234.923 27.6475 234.508C27.096 234.089 26.8203 233.523 26.8203 232.812H28.0781C28.0781 233.173 28.2376 233.482 28.5566 233.742C28.8802 233.997 29.2812 234.125 29.7598 234.125C30.2428 234.125 30.6325 234.013 30.9287 233.79C31.2249 233.567 31.373 233.277 31.373 232.922C31.373 232.507 31.2477 232.211 30.9971 232.033C30.751 231.851 30.3659 231.76 29.8418 231.76H28.5771V230.693H29.9512C30.8125 230.671 31.2432 230.315 31.2432 229.627ZM38.8516 235C38.7786 234.854 38.7194 234.594 38.6738 234.221C38.0859 234.831 37.3841 235.137 36.5684 235.137C35.8392 235.137 35.2399 234.932 34.7705 234.521C34.3057 234.107 34.0732 233.583 34.0732 232.949C34.0732 232.179 34.3649 231.582 34.9482 231.158C35.5361 230.73 36.361 230.516 37.4229 230.516H38.6533V229.935C38.6533 229.493 38.5212 229.142 38.2568 228.882C37.9925 228.618 37.6029 228.485 37.0879 228.485C36.6367 228.485 36.2585 228.599 35.9531 228.827C35.6478 229.055 35.4951 229.331 35.4951 229.654H34.2236C34.2236 229.285 34.3535 228.93 34.6133 228.588C34.8776 228.242 35.2331 227.968 35.6797 227.768C36.1309 227.567 36.6253 227.467 37.1631 227.467C38.0153 227.467 38.6829 227.681 39.166 228.109C39.6491 228.533 39.8997 229.119 39.918 229.866V233.271C39.918 233.95 40.0046 234.49 40.1777 234.891V235H38.8516ZM36.7529 234.036C37.1494 234.036 37.5254 233.934 37.8809 233.729C38.2363 233.523 38.4938 233.257 38.6533 232.929V231.411H37.6621C36.1126 231.411 35.3379 231.865 35.3379 232.771C35.3379 233.168 35.4701 233.478 35.7344 233.701C35.9987 233.924 36.3382 234.036 36.7529 234.036ZM46.6855 227.604H47.9502V235H46.6855V229.606L43.2744 235H42.0098V227.604H43.2744V233.004L46.6855 227.604ZM47.0273 224.91C47.0273 225.462 46.8382 225.906 46.46 226.243C46.0863 226.576 45.5941 226.742 44.9834 226.742C44.3727 226.742 43.8783 226.574 43.5 226.236C43.1217 225.899 42.9326 225.457 42.9326 224.91H43.9648C43.9648 225.229 44.0514 225.48 44.2246 225.662C44.3978 225.84 44.6507 225.929 44.9834 225.929C45.3024 225.929 45.5508 225.84 45.7285 225.662C45.9108 225.484 46.002 225.234 46.002 224.91H47.0273ZM56.0234 235H54.7588V231.842H51.3613V235H50.0898V227.604H51.3613V230.81H54.7588V227.604H56.0234V235ZM61.1299 235.137C60.1273 235.137 59.3115 234.809 58.6826 234.152C58.0537 233.492 57.7393 232.61 57.7393 231.507V231.274C57.7393 230.541 57.8783 229.887 58.1562 229.312C58.4388 228.734 58.8307 228.283 59.332 227.959C59.8379 227.631 60.3848 227.467 60.9727 227.467C61.9342 227.467 62.6816 227.784 63.2148 228.417C63.748 229.05 64.0146 229.957 64.0146 231.138V231.664H59.0039C59.0221 232.393 59.234 232.983 59.6396 233.435C60.0498 233.881 60.5693 234.104 61.1982 234.104C61.6449 234.104 62.0231 234.013 62.333 233.831C62.6429 233.649 62.9141 233.407 63.1465 233.106L63.9189 233.708C63.2992 234.66 62.3695 235.137 61.1299 235.137ZM60.9727 228.506C60.4622 228.506 60.0339 228.693 59.6875 229.066C59.3411 229.436 59.127 229.955 59.0449 230.625H62.75V230.529C62.7135 229.887 62.5404 229.39 62.2305 229.039C61.9206 228.684 61.5013 228.506 60.9727 228.506ZM71.7324 231.384C71.7324 232.509 71.4749 233.416 70.96 234.104C70.445 234.793 69.7477 235.137 68.8682 235.137C67.9704 235.137 67.264 234.852 66.749 234.282V237.844H65.4844V227.604H66.6396L66.7012 228.424C67.2161 227.786 67.9316 227.467 68.8477 227.467C69.7363 227.467 70.4382 227.802 70.9531 228.472C71.4727 229.142 71.7324 230.074 71.7324 231.268V231.384ZM70.4678 231.24C70.4678 230.406 70.29 229.748 69.9346 229.265C69.5791 228.782 69.0915 228.54 68.4717 228.54C67.7061 228.54 67.1318 228.88 66.749 229.559V233.093C67.1273 233.767 67.7061 234.104 68.4854 234.104C69.0915 234.104 69.5723 233.865 69.9277 233.387C70.2878 232.904 70.4678 232.188 70.4678 231.24Z" fill="#282828"/>
<circle cx="40" cy="180" r="30" fill="#43BAD6"/>
<circle cx="40" cy="180" r="10" fill="white"/>
<circle cx="40" cy="30" r="29.5" stroke="#CACACA"/>
<circle cx="40" cy="30" r="10" fill="#43BAD6"/>
<path d="M8.11719 75.0469L11.3711 83.168L14.625 75.0469H16.3271V85H15.0146V81.124L15.1377 76.9404L11.8701 85H10.8652L7.60449 76.9609L7.73438 81.124V85H6.42188V75.0469H8.11719ZM21.5156 85.1367C20.513 85.1367 19.6973 84.8086 19.0684 84.1523C18.4395 83.4915 18.125 82.6097 18.125 81.5068V81.2744C18.125 80.5407 18.264 79.8867 18.542 79.3125C18.8245 78.7337 19.2165 78.2826 19.7178 77.959C20.2236 77.6309 20.7705 77.4668 21.3584 77.4668C22.32 77.4668 23.0674 77.7835 23.6006 78.417C24.1338 79.0505 24.4004 79.9574 24.4004 81.1377V81.6641H19.3896C19.4079 82.3932 19.6198 82.9834 20.0254 83.4346C20.4355 83.8812 20.9551 84.1045 21.584 84.1045C22.0306 84.1045 22.4089 84.0133 22.7188 83.8311C23.0286 83.6488 23.2998 83.4072 23.5322 83.1064L24.3047 83.708C23.6849 84.6605 22.7552 85.1367 21.5156 85.1367ZM21.3584 78.5059C20.848 78.5059 20.4196 78.6927 20.0732 79.0664C19.7269 79.4355 19.5127 79.9551 19.4307 80.625H23.1357V80.5293C23.0993 79.8867 22.9261 79.39 22.6162 79.0391C22.3063 78.6836 21.887 78.5059 21.3584 78.5059ZM31.9131 85H30.6484V81.8418H27.251V85H25.9795V77.6035H27.251V80.8096H30.6484V77.6035H31.9131V85ZM37.0195 85.1367C36.0169 85.1367 35.2012 84.8086 34.5723 84.1523C33.9434 83.4915 33.6289 82.6097 33.6289 81.5068V81.2744C33.6289 80.5407 33.7679 79.8867 34.0459 79.3125C34.3285 78.7337 34.7204 78.2826 35.2217 77.959C35.7275 77.6309 36.2744 77.4668 36.8623 77.4668C37.8239 77.4668 38.5713 77.7835 39.1045 78.417C39.6377 79.0505 39.9043 79.9574 39.9043 81.1377V81.6641H34.8936C34.9118 82.3932 35.1237 82.9834 35.5293 83.4346C35.9395 83.8812 36.459 84.1045 37.0879 84.1045C37.5345 84.1045 37.9128 84.0133 38.2227 83.8311C38.5326 83.6488 38.8037 83.4072 39.0361 83.1064L39.8086 83.708C39.1888 84.6605 38.2591 85.1367 37.0195 85.1367ZM36.8623 78.5059C36.3519 78.5059 35.9235 78.6927 35.5771 79.0664C35.2308 79.4355 35.0166 79.9551 34.9346 80.625H38.6396V80.5293C38.6032 79.8867 38.43 79.39 38.1201 79.0391C37.8102 78.6836 37.391 78.5059 36.8623 78.5059ZM41.3125 83.9678L41.75 83.4277C42.2422 82.7897 42.5225 81.8327 42.5908 80.5566L42.707 77.6035H47.4717V83.9678H48.4219V87.1738H47.1572V85H41.9961V87.1738H40.7314L40.7383 83.9678H41.3125ZM42.8096 83.9678H46.207V78.7725H43.9307L43.8555 80.5361C43.778 82.0081 43.4294 83.152 42.8096 83.9678ZM55.7227 81.7871H54.834V85H53.5693V81.7871H52.6807L50.6094 85H49.0098L51.6553 81.1719L49.2627 77.6035H50.7939L52.7012 80.666H53.5693V77.6035H54.834V80.666H55.6953L57.6162 77.6035H59.1475L56.748 81.1787L59.3936 85H57.7939L55.7227 81.7871ZM63.4746 85.1367C62.472 85.1367 61.6562 84.8086 61.0273 84.1523C60.3984 83.4915 60.084 82.6097 60.084 81.5068V81.2744C60.084 80.5407 60.223 79.8867 60.501 79.3125C60.7835 78.7337 61.1755 78.2826 61.6768 77.959C62.1826 77.6309 62.7295 77.4668 63.3174 77.4668C64.279 77.4668 65.0264 77.7835 65.5596 78.417C66.0928 79.0505 66.3594 79.9574 66.3594 81.1377V81.6641H61.3486C61.3669 82.3932 61.5788 82.9834 61.9844 83.4346C62.3945 83.8812 62.9141 84.1045 63.543 84.1045C63.9896 84.1045 64.3678 84.0133 64.6777 83.8311C64.9876 83.6488 65.2588 83.4072 65.4912 83.1064L66.2637 83.708C65.6439 84.6605 64.7142 85.1367 63.4746 85.1367ZM63.3174 78.5059C62.807 78.5059 62.3786 78.6927 62.0322 79.0664C61.6859 79.4355 61.4717 79.9551 61.3896 80.625H65.0947V80.5293C65.0583 79.8867 64.8851 79.39 64.5752 79.0391C64.2653 78.6836 63.846 78.5059 63.3174 78.5059ZM74.0771 81.3838C74.0771 82.5094 73.8197 83.4163 73.3047 84.1045C72.7897 84.7926 72.0924 85.1367 71.2129 85.1367C70.3151 85.1367 69.6087 84.8519 69.0938 84.2822V87.8438H67.8291V77.6035H68.9844L69.0459 78.4238C69.5609 77.7858 70.2764 77.4668 71.1924 77.4668C72.0811 77.4668 72.7829 77.8018 73.2979 78.4717C73.8174 79.1416 74.0771 80.0736 74.0771 81.2676V81.3838ZM72.8125 81.2402C72.8125 80.4062 72.6348 79.7477 72.2793 79.2646C71.9238 78.7816 71.4362 78.54 70.8164 78.54C70.0508 78.54 69.4766 78.8796 69.0938 79.5586V83.0928C69.472 83.7673 70.0508 84.1045 70.8301 84.1045C71.4362 84.1045 71.917 83.8652 72.2725 83.3867C72.6325 82.9036 72.8125 82.1882 72.8125 81.2402Z" fill="black"/>
<path d="M80 315C80 315 105 277.68 105 180C105 78.1312 80 45 80 45" stroke="#BEBEBE" stroke-width="2" stroke-linecap="round" stroke-dasharray="0.5 4"/>
<path d="M80 51L80 45L86 45" stroke="#BEBEBE" stroke-width="2" stroke-linecap="round"/>
<path d="M80 45C80 45 130 120.47 130 318C130 524.001 80 591 80 591" stroke="#BEBEBE" stroke-width="2" stroke-linecap="round" stroke-dasharray="0.5 4"/>
<path d="M86 591L80 591L80 585" stroke="#BEBEBE" stroke-width="2" stroke-linecap="round"/>
<path d="M39.9999 255L39.9999 285M39.9999 285L45 280.588M39.9999 285L35 280.588" stroke="#BEBEBE" stroke-width="2" stroke-linecap="round"/>
<path d="M39.9999 405L39.9999 435M39.9999 435L45 430.588M39.9999 435L35 430.588" stroke="#BEBEBE" stroke-width="2" stroke-linecap="round"/>
<circle cx="40" cy="330" r="30" fill="#F0F0F0"/>
<circle cx="40" cy="330" r="10" fill="#43BAD6"/>
<path d="M16.6895 380.604H12.5127V385H11.2002V375.047H17.3662V376.127H12.5127V379.531H16.6895V380.604ZM22.1377 378.738C21.9463 378.706 21.7389 378.69 21.5156 378.69C20.6862 378.69 20.1234 379.044 19.8271 379.75V385H18.5625V377.604H19.793L19.8135 378.458C20.2282 377.797 20.8161 377.467 21.5771 377.467C21.8232 377.467 22.0101 377.499 22.1377 377.562V378.738ZM22.835 381.233C22.835 380.509 22.9762 379.857 23.2588 379.278C23.5459 378.7 23.9424 378.253 24.4482 377.938C24.9587 377.624 25.5397 377.467 26.1914 377.467C27.1986 377.467 28.012 377.815 28.6318 378.513C29.2562 379.21 29.5684 380.137 29.5684 381.295V381.384C29.5684 382.104 29.4294 382.751 29.1514 383.325C28.8779 383.895 28.4837 384.339 27.9688 384.658C27.4583 384.977 26.8704 385.137 26.2051 385.137C25.2025 385.137 24.389 384.788 23.7646 384.091C23.1449 383.394 22.835 382.471 22.835 381.322V381.233ZM24.1064 381.384C24.1064 382.204 24.2956 382.863 24.6738 383.359C25.0566 383.856 25.5671 384.104 26.2051 384.104C26.8477 384.104 27.3581 383.854 27.7363 383.353C28.1146 382.847 28.3037 382.14 28.3037 381.233C28.3037 380.422 28.11 379.766 27.7227 379.265C27.3398 378.759 26.8294 378.506 26.1914 378.506C25.5671 378.506 25.0635 378.754 24.6807 379.251C24.2979 379.748 24.1064 380.459 24.1064 381.384ZM32.3506 377.604L32.3916 378.533C32.9567 377.822 33.695 377.467 34.6064 377.467C36.1696 377.467 36.958 378.349 36.9717 380.112V385H35.707V380.105C35.7025 379.572 35.5794 379.178 35.3379 378.923C35.1009 378.668 34.7295 378.54 34.2236 378.54C33.8135 378.54 33.4535 378.649 33.1436 378.868C32.8337 379.087 32.5921 379.374 32.4189 379.729V385H31.1543V377.604H32.3506ZM40.5947 375.812V377.604H41.9756V378.581H40.5947V383.168C40.5947 383.464 40.6562 383.688 40.7793 383.838C40.9023 383.984 41.112 384.057 41.4082 384.057C41.554 384.057 41.7546 384.029 42.0098 383.975V385C41.6771 385.091 41.3535 385.137 41.0391 385.137C40.474 385.137 40.0479 384.966 39.7607 384.624C39.4736 384.282 39.3301 383.797 39.3301 383.168V378.581H37.9834V377.604H39.3301V375.812H40.5947ZM46.0908 381.288H42.7549V380.256H46.0908V381.288ZM53.1523 380.399H48.8389V383.927H53.8496V385H47.5264V375.047H53.7812V376.127H48.8389V379.326H53.1523V380.399ZM56.4814 377.604L56.5225 378.533C57.0876 377.822 57.8258 377.467 58.7373 377.467C60.3005 377.467 61.0889 378.349 61.1025 380.112V385H59.8379V380.105C59.8333 379.572 59.7103 379.178 59.4688 378.923C59.2318 378.668 58.8604 378.54 58.3545 378.54C57.9443 378.54 57.5843 378.649 57.2744 378.868C56.9645 379.087 56.723 379.374 56.5498 379.729V385H55.2852V377.604H56.4814ZM62.7021 381.24C62.7021 380.105 62.971 379.194 63.5088 378.506C64.0465 377.813 64.7507 377.467 65.6211 377.467C66.487 377.467 67.1729 377.763 67.6787 378.355V374.5H68.9434V385H67.7812L67.7197 384.207C67.2139 384.827 66.5098 385.137 65.6074 385.137C64.7507 385.137 64.0511 384.786 63.5088 384.084C62.971 383.382 62.7021 382.466 62.7021 381.336V381.24ZM63.9668 381.384C63.9668 382.222 64.14 382.879 64.4863 383.353C64.8327 383.826 65.3112 384.063 65.9219 384.063C66.724 384.063 67.3096 383.703 67.6787 382.983V379.586C67.3005 378.889 66.7194 378.54 65.9355 378.54C65.3158 378.54 64.8327 378.779 64.4863 379.258C64.14 379.736 63.9668 380.445 63.9668 381.384Z" fill="black"/>
<circle cx="40" cy="480" r="29.5" stroke="#CACACA"/>
<circle cx="40" cy="480" r="9.5" stroke="#43BAD6"/>
<path d="M12.0479 535V525.047H15.3018C16.3818 525.047 17.193 525.27 17.7354 525.717C18.2822 526.163 18.5557 526.824 18.5557 527.699C18.5557 528.164 18.4235 528.576 18.1592 528.937C17.8949 529.292 17.5348 529.568 17.0791 529.764C17.6169 529.914 18.0407 530.201 18.3506 530.625C18.665 531.044 18.8223 531.546 18.8223 532.129C18.8223 533.022 18.5329 533.724 17.9541 534.234C17.3753 534.745 16.5573 535 15.5 535H12.0479ZM13.3604 530.345V533.927H15.5273C16.138 533.927 16.6188 533.77 16.9697 533.455C17.3252 533.136 17.5029 532.699 17.5029 532.143C17.5029 530.944 16.8512 530.345 15.5479 530.345H13.3604ZM13.3604 529.292H15.3428C15.917 529.292 16.375 529.148 16.7168 528.861C17.0632 528.574 17.2363 528.185 17.2363 527.692C17.2363 527.146 17.0768 526.749 16.7578 526.503C16.4388 526.252 15.9535 526.127 15.3018 526.127H13.3604V529.292ZM25.1387 535C25.0658 534.854 25.0065 534.594 24.9609 534.221C24.373 534.831 23.6712 535.137 22.8555 535.137C22.1263 535.137 21.527 534.932 21.0576 534.521C20.5928 534.107 20.3604 533.583 20.3604 532.949C20.3604 532.179 20.652 531.582 21.2354 531.158C21.8232 530.73 22.6481 530.516 23.71 530.516H24.9404V529.935C24.9404 529.493 24.8083 529.142 24.5439 528.882C24.2796 528.618 23.89 528.485 23.375 528.485C22.9238 528.485 22.5456 528.599 22.2402 528.827C21.9349 529.055 21.7822 529.331 21.7822 529.654H20.5107C20.5107 529.285 20.6406 528.93 20.9004 528.588C21.1647 528.242 21.5202 527.968 21.9668 527.768C22.418 527.567 22.9124 527.467 23.4502 527.467C24.3024 527.467 24.9701 527.681 25.4531 528.109C25.9362 528.533 26.1868 529.119 26.2051 529.866V533.271C26.2051 533.95 26.2917 534.49 26.4648 534.891V535H25.1387ZM23.04 534.036C23.4365 534.036 23.8125 533.934 24.168 533.729C24.5234 533.523 24.7809 533.257 24.9404 532.929V531.411H23.9492C22.3997 531.411 21.625 531.865 21.625 532.771C21.625 533.168 21.7572 533.478 22.0215 533.701C22.2858 533.924 22.6253 534.036 23.04 534.036ZM31.1543 534.104C31.6055 534.104 31.9997 533.968 32.3369 533.694C32.6742 533.421 32.861 533.079 32.8975 532.669H34.0938C34.071 533.093 33.9251 533.496 33.6562 533.879C33.3874 534.262 33.0273 534.567 32.5762 534.795C32.1296 535.023 31.6556 535.137 31.1543 535.137C30.1471 535.137 29.3451 534.802 28.748 534.132C28.1556 533.457 27.8594 532.537 27.8594 531.37V531.158C27.8594 530.438 27.9915 529.798 28.2559 529.237C28.5202 528.677 28.8984 528.242 29.3906 527.932C29.8874 527.622 30.473 527.467 31.1475 527.467C31.9769 527.467 32.665 527.715 33.2119 528.212C33.7633 528.709 34.0573 529.354 34.0938 530.146H32.8975C32.861 529.668 32.6787 529.276 32.3506 528.971C32.027 528.661 31.626 528.506 31.1475 528.506C30.5049 528.506 30.0059 528.738 29.6504 529.203C29.2995 529.663 29.124 530.331 29.124 531.206V531.445C29.124 532.298 29.2995 532.954 29.6504 533.414C30.0013 533.874 30.5026 534.104 31.1543 534.104ZM37.5801 531.575L36.7871 532.402V535H35.5225V524.5H36.7871V530.851L37.4639 530.037L39.7676 527.604H41.3057L38.4277 530.693L41.6406 535H40.1572L37.5801 531.575ZM45.2432 531.288H41.9072V530.256H45.2432V531.288ZM52.3047 530.399H47.9912V533.927H53.002V535H46.6787V525.047H52.9336V526.127H47.9912V529.326H52.3047V530.399ZM55.6338 527.604L55.6748 528.533C56.2399 527.822 56.9782 527.467 57.8896 527.467C59.4528 527.467 60.2412 528.349 60.2549 530.112V535H58.9902V530.105C58.9857 529.572 58.8626 529.178 58.6211 528.923C58.3841 528.668 58.0127 528.54 57.5068 528.54C57.0967 528.54 56.7367 528.649 56.4268 528.868C56.1169 529.087 55.8753 529.374 55.7021 529.729V535H54.4375V527.604H55.6338ZM61.8545 531.24C61.8545 530.105 62.1234 529.194 62.6611 528.506C63.1989 527.813 63.903 527.467 64.7734 527.467C65.6393 527.467 66.3252 527.763 66.8311 528.355V524.5H68.0957V535H66.9336L66.8721 534.207C66.3662 534.827 65.6621 535.137 64.7598 535.137C63.903 535.137 63.2035 534.786 62.6611 534.084C62.1234 533.382 61.8545 532.466 61.8545 531.336V531.24ZM63.1191 531.384C63.1191 532.222 63.2923 532.879 63.6387 533.353C63.985 533.826 64.4635 534.063 65.0742 534.063C65.8763 534.063 66.4619 533.703 66.8311 532.983V529.586C66.4528 528.889 65.8717 528.54 65.0879 528.54C64.4681 528.54 63.985 528.779 63.6387 529.258C63.2923 529.736 63.1191 530.445 63.1191 531.384Z" fill="black"/>
</svg>
