<svg width="132" height="390" viewBox="0 0 132 390" fill="none" xmlns="http://www.w3.org/2000/svg">
<path d="M40.9999 105L40.9999 135M40.9999 135L46 130.588M40.9999 135L36 130.588" stroke="#BEBEBE" stroke-width="2" stroke-linecap="round"/>
<circle cx="41" cy="330" r="29.5" stroke="#CACACA"/>
<circle cx="41" cy="330" r="9.5" stroke="#43BAD6"/>
<path d="M21.0391 380.529H19.8291V385H18.5166V375.047H19.8291V379.436H20.8545L24.334 375.047H25.9678L22.167 379.873L26.248 385H24.6416L21.0391 380.529ZM33.3164 377.604V385H32.0449V378.649H29.5293L29.3789 381.418C29.2969 382.689 29.0827 383.599 28.7363 384.146C28.3945 384.692 27.8499 384.977 27.1025 385H26.5967V383.886L26.959 383.858C27.3691 383.813 27.6631 383.576 27.8408 383.147C28.0186 382.719 28.1325 381.926 28.1826 380.769L28.3193 377.604H33.3164ZM40.1318 377.604H41.3965V385H40.1318V379.606L36.7207 385H35.4561V377.604H36.7207V383.004L40.1318 377.604ZM46.4961 385.137C45.4935 385.137 44.6777 384.809 44.0488 384.152C43.4199 383.492 43.1055 382.61 43.1055 381.507V381.274C43.1055 380.541 43.2445 379.887 43.5225 379.312C43.805 378.734 44.1969 378.283 44.6982 377.959C45.2041 377.631 45.751 377.467 46.3389 377.467C47.3005 377.467 48.0479 377.784 48.5811 378.417C49.1143 379.05 49.3809 379.957 49.3809 381.138V381.664H44.3701C44.3883 382.393 44.6003 382.983 45.0059 383.435C45.416 383.881 45.9355 384.104 46.5645 384.104C47.0111 384.104 47.3893 384.013 47.6992 383.831C48.0091 383.649 48.2803 383.407 48.5127 383.106L49.2852 383.708C48.6654 384.66 47.7357 385.137 46.4961 385.137ZM46.3389 378.506C45.8285 378.506 45.4001 378.693 45.0537 379.066C44.7074 379.436 44.4932 379.955 44.4111 380.625H48.1162V380.529C48.0798 379.887 47.9066 379.39 47.5967 379.039C47.2868 378.684 46.8675 378.506 46.3389 378.506ZM56.8936 385H55.6289V381.842H52.2314V385H50.96V377.604H52.2314V380.81H55.6289V377.604H56.8936V385ZM64.4268 378.629H61.9453V385H60.6807V378.629H58.2471V377.604H64.4268V378.629Z" fill="black"/>
<circle cx="41" cy="30" r="29.5" stroke="#CACACA"/>
<circle cx="41" cy="30" r="10" fill="#43BAD6"/>
<path d="M9.11719 75.0469L12.3711 83.168L15.625 75.0469H17.3271V85H16.0146V81.124L16.1377 76.9404L12.8701 85H11.8652L8.60449 76.9609L8.73438 81.124V85H7.42188V75.0469H9.11719ZM22.5156 85.1367C21.513 85.1367 20.6973 84.8086 20.0684 84.1523C19.4395 83.4915 19.125 82.6097 19.125 81.5068V81.2744C19.125 80.5407 19.264 79.8867 19.542 79.3125C19.8245 78.7337 20.2165 78.2826 20.7178 77.959C21.2236 77.6309 21.7705 77.4668 22.3584 77.4668C23.32 77.4668 24.0674 77.7835 24.6006 78.417C25.1338 79.0505 25.4004 79.9574 25.4004 81.1377V81.6641H20.3896C20.4079 82.3932 20.6198 82.9834 21.0254 83.4346C21.4355 83.8812 21.9551 84.1045 22.584 84.1045C23.0306 84.1045 23.4089 84.0133 23.7188 83.8311C24.0286 83.6488 24.2998 83.4072 24.5322 83.1064L25.3047 83.708C24.6849 84.6605 23.7552 85.1367 22.5156 85.1367ZM22.3584 78.5059C21.848 78.5059 21.4196 78.6927 21.0732 79.0664C20.7269 79.4355 20.5127 79.9551 20.4307 80.625H24.1357V80.5293C24.0993 79.8867 23.9261 79.39 23.6162 79.0391C23.3063 78.6836 22.887 78.5059 22.3584 78.5059ZM32.9131 85H31.6484V81.8418H28.251V85H26.9795V77.6035H28.251V80.8096H31.6484V77.6035H32.9131V85ZM38.0195 85.1367C37.0169 85.1367 36.2012 84.8086 35.5723 84.1523C34.9434 83.4915 34.6289 82.6097 34.6289 81.5068V81.2744C34.6289 80.5407 34.7679 79.8867 35.0459 79.3125C35.3285 78.7337 35.7204 78.2826 36.2217 77.959C36.7275 77.6309 37.2744 77.4668 37.8623 77.4668C38.8239 77.4668 39.5713 77.7835 40.1045 78.417C40.6377 79.0505 40.9043 79.9574 40.9043 81.1377V81.6641H35.8936C35.9118 82.3932 36.1237 82.9834 36.5293 83.4346C36.9395 83.8812 37.459 84.1045 38.0879 84.1045C38.5345 84.1045 38.9128 84.0133 39.2227 83.8311C39.5326 83.6488 39.8037 83.4072 40.0361 83.1064L40.8086 83.708C40.1888 84.6605 39.2591 85.1367 38.0195 85.1367ZM37.8623 78.5059C37.3519 78.5059 36.9235 78.6927 36.5771 79.0664C36.2308 79.4355 36.0166 79.9551 35.9346 80.625H39.6396V80.5293C39.6032 79.8867 39.43 79.39 39.1201 79.0391C38.8102 78.6836 38.391 78.5059 37.8623 78.5059ZM42.3125 83.9678L42.75 83.4277C43.2422 82.7897 43.5225 81.8327 43.5908 80.5566L43.707 77.6035H48.4717V83.9678H49.4219V87.1738H48.1572V85H42.9961V87.1738H41.7314L41.7383 83.9678H42.3125ZM43.8096 83.9678H47.207V78.7725H44.9307L44.8555 80.5361C44.778 82.0081 44.4294 83.152 43.8096 83.9678ZM56.7227 81.7871H55.834V85H54.5693V81.7871H53.6807L51.6094 85H50.0098L52.6553 81.1719L50.2627 77.6035H51.7939L53.7012 80.666H54.5693V77.6035H55.834V80.666H56.6953L58.6162 77.6035H60.1475L57.748 81.1787L60.3936 85H58.7939L56.7227 81.7871ZM64.4746 85.1367C63.472 85.1367 62.6562 84.8086 62.0273 84.1523C61.3984 83.4915 61.084 82.6097 61.084 81.5068V81.2744C61.084 80.5407 61.223 79.8867 61.501 79.3125C61.7835 78.7337 62.1755 78.2826 62.6768 77.959C63.1826 77.6309 63.7295 77.4668 64.3174 77.4668C65.279 77.4668 66.0264 77.7835 66.5596 78.417C67.0928 79.0505 67.3594 79.9574 67.3594 81.1377V81.6641H62.3486C62.3669 82.3932 62.5788 82.9834 62.9844 83.4346C63.3945 83.8812 63.9141 84.1045 64.543 84.1045C64.9896 84.1045 65.3678 84.0133 65.6777 83.8311C65.9876 83.6488 66.2588 83.4072 66.4912 83.1064L67.2637 83.708C66.6439 84.6605 65.7142 85.1367 64.4746 85.1367ZM64.3174 78.5059C63.807 78.5059 63.3786 78.6927 63.0322 79.0664C62.6859 79.4355 62.4717 79.9551 62.3896 80.625H66.0947V80.5293C66.0583 79.8867 65.8851 79.39 65.5752 79.0391C65.2653 78.6836 64.846 78.5059 64.3174 78.5059ZM75.0771 81.3838C75.0771 82.5094 74.8197 83.4163 74.3047 84.1045C73.7897 84.7926 73.0924 85.1367 72.2129 85.1367C71.3151 85.1367 70.6087 84.8519 70.0938 84.2822V87.8438H68.8291V77.6035H69.9844L70.0459 78.4238C70.5609 77.7858 71.2764 77.4668 72.1924 77.4668C73.0811 77.4668 73.7829 77.8018 74.2979 78.4717C74.8174 79.1416 75.0771 80.0736 75.0771 81.2676V81.3838ZM73.8125 81.2402C73.8125 80.4062 73.6348 79.7477 73.2793 79.2646C72.9238 78.7816 72.4362 78.54 71.8164 78.54C71.0508 78.54 70.4766 78.8796 70.0938 79.5586V83.0928C70.472 83.7673 71.0508 84.1045 71.8301 84.1045C72.4362 84.1045 72.917 83.8652 73.2725 83.3867C73.6325 82.9036 73.8125 82.1882 73.8125 81.2402Z" fill="black"/>
<path d="M81 162C81 162 106 145.413 106 102C106 56.7251 81 42.0001 81 42.0001" stroke="#BEBEBE" stroke-width="2" stroke-linecap="round" stroke-dasharray="0.5 4"/>
<path d="M81 42.0001C81 42.0001 131 79.5634 131 175.462C131 275.473 81 308 81 308" stroke="#BEBEBE" stroke-width="2" stroke-linecap="round" stroke-dasharray="0.5 4"/>
<path d="M81 48.0001L81 42.0001L87 42.0001" stroke="#BEBEBE" stroke-width="2" stroke-linecap="round"/>
<path d="M87 308L81 308L81 302" stroke="#BEBEBE" stroke-width="2" stroke-linecap="round"/>
<circle opacity="0.2" cx="41" cy="180" r="30" fill="#43BAD6"/>
<circle cx="41" cy="180" r="10" fill="#BEBEBE"/>
<path d="M8.92578 230.345C8.92578 231.306 8.77311 232.136 8.46777 232.833C8.16243 233.526 7.73405 234.068 7.18262 234.46L8.95996 235.854L8.06445 236.682L5.96582 235.014C5.6377 235.096 5.29134 235.137 4.92676 235.137C4.1429 235.137 3.44792 234.945 2.8418 234.562C2.23568 234.175 1.764 233.626 1.42676 232.915C1.09408 232.2 0.923177 231.372 0.914062 230.434V229.716C0.914062 228.759 1.0804 227.913 1.41309 227.18C1.74577 226.446 2.21517 225.885 2.82129 225.498C3.43197 225.106 4.12923 224.91 4.91309 224.91C5.71517 224.91 6.41927 225.104 7.02539 225.491C7.63607 225.879 8.10547 226.437 8.43359 227.166C8.76172 227.891 8.92578 228.738 8.92578 229.709V230.345ZM7.61328 229.702C7.61328 228.531 7.37858 227.629 6.90918 226.995C6.44434 226.357 5.77897 226.038 4.91309 226.038C4.08822 226.038 3.43652 226.355 2.95801 226.988C2.48405 227.617 2.24023 228.492 2.22656 229.613V230.345C2.22656 231.484 2.46354 232.382 2.9375 233.038C3.41602 233.694 4.0791 234.022 4.92676 234.022C5.77441 234.022 6.43066 233.715 6.89551 233.1C7.36035 232.48 7.59961 231.593 7.61328 230.44V229.702ZM16.4453 232.402H12.2754L11.3389 235H9.98535L13.7861 225.047H14.9346L18.7422 235H17.3955L16.4453 232.402ZM12.6719 231.322H16.0557L14.3604 226.667L12.6719 231.322ZM29.8301 225.047H31.1426V235H29.8301V227.33L24.9287 235H23.6094V225.047H24.9287V232.717L29.8301 225.047ZM39.3799 235H38.1152V231.842H34.7178V235H33.4463V227.604H34.7178V230.81H38.1152V227.604H39.3799V235ZM47.3164 231.787H46.4277V235H45.1631V231.787H44.2744L42.2031 235H40.6035L43.249 231.172L40.8564 227.604H42.3877L44.2949 230.666H45.1631V227.604H46.4277V230.666H47.2891L49.21 227.604H50.7412L48.3418 231.179L50.9873 235H49.3877L47.3164 231.787ZM55.0684 235.137C54.0658 235.137 53.25 234.809 52.6211 234.152C51.9922 233.492 51.6777 232.61 51.6777 231.507V231.274C51.6777 230.541 51.8167 229.887 52.0947 229.312C52.3773 228.734 52.7692 228.283 53.2705 227.959C53.7764 227.631 54.3232 227.467 54.9111 227.467C55.8727 227.467 56.6201 227.784 57.1533 228.417C57.6865 229.05 57.9531 229.957 57.9531 231.138V231.664H52.9424C52.9606 232.393 53.1725 232.983 53.5781 233.435C53.9883 233.881 54.5078 234.104 55.1367 234.104C55.5833 234.104 55.9616 234.013 56.2715 233.831C56.5814 233.649 56.8525 233.407 57.085 233.106L57.8574 233.708C57.2376 234.66 56.3079 235.137 55.0684 235.137ZM54.9111 228.506C54.4007 228.506 53.9723 228.693 53.626 229.066C53.2796 229.436 53.0654 229.955 52.9834 230.625H56.6885V230.529C56.652 229.887 56.4788 229.39 56.1689 229.039C55.859 228.684 55.4398 228.506 54.9111 228.506ZM65.4658 235H64.2012V231.842H60.8037V235H59.5322V227.604H60.8037V230.81H64.2012V227.604H65.4658V235ZM70.5723 235.137C69.5697 235.137 68.7539 234.809 68.125 234.152C67.4961 233.492 67.1816 232.61 67.1816 231.507V231.274C67.1816 230.541 67.3206 229.887 67.5986 229.312C67.8812 228.734 68.2731 228.283 68.7744 227.959C69.2803 227.631 69.8271 227.467 70.415 227.467C71.3766 227.467 72.124 227.784 72.6572 228.417C73.1904 229.05 73.457 229.957 73.457 231.138V231.664H68.4463C68.4645 232.393 68.6764 232.983 69.082 233.435C69.4922 233.881 70.0117 234.104 70.6406 234.104C71.0872 234.104 71.4655 234.013 71.7754 233.831C72.0853 233.649 72.3564 233.407 72.5889 233.106L73.3613 233.708C72.7415 234.66 71.8118 235.137 70.5723 235.137ZM70.415 228.506C69.9046 228.506 69.4762 228.693 69.1299 229.066C68.7835 229.436 68.5693 229.955 68.4873 230.625H72.1924V230.529C72.1559 229.887 71.9827 229.39 71.6729 229.039C71.363 228.684 70.9437 228.506 70.415 228.506ZM81.1748 231.384C81.1748 232.509 80.9173 233.416 80.4023 234.104C79.8874 234.793 79.1901 235.137 78.3105 235.137C77.4128 235.137 76.7064 234.852 76.1914 234.282V237.844H74.9268V227.604H76.082L76.1436 228.424C76.6585 227.786 77.374 227.467 78.29 227.467C79.1787 227.467 79.8805 227.802 80.3955 228.472C80.915 229.142 81.1748 230.074 81.1748 231.268V231.384ZM79.9102 231.24C79.9102 230.406 79.7324 229.748 79.377 229.265C79.0215 228.782 78.5339 228.54 77.9141 228.54C77.1484 228.54 76.5742 228.88 76.1914 229.559V233.093C76.5697 233.767 77.1484 234.104 77.9277 234.104C78.5339 234.104 79.0146 233.865 79.3701 233.387C79.7301 232.904 79.9102 232.188 79.9102 231.24Z" fill="black"/>
</svg>
