<svg width="360" height="151" viewBox="0 0 360 151" fill="none" xmlns="http://www.w3.org/2000/svg">
<path d="M95 91.0001H125M125 91.0001L120.588 86M125 91.0001L120.588 96" stroke="#BEBEBE" stroke-width="2" stroke-linecap="round"/>
<path d="M167 51C167 51 150.413 26 107 26C61.725 26 47 51 47 51" stroke="#BEBEBE" stroke-width="2" stroke-linecap="round" stroke-dasharray="0.5 4"/>
<circle cx="320" cy="91" r="29.5" stroke="#CACACA"/>
<circle cx="320" cy="91" r="9.5" stroke="#43BAD6"/>
<path d="M300.039 141.529H298.829V146H297.517V136.047H298.829V140.436H299.854L303.334 136.047H304.968L301.167 140.873L305.248 146H303.642L300.039 141.529ZM312.316 138.604V146H311.045V139.649H308.529L308.379 142.418C308.297 143.689 308.083 144.599 307.736 145.146C307.395 145.692 306.85 145.977 306.103 146H305.597V144.886L305.959 144.858C306.369 144.813 306.663 144.576 306.841 144.147C307.019 143.719 307.132 142.926 307.183 141.769L307.319 138.604H312.316ZM319.132 138.604H320.396V146H319.132V140.606L315.721 146H314.456V138.604H315.721V144.004L319.132 138.604ZM325.496 146.137C324.493 146.137 323.678 145.809 323.049 145.152C322.42 144.492 322.105 143.61 322.105 142.507V142.274C322.105 141.541 322.244 140.887 322.522 140.312C322.805 139.734 323.197 139.283 323.698 138.959C324.204 138.631 324.751 138.467 325.339 138.467C326.3 138.467 327.048 138.784 327.581 139.417C328.114 140.05 328.381 140.957 328.381 142.138V142.664H323.37C323.388 143.393 323.6 143.983 324.006 144.435C324.416 144.881 324.936 145.104 325.564 145.104C326.011 145.104 326.389 145.013 326.699 144.831C327.009 144.649 327.28 144.407 327.513 144.106L328.285 144.708C327.665 145.66 326.736 146.137 325.496 146.137ZM325.339 139.506C324.828 139.506 324.4 139.693 324.054 140.066C323.707 140.436 323.493 140.955 323.411 141.625H327.116V141.529C327.08 140.887 326.907 140.39 326.597 140.039C326.287 139.684 325.868 139.506 325.339 139.506ZM335.894 146H334.629V142.842H331.231V146H329.96V138.604H331.231V141.81H334.629V138.604H335.894V146ZM343.427 139.629H340.945V146H339.681V139.629H337.247V138.604H343.427V139.629Z" fill="black"/>
<circle cx="40" cy="91" r="29.5" stroke="#CACACA"/>
<circle cx="40" cy="91" r="10" fill="#43BAD6"/>
<path d="M8.11719 136.047L11.3711 144.168L14.625 136.047H16.3271V146H15.0146V142.124L15.1377 137.94L11.8701 146H10.8652L7.60449 137.961L7.73438 142.124V146H6.42188V136.047H8.11719ZM21.5156 146.137C20.513 146.137 19.6973 145.809 19.0684 145.152C18.4395 144.492 18.125 143.61 18.125 142.507V142.274C18.125 141.541 18.264 140.887 18.542 140.312C18.8245 139.734 19.2165 139.283 19.7178 138.959C20.2236 138.631 20.7705 138.467 21.3584 138.467C22.32 138.467 23.0674 138.784 23.6006 139.417C24.1338 140.05 24.4004 140.957 24.4004 142.138V142.664H19.3896C19.4079 143.393 19.6198 143.983 20.0254 144.435C20.4355 144.881 20.9551 145.104 21.584 145.104C22.0306 145.104 22.4089 145.013 22.7188 144.831C23.0286 144.649 23.2998 144.407 23.5322 144.106L24.3047 144.708C23.6849 145.66 22.7552 146.137 21.5156 146.137ZM21.3584 139.506C20.848 139.506 20.4196 139.693 20.0732 140.066C19.7269 140.436 19.5127 140.955 19.4307 141.625H23.1357V141.529C23.0993 140.887 22.9261 140.39 22.6162 140.039C22.3063 139.684 21.887 139.506 21.3584 139.506ZM31.9131 146H30.6484V142.842H27.251V146H25.9795V138.604H27.251V141.81H30.6484V138.604H31.9131V146ZM37.0195 146.137C36.0169 146.137 35.2012 145.809 34.5723 145.152C33.9434 144.492 33.6289 143.61 33.6289 142.507V142.274C33.6289 141.541 33.7679 140.887 34.0459 140.312C34.3285 139.734 34.7204 139.283 35.2217 138.959C35.7275 138.631 36.2744 138.467 36.8623 138.467C37.8239 138.467 38.5713 138.784 39.1045 139.417C39.6377 140.05 39.9043 140.957 39.9043 142.138V142.664H34.8936C34.9118 143.393 35.1237 143.983 35.5293 144.435C35.9395 144.881 36.459 145.104 37.0879 145.104C37.5345 145.104 37.9128 145.013 38.2227 144.831C38.5326 144.649 38.8037 144.407 39.0361 144.106L39.8086 144.708C39.1888 145.66 38.2591 146.137 37.0195 146.137ZM36.8623 139.506C36.3519 139.506 35.9235 139.693 35.5771 140.066C35.2308 140.436 35.0166 140.955 34.9346 141.625H38.6396V141.529C38.6032 140.887 38.43 140.39 38.1201 140.039C37.8102 139.684 37.391 139.506 36.8623 139.506ZM41.3125 144.968L41.75 144.428C42.2422 143.79 42.5225 142.833 42.5908 141.557L42.707 138.604H47.4717V144.968H48.4219V148.174H47.1572V146H41.9961V148.174H40.7314L40.7383 144.968H41.3125ZM42.8096 144.968H46.207V139.772H43.9307L43.8555 141.536C43.778 143.008 43.4294 144.152 42.8096 144.968ZM55.7227 142.787H54.834V146H53.5693V142.787H52.6807L50.6094 146H49.0098L51.6553 142.172L49.2627 138.604H50.7939L52.7012 141.666H53.5693V138.604H54.834V141.666H55.6953L57.6162 138.604H59.1475L56.748 142.179L59.3936 146H57.7939L55.7227 142.787ZM63.4746 146.137C62.472 146.137 61.6562 145.809 61.0273 145.152C60.3984 144.492 60.084 143.61 60.084 142.507V142.274C60.084 141.541 60.223 140.887 60.501 140.312C60.7835 139.734 61.1755 139.283 61.6768 138.959C62.1826 138.631 62.7295 138.467 63.3174 138.467C64.279 138.467 65.0264 138.784 65.5596 139.417C66.0928 140.05 66.3594 140.957 66.3594 142.138V142.664H61.3486C61.3669 143.393 61.5788 143.983 61.9844 144.435C62.3945 144.881 62.9141 145.104 63.543 145.104C63.9896 145.104 64.3678 145.013 64.6777 144.831C64.9876 144.649 65.2588 144.407 65.4912 144.106L66.2637 144.708C65.6439 145.66 64.7142 146.137 63.4746 146.137ZM63.3174 139.506C62.807 139.506 62.3786 139.693 62.0322 140.066C61.6859 140.436 61.4717 140.955 61.3896 141.625H65.0947V141.529C65.0583 140.887 64.8851 140.39 64.5752 140.039C64.2653 139.684 63.846 139.506 63.3174 139.506ZM74.0771 142.384C74.0771 143.509 73.8197 144.416 73.3047 145.104C72.7897 145.793 72.0924 146.137 71.2129 146.137C70.3151 146.137 69.6087 145.852 69.0938 145.282V148.844H67.8291V138.604H68.9844L69.0459 139.424C69.5609 138.786 70.2764 138.467 71.1924 138.467C72.0811 138.467 72.7829 138.802 73.2979 139.472C73.8174 140.142 74.0771 141.074 74.0771 142.268V142.384ZM72.8125 142.24C72.8125 141.406 72.6348 140.748 72.2793 140.265C71.9238 139.782 71.4362 139.54 70.8164 139.54C70.0508 139.54 69.4766 139.88 69.0938 140.559V144.093C69.472 144.767 70.0508 145.104 70.8301 145.104C71.4362 145.104 71.917 144.865 72.2725 144.387C72.6325 143.904 72.8125 143.188 72.8125 142.24Z" fill="black"/>
<path d="M47 51C47 51 84.5632 1 180.462 1C280.473 1 313 51 313 51" stroke="#BEBEBE" stroke-width="2" stroke-linecap="round" stroke-dasharray="0.5 4"/>
<path d="M53 51L47 51L47 45" stroke="#BEBEBE" stroke-width="2" stroke-linecap="round"/>
<path d="M313 45V51H307" stroke="#BEBEBE" stroke-width="2" stroke-linecap="round"/>
<circle opacity="0.2" cx="180" cy="91" r="30" fill="#43BAD6"/>
<circle cx="180" cy="91" r="10" fill="#BEBEBE"/>
<path d="M147.926 141.345C147.926 142.306 147.773 143.136 147.468 143.833C147.162 144.526 146.734 145.068 146.183 145.46L147.96 146.854L147.064 147.682L144.966 146.014C144.638 146.096 144.291 146.137 143.927 146.137C143.143 146.137 142.448 145.945 141.842 145.562C141.236 145.175 140.764 144.626 140.427 143.915C140.094 143.2 139.923 142.372 139.914 141.434V140.716C139.914 139.759 140.08 138.913 140.413 138.18C140.746 137.446 141.215 136.885 141.821 136.498C142.432 136.106 143.129 135.91 143.913 135.91C144.715 135.91 145.419 136.104 146.025 136.491C146.636 136.879 147.105 137.437 147.434 138.166C147.762 138.891 147.926 139.738 147.926 140.709V141.345ZM146.613 140.702C146.613 139.531 146.379 138.629 145.909 137.995C145.444 137.357 144.779 137.038 143.913 137.038C143.088 137.038 142.437 137.355 141.958 137.988C141.484 138.617 141.24 139.492 141.227 140.613V141.345C141.227 142.484 141.464 143.382 141.938 144.038C142.416 144.694 143.079 145.022 143.927 145.022C144.774 145.022 145.431 144.715 145.896 144.1C146.36 143.48 146.6 142.593 146.613 141.44V140.702ZM155.445 143.402H151.275L150.339 146H148.985L152.786 136.047H153.935L157.742 146H156.396L155.445 143.402ZM151.672 142.322H155.056L153.36 137.667L151.672 142.322ZM168.83 136.047H170.143V146H168.83V138.33L163.929 146H162.609V136.047H163.929V143.717L168.83 136.047ZM178.38 146H177.115V142.842H173.718V146H172.446V138.604H173.718V141.81H177.115V138.604H178.38V146ZM186.316 142.787H185.428V146H184.163V142.787H183.274L181.203 146H179.604L182.249 142.172L179.856 138.604H181.388L183.295 141.666H184.163V138.604H185.428V141.666H186.289L188.21 138.604H189.741L187.342 142.179L189.987 146H188.388L186.316 142.787ZM194.068 146.137C193.066 146.137 192.25 145.809 191.621 145.152C190.992 144.492 190.678 143.61 190.678 142.507V142.274C190.678 141.541 190.817 140.887 191.095 140.312C191.377 139.734 191.769 139.283 192.271 138.959C192.776 138.631 193.323 138.467 193.911 138.467C194.873 138.467 195.62 138.784 196.153 139.417C196.687 140.05 196.953 140.957 196.953 142.138V142.664H191.942C191.961 143.393 192.173 143.983 192.578 144.435C192.988 144.881 193.508 145.104 194.137 145.104C194.583 145.104 194.962 145.013 195.271 144.831C195.581 144.649 195.853 144.407 196.085 144.106L196.857 144.708C196.238 145.66 195.308 146.137 194.068 146.137ZM193.911 139.506C193.401 139.506 192.972 139.693 192.626 140.066C192.28 140.436 192.065 140.955 191.983 141.625H195.688V141.529C195.652 140.887 195.479 140.39 195.169 140.039C194.859 139.684 194.44 139.506 193.911 139.506ZM204.466 146H203.201V142.842H199.804V146H198.532V138.604H199.804V141.81H203.201V138.604H204.466V146ZM209.572 146.137C208.57 146.137 207.754 145.809 207.125 145.152C206.496 144.492 206.182 143.61 206.182 142.507V142.274C206.182 141.541 206.321 140.887 206.599 140.312C206.881 139.734 207.273 139.283 207.774 138.959C208.28 138.631 208.827 138.467 209.415 138.467C210.377 138.467 211.124 138.784 211.657 139.417C212.19 140.05 212.457 140.957 212.457 142.138V142.664H207.446C207.465 143.393 207.676 143.983 208.082 144.435C208.492 144.881 209.012 145.104 209.641 145.104C210.087 145.104 210.465 145.013 210.775 144.831C211.085 144.649 211.356 144.407 211.589 144.106L212.361 144.708C211.742 145.66 210.812 146.137 209.572 146.137ZM209.415 139.506C208.905 139.506 208.476 139.693 208.13 140.066C207.784 140.436 207.569 140.955 207.487 141.625H211.192V141.529C211.156 140.887 210.983 140.39 210.673 140.039C210.363 139.684 209.944 139.506 209.415 139.506ZM220.175 142.384C220.175 143.509 219.917 144.416 219.402 145.104C218.887 145.793 218.19 146.137 217.311 146.137C216.413 146.137 215.706 145.852 215.191 145.282V148.844H213.927V138.604H215.082L215.144 139.424C215.659 138.786 216.374 138.467 217.29 138.467C218.179 138.467 218.881 138.802 219.396 139.472C219.915 140.142 220.175 141.074 220.175 142.268V142.384ZM218.91 142.24C218.91 141.406 218.732 140.748 218.377 140.265C218.021 139.782 217.534 139.54 216.914 139.54C216.148 139.54 215.574 139.88 215.191 140.559V144.093C215.57 144.767 216.148 145.104 216.928 145.104C217.534 145.104 218.015 144.865 218.37 144.387C218.73 143.904 218.91 143.188 218.91 142.24Z" fill="black"/>
</svg>
