<svg width="640" height="151" viewBox="0 0 640 151" fill="none" xmlns="http://www.w3.org/2000/svg">
<circle cx="600" cy="91" r="29.5" stroke="#CACACA"/>
<circle cx="600" cy="91" r="9.5" stroke="#43BAD6"/>
<path d="M580.039 141.529H578.829V146H577.517V136.047H578.829V140.436H579.854L583.334 136.047H584.968L581.167 140.873L585.248 146H583.642L580.039 141.529ZM592.316 138.604V146H591.045V139.649H588.529L588.379 142.418C588.297 143.689 588.083 144.599 587.736 145.146C587.395 145.692 586.85 145.977 586.103 146H585.597V144.886L585.959 144.858C586.369 144.813 586.663 144.576 586.841 144.147C587.019 143.719 587.132 142.926 587.183 141.769L587.319 138.604H592.316ZM599.132 138.604H600.396V146H599.132V140.606L595.721 146H594.456V138.604H595.721V144.004L599.132 138.604ZM605.496 146.137C604.493 146.137 603.678 145.809 603.049 145.152C602.42 144.492 602.105 143.61 602.105 142.507V142.274C602.105 141.541 602.244 140.887 602.522 140.312C602.805 139.734 603.197 139.283 603.698 138.959C604.204 138.631 604.751 138.467 605.339 138.467C606.3 138.467 607.048 138.784 607.581 139.417C608.114 140.05 608.381 140.957 608.381 142.138V142.664H603.37C603.388 143.393 603.6 143.983 604.006 144.435C604.416 144.881 604.936 145.104 605.564 145.104C606.011 145.104 606.389 145.013 606.699 144.831C607.009 144.649 607.28 144.407 607.513 144.106L608.285 144.708C607.665 145.66 606.736 146.137 605.496 146.137ZM605.339 139.506C604.828 139.506 604.4 139.693 604.054 140.066C603.707 140.436 603.493 140.955 603.411 141.625H607.116V141.529C607.08 140.887 606.907 140.39 606.597 140.039C606.287 139.684 605.868 139.506 605.339 139.506ZM615.894 146H614.629V142.842H611.231V146H609.96V138.604H611.231V141.81H614.629V138.604H615.894V146ZM623.427 139.629H620.945V146H619.681V139.629H617.247V138.604H623.427V139.629Z" fill="black"/>
<rect width="80" height="90" transform="translate(140 61)" fill="white"/>
<path d="M153.682 148.44H152.376V146H145.232V148.447H143.92L143.913 144.927H144.727C145.155 144.444 145.494 143.797 145.745 142.985C146 142.17 146.16 141.276 146.224 140.306L146.442 136.047H152.396V144.927H153.695L153.682 148.44ZM146.224 144.927H151.077V137.127H147.707L147.563 140.053C147.504 141.197 147.352 142.172 147.105 142.979C146.864 143.785 146.57 144.435 146.224 144.927ZM159.841 138.604H161.105V146H159.841V140.606L156.43 146H155.165V138.604H156.43V144.004L159.841 138.604ZM167.203 140.627C167.203 140.281 167.071 140.007 166.807 139.807C166.542 139.602 166.18 139.499 165.72 139.499C165.273 139.499 164.899 139.615 164.599 139.848C164.302 140.08 164.154 140.354 164.154 140.668H162.896C162.896 140.025 163.165 139.499 163.703 139.089C164.241 138.679 164.913 138.474 165.72 138.474C166.586 138.474 167.26 138.66 167.743 139.034C168.226 139.403 168.468 139.932 168.468 140.62C168.468 140.953 168.368 141.258 168.167 141.536C167.966 141.814 167.682 142.035 167.312 142.199C168.174 142.491 168.604 143.065 168.604 143.922C168.604 144.601 168.342 145.139 167.818 145.535C167.294 145.932 166.595 146.13 165.72 146.13C164.868 146.13 164.163 145.923 163.607 145.508C163.056 145.089 162.78 144.523 162.78 143.812H164.038C164.038 144.173 164.198 144.482 164.517 144.742C164.84 144.997 165.241 145.125 165.72 145.125C166.203 145.125 166.592 145.013 166.889 144.79C167.185 144.567 167.333 144.277 167.333 143.922C167.333 143.507 167.208 143.211 166.957 143.033C166.711 142.851 166.326 142.76 165.802 142.76H164.537V141.693H165.911C166.772 141.671 167.203 141.315 167.203 140.627ZM176.288 146H175.023V142.842H171.626V146H170.354V138.604H171.626V141.81H175.023V138.604H176.288V146ZM182.892 146C182.819 145.854 182.759 145.594 182.714 145.221C182.126 145.831 181.424 146.137 180.608 146.137C179.879 146.137 179.28 145.932 178.811 145.521C178.346 145.107 178.113 144.583 178.113 143.949C178.113 143.179 178.405 142.582 178.988 142.158C179.576 141.73 180.401 141.516 181.463 141.516H182.693V140.935C182.693 140.493 182.561 140.142 182.297 139.882C182.033 139.618 181.643 139.485 181.128 139.485C180.677 139.485 180.299 139.599 179.993 139.827C179.688 140.055 179.535 140.331 179.535 140.654H178.264C178.264 140.285 178.394 139.93 178.653 139.588C178.918 139.242 179.273 138.968 179.72 138.768C180.171 138.567 180.665 138.467 181.203 138.467C182.055 138.467 182.723 138.681 183.206 139.109C183.689 139.533 183.94 140.119 183.958 140.866V144.271C183.958 144.95 184.045 145.49 184.218 145.891V146H182.892ZM180.793 145.036C181.189 145.036 181.565 144.934 181.921 144.729C182.276 144.523 182.534 144.257 182.693 143.929V142.411H181.702C180.153 142.411 179.378 142.865 179.378 143.771C179.378 144.168 179.51 144.478 179.774 144.701C180.039 144.924 180.378 145.036 180.793 145.036ZM190.726 138.604H191.99V146H190.726V140.606L187.314 146H186.05V138.604H187.314V144.004L190.726 138.604ZM191.067 135.91C191.067 136.462 190.878 136.906 190.5 137.243C190.126 137.576 189.634 137.742 189.023 137.742C188.413 137.742 187.918 137.574 187.54 137.236C187.162 136.899 186.973 136.457 186.973 135.91H188.005C188.005 136.229 188.091 136.48 188.265 136.662C188.438 136.84 188.691 136.929 189.023 136.929C189.342 136.929 189.591 136.84 189.769 136.662C189.951 136.484 190.042 136.234 190.042 135.91H191.067ZM200.063 146H198.799V142.842H195.401V146H194.13V138.604H195.401V141.81H198.799V138.604H200.063V146ZM205.17 146.137C204.167 146.137 203.352 145.809 202.723 145.152C202.094 144.492 201.779 143.61 201.779 142.507V142.274C201.779 141.541 201.918 140.887 202.196 140.312C202.479 139.734 202.871 139.283 203.372 138.959C203.878 138.631 204.425 138.467 205.013 138.467C205.974 138.467 206.722 138.784 207.255 139.417C207.788 140.05 208.055 140.957 208.055 142.138V142.664H203.044C203.062 143.393 203.274 143.983 203.68 144.435C204.09 144.881 204.609 145.104 205.238 145.104C205.685 145.104 206.063 145.013 206.373 144.831C206.683 144.649 206.954 144.407 207.187 144.106L207.959 144.708C207.339 145.66 206.41 146.137 205.17 146.137ZM205.013 139.506C204.502 139.506 204.074 139.693 203.728 140.066C203.381 140.436 203.167 140.955 203.085 141.625H206.79V141.529C206.754 140.887 206.58 140.39 206.271 140.039C205.961 139.684 205.541 139.506 205.013 139.506ZM215.772 142.384C215.772 143.509 215.515 144.416 215 145.104C214.485 145.793 213.788 146.137 212.908 146.137C212.01 146.137 211.304 145.852 210.789 145.282V148.844H209.524V138.604H210.68L210.741 139.424C211.256 138.786 211.972 138.467 212.888 138.467C213.776 138.467 214.478 138.802 214.993 139.472C215.513 140.142 215.772 141.074 215.772 142.268V142.384ZM214.508 142.24C214.508 141.406 214.33 140.748 213.975 140.265C213.619 139.782 213.132 139.54 212.512 139.54C211.746 139.54 211.172 139.88 210.789 140.559V144.093C211.167 144.767 211.746 145.104 212.525 145.104C213.132 145.104 213.612 144.865 213.968 144.387C214.328 143.904 214.508 143.188 214.508 142.24Z" fill="#282828"/>
<circle cx="180" cy="91" r="30" fill="#43BAD6"/>
<circle cx="180" cy="91" r="10" fill="white"/>
<circle cx="40" cy="91" r="29.5" stroke="#CACACA"/>
<circle cx="40" cy="91" r="10" fill="#43BAD6"/>
<path d="M8.11719 136.047L11.3711 144.168L14.625 136.047H16.3271V146H15.0146V142.124L15.1377 137.94L11.8701 146H10.8652L7.60449 137.961L7.73438 142.124V146H6.42188V136.047H8.11719ZM21.5156 146.137C20.513 146.137 19.6973 145.809 19.0684 145.152C18.4395 144.492 18.125 143.61 18.125 142.507V142.274C18.125 141.541 18.264 140.887 18.542 140.312C18.8245 139.734 19.2165 139.283 19.7178 138.959C20.2236 138.631 20.7705 138.467 21.3584 138.467C22.32 138.467 23.0674 138.784 23.6006 139.417C24.1338 140.05 24.4004 140.957 24.4004 142.138V142.664H19.3896C19.4079 143.393 19.6198 143.983 20.0254 144.435C20.4355 144.881 20.9551 145.104 21.584 145.104C22.0306 145.104 22.4089 145.013 22.7188 144.831C23.0286 144.649 23.2998 144.407 23.5322 144.106L24.3047 144.708C23.6849 145.66 22.7552 146.137 21.5156 146.137ZM21.3584 139.506C20.848 139.506 20.4196 139.693 20.0732 140.066C19.7269 140.436 19.5127 140.955 19.4307 141.625H23.1357V141.529C23.0993 140.887 22.9261 140.39 22.6162 140.039C22.3063 139.684 21.887 139.506 21.3584 139.506ZM31.9131 146H30.6484V142.842H27.251V146H25.9795V138.604H27.251V141.81H30.6484V138.604H31.9131V146ZM37.0195 146.137C36.0169 146.137 35.2012 145.809 34.5723 145.152C33.9434 144.492 33.6289 143.61 33.6289 142.507V142.274C33.6289 141.541 33.7679 140.887 34.0459 140.312C34.3285 139.734 34.7204 139.283 35.2217 138.959C35.7275 138.631 36.2744 138.467 36.8623 138.467C37.8239 138.467 38.5713 138.784 39.1045 139.417C39.6377 140.05 39.9043 140.957 39.9043 142.138V142.664H34.8936C34.9118 143.393 35.1237 143.983 35.5293 144.435C35.9395 144.881 36.459 145.104 37.0879 145.104C37.5345 145.104 37.9128 145.013 38.2227 144.831C38.5326 144.649 38.8037 144.407 39.0361 144.106L39.8086 144.708C39.1888 145.66 38.2591 146.137 37.0195 146.137ZM36.8623 139.506C36.3519 139.506 35.9235 139.693 35.5771 140.066C35.2308 140.436 35.0166 140.955 34.9346 141.625H38.6396V141.529C38.6032 140.887 38.43 140.39 38.1201 140.039C37.8102 139.684 37.391 139.506 36.8623 139.506ZM41.3125 144.968L41.75 144.428C42.2422 143.79 42.5225 142.833 42.5908 141.557L42.707 138.604H47.4717V144.968H48.4219V148.174H47.1572V146H41.9961V148.174H40.7314L40.7383 144.968H41.3125ZM42.8096 144.968H46.207V139.772H43.9307L43.8555 141.536C43.778 143.008 43.4294 144.152 42.8096 144.968ZM55.7227 142.787H54.834V146H53.5693V142.787H52.6807L50.6094 146H49.0098L51.6553 142.172L49.2627 138.604H50.7939L52.7012 141.666H53.5693V138.604H54.834V141.666H55.6953L57.6162 138.604H59.1475L56.748 142.179L59.3936 146H57.7939L55.7227 142.787ZM63.4746 146.137C62.472 146.137 61.6562 145.809 61.0273 145.152C60.3984 144.492 60.084 143.61 60.084 142.507V142.274C60.084 141.541 60.223 140.887 60.501 140.312C60.7835 139.734 61.1755 139.283 61.6768 138.959C62.1826 138.631 62.7295 138.467 63.3174 138.467C64.279 138.467 65.0264 138.784 65.5596 139.417C66.0928 140.05 66.3594 140.957 66.3594 142.138V142.664H61.3486C61.3669 143.393 61.5788 143.983 61.9844 144.435C62.3945 144.881 62.9141 145.104 63.543 145.104C63.9896 145.104 64.3678 145.013 64.6777 144.831C64.9876 144.649 65.2588 144.407 65.4912 144.106L66.2637 144.708C65.6439 145.66 64.7142 146.137 63.4746 146.137ZM63.3174 139.506C62.807 139.506 62.3786 139.693 62.0322 140.066C61.6859 140.436 61.4717 140.955 61.3896 141.625H65.0947V141.529C65.0583 140.887 64.8851 140.39 64.5752 140.039C64.2653 139.684 63.846 139.506 63.3174 139.506ZM74.0771 142.384C74.0771 143.509 73.8197 144.416 73.3047 145.104C72.7897 145.793 72.0924 146.137 71.2129 146.137C70.3151 146.137 69.6087 145.852 69.0938 145.282V148.844H67.8291V138.604H68.9844L69.0459 139.424C69.5609 138.786 70.2764 138.467 71.1924 138.467C72.0811 138.467 72.7829 138.802 73.2979 139.472C73.8174 140.142 74.0771 141.074 74.0771 142.268V142.384ZM72.8125 142.24C72.8125 141.406 72.6348 140.748 72.2793 140.265C71.9238 139.782 71.4362 139.54 70.8164 139.54C70.0508 139.54 69.4766 139.88 69.0938 140.559V144.093C69.472 144.767 70.0508 145.104 70.8301 145.104C71.4362 145.104 71.917 144.865 72.2725 144.387C72.6325 143.904 72.8125 143.188 72.8125 142.24Z" fill="black"/>
<path d="M317 51C317 51 279.68 26 182 26C80.1312 26 47 51 47 51" stroke="#BEBEBE" stroke-width="2" stroke-linecap="round" stroke-dasharray="0.5 4"/>
<path d="M53 51L47 51L47 45" stroke="#BEBEBE" stroke-width="2" stroke-linecap="round"/>
<path d="M47 51C47 51 122.47 0.999999 320 0.999999C526.001 0.999999 593 51 593 51" stroke="#BEBEBE" stroke-width="2" stroke-linecap="round" stroke-dasharray="0.5 4"/>
<path d="M593 45V51H587" stroke="#BEBEBE" stroke-width="2" stroke-linecap="round"/>
<path d="M235 91.0001H265M265 91.0001L260.588 86M265 91.0001L260.588 96" stroke="#BEBEBE" stroke-width="2" stroke-linecap="round"/>
<path d="M375 91.0001H405M405 91.0001L400.588 86M405 91.0001L400.588 96" stroke="#BEBEBE" stroke-width="2" stroke-linecap="round"/>
<circle cx="320" cy="91" r="30" fill="#F0F0F0"/>
<circle cx="320" cy="91" r="10" fill="#43BAD6"/>
<path d="M296.689 141.604H292.513V146H291.2V136.047H297.366V137.127H292.513V140.531H296.689V141.604ZM302.138 139.738C301.946 139.706 301.739 139.69 301.516 139.69C300.686 139.69 300.123 140.044 299.827 140.75V146H298.562V138.604H299.793L299.813 139.458C300.228 138.797 300.816 138.467 301.577 138.467C301.823 138.467 302.01 138.499 302.138 138.562V139.738ZM302.835 142.233C302.835 141.509 302.976 140.857 303.259 140.278C303.546 139.7 303.942 139.253 304.448 138.938C304.959 138.624 305.54 138.467 306.191 138.467C307.199 138.467 308.012 138.815 308.632 139.513C309.256 140.21 309.568 141.137 309.568 142.295V142.384C309.568 143.104 309.429 143.751 309.151 144.325C308.878 144.895 308.484 145.339 307.969 145.658C307.458 145.977 306.87 146.137 306.205 146.137C305.202 146.137 304.389 145.788 303.765 145.091C303.145 144.394 302.835 143.471 302.835 142.322V142.233ZM304.106 142.384C304.106 143.204 304.296 143.863 304.674 144.359C305.057 144.856 305.567 145.104 306.205 145.104C306.848 145.104 307.358 144.854 307.736 144.353C308.115 143.847 308.304 143.14 308.304 142.233C308.304 141.422 308.11 140.766 307.723 140.265C307.34 139.759 306.829 139.506 306.191 139.506C305.567 139.506 305.063 139.754 304.681 140.251C304.298 140.748 304.106 141.459 304.106 142.384ZM312.351 138.604L312.392 139.533C312.957 138.822 313.695 138.467 314.606 138.467C316.17 138.467 316.958 139.349 316.972 141.112V146H315.707V141.105C315.702 140.572 315.579 140.178 315.338 139.923C315.101 139.668 314.729 139.54 314.224 139.54C313.813 139.54 313.453 139.649 313.144 139.868C312.834 140.087 312.592 140.374 312.419 140.729V146H311.154V138.604H312.351ZM320.595 136.812V138.604H321.976V139.581H320.595V144.168C320.595 144.464 320.656 144.688 320.779 144.838C320.902 144.984 321.112 145.057 321.408 145.057C321.554 145.057 321.755 145.029 322.01 144.975V146C321.677 146.091 321.354 146.137 321.039 146.137C320.474 146.137 320.048 145.966 319.761 145.624C319.474 145.282 319.33 144.797 319.33 144.168V139.581H317.983V138.604H319.33V136.812H320.595ZM326.091 142.288H322.755V141.256H326.091V142.288ZM333.152 141.399H328.839V144.927H333.85V146H327.526V136.047H333.781V137.127H328.839V140.326H333.152V141.399ZM336.481 138.604L336.522 139.533C337.088 138.822 337.826 138.467 338.737 138.467C340.3 138.467 341.089 139.349 341.103 141.112V146H339.838V141.105C339.833 140.572 339.71 140.178 339.469 139.923C339.232 139.668 338.86 139.54 338.354 139.54C337.944 139.54 337.584 139.649 337.274 139.868C336.965 140.087 336.723 140.374 336.55 140.729V146H335.285V138.604H336.481ZM342.702 142.24C342.702 141.105 342.971 140.194 343.509 139.506C344.047 138.813 344.751 138.467 345.621 138.467C346.487 138.467 347.173 138.763 347.679 139.355V135.5H348.943V146H347.781L347.72 145.207C347.214 145.827 346.51 146.137 345.607 146.137C344.751 146.137 344.051 145.786 343.509 145.084C342.971 144.382 342.702 143.466 342.702 142.336V142.24ZM343.967 142.384C343.967 143.222 344.14 143.879 344.486 144.353C344.833 144.826 345.311 145.063 345.922 145.063C346.724 145.063 347.31 144.703 347.679 143.983V140.586C347.3 139.889 346.719 139.54 345.936 139.54C345.316 139.54 344.833 139.779 344.486 140.258C344.14 140.736 343.967 141.445 343.967 142.384Z" fill="black"/>
<circle cx="460" cy="91" r="29.5" stroke="#CACACA"/>
<circle cx="460" cy="91" r="9.5" stroke="#43BAD6"/>
<path d="M432.048 146V136.047H435.302C436.382 136.047 437.193 136.27 437.735 136.717C438.282 137.163 438.556 137.824 438.556 138.699C438.556 139.164 438.424 139.576 438.159 139.937C437.895 140.292 437.535 140.568 437.079 140.764C437.617 140.914 438.041 141.201 438.351 141.625C438.665 142.044 438.822 142.546 438.822 143.129C438.822 144.022 438.533 144.724 437.954 145.234C437.375 145.745 436.557 146 435.5 146H432.048ZM433.36 141.345V144.927H435.527C436.138 144.927 436.619 144.77 436.97 144.455C437.325 144.136 437.503 143.699 437.503 143.143C437.503 141.944 436.851 141.345 435.548 141.345H433.36ZM433.36 140.292H435.343C435.917 140.292 436.375 140.148 436.717 139.861C437.063 139.574 437.236 139.185 437.236 138.692C437.236 138.146 437.077 137.749 436.758 137.503C436.439 137.252 435.953 137.127 435.302 137.127H433.36V140.292ZM445.139 146C445.066 145.854 445.007 145.594 444.961 145.221C444.373 145.831 443.671 146.137 442.855 146.137C442.126 146.137 441.527 145.932 441.058 145.521C440.593 145.107 440.36 144.583 440.36 143.949C440.36 143.179 440.652 142.582 441.235 142.158C441.823 141.73 442.648 141.516 443.71 141.516H444.94V140.935C444.94 140.493 444.808 140.142 444.544 139.882C444.28 139.618 443.89 139.485 443.375 139.485C442.924 139.485 442.546 139.599 442.24 139.827C441.935 140.055 441.782 140.331 441.782 140.654H440.511C440.511 140.285 440.641 139.93 440.9 139.588C441.165 139.242 441.52 138.968 441.967 138.768C442.418 138.567 442.912 138.467 443.45 138.467C444.302 138.467 444.97 138.681 445.453 139.109C445.936 139.533 446.187 140.119 446.205 140.866V144.271C446.205 144.95 446.292 145.49 446.465 145.891V146H445.139ZM443.04 145.036C443.437 145.036 443.812 144.934 444.168 144.729C444.523 144.523 444.781 144.257 444.94 143.929V142.411H443.949C442.4 142.411 441.625 142.865 441.625 143.771C441.625 144.168 441.757 144.478 442.021 144.701C442.286 144.924 442.625 145.036 443.04 145.036ZM451.154 145.104C451.605 145.104 452 144.968 452.337 144.694C452.674 144.421 452.861 144.079 452.897 143.669H454.094C454.071 144.093 453.925 144.496 453.656 144.879C453.387 145.262 453.027 145.567 452.576 145.795C452.13 146.023 451.656 146.137 451.154 146.137C450.147 146.137 449.345 145.802 448.748 145.132C448.156 144.457 447.859 143.537 447.859 142.37V142.158C447.859 141.438 447.992 140.798 448.256 140.237C448.52 139.677 448.898 139.242 449.391 138.932C449.887 138.622 450.473 138.467 451.147 138.467C451.977 138.467 452.665 138.715 453.212 139.212C453.763 139.709 454.057 140.354 454.094 141.146H452.897C452.861 140.668 452.679 140.276 452.351 139.971C452.027 139.661 451.626 139.506 451.147 139.506C450.505 139.506 450.006 139.738 449.65 140.203C449.299 140.663 449.124 141.331 449.124 142.206V142.445C449.124 143.298 449.299 143.954 449.65 144.414C450.001 144.874 450.503 145.104 451.154 145.104ZM457.58 142.575L456.787 143.402V146H455.522V135.5H456.787V141.851L457.464 141.037L459.768 138.604H461.306L458.428 141.693L461.641 146H460.157L457.58 142.575ZM465.243 142.288H461.907V141.256H465.243V142.288ZM472.305 141.399H467.991V144.927H473.002V146H466.679V136.047H472.934V137.127H467.991V140.326H472.305V141.399ZM475.634 138.604L475.675 139.533C476.24 138.822 476.978 138.467 477.89 138.467C479.453 138.467 480.241 139.349 480.255 141.112V146H478.99V141.105C478.986 140.572 478.863 140.178 478.621 139.923C478.384 139.668 478.013 139.54 477.507 139.54C477.097 139.54 476.737 139.649 476.427 139.868C476.117 140.087 475.875 140.374 475.702 140.729V146H474.438V138.604H475.634ZM481.854 142.24C481.854 141.105 482.123 140.194 482.661 139.506C483.199 138.813 483.903 138.467 484.773 138.467C485.639 138.467 486.325 138.763 486.831 139.355V135.5H488.096V146H486.934L486.872 145.207C486.366 145.827 485.662 146.137 484.76 146.137C483.903 146.137 483.203 145.786 482.661 145.084C482.123 144.382 481.854 143.466 481.854 142.336V142.24ZM483.119 142.384C483.119 143.222 483.292 143.879 483.639 144.353C483.985 144.826 484.464 145.063 485.074 145.063C485.876 145.063 486.462 144.703 486.831 143.983V140.586C486.453 139.889 485.872 139.54 485.088 139.54C484.468 139.54 483.985 139.779 483.639 140.258C483.292 140.736 483.119 141.445 483.119 142.384Z" fill="black"/>
</svg>
