<svg width="131" height="390" viewBox="0 0 131 390" fill="none" xmlns="http://www.w3.org/2000/svg">
<path d="M39.9999 105L39.9999 135M39.9999 135L45 130.588M39.9999 135L35 130.588" stroke="#BEBEBE" stroke-width="2" stroke-linecap="round"/>
<path d="M80 165C80 165 105 148.413 105 105C105 59.725 80 45 80 45" stroke="#BEBEBE" stroke-width="2" stroke-linecap="round" stroke-dasharray="0.5 4"/>
<path d="M80 45C80 45 130 82.5632 130 178.462C130 278.473 80 311 80 311" stroke="#BEBEBE" stroke-width="2" stroke-linecap="round" stroke-dasharray="0.5 4"/>
<path d="M80 51L80 45L86 45" stroke="#BEBEBE" stroke-width="2" stroke-linecap="round"/>
<path d="M86 311L80 311L80 305" stroke="#BEBEBE" stroke-width="2" stroke-linecap="round"/>
<circle cx="40" cy="330" r="29.5" stroke="#CACACA"/>
<circle cx="40" cy="330" r="9.5" stroke="#43BAD6"/>
<path d="M30.6484 381.842C30.5254 382.895 30.1357 383.708 29.4795 384.282C28.8278 384.852 27.9596 385.137 26.875 385.137C25.6992 385.137 24.7559 384.715 24.0449 383.872C23.3385 383.029 22.9854 381.901 22.9854 380.488V379.531C22.9854 378.606 23.1494 377.793 23.4775 377.091C23.8102 376.389 24.2796 375.851 24.8857 375.478C25.4919 375.099 26.1937 374.91 26.9912 374.91C28.0485 374.91 28.8962 375.206 29.5342 375.799C30.1722 376.387 30.5436 377.202 30.6484 378.246H29.3291C29.2152 377.453 28.9668 376.879 28.584 376.523C28.2057 376.168 27.6748 375.99 26.9912 375.99C26.1527 375.99 25.4941 376.3 25.0156 376.92C24.5417 377.54 24.3047 378.422 24.3047 379.565V380.529C24.3047 381.609 24.5303 382.468 24.9814 383.106C25.4326 383.744 26.0638 384.063 26.875 384.063C27.6042 384.063 28.1624 383.899 28.5498 383.571C28.9417 383.239 29.2015 382.662 29.3291 381.842H30.6484ZM33.6221 385H32.3574V374.5H33.6221V385ZM37.0264 385H35.7617V377.604H37.0264V385ZM35.6592 375.642C35.6592 375.437 35.7207 375.263 35.8438 375.122C35.9714 374.981 36.1582 374.91 36.4043 374.91C36.6504 374.91 36.8372 374.981 36.9648 375.122C37.0924 375.263 37.1562 375.437 37.1562 375.642C37.1562 375.847 37.0924 376.018 36.9648 376.154C36.8372 376.291 36.6504 376.359 36.4043 376.359C36.1582 376.359 35.9714 376.291 35.8438 376.154C35.7207 376.018 35.6592 375.847 35.6592 375.642ZM42.126 385.137C41.1234 385.137 40.3076 384.809 39.6787 384.152C39.0498 383.492 38.7354 382.61 38.7354 381.507V381.274C38.7354 380.541 38.8743 379.887 39.1523 379.312C39.4349 378.734 39.8268 378.283 40.3281 377.959C40.834 377.631 41.3809 377.467 41.9688 377.467C42.9303 377.467 43.6777 377.784 44.2109 378.417C44.7441 379.05 45.0107 379.957 45.0107 381.138V381.664H40C40.0182 382.393 40.2301 382.983 40.6357 383.435C41.0459 383.881 41.5654 384.104 42.1943 384.104C42.641 384.104 43.0192 384.013 43.3291 383.831C43.639 383.649 43.9102 383.407 44.1426 383.106L44.915 383.708C44.2952 384.66 43.3656 385.137 42.126 385.137ZM41.9688 378.506C41.4583 378.506 41.0299 378.693 40.6836 379.066C40.3372 379.436 40.123 379.955 40.041 380.625H43.7461V380.529C43.7096 379.887 43.5365 379.39 43.2266 379.039C42.9167 378.684 42.4974 378.506 41.9688 378.506ZM47.6768 377.604L47.7178 378.533C48.2829 377.822 49.0212 377.467 49.9326 377.467C51.4958 377.467 52.2842 378.349 52.2979 380.112V385H51.0332V380.105C51.0286 379.572 50.9056 379.178 50.6641 378.923C50.4271 378.668 50.0557 378.54 49.5498 378.54C49.1396 378.54 48.7796 378.649 48.4697 378.868C48.1598 379.087 47.9183 379.374 47.7451 379.729V385H46.4805V377.604H47.6768ZM55.9209 375.812V377.604H57.3018V378.581H55.9209V383.168C55.9209 383.464 55.9824 383.688 56.1055 383.838C56.2285 383.984 56.4382 384.057 56.7344 384.057C56.8802 384.057 57.0807 384.029 57.3359 383.975V385C57.0033 385.091 56.6797 385.137 56.3652 385.137C55.8001 385.137 55.374 384.966 55.0869 384.624C54.7998 384.282 54.6562 383.797 54.6562 383.168V378.581H53.3096V377.604H54.6562V375.812H55.9209Z" fill="black"/>
<circle cx="40" cy="30" r="29.5" stroke="#CACACA"/>
<circle cx="40" cy="30" r="10" fill="#43BAD6"/>
<path d="M15.2471 75.0469L18.501 83.168L21.7549 75.0469H23.457V85H22.1445V81.124L22.2676 76.9404L19 85H17.9951L14.7344 76.9609L14.8643 81.124V85H13.5518V75.0469H15.2471ZM30.1426 85C30.0697 84.8542 30.0104 84.5944 29.9648 84.2207C29.377 84.8314 28.6751 85.1367 27.8594 85.1367C27.1302 85.1367 26.5309 84.9316 26.0615 84.5215C25.5967 84.1068 25.3643 83.5827 25.3643 82.9492C25.3643 82.179 25.6559 81.582 26.2393 81.1582C26.8271 80.7298 27.652 80.5156 28.7139 80.5156H29.9443V79.9346C29.9443 79.4925 29.8122 79.1416 29.5479 78.8818C29.2835 78.6175 28.8939 78.4854 28.3789 78.4854C27.9277 78.4854 27.5495 78.5993 27.2441 78.8271C26.9388 79.055 26.7861 79.3307 26.7861 79.6543H25.5146C25.5146 79.2852 25.6445 78.9297 25.9043 78.5879C26.1686 78.2415 26.5241 77.9681 26.9707 77.7676C27.4219 77.5671 27.9163 77.4668 28.4541 77.4668C29.3063 77.4668 29.974 77.681 30.457 78.1094C30.9401 78.5332 31.1908 79.1188 31.209 79.8662V83.2705C31.209 83.9495 31.2956 84.4896 31.4688 84.8906V85H30.1426ZM28.0439 84.0361C28.4404 84.0361 28.8164 83.9336 29.1719 83.7285C29.5273 83.5234 29.7848 83.2568 29.9443 82.9287V81.4111H28.9531C27.4036 81.4111 26.6289 81.8646 26.6289 82.7715C26.6289 83.168 26.7611 83.4779 27.0254 83.7012C27.2897 83.9245 27.6292 84.0361 28.0439 84.0361ZM34.3877 77.6035L34.4287 78.5332C34.9938 77.8223 35.7321 77.4668 36.6436 77.4668C38.2067 77.4668 38.9951 78.3486 39.0088 80.1123V85H37.7441V80.1055C37.7396 79.5723 37.6165 79.1781 37.375 78.9229C37.138 78.6676 36.7666 78.54 36.2607 78.54C35.8506 78.54 35.4906 78.6494 35.1807 78.8682C34.8708 79.0869 34.6292 79.374 34.4561 79.7295V85H33.1914V77.6035H34.3877ZM45.4824 85C45.4095 84.8542 45.3503 84.5944 45.3047 84.2207C44.7168 84.8314 44.015 85.1367 43.1992 85.1367C42.4701 85.1367 41.8708 84.9316 41.4014 84.5215C40.9365 84.1068 40.7041 83.5827 40.7041 82.9492C40.7041 82.179 40.9958 81.582 41.5791 81.1582C42.167 80.7298 42.9919 80.5156 44.0537 80.5156H45.2842V79.9346C45.2842 79.4925 45.152 79.1416 44.8877 78.8818C44.6234 78.6175 44.2337 78.4854 43.7188 78.4854C43.2676 78.4854 42.8893 78.5993 42.584 78.8271C42.2786 79.055 42.126 79.3307 42.126 79.6543H40.8545C40.8545 79.2852 40.9844 78.9297 41.2441 78.5879C41.5085 78.2415 41.8639 77.9681 42.3105 77.7676C42.7617 77.5671 43.2562 77.4668 43.7939 77.4668C44.6462 77.4668 45.3138 77.681 45.7969 78.1094C46.2799 78.5332 46.5306 79.1188 46.5488 79.8662V83.2705C46.5488 83.9495 46.6354 84.4896 46.8086 84.8906V85H45.4824ZM43.3838 84.0361C43.7803 84.0361 44.1562 83.9336 44.5117 83.7285C44.8672 83.5234 45.1247 83.2568 45.2842 82.9287V81.4111H44.293C42.7435 81.4111 41.9688 81.8646 41.9688 82.7715C41.9688 83.168 42.1009 83.4779 42.3652 83.7012C42.6296 83.9245 42.9691 84.0361 43.3838 84.0361ZM48.2305 81.2402C48.2305 80.0872 48.4971 79.1712 49.0303 78.4922C49.5635 77.8086 50.2699 77.4668 51.1494 77.4668C52.0518 77.4668 52.7559 77.7858 53.2617 78.4238L53.3232 77.6035H54.4785V84.8223C54.4785 85.7793 54.1937 86.5335 53.624 87.085C53.0589 87.6364 52.2979 87.9121 51.3408 87.9121C50.8076 87.9121 50.2858 87.7982 49.7754 87.5703C49.265 87.3424 48.8753 87.0303 48.6064 86.6338L49.2627 85.875C49.805 86.5449 50.4681 86.8799 51.252 86.8799C51.8672 86.8799 52.3457 86.7067 52.6875 86.3604C53.0339 86.014 53.207 85.5264 53.207 84.8975V84.2617C52.7012 84.8451 52.0107 85.1367 51.1357 85.1367C50.2699 85.1367 49.568 84.7881 49.0303 84.0908C48.4971 83.3936 48.2305 82.4434 48.2305 81.2402ZM49.502 81.3838C49.502 82.2178 49.6729 82.874 50.0146 83.3525C50.3564 83.8265 50.835 84.0635 51.4502 84.0635C52.2477 84.0635 52.8333 83.7012 53.207 82.9766V79.5996C52.8197 78.8932 52.2386 78.54 51.4639 78.54C50.8486 78.54 50.3678 78.7793 50.0215 79.2578C49.6751 79.7363 49.502 80.445 49.502 81.3838ZM59.4619 85.1367C58.4593 85.1367 57.6436 84.8086 57.0146 84.1523C56.3857 83.4915 56.0713 82.6097 56.0713 81.5068V81.2744C56.0713 80.5407 56.2103 79.8867 56.4883 79.3125C56.7708 78.7337 57.1628 78.2826 57.6641 77.959C58.1699 77.6309 58.7168 77.4668 59.3047 77.4668C60.2663 77.4668 61.0137 77.7835 61.5469 78.417C62.0801 79.0505 62.3467 79.9574 62.3467 81.1377V81.6641H57.3359C57.3542 82.3932 57.5661 82.9834 57.9717 83.4346C58.3818 83.8812 58.9014 84.1045 59.5303 84.1045C59.9769 84.1045 60.3551 84.0133 60.665 83.8311C60.9749 83.6488 61.2461 83.4072 61.4785 83.1064L62.251 83.708C61.6312 84.6605 60.7015 85.1367 59.4619 85.1367ZM59.3047 78.5059C58.7943 78.5059 58.3659 78.6927 58.0195 79.0664C57.6732 79.4355 57.459 79.9551 57.377 80.625H61.082V80.5293C61.0456 79.8867 60.8724 79.39 60.5625 79.0391C60.2526 78.6836 59.8333 78.5059 59.3047 78.5059ZM67.3916 78.7383C67.2002 78.7064 66.9928 78.6904 66.7695 78.6904C65.9401 78.6904 65.3773 79.0436 65.0811 79.75V85H63.8164V77.6035H65.0469L65.0674 78.458C65.4821 77.7972 66.07 77.4668 66.8311 77.4668C67.0771 77.4668 67.264 77.4987 67.3916 77.5625V78.7383Z" fill="black"/>
<circle opacity="0.2" cx="40" cy="180" r="30" fill="#43BAD6"/>
<circle cx="40" cy="180" r="10" fill="#BEBEBE"/>
<path d="M13.6611 235V225.047H16.4707C17.3366 225.047 18.1022 225.238 18.7676 225.621C19.4329 226.004 19.9456 226.549 20.3057 227.255C20.6702 227.961 20.8548 228.772 20.8594 229.688V230.324C20.8594 231.263 20.6771 232.086 20.3125 232.792C19.9525 233.498 19.4352 234.041 18.7607 234.419C18.0908 234.797 17.3092 234.991 16.416 235H13.6611ZM14.9736 226.127V233.927H16.3545C17.3662 233.927 18.1523 233.612 18.7129 232.983C19.278 232.354 19.5605 231.459 19.5605 230.297V229.716C19.5605 228.586 19.2939 227.708 18.7607 227.084C18.2321 226.455 17.4801 226.136 16.5049 226.127H14.9736ZM25.7197 235.137C24.7171 235.137 23.9014 234.809 23.2725 234.152C22.6436 233.492 22.3291 232.61 22.3291 231.507V231.274C22.3291 230.541 22.4681 229.887 22.7461 229.312C23.0286 228.734 23.4206 228.283 23.9219 227.959C24.4277 227.631 24.9746 227.467 25.5625 227.467C26.5241 227.467 27.2715 227.784 27.8047 228.417C28.3379 229.05 28.6045 229.957 28.6045 231.138V231.664H23.5938C23.612 232.393 23.8239 232.983 24.2295 233.435C24.6396 233.881 25.1592 234.104 25.7881 234.104C26.2347 234.104 26.613 234.013 26.9229 233.831C27.2327 233.649 27.5039 233.407 27.7363 233.106L28.5088 233.708C27.889 234.66 26.9593 235.137 25.7197 235.137ZM25.5625 228.506C25.0521 228.506 24.6237 228.693 24.2773 229.066C23.931 229.436 23.7168 229.955 23.6348 230.625H27.3398V230.529C27.3034 229.887 27.1302 229.39 26.8203 229.039C26.5104 228.684 26.0911 228.506 25.5625 228.506ZM34.3809 233.038C34.3809 232.696 34.251 232.432 33.9912 232.245C33.736 232.054 33.2871 231.89 32.6445 231.753C32.0065 231.616 31.4984 231.452 31.1201 231.261C30.7464 231.069 30.4684 230.841 30.2861 230.577C30.1084 230.313 30.0195 229.998 30.0195 229.634C30.0195 229.028 30.2747 228.515 30.7852 228.096C31.3001 227.676 31.9564 227.467 32.7539 227.467C33.5924 227.467 34.2715 227.683 34.791 228.116C35.3151 228.549 35.5771 229.103 35.5771 229.777H34.3057C34.3057 229.431 34.1576 229.132 33.8613 228.882C33.5697 228.631 33.2005 228.506 32.7539 228.506C32.2936 228.506 31.9336 228.606 31.6738 228.807C31.4141 229.007 31.2842 229.269 31.2842 229.593C31.2842 229.898 31.4049 230.128 31.6465 230.283C31.888 230.438 32.3232 230.586 32.9521 230.728C33.5856 230.869 34.0983 231.037 34.4902 231.233C34.8822 231.429 35.1715 231.666 35.3584 231.944C35.5498 232.218 35.6455 232.553 35.6455 232.949C35.6455 233.61 35.3812 234.141 34.8525 234.542C34.3239 234.938 33.638 235.137 32.7949 235.137C32.2025 235.137 31.6784 235.032 31.2227 234.822C30.7669 234.613 30.4092 234.321 30.1494 233.947C29.8942 233.569 29.7666 233.161 29.7666 232.724H31.0312C31.054 233.147 31.2227 233.485 31.5371 233.735C31.8561 233.981 32.2754 234.104 32.7949 234.104C33.2734 234.104 33.6562 234.009 33.9434 233.817C34.235 233.621 34.3809 233.362 34.3809 233.038ZM38.667 235H37.4023V227.604H38.667V235ZM37.2998 225.642C37.2998 225.437 37.3613 225.263 37.4844 225.122C37.612 224.981 37.7988 224.91 38.0449 224.91C38.291 224.91 38.4779 224.981 38.6055 225.122C38.7331 225.263 38.7969 225.437 38.7969 225.642C38.7969 225.847 38.7331 226.018 38.6055 226.154C38.4779 226.291 38.291 226.359 38.0449 226.359C37.7988 226.359 37.612 226.291 37.4844 226.154C37.3613 226.018 37.2998 225.847 37.2998 225.642ZM40.3965 231.24C40.3965 230.087 40.6631 229.171 41.1963 228.492C41.7295 227.809 42.4359 227.467 43.3154 227.467C44.2178 227.467 44.9219 227.786 45.4277 228.424L45.4893 227.604H46.6445V234.822C46.6445 235.779 46.3597 236.534 45.79 237.085C45.2249 237.636 44.4639 237.912 43.5068 237.912C42.9736 237.912 42.4518 237.798 41.9414 237.57C41.431 237.342 41.0413 237.03 40.7725 236.634L41.4287 235.875C41.971 236.545 42.6341 236.88 43.418 236.88C44.0332 236.88 44.5117 236.707 44.8535 236.36C45.1999 236.014 45.373 235.526 45.373 234.897V234.262C44.8672 234.845 44.1768 235.137 43.3018 235.137C42.4359 235.137 41.734 234.788 41.1963 234.091C40.6631 233.394 40.3965 232.443 40.3965 231.24ZM41.668 231.384C41.668 232.218 41.8389 232.874 42.1807 233.353C42.5225 233.826 43.001 234.063 43.6162 234.063C44.4137 234.063 44.9993 233.701 45.373 232.977V229.6C44.9857 228.893 44.4046 228.54 43.6299 228.54C43.0146 228.54 42.5339 228.779 42.1875 229.258C41.8411 229.736 41.668 230.445 41.668 231.384ZM49.7549 227.604L49.7959 228.533C50.361 227.822 51.0993 227.467 52.0107 227.467C53.5739 227.467 54.3623 228.349 54.376 230.112V235H53.1113V230.105C53.1068 229.572 52.9837 229.178 52.7422 228.923C52.5052 228.668 52.1338 228.54 51.6279 228.54C51.2178 228.54 50.8577 228.649 50.5479 228.868C50.238 229.087 49.9964 229.374 49.8232 229.729V235H48.5586V227.604H49.7549ZM59.3525 235.137C58.3499 235.137 57.5342 234.809 56.9053 234.152C56.2764 233.492 55.9619 232.61 55.9619 231.507V231.274C55.9619 230.541 56.1009 229.887 56.3789 229.312C56.6615 228.734 57.0534 228.283 57.5547 227.959C58.0605 227.631 58.6074 227.467 59.1953 227.467C60.1569 227.467 60.9043 227.784 61.4375 228.417C61.9707 229.05 62.2373 229.957 62.2373 231.138V231.664H57.2266C57.2448 232.393 57.4567 232.983 57.8623 233.435C58.2725 233.881 58.792 234.104 59.4209 234.104C59.8675 234.104 60.2458 234.013 60.5557 233.831C60.8656 233.649 61.1367 233.407 61.3691 233.106L62.1416 233.708C61.5218 234.66 60.5921 235.137 59.3525 235.137ZM59.1953 228.506C58.6849 228.506 58.2565 228.693 57.9102 229.066C57.5638 229.436 57.3496 229.955 57.2676 230.625H60.9727V230.529C60.9362 229.887 60.763 229.39 60.4531 229.039C60.1432 228.684 59.724 228.506 59.1953 228.506ZM67.2822 228.738C67.0908 228.706 66.8835 228.69 66.6602 228.69C65.8307 228.69 65.2679 229.044 64.9717 229.75V235H63.707V227.604H64.9375L64.958 228.458C65.3727 227.797 65.9606 227.467 66.7217 227.467C66.9678 227.467 67.1546 227.499 67.2822 227.562V228.738Z" fill="black"/>
</svg>
