<svg width="220" height="90" viewBox="0 0 220 90" fill="none" xmlns="http://www.w3.org/2000/svg">
<path d="M95 30.0001H125M95 30.0001L99.4118 25M95 30.0001L99.4118 35M125 30.0001L120.588 25M125 30.0001L120.588 35" stroke="#BEBEBE" stroke-width="2" stroke-linecap="round"/>
<circle cx="40" cy="30" r="29.5" stroke="#CACACA"/>
<circle cx="40" cy="30" r="9.5" stroke="#43BAD6"/>
<path d="M3.73926 80.5293H2.5293V85H1.2168V75.0469H2.5293V79.4355H3.55469L7.03418 75.0469H8.66797L4.86719 79.873L8.94824 85H7.3418L3.73926 80.5293ZM16.0166 77.6035V85H14.7451V78.6494H12.2295L12.0791 81.418C11.9971 82.6895 11.7829 83.5986 11.4365 84.1455C11.0947 84.6924 10.5501 84.9772 9.80273 85H9.29688V83.8857L9.65918 83.8584C10.0693 83.8128 10.3633 83.5758 10.541 83.1475C10.7188 82.7191 10.8327 81.9261 10.8828 80.7686L11.0195 77.6035H16.0166ZM22.832 77.6035H24.0967V85H22.832V79.6064L19.4209 85H18.1562V77.6035H19.4209V83.0039L22.832 77.6035ZM29.1963 85.1367C28.1937 85.1367 27.3779 84.8086 26.749 84.1523C26.1201 83.4915 25.8057 82.6097 25.8057 81.5068V81.2744C25.8057 80.5407 25.9447 79.8867 26.2227 79.3125C26.5052 78.7337 26.8971 78.2826 27.3984 77.959C27.9043 77.6309 28.4512 77.4668 29.0391 77.4668C30.0007 77.4668 30.748 77.7835 31.2812 78.417C31.8145 79.0505 32.0811 79.9574 32.0811 81.1377V81.6641H27.0703C27.0885 82.3932 27.3005 82.9834 27.7061 83.4346C28.1162 83.8812 28.6357 84.1045 29.2646 84.1045C29.7113 84.1045 30.0895 84.0133 30.3994 83.8311C30.7093 83.6488 30.9805 83.4072 31.2129 83.1064L31.9854 83.708C31.3656 84.6605 30.4359 85.1367 29.1963 85.1367ZM29.0391 78.5059C28.5286 78.5059 28.1003 78.6927 27.7539 79.0664C27.4076 79.4355 27.1934 79.9551 27.1113 80.625H30.8164V80.5293C30.7799 79.8867 30.6068 79.39 30.2969 79.0391C29.987 78.6836 29.5677 78.5059 29.0391 78.5059ZM39.5938 85H38.3291V81.8418H34.9316V85H33.6602V77.6035H34.9316V80.8096H38.3291V77.6035H39.5938V85ZM47.127 78.6289H44.6455V85H43.3809V78.6289H40.9473V77.6035H47.127V78.6289Z" fill="black"/>
<circle cx="180" cy="30" r="29.5" stroke="#CACACA"/>
<circle cx="180" cy="30" r="10" fill="#43BAD6"/>
<path d="M142.851 75.0469L146.104 83.168L149.358 75.0469H151.061V85H149.748V81.124L149.871 76.9404L146.604 85H145.599L142.338 76.9609L142.468 81.124V85H141.155V75.0469H142.851ZM156.249 85.1367C155.246 85.1367 154.431 84.8086 153.802 84.1523C153.173 83.4915 152.858 82.6097 152.858 81.5068V81.2744C152.858 80.5407 152.997 79.8867 153.275 79.3125C153.558 78.7337 153.95 78.2826 154.451 77.959C154.957 77.6309 155.504 77.4668 156.092 77.4668C157.053 77.4668 157.801 77.7835 158.334 78.417C158.867 79.0505 159.134 79.9574 159.134 81.1377V81.6641H154.123C154.141 82.3932 154.353 82.9834 154.759 83.4346C155.169 83.8812 155.688 84.1045 156.317 84.1045C156.764 84.1045 157.142 84.0133 157.452 83.8311C157.762 83.6488 158.033 83.4072 158.266 83.1064L159.038 83.708C158.418 84.6605 157.489 85.1367 156.249 85.1367ZM156.092 78.5059C155.581 78.5059 155.153 78.6927 154.807 79.0664C154.46 79.4355 154.246 79.9551 154.164 80.625H157.869V80.5293C157.833 79.8867 157.66 79.39 157.35 79.0391C157.04 78.6836 156.62 78.5059 156.092 78.5059ZM166.646 85H165.382V81.8418H161.984V85H160.713V77.6035H161.984V80.8096H165.382V77.6035H166.646V85ZM171.753 85.1367C170.75 85.1367 169.935 84.8086 169.306 84.1523C168.677 83.4915 168.362 82.6097 168.362 81.5068V81.2744C168.362 80.5407 168.501 79.8867 168.779 79.3125C169.062 78.7337 169.454 78.2826 169.955 77.959C170.461 77.6309 171.008 77.4668 171.596 77.4668C172.557 77.4668 173.305 77.7835 173.838 78.417C174.371 79.0505 174.638 79.9574 174.638 81.1377V81.6641H169.627C169.645 82.3932 169.857 82.9834 170.263 83.4346C170.673 83.8812 171.192 84.1045 171.821 84.1045C172.268 84.1045 172.646 84.0133 172.956 83.8311C173.266 83.6488 173.537 83.4072 173.77 83.1064L174.542 83.708C173.922 84.6605 172.993 85.1367 171.753 85.1367ZM171.596 78.5059C171.085 78.5059 170.657 78.6927 170.311 79.0664C169.964 79.4355 169.75 79.9551 169.668 80.625H173.373V80.5293C173.337 79.8867 173.163 79.39 172.854 79.0391C172.544 78.6836 172.124 78.5059 171.596 78.5059ZM176.046 83.9678L176.483 83.4277C176.976 82.7897 177.256 81.8327 177.324 80.5566L177.44 77.6035H182.205V83.9678H183.155V87.1738H181.891V85H176.729V87.1738H175.465L175.472 83.9678H176.046ZM177.543 83.9678H180.94V78.7725H178.664L178.589 80.5361C178.511 82.0081 178.163 83.152 177.543 83.9678ZM190.456 81.7871H189.567V85H188.303V81.7871H187.414L185.343 85H183.743L186.389 81.1719L183.996 77.6035H185.527L187.435 80.666H188.303V77.6035H189.567V80.666H190.429L192.35 77.6035H193.881L191.481 81.1787L194.127 85H192.527L190.456 81.7871ZM198.208 85.1367C197.205 85.1367 196.39 84.8086 195.761 84.1523C195.132 83.4915 194.817 82.6097 194.817 81.5068V81.2744C194.817 80.5407 194.956 79.8867 195.234 79.3125C195.517 78.7337 195.909 78.2826 196.41 77.959C196.916 77.6309 197.463 77.4668 198.051 77.4668C199.012 77.4668 199.76 77.7835 200.293 78.417C200.826 79.0505 201.093 79.9574 201.093 81.1377V81.6641H196.082C196.1 82.3932 196.312 82.9834 196.718 83.4346C197.128 83.8812 197.647 84.1045 198.276 84.1045C198.723 84.1045 199.101 84.0133 199.411 83.8311C199.721 83.6488 199.992 83.4072 200.225 83.1064L200.997 83.708C200.377 84.6605 199.448 85.1367 198.208 85.1367ZM198.051 78.5059C197.54 78.5059 197.112 78.6927 196.766 79.0664C196.419 79.4355 196.205 79.9551 196.123 80.625H199.828V80.5293C199.792 79.8867 199.618 79.39 199.309 79.0391C198.999 78.6836 198.579 78.5059 198.051 78.5059ZM208.811 81.3838C208.811 82.5094 208.553 83.4163 208.038 84.1045C207.523 84.7926 206.826 85.1367 205.946 85.1367C205.049 85.1367 204.342 84.8519 203.827 84.2822V87.8438H202.562V77.6035H203.718L203.779 78.4238C204.294 77.7858 205.01 77.4668 205.926 77.4668C206.814 77.4668 207.516 77.8018 208.031 78.4717C208.551 79.1416 208.811 80.0736 208.811 81.2676V81.3838ZM207.546 81.2402C207.546 80.4062 207.368 79.7477 207.013 79.2646C206.657 78.7816 206.17 78.54 205.55 78.54C204.784 78.54 204.21 78.8796 203.827 79.5586V83.0928C204.205 83.7673 204.784 84.1045 205.563 84.1045C206.17 84.1045 206.65 83.8652 207.006 83.3867C207.366 82.9036 207.546 82.1882 207.546 81.2402Z" fill="black"/>
</svg>
