<svg width="694" height="165" viewBox="0 0 694 165" fill="none" xmlns="http://www.w3.org/2000/svg">
<rect width="693.5" height="164" transform="translate(0 1)" fill="white"/>
<circle cx="513.5" cy="91" r="29.5" stroke="#CACACA"/>
<circle cx="513.5" cy="91" r="9.5" stroke="#43BAD6"/>
<circle cx="664" cy="91" r="29.5" stroke="#CACACA"/>
<circle cx="664" cy="91" r="9.5" stroke="#43BAD6"/>
<path d="M654.477 140.842C654.354 141.895 653.964 142.708 653.308 143.282C652.656 143.852 651.788 144.137 650.703 144.137C649.527 144.137 648.584 143.715 647.873 142.872C647.167 142.029 646.813 140.901 646.813 139.488V138.531C646.813 137.606 646.978 136.793 647.306 136.091C647.638 135.389 648.108 134.851 648.714 134.478C649.32 134.099 650.022 133.91 650.819 133.91C651.877 133.91 652.724 134.206 653.362 134.799C654 135.387 654.372 136.202 654.477 137.246H653.157C653.043 136.453 652.795 135.879 652.412 135.523C652.034 135.168 651.503 134.99 650.819 134.99C649.981 134.99 649.322 135.3 648.844 135.92C648.37 136.54 648.133 137.422 648.133 138.565V139.529C648.133 140.609 648.358 141.468 648.81 142.106C649.261 142.744 649.892 143.063 650.703 143.063C651.432 143.063 651.991 142.899 652.378 142.571C652.77 142.239 653.03 141.662 653.157 140.842H654.477ZM657.45 144H656.186V133.5H657.45V144ZM660.854 144H659.59V136.604H660.854V144ZM659.487 134.642C659.487 134.437 659.549 134.263 659.672 134.122C659.799 133.981 659.986 133.91 660.232 133.91C660.479 133.91 660.665 133.981 660.793 134.122C660.921 134.263 660.984 134.437 660.984 134.642C660.984 134.847 660.921 135.018 660.793 135.154C660.665 135.291 660.479 135.359 660.232 135.359C659.986 135.359 659.799 135.291 659.672 135.154C659.549 135.018 659.487 134.847 659.487 134.642ZM665.954 144.137C664.951 144.137 664.136 143.809 663.507 143.152C662.878 142.492 662.563 141.61 662.563 140.507V140.274C662.563 139.541 662.702 138.887 662.98 138.312C663.263 137.734 663.655 137.283 664.156 136.959C664.662 136.631 665.209 136.467 665.797 136.467C666.758 136.467 667.506 136.784 668.039 137.417C668.572 138.05 668.839 138.957 668.839 140.138V140.664H663.828C663.846 141.393 664.058 141.983 664.464 142.435C664.874 142.881 665.394 143.104 666.022 143.104C666.469 143.104 666.847 143.013 667.157 142.831C667.467 142.649 667.738 142.407 667.971 142.106L668.743 142.708C668.123 143.66 667.194 144.137 665.954 144.137ZM665.797 137.506C665.286 137.506 664.858 137.693 664.512 138.066C664.165 138.436 663.951 138.955 663.869 139.625H667.574V139.529C667.538 138.887 667.365 138.39 667.055 138.039C666.745 137.684 666.326 137.506 665.797 137.506ZM671.505 136.604L671.546 137.533C672.111 136.822 672.849 136.467 673.761 136.467C675.324 136.467 676.112 137.349 676.126 139.112V144H674.861V139.105C674.857 138.572 674.734 138.178 674.492 137.923C674.255 137.668 673.884 137.54 673.378 137.54C672.968 137.54 672.608 137.649 672.298 137.868C671.988 138.087 671.746 138.374 671.573 138.729V144H670.309V136.604H671.505ZM679.749 134.812V136.604H681.13V137.581H679.749V142.168C679.749 142.464 679.811 142.688 679.934 142.838C680.057 142.984 680.266 143.057 680.562 143.057C680.708 143.057 680.909 143.029 681.164 142.975V144C680.831 144.091 680.508 144.137 680.193 144.137C679.628 144.137 679.202 143.966 678.915 143.624C678.628 143.282 678.484 142.797 678.484 142.168V137.581H677.138V136.604H678.484V134.812H679.749Z" fill="black"/>
<circle cx="63.5" cy="91" r="29.5" stroke="#CACACA"/>
<circle cx="63.5" cy="91" r="10" fill="#43BAD6"/>
<path d="M38.2471 134.047L41.501 142.168L44.7549 134.047H46.457V144H45.1445V140.124L45.2676 135.94L42 144H40.9951L37.7344 135.961L37.8643 140.124V144H36.5518V134.047H38.2471ZM53.1426 144C53.0697 143.854 53.0104 143.594 52.9648 143.221C52.377 143.831 51.6751 144.137 50.8594 144.137C50.1302 144.137 49.5309 143.932 49.0615 143.521C48.5967 143.107 48.3643 142.583 48.3643 141.949C48.3643 141.179 48.6559 140.582 49.2393 140.158C49.8271 139.73 50.652 139.516 51.7139 139.516H52.9443V138.935C52.9443 138.493 52.8122 138.142 52.5479 137.882C52.2835 137.618 51.8939 137.485 51.3789 137.485C50.9277 137.485 50.5495 137.599 50.2441 137.827C49.9388 138.055 49.7861 138.331 49.7861 138.654H48.5146C48.5146 138.285 48.6445 137.93 48.9043 137.588C49.1686 137.242 49.5241 136.968 49.9707 136.768C50.4219 136.567 50.9163 136.467 51.4541 136.467C52.3063 136.467 52.974 136.681 53.457 137.109C53.9401 137.533 54.1908 138.119 54.209 138.866V142.271C54.209 142.95 54.2956 143.49 54.4688 143.891V144H53.1426ZM51.0439 143.036C51.4404 143.036 51.8164 142.934 52.1719 142.729C52.5273 142.523 52.7848 142.257 52.9443 141.929V140.411H51.9531C50.4036 140.411 49.6289 140.865 49.6289 141.771C49.6289 142.168 49.7611 142.478 50.0254 142.701C50.2897 142.924 50.6292 143.036 51.0439 143.036ZM57.3877 136.604L57.4287 137.533C57.9938 136.822 58.7321 136.467 59.6436 136.467C61.2067 136.467 61.9951 137.349 62.0088 139.112V144H60.7441V139.105C60.7396 138.572 60.6165 138.178 60.375 137.923C60.138 137.668 59.7666 137.54 59.2607 137.54C58.8506 137.54 58.4906 137.649 58.1807 137.868C57.8708 138.087 57.6292 138.374 57.4561 138.729V144H56.1914V136.604H57.3877ZM68.4824 144C68.4095 143.854 68.3503 143.594 68.3047 143.221C67.7168 143.831 67.015 144.137 66.1992 144.137C65.4701 144.137 64.8708 143.932 64.4014 143.521C63.9365 143.107 63.7041 142.583 63.7041 141.949C63.7041 141.179 63.9958 140.582 64.5791 140.158C65.167 139.73 65.9919 139.516 67.0537 139.516H68.2842V138.935C68.2842 138.493 68.152 138.142 67.8877 137.882C67.6234 137.618 67.2337 137.485 66.7188 137.485C66.2676 137.485 65.8893 137.599 65.584 137.827C65.2786 138.055 65.126 138.331 65.126 138.654H63.8545C63.8545 138.285 63.9844 137.93 64.2441 137.588C64.5085 137.242 64.8639 136.968 65.3105 136.768C65.7617 136.567 66.2562 136.467 66.7939 136.467C67.6462 136.467 68.3138 136.681 68.7969 137.109C69.2799 137.533 69.5306 138.119 69.5488 138.866V142.271C69.5488 142.95 69.6354 143.49 69.8086 143.891V144H68.4824ZM66.3838 143.036C66.7803 143.036 67.1562 142.934 67.5117 142.729C67.8672 142.523 68.1247 142.257 68.2842 141.929V140.411H67.293C65.7435 140.411 64.9688 140.865 64.9688 141.771C64.9688 142.168 65.1009 142.478 65.3652 142.701C65.6296 142.924 65.9691 143.036 66.3838 143.036ZM71.2305 140.24C71.2305 139.087 71.4971 138.171 72.0303 137.492C72.5635 136.809 73.2699 136.467 74.1494 136.467C75.0518 136.467 75.7559 136.786 76.2617 137.424L76.3232 136.604H77.4785V143.822C77.4785 144.779 77.1937 145.534 76.624 146.085C76.0589 146.636 75.2979 146.912 74.3408 146.912C73.8076 146.912 73.2858 146.798 72.7754 146.57C72.265 146.342 71.8753 146.03 71.6064 145.634L72.2627 144.875C72.805 145.545 73.4681 145.88 74.252 145.88C74.8672 145.88 75.3457 145.707 75.6875 145.36C76.0339 145.014 76.207 144.526 76.207 143.897V143.262C75.7012 143.845 75.0107 144.137 74.1357 144.137C73.2699 144.137 72.568 143.788 72.0303 143.091C71.4971 142.394 71.2305 141.443 71.2305 140.24ZM72.502 140.384C72.502 141.218 72.6729 141.874 73.0146 142.353C73.3564 142.826 73.835 143.063 74.4502 143.063C75.2477 143.063 75.8333 142.701 76.207 141.977V138.6C75.8197 137.893 75.2386 137.54 74.4639 137.54C73.8486 137.54 73.3678 137.779 73.0215 138.258C72.6751 138.736 72.502 139.445 72.502 140.384ZM82.4619 144.137C81.4593 144.137 80.6436 143.809 80.0146 143.152C79.3857 142.492 79.0713 141.61 79.0713 140.507V140.274C79.0713 139.541 79.2103 138.887 79.4883 138.312C79.7708 137.734 80.1628 137.283 80.6641 136.959C81.1699 136.631 81.7168 136.467 82.3047 136.467C83.2663 136.467 84.0137 136.784 84.5469 137.417C85.0801 138.05 85.3467 138.957 85.3467 140.138V140.664H80.3359C80.3542 141.393 80.5661 141.983 80.9717 142.435C81.3818 142.881 81.9014 143.104 82.5303 143.104C82.9769 143.104 83.3551 143.013 83.665 142.831C83.9749 142.649 84.2461 142.407 84.4785 142.106L85.251 142.708C84.6312 143.66 83.7015 144.137 82.4619 144.137ZM82.3047 137.506C81.7943 137.506 81.3659 137.693 81.0195 138.066C80.6732 138.436 80.459 138.955 80.377 139.625H84.082V139.529C84.0456 138.887 83.8724 138.39 83.5625 138.039C83.2526 137.684 82.8333 137.506 82.3047 137.506ZM90.3916 137.738C90.2002 137.706 89.9928 137.69 89.7695 137.69C88.9401 137.69 88.3773 138.044 88.0811 138.75V144H86.8164V136.604H88.0469L88.0674 137.458C88.4821 136.797 89.07 136.467 89.8311 136.467C90.0771 136.467 90.264 136.499 90.3916 136.562V137.738Z" fill="black"/>
<path d="M333 51C333 51 300.103 26 214 26C124.205 26 95 51 95 51" stroke="#BEBEBE" stroke-width="2" stroke-linecap="round" stroke-dasharray="0.5 4"/>
<path d="M101 51.5L95 51.5L95 45" stroke="#BEBEBE" stroke-width="2" stroke-linecap="round"/>
<path d="M95 51C95 51 169.502 0.999999 364.5 0.999999C567.86 0.999999 634 51 634 51" stroke="#BEBEBE" stroke-width="2" stroke-linecap="round" stroke-dasharray="0.5 4"/>
<path d="M634.5 45V51H628" stroke="#BEBEBE" stroke-width="2" stroke-linecap="round"/>
<path d="M271 91.0001H305M305 91.0001L300 86M305 91.0001L300 96" stroke="#BEBEBE" stroke-width="2" stroke-linecap="round"/>
<path d="M421 91.0001H455M455 91.0001L450 86M455 91.0001L450 96" stroke="#BEBEBE" stroke-width="2" stroke-linecap="round"/>
<circle cx="363" cy="91" r="30" fill="#F0F0F0"/>
<circle cx="363" cy="91" r="10" fill="#43BAD6"/>
<path d="M186.219 134.047V140.814C186.214 141.753 185.918 142.521 185.33 143.118C184.747 143.715 183.954 144.05 182.951 144.123L182.603 144.137C181.513 144.137 180.645 143.843 179.998 143.255C179.351 142.667 179.023 141.858 179.014 140.828V134.047H180.312V140.787C180.312 141.507 180.511 142.068 180.907 142.469C181.304 142.865 181.869 143.063 182.603 143.063C183.345 143.063 183.913 142.865 184.305 142.469C184.701 142.072 184.899 141.514 184.899 140.794V134.047H186.219ZM189.698 144H188.386V134.047H189.698V144ZM195.577 144V134.047H198.387C199.253 134.047 200.018 134.238 200.684 134.621C201.349 135.004 201.862 135.549 202.222 136.255C202.586 136.961 202.771 137.772 202.775 138.688V139.324C202.775 140.263 202.593 141.086 202.229 141.792C201.868 142.498 201.351 143.041 200.677 143.419C200.007 143.797 199.225 143.991 198.332 144H195.577ZM196.89 135.127V142.927H198.271C199.282 142.927 200.068 142.612 200.629 141.983C201.194 141.354 201.477 140.459 201.477 139.297V138.716C201.477 137.586 201.21 136.708 200.677 136.084C200.148 135.455 199.396 135.136 198.421 135.127H196.89ZM210.391 139.399H206.077V142.927H211.088V144H204.765V134.047H211.02V135.127H206.077V138.326H210.391V139.399ZM216.83 142.038C216.83 141.696 216.7 141.432 216.44 141.245C216.185 141.054 215.736 140.89 215.094 140.753C214.456 140.616 213.948 140.452 213.569 140.261C213.196 140.069 212.918 139.841 212.735 139.577C212.558 139.313 212.469 138.998 212.469 138.634C212.469 138.028 212.724 137.515 213.234 137.096C213.749 136.676 214.406 136.467 215.203 136.467C216.042 136.467 216.721 136.683 217.24 137.116C217.764 137.549 218.026 138.103 218.026 138.777H216.755C216.755 138.431 216.607 138.132 216.311 137.882C216.019 137.631 215.65 137.506 215.203 137.506C214.743 137.506 214.383 137.606 214.123 137.807C213.863 138.007 213.733 138.269 213.733 138.593C213.733 138.898 213.854 139.128 214.096 139.283C214.337 139.438 214.772 139.586 215.401 139.728C216.035 139.869 216.548 140.037 216.939 140.233C217.331 140.429 217.621 140.666 217.808 140.944C217.999 141.218 218.095 141.553 218.095 141.949C218.095 142.61 217.83 143.141 217.302 143.542C216.773 143.938 216.087 144.137 215.244 144.137C214.652 144.137 214.128 144.032 213.672 143.822C213.216 143.613 212.858 143.321 212.599 142.947C212.343 142.569 212.216 142.161 212.216 141.724H213.48C213.503 142.147 213.672 142.485 213.986 142.735C214.305 142.981 214.725 143.104 215.244 143.104C215.723 143.104 216.105 143.009 216.393 142.817C216.684 142.621 216.83 142.362 216.83 142.038ZM221.116 144H219.852V136.604H221.116V144ZM219.749 134.642C219.749 134.437 219.811 134.263 219.934 134.122C220.061 133.981 220.248 133.91 220.494 133.91C220.74 133.91 220.927 133.981 221.055 134.122C221.182 134.263 221.246 134.437 221.246 134.642C221.246 134.847 221.182 135.018 221.055 135.154C220.927 135.291 220.74 135.359 220.494 135.359C220.248 135.359 220.061 135.291 219.934 135.154C219.811 135.018 219.749 134.847 219.749 134.642ZM222.846 140.24C222.846 139.087 223.112 138.171 223.646 137.492C224.179 136.809 224.885 136.467 225.765 136.467C226.667 136.467 227.371 136.786 227.877 137.424L227.938 136.604H229.094V143.822C229.094 144.779 228.809 145.534 228.239 146.085C227.674 146.636 226.913 146.912 225.956 146.912C225.423 146.912 224.901 146.798 224.391 146.57C223.88 146.342 223.491 146.03 223.222 145.634L223.878 144.875C224.42 145.545 225.083 145.88 225.867 145.88C226.482 145.88 226.961 145.707 227.303 145.36C227.649 145.014 227.822 144.526 227.822 143.897V143.262C227.316 143.845 226.626 144.137 225.751 144.137C224.885 144.137 224.183 143.788 223.646 143.091C223.112 142.394 222.846 141.443 222.846 140.24ZM224.117 140.384C224.117 141.218 224.288 141.874 224.63 142.353C224.972 142.826 225.45 143.063 226.065 143.063C226.863 143.063 227.449 142.701 227.822 141.977V138.6C227.435 137.893 226.854 137.54 226.079 137.54C225.464 137.54 224.983 137.779 224.637 138.258C224.29 138.736 224.117 139.445 224.117 140.384ZM232.204 136.604L232.245 137.533C232.81 136.822 233.549 136.467 234.46 136.467C236.023 136.467 236.812 137.349 236.825 139.112V144H235.561V139.105C235.556 138.572 235.433 138.178 235.191 137.923C234.954 137.668 234.583 137.54 234.077 137.54C233.667 137.54 233.307 137.649 232.997 137.868C232.687 138.087 232.446 138.374 232.272 138.729V144H231.008V136.604H232.204ZM241.802 144.137C240.799 144.137 239.983 143.809 239.354 143.152C238.726 142.492 238.411 141.61 238.411 140.507V140.274C238.411 139.541 238.55 138.887 238.828 138.312C239.111 137.734 239.503 137.283 240.004 136.959C240.51 136.631 241.057 136.467 241.645 136.467C242.606 136.467 243.354 136.784 243.887 137.417C244.42 138.05 244.687 138.957 244.687 140.138V140.664H239.676C239.694 141.393 239.906 141.983 240.312 142.435C240.722 142.881 241.241 143.104 241.87 143.104C242.317 143.104 242.695 143.013 243.005 142.831C243.315 142.649 243.586 142.407 243.818 142.106L244.591 142.708C243.971 143.66 243.041 144.137 241.802 144.137ZM241.645 137.506C241.134 137.506 240.706 137.693 240.359 138.066C240.013 138.436 239.799 138.955 239.717 139.625H243.422V139.529C243.385 138.887 243.212 138.39 242.902 138.039C242.592 137.684 242.173 137.506 241.645 137.506ZM249.731 137.738C249.54 137.706 249.333 137.69 249.109 137.69C248.28 137.69 247.717 138.044 247.421 138.75V144H246.156V136.604H247.387L247.407 137.458C247.822 136.797 248.41 136.467 249.171 136.467C249.417 136.467 249.604 136.499 249.731 136.562V137.738Z" fill="black"/>
<circle cx="213.5" cy="91" r="30" fill="#43BAD6"/>
<circle cx="213.5" cy="91" r="10" fill="white"/>
<path d="M339.189 139.604H335.013V144H333.7V134.047H339.866V135.127H335.013V138.531H339.189V139.604ZM344.638 137.738C344.446 137.706 344.239 137.69 344.016 137.69C343.186 137.69 342.623 138.044 342.327 138.75V144H341.062V136.604H342.293L342.313 137.458C342.728 136.797 343.316 136.467 344.077 136.467C344.323 136.467 344.51 136.499 344.638 136.562V137.738ZM345.335 140.233C345.335 139.509 345.476 138.857 345.759 138.278C346.046 137.7 346.442 137.253 346.948 136.938C347.459 136.624 348.04 136.467 348.691 136.467C349.699 136.467 350.512 136.815 351.132 137.513C351.756 138.21 352.068 139.137 352.068 140.295V140.384C352.068 141.104 351.929 141.751 351.651 142.325C351.378 142.895 350.984 143.339 350.469 143.658C349.958 143.977 349.37 144.137 348.705 144.137C347.702 144.137 346.889 143.788 346.265 143.091C345.645 142.394 345.335 141.471 345.335 140.322V140.233ZM346.606 140.384C346.606 141.204 346.796 141.863 347.174 142.359C347.557 142.856 348.067 143.104 348.705 143.104C349.348 143.104 349.858 142.854 350.236 142.353C350.615 141.847 350.804 141.14 350.804 140.233C350.804 139.422 350.61 138.766 350.223 138.265C349.84 137.759 349.329 137.506 348.691 137.506C348.067 137.506 347.563 137.754 347.181 138.251C346.798 138.748 346.606 139.459 346.606 140.384ZM354.851 136.604L354.892 137.533C355.457 136.822 356.195 136.467 357.106 136.467C358.67 136.467 359.458 137.349 359.472 139.112V144H358.207V139.105C358.202 138.572 358.079 138.178 357.838 137.923C357.601 137.668 357.229 137.54 356.724 137.54C356.313 137.54 355.953 137.649 355.644 137.868C355.334 138.087 355.092 138.374 354.919 138.729V144H353.654V136.604H354.851ZM363.095 134.812V136.604H364.476V137.581H363.095V142.168C363.095 142.464 363.156 142.688 363.279 142.838C363.402 142.984 363.612 143.057 363.908 143.057C364.054 143.057 364.255 143.029 364.51 142.975V144C364.177 144.091 363.854 144.137 363.539 144.137C362.974 144.137 362.548 143.966 362.261 143.624C361.974 143.282 361.83 142.797 361.83 142.168V137.581H360.483V136.604H361.83V134.812H363.095ZM368.591 140.288H365.255V139.256H368.591V140.288ZM375.652 139.399H371.339V142.927H376.35V144H370.026V134.047H376.281V135.127H371.339V138.326H375.652V139.399ZM378.981 136.604L379.022 137.533C379.588 136.822 380.326 136.467 381.237 136.467C382.8 136.467 383.589 137.349 383.603 139.112V144H382.338V139.105C382.333 138.572 382.21 138.178 381.969 137.923C381.732 137.668 381.36 137.54 380.854 137.54C380.444 137.54 380.084 137.649 379.774 137.868C379.465 138.087 379.223 138.374 379.05 138.729V144H377.785V136.604H378.981ZM385.202 140.24C385.202 139.105 385.471 138.194 386.009 137.506C386.547 136.813 387.251 136.467 388.121 136.467C388.987 136.467 389.673 136.763 390.179 137.355V133.5H391.443V144H390.281L390.22 143.207C389.714 143.827 389.01 144.137 388.107 144.137C387.251 144.137 386.551 143.786 386.009 143.084C385.471 142.382 385.202 141.466 385.202 140.336V140.24ZM386.467 140.384C386.467 141.222 386.64 141.879 386.986 142.353C387.333 142.826 387.811 143.063 388.422 143.063C389.224 143.063 389.81 142.703 390.179 141.983V138.586C389.8 137.889 389.219 137.54 388.436 137.54C387.816 137.54 387.333 137.779 386.986 138.258C386.64 138.736 386.467 139.445 386.467 140.384ZM332.634 161V151.047H335.443C336.309 151.047 337.075 151.238 337.74 151.621C338.406 152.004 338.918 152.549 339.278 153.255C339.643 153.961 339.827 154.772 339.832 155.688V156.324C339.832 157.263 339.65 158.086 339.285 158.792C338.925 159.498 338.408 160.041 337.733 160.419C337.063 160.797 336.282 160.991 335.389 161H332.634ZM333.946 152.127V159.927H335.327C336.339 159.927 337.125 159.612 337.686 158.983C338.251 158.354 338.533 157.459 338.533 156.297V155.716C338.533 154.586 338.267 153.708 337.733 153.084C337.205 152.455 336.453 152.136 335.478 152.127H333.946ZM344.692 161.137C343.69 161.137 342.874 160.809 342.245 160.152C341.616 159.492 341.302 158.61 341.302 157.507V157.274C341.302 156.541 341.441 155.887 341.719 155.312C342.001 154.734 342.393 154.283 342.895 153.959C343.4 153.631 343.947 153.467 344.535 153.467C345.497 153.467 346.244 153.784 346.777 154.417C347.311 155.05 347.577 155.957 347.577 157.138V157.664H342.566C342.585 158.393 342.797 158.983 343.202 159.435C343.612 159.881 344.132 160.104 344.761 160.104C345.207 160.104 345.586 160.013 345.896 159.831C346.205 159.649 346.477 159.407 346.709 159.106L347.481 159.708C346.862 160.66 345.932 161.137 344.692 161.137ZM344.535 154.506C344.025 154.506 343.596 154.693 343.25 155.066C342.904 155.436 342.689 155.955 342.607 156.625H346.312V156.529C346.276 155.887 346.103 155.39 345.793 155.039C345.483 154.684 345.064 154.506 344.535 154.506ZM351.392 159.284L353.224 153.604H354.516L351.863 161H350.899L348.22 153.604H349.512L351.392 159.284ZM358.706 161.137C357.703 161.137 356.888 160.809 356.259 160.152C355.63 159.492 355.315 158.61 355.315 157.507V157.274C355.315 156.541 355.454 155.887 355.732 155.312C356.015 154.734 356.407 154.283 356.908 153.959C357.414 153.631 357.961 153.467 358.549 153.467C359.51 153.467 360.258 153.784 360.791 154.417C361.324 155.05 361.591 155.957 361.591 157.138V157.664H356.58C356.598 158.393 356.81 158.983 357.216 159.435C357.626 159.881 358.146 160.104 358.774 160.104C359.221 160.104 359.599 160.013 359.909 159.831C360.219 159.649 360.49 159.407 360.723 159.106L361.495 159.708C360.875 160.66 359.946 161.137 358.706 161.137ZM358.549 154.506C358.038 154.506 357.61 154.693 357.264 155.066C356.917 155.436 356.703 155.955 356.621 156.625H360.326V156.529C360.29 155.887 360.117 155.39 359.807 155.039C359.497 154.684 359.077 154.506 358.549 154.506ZM364.435 161H363.17V150.5H364.435V161ZM366.13 157.233C366.13 156.509 366.271 155.857 366.554 155.278C366.841 154.7 367.237 154.253 367.743 153.938C368.254 153.624 368.835 153.467 369.486 153.467C370.493 153.467 371.307 153.815 371.927 154.513C372.551 155.21 372.863 156.137 372.863 157.295V157.384C372.863 158.104 372.724 158.751 372.446 159.325C372.173 159.895 371.779 160.339 371.264 160.658C370.753 160.977 370.165 161.137 369.5 161.137C368.497 161.137 367.684 160.788 367.06 160.091C366.44 159.394 366.13 158.471 366.13 157.322V157.233ZM367.401 157.384C367.401 158.204 367.59 158.863 367.969 159.359C368.352 159.856 368.862 160.104 369.5 160.104C370.143 160.104 370.653 159.854 371.031 159.353C371.41 158.847 371.599 158.14 371.599 157.233C371.599 156.422 371.405 155.766 371.018 155.265C370.635 154.759 370.124 154.506 369.486 154.506C368.862 154.506 368.358 154.754 367.976 155.251C367.593 155.748 367.401 156.459 367.401 157.384ZM380.697 157.384C380.697 158.509 380.44 159.416 379.925 160.104C379.41 160.793 378.713 161.137 377.833 161.137C376.935 161.137 376.229 160.852 375.714 160.282V163.844H374.449V153.604H375.604L375.666 154.424C376.181 153.786 376.896 153.467 377.812 153.467C378.701 153.467 379.403 153.802 379.918 154.472C380.438 155.142 380.697 156.074 380.697 157.268V157.384ZM379.433 157.24C379.433 156.406 379.255 155.748 378.899 155.265C378.544 154.782 378.056 154.54 377.437 154.54C376.671 154.54 376.097 154.88 375.714 155.559V159.093C376.092 159.767 376.671 160.104 377.45 160.104C378.056 160.104 378.537 159.865 378.893 159.387C379.253 158.904 379.433 158.188 379.433 157.24ZM385.38 161.137C384.377 161.137 383.562 160.809 382.933 160.152C382.304 159.492 381.989 158.61 381.989 157.507V157.274C381.989 156.541 382.128 155.887 382.406 155.312C382.689 154.734 383.081 154.283 383.582 153.959C384.088 153.631 384.635 153.467 385.223 153.467C386.184 153.467 386.932 153.784 387.465 154.417C387.998 155.05 388.265 155.957 388.265 157.138V157.664H383.254C383.272 158.393 383.484 158.983 383.89 159.435C384.3 159.881 384.819 160.104 385.448 160.104C385.895 160.104 386.273 160.013 386.583 159.831C386.893 159.649 387.164 159.407 387.396 159.106L388.169 159.708C387.549 160.66 386.619 161.137 385.38 161.137ZM385.223 154.506C384.712 154.506 384.284 154.693 383.938 155.066C383.591 155.436 383.377 155.955 383.295 156.625H387V156.529C386.964 155.887 386.79 155.39 386.48 155.039C386.171 154.684 385.751 154.506 385.223 154.506ZM393.31 154.738C393.118 154.706 392.911 154.69 392.688 154.69C391.858 154.69 391.295 155.044 390.999 155.75V161H389.734V153.604H390.965L390.985 154.458C391.4 153.797 391.988 153.467 392.749 153.467C392.995 153.467 393.182 153.499 393.31 153.562V154.738Z" fill="black"/>
<path d="M485.548 144V134.047H488.802C489.882 134.047 490.693 134.27 491.235 134.717C491.782 135.163 492.056 135.824 492.056 136.699C492.056 137.164 491.924 137.576 491.659 137.937C491.395 138.292 491.035 138.568 490.579 138.764C491.117 138.914 491.541 139.201 491.851 139.625C492.165 140.044 492.322 140.546 492.322 141.129C492.322 142.022 492.033 142.724 491.454 143.234C490.875 143.745 490.057 144 489 144H485.548ZM486.86 139.345V142.927H489.027C489.638 142.927 490.119 142.77 490.47 142.455C490.825 142.136 491.003 141.699 491.003 141.143C491.003 139.944 490.351 139.345 489.048 139.345H486.86ZM486.86 138.292H488.843C489.417 138.292 489.875 138.148 490.217 137.861C490.563 137.574 490.736 137.185 490.736 136.692C490.736 136.146 490.577 135.749 490.258 135.503C489.939 135.252 489.453 135.127 488.802 135.127H486.86V138.292ZM498.639 144C498.566 143.854 498.507 143.594 498.461 143.221C497.873 143.831 497.171 144.137 496.355 144.137C495.626 144.137 495.027 143.932 494.558 143.521C494.093 143.107 493.86 142.583 493.86 141.949C493.86 141.179 494.152 140.582 494.735 140.158C495.323 139.73 496.148 139.516 497.21 139.516H498.44V138.935C498.44 138.493 498.308 138.142 498.044 137.882C497.78 137.618 497.39 137.485 496.875 137.485C496.424 137.485 496.046 137.599 495.74 137.827C495.435 138.055 495.282 138.331 495.282 138.654H494.011C494.011 138.285 494.141 137.93 494.4 137.588C494.665 137.242 495.02 136.968 495.467 136.768C495.918 136.567 496.412 136.467 496.95 136.467C497.802 136.467 498.47 136.681 498.953 137.109C499.436 137.533 499.687 138.119 499.705 138.866V142.271C499.705 142.95 499.792 143.49 499.965 143.891V144H498.639ZM496.54 143.036C496.937 143.036 497.312 142.934 497.668 142.729C498.023 142.523 498.281 142.257 498.44 141.929V140.411H497.449C495.9 140.411 495.125 140.865 495.125 141.771C495.125 142.168 495.257 142.478 495.521 142.701C495.786 142.924 496.125 143.036 496.54 143.036ZM504.654 143.104C505.105 143.104 505.5 142.968 505.837 142.694C506.174 142.421 506.361 142.079 506.397 141.669H507.594C507.571 142.093 507.425 142.496 507.156 142.879C506.887 143.262 506.527 143.567 506.076 143.795C505.63 144.023 505.156 144.137 504.654 144.137C503.647 144.137 502.845 143.802 502.248 143.132C501.656 142.457 501.359 141.537 501.359 140.37V140.158C501.359 139.438 501.492 138.798 501.756 138.237C502.02 137.677 502.398 137.242 502.891 136.932C503.387 136.622 503.973 136.467 504.647 136.467C505.477 136.467 506.165 136.715 506.712 137.212C507.263 137.709 507.557 138.354 507.594 139.146H506.397C506.361 138.668 506.179 138.276 505.851 137.971C505.527 137.661 505.126 137.506 504.647 137.506C504.005 137.506 503.506 137.738 503.15 138.203C502.799 138.663 502.624 139.331 502.624 140.206V140.445C502.624 141.298 502.799 141.954 503.15 142.414C503.501 142.874 504.003 143.104 504.654 143.104ZM511.08 140.575L510.287 141.402V144H509.022V133.5H510.287V139.851L510.964 139.037L513.268 136.604H514.806L511.928 139.693L515.141 144H513.657L511.08 140.575ZM518.743 140.288H515.407V139.256H518.743V140.288ZM525.805 139.399H521.491V142.927H526.502V144H520.179V134.047H526.434V135.127H521.491V138.326H525.805V139.399ZM529.134 136.604L529.175 137.533C529.74 136.822 530.478 136.467 531.39 136.467C532.953 136.467 533.741 137.349 533.755 139.112V144H532.49V139.105C532.486 138.572 532.363 138.178 532.121 137.923C531.884 137.668 531.513 137.54 531.007 137.54C530.597 137.54 530.237 137.649 529.927 137.868C529.617 138.087 529.375 138.374 529.202 138.729V144H527.938V136.604H529.134ZM535.354 140.24C535.354 139.105 535.623 138.194 536.161 137.506C536.699 136.813 537.403 136.467 538.273 136.467C539.139 136.467 539.825 136.763 540.331 137.355V133.5H541.596V144H540.434L540.372 143.207C539.866 143.827 539.162 144.137 538.26 144.137C537.403 144.137 536.703 143.786 536.161 143.084C535.623 142.382 535.354 141.466 535.354 140.336V140.24ZM536.619 140.384C536.619 141.222 536.792 141.879 537.139 142.353C537.485 142.826 537.964 143.063 538.574 143.063C539.376 143.063 539.962 142.703 540.331 141.983V138.586C539.953 137.889 539.372 137.54 538.588 137.54C537.968 137.54 537.485 137.779 537.139 138.258C536.792 138.736 536.619 139.445 536.619 140.384ZM483.634 161V151.047H486.443C487.309 151.047 488.075 151.238 488.74 151.621C489.406 152.004 489.918 152.549 490.278 153.255C490.643 153.961 490.827 154.772 490.832 155.688V156.324C490.832 157.263 490.65 158.086 490.285 158.792C489.925 159.498 489.408 160.041 488.733 160.419C488.063 160.797 487.282 160.991 486.389 161H483.634ZM484.946 152.127V159.927H486.327C487.339 159.927 488.125 159.612 488.686 158.983C489.251 158.354 489.533 157.459 489.533 156.297V155.716C489.533 154.586 489.267 153.708 488.733 153.084C488.205 152.455 487.453 152.136 486.478 152.127H484.946ZM495.692 161.137C494.69 161.137 493.874 160.809 493.245 160.152C492.616 159.492 492.302 158.61 492.302 157.507V157.274C492.302 156.541 492.441 155.887 492.719 155.312C493.001 154.734 493.393 154.283 493.895 153.959C494.4 153.631 494.947 153.467 495.535 153.467C496.497 153.467 497.244 153.784 497.777 154.417C498.311 155.05 498.577 155.957 498.577 157.138V157.664H493.566C493.585 158.393 493.797 158.983 494.202 159.435C494.612 159.881 495.132 160.104 495.761 160.104C496.207 160.104 496.586 160.013 496.896 159.831C497.205 159.649 497.477 159.407 497.709 159.106L498.481 159.708C497.862 160.66 496.932 161.137 495.692 161.137ZM495.535 154.506C495.025 154.506 494.596 154.693 494.25 155.066C493.904 155.436 493.689 155.955 493.607 156.625H497.312V156.529C497.276 155.887 497.103 155.39 496.793 155.039C496.483 154.684 496.064 154.506 495.535 154.506ZM502.392 159.284L504.224 153.604H505.516L502.863 161H501.899L499.22 153.604H500.512L502.392 159.284ZM509.706 161.137C508.703 161.137 507.888 160.809 507.259 160.152C506.63 159.492 506.315 158.61 506.315 157.507V157.274C506.315 156.541 506.454 155.887 506.732 155.312C507.015 154.734 507.407 154.283 507.908 153.959C508.414 153.631 508.961 153.467 509.549 153.467C510.51 153.467 511.258 153.784 511.791 154.417C512.324 155.05 512.591 155.957 512.591 157.138V157.664H507.58C507.598 158.393 507.81 158.983 508.216 159.435C508.626 159.881 509.146 160.104 509.774 160.104C510.221 160.104 510.599 160.013 510.909 159.831C511.219 159.649 511.49 159.407 511.723 159.106L512.495 159.708C511.875 160.66 510.946 161.137 509.706 161.137ZM509.549 154.506C509.038 154.506 508.61 154.693 508.264 155.066C507.917 155.436 507.703 155.955 507.621 156.625H511.326V156.529C511.29 155.887 511.117 155.39 510.807 155.039C510.497 154.684 510.077 154.506 509.549 154.506ZM515.435 161H514.17V150.5H515.435V161ZM517.13 157.233C517.13 156.509 517.271 155.857 517.554 155.278C517.841 154.7 518.237 154.253 518.743 153.938C519.254 153.624 519.835 153.467 520.486 153.467C521.493 153.467 522.307 153.815 522.927 154.513C523.551 155.21 523.863 156.137 523.863 157.295V157.384C523.863 158.104 523.724 158.751 523.446 159.325C523.173 159.895 522.779 160.339 522.264 160.658C521.753 160.977 521.165 161.137 520.5 161.137C519.497 161.137 518.684 160.788 518.06 160.091C517.44 159.394 517.13 158.471 517.13 157.322V157.233ZM518.401 157.384C518.401 158.204 518.59 158.863 518.969 159.359C519.352 159.856 519.862 160.104 520.5 160.104C521.143 160.104 521.653 159.854 522.031 159.353C522.41 158.847 522.599 158.14 522.599 157.233C522.599 156.422 522.405 155.766 522.018 155.265C521.635 154.759 521.124 154.506 520.486 154.506C519.862 154.506 519.358 154.754 518.976 155.251C518.593 155.748 518.401 156.459 518.401 157.384ZM531.697 157.384C531.697 158.509 531.44 159.416 530.925 160.104C530.41 160.793 529.713 161.137 528.833 161.137C527.935 161.137 527.229 160.852 526.714 160.282V163.844H525.449V153.604H526.604L526.666 154.424C527.181 153.786 527.896 153.467 528.812 153.467C529.701 153.467 530.403 153.802 530.918 154.472C531.438 155.142 531.697 156.074 531.697 157.268V157.384ZM530.433 157.24C530.433 156.406 530.255 155.748 529.899 155.265C529.544 154.782 529.056 154.54 528.437 154.54C527.671 154.54 527.097 154.88 526.714 155.559V159.093C527.092 159.767 527.671 160.104 528.45 160.104C529.056 160.104 529.537 159.865 529.893 159.387C530.253 158.904 530.433 158.188 530.433 157.24ZM536.38 161.137C535.377 161.137 534.562 160.809 533.933 160.152C533.304 159.492 532.989 158.61 532.989 157.507V157.274C532.989 156.541 533.128 155.887 533.406 155.312C533.689 154.734 534.081 154.283 534.582 153.959C535.088 153.631 535.635 153.467 536.223 153.467C537.184 153.467 537.932 153.784 538.465 154.417C538.998 155.05 539.265 155.957 539.265 157.138V157.664H534.254C534.272 158.393 534.484 158.983 534.89 159.435C535.3 159.881 535.819 160.104 536.448 160.104C536.895 160.104 537.273 160.013 537.583 159.831C537.893 159.649 538.164 159.407 538.396 159.106L539.169 159.708C538.549 160.66 537.619 161.137 536.38 161.137ZM536.223 154.506C535.712 154.506 535.284 154.693 534.938 155.066C534.591 155.436 534.377 155.955 534.295 156.625H538V156.529C537.964 155.887 537.79 155.39 537.48 155.039C537.171 154.684 536.751 154.506 536.223 154.506ZM544.31 154.738C544.118 154.706 543.911 154.69 543.688 154.69C542.858 154.69 542.295 155.044 541.999 155.75V161H540.734V153.604H541.965L541.985 154.458C542.4 153.797 542.988 153.467 543.749 153.467C543.995 153.467 544.182 153.499 544.31 153.562V154.738Z" fill="black"/>
</svg>
