<svg width="130" height="381" viewBox="0 0 130 381" fill="none" xmlns="http://www.w3.org/2000/svg">
<path d="M37.9999 102L37.9999 132M37.9999 132L43 127.588M37.9999 132L33 127.588" stroke="#BEBEBE" stroke-width="2" stroke-linecap="round"/>
<circle cx="39" cy="324" r="29.5" stroke="#CACACA"/>
<circle cx="39" cy="324" r="9.5" stroke="#43BAD6"/>
<path d="M29.6484 373.842C29.5254 374.895 29.1357 375.708 28.4795 376.282C27.8278 376.852 26.9596 377.137 25.875 377.137C24.6992 377.137 23.7559 376.715 23.0449 375.872C22.3385 375.029 21.9854 373.901 21.9854 372.488V371.531C21.9854 370.606 22.1494 369.793 22.4775 369.091C22.8102 368.389 23.2796 367.851 23.8857 367.478C24.4919 367.099 25.1937 366.91 25.9912 366.91C27.0485 366.91 27.8962 367.206 28.5342 367.799C29.1722 368.387 29.5436 369.202 29.6484 370.246H28.3291C28.2152 369.453 27.9668 368.879 27.584 368.523C27.2057 368.168 26.6748 367.99 25.9912 367.99C25.1527 367.99 24.4941 368.3 24.0156 368.92C23.5417 369.54 23.3047 370.422 23.3047 371.565V372.529C23.3047 373.609 23.5303 374.468 23.9814 375.106C24.4326 375.744 25.0638 376.063 25.875 376.063C26.6042 376.063 27.1624 375.899 27.5498 375.571C27.9417 375.239 28.2015 374.662 28.3291 373.842H29.6484ZM32.6221 377H31.3574V366.5H32.6221V377ZM36.0264 377H34.7617V369.604H36.0264V377ZM34.6592 367.642C34.6592 367.437 34.7207 367.263 34.8438 367.122C34.9714 366.981 35.1582 366.91 35.4043 366.91C35.6504 366.91 35.8372 366.981 35.9648 367.122C36.0924 367.263 36.1562 367.437 36.1562 367.642C36.1562 367.847 36.0924 368.018 35.9648 368.154C35.8372 368.291 35.6504 368.359 35.4043 368.359C35.1582 368.359 34.9714 368.291 34.8438 368.154C34.7207 368.018 34.6592 367.847 34.6592 367.642ZM41.126 377.137C40.1234 377.137 39.3076 376.809 38.6787 376.152C38.0498 375.492 37.7354 374.61 37.7354 373.507V373.274C37.7354 372.541 37.8743 371.887 38.1523 371.312C38.4349 370.734 38.8268 370.283 39.3281 369.959C39.834 369.631 40.3809 369.467 40.9688 369.467C41.9303 369.467 42.6777 369.784 43.2109 370.417C43.7441 371.05 44.0107 371.957 44.0107 373.138V373.664H39C39.0182 374.393 39.2301 374.983 39.6357 375.435C40.0459 375.881 40.5654 376.104 41.1943 376.104C41.641 376.104 42.0192 376.013 42.3291 375.831C42.639 375.649 42.9102 375.407 43.1426 375.106L43.915 375.708C43.2952 376.66 42.3656 377.137 41.126 377.137ZM40.9688 370.506C40.4583 370.506 40.0299 370.693 39.6836 371.066C39.3372 371.436 39.123 371.955 39.041 372.625H42.7461V372.529C42.7096 371.887 42.5365 371.39 42.2266 371.039C41.9167 370.684 41.4974 370.506 40.9688 370.506ZM46.6768 369.604L46.7178 370.533C47.2829 369.822 48.0212 369.467 48.9326 369.467C50.4958 369.467 51.2842 370.349 51.2979 372.112V377H50.0332V372.105C50.0286 371.572 49.9056 371.178 49.6641 370.923C49.4271 370.668 49.0557 370.54 48.5498 370.54C48.1396 370.54 47.7796 370.649 47.4697 370.868C47.1598 371.087 46.9183 371.374 46.7451 371.729V377H45.4805V369.604H46.6768ZM54.9209 367.812V369.604H56.3018V370.581H54.9209V375.168C54.9209 375.464 54.9824 375.688 55.1055 375.838C55.2285 375.984 55.4382 376.057 55.7344 376.057C55.8802 376.057 56.0807 376.029 56.3359 375.975V377C56.0033 377.091 55.6797 377.137 55.3652 377.137C54.8001 377.137 54.374 376.966 54.0869 376.624C53.7998 376.282 53.6562 375.797 53.6562 375.168V370.581H52.3096V369.604H53.6562V367.812H54.9209Z" fill="black"/>
<circle cx="38.5" cy="30" r="29.5" stroke="#CACACA"/>
<circle cx="38.5" cy="30" r="10" fill="#43BAD6"/>
<path d="M13.2471 73.0469L16.501 81.168L19.7549 73.0469H21.457V83H20.1445V79.124L20.2676 74.9404L17 83H15.9951L12.7344 74.9609L12.8643 79.124V83H11.5518V73.0469H13.2471ZM28.1426 83C28.0697 82.8542 28.0104 82.5944 27.9648 82.2207C27.377 82.8314 26.6751 83.1367 25.8594 83.1367C25.1302 83.1367 24.5309 82.9316 24.0615 82.5215C23.5967 82.1068 23.3643 81.5827 23.3643 80.9492C23.3643 80.179 23.6559 79.582 24.2393 79.1582C24.8271 78.7298 25.652 78.5156 26.7139 78.5156H27.9443V77.9346C27.9443 77.4925 27.8122 77.1416 27.5479 76.8818C27.2835 76.6175 26.8939 76.4854 26.3789 76.4854C25.9277 76.4854 25.5495 76.5993 25.2441 76.8271C24.9388 77.055 24.7861 77.3307 24.7861 77.6543H23.5146C23.5146 77.2852 23.6445 76.9297 23.9043 76.5879C24.1686 76.2415 24.5241 75.9681 24.9707 75.7676C25.4219 75.5671 25.9163 75.4668 26.4541 75.4668C27.3063 75.4668 27.974 75.681 28.457 76.1094C28.9401 76.5332 29.1908 77.1188 29.209 77.8662V81.2705C29.209 81.9495 29.2956 82.4896 29.4688 82.8906V83H28.1426ZM26.0439 82.0361C26.4404 82.0361 26.8164 81.9336 27.1719 81.7285C27.5273 81.5234 27.7848 81.2568 27.9443 80.9287V79.4111H26.9531C25.4036 79.4111 24.6289 79.8646 24.6289 80.7715C24.6289 81.168 24.7611 81.4779 25.0254 81.7012C25.2897 81.9245 25.6292 82.0361 26.0439 82.0361ZM32.3877 75.6035L32.4287 76.5332C32.9938 75.8223 33.7321 75.4668 34.6436 75.4668C36.2067 75.4668 36.9951 76.3486 37.0088 78.1123V83H35.7441V78.1055C35.7396 77.5723 35.6165 77.1781 35.375 76.9229C35.138 76.6676 34.7666 76.54 34.2607 76.54C33.8506 76.54 33.4906 76.6494 33.1807 76.8682C32.8708 77.0869 32.6292 77.374 32.4561 77.7295V83H31.1914V75.6035H32.3877ZM43.4824 83C43.4095 82.8542 43.3503 82.5944 43.3047 82.2207C42.7168 82.8314 42.015 83.1367 41.1992 83.1367C40.4701 83.1367 39.8708 82.9316 39.4014 82.5215C38.9365 82.1068 38.7041 81.5827 38.7041 80.9492C38.7041 80.179 38.9958 79.582 39.5791 79.1582C40.167 78.7298 40.9919 78.5156 42.0537 78.5156H43.2842V77.9346C43.2842 77.4925 43.152 77.1416 42.8877 76.8818C42.6234 76.6175 42.2337 76.4854 41.7188 76.4854C41.2676 76.4854 40.8893 76.5993 40.584 76.8271C40.2786 77.055 40.126 77.3307 40.126 77.6543H38.8545C38.8545 77.2852 38.9844 76.9297 39.2441 76.5879C39.5085 76.2415 39.8639 75.9681 40.3105 75.7676C40.7617 75.5671 41.2562 75.4668 41.7939 75.4668C42.6462 75.4668 43.3138 75.681 43.7969 76.1094C44.2799 76.5332 44.5306 77.1188 44.5488 77.8662V81.2705C44.5488 81.9495 44.6354 82.4896 44.8086 82.8906V83H43.4824ZM41.3838 82.0361C41.7803 82.0361 42.1562 81.9336 42.5117 81.7285C42.8672 81.5234 43.1247 81.2568 43.2842 80.9287V79.4111H42.293C40.7435 79.4111 39.9688 79.8646 39.9688 80.7715C39.9688 81.168 40.1009 81.4779 40.3652 81.7012C40.6296 81.9245 40.9691 82.0361 41.3838 82.0361ZM46.2305 79.2402C46.2305 78.0872 46.4971 77.1712 47.0303 76.4922C47.5635 75.8086 48.2699 75.4668 49.1494 75.4668C50.0518 75.4668 50.7559 75.7858 51.2617 76.4238L51.3232 75.6035H52.4785V82.8223C52.4785 83.7793 52.1937 84.5335 51.624 85.085C51.0589 85.6364 50.2979 85.9121 49.3408 85.9121C48.8076 85.9121 48.2858 85.7982 47.7754 85.5703C47.265 85.3424 46.8753 85.0303 46.6064 84.6338L47.2627 83.875C47.805 84.5449 48.4681 84.8799 49.252 84.8799C49.8672 84.8799 50.3457 84.7067 50.6875 84.3604C51.0339 84.014 51.207 83.5264 51.207 82.8975V82.2617C50.7012 82.8451 50.0107 83.1367 49.1357 83.1367C48.2699 83.1367 47.568 82.7881 47.0303 82.0908C46.4971 81.3936 46.2305 80.4434 46.2305 79.2402ZM47.502 79.3838C47.502 80.2178 47.6729 80.874 48.0146 81.3525C48.3564 81.8265 48.835 82.0635 49.4502 82.0635C50.2477 82.0635 50.8333 81.7012 51.207 80.9766V77.5996C50.8197 76.8932 50.2386 76.54 49.4639 76.54C48.8486 76.54 48.3678 76.7793 48.0215 77.2578C47.6751 77.7363 47.502 78.445 47.502 79.3838ZM57.4619 83.1367C56.4593 83.1367 55.6436 82.8086 55.0146 82.1523C54.3857 81.4915 54.0713 80.6097 54.0713 79.5068V79.2744C54.0713 78.5407 54.2103 77.8867 54.4883 77.3125C54.7708 76.7337 55.1628 76.2826 55.6641 75.959C56.1699 75.6309 56.7168 75.4668 57.3047 75.4668C58.2663 75.4668 59.0137 75.7835 59.5469 76.417C60.0801 77.0505 60.3467 77.9574 60.3467 79.1377V79.6641H55.3359C55.3542 80.3932 55.5661 80.9834 55.9717 81.4346C56.3818 81.8812 56.9014 82.1045 57.5303 82.1045C57.9769 82.1045 58.3551 82.0133 58.665 81.8311C58.9749 81.6488 59.2461 81.4072 59.4785 81.1064L60.251 81.708C59.6312 82.6605 58.7015 83.1367 57.4619 83.1367ZM57.3047 76.5059C56.7943 76.5059 56.3659 76.6927 56.0195 77.0664C55.6732 77.4355 55.459 77.9551 55.377 78.625H59.082V78.5293C59.0456 77.8867 58.8724 77.39 58.5625 77.0391C58.2526 76.6836 57.8333 76.5059 57.3047 76.5059ZM65.3916 76.7383C65.2002 76.7064 64.9928 76.6904 64.7695 76.6904C63.9401 76.6904 63.3773 77.0436 63.0811 77.75V83H61.8164V75.6035H63.0469L63.0674 76.458C63.4821 75.7972 64.07 75.4668 64.8311 75.4668C65.0771 75.4668 65.264 75.4987 65.3916 75.5625V76.7383Z" fill="black"/>
<path d="M81.5 149C81.5 149 101.5 133.381 101.5 92.5C101.5 49.866 81.5 36 81.5 36" stroke="#BEBEBE" stroke-width="2" stroke-linecap="round" stroke-dasharray="0.5 4"/>
<path d="M81.5 36C81.5 36 128.5 76.67 128.5 180.5C128.5 288.783 81.5 324 81.5 324" stroke="#BEBEBE" stroke-width="2" stroke-linecap="round" stroke-dasharray="0.5 4"/>
<path d="M81 42L81 36L87.5 36" stroke="#BEBEBE" stroke-width="2" stroke-linecap="round"/>
<path d="M87.5 324L81.5 324L81.5 317.5" stroke="#BEBEBE" stroke-width="2" stroke-linecap="round"/>
<circle opacity="0.2" cx="38.5" cy="177" r="30" fill="#43BAD6"/>
<circle cx="38.5" cy="177" r="10" fill="#BEBEBE"/>
<path d="M8.50391 220.047V226.814C8.49935 227.753 8.20312 228.521 7.61523 229.118C7.0319 229.715 6.23893 230.05 5.23633 230.123L4.8877 230.137C3.7985 230.137 2.93034 229.843 2.2832 229.255C1.63607 228.667 1.30794 227.858 1.29883 226.828V220.047H2.59766V226.787C2.59766 227.507 2.7959 228.068 3.19238 228.469C3.58887 228.865 4.15397 229.063 4.8877 229.063C5.63053 229.063 6.19792 228.865 6.58984 228.469C6.98633 228.072 7.18457 227.514 7.18457 226.794V220.047H8.50391ZM13.8223 223.861L16.208 220.047H17.7529L14.6084 224.982L17.8281 230H16.2695L13.8223 226.117L11.3613 230H9.80957L13.0361 224.982L9.88477 220.047H11.4229L13.8223 223.861ZM22.8252 230V220.047H25.6348C26.5007 220.047 27.2663 220.238 27.9316 220.621C28.597 221.004 29.1097 221.549 29.4697 222.255C29.8343 222.961 30.0189 223.772 30.0234 224.688V225.324C30.0234 226.263 29.8411 227.086 29.4766 227.792C29.1165 228.498 28.5993 229.041 27.9248 229.419C27.2549 229.797 26.4733 229.991 25.5801 230H22.8252ZM24.1377 221.127V228.927H25.5186C26.5303 228.927 27.3164 228.612 27.877 227.983C28.4421 227.354 28.7246 226.459 28.7246 225.297V224.716C28.7246 223.586 28.458 222.708 27.9248 222.084C27.3962 221.455 26.6442 221.136 25.6689 221.127H24.1377ZM34.8838 230.137C33.8812 230.137 33.0654 229.809 32.4365 229.152C31.8076 228.492 31.4932 227.61 31.4932 226.507V226.274C31.4932 225.541 31.6322 224.887 31.9102 224.312C32.1927 223.734 32.5846 223.283 33.0859 222.959C33.5918 222.631 34.1387 222.467 34.7266 222.467C35.6882 222.467 36.4355 222.784 36.9688 223.417C37.502 224.05 37.7686 224.957 37.7686 226.138V226.664H32.7578C32.776 227.393 32.988 227.983 33.3936 228.435C33.8037 228.881 34.3232 229.104 34.9521 229.104C35.3988 229.104 35.777 229.013 36.0869 228.831C36.3968 228.649 36.668 228.407 36.9004 228.106L37.6729 228.708C37.0531 229.66 36.1234 230.137 34.8838 230.137ZM34.7266 223.506C34.2161 223.506 33.7878 223.693 33.4414 224.066C33.0951 224.436 32.8809 224.955 32.7988 225.625H36.5039V225.529C36.4674 224.887 36.2943 224.39 35.9844 224.039C35.6745 223.684 35.2552 223.506 34.7266 223.506ZM43.5449 228.038C43.5449 227.696 43.415 227.432 43.1553 227.245C42.9001 227.054 42.4512 226.89 41.8086 226.753C41.1706 226.616 40.6624 226.452 40.2842 226.261C39.9105 226.069 39.6325 225.841 39.4502 225.577C39.2725 225.313 39.1836 224.998 39.1836 224.634C39.1836 224.028 39.4388 223.515 39.9492 223.096C40.4642 222.676 41.1204 222.467 41.918 222.467C42.7565 222.467 43.4355 222.683 43.9551 223.116C44.4792 223.549 44.7412 224.103 44.7412 224.777H43.4697C43.4697 224.431 43.3216 224.132 43.0254 223.882C42.7337 223.631 42.3646 223.506 41.918 223.506C41.4577 223.506 41.0977 223.606 40.8379 223.807C40.5781 224.007 40.4482 224.269 40.4482 224.593C40.4482 224.898 40.569 225.128 40.8105 225.283C41.0521 225.438 41.4873 225.586 42.1162 225.728C42.7497 225.869 43.2624 226.037 43.6543 226.233C44.0462 226.429 44.3356 226.666 44.5225 226.944C44.7139 227.218 44.8096 227.553 44.8096 227.949C44.8096 228.61 44.5452 229.141 44.0166 229.542C43.488 229.938 42.8021 230.137 41.959 230.137C41.3665 230.137 40.8424 230.032 40.3867 229.822C39.931 229.613 39.5732 229.321 39.3135 228.947C39.0583 228.569 38.9307 228.161 38.9307 227.724H40.1953C40.2181 228.147 40.3867 228.485 40.7012 228.735C41.0202 228.981 41.4395 229.104 41.959 229.104C42.4375 229.104 42.8203 229.009 43.1074 228.817C43.3991 228.621 43.5449 228.362 43.5449 228.038ZM47.8311 230H46.5664V222.604H47.8311V230ZM46.4639 220.642C46.4639 220.437 46.5254 220.263 46.6484 220.122C46.776 219.981 46.9629 219.91 47.209 219.91C47.4551 219.91 47.6419 219.981 47.7695 220.122C47.8971 220.263 47.9609 220.437 47.9609 220.642C47.9609 220.847 47.8971 221.018 47.7695 221.154C47.6419 221.291 47.4551 221.359 47.209 221.359C46.9629 221.359 46.776 221.291 46.6484 221.154C46.5254 221.018 46.4639 220.847 46.4639 220.642ZM49.5605 226.24C49.5605 225.087 49.8271 224.171 50.3604 223.492C50.8936 222.809 51.5999 222.467 52.4795 222.467C53.3818 222.467 54.0859 222.786 54.5918 223.424L54.6533 222.604H55.8086V229.822C55.8086 230.779 55.5238 231.534 54.9541 232.085C54.389 232.636 53.6279 232.912 52.6709 232.912C52.1377 232.912 51.6159 232.798 51.1055 232.57C50.5951 232.342 50.2054 232.03 49.9365 231.634L50.5928 230.875C51.1351 231.545 51.7982 231.88 52.582 231.88C53.1973 231.88 53.6758 231.707 54.0176 231.36C54.3639 231.014 54.5371 230.526 54.5371 229.897V229.262C54.0312 229.845 53.3408 230.137 52.4658 230.137C51.5999 230.137 50.8981 229.788 50.3604 229.091C49.8271 228.394 49.5605 227.443 49.5605 226.24ZM50.832 226.384C50.832 227.218 51.0029 227.874 51.3447 228.353C51.6865 228.826 52.165 229.063 52.7803 229.063C53.5778 229.063 54.1634 228.701 54.5371 227.977V224.6C54.1497 223.893 53.5687 223.54 52.7939 223.54C52.1787 223.54 51.6979 223.779 51.3516 224.258C51.0052 224.736 50.832 225.445 50.832 226.384ZM58.9189 222.604L58.96 223.533C59.5251 222.822 60.2633 222.467 61.1748 222.467C62.738 222.467 63.5264 223.349 63.54 225.112V230H62.2754V225.105C62.2708 224.572 62.1478 224.178 61.9062 223.923C61.6693 223.668 61.2979 223.54 60.792 223.54C60.3818 223.54 60.0218 223.649 59.7119 223.868C59.402 224.087 59.1605 224.374 58.9873 224.729V230H57.7227V222.604H58.9189ZM68.5166 230.137C67.514 230.137 66.6982 229.809 66.0693 229.152C65.4404 228.492 65.126 227.61 65.126 226.507V226.274C65.126 225.541 65.265 224.887 65.543 224.312C65.8255 223.734 66.2174 223.283 66.7188 222.959C67.2246 222.631 67.7715 222.467 68.3594 222.467C69.321 222.467 70.0684 222.784 70.6016 223.417C71.1348 224.05 71.4014 224.957 71.4014 226.138V226.664H66.3906C66.4089 227.393 66.6208 227.983 67.0264 228.435C67.4365 228.881 67.9561 229.104 68.585 229.104C69.0316 229.104 69.4098 229.013 69.7197 228.831C70.0296 228.649 70.3008 228.407 70.5332 228.106L71.3057 228.708C70.6859 229.66 69.7562 230.137 68.5166 230.137ZM68.3594 223.506C67.849 223.506 67.4206 223.693 67.0742 224.066C66.7279 224.436 66.5137 224.955 66.4316 225.625H70.1367V225.529C70.1003 224.887 69.9271 224.39 69.6172 224.039C69.3073 223.684 68.888 223.506 68.3594 223.506ZM76.4463 223.738C76.2549 223.706 76.0475 223.69 75.8242 223.69C74.9948 223.69 74.432 224.044 74.1357 224.75V230H72.8711V222.604H74.1016L74.1221 223.458C74.5368 222.797 75.1247 222.467 75.8857 222.467C76.1318 222.467 76.3187 222.499 76.4463 222.562V223.738Z" fill="black"/>
</svg>
