<svg width="442" height="139" viewBox="0 0 442 139" fill="none" xmlns="http://www.w3.org/2000/svg">
<circle cx="412" cy="82" r="29.5" stroke="#CACACA"/>
<circle cx="412" cy="82" r="9.5" stroke="#43BAD6"/>
<path d="M133.5 82.0001H167.5M167.5 82.0001L162.5 77M167.5 82.0001L162.5 87" stroke="#BEBEBE" stroke-width="2" stroke-linecap="round"/>
<path d="M207 44C207 44 191.381 24 150.5 24C107.866 24 95 42 95 42" stroke="#BEBEBE" stroke-width="2" stroke-linecap="round" stroke-dasharray="0.5 4"/>
<path d="M402.648 131.842C402.525 132.895 402.136 133.708 401.479 134.282C400.828 134.852 399.96 135.137 398.875 135.137C397.699 135.137 396.756 134.715 396.045 133.872C395.339 133.029 394.985 131.901 394.985 130.488V129.531C394.985 128.606 395.149 127.793 395.478 127.091C395.81 126.389 396.28 125.851 396.886 125.478C397.492 125.099 398.194 124.91 398.991 124.91C400.049 124.91 400.896 125.206 401.534 125.799C402.172 126.387 402.544 127.202 402.648 128.246H401.329C401.215 127.453 400.967 126.879 400.584 126.523C400.206 126.168 399.675 125.99 398.991 125.99C398.153 125.99 397.494 126.3 397.016 126.92C396.542 127.54 396.305 128.422 396.305 129.565V130.529C396.305 131.609 396.53 132.468 396.981 133.106C397.433 133.744 398.064 134.063 398.875 134.063C399.604 134.063 400.162 133.899 400.55 133.571C400.942 133.239 401.201 132.662 401.329 131.842H402.648ZM405.622 135H404.357V124.5H405.622V135ZM409.026 135H407.762V127.604H409.026V135ZM407.659 125.642C407.659 125.437 407.721 125.263 407.844 125.122C407.971 124.981 408.158 124.91 408.404 124.91C408.65 124.91 408.837 124.981 408.965 125.122C409.092 125.263 409.156 125.437 409.156 125.642C409.156 125.847 409.092 126.018 408.965 126.154C408.837 126.291 408.65 126.359 408.404 126.359C408.158 126.359 407.971 126.291 407.844 126.154C407.721 126.018 407.659 125.847 407.659 125.642ZM414.126 135.137C413.123 135.137 412.308 134.809 411.679 134.152C411.05 133.492 410.735 132.61 410.735 131.507V131.274C410.735 130.541 410.874 129.887 411.152 129.312C411.435 128.734 411.827 128.283 412.328 127.959C412.834 127.631 413.381 127.467 413.969 127.467C414.93 127.467 415.678 127.784 416.211 128.417C416.744 129.05 417.011 129.957 417.011 131.138V131.664H412C412.018 132.393 412.23 132.983 412.636 133.435C413.046 133.881 413.565 134.104 414.194 134.104C414.641 134.104 415.019 134.013 415.329 133.831C415.639 133.649 415.91 133.407 416.143 133.106L416.915 133.708C416.295 134.66 415.366 135.137 414.126 135.137ZM413.969 128.506C413.458 128.506 413.03 128.693 412.684 129.066C412.337 129.436 412.123 129.955 412.041 130.625H415.746V130.529C415.71 129.887 415.536 129.39 415.227 129.039C414.917 128.684 414.497 128.506 413.969 128.506ZM419.677 127.604L419.718 128.533C420.283 127.822 421.021 127.467 421.933 127.467C423.496 127.467 424.284 128.349 424.298 130.112V135H423.033V130.105C423.029 129.572 422.906 129.178 422.664 128.923C422.427 128.668 422.056 128.54 421.55 128.54C421.14 128.54 420.78 128.649 420.47 128.868C420.16 129.087 419.918 129.374 419.745 129.729V135H418.48V127.604H419.677ZM427.921 125.812V127.604H429.302V128.581H427.921V133.168C427.921 133.464 427.982 133.688 428.105 133.838C428.229 133.984 428.438 134.057 428.734 134.057C428.88 134.057 429.081 134.029 429.336 133.975V135C429.003 135.091 428.68 135.137 428.365 135.137C427.8 135.137 427.374 134.966 427.087 134.624C426.8 134.282 426.656 133.797 426.656 133.168V128.581H425.31V127.604H426.656V125.812H427.921Z" fill="black"/>
<circle cx="63.5" cy="82" r="29.5" stroke="#CACACA"/>
<circle cx="63.5" cy="82" r="10" fill="#43BAD6"/>
<path d="M38.2471 125.047L41.501 133.168L44.7549 125.047H46.457V135H45.1445V131.124L45.2676 126.94L42 135H40.9951L37.7344 126.961L37.8643 131.124V135H36.5518V125.047H38.2471ZM53.1426 135C53.0697 134.854 53.0104 134.594 52.9648 134.221C52.377 134.831 51.6751 135.137 50.8594 135.137C50.1302 135.137 49.5309 134.932 49.0615 134.521C48.5967 134.107 48.3643 133.583 48.3643 132.949C48.3643 132.179 48.6559 131.582 49.2393 131.158C49.8271 130.73 50.652 130.516 51.7139 130.516H52.9443V129.935C52.9443 129.493 52.8122 129.142 52.5479 128.882C52.2835 128.618 51.8939 128.485 51.3789 128.485C50.9277 128.485 50.5495 128.599 50.2441 128.827C49.9388 129.055 49.7861 129.331 49.7861 129.654H48.5146C48.5146 129.285 48.6445 128.93 48.9043 128.588C49.1686 128.242 49.5241 127.968 49.9707 127.768C50.4219 127.567 50.9163 127.467 51.4541 127.467C52.3063 127.467 52.974 127.681 53.457 128.109C53.9401 128.533 54.1908 129.119 54.209 129.866V133.271C54.209 133.95 54.2956 134.49 54.4688 134.891V135H53.1426ZM51.0439 134.036C51.4404 134.036 51.8164 133.934 52.1719 133.729C52.5273 133.523 52.7848 133.257 52.9443 132.929V131.411H51.9531C50.4036 131.411 49.6289 131.865 49.6289 132.771C49.6289 133.168 49.7611 133.478 50.0254 133.701C50.2897 133.924 50.6292 134.036 51.0439 134.036ZM57.3877 127.604L57.4287 128.533C57.9938 127.822 58.7321 127.467 59.6436 127.467C61.2067 127.467 61.9951 128.349 62.0088 130.112V135H60.7441V130.105C60.7396 129.572 60.6165 129.178 60.375 128.923C60.138 128.668 59.7666 128.54 59.2607 128.54C58.8506 128.54 58.4906 128.649 58.1807 128.868C57.8708 129.087 57.6292 129.374 57.4561 129.729V135H56.1914V127.604H57.3877ZM68.4824 135C68.4095 134.854 68.3503 134.594 68.3047 134.221C67.7168 134.831 67.015 135.137 66.1992 135.137C65.4701 135.137 64.8708 134.932 64.4014 134.521C63.9365 134.107 63.7041 133.583 63.7041 132.949C63.7041 132.179 63.9958 131.582 64.5791 131.158C65.167 130.73 65.9919 130.516 67.0537 130.516H68.2842V129.935C68.2842 129.493 68.152 129.142 67.8877 128.882C67.6234 128.618 67.2337 128.485 66.7188 128.485C66.2676 128.485 65.8893 128.599 65.584 128.827C65.2786 129.055 65.126 129.331 65.126 129.654H63.8545C63.8545 129.285 63.9844 128.93 64.2441 128.588C64.5085 128.242 64.8639 127.968 65.3105 127.768C65.7617 127.567 66.2562 127.467 66.7939 127.467C67.6462 127.467 68.3138 127.681 68.7969 128.109C69.2799 128.533 69.5306 129.119 69.5488 129.866V133.271C69.5488 133.95 69.6354 134.49 69.8086 134.891V135H68.4824ZM66.3838 134.036C66.7803 134.036 67.1562 133.934 67.5117 133.729C67.8672 133.523 68.1247 133.257 68.2842 132.929V131.411H67.293C65.7435 131.411 64.9688 131.865 64.9688 132.771C64.9688 133.168 65.1009 133.478 65.3652 133.701C65.6296 133.924 65.9691 134.036 66.3838 134.036ZM71.2305 131.24C71.2305 130.087 71.4971 129.171 72.0303 128.492C72.5635 127.809 73.2699 127.467 74.1494 127.467C75.0518 127.467 75.7559 127.786 76.2617 128.424L76.3232 127.604H77.4785V134.822C77.4785 135.779 77.1937 136.534 76.624 137.085C76.0589 137.636 75.2979 137.912 74.3408 137.912C73.8076 137.912 73.2858 137.798 72.7754 137.57C72.265 137.342 71.8753 137.03 71.6064 136.634L72.2627 135.875C72.805 136.545 73.4681 136.88 74.252 136.88C74.8672 136.88 75.3457 136.707 75.6875 136.36C76.0339 136.014 76.207 135.526 76.207 134.897V134.262C75.7012 134.845 75.0107 135.137 74.1357 135.137C73.2699 135.137 72.568 134.788 72.0303 134.091C71.4971 133.394 71.2305 132.443 71.2305 131.24ZM72.502 131.384C72.502 132.218 72.6729 132.874 73.0146 133.353C73.3564 133.826 73.835 134.063 74.4502 134.063C75.2477 134.063 75.8333 133.701 76.207 132.977V129.6C75.8197 128.893 75.2386 128.54 74.4639 128.54C73.8486 128.54 73.3678 128.779 73.0215 129.258C72.6751 129.736 72.502 130.445 72.502 131.384ZM82.4619 135.137C81.4593 135.137 80.6436 134.809 80.0146 134.152C79.3857 133.492 79.0713 132.61 79.0713 131.507V131.274C79.0713 130.541 79.2103 129.887 79.4883 129.312C79.7708 128.734 80.1628 128.283 80.6641 127.959C81.1699 127.631 81.7168 127.467 82.3047 127.467C83.2663 127.467 84.0137 127.784 84.5469 128.417C85.0801 129.05 85.3467 129.957 85.3467 131.138V131.664H80.3359C80.3542 132.393 80.5661 132.983 80.9717 133.435C81.3818 133.881 81.9014 134.104 82.5303 134.104C82.9769 134.104 83.3551 134.013 83.665 133.831C83.9749 133.649 84.2461 133.407 84.4785 133.106L85.251 133.708C84.6312 134.66 83.7015 135.137 82.4619 135.137ZM82.3047 128.506C81.7943 128.506 81.3659 128.693 81.0195 129.066C80.6732 129.436 80.459 129.955 80.377 130.625H84.082V130.529C84.0456 129.887 83.8724 129.39 83.5625 129.039C83.2526 128.684 82.8333 128.506 82.3047 128.506ZM90.3916 128.738C90.2002 128.706 89.9928 128.69 89.7695 128.69C88.9401 128.69 88.3773 129.044 88.0811 129.75V135H86.8164V127.604H88.0469L88.0674 128.458C88.4821 127.797 89.07 127.467 89.8311 127.467C90.0771 127.467 90.264 127.499 90.3916 127.562V128.738Z" fill="black"/>
<path d="M95 42C95 42 134.67 1 238.5 1C346.783 1 382 42 382 42" stroke="#BEBEBE" stroke-width="2" stroke-linecap="round" stroke-dasharray="0.5 4"/>
<path d="M95 36V42H101.5" stroke="#BEBEBE" stroke-width="2" stroke-linecap="round"/>
<path d="M382 35.5V42H375.5" stroke="#BEBEBE" stroke-width="2" stroke-linecap="round"/>
<circle opacity="0.2" cx="238" cy="82" r="30" fill="#43BAD6"/>
<circle cx="238" cy="82" r="10" fill="#BEBEBE"/>
<path d="M206.5 130.345C206.5 131.306 206.347 132.136 206.042 132.833C205.737 133.526 205.308 134.068 204.757 134.46L206.534 135.854L205.639 136.682L203.54 135.014C203.212 135.096 202.866 135.137 202.501 135.137C201.717 135.137 201.022 134.945 200.416 134.562C199.81 134.175 199.338 133.626 199.001 132.915C198.668 132.2 198.497 131.372 198.488 130.434V129.716C198.488 128.759 198.655 127.913 198.987 127.18C199.32 126.446 199.789 125.885 200.396 125.498C201.006 125.106 201.703 124.91 202.487 124.91C203.289 124.91 203.993 125.104 204.6 125.491C205.21 125.879 205.68 126.437 206.008 127.166C206.336 127.891 206.5 128.738 206.5 129.709V130.345ZM205.188 129.702C205.188 128.531 204.953 127.629 204.483 126.995C204.019 126.357 203.353 126.038 202.487 126.038C201.662 126.038 201.011 126.355 200.532 126.988C200.058 127.617 199.814 128.492 199.801 129.613V130.345C199.801 131.484 200.038 132.382 200.512 133.038C200.99 133.694 201.653 134.022 202.501 134.022C203.349 134.022 204.005 133.715 204.47 133.1C204.935 132.48 205.174 131.593 205.188 130.44V129.702ZM214.02 132.402H209.85L208.913 135H207.56L211.36 125.047H212.509L216.316 135H214.97L214.02 132.402ZM210.246 131.322H213.63L211.935 126.667L210.246 131.322ZM226.755 130.399H222.441V133.927H227.452V135H221.129V125.047H227.384V126.127H222.441V129.326H226.755V130.399ZM230.084 127.604L230.125 128.533C230.69 127.822 231.428 127.467 232.34 127.467C233.903 127.467 234.691 128.349 234.705 130.112V135H233.44V130.105C233.436 129.572 233.313 129.178 233.071 128.923C232.834 128.668 232.463 128.54 231.957 128.54C231.547 128.54 231.187 128.649 230.877 128.868C230.567 129.087 230.326 129.374 230.152 129.729V135H228.888V127.604H230.084ZM236.312 131.24C236.312 130.087 236.578 129.171 237.111 128.492C237.645 127.809 238.351 127.467 239.23 127.467C240.133 127.467 240.837 127.786 241.343 128.424L241.404 127.604H242.56V134.822C242.56 135.779 242.275 136.534 241.705 137.085C241.14 137.636 240.379 137.912 239.422 137.912C238.889 137.912 238.367 137.798 237.856 137.57C237.346 137.342 236.956 137.03 236.688 136.634L237.344 135.875C237.886 136.545 238.549 136.88 239.333 136.88C239.948 136.88 240.427 136.707 240.769 136.36C241.115 136.014 241.288 135.526 241.288 134.897V134.262C240.782 134.845 240.092 135.137 239.217 135.137C238.351 135.137 237.649 134.788 237.111 134.091C236.578 133.394 236.312 132.443 236.312 131.24ZM237.583 131.384C237.583 132.218 237.754 132.874 238.096 133.353C238.438 133.826 238.916 134.063 239.531 134.063C240.329 134.063 240.914 133.701 241.288 132.977V129.6C240.901 128.893 240.32 128.54 239.545 128.54C238.93 128.54 238.449 128.779 238.103 129.258C237.756 129.736 237.583 130.445 237.583 131.384ZM247.543 135.137C246.54 135.137 245.725 134.809 245.096 134.152C244.467 133.492 244.152 132.61 244.152 131.507V131.274C244.152 130.541 244.291 129.887 244.569 129.312C244.852 128.734 245.244 128.283 245.745 127.959C246.251 127.631 246.798 127.467 247.386 127.467C248.347 127.467 249.095 127.784 249.628 128.417C250.161 129.05 250.428 129.957 250.428 131.138V131.664H245.417C245.435 132.393 245.647 132.983 246.053 133.435C246.463 133.881 246.982 134.104 247.611 134.104C248.058 134.104 248.436 134.013 248.746 133.831C249.056 133.649 249.327 133.407 249.56 133.106L250.332 133.708C249.712 134.66 248.783 135.137 247.543 135.137ZM247.386 128.506C246.875 128.506 246.447 128.693 246.101 129.066C245.754 129.436 245.54 129.955 245.458 130.625H249.163V130.529C249.127 129.887 248.953 129.39 248.644 129.039C248.334 128.684 247.914 128.506 247.386 128.506ZM253.094 127.604L253.135 128.533C253.7 127.822 254.438 127.467 255.35 127.467C256.913 127.467 257.701 128.349 257.715 130.112V135H256.45V130.105C256.446 129.572 256.323 129.178 256.081 128.923C255.844 128.668 255.473 128.54 254.967 128.54C254.557 128.54 254.197 128.649 253.887 128.868C253.577 129.087 253.335 129.374 253.162 129.729V135H251.897V127.604H253.094ZM262.691 135.137C261.689 135.137 260.873 134.809 260.244 134.152C259.615 133.492 259.301 132.61 259.301 131.507V131.274C259.301 130.541 259.44 129.887 259.718 129.312C260 128.734 260.392 128.283 260.894 127.959C261.399 127.631 261.946 127.467 262.534 127.467C263.496 127.467 264.243 127.784 264.776 128.417C265.31 129.05 265.576 129.957 265.576 131.138V131.664H260.565C260.584 132.393 260.796 132.983 261.201 133.435C261.611 133.881 262.131 134.104 262.76 134.104C263.206 134.104 263.585 134.013 263.895 133.831C264.204 133.649 264.476 133.407 264.708 133.106L265.48 133.708C264.861 134.66 263.931 135.137 262.691 135.137ZM262.534 128.506C262.024 128.506 261.595 128.693 261.249 129.066C260.903 129.436 260.688 129.955 260.606 130.625H264.312V130.529C264.275 129.887 264.102 129.39 263.792 129.039C263.482 128.684 263.063 128.506 262.534 128.506ZM270.115 135.137C269.113 135.137 268.297 134.809 267.668 134.152C267.039 133.492 266.725 132.61 266.725 131.507V131.274C266.725 130.541 266.864 129.887 267.142 129.312C267.424 128.734 267.816 128.283 268.317 127.959C268.823 127.631 269.37 127.467 269.958 127.467C270.92 127.467 271.667 127.784 272.2 128.417C272.733 129.05 273 129.957 273 131.138V131.664H267.989C268.007 132.393 268.219 132.983 268.625 133.435C269.035 133.881 269.555 134.104 270.184 134.104C270.63 134.104 271.008 134.013 271.318 133.831C271.628 133.649 271.899 133.407 272.132 133.106L272.904 133.708C272.285 134.66 271.355 135.137 270.115 135.137ZM269.958 128.506C269.448 128.506 269.019 128.693 268.673 129.066C268.326 129.436 268.112 129.955 268.03 130.625H271.735V130.529C271.699 129.887 271.526 129.39 271.216 129.039C270.906 128.684 270.487 128.506 269.958 128.506ZM278.045 128.738C277.854 128.706 277.646 128.69 277.423 128.69C276.593 128.69 276.031 129.044 275.734 129.75V135H274.47V127.604H275.7L275.721 128.458C276.135 127.797 276.723 127.467 277.484 127.467C277.73 127.467 277.917 127.499 278.045 127.562V128.738Z" fill="black"/>
</svg>
