<svg width="220" height="90" viewBox="0 0 220 90" fill="none" xmlns="http://www.w3.org/2000/svg">
<path d="M95 30.0001L99.9254 25M95 30.0001H110H125M95 30.0001L99.9254 35M125 30.0001L120.522 25M125 30.0001L120.522 35" stroke="#BEBEBE" stroke-width="2" stroke-linecap="round"/>
<circle cx="40" cy="30" r="29.5" stroke="#CACACA"/>
<circle cx="40" cy="30" r="9.5" stroke="#43BAD6"/>
<path d="M30.6484 81.8418C30.5254 82.8945 30.1357 83.708 29.4795 84.2822C28.8278 84.8519 27.9596 85.1367 26.875 85.1367C25.6992 85.1367 24.7559 84.7152 24.0449 83.8721C23.3385 83.029 22.9854 81.901 22.9854 80.4883V79.5312C22.9854 78.6061 23.1494 77.7926 23.4775 77.0908C23.8102 76.389 24.2796 75.8512 24.8857 75.4775C25.4919 75.0993 26.1937 74.9102 26.9912 74.9102C28.0485 74.9102 28.8962 75.2064 29.5342 75.7988C30.1722 76.3867 30.5436 77.2025 30.6484 78.2461H29.3291C29.2152 77.4531 28.9668 76.8789 28.584 76.5234C28.2057 76.168 27.6748 75.9902 26.9912 75.9902C26.1527 75.9902 25.4941 76.3001 25.0156 76.9199C24.5417 77.5397 24.3047 78.4215 24.3047 79.5654V80.5293C24.3047 81.6094 24.5303 82.4684 24.9814 83.1064C25.4326 83.7445 26.0638 84.0635 26.875 84.0635C27.6042 84.0635 28.1624 83.8994 28.5498 83.5713C28.9417 83.2386 29.2015 82.6621 29.3291 81.8418H30.6484ZM33.6221 85H32.3574V74.5H33.6221V85ZM37.0264 85H35.7617V77.6035H37.0264V85ZM35.6592 75.6416C35.6592 75.4365 35.7207 75.2633 35.8438 75.1221C35.9714 74.9808 36.1582 74.9102 36.4043 74.9102C36.6504 74.9102 36.8372 74.9808 36.9648 75.1221C37.0924 75.2633 37.1562 75.4365 37.1562 75.6416C37.1562 75.8467 37.0924 76.0176 36.9648 76.1543C36.8372 76.291 36.6504 76.3594 36.4043 76.3594C36.1582 76.3594 35.9714 76.291 35.8438 76.1543C35.7207 76.0176 35.6592 75.8467 35.6592 75.6416ZM42.126 85.1367C41.1234 85.1367 40.3076 84.8086 39.6787 84.1523C39.0498 83.4915 38.7354 82.6097 38.7354 81.5068V81.2744C38.7354 80.5407 38.8743 79.8867 39.1523 79.3125C39.4349 78.7337 39.8268 78.2826 40.3281 77.959C40.834 77.6309 41.3809 77.4668 41.9688 77.4668C42.9303 77.4668 43.6777 77.7835 44.2109 78.417C44.7441 79.0505 45.0107 79.9574 45.0107 81.1377V81.6641H40C40.0182 82.3932 40.2301 82.9834 40.6357 83.4346C41.0459 83.8812 41.5654 84.1045 42.1943 84.1045C42.641 84.1045 43.0192 84.0133 43.3291 83.8311C43.639 83.6488 43.9102 83.4072 44.1426 83.1064L44.915 83.708C44.2952 84.6605 43.3656 85.1367 42.126 85.1367ZM41.9688 78.5059C41.4583 78.5059 41.0299 78.6927 40.6836 79.0664C40.3372 79.4355 40.123 79.9551 40.041 80.625H43.7461V80.5293C43.7096 79.8867 43.5365 79.39 43.2266 79.0391C42.9167 78.6836 42.4974 78.5059 41.9688 78.5059ZM47.6768 77.6035L47.7178 78.5332C48.2829 77.8223 49.0212 77.4668 49.9326 77.4668C51.4958 77.4668 52.2842 78.3486 52.2979 80.1123V85H51.0332V80.1055C51.0286 79.5723 50.9056 79.1781 50.6641 78.9229C50.4271 78.6676 50.0557 78.54 49.5498 78.54C49.1396 78.54 48.7796 78.6494 48.4697 78.8682C48.1598 79.0869 47.9183 79.374 47.7451 79.7295V85H46.4805V77.6035H47.6768ZM55.9209 75.8125V77.6035H57.3018V78.5811H55.9209V83.168C55.9209 83.4642 55.9824 83.6875 56.1055 83.8379C56.2285 83.9837 56.4382 84.0566 56.7344 84.0566C56.8802 84.0566 57.0807 84.0293 57.3359 83.9746V85C57.0033 85.0911 56.6797 85.1367 56.3652 85.1367C55.8001 85.1367 55.374 84.9658 55.0869 84.624C54.7998 84.2822 54.6562 83.7969 54.6562 83.168V78.5811H53.3096V77.6035H54.6562V75.8125H55.9209Z" fill="black"/>
<circle cx="180" cy="30" r="29.5" stroke="#CACACA"/>
<circle cx="180" cy="30" r="10" fill="#43BAD6"/>
<path d="M155.247 75.0469L158.501 83.168L161.755 75.0469H163.457V85H162.145V81.124L162.268 76.9404L159 85H157.995L154.734 76.9609L154.864 81.124V85H153.552V75.0469H155.247ZM170.143 85C170.07 84.8542 170.01 84.5944 169.965 84.2207C169.377 84.8314 168.675 85.1367 167.859 85.1367C167.13 85.1367 166.531 84.9316 166.062 84.5215C165.597 84.1068 165.364 83.5827 165.364 82.9492C165.364 82.179 165.656 81.582 166.239 81.1582C166.827 80.7298 167.652 80.5156 168.714 80.5156H169.944V79.9346C169.944 79.4925 169.812 79.1416 169.548 78.8818C169.284 78.6175 168.894 78.4854 168.379 78.4854C167.928 78.4854 167.549 78.5993 167.244 78.8271C166.939 79.055 166.786 79.3307 166.786 79.6543H165.515C165.515 79.2852 165.645 78.9297 165.904 78.5879C166.169 78.2415 166.524 77.9681 166.971 77.7676C167.422 77.5671 167.916 77.4668 168.454 77.4668C169.306 77.4668 169.974 77.681 170.457 78.1094C170.94 78.5332 171.191 79.1188 171.209 79.8662V83.2705C171.209 83.9495 171.296 84.4896 171.469 84.8906V85H170.143ZM168.044 84.0361C168.44 84.0361 168.816 83.9336 169.172 83.7285C169.527 83.5234 169.785 83.2568 169.944 82.9287V81.4111H168.953C167.404 81.4111 166.629 81.8646 166.629 82.7715C166.629 83.168 166.761 83.4779 167.025 83.7012C167.29 83.9245 167.629 84.0361 168.044 84.0361ZM174.388 77.6035L174.429 78.5332C174.994 77.8223 175.732 77.4668 176.644 77.4668C178.207 77.4668 178.995 78.3486 179.009 80.1123V85H177.744V80.1055C177.74 79.5723 177.617 79.1781 177.375 78.9229C177.138 78.6676 176.767 78.54 176.261 78.54C175.851 78.54 175.491 78.6494 175.181 78.8682C174.871 79.0869 174.629 79.374 174.456 79.7295V85H173.191V77.6035H174.388ZM185.482 85C185.41 84.8542 185.35 84.5944 185.305 84.2207C184.717 84.8314 184.015 85.1367 183.199 85.1367C182.47 85.1367 181.871 84.9316 181.401 84.5215C180.937 84.1068 180.704 83.5827 180.704 82.9492C180.704 82.179 180.996 81.582 181.579 81.1582C182.167 80.7298 182.992 80.5156 184.054 80.5156H185.284V79.9346C185.284 79.4925 185.152 79.1416 184.888 78.8818C184.623 78.6175 184.234 78.4854 183.719 78.4854C183.268 78.4854 182.889 78.5993 182.584 78.8271C182.279 79.055 182.126 79.3307 182.126 79.6543H180.854C180.854 79.2852 180.984 78.9297 181.244 78.5879C181.508 78.2415 181.864 77.9681 182.311 77.7676C182.762 77.5671 183.256 77.4668 183.794 77.4668C184.646 77.4668 185.314 77.681 185.797 78.1094C186.28 78.5332 186.531 79.1188 186.549 79.8662V83.2705C186.549 83.9495 186.635 84.4896 186.809 84.8906V85H185.482ZM183.384 84.0361C183.78 84.0361 184.156 83.9336 184.512 83.7285C184.867 83.5234 185.125 83.2568 185.284 82.9287V81.4111H184.293C182.743 81.4111 181.969 81.8646 181.969 82.7715C181.969 83.168 182.101 83.4779 182.365 83.7012C182.63 83.9245 182.969 84.0361 183.384 84.0361ZM188.23 81.2402C188.23 80.0872 188.497 79.1712 189.03 78.4922C189.563 77.8086 190.27 77.4668 191.149 77.4668C192.052 77.4668 192.756 77.7858 193.262 78.4238L193.323 77.6035H194.479V84.8223C194.479 85.7793 194.194 86.5335 193.624 87.085C193.059 87.6364 192.298 87.9121 191.341 87.9121C190.808 87.9121 190.286 87.7982 189.775 87.5703C189.265 87.3424 188.875 87.0303 188.606 86.6338L189.263 85.875C189.805 86.5449 190.468 86.8799 191.252 86.8799C191.867 86.8799 192.346 86.7067 192.688 86.3604C193.034 86.014 193.207 85.5264 193.207 84.8975V84.2617C192.701 84.8451 192.011 85.1367 191.136 85.1367C190.27 85.1367 189.568 84.7881 189.03 84.0908C188.497 83.3936 188.23 82.4434 188.23 81.2402ZM189.502 81.3838C189.502 82.2178 189.673 82.874 190.015 83.3525C190.356 83.8265 190.835 84.0635 191.45 84.0635C192.248 84.0635 192.833 83.7012 193.207 82.9766V79.5996C192.82 78.8932 192.239 78.54 191.464 78.54C190.849 78.54 190.368 78.7793 190.021 79.2578C189.675 79.7363 189.502 80.445 189.502 81.3838ZM199.462 85.1367C198.459 85.1367 197.644 84.8086 197.015 84.1523C196.386 83.4915 196.071 82.6097 196.071 81.5068V81.2744C196.071 80.5407 196.21 79.8867 196.488 79.3125C196.771 78.7337 197.163 78.2826 197.664 77.959C198.17 77.6309 198.717 77.4668 199.305 77.4668C200.266 77.4668 201.014 77.7835 201.547 78.417C202.08 79.0505 202.347 79.9574 202.347 81.1377V81.6641H197.336C197.354 82.3932 197.566 82.9834 197.972 83.4346C198.382 83.8812 198.901 84.1045 199.53 84.1045C199.977 84.1045 200.355 84.0133 200.665 83.8311C200.975 83.6488 201.246 83.4072 201.479 83.1064L202.251 83.708C201.631 84.6605 200.701 85.1367 199.462 85.1367ZM199.305 78.5059C198.794 78.5059 198.366 78.6927 198.02 79.0664C197.673 79.4355 197.459 79.9551 197.377 80.625H201.082V80.5293C201.046 79.8867 200.872 79.39 200.562 79.0391C200.253 78.6836 199.833 78.5059 199.305 78.5059ZM207.392 78.7383C207.2 78.7064 206.993 78.6904 206.77 78.6904C205.94 78.6904 205.377 79.0436 205.081 79.75V85H203.816V77.6035H205.047L205.067 78.458C205.482 77.7972 206.07 77.4668 206.831 77.4668C207.077 77.4668 207.264 77.4987 207.392 77.5625V78.7383Z" fill="black"/>
</svg>
