<svg width="61" height="234" viewBox="0 0 61 234" fill="none" xmlns="http://www.w3.org/2000/svg">
<circle cx="30" cy="30" r="29.5" stroke="#CACACA"/>
<circle cx="30" cy="30" r="9.5" stroke="#43BAD6"/>
<path d="M29.9999 102L29.9999 132M29.9999 132L35 127.522M29.9999 132L25 127.522" stroke="#BEBEBE" stroke-width="2" stroke-linecap="square"/>
<path d="M30.0001 131L30.0001 101M30.0001 101L25 105.478M30.0001 101L35 105.478" stroke="#BEBEBE" stroke-width="2" stroke-linecap="square"/>
<path d="M20.6484 79.8418C20.5254 80.8945 20.1357 81.708 19.4795 82.2822C18.8278 82.8519 17.9596 83.1367 16.875 83.1367C15.6992 83.1367 14.7559 82.7152 14.0449 81.8721C13.3385 81.029 12.9854 79.901 12.9854 78.4883V77.5312C12.9854 76.6061 13.1494 75.7926 13.4775 75.0908C13.8102 74.389 14.2796 73.8512 14.8857 73.4775C15.4919 73.0993 16.1937 72.9102 16.9912 72.9102C18.0485 72.9102 18.8962 73.2064 19.5342 73.7988C20.1722 74.3867 20.5436 75.2025 20.6484 76.2461H19.3291C19.2152 75.4531 18.9668 74.8789 18.584 74.5234C18.2057 74.168 17.6748 73.9902 16.9912 73.9902C16.1527 73.9902 15.4941 74.3001 15.0156 74.9199C14.5417 75.5397 14.3047 76.4215 14.3047 77.5654V78.5293C14.3047 79.6094 14.5303 80.4684 14.9814 81.1064C15.4326 81.7445 16.0638 82.0635 16.875 82.0635C17.6042 82.0635 18.1624 81.8994 18.5498 81.5713C18.9417 81.2386 19.2015 80.6621 19.3291 79.8418H20.6484ZM23.6221 83H22.3574V72.5H23.6221V83ZM27.0264 83H25.7617V75.6035H27.0264V83ZM25.6592 73.6416C25.6592 73.4365 25.7207 73.2633 25.8438 73.1221C25.9714 72.9808 26.1582 72.9102 26.4043 72.9102C26.6504 72.9102 26.8372 72.9808 26.9648 73.1221C27.0924 73.2633 27.1562 73.4365 27.1562 73.6416C27.1562 73.8467 27.0924 74.0176 26.9648 74.1543C26.8372 74.291 26.6504 74.3594 26.4043 74.3594C26.1582 74.3594 25.9714 74.291 25.8438 74.1543C25.7207 74.0176 25.6592 73.8467 25.6592 73.6416ZM32.126 83.1367C31.1234 83.1367 30.3076 82.8086 29.6787 82.1523C29.0498 81.4915 28.7354 80.6097 28.7354 79.5068V79.2744C28.7354 78.5407 28.8743 77.8867 29.1523 77.3125C29.4349 76.7337 29.8268 76.2826 30.3281 75.959C30.834 75.6309 31.3809 75.4668 31.9688 75.4668C32.9303 75.4668 33.6777 75.7835 34.2109 76.417C34.7441 77.0505 35.0107 77.9574 35.0107 79.1377V79.6641H30C30.0182 80.3932 30.2301 80.9834 30.6357 81.4346C31.0459 81.8812 31.5654 82.1045 32.1943 82.1045C32.641 82.1045 33.0192 82.0133 33.3291 81.8311C33.639 81.6488 33.9102 81.4072 34.1426 81.1064L34.915 81.708C34.2952 82.6605 33.3656 83.1367 32.126 83.1367ZM31.9688 76.5059C31.4583 76.5059 31.0299 76.6927 30.6836 77.0664C30.3372 77.4355 30.123 77.9551 30.041 78.625H33.7461V78.5293C33.7096 77.8867 33.5365 77.39 33.2266 77.0391C32.9167 76.6836 32.4974 76.5059 31.9688 76.5059ZM37.6768 75.6035L37.7178 76.5332C38.2829 75.8223 39.0212 75.4668 39.9326 75.4668C41.4958 75.4668 42.2842 76.3486 42.2979 78.1123V83H41.0332V78.1055C41.0286 77.5723 40.9056 77.1781 40.6641 76.9229C40.4271 76.6676 40.0557 76.54 39.5498 76.54C39.1396 76.54 38.7796 76.6494 38.4697 76.8682C38.1598 77.0869 37.9183 77.374 37.7451 77.7295V83H36.4805V75.6035H37.6768ZM45.9209 73.8125V75.6035H47.3018V76.5811H45.9209V81.168C45.9209 81.4642 45.9824 81.6875 46.1055 81.8379C46.2285 81.9837 46.4382 82.0566 46.7344 82.0566C46.8802 82.0566 47.0807 82.0293 47.3359 81.9746V83C47.0033 83.0911 46.6797 83.1367 46.3652 83.1367C45.8001 83.1367 45.374 82.9658 45.0869 82.624C44.7998 82.2822 44.6562 81.7969 44.6562 81.168V76.5811H43.3096V75.6035H44.6562V73.8125H45.9209Z" fill="black"/>
<circle cx="30.5" cy="177" r="29.5" stroke="#CACACA"/>
<circle cx="30.5" cy="177" r="10" fill="#43BAD6"/>
<path d="M5.24707 220.047L8.50098 228.168L11.7549 220.047H13.457V230H12.1445V226.124L12.2676 221.94L9 230H7.99512L4.73438 221.961L4.86426 226.124V230H3.55176V220.047H5.24707ZM20.1426 230C20.0697 229.854 20.0104 229.594 19.9648 229.221C19.377 229.831 18.6751 230.137 17.8594 230.137C17.1302 230.137 16.5309 229.932 16.0615 229.521C15.5967 229.107 15.3643 228.583 15.3643 227.949C15.3643 227.179 15.6559 226.582 16.2393 226.158C16.8271 225.73 17.652 225.516 18.7139 225.516H19.9443V224.935C19.9443 224.493 19.8122 224.142 19.5479 223.882C19.2835 223.618 18.8939 223.485 18.3789 223.485C17.9277 223.485 17.5495 223.599 17.2441 223.827C16.9388 224.055 16.7861 224.331 16.7861 224.654H15.5146C15.5146 224.285 15.6445 223.93 15.9043 223.588C16.1686 223.242 16.5241 222.968 16.9707 222.768C17.4219 222.567 17.9163 222.467 18.4541 222.467C19.3063 222.467 19.974 222.681 20.457 223.109C20.9401 223.533 21.1908 224.119 21.209 224.866V228.271C21.209 228.95 21.2956 229.49 21.4688 229.891V230H20.1426ZM18.0439 229.036C18.4404 229.036 18.8164 228.934 19.1719 228.729C19.5273 228.523 19.7848 228.257 19.9443 227.929V226.411H18.9531C17.4036 226.411 16.6289 226.865 16.6289 227.771C16.6289 228.168 16.7611 228.478 17.0254 228.701C17.2897 228.924 17.6292 229.036 18.0439 229.036ZM24.3877 222.604L24.4287 223.533C24.9938 222.822 25.7321 222.467 26.6436 222.467C28.2067 222.467 28.9951 223.349 29.0088 225.112V230H27.7441V225.105C27.7396 224.572 27.6165 224.178 27.375 223.923C27.138 223.668 26.7666 223.54 26.2607 223.54C25.8506 223.54 25.4906 223.649 25.1807 223.868C24.8708 224.087 24.6292 224.374 24.4561 224.729V230H23.1914V222.604H24.3877ZM35.4824 230C35.4095 229.854 35.3503 229.594 35.3047 229.221C34.7168 229.831 34.015 230.137 33.1992 230.137C32.4701 230.137 31.8708 229.932 31.4014 229.521C30.9365 229.107 30.7041 228.583 30.7041 227.949C30.7041 227.179 30.9958 226.582 31.5791 226.158C32.167 225.73 32.9919 225.516 34.0537 225.516H35.2842V224.935C35.2842 224.493 35.152 224.142 34.8877 223.882C34.6234 223.618 34.2337 223.485 33.7188 223.485C33.2676 223.485 32.8893 223.599 32.584 223.827C32.2786 224.055 32.126 224.331 32.126 224.654H30.8545C30.8545 224.285 30.9844 223.93 31.2441 223.588C31.5085 223.242 31.8639 222.968 32.3105 222.768C32.7617 222.567 33.2562 222.467 33.7939 222.467C34.6462 222.467 35.3138 222.681 35.7969 223.109C36.2799 223.533 36.5306 224.119 36.5488 224.866V228.271C36.5488 228.95 36.6354 229.49 36.8086 229.891V230H35.4824ZM33.3838 229.036C33.7803 229.036 34.1562 228.934 34.5117 228.729C34.8672 228.523 35.1247 228.257 35.2842 227.929V226.411H34.293C32.7435 226.411 31.9688 226.865 31.9688 227.771C31.9688 228.168 32.1009 228.478 32.3652 228.701C32.6296 228.924 32.9691 229.036 33.3838 229.036ZM38.2305 226.24C38.2305 225.087 38.4971 224.171 39.0303 223.492C39.5635 222.809 40.2699 222.467 41.1494 222.467C42.0518 222.467 42.7559 222.786 43.2617 223.424L43.3232 222.604H44.4785V229.822C44.4785 230.779 44.1937 231.534 43.624 232.085C43.0589 232.636 42.2979 232.912 41.3408 232.912C40.8076 232.912 40.2858 232.798 39.7754 232.57C39.265 232.342 38.8753 232.03 38.6064 231.634L39.2627 230.875C39.805 231.545 40.4681 231.88 41.252 231.88C41.8672 231.88 42.3457 231.707 42.6875 231.36C43.0339 231.014 43.207 230.526 43.207 229.897V229.262C42.7012 229.845 42.0107 230.137 41.1357 230.137C40.2699 230.137 39.568 229.788 39.0303 229.091C38.4971 228.394 38.2305 227.443 38.2305 226.24ZM39.502 226.384C39.502 227.218 39.6729 227.874 40.0146 228.353C40.3564 228.826 40.835 229.063 41.4502 229.063C42.2477 229.063 42.8333 228.701 43.207 227.977V224.6C42.8197 223.893 42.2386 223.54 41.4639 223.54C40.8486 223.54 40.3678 223.779 40.0215 224.258C39.6751 224.736 39.502 225.445 39.502 226.384ZM49.4619 230.137C48.4593 230.137 47.6436 229.809 47.0146 229.152C46.3857 228.492 46.0713 227.61 46.0713 226.507V226.274C46.0713 225.541 46.2103 224.887 46.4883 224.312C46.7708 223.734 47.1628 223.283 47.6641 222.959C48.1699 222.631 48.7168 222.467 49.3047 222.467C50.2663 222.467 51.0137 222.784 51.5469 223.417C52.0801 224.05 52.3467 224.957 52.3467 226.138V226.664H47.3359C47.3542 227.393 47.5661 227.983 47.9717 228.435C48.3818 228.881 48.9014 229.104 49.5303 229.104C49.9769 229.104 50.3551 229.013 50.665 228.831C50.9749 228.649 51.2461 228.407 51.4785 228.106L52.251 228.708C51.6312 229.66 50.7015 230.137 49.4619 230.137ZM49.3047 223.506C48.7943 223.506 48.3659 223.693 48.0195 224.066C47.6732 224.436 47.459 224.955 47.377 225.625H51.082V225.529C51.0456 224.887 50.8724 224.39 50.5625 224.039C50.2526 223.684 49.8333 223.506 49.3047 223.506ZM57.3916 223.738C57.2002 223.706 56.9928 223.69 56.7695 223.69C55.9401 223.69 55.3773 224.044 55.0811 224.75V230H53.8164V222.604H55.0469L55.0674 223.458C55.4821 222.797 56.07 222.467 56.8311 222.467C57.0771 222.467 57.264 222.499 57.3916 222.562V223.738Z" fill="black"/>
</svg>
