<svg width="520" height="151" viewBox="0 0 520 151" fill="none" xmlns="http://www.w3.org/2000/svg">
<circle cx="480" cy="91" r="29.5" stroke="#CACACA"/>
<circle cx="480" cy="91" r="9.5" stroke="#43BAD6"/>
<path d="M470.648 142.842C470.525 143.895 470.136 144.708 469.479 145.282C468.828 145.852 467.96 146.137 466.875 146.137C465.699 146.137 464.756 145.715 464.045 144.872C463.339 144.029 462.985 142.901 462.985 141.488V140.531C462.985 139.606 463.149 138.793 463.478 138.091C463.81 137.389 464.28 136.851 464.886 136.478C465.492 136.099 466.194 135.91 466.991 135.91C468.049 135.91 468.896 136.206 469.534 136.799C470.172 137.387 470.544 138.202 470.648 139.246H469.329C469.215 138.453 468.967 137.879 468.584 137.523C468.206 137.168 467.675 136.99 466.991 136.99C466.153 136.99 465.494 137.3 465.016 137.92C464.542 138.54 464.305 139.422 464.305 140.565V141.529C464.305 142.609 464.53 143.468 464.981 144.106C465.433 144.744 466.064 145.063 466.875 145.063C467.604 145.063 468.162 144.899 468.55 144.571C468.942 144.239 469.201 143.662 469.329 142.842H470.648ZM473.622 146H472.357V135.5H473.622V146ZM477.026 146H475.762V138.604H477.026V146ZM475.659 136.642C475.659 136.437 475.721 136.263 475.844 136.122C475.971 135.981 476.158 135.91 476.404 135.91C476.65 135.91 476.837 135.981 476.965 136.122C477.092 136.263 477.156 136.437 477.156 136.642C477.156 136.847 477.092 137.018 476.965 137.154C476.837 137.291 476.65 137.359 476.404 137.359C476.158 137.359 475.971 137.291 475.844 137.154C475.721 137.018 475.659 136.847 475.659 136.642ZM482.126 146.137C481.123 146.137 480.308 145.809 479.679 145.152C479.05 144.492 478.735 143.61 478.735 142.507V142.274C478.735 141.541 478.874 140.887 479.152 140.312C479.435 139.734 479.827 139.283 480.328 138.959C480.834 138.631 481.381 138.467 481.969 138.467C482.93 138.467 483.678 138.784 484.211 139.417C484.744 140.05 485.011 140.957 485.011 142.138V142.664H480C480.018 143.393 480.23 143.983 480.636 144.435C481.046 144.881 481.565 145.104 482.194 145.104C482.641 145.104 483.019 145.013 483.329 144.831C483.639 144.649 483.91 144.407 484.143 144.106L484.915 144.708C484.295 145.66 483.366 146.137 482.126 146.137ZM481.969 139.506C481.458 139.506 481.03 139.693 480.684 140.066C480.337 140.436 480.123 140.955 480.041 141.625H483.746V141.529C483.71 140.887 483.536 140.39 483.227 140.039C482.917 139.684 482.497 139.506 481.969 139.506ZM487.677 138.604L487.718 139.533C488.283 138.822 489.021 138.467 489.933 138.467C491.496 138.467 492.284 139.349 492.298 141.112V146H491.033V141.105C491.029 140.572 490.906 140.178 490.664 139.923C490.427 139.668 490.056 139.54 489.55 139.54C489.14 139.54 488.78 139.649 488.47 139.868C488.16 140.087 487.918 140.374 487.745 140.729V146H486.48V138.604H487.677ZM495.921 136.812V138.604H497.302V139.581H495.921V144.168C495.921 144.464 495.982 144.688 496.105 144.838C496.229 144.984 496.438 145.057 496.734 145.057C496.88 145.057 497.081 145.029 497.336 144.975V146C497.003 146.091 496.68 146.137 496.365 146.137C495.8 146.137 495.374 145.966 495.087 145.624C494.8 145.282 494.656 144.797 494.656 144.168V139.581H493.31V138.604H494.656V136.812H495.921Z" fill="black"/>
<circle cx="40" cy="91" r="29.5" stroke="#CACACA"/>
<circle cx="40" cy="91" r="10" fill="#43BAD6"/>
<path d="M15.2471 136.047L18.501 144.168L21.7549 136.047H23.457V146H22.1445V142.124L22.2676 137.94L19 146H17.9951L14.7344 137.961L14.8643 142.124V146H13.5518V136.047H15.2471ZM30.1426 146C30.0697 145.854 30.0104 145.594 29.9648 145.221C29.377 145.831 28.6751 146.137 27.8594 146.137C27.1302 146.137 26.5309 145.932 26.0615 145.521C25.5967 145.107 25.3643 144.583 25.3643 143.949C25.3643 143.179 25.6559 142.582 26.2393 142.158C26.8271 141.73 27.652 141.516 28.7139 141.516H29.9443V140.935C29.9443 140.493 29.8122 140.142 29.5479 139.882C29.2835 139.618 28.8939 139.485 28.3789 139.485C27.9277 139.485 27.5495 139.599 27.2441 139.827C26.9388 140.055 26.7861 140.331 26.7861 140.654H25.5146C25.5146 140.285 25.6445 139.93 25.9043 139.588C26.1686 139.242 26.5241 138.968 26.9707 138.768C27.4219 138.567 27.9163 138.467 28.4541 138.467C29.3063 138.467 29.974 138.681 30.457 139.109C30.9401 139.533 31.1908 140.119 31.209 140.866V144.271C31.209 144.95 31.2956 145.49 31.4688 145.891V146H30.1426ZM28.0439 145.036C28.4404 145.036 28.8164 144.934 29.1719 144.729C29.5273 144.523 29.7848 144.257 29.9443 143.929V142.411H28.9531C27.4036 142.411 26.6289 142.865 26.6289 143.771C26.6289 144.168 26.7611 144.478 27.0254 144.701C27.2897 144.924 27.6292 145.036 28.0439 145.036ZM34.3877 138.604L34.4287 139.533C34.9938 138.822 35.7321 138.467 36.6436 138.467C38.2067 138.467 38.9951 139.349 39.0088 141.112V146H37.7441V141.105C37.7396 140.572 37.6165 140.178 37.375 139.923C37.138 139.668 36.7666 139.54 36.2607 139.54C35.8506 139.54 35.4906 139.649 35.1807 139.868C34.8708 140.087 34.6292 140.374 34.4561 140.729V146H33.1914V138.604H34.3877ZM45.4824 146C45.4095 145.854 45.3503 145.594 45.3047 145.221C44.7168 145.831 44.015 146.137 43.1992 146.137C42.4701 146.137 41.8708 145.932 41.4014 145.521C40.9365 145.107 40.7041 144.583 40.7041 143.949C40.7041 143.179 40.9958 142.582 41.5791 142.158C42.167 141.73 42.9919 141.516 44.0537 141.516H45.2842V140.935C45.2842 140.493 45.152 140.142 44.8877 139.882C44.6234 139.618 44.2337 139.485 43.7188 139.485C43.2676 139.485 42.8893 139.599 42.584 139.827C42.2786 140.055 42.126 140.331 42.126 140.654H40.8545C40.8545 140.285 40.9844 139.93 41.2441 139.588C41.5085 139.242 41.8639 138.968 42.3105 138.768C42.7617 138.567 43.2562 138.467 43.7939 138.467C44.6462 138.467 45.3138 138.681 45.7969 139.109C46.2799 139.533 46.5306 140.119 46.5488 140.866V144.271C46.5488 144.95 46.6354 145.49 46.8086 145.891V146H45.4824ZM43.3838 145.036C43.7803 145.036 44.1562 144.934 44.5117 144.729C44.8672 144.523 45.1247 144.257 45.2842 143.929V142.411H44.293C42.7435 142.411 41.9688 142.865 41.9688 143.771C41.9688 144.168 42.1009 144.478 42.3652 144.701C42.6296 144.924 42.9691 145.036 43.3838 145.036ZM48.2305 142.24C48.2305 141.087 48.4971 140.171 49.0303 139.492C49.5635 138.809 50.2699 138.467 51.1494 138.467C52.0518 138.467 52.7559 138.786 53.2617 139.424L53.3232 138.604H54.4785V145.822C54.4785 146.779 54.1937 147.534 53.624 148.085C53.0589 148.636 52.2979 148.912 51.3408 148.912C50.8076 148.912 50.2858 148.798 49.7754 148.57C49.265 148.342 48.8753 148.03 48.6064 147.634L49.2627 146.875C49.805 147.545 50.4681 147.88 51.252 147.88C51.8672 147.88 52.3457 147.707 52.6875 147.36C53.0339 147.014 53.207 146.526 53.207 145.897V145.262C52.7012 145.845 52.0107 146.137 51.1357 146.137C50.2699 146.137 49.568 145.788 49.0303 145.091C48.4971 144.394 48.2305 143.443 48.2305 142.24ZM49.502 142.384C49.502 143.218 49.6729 143.874 50.0146 144.353C50.3564 144.826 50.835 145.063 51.4502 145.063C52.2477 145.063 52.8333 144.701 53.207 143.977V140.6C52.8197 139.893 52.2386 139.54 51.4639 139.54C50.8486 139.54 50.3678 139.779 50.0215 140.258C49.6751 140.736 49.502 141.445 49.502 142.384ZM59.4619 146.137C58.4593 146.137 57.6436 145.809 57.0146 145.152C56.3857 144.492 56.0713 143.61 56.0713 142.507V142.274C56.0713 141.541 56.2103 140.887 56.4883 140.312C56.7708 139.734 57.1628 139.283 57.6641 138.959C58.1699 138.631 58.7168 138.467 59.3047 138.467C60.2663 138.467 61.0137 138.784 61.5469 139.417C62.0801 140.05 62.3467 140.957 62.3467 142.138V142.664H57.3359C57.3542 143.393 57.5661 143.983 57.9717 144.435C58.3818 144.881 58.9014 145.104 59.5303 145.104C59.9769 145.104 60.3551 145.013 60.665 144.831C60.9749 144.649 61.2461 144.407 61.4785 144.106L62.251 144.708C61.6312 145.66 60.7015 146.137 59.4619 146.137ZM59.3047 139.506C58.7943 139.506 58.3659 139.693 58.0195 140.066C57.6732 140.436 57.459 140.955 57.377 141.625H61.082V141.529C61.0456 140.887 60.8724 140.39 60.5625 140.039C60.2526 139.684 59.8333 139.506 59.3047 139.506ZM67.3916 139.738C67.2002 139.706 66.9928 139.69 66.7695 139.69C65.9401 139.69 65.3773 140.044 65.0811 140.75V146H63.8164V138.604H65.0469L65.0674 139.458C65.4821 138.797 66.07 138.467 66.8311 138.467C67.0771 138.467 67.264 138.499 67.3916 138.562V139.738Z" fill="black"/>
<path d="M255 91.0001H285M285 91.0001L280.588 86M285 91.0001L280.588 96" stroke="#BEBEBE" stroke-width="2" stroke-linecap="round"/>
<circle cx="190" cy="91" r="30" fill="#F0F0F0"/>
<circle cx="190" cy="91" r="10" fill="#43BAD6"/>
<path d="M160.004 136.047V142.814C159.999 143.753 159.703 144.521 159.115 145.118C158.532 145.715 157.739 146.05 156.736 146.123L156.388 146.137C155.299 146.137 154.43 145.843 153.783 145.255C153.136 144.667 152.808 143.858 152.799 142.828V136.047H154.098V142.787C154.098 143.507 154.296 144.068 154.692 144.469C155.089 144.865 155.654 145.063 156.388 145.063C157.131 145.063 157.698 144.865 158.09 144.469C158.486 144.072 158.685 143.514 158.685 142.794V136.047H160.004ZM165.322 139.861L167.708 136.047H169.253L166.108 140.982L169.328 146H167.77L165.322 142.117L162.861 146H161.31L164.536 140.982L161.385 136.047H162.923L165.322 139.861ZM174.325 146V136.047H177.135C178.001 136.047 178.766 136.238 179.432 136.621C180.097 137.004 180.61 137.549 180.97 138.255C181.334 138.961 181.519 139.772 181.523 140.688V141.324C181.523 142.263 181.341 143.086 180.977 143.792C180.617 144.498 180.099 145.041 179.425 145.419C178.755 145.797 177.973 145.991 177.08 146H174.325ZM175.638 137.127V144.927H177.019C178.03 144.927 178.816 144.612 179.377 143.983C179.942 143.354 180.225 142.459 180.225 141.297V140.716C180.225 139.586 179.958 138.708 179.425 138.084C178.896 137.455 178.144 137.136 177.169 137.127H175.638ZM186.384 146.137C185.381 146.137 184.565 145.809 183.937 145.152C183.308 144.492 182.993 143.61 182.993 142.507V142.274C182.993 141.541 183.132 140.887 183.41 140.312C183.693 139.734 184.085 139.283 184.586 138.959C185.092 138.631 185.639 138.467 186.227 138.467C187.188 138.467 187.936 138.784 188.469 139.417C189.002 140.05 189.269 140.957 189.269 142.138V142.664H184.258C184.276 143.393 184.488 143.983 184.894 144.435C185.304 144.881 185.823 145.104 186.452 145.104C186.899 145.104 187.277 145.013 187.587 144.831C187.897 144.649 188.168 144.407 188.4 144.106L189.173 144.708C188.553 145.66 187.623 146.137 186.384 146.137ZM186.227 139.506C185.716 139.506 185.288 139.693 184.941 140.066C184.595 140.436 184.381 140.955 184.299 141.625H188.004V141.529C187.967 140.887 187.794 140.39 187.484 140.039C187.174 139.684 186.755 139.506 186.227 139.506ZM195.045 144.038C195.045 143.696 194.915 143.432 194.655 143.245C194.4 143.054 193.951 142.89 193.309 142.753C192.671 142.616 192.162 142.452 191.784 142.261C191.41 142.069 191.132 141.841 190.95 141.577C190.772 141.313 190.684 140.998 190.684 140.634C190.684 140.028 190.939 139.515 191.449 139.096C191.964 138.676 192.62 138.467 193.418 138.467C194.257 138.467 194.936 138.683 195.455 139.116C195.979 139.549 196.241 140.103 196.241 140.777H194.97C194.97 140.431 194.822 140.132 194.525 139.882C194.234 139.631 193.865 139.506 193.418 139.506C192.958 139.506 192.598 139.606 192.338 139.807C192.078 140.007 191.948 140.269 191.948 140.593C191.948 140.898 192.069 141.128 192.311 141.283C192.552 141.438 192.987 141.586 193.616 141.728C194.25 141.869 194.762 142.037 195.154 142.233C195.546 142.429 195.836 142.666 196.022 142.944C196.214 143.218 196.31 143.553 196.31 143.949C196.31 144.61 196.045 145.141 195.517 145.542C194.988 145.938 194.302 146.137 193.459 146.137C192.867 146.137 192.342 146.032 191.887 145.822C191.431 145.613 191.073 145.321 190.813 144.947C190.558 144.569 190.431 144.161 190.431 143.724H191.695C191.718 144.147 191.887 144.485 192.201 144.735C192.52 144.981 192.939 145.104 193.459 145.104C193.938 145.104 194.32 145.009 194.607 144.817C194.899 144.621 195.045 144.362 195.045 144.038ZM199.331 146H198.066V138.604H199.331V146ZM197.964 136.642C197.964 136.437 198.025 136.263 198.148 136.122C198.276 135.981 198.463 135.91 198.709 135.91C198.955 135.91 199.142 135.981 199.27 136.122C199.397 136.263 199.461 136.437 199.461 136.642C199.461 136.847 199.397 137.018 199.27 137.154C199.142 137.291 198.955 137.359 198.709 137.359C198.463 137.359 198.276 137.291 198.148 137.154C198.025 137.018 197.964 136.847 197.964 136.642ZM201.061 142.24C201.061 141.087 201.327 140.171 201.86 139.492C202.394 138.809 203.1 138.467 203.979 138.467C204.882 138.467 205.586 138.786 206.092 139.424L206.153 138.604H207.309V145.822C207.309 146.779 207.024 147.534 206.454 148.085C205.889 148.636 205.128 148.912 204.171 148.912C203.638 148.912 203.116 148.798 202.605 148.57C202.095 148.342 201.705 148.03 201.437 147.634L202.093 146.875C202.635 147.545 203.298 147.88 204.082 147.88C204.697 147.88 205.176 147.707 205.518 147.36C205.864 147.014 206.037 146.526 206.037 145.897V145.262C205.531 145.845 204.841 146.137 203.966 146.137C203.1 146.137 202.398 145.788 201.86 145.091C201.327 144.394 201.061 143.443 201.061 142.24ZM202.332 142.384C202.332 143.218 202.503 143.874 202.845 144.353C203.187 144.826 203.665 145.063 204.28 145.063C205.078 145.063 205.663 144.701 206.037 143.977V140.6C205.65 139.893 205.069 139.54 204.294 139.54C203.679 139.54 203.198 139.779 202.852 140.258C202.505 140.736 202.332 141.445 202.332 142.384ZM210.419 138.604L210.46 139.533C211.025 138.822 211.763 138.467 212.675 138.467C214.238 138.467 215.026 139.349 215.04 141.112V146H213.775V141.105C213.771 140.572 213.648 140.178 213.406 139.923C213.169 139.668 212.798 139.54 212.292 139.54C211.882 139.54 211.522 139.649 211.212 139.868C210.902 140.087 210.66 140.374 210.487 140.729V146H209.223V138.604H210.419ZM220.017 146.137C219.014 146.137 218.198 145.809 217.569 145.152C216.94 144.492 216.626 143.61 216.626 142.507V142.274C216.626 141.541 216.765 140.887 217.043 140.312C217.326 139.734 217.717 139.283 218.219 138.959C218.725 138.631 219.271 138.467 219.859 138.467C220.821 138.467 221.568 138.784 222.102 139.417C222.635 140.05 222.901 140.957 222.901 142.138V142.664H217.891C217.909 143.393 218.121 143.983 218.526 144.435C218.937 144.881 219.456 145.104 220.085 145.104C220.532 145.104 220.91 145.013 221.22 144.831C221.53 144.649 221.801 144.407 222.033 144.106L222.806 144.708C222.186 145.66 221.256 146.137 220.017 146.137ZM219.859 139.506C219.349 139.506 218.921 139.693 218.574 140.066C218.228 140.436 218.014 140.955 217.932 141.625H221.637V141.529C221.6 140.887 221.427 140.39 221.117 140.039C220.807 139.684 220.388 139.506 219.859 139.506ZM227.946 139.738C227.755 139.706 227.548 139.69 227.324 139.69C226.495 139.69 225.932 140.044 225.636 140.75V146H224.371V138.604H225.602L225.622 139.458C226.037 138.797 226.625 138.467 227.386 138.467C227.632 138.467 227.819 138.499 227.946 138.562V139.738Z" fill="black"/>
<circle cx="340.5" cy="91" r="30" fill="#43BAD6"/>
<circle cx="340.5" cy="91" r="10" fill="white"/>
<path d="M312.485 136.047V142.814C312.481 143.753 312.185 144.521 311.597 145.118C311.013 145.715 310.22 146.05 309.218 146.123L308.869 146.137C307.78 146.137 306.912 145.843 306.265 145.255C305.618 144.667 305.289 143.858 305.28 142.828V136.047H306.579V142.787C306.579 143.507 306.777 144.068 307.174 144.469C307.57 144.865 308.135 145.063 308.869 145.063C309.612 145.063 310.179 144.865 310.571 144.469C310.968 144.072 311.166 143.514 311.166 142.794V136.047H312.485ZM315.965 146H314.652V136.047H315.965V146ZM321.844 146V136.047H324.653C325.519 136.047 326.285 136.238 326.95 136.621C327.616 137.004 328.128 137.549 328.488 138.255C328.853 138.961 329.037 139.772 329.042 140.688V141.324C329.042 142.263 328.86 143.086 328.495 143.792C328.135 144.498 327.618 145.041 326.943 145.419C326.273 145.797 325.492 145.991 324.599 146H321.844ZM323.156 137.127V144.927H324.537C325.549 144.927 326.335 144.612 326.896 143.983C327.461 143.354 327.743 142.459 327.743 141.297V140.716C327.743 139.586 327.477 138.708 326.943 138.084C326.415 137.455 325.663 137.136 324.688 137.127H323.156ZM333.902 146.137C332.9 146.137 332.084 145.809 331.455 145.152C330.826 144.492 330.512 143.61 330.512 142.507V142.274C330.512 141.541 330.651 140.887 330.929 140.312C331.211 139.734 331.603 139.283 332.104 138.959C332.61 138.631 333.157 138.467 333.745 138.467C334.707 138.467 335.454 138.784 335.987 139.417C336.521 140.05 336.787 140.957 336.787 142.138V142.664H331.776C331.795 143.393 332.007 143.983 332.412 144.435C332.822 144.881 333.342 145.104 333.971 145.104C334.417 145.104 334.796 145.013 335.105 144.831C335.415 144.649 335.687 144.407 335.919 144.106L336.691 144.708C336.072 145.66 335.142 146.137 333.902 146.137ZM333.745 139.506C333.235 139.506 332.806 139.693 332.46 140.066C332.114 140.436 331.899 140.955 331.817 141.625H335.522V141.529C335.486 140.887 335.313 140.39 335.003 140.039C334.693 139.684 334.274 139.506 333.745 139.506ZM342.563 144.038C342.563 143.696 342.434 143.432 342.174 143.245C341.919 143.054 341.47 142.89 340.827 142.753C340.189 142.616 339.681 142.452 339.303 142.261C338.929 142.069 338.651 141.841 338.469 141.577C338.291 141.313 338.202 140.998 338.202 140.634C338.202 140.028 338.457 139.515 338.968 139.096C339.483 138.676 340.139 138.467 340.937 138.467C341.775 138.467 342.454 138.683 342.974 139.116C343.498 139.549 343.76 140.103 343.76 140.777H342.488C342.488 140.431 342.34 140.132 342.044 139.882C341.752 139.631 341.383 139.506 340.937 139.506C340.476 139.506 340.116 139.606 339.856 139.807C339.597 140.007 339.467 140.269 339.467 140.593C339.467 140.898 339.588 141.128 339.829 141.283C340.071 141.438 340.506 141.586 341.135 141.728C341.768 141.869 342.281 142.037 342.673 142.233C343.065 142.429 343.354 142.666 343.541 142.944C343.732 143.218 343.828 143.553 343.828 143.949C343.828 144.61 343.564 145.141 343.035 145.542C342.507 145.938 341.821 146.137 340.978 146.137C340.385 146.137 339.861 146.032 339.405 145.822C338.95 145.613 338.592 145.321 338.332 144.947C338.077 144.569 337.949 144.161 337.949 143.724H339.214C339.237 144.147 339.405 144.485 339.72 144.735C340.039 144.981 340.458 145.104 340.978 145.104C341.456 145.104 341.839 145.009 342.126 144.817C342.418 144.621 342.563 144.362 342.563 144.038ZM346.85 146H345.585V138.604H346.85V146ZM345.482 136.642C345.482 136.437 345.544 136.263 345.667 136.122C345.795 135.981 345.981 135.91 346.228 135.91C346.474 135.91 346.66 135.981 346.788 136.122C346.916 136.263 346.979 136.437 346.979 136.642C346.979 136.847 346.916 137.018 346.788 137.154C346.66 137.291 346.474 137.359 346.228 137.359C345.981 137.359 345.795 137.291 345.667 137.154C345.544 137.018 345.482 136.847 345.482 136.642ZM348.579 142.24C348.579 141.087 348.846 140.171 349.379 139.492C349.912 138.809 350.618 138.467 351.498 138.467C352.4 138.467 353.104 138.786 353.61 139.424L353.672 138.604H354.827V145.822C354.827 146.779 354.542 147.534 353.973 148.085C353.408 148.636 352.646 148.912 351.689 148.912C351.156 148.912 350.634 148.798 350.124 148.57C349.614 148.342 349.224 148.03 348.955 147.634L349.611 146.875C350.154 147.545 350.817 147.88 351.601 147.88C352.216 147.88 352.694 147.707 353.036 147.36C353.382 147.014 353.556 146.526 353.556 145.897V145.262C353.05 145.845 352.359 146.137 351.484 146.137C350.618 146.137 349.917 145.788 349.379 145.091C348.846 144.394 348.579 143.443 348.579 142.24ZM349.851 142.384C349.851 143.218 350.021 143.874 350.363 144.353C350.705 144.826 351.184 145.063 351.799 145.063C352.596 145.063 353.182 144.701 353.556 143.977V140.6C353.168 139.893 352.587 139.54 351.812 139.54C351.197 139.54 350.716 139.779 350.37 140.258C350.024 140.736 349.851 141.445 349.851 142.384ZM357.938 138.604L357.979 139.533C358.544 138.822 359.282 138.467 360.193 138.467C361.757 138.467 362.545 139.349 362.559 141.112V146H361.294V141.105C361.289 140.572 361.166 140.178 360.925 139.923C360.688 139.668 360.316 139.54 359.811 139.54C359.4 139.54 359.04 139.649 358.73 139.868C358.421 140.087 358.179 140.374 358.006 140.729V146H356.741V138.604H357.938ZM367.535 146.137C366.533 146.137 365.717 145.809 365.088 145.152C364.459 144.492 364.145 143.61 364.145 142.507V142.274C364.145 141.541 364.284 140.887 364.562 140.312C364.844 139.734 365.236 139.283 365.737 138.959C366.243 138.631 366.79 138.467 367.378 138.467C368.34 138.467 369.087 138.784 369.62 139.417C370.153 140.05 370.42 140.957 370.42 142.138V142.664H365.409C365.427 143.393 365.639 143.983 366.045 144.435C366.455 144.881 366.975 145.104 367.604 145.104C368.05 145.104 368.428 145.013 368.738 144.831C369.048 144.649 369.319 144.407 369.552 144.106L370.324 144.708C369.704 145.66 368.775 146.137 367.535 146.137ZM367.378 139.506C366.868 139.506 366.439 139.693 366.093 140.066C365.746 140.436 365.532 140.955 365.45 141.625H369.155V141.529C369.119 140.887 368.946 140.39 368.636 140.039C368.326 139.684 367.907 139.506 367.378 139.506ZM375.465 139.738C375.273 139.706 375.066 139.69 374.843 139.69C374.013 139.69 373.451 140.044 373.154 140.75V146H371.89V138.604H373.12L373.141 139.458C373.555 138.797 374.143 138.467 374.904 138.467C375.15 138.467 375.337 138.499 375.465 138.562V139.738Z" fill="black"/>
<path d="M327 51C327 51 310.413 34 267 34C221.725 34 207 51 207 51" stroke="#BEBEBE" stroke-width="2" stroke-linecap="round" stroke-dasharray="0.5 4"/>
<path d="M213 51L207 51L207 45" stroke="#BEBEBE" stroke-width="2" stroke-linecap="round"/>
<path d="M187 51C187 51 167.649 34 117 34C64.1791 34 47 51 47 51" stroke="#BEBEBE" stroke-width="2" stroke-linecap="round" stroke-dasharray="0.5 4"/>
<path d="M47 51C47 51 106.436 1 262 1C424.236 1 477 51 477 51" stroke="#BEBEBE" stroke-width="2" stroke-linecap="round" stroke-dasharray="0.5 4"/>
<path d="M477 45V51H471" stroke="#BEBEBE" stroke-width="2" stroke-linecap="round"/>
<path d="M53 51L47 51L47 45" stroke="#BEBEBE" stroke-width="2" stroke-linecap="round"/>
</svg>
