<svg width="164" height="528" viewBox="0 0 164 528" fill="none" xmlns="http://www.w3.org/2000/svg">
<circle cx="39" cy="471" r="29.5" stroke="#CACACA"/>
<circle cx="39" cy="471" r="9.5" stroke="#43BAD6"/>
<path d="M29.6484 520.842C29.5254 521.895 29.1357 522.708 28.4795 523.282C27.8278 523.852 26.9596 524.137 25.875 524.137C24.6992 524.137 23.7559 523.715 23.0449 522.872C22.3385 522.029 21.9854 520.901 21.9854 519.488V518.531C21.9854 517.606 22.1494 516.793 22.4775 516.091C22.8102 515.389 23.2796 514.851 23.8857 514.478C24.4919 514.099 25.1937 513.91 25.9912 513.91C27.0485 513.91 27.8962 514.206 28.5342 514.799C29.1722 515.387 29.5436 516.202 29.6484 517.246H28.3291C28.2152 516.453 27.9668 515.879 27.584 515.523C27.2057 515.168 26.6748 514.99 25.9912 514.99C25.1527 514.99 24.4941 515.3 24.0156 515.92C23.5417 516.54 23.3047 517.422 23.3047 518.565V519.529C23.3047 520.609 23.5303 521.468 23.9814 522.106C24.4326 522.744 25.0638 523.063 25.875 523.063C26.6042 523.063 27.1624 522.899 27.5498 522.571C27.9417 522.239 28.2015 521.662 28.3291 520.842H29.6484ZM32.6221 524H31.3574V513.5H32.6221V524ZM36.0264 524H34.7617V516.604H36.0264V524ZM34.6592 514.642C34.6592 514.437 34.7207 514.263 34.8438 514.122C34.9714 513.981 35.1582 513.91 35.4043 513.91C35.6504 513.91 35.8372 513.981 35.9648 514.122C36.0924 514.263 36.1562 514.437 36.1562 514.642C36.1562 514.847 36.0924 515.018 35.9648 515.154C35.8372 515.291 35.6504 515.359 35.4043 515.359C35.1582 515.359 34.9714 515.291 34.8438 515.154C34.7207 515.018 34.6592 514.847 34.6592 514.642ZM41.126 524.137C40.1234 524.137 39.3076 523.809 38.6787 523.152C38.0498 522.492 37.7354 521.61 37.7354 520.507V520.274C37.7354 519.541 37.8743 518.887 38.1523 518.312C38.4349 517.734 38.8268 517.283 39.3281 516.959C39.834 516.631 40.3809 516.467 40.9688 516.467C41.9303 516.467 42.6777 516.784 43.2109 517.417C43.7441 518.05 44.0107 518.957 44.0107 520.138V520.664H39C39.0182 521.393 39.2301 521.983 39.6357 522.435C40.0459 522.881 40.5654 523.104 41.1943 523.104C41.641 523.104 42.0192 523.013 42.3291 522.831C42.639 522.649 42.9102 522.407 43.1426 522.106L43.915 522.708C43.2952 523.66 42.3656 524.137 41.126 524.137ZM40.9688 517.506C40.4583 517.506 40.0299 517.693 39.6836 518.066C39.3372 518.436 39.123 518.955 39.041 519.625H42.7461V519.529C42.7096 518.887 42.5365 518.39 42.2266 518.039C41.9167 517.684 41.4974 517.506 40.9688 517.506ZM46.6768 516.604L46.7178 517.533C47.2829 516.822 48.0212 516.467 48.9326 516.467C50.4958 516.467 51.2842 517.349 51.2979 519.112V524H50.0332V519.105C50.0286 518.572 49.9056 518.178 49.6641 517.923C49.4271 517.668 49.0557 517.54 48.5498 517.54C48.1396 517.54 47.7796 517.649 47.4697 517.868C47.1598 518.087 46.9183 518.374 46.7451 518.729V524H45.4805V516.604H46.6768ZM54.9209 514.812V516.604H56.3018V517.581H54.9209V522.168C54.9209 522.464 54.9824 522.688 55.1055 522.838C55.2285 522.984 55.4382 523.057 55.7344 523.057C55.8802 523.057 56.0807 523.029 56.3359 522.975V524C56.0033 524.091 55.6797 524.137 55.3652 524.137C54.8001 524.137 54.374 523.966 54.0869 523.624C53.7998 523.282 53.6562 522.797 53.6562 522.168V517.581H52.3096V516.604H53.6562V514.812H54.9209Z" fill="black"/>
<circle cx="39.5" cy="30" r="29.5" stroke="#CACACA"/>
<circle cx="39.5" cy="30" r="10" fill="#43BAD6"/>
<path d="M14.2471 73.0469L17.501 81.168L20.7549 73.0469H22.457V83H21.1445V79.124L21.2676 74.9404L18 83H16.9951L13.7344 74.9609L13.8643 79.124V83H12.5518V73.0469H14.2471ZM29.1426 83C29.0697 82.8542 29.0104 82.5944 28.9648 82.2207C28.377 82.8314 27.6751 83.1367 26.8594 83.1367C26.1302 83.1367 25.5309 82.9316 25.0615 82.5215C24.5967 82.1068 24.3643 81.5827 24.3643 80.9492C24.3643 80.179 24.6559 79.582 25.2393 79.1582C25.8271 78.7298 26.652 78.5156 27.7139 78.5156H28.9443V77.9346C28.9443 77.4925 28.8122 77.1416 28.5479 76.8818C28.2835 76.6175 27.8939 76.4854 27.3789 76.4854C26.9277 76.4854 26.5495 76.5993 26.2441 76.8271C25.9388 77.055 25.7861 77.3307 25.7861 77.6543H24.5146C24.5146 77.2852 24.6445 76.9297 24.9043 76.5879C25.1686 76.2415 25.5241 75.9681 25.9707 75.7676C26.4219 75.5671 26.9163 75.4668 27.4541 75.4668C28.3063 75.4668 28.974 75.681 29.457 76.1094C29.9401 76.5332 30.1908 77.1188 30.209 77.8662V81.2705C30.209 81.9495 30.2956 82.4896 30.4688 82.8906V83H29.1426ZM27.0439 82.0361C27.4404 82.0361 27.8164 81.9336 28.1719 81.7285C28.5273 81.5234 28.7848 81.2568 28.9443 80.9287V79.4111H27.9531C26.4036 79.4111 25.6289 79.8646 25.6289 80.7715C25.6289 81.168 25.7611 81.4779 26.0254 81.7012C26.2897 81.9245 26.6292 82.0361 27.0439 82.0361ZM33.3877 75.6035L33.4287 76.5332C33.9938 75.8223 34.7321 75.4668 35.6436 75.4668C37.2067 75.4668 37.9951 76.3486 38.0088 78.1123V83H36.7441V78.1055C36.7396 77.5723 36.6165 77.1781 36.375 76.9229C36.138 76.6676 35.7666 76.54 35.2607 76.54C34.8506 76.54 34.4906 76.6494 34.1807 76.8682C33.8708 77.0869 33.6292 77.374 33.4561 77.7295V83H32.1914V75.6035H33.3877ZM44.4824 83C44.4095 82.8542 44.3503 82.5944 44.3047 82.2207C43.7168 82.8314 43.015 83.1367 42.1992 83.1367C41.4701 83.1367 40.8708 82.9316 40.4014 82.5215C39.9365 82.1068 39.7041 81.5827 39.7041 80.9492C39.7041 80.179 39.9958 79.582 40.5791 79.1582C41.167 78.7298 41.9919 78.5156 43.0537 78.5156H44.2842V77.9346C44.2842 77.4925 44.152 77.1416 43.8877 76.8818C43.6234 76.6175 43.2337 76.4854 42.7188 76.4854C42.2676 76.4854 41.8893 76.5993 41.584 76.8271C41.2786 77.055 41.126 77.3307 41.126 77.6543H39.8545C39.8545 77.2852 39.9844 76.9297 40.2441 76.5879C40.5085 76.2415 40.8639 75.9681 41.3105 75.7676C41.7617 75.5671 42.2562 75.4668 42.7939 75.4668C43.6462 75.4668 44.3138 75.681 44.7969 76.1094C45.2799 76.5332 45.5306 77.1188 45.5488 77.8662V81.2705C45.5488 81.9495 45.6354 82.4896 45.8086 82.8906V83H44.4824ZM42.3838 82.0361C42.7803 82.0361 43.1562 81.9336 43.5117 81.7285C43.8672 81.5234 44.1247 81.2568 44.2842 80.9287V79.4111H43.293C41.7435 79.4111 40.9688 79.8646 40.9688 80.7715C40.9688 81.168 41.1009 81.4779 41.3652 81.7012C41.6296 81.9245 41.9691 82.0361 42.3838 82.0361ZM47.2305 79.2402C47.2305 78.0872 47.4971 77.1712 48.0303 76.4922C48.5635 75.8086 49.2699 75.4668 50.1494 75.4668C51.0518 75.4668 51.7559 75.7858 52.2617 76.4238L52.3232 75.6035H53.4785V82.8223C53.4785 83.7793 53.1937 84.5335 52.624 85.085C52.0589 85.6364 51.2979 85.9121 50.3408 85.9121C49.8076 85.9121 49.2858 85.7982 48.7754 85.5703C48.265 85.3424 47.8753 85.0303 47.6064 84.6338L48.2627 83.875C48.805 84.5449 49.4681 84.8799 50.252 84.8799C50.8672 84.8799 51.3457 84.7067 51.6875 84.3604C52.0339 84.014 52.207 83.5264 52.207 82.8975V82.2617C51.7012 82.8451 51.0107 83.1367 50.1357 83.1367C49.2699 83.1367 48.568 82.7881 48.0303 82.0908C47.4971 81.3936 47.2305 80.4434 47.2305 79.2402ZM48.502 79.3838C48.502 80.2178 48.6729 80.874 49.0146 81.3525C49.3564 81.8265 49.835 82.0635 50.4502 82.0635C51.2477 82.0635 51.8333 81.7012 52.207 80.9766V77.5996C51.8197 76.8932 51.2386 76.54 50.4639 76.54C49.8486 76.54 49.3678 76.7793 49.0215 77.2578C48.6751 77.7363 48.502 78.445 48.502 79.3838ZM58.4619 83.1367C57.4593 83.1367 56.6436 82.8086 56.0146 82.1523C55.3857 81.4915 55.0713 80.6097 55.0713 79.5068V79.2744C55.0713 78.5407 55.2103 77.8867 55.4883 77.3125C55.7708 76.7337 56.1628 76.2826 56.6641 75.959C57.1699 75.6309 57.7168 75.4668 58.3047 75.4668C59.2663 75.4668 60.0137 75.7835 60.5469 76.417C61.0801 77.0505 61.3467 77.9574 61.3467 79.1377V79.6641H56.3359C56.3542 80.3932 56.5661 80.9834 56.9717 81.4346C57.3818 81.8812 57.9014 82.1045 58.5303 82.1045C58.9769 82.1045 59.3551 82.0133 59.665 81.8311C59.9749 81.6488 60.2461 81.4072 60.4785 81.1064L61.251 81.708C60.6312 82.6605 59.7015 83.1367 58.4619 83.1367ZM58.3047 76.5059C57.7943 76.5059 57.3659 76.6927 57.0195 77.0664C56.6732 77.4355 56.459 77.9551 56.377 78.625H60.082V78.5293C60.0456 77.8867 59.8724 77.39 59.5625 77.0391C59.2526 76.6836 58.8333 76.5059 58.3047 76.5059ZM66.3916 76.7383C66.2002 76.7064 65.9928 76.6904 65.7695 76.6904C64.9401 76.6904 64.3773 77.0436 64.0811 77.75V83H62.8164V75.6035H64.0469L64.0674 76.458C64.4821 75.7972 65.07 75.4668 65.8311 75.4668C66.0771 75.4668 66.264 75.4987 66.3916 75.5625V76.7383Z" fill="black"/>
<path d="M85.5 306C85.5 306 105.5 290.381 105.5 249.5C105.5 206.866 85.5 193 85.5 193" stroke="#BEBEBE" stroke-width="2" stroke-linecap="round" stroke-dasharray="0.5 4"/>
<path d="M85 199L85 193L91.5 193" stroke="#BEBEBE" stroke-width="2" stroke-linecap="round"/>
<path d="M85.5 133C85.5 133 105.5 117.381 105.5 76.5C105.5 33.866 85.5 20 85.5 20" stroke="#BEBEBE" stroke-width="2" stroke-linecap="round" stroke-dasharray="0.5 4"/>
<path d="M86 20C86 20 163 80.8181 163 240C163 406.008 86 460 86 460" stroke="#BEBEBE" stroke-width="2" stroke-linecap="round" stroke-dasharray="0.5 4"/>
<path d="M91.5 481.5L85.5 481.5L85.5 475" stroke="#BEBEBE" stroke-width="2" stroke-linecap="round"/>
<path d="M85 26L85 20L91.5 20" stroke="#BEBEBE" stroke-width="2" stroke-linecap="round"/>
<path d="M37.9999 249L37.9999 279M37.9999 279L43 274.588M37.9999 279L33 274.588" stroke="#BEBEBE" stroke-width="2" stroke-linecap="round"/>
<circle cx="38.5" cy="177" r="30" fill="#F0F0F0"/>
<circle cx="38.5" cy="177" r="10" fill="#43BAD6"/>
<path d="M8.50391 220.047V226.814C8.49935 227.753 8.20312 228.521 7.61523 229.118C7.0319 229.715 6.23893 230.05 5.23633 230.123L4.8877 230.137C3.7985 230.137 2.93034 229.843 2.2832 229.255C1.63607 228.667 1.30794 227.858 1.29883 226.828V220.047H2.59766V226.787C2.59766 227.507 2.7959 228.068 3.19238 228.469C3.58887 228.865 4.15397 229.063 4.8877 229.063C5.63053 229.063 6.19792 228.865 6.58984 228.469C6.98633 228.072 7.18457 227.514 7.18457 226.794V220.047H8.50391ZM13.8223 223.861L16.208 220.047H17.7529L14.6084 224.982L17.8281 230H16.2695L13.8223 226.117L11.3613 230H9.80957L13.0361 224.982L9.88477 220.047H11.4229L13.8223 223.861ZM22.8252 230V220.047H25.6348C26.5007 220.047 27.2663 220.238 27.9316 220.621C28.597 221.004 29.1097 221.549 29.4697 222.255C29.8343 222.961 30.0189 223.772 30.0234 224.688V225.324C30.0234 226.263 29.8411 227.086 29.4766 227.792C29.1165 228.498 28.5993 229.041 27.9248 229.419C27.2549 229.797 26.4733 229.991 25.5801 230H22.8252ZM24.1377 221.127V228.927H25.5186C26.5303 228.927 27.3164 228.612 27.877 227.983C28.4421 227.354 28.7246 226.459 28.7246 225.297V224.716C28.7246 223.586 28.458 222.708 27.9248 222.084C27.3962 221.455 26.6442 221.136 25.6689 221.127H24.1377ZM34.8838 230.137C33.8812 230.137 33.0654 229.809 32.4365 229.152C31.8076 228.492 31.4932 227.61 31.4932 226.507V226.274C31.4932 225.541 31.6322 224.887 31.9102 224.312C32.1927 223.734 32.5846 223.283 33.0859 222.959C33.5918 222.631 34.1387 222.467 34.7266 222.467C35.6882 222.467 36.4355 222.784 36.9688 223.417C37.502 224.05 37.7686 224.957 37.7686 226.138V226.664H32.7578C32.776 227.393 32.988 227.983 33.3936 228.435C33.8037 228.881 34.3232 229.104 34.9521 229.104C35.3988 229.104 35.777 229.013 36.0869 228.831C36.3968 228.649 36.668 228.407 36.9004 228.106L37.6729 228.708C37.0531 229.66 36.1234 230.137 34.8838 230.137ZM34.7266 223.506C34.2161 223.506 33.7878 223.693 33.4414 224.066C33.0951 224.436 32.8809 224.955 32.7988 225.625H36.5039V225.529C36.4674 224.887 36.2943 224.39 35.9844 224.039C35.6745 223.684 35.2552 223.506 34.7266 223.506ZM43.5449 228.038C43.5449 227.696 43.415 227.432 43.1553 227.245C42.9001 227.054 42.4512 226.89 41.8086 226.753C41.1706 226.616 40.6624 226.452 40.2842 226.261C39.9105 226.069 39.6325 225.841 39.4502 225.577C39.2725 225.313 39.1836 224.998 39.1836 224.634C39.1836 224.028 39.4388 223.515 39.9492 223.096C40.4642 222.676 41.1204 222.467 41.918 222.467C42.7565 222.467 43.4355 222.683 43.9551 223.116C44.4792 223.549 44.7412 224.103 44.7412 224.777H43.4697C43.4697 224.431 43.3216 224.132 43.0254 223.882C42.7337 223.631 42.3646 223.506 41.918 223.506C41.4577 223.506 41.0977 223.606 40.8379 223.807C40.5781 224.007 40.4482 224.269 40.4482 224.593C40.4482 224.898 40.569 225.128 40.8105 225.283C41.0521 225.438 41.4873 225.586 42.1162 225.728C42.7497 225.869 43.2624 226.037 43.6543 226.233C44.0462 226.429 44.3356 226.666 44.5225 226.944C44.7139 227.218 44.8096 227.553 44.8096 227.949C44.8096 228.61 44.5452 229.141 44.0166 229.542C43.488 229.938 42.8021 230.137 41.959 230.137C41.3665 230.137 40.8424 230.032 40.3867 229.822C39.931 229.613 39.5732 229.321 39.3135 228.947C39.0583 228.569 38.9307 228.161 38.9307 227.724H40.1953C40.2181 228.147 40.3867 228.485 40.7012 228.735C41.0202 228.981 41.4395 229.104 41.959 229.104C42.4375 229.104 42.8203 229.009 43.1074 228.817C43.3991 228.621 43.5449 228.362 43.5449 228.038ZM47.8311 230H46.5664V222.604H47.8311V230ZM46.4639 220.642C46.4639 220.437 46.5254 220.263 46.6484 220.122C46.776 219.981 46.9629 219.91 47.209 219.91C47.4551 219.91 47.6419 219.981 47.7695 220.122C47.8971 220.263 47.9609 220.437 47.9609 220.642C47.9609 220.847 47.8971 221.018 47.7695 221.154C47.6419 221.291 47.4551 221.359 47.209 221.359C46.9629 221.359 46.776 221.291 46.6484 221.154C46.5254 221.018 46.4639 220.847 46.4639 220.642ZM49.5605 226.24C49.5605 225.087 49.8271 224.171 50.3604 223.492C50.8936 222.809 51.5999 222.467 52.4795 222.467C53.3818 222.467 54.0859 222.786 54.5918 223.424L54.6533 222.604H55.8086V229.822C55.8086 230.779 55.5238 231.534 54.9541 232.085C54.389 232.636 53.6279 232.912 52.6709 232.912C52.1377 232.912 51.6159 232.798 51.1055 232.57C50.5951 232.342 50.2054 232.03 49.9365 231.634L50.5928 230.875C51.1351 231.545 51.7982 231.88 52.582 231.88C53.1973 231.88 53.6758 231.707 54.0176 231.36C54.3639 231.014 54.5371 230.526 54.5371 229.897V229.262C54.0312 229.845 53.3408 230.137 52.4658 230.137C51.5999 230.137 50.8981 229.788 50.3604 229.091C49.8271 228.394 49.5605 227.443 49.5605 226.24ZM50.832 226.384C50.832 227.218 51.0029 227.874 51.3447 228.353C51.6865 228.826 52.165 229.063 52.7803 229.063C53.5778 229.063 54.1634 228.701 54.5371 227.977V224.6C54.1497 223.893 53.5687 223.54 52.7939 223.54C52.1787 223.54 51.6979 223.779 51.3516 224.258C51.0052 224.736 50.832 225.445 50.832 226.384ZM58.9189 222.604L58.96 223.533C59.5251 222.822 60.2633 222.467 61.1748 222.467C62.738 222.467 63.5264 223.349 63.54 225.112V230H62.2754V225.105C62.2708 224.572 62.1478 224.178 61.9062 223.923C61.6693 223.668 61.2979 223.54 60.792 223.54C60.3818 223.54 60.0218 223.649 59.7119 223.868C59.402 224.087 59.1605 224.374 58.9873 224.729V230H57.7227V222.604H58.9189ZM68.5166 230.137C67.514 230.137 66.6982 229.809 66.0693 229.152C65.4404 228.492 65.126 227.61 65.126 226.507V226.274C65.126 225.541 65.265 224.887 65.543 224.312C65.8255 223.734 66.2174 223.283 66.7188 222.959C67.2246 222.631 67.7715 222.467 68.3594 222.467C69.321 222.467 70.0684 222.784 70.6016 223.417C71.1348 224.05 71.4014 224.957 71.4014 226.138V226.664H66.3906C66.4089 227.393 66.6208 227.983 67.0264 228.435C67.4365 228.881 67.9561 229.104 68.585 229.104C69.0316 229.104 69.4098 229.013 69.7197 228.831C70.0296 228.649 70.3008 228.407 70.5332 228.106L71.3057 228.708C70.6859 229.66 69.7562 230.137 68.5166 230.137ZM68.3594 223.506C67.849 223.506 67.4206 223.693 67.0742 224.066C66.7279 224.436 66.5137 224.955 66.4316 225.625H70.1367V225.529C70.1003 224.887 69.9271 224.39 69.6172 224.039C69.3073 223.684 68.888 223.506 68.3594 223.506ZM76.4463 223.738C76.2549 223.706 76.0475 223.69 75.8242 223.69C74.9948 223.69 74.432 224.044 74.1357 224.75V230H72.8711V222.604H74.1016L74.1221 223.458C74.5368 222.797 75.1247 222.467 75.8857 222.467C76.1318 222.467 76.3187 222.499 76.4463 222.562V223.738Z" fill="black"/>
<circle cx="39.5" cy="324" r="30" fill="#43BAD6"/>
<circle cx="39.5" cy="324" r="10" fill="white"/>
<path d="M11.4854 367.047V373.814C11.4808 374.753 11.1846 375.521 10.5967 376.118C10.0133 376.715 9.22038 377.05 8.21777 377.123L7.86914 377.137C6.77995 377.137 5.91178 376.843 5.26465 376.255C4.61751 375.667 4.28939 374.858 4.28027 373.828V367.047H5.5791V373.787C5.5791 374.507 5.77734 375.068 6.17383 375.469C6.57031 375.865 7.13542 376.063 7.86914 376.063C8.61198 376.063 9.17936 375.865 9.57129 375.469C9.96777 375.072 10.166 374.514 10.166 373.794V367.047H11.4854ZM14.9648 377H13.6523V367.047H14.9648V377ZM20.8438 377V367.047H23.6533C24.5192 367.047 25.2848 367.238 25.9502 367.621C26.6156 368.004 27.1283 368.549 27.4883 369.255C27.8529 369.961 28.0374 370.772 28.042 371.688V372.324C28.042 373.263 27.8597 374.086 27.4951 374.792C27.1351 375.498 26.6178 376.041 25.9434 376.419C25.2734 376.797 24.4919 376.991 23.5986 377H20.8438ZM22.1562 368.127V375.927H23.5371C24.5488 375.927 25.335 375.612 25.8955 374.983C26.4606 374.354 26.7432 373.459 26.7432 372.297V371.716C26.7432 370.586 26.4766 369.708 25.9434 369.084C25.4147 368.455 24.6628 368.136 23.6875 368.127H22.1562ZM32.9023 377.137C31.8997 377.137 31.084 376.809 30.4551 376.152C29.8262 375.492 29.5117 374.61 29.5117 373.507V373.274C29.5117 372.541 29.6507 371.887 29.9287 371.312C30.2113 370.734 30.6032 370.283 31.1045 369.959C31.6104 369.631 32.1572 369.467 32.7451 369.467C33.7067 369.467 34.4541 369.784 34.9873 370.417C35.5205 371.05 35.7871 371.957 35.7871 373.138V373.664H30.7764C30.7946 374.393 31.0065 374.983 31.4121 375.435C31.8223 375.881 32.3418 376.104 32.9707 376.104C33.4173 376.104 33.7956 376.013 34.1055 375.831C34.4154 375.649 34.6865 375.407 34.9189 375.106L35.6914 375.708C35.0716 376.66 34.1419 377.137 32.9023 377.137ZM32.7451 370.506C32.2347 370.506 31.8063 370.693 31.46 371.066C31.1136 371.436 30.8994 371.955 30.8174 372.625H34.5225V372.529C34.486 371.887 34.3128 371.39 34.0029 371.039C33.693 370.684 33.2738 370.506 32.7451 370.506ZM41.5635 375.038C41.5635 374.696 41.4336 374.432 41.1738 374.245C40.9186 374.054 40.4697 373.89 39.8271 373.753C39.1891 373.616 38.681 373.452 38.3027 373.261C37.929 373.069 37.651 372.841 37.4688 372.577C37.291 372.313 37.2021 371.998 37.2021 371.634C37.2021 371.028 37.4574 370.515 37.9678 370.096C38.4827 369.676 39.139 369.467 39.9365 369.467C40.7751 369.467 41.4541 369.683 41.9736 370.116C42.4977 370.549 42.7598 371.103 42.7598 371.777H41.4883C41.4883 371.431 41.3402 371.132 41.0439 370.882C40.7523 370.631 40.3831 370.506 39.9365 370.506C39.4762 370.506 39.1162 370.606 38.8564 370.807C38.5967 371.007 38.4668 371.269 38.4668 371.593C38.4668 371.898 38.5876 372.128 38.8291 372.283C39.0706 372.438 39.5059 372.586 40.1348 372.728C40.7682 372.869 41.2809 373.037 41.6729 373.233C42.0648 373.429 42.3542 373.666 42.541 373.944C42.7324 374.218 42.8281 374.553 42.8281 374.949C42.8281 375.61 42.5638 376.141 42.0352 376.542C41.5065 376.938 40.8206 377.137 39.9775 377.137C39.3851 377.137 38.861 377.032 38.4053 376.822C37.9495 376.613 37.5918 376.321 37.332 375.947C37.0768 375.569 36.9492 375.161 36.9492 374.724H38.2139C38.2367 375.147 38.4053 375.485 38.7197 375.735C39.0387 375.981 39.458 376.104 39.9775 376.104C40.4561 376.104 40.8389 376.009 41.126 375.817C41.4176 375.621 41.5635 375.362 41.5635 375.038ZM45.8496 377H44.585V369.604H45.8496V377ZM44.4824 367.642C44.4824 367.437 44.5439 367.263 44.667 367.122C44.7946 366.981 44.9814 366.91 45.2275 366.91C45.4736 366.91 45.6605 366.981 45.7881 367.122C45.9157 367.263 45.9795 367.437 45.9795 367.642C45.9795 367.847 45.9157 368.018 45.7881 368.154C45.6605 368.291 45.4736 368.359 45.2275 368.359C44.9814 368.359 44.7946 368.291 44.667 368.154C44.5439 368.018 44.4824 367.847 44.4824 367.642ZM47.5791 373.24C47.5791 372.087 47.8457 371.171 48.3789 370.492C48.9121 369.809 49.6185 369.467 50.498 369.467C51.4004 369.467 52.1045 369.786 52.6104 370.424L52.6719 369.604H53.8271V376.822C53.8271 377.779 53.5423 378.534 52.9727 379.085C52.4076 379.636 51.6465 379.912 50.6895 379.912C50.1562 379.912 49.6344 379.798 49.124 379.57C48.6136 379.342 48.224 379.03 47.9551 378.634L48.6113 377.875C49.1536 378.545 49.8167 378.88 50.6006 378.88C51.2158 378.88 51.6943 378.707 52.0361 378.36C52.3825 378.014 52.5557 377.526 52.5557 376.897V376.262C52.0498 376.845 51.3594 377.137 50.4844 377.137C49.6185 377.137 48.9167 376.788 48.3789 376.091C47.8457 375.394 47.5791 374.443 47.5791 373.24ZM48.8506 373.384C48.8506 374.218 49.0215 374.874 49.3633 375.353C49.7051 375.826 50.1836 376.063 50.7988 376.063C51.5964 376.063 52.182 375.701 52.5557 374.977V371.6C52.1683 370.893 51.5872 370.54 50.8125 370.54C50.1973 370.54 49.7165 370.779 49.3701 371.258C49.0238 371.736 48.8506 372.445 48.8506 373.384ZM56.9375 369.604L56.9785 370.533C57.5436 369.822 58.2819 369.467 59.1934 369.467C60.7565 369.467 61.5449 370.349 61.5586 372.112V377H60.2939V372.105C60.2894 371.572 60.1663 371.178 59.9248 370.923C59.6878 370.668 59.3164 370.54 58.8105 370.54C58.4004 370.54 58.0404 370.649 57.7305 370.868C57.4206 371.087 57.179 371.374 57.0059 371.729V377H55.7412V369.604H56.9375ZM66.5352 377.137C65.5326 377.137 64.7168 376.809 64.0879 376.152C63.459 375.492 63.1445 374.61 63.1445 373.507V373.274C63.1445 372.541 63.2835 371.887 63.5615 371.312C63.8441 370.734 64.236 370.283 64.7373 369.959C65.2432 369.631 65.79 369.467 66.3779 369.467C67.3395 369.467 68.0869 369.784 68.6201 370.417C69.1533 371.05 69.4199 371.957 69.4199 373.138V373.664H64.4092C64.4274 374.393 64.6393 374.983 65.0449 375.435C65.4551 375.881 65.9746 376.104 66.6035 376.104C67.0501 376.104 67.4284 376.013 67.7383 375.831C68.0482 375.649 68.3193 375.407 68.5518 375.106L69.3242 375.708C68.7044 376.66 67.7747 377.137 66.5352 377.137ZM66.3779 370.506C65.8675 370.506 65.4391 370.693 65.0928 371.066C64.7464 371.436 64.5322 371.955 64.4502 372.625H68.1553V372.529C68.1188 371.887 67.9456 371.39 67.6357 371.039C67.3258 370.684 66.9066 370.506 66.3779 370.506ZM74.4648 370.738C74.2734 370.706 74.0661 370.69 73.8428 370.69C73.0133 370.69 72.4505 371.044 72.1543 371.75V377H70.8896V369.604H72.1201L72.1406 370.458C72.5553 369.797 73.1432 369.467 73.9043 369.467C74.1504 369.467 74.3372 369.499 74.4648 369.562V370.738Z" fill="black"/>
</svg>
