<svg width="164" height="709" viewBox="0 0 164 709" fill="none" xmlns="http://www.w3.org/2000/svg">
<circle cx="36" cy="652" r="29.5" stroke="#CACACA"/>
<circle cx="36" cy="652" r="9.5" stroke="#43BAD6"/>
<path d="M25.1484 701.842C25.0254 702.895 24.6357 703.708 23.9795 704.282C23.3278 704.852 22.4596 705.137 21.375 705.137C20.1992 705.137 19.2559 704.715 18.5449 703.872C17.8385 703.029 17.4854 701.901 17.4854 700.489V699.531C17.4854 698.606 17.6494 697.793 17.9775 697.091C18.3102 696.389 18.7796 695.851 19.3857 695.478C19.9919 695.1 20.6937 694.91 21.4912 694.91C22.5485 694.91 23.3962 695.207 24.0342 695.799C24.6722 696.387 25.0436 697.203 25.1484 698.246H23.8291C23.7152 697.453 23.4668 696.879 23.084 696.524C22.7057 696.168 22.1748 695.99 21.4912 695.99C20.6527 695.99 19.9941 696.3 19.5156 696.92C19.0417 697.54 18.8047 698.422 18.8047 699.566V700.53C18.8047 701.61 19.0303 702.469 19.4814 703.107C19.9326 703.745 20.5638 704.064 21.375 704.064C22.1042 704.064 22.6624 703.9 23.0498 703.572C23.4417 703.239 23.7015 702.662 23.8291 701.842H25.1484ZM28.1221 705H26.8574V694.5H28.1221V705ZM31.5264 705H30.2617V697.604H31.5264V705ZM30.1592 695.642C30.1592 695.437 30.2207 695.264 30.3438 695.122C30.4714 694.981 30.6582 694.91 30.9043 694.91C31.1504 694.91 31.3372 694.981 31.4648 695.122C31.5924 695.264 31.6562 695.437 31.6562 695.642C31.6562 695.847 31.5924 696.018 31.4648 696.155C31.3372 696.291 31.1504 696.36 30.9043 696.36C30.6582 696.36 30.4714 696.291 30.3438 696.155C30.2207 696.018 30.1592 695.847 30.1592 695.642ZM36.626 705.137C35.6234 705.137 34.8076 704.809 34.1787 704.153C33.5498 703.492 33.2354 702.61 33.2354 701.507V701.275C33.2354 700.541 33.3743 699.887 33.6523 699.313C33.9349 698.734 34.3268 698.283 34.8281 697.959C35.334 697.631 35.8809 697.467 36.4688 697.467C37.4303 697.467 38.1777 697.784 38.7109 698.417C39.2441 699.051 39.5107 699.958 39.5107 701.138V701.664H34.5C34.5182 702.393 34.7301 702.984 35.1357 703.435C35.5459 703.881 36.0654 704.105 36.6943 704.105C37.141 704.105 37.5192 704.014 37.8291 703.831C38.139 703.649 38.4102 703.407 38.6426 703.107L39.415 703.708C38.7952 704.661 37.8656 705.137 36.626 705.137ZM36.4688 698.506C35.9583 698.506 35.5299 698.693 35.1836 699.067C34.8372 699.436 34.623 699.955 34.541 700.625H38.2461V700.53C38.2096 699.887 38.0365 699.39 37.7266 699.039C37.4167 698.684 36.9974 698.506 36.4688 698.506ZM42.1768 697.604L42.2178 698.533C42.7829 697.823 43.5212 697.467 44.4326 697.467C45.9958 697.467 46.7842 698.349 46.7979 700.113V705H45.5332V700.106C45.5286 699.573 45.4056 699.178 45.1641 698.923C44.9271 698.668 44.5557 698.54 44.0498 698.54C43.6396 698.54 43.2796 698.65 42.9697 698.868C42.6598 699.087 42.4183 699.374 42.2451 699.73V705H40.9805V697.604H42.1768ZM50.4209 695.813V697.604H51.8018V698.581H50.4209V703.168C50.4209 703.464 50.4824 703.688 50.6055 703.838C50.7285 703.984 50.9382 704.057 51.2344 704.057C51.3802 704.057 51.5807 704.03 51.8359 703.975V705C51.5033 705.091 51.1797 705.137 50.8652 705.137C50.3001 705.137 49.874 704.966 49.5869 704.624C49.2998 704.282 49.1562 703.797 49.1562 703.168V698.581H47.8096V697.604H49.1562V695.813H50.4209Z" fill="black"/>
<circle cx="36.5" cy="30" r="29.5" stroke="#CACACA"/>
<circle cx="36.5" cy="30" r="10" fill="#43BAD6"/>
<path d="M11.2471 73.0469L14.501 81.168L17.7549 73.0469H19.457V83H18.1445V79.124L18.2676 74.9404L15 83H13.9951L10.7344 74.9609L10.8643 79.124V83H9.55176V73.0469H11.2471ZM26.1426 83C26.0697 82.8542 26.0104 82.5944 25.9648 82.2207C25.377 82.8314 24.6751 83.1367 23.8594 83.1367C23.1302 83.1367 22.5309 82.9316 22.0615 82.5215C21.5967 82.1068 21.3643 81.5827 21.3643 80.9492C21.3643 80.179 21.6559 79.582 22.2393 79.1582C22.8271 78.7298 23.652 78.5156 24.7139 78.5156H25.9443V77.9346C25.9443 77.4925 25.8122 77.1416 25.5479 76.8818C25.2835 76.6175 24.8939 76.4854 24.3789 76.4854C23.9277 76.4854 23.5495 76.5993 23.2441 76.8271C22.9388 77.055 22.7861 77.3307 22.7861 77.6543H21.5146C21.5146 77.2852 21.6445 76.9297 21.9043 76.5879C22.1686 76.2415 22.5241 75.9681 22.9707 75.7676C23.4219 75.5671 23.9163 75.4668 24.4541 75.4668C25.3063 75.4668 25.974 75.681 26.457 76.1094C26.9401 76.5332 27.1908 77.1188 27.209 77.8662V81.2705C27.209 81.9495 27.2956 82.4896 27.4688 82.8906V83H26.1426ZM24.0439 82.0361C24.4404 82.0361 24.8164 81.9336 25.1719 81.7285C25.5273 81.5234 25.7848 81.2568 25.9443 80.9287V79.4111H24.9531C23.4036 79.4111 22.6289 79.8646 22.6289 80.7715C22.6289 81.168 22.7611 81.4779 23.0254 81.7012C23.2897 81.9245 23.6292 82.0361 24.0439 82.0361ZM30.3877 75.6035L30.4287 76.5332C30.9938 75.8223 31.7321 75.4668 32.6436 75.4668C34.2067 75.4668 34.9951 76.3486 35.0088 78.1123V83H33.7441V78.1055C33.7396 77.5723 33.6165 77.1781 33.375 76.9229C33.138 76.6676 32.7666 76.54 32.2607 76.54C31.8506 76.54 31.4906 76.6494 31.1807 76.8682C30.8708 77.0869 30.6292 77.374 30.4561 77.7295V83H29.1914V75.6035H30.3877ZM41.4824 83C41.4095 82.8542 41.3503 82.5944 41.3047 82.2207C40.7168 82.8314 40.015 83.1367 39.1992 83.1367C38.4701 83.1367 37.8708 82.9316 37.4014 82.5215C36.9365 82.1068 36.7041 81.5827 36.7041 80.9492C36.7041 80.179 36.9958 79.582 37.5791 79.1582C38.167 78.7298 38.9919 78.5156 40.0537 78.5156H41.2842V77.9346C41.2842 77.4925 41.152 77.1416 40.8877 76.8818C40.6234 76.6175 40.2337 76.4854 39.7188 76.4854C39.2676 76.4854 38.8893 76.5993 38.584 76.8271C38.2786 77.055 38.126 77.3307 38.126 77.6543H36.8545C36.8545 77.2852 36.9844 76.9297 37.2441 76.5879C37.5085 76.2415 37.8639 75.9681 38.3105 75.7676C38.7617 75.5671 39.2562 75.4668 39.7939 75.4668C40.6462 75.4668 41.3138 75.681 41.7969 76.1094C42.2799 76.5332 42.5306 77.1188 42.5488 77.8662V81.2705C42.5488 81.9495 42.6354 82.4896 42.8086 82.8906V83H41.4824ZM39.3838 82.0361C39.7803 82.0361 40.1562 81.9336 40.5117 81.7285C40.8672 81.5234 41.1247 81.2568 41.2842 80.9287V79.4111H40.293C38.7435 79.4111 37.9688 79.8646 37.9688 80.7715C37.9688 81.168 38.1009 81.4779 38.3652 81.7012C38.6296 81.9245 38.9691 82.0361 39.3838 82.0361ZM44.2305 79.2402C44.2305 78.0872 44.4971 77.1712 45.0303 76.4922C45.5635 75.8086 46.2699 75.4668 47.1494 75.4668C48.0518 75.4668 48.7559 75.7858 49.2617 76.4238L49.3232 75.6035H50.4785V82.8223C50.4785 83.7793 50.1937 84.5335 49.624 85.085C49.0589 85.6364 48.2979 85.9121 47.3408 85.9121C46.8076 85.9121 46.2858 85.7982 45.7754 85.5703C45.265 85.3424 44.8753 85.0303 44.6064 84.6338L45.2627 83.875C45.805 84.5449 46.4681 84.8799 47.252 84.8799C47.8672 84.8799 48.3457 84.7067 48.6875 84.3604C49.0339 84.014 49.207 83.5264 49.207 82.8975V82.2617C48.7012 82.8451 48.0107 83.1367 47.1357 83.1367C46.2699 83.1367 45.568 82.7881 45.0303 82.0908C44.4971 81.3936 44.2305 80.4434 44.2305 79.2402ZM45.502 79.3838C45.502 80.2178 45.6729 80.874 46.0146 81.3525C46.3564 81.8265 46.835 82.0635 47.4502 82.0635C48.2477 82.0635 48.8333 81.7012 49.207 80.9766V77.5996C48.8197 76.8932 48.2386 76.54 47.4639 76.54C46.8486 76.54 46.3678 76.7793 46.0215 77.2578C45.6751 77.7363 45.502 78.445 45.502 79.3838ZM55.4619 83.1367C54.4593 83.1367 53.6436 82.8086 53.0146 82.1523C52.3857 81.4915 52.0713 80.6097 52.0713 79.5068V79.2744C52.0713 78.5407 52.2103 77.8867 52.4883 77.3125C52.7708 76.7337 53.1628 76.2826 53.6641 75.959C54.1699 75.6309 54.7168 75.4668 55.3047 75.4668C56.2663 75.4668 57.0137 75.7835 57.5469 76.417C58.0801 77.0505 58.3467 77.9574 58.3467 79.1377V79.6641H53.3359C53.3542 80.3932 53.5661 80.9834 53.9717 81.4346C54.3818 81.8812 54.9014 82.1045 55.5303 82.1045C55.9769 82.1045 56.3551 82.0133 56.665 81.8311C56.9749 81.6488 57.2461 81.4072 57.4785 81.1064L58.251 81.708C57.6312 82.6605 56.7015 83.1367 55.4619 83.1367ZM55.3047 76.5059C54.7943 76.5059 54.3659 76.6927 54.0195 77.0664C53.6732 77.4355 53.459 77.9551 53.377 78.625H57.082V78.5293C57.0456 77.8867 56.8724 77.39 56.5625 77.0391C56.2526 76.6836 55.8333 76.5059 55.3047 76.5059ZM63.3916 76.7383C63.2002 76.7064 62.9928 76.6904 62.7695 76.6904C61.9401 76.6904 61.3773 77.0436 61.0811 77.75V83H59.8164V75.6035H61.0469L61.0674 76.458C61.4821 75.7972 62.07 75.4668 62.8311 75.4668C63.0771 75.4668 63.264 75.4987 63.3916 75.5625V76.7383Z" fill="black"/>
<path d="M80.5 288C80.5 288 117.5 255.103 117.5 169C117.5 79.2045 80.5 50 80.5 50" stroke="#BEBEBE" stroke-width="2" stroke-linecap="round" stroke-dasharray="0.5 4"/>
<path d="M80 56L80 50L86 50" stroke="#BEBEBE" stroke-width="2" stroke-linecap="round"/>
<path d="M80.5 50C80.5 50 162.5 127.405 162.5 330C162.5 541.284 80.5 610 80.5 610" stroke="#BEBEBE" stroke-width="2" stroke-linecap="round" stroke-dasharray="0.5 4"/>
<path d="M86 610L80 610L80 604" stroke="#BEBEBE" stroke-width="2" stroke-linecap="round"/>
<path d="M35.9999 249L35.9999 279M35.9999 279L41 274.588M35.9999 279L31 274.588" stroke="#BEBEBE" stroke-width="2" stroke-linecap="round"/>
<path d="M35.9999 413L35.9999 443M35.9999 443L41 438.588M35.9999 443L31 438.588" stroke="#BEBEBE" stroke-width="2" stroke-linecap="round"/>
<path d="M8.48535 220.047V226.814C8.48079 227.753 8.18457 228.521 7.59668 229.118C7.01335 229.715 6.22038 230.05 5.21777 230.123L4.86914 230.137C3.77995 230.137 2.91178 229.843 2.26465 229.255C1.61751 228.667 1.28939 227.858 1.28027 226.828V220.047H2.5791V226.787C2.5791 227.507 2.77734 228.068 3.17383 228.469C3.57031 228.865 4.13542 229.063 4.86914 229.063C5.61198 229.063 6.17936 228.865 6.57129 228.469C6.96777 228.072 7.16602 227.514 7.16602 226.794V220.047H8.48535ZM11.9648 230H10.6523V220.047H11.9648V230ZM17.8438 230V220.047H20.6533C21.5192 220.047 22.2848 220.238 22.9502 220.621C23.6156 221.004 24.1283 221.549 24.4883 222.255C24.8529 222.961 25.0374 223.772 25.042 224.688V225.324C25.042 226.263 24.8597 227.086 24.4951 227.792C24.1351 228.498 23.6178 229.041 22.9434 229.419C22.2734 229.797 21.4919 229.991 20.5986 230H17.8438ZM19.1562 221.127V228.927H20.5371C21.5488 228.927 22.335 228.612 22.8955 227.983C23.4606 227.354 23.7432 226.459 23.7432 225.297V224.716C23.7432 223.586 23.4766 222.708 22.9434 222.084C22.4147 221.455 21.6628 221.136 20.6875 221.127H19.1562ZM29.9023 230.137C28.8997 230.137 28.084 229.809 27.4551 229.152C26.8262 228.492 26.5117 227.61 26.5117 226.507V226.274C26.5117 225.541 26.6507 224.887 26.9287 224.312C27.2113 223.734 27.6032 223.283 28.1045 222.959C28.6104 222.631 29.1572 222.467 29.7451 222.467C30.7067 222.467 31.4541 222.784 31.9873 223.417C32.5205 224.05 32.7871 224.957 32.7871 226.138V226.664H27.7764C27.7946 227.393 28.0065 227.983 28.4121 228.435C28.8223 228.881 29.3418 229.104 29.9707 229.104C30.4173 229.104 30.7956 229.013 31.1055 228.831C31.4154 228.649 31.6865 228.407 31.9189 228.106L32.6914 228.708C32.0716 229.66 31.1419 230.137 29.9023 230.137ZM29.7451 223.506C29.2347 223.506 28.8063 223.693 28.46 224.066C28.1136 224.436 27.8994 224.955 27.8174 225.625H31.5225V225.529C31.486 224.887 31.3128 224.39 31.0029 224.039C30.693 223.684 30.2738 223.506 29.7451 223.506ZM38.5635 228.038C38.5635 227.696 38.4336 227.432 38.1738 227.245C37.9186 227.054 37.4697 226.89 36.8271 226.753C36.1891 226.616 35.681 226.452 35.3027 226.261C34.929 226.069 34.651 225.841 34.4688 225.577C34.291 225.313 34.2021 224.998 34.2021 224.634C34.2021 224.028 34.4574 223.515 34.9678 223.096C35.4827 222.676 36.139 222.467 36.9365 222.467C37.7751 222.467 38.4541 222.683 38.9736 223.116C39.4977 223.549 39.7598 224.103 39.7598 224.777H38.4883C38.4883 224.431 38.3402 224.132 38.0439 223.882C37.7523 223.631 37.3831 223.506 36.9365 223.506C36.4762 223.506 36.1162 223.606 35.8564 223.807C35.5967 224.007 35.4668 224.269 35.4668 224.593C35.4668 224.898 35.5876 225.128 35.8291 225.283C36.0706 225.438 36.5059 225.586 37.1348 225.728C37.7682 225.869 38.2809 226.037 38.6729 226.233C39.0648 226.429 39.3542 226.666 39.541 226.944C39.7324 227.218 39.8281 227.553 39.8281 227.949C39.8281 228.61 39.5638 229.141 39.0352 229.542C38.5065 229.938 37.8206 230.137 36.9775 230.137C36.3851 230.137 35.861 230.032 35.4053 229.822C34.9495 229.613 34.5918 229.321 34.332 228.947C34.0768 228.569 33.9492 228.161 33.9492 227.724H35.2139C35.2367 228.147 35.4053 228.485 35.7197 228.735C36.0387 228.981 36.458 229.104 36.9775 229.104C37.4561 229.104 37.8389 229.009 38.126 228.817C38.4176 228.621 38.5635 228.362 38.5635 228.038ZM42.8496 230H41.585V222.604H42.8496V230ZM41.4824 220.642C41.4824 220.437 41.5439 220.263 41.667 220.122C41.7946 219.981 41.9814 219.91 42.2275 219.91C42.4736 219.91 42.6605 219.981 42.7881 220.122C42.9157 220.263 42.9795 220.437 42.9795 220.642C42.9795 220.847 42.9157 221.018 42.7881 221.154C42.6605 221.291 42.4736 221.359 42.2275 221.359C41.9814 221.359 41.7946 221.291 41.667 221.154C41.5439 221.018 41.4824 220.847 41.4824 220.642ZM44.5791 226.24C44.5791 225.087 44.8457 224.171 45.3789 223.492C45.9121 222.809 46.6185 222.467 47.498 222.467C48.4004 222.467 49.1045 222.786 49.6104 223.424L49.6719 222.604H50.8271V229.822C50.8271 230.779 50.5423 231.534 49.9727 232.085C49.4076 232.636 48.6465 232.912 47.6895 232.912C47.1562 232.912 46.6344 232.798 46.124 232.57C45.6136 232.342 45.224 232.03 44.9551 231.634L45.6113 230.875C46.1536 231.545 46.8167 231.88 47.6006 231.88C48.2158 231.88 48.6943 231.707 49.0361 231.36C49.3825 231.014 49.5557 230.526 49.5557 229.897V229.262C49.0498 229.845 48.3594 230.137 47.4844 230.137C46.6185 230.137 45.9167 229.788 45.3789 229.091C44.8457 228.394 44.5791 227.443 44.5791 226.24ZM45.8506 226.384C45.8506 227.218 46.0215 227.874 46.3633 228.353C46.7051 228.826 47.1836 229.063 47.7988 229.063C48.5964 229.063 49.182 228.701 49.5557 227.977V224.6C49.1683 223.893 48.5872 223.54 47.8125 223.54C47.1973 223.54 46.7165 223.779 46.3701 224.258C46.0238 224.736 45.8506 225.445 45.8506 226.384ZM53.9375 222.604L53.9785 223.533C54.5436 222.822 55.2819 222.467 56.1934 222.467C57.7565 222.467 58.5449 223.349 58.5586 225.112V230H57.2939V225.105C57.2894 224.572 57.1663 224.178 56.9248 223.923C56.6878 223.668 56.3164 223.54 55.8105 223.54C55.4004 223.54 55.0404 223.649 54.7305 223.868C54.4206 224.087 54.179 224.374 54.0059 224.729V230H52.7412V222.604H53.9375ZM63.5352 230.137C62.5326 230.137 61.7168 229.809 61.0879 229.152C60.459 228.492 60.1445 227.61 60.1445 226.507V226.274C60.1445 225.541 60.2835 224.887 60.5615 224.312C60.8441 223.734 61.236 223.283 61.7373 222.959C62.2432 222.631 62.79 222.467 63.3779 222.467C64.3395 222.467 65.0869 222.784 65.6201 223.417C66.1533 224.05 66.4199 224.957 66.4199 226.138V226.664H61.4092C61.4274 227.393 61.6393 227.983 62.0449 228.435C62.4551 228.881 62.9746 229.104 63.6035 229.104C64.0501 229.104 64.4284 229.013 64.7383 228.831C65.0482 228.649 65.3193 228.407 65.5518 228.106L66.3242 228.708C65.7044 229.66 64.7747 230.137 63.5352 230.137ZM63.3779 223.506C62.8675 223.506 62.4391 223.693 62.0928 224.066C61.7464 224.436 61.5322 224.955 61.4502 225.625H65.1553V225.529C65.1188 224.887 64.9456 224.39 64.6357 224.039C64.3258 223.684 63.9066 223.506 63.3779 223.506ZM71.4648 223.738C71.2734 223.706 71.0661 223.69 70.8428 223.69C70.0133 223.69 69.4505 224.044 69.1543 224.75V230H67.8896V222.604H69.1201L69.1406 223.458C69.5553 222.797 70.1432 222.467 70.9043 222.467C71.1504 222.467 71.3372 222.499 71.4648 222.562V223.738Z" fill="black"/>
<circle cx="35.5" cy="177" r="30" fill="#43BAD6"/>
<circle cx="35.5" cy="177" r="10" fill="white"/>
<circle cx="37" cy="324" r="30" fill="#F0F0F0"/>
<circle cx="37" cy="324" r="10" fill="#43BAD6"/>
<path d="M13.1895 372.604H9.0127V377H7.7002V367.047H13.8662V368.127H9.0127V371.531H13.1895V372.604ZM18.6377 370.738C18.4463 370.706 18.2389 370.69 18.0156 370.69C17.1862 370.69 16.6234 371.044 16.3271 371.75V377H15.0625V369.604H16.293L16.3135 370.458C16.7282 369.797 17.3161 369.467 18.0771 369.467C18.3232 369.467 18.5101 369.499 18.6377 369.562V370.738ZM19.335 373.233C19.335 372.509 19.4762 371.857 19.7588 371.278C20.0459 370.7 20.4424 370.253 20.9482 369.938C21.4587 369.624 22.0397 369.467 22.6914 369.467C23.6986 369.467 24.512 369.815 25.1318 370.513C25.7562 371.21 26.0684 372.137 26.0684 373.295V373.384C26.0684 374.104 25.9294 374.751 25.6514 375.325C25.3779 375.895 24.9837 376.339 24.4688 376.658C23.9583 376.977 23.3704 377.137 22.7051 377.137C21.7025 377.137 20.889 376.788 20.2646 376.091C19.6449 375.394 19.335 374.471 19.335 373.322V373.233ZM20.6064 373.384C20.6064 374.204 20.7956 374.863 21.1738 375.359C21.5566 375.856 22.0671 376.104 22.7051 376.104C23.3477 376.104 23.8581 375.854 24.2363 375.353C24.6146 374.847 24.8037 374.14 24.8037 373.233C24.8037 372.422 24.61 371.766 24.2227 371.265C23.8398 370.759 23.3294 370.506 22.6914 370.506C22.0671 370.506 21.5635 370.754 21.1807 371.251C20.7979 371.748 20.6064 372.459 20.6064 373.384ZM28.8506 369.604L28.8916 370.533C29.4567 369.822 30.195 369.467 31.1064 369.467C32.6696 369.467 33.458 370.349 33.4717 372.112V377H32.207V372.105C32.2025 371.572 32.0794 371.178 31.8379 370.923C31.6009 370.668 31.2295 370.54 30.7236 370.54C30.3135 370.54 29.9535 370.649 29.6436 370.868C29.3337 371.087 29.0921 371.374 28.9189 371.729V377H27.6543V369.604H28.8506ZM37.0947 367.812V369.604H38.4756V370.581H37.0947V375.168C37.0947 375.464 37.1562 375.688 37.2793 375.838C37.4023 375.984 37.612 376.057 37.9082 376.057C38.054 376.057 38.2546 376.029 38.5098 375.975V377C38.1771 377.091 37.8535 377.137 37.5391 377.137C36.974 377.137 36.5479 376.966 36.2607 376.624C35.9736 376.282 35.8301 375.797 35.8301 375.168V370.581H34.4834V369.604H35.8301V367.812H37.0947ZM42.5908 373.288H39.2549V372.256H42.5908V373.288ZM49.6523 372.399H45.3389V375.927H50.3496V377H44.0264V367.047H50.2812V368.127H45.3389V371.326H49.6523V372.399ZM52.9814 369.604L53.0225 370.533C53.5876 369.822 54.3258 369.467 55.2373 369.467C56.8005 369.467 57.5889 370.349 57.6025 372.112V377H56.3379V372.105C56.3333 371.572 56.2103 371.178 55.9688 370.923C55.7318 370.668 55.3604 370.54 54.8545 370.54C54.4443 370.54 54.0843 370.649 53.7744 370.868C53.4645 371.087 53.223 371.374 53.0498 371.729V377H51.7852V369.604H52.9814ZM59.2021 373.24C59.2021 372.105 59.471 371.194 60.0088 370.506C60.5465 369.813 61.2507 369.467 62.1211 369.467C62.987 369.467 63.6729 369.763 64.1787 370.355V366.5H65.4434V377H64.2812L64.2197 376.207C63.7139 376.827 63.0098 377.137 62.1074 377.137C61.2507 377.137 60.5511 376.786 60.0088 376.084C59.471 375.382 59.2021 374.466 59.2021 373.336V373.24ZM60.4668 373.384C60.4668 374.222 60.64 374.879 60.9863 375.353C61.3327 375.826 61.8112 376.063 62.4219 376.063C63.224 376.063 63.8096 375.703 64.1787 374.983V371.586C63.8005 370.889 63.2194 370.54 62.4355 370.54C61.8158 370.54 61.3327 370.779 60.9863 371.258C60.64 371.736 60.4668 372.445 60.4668 373.384ZM6.63379 394V384.047H9.44336C10.3092 384.047 11.0749 384.238 11.7402 384.621C12.4056 385.004 12.9183 385.549 13.2783 386.255C13.6429 386.961 13.8275 387.772 13.832 388.688V389.324C13.832 390.263 13.6497 391.086 13.2852 391.792C12.9251 392.498 12.4079 393.041 11.7334 393.419C11.0635 393.797 10.2819 393.991 9.38867 394H6.63379ZM7.94629 385.127V392.927H9.32715C10.3389 392.927 11.125 392.612 11.6855 391.983C12.2507 391.354 12.5332 390.459 12.5332 389.297V388.716C12.5332 387.586 12.2666 386.708 11.7334 386.084C11.2048 385.455 10.4528 385.136 9.47754 385.127H7.94629ZM18.6924 394.137C17.6898 394.137 16.874 393.809 16.2451 393.152C15.6162 392.492 15.3018 391.61 15.3018 390.507V390.274C15.3018 389.541 15.4408 388.887 15.7188 388.312C16.0013 387.734 16.3932 387.283 16.8945 386.959C17.4004 386.631 17.9473 386.467 18.5352 386.467C19.4967 386.467 20.2441 386.784 20.7773 387.417C21.3105 388.05 21.5771 388.957 21.5771 390.138V390.664H16.5664C16.5846 391.393 16.7965 391.983 17.2021 392.435C17.6123 392.881 18.1318 393.104 18.7607 393.104C19.2074 393.104 19.5856 393.013 19.8955 392.831C20.2054 392.649 20.4766 392.407 20.709 392.106L21.4814 392.708C20.8617 393.66 19.932 394.137 18.6924 394.137ZM18.5352 387.506C18.0247 387.506 17.5964 387.693 17.25 388.066C16.9036 388.436 16.6895 388.955 16.6074 389.625H20.3125V389.529C20.276 388.887 20.1029 388.39 19.793 388.039C19.4831 387.684 19.0638 387.506 18.5352 387.506ZM25.3916 392.284L27.2236 386.604H28.5156L25.8633 394H24.8994L22.2197 386.604H23.5117L25.3916 392.284ZM32.7061 394.137C31.7035 394.137 30.8877 393.809 30.2588 393.152C29.6299 392.492 29.3154 391.61 29.3154 390.507V390.274C29.3154 389.541 29.4544 388.887 29.7324 388.312C30.015 387.734 30.4069 387.283 30.9082 386.959C31.4141 386.631 31.9609 386.467 32.5488 386.467C33.5104 386.467 34.2578 386.784 34.791 387.417C35.3242 388.05 35.5908 388.957 35.5908 390.138V390.664H30.5801C30.5983 391.393 30.8102 391.983 31.2158 392.435C31.626 392.881 32.1455 393.104 32.7744 393.104C33.221 393.104 33.5993 393.013 33.9092 392.831C34.2191 392.649 34.4902 392.407 34.7227 392.106L35.4951 392.708C34.8753 393.66 33.9456 394.137 32.7061 394.137ZM32.5488 387.506C32.0384 387.506 31.61 387.693 31.2637 388.066C30.9173 388.436 30.7031 388.955 30.6211 389.625H34.3262V389.529C34.2897 388.887 34.1165 388.39 33.8066 388.039C33.4967 387.684 33.0775 387.506 32.5488 387.506ZM38.4346 394H37.1699V383.5H38.4346V394ZM40.1299 390.233C40.1299 389.509 40.2712 388.857 40.5537 388.278C40.8408 387.7 41.2373 387.253 41.7432 386.938C42.2536 386.624 42.8346 386.467 43.4863 386.467C44.4935 386.467 45.307 386.815 45.9268 387.513C46.5511 388.21 46.8633 389.137 46.8633 390.295V390.384C46.8633 391.104 46.7243 391.751 46.4463 392.325C46.1729 392.895 45.7786 393.339 45.2637 393.658C44.7533 393.977 44.1654 394.137 43.5 394.137C42.4974 394.137 41.6839 393.788 41.0596 393.091C40.4398 392.394 40.1299 391.471 40.1299 390.322V390.233ZM41.4014 390.384C41.4014 391.204 41.5905 391.863 41.9688 392.359C42.3516 392.856 42.862 393.104 43.5 393.104C44.1426 393.104 44.653 392.854 45.0312 392.353C45.4095 391.847 45.5986 391.14 45.5986 390.233C45.5986 389.422 45.4049 388.766 45.0176 388.265C44.6348 387.759 44.1243 387.506 43.4863 387.506C42.862 387.506 42.3584 387.754 41.9756 388.251C41.5928 388.748 41.4014 389.459 41.4014 390.384ZM54.6973 390.384C54.6973 391.509 54.4398 392.416 53.9248 393.104C53.4098 393.793 52.7126 394.137 51.833 394.137C50.9352 394.137 50.2288 393.852 49.7139 393.282V396.844H48.4492V386.604H49.6045L49.666 387.424C50.181 386.786 50.8965 386.467 51.8125 386.467C52.7012 386.467 53.403 386.802 53.918 387.472C54.4375 388.142 54.6973 389.074 54.6973 390.268V390.384ZM53.4326 390.24C53.4326 389.406 53.2549 388.748 52.8994 388.265C52.5439 387.782 52.0563 387.54 51.4365 387.54C50.6709 387.54 50.0967 387.88 49.7139 388.559V392.093C50.0921 392.767 50.6709 393.104 51.4502 393.104C52.0563 393.104 52.5371 392.865 52.8926 392.387C53.2526 391.904 53.4326 391.188 53.4326 390.24ZM59.3799 394.137C58.3773 394.137 57.5615 393.809 56.9326 393.152C56.3037 392.492 55.9893 391.61 55.9893 390.507V390.274C55.9893 389.541 56.1283 388.887 56.4062 388.312C56.6888 387.734 57.0807 387.283 57.582 386.959C58.0879 386.631 58.6348 386.467 59.2227 386.467C60.1842 386.467 60.9316 386.784 61.4648 387.417C61.998 388.05 62.2646 388.957 62.2646 390.138V390.664H57.2539C57.2721 391.393 57.484 391.983 57.8896 392.435C58.2998 392.881 58.8193 393.104 59.4482 393.104C59.8949 393.104 60.2731 393.013 60.583 392.831C60.8929 392.649 61.1641 392.407 61.3965 392.106L62.1689 392.708C61.5492 393.66 60.6195 394.137 59.3799 394.137ZM59.2227 387.506C58.7122 387.506 58.2839 387.693 57.9375 388.066C57.5911 388.436 57.377 388.955 57.2949 389.625H61V389.529C60.9635 388.887 60.7904 388.39 60.4805 388.039C60.1706 387.684 59.7513 387.506 59.2227 387.506ZM67.3096 387.738C67.1182 387.706 66.9108 387.69 66.6875 387.69C65.8581 387.69 65.2952 388.044 64.999 388.75V394H63.7344V386.604H64.9648L64.9854 387.458C65.4001 386.797 65.988 386.467 66.749 386.467C66.9951 386.467 67.182 386.499 67.3096 386.562V387.738Z" fill="black"/>
<circle cx="36.5" cy="488" r="29.5" stroke="#CACACA"/>
<circle cx="36.5" cy="488" r="9.5" stroke="#43BAD6"/>
<path d="M8.54785 541V531.047H11.8018C12.8818 531.047 13.693 531.27 14.2354 531.717C14.7822 532.163 15.0557 532.824 15.0557 533.699C15.0557 534.164 14.9235 534.576 14.6592 534.937C14.3949 535.292 14.0348 535.568 13.5791 535.764C14.1169 535.914 14.5407 536.201 14.8506 536.625C15.165 537.044 15.3223 537.546 15.3223 538.129C15.3223 539.022 15.0329 539.724 14.4541 540.234C13.8753 540.745 13.0573 541 12 541H8.54785ZM9.86035 536.345V539.927H12.0273C12.638 539.927 13.1188 539.77 13.4697 539.455C13.8252 539.136 14.0029 538.699 14.0029 538.143C14.0029 536.944 13.3512 536.345 12.0479 536.345H9.86035ZM9.86035 535.292H11.8428C12.417 535.292 12.875 535.148 13.2168 534.861C13.5632 534.574 13.7363 534.185 13.7363 533.692C13.7363 533.146 13.5768 532.749 13.2578 532.503C12.9388 532.252 12.4535 532.127 11.8018 532.127H9.86035V535.292ZM21.6387 541C21.5658 540.854 21.5065 540.594 21.4609 540.221C20.873 540.831 20.1712 541.137 19.3555 541.137C18.6263 541.137 18.027 540.932 17.5576 540.521C17.0928 540.107 16.8604 539.583 16.8604 538.949C16.8604 538.179 17.152 537.582 17.7354 537.158C18.3232 536.73 19.1481 536.516 20.21 536.516H21.4404V535.935C21.4404 535.493 21.3083 535.142 21.0439 534.882C20.7796 534.618 20.39 534.485 19.875 534.485C19.4238 534.485 19.0456 534.599 18.7402 534.827C18.4349 535.055 18.2822 535.331 18.2822 535.654H17.0107C17.0107 535.285 17.1406 534.93 17.4004 534.588C17.6647 534.242 18.0202 533.968 18.4668 533.768C18.918 533.567 19.4124 533.467 19.9502 533.467C20.8024 533.467 21.4701 533.681 21.9531 534.109C22.4362 534.533 22.6868 535.119 22.7051 535.866V539.271C22.7051 539.95 22.7917 540.49 22.9648 540.891V541H21.6387ZM19.54 540.036C19.9365 540.036 20.3125 539.934 20.668 539.729C21.0234 539.523 21.2809 539.257 21.4404 538.929V537.411H20.4492C18.8997 537.411 18.125 537.865 18.125 538.771C18.125 539.168 18.2572 539.478 18.5215 539.701C18.7858 539.924 19.1253 540.036 19.54 540.036ZM27.6543 540.104C28.1055 540.104 28.4997 539.968 28.8369 539.694C29.1742 539.421 29.361 539.079 29.3975 538.669H30.5938C30.571 539.093 30.4251 539.496 30.1562 539.879C29.8874 540.262 29.5273 540.567 29.0762 540.795C28.6296 541.023 28.1556 541.137 27.6543 541.137C26.6471 541.137 25.8451 540.802 25.248 540.132C24.6556 539.457 24.3594 538.537 24.3594 537.37V537.158C24.3594 536.438 24.4915 535.798 24.7559 535.237C25.0202 534.677 25.3984 534.242 25.8906 533.932C26.3874 533.622 26.973 533.467 27.6475 533.467C28.4769 533.467 29.165 533.715 29.7119 534.212C30.2633 534.709 30.5573 535.354 30.5938 536.146H29.3975C29.361 535.668 29.1787 535.276 28.8506 534.971C28.527 534.661 28.126 534.506 27.6475 534.506C27.0049 534.506 26.5059 534.738 26.1504 535.203C25.7995 535.663 25.624 536.331 25.624 537.206V537.445C25.624 538.298 25.7995 538.954 26.1504 539.414C26.5013 539.874 27.0026 540.104 27.6543 540.104ZM34.0801 537.575L33.2871 538.402V541H32.0225V530.5H33.2871V536.851L33.9639 536.037L36.2676 533.604H37.8057L34.9277 536.693L38.1406 541H36.6572L34.0801 537.575ZM41.7432 537.288H38.4072V536.256H41.7432V537.288ZM48.8047 536.399H44.4912V539.927H49.502V541H43.1787V531.047H49.4336V532.127H44.4912V535.326H48.8047V536.399ZM52.1338 533.604L52.1748 534.533C52.7399 533.822 53.4782 533.467 54.3896 533.467C55.9528 533.467 56.7412 534.349 56.7549 536.112V541H55.4902V536.105C55.4857 535.572 55.3626 535.178 55.1211 534.923C54.8841 534.668 54.5127 534.54 54.0068 534.54C53.5967 534.54 53.2367 534.649 52.9268 534.868C52.6169 535.087 52.3753 535.374 52.2021 535.729V541H50.9375V533.604H52.1338ZM58.3545 537.24C58.3545 536.105 58.6234 535.194 59.1611 534.506C59.6989 533.813 60.403 533.467 61.2734 533.467C62.1393 533.467 62.8252 533.763 63.3311 534.355V530.5H64.5957V541H63.4336L63.3721 540.207C62.8662 540.827 62.1621 541.137 61.2598 541.137C60.403 541.137 59.7035 540.786 59.1611 540.084C58.6234 539.382 58.3545 538.466 58.3545 537.336V537.24ZM59.6191 537.384C59.6191 538.222 59.7923 538.879 60.1387 539.353C60.485 539.826 60.9635 540.063 61.5742 540.063C62.3763 540.063 62.9619 539.703 63.3311 538.983V535.586C62.9528 534.889 62.3717 534.54 61.5879 534.54C60.9681 534.54 60.485 534.779 60.1387 535.258C59.7923 535.736 59.6191 536.445 59.6191 537.384ZM6.63379 558V548.047H9.44336C10.3092 548.047 11.0749 548.238 11.7402 548.621C12.4056 549.004 12.9183 549.549 13.2783 550.255C13.6429 550.961 13.8275 551.772 13.832 552.688V553.324C13.832 554.263 13.6497 555.086 13.2852 555.792C12.9251 556.498 12.4079 557.041 11.7334 557.419C11.0635 557.797 10.2819 557.991 9.38867 558H6.63379ZM7.94629 549.127V556.927H9.32715C10.3389 556.927 11.125 556.612 11.6855 555.983C12.2507 555.354 12.5332 554.459 12.5332 553.297V552.716C12.5332 551.586 12.2666 550.708 11.7334 550.084C11.2048 549.455 10.4528 549.136 9.47754 549.127H7.94629ZM18.6924 558.137C17.6898 558.137 16.874 557.809 16.2451 557.152C15.6162 556.492 15.3018 555.61 15.3018 554.507V554.274C15.3018 553.541 15.4408 552.887 15.7188 552.312C16.0013 551.734 16.3932 551.283 16.8945 550.959C17.4004 550.631 17.9473 550.467 18.5352 550.467C19.4967 550.467 20.2441 550.784 20.7773 551.417C21.3105 552.05 21.5771 552.957 21.5771 554.138V554.664H16.5664C16.5846 555.393 16.7965 555.983 17.2021 556.435C17.6123 556.881 18.1318 557.104 18.7607 557.104C19.2074 557.104 19.5856 557.013 19.8955 556.831C20.2054 556.649 20.4766 556.407 20.709 556.106L21.4814 556.708C20.8617 557.66 19.932 558.137 18.6924 558.137ZM18.5352 551.506C18.0247 551.506 17.5964 551.693 17.25 552.066C16.9036 552.436 16.6895 552.955 16.6074 553.625H20.3125V553.529C20.276 552.887 20.1029 552.39 19.793 552.039C19.4831 551.684 19.0638 551.506 18.5352 551.506ZM25.3916 556.284L27.2236 550.604H28.5156L25.8633 558H24.8994L22.2197 550.604H23.5117L25.3916 556.284ZM32.7061 558.137C31.7035 558.137 30.8877 557.809 30.2588 557.152C29.6299 556.492 29.3154 555.61 29.3154 554.507V554.274C29.3154 553.541 29.4544 552.887 29.7324 552.312C30.015 551.734 30.4069 551.283 30.9082 550.959C31.4141 550.631 31.9609 550.467 32.5488 550.467C33.5104 550.467 34.2578 550.784 34.791 551.417C35.3242 552.05 35.5908 552.957 35.5908 554.138V554.664H30.5801C30.5983 555.393 30.8102 555.983 31.2158 556.435C31.626 556.881 32.1455 557.104 32.7744 557.104C33.221 557.104 33.5993 557.013 33.9092 556.831C34.2191 556.649 34.4902 556.407 34.7227 556.106L35.4951 556.708C34.8753 557.66 33.9456 558.137 32.7061 558.137ZM32.5488 551.506C32.0384 551.506 31.61 551.693 31.2637 552.066C30.9173 552.436 30.7031 552.955 30.6211 553.625H34.3262V553.529C34.2897 552.887 34.1165 552.39 33.8066 552.039C33.4967 551.684 33.0775 551.506 32.5488 551.506ZM38.4346 558H37.1699V547.5H38.4346V558ZM40.1299 554.233C40.1299 553.509 40.2712 552.857 40.5537 552.278C40.8408 551.7 41.2373 551.253 41.7432 550.938C42.2536 550.624 42.8346 550.467 43.4863 550.467C44.4935 550.467 45.307 550.815 45.9268 551.513C46.5511 552.21 46.8633 553.137 46.8633 554.295V554.384C46.8633 555.104 46.7243 555.751 46.4463 556.325C46.1729 556.895 45.7786 557.339 45.2637 557.658C44.7533 557.977 44.1654 558.137 43.5 558.137C42.4974 558.137 41.6839 557.788 41.0596 557.091C40.4398 556.394 40.1299 555.471 40.1299 554.322V554.233ZM41.4014 554.384C41.4014 555.204 41.5905 555.863 41.9688 556.359C42.3516 556.856 42.862 557.104 43.5 557.104C44.1426 557.104 44.653 556.854 45.0312 556.353C45.4095 555.847 45.5986 555.14 45.5986 554.233C45.5986 553.422 45.4049 552.766 45.0176 552.265C44.6348 551.759 44.1243 551.506 43.4863 551.506C42.862 551.506 42.3584 551.754 41.9756 552.251C41.5928 552.748 41.4014 553.459 41.4014 554.384ZM54.6973 554.384C54.6973 555.509 54.4398 556.416 53.9248 557.104C53.4098 557.793 52.7126 558.137 51.833 558.137C50.9352 558.137 50.2288 557.852 49.7139 557.282V560.844H48.4492V550.604H49.6045L49.666 551.424C50.181 550.786 50.8965 550.467 51.8125 550.467C52.7012 550.467 53.403 550.802 53.918 551.472C54.4375 552.142 54.6973 553.074 54.6973 554.268V554.384ZM53.4326 554.24C53.4326 553.406 53.2549 552.748 52.8994 552.265C52.5439 551.782 52.0563 551.54 51.4365 551.54C50.6709 551.54 50.0967 551.88 49.7139 552.559V556.093C50.0921 556.767 50.6709 557.104 51.4502 557.104C52.0563 557.104 52.5371 556.865 52.8926 556.387C53.2526 555.904 53.4326 555.188 53.4326 554.24ZM59.3799 558.137C58.3773 558.137 57.5615 557.809 56.9326 557.152C56.3037 556.492 55.9893 555.61 55.9893 554.507V554.274C55.9893 553.541 56.1283 552.887 56.4062 552.312C56.6888 551.734 57.0807 551.283 57.582 550.959C58.0879 550.631 58.6348 550.467 59.2227 550.467C60.1842 550.467 60.9316 550.784 61.4648 551.417C61.998 552.05 62.2646 552.957 62.2646 554.138V554.664H57.2539C57.2721 555.393 57.484 555.983 57.8896 556.435C58.2998 556.881 58.8193 557.104 59.4482 557.104C59.8949 557.104 60.2731 557.013 60.583 556.831C60.8929 556.649 61.1641 556.407 61.3965 556.106L62.1689 556.708C61.5492 557.66 60.6195 558.137 59.3799 558.137ZM59.2227 551.506C58.7122 551.506 58.2839 551.693 57.9375 552.066C57.5911 552.436 57.377 552.955 57.2949 553.625H61V553.529C60.9635 552.887 60.7904 552.39 60.4805 552.039C60.1706 551.684 59.7513 551.506 59.2227 551.506ZM67.3096 551.738C67.1182 551.706 66.9108 551.69 66.6875 551.69C65.8581 551.69 65.2952 552.044 64.999 552.75V558H63.7344V550.604H64.9648L64.9854 551.458C65.4001 550.797 65.988 550.467 66.749 550.467C66.9951 550.467 67.182 550.499 67.3096 550.562V551.738Z" fill="black"/>
</svg>
