<svg width="442" height="139" viewBox="0 0 442 139" fill="none" xmlns="http://www.w3.org/2000/svg">
<path d="M129 81.0001H159M159 81.0001L154.588 76M159 81.0001L154.588 86" stroke="#BEBEBE" stroke-width="2" stroke-linecap="round"/>
<path d="M207 43C207 43 191.381 23 150.5 23C107.866 23 95 41 95 41" stroke="#BEBEBE" stroke-width="2" stroke-linecap="round" stroke-dasharray="0.5 4"/>
<circle cx="354" cy="81" r="29.5" stroke="#CACACA"/>
<circle cx="354" cy="81" r="9.5" stroke="#43BAD6"/>
<path d="M344.648 132.842C344.525 133.895 344.136 134.708 343.479 135.282C342.828 135.852 341.96 136.137 340.875 136.137C339.699 136.137 338.756 135.715 338.045 134.872C337.339 134.029 336.985 132.901 336.985 131.488V130.531C336.985 129.606 337.149 128.793 337.478 128.091C337.81 127.389 338.28 126.851 338.886 126.478C339.492 126.099 340.194 125.91 340.991 125.91C342.049 125.91 342.896 126.206 343.534 126.799C344.172 127.387 344.544 128.202 344.648 129.246H343.329C343.215 128.453 342.967 127.879 342.584 127.523C342.206 127.168 341.675 126.99 340.991 126.99C340.153 126.99 339.494 127.3 339.016 127.92C338.542 128.54 338.305 129.422 338.305 130.565V131.529C338.305 132.609 338.53 133.468 338.981 134.106C339.433 134.744 340.064 135.063 340.875 135.063C341.604 135.063 342.162 134.899 342.55 134.571C342.942 134.239 343.201 133.662 343.329 132.842H344.648ZM347.622 136H346.357V125.5H347.622V136ZM351.026 136H349.762V128.604H351.026V136ZM349.659 126.642C349.659 126.437 349.721 126.263 349.844 126.122C349.971 125.981 350.158 125.91 350.404 125.91C350.65 125.91 350.837 125.981 350.965 126.122C351.092 126.263 351.156 126.437 351.156 126.642C351.156 126.847 351.092 127.018 350.965 127.154C350.837 127.291 350.65 127.359 350.404 127.359C350.158 127.359 349.971 127.291 349.844 127.154C349.721 127.018 349.659 126.847 349.659 126.642ZM356.126 136.137C355.123 136.137 354.308 135.809 353.679 135.152C353.05 134.492 352.735 133.61 352.735 132.507V132.274C352.735 131.541 352.874 130.887 353.152 130.312C353.435 129.734 353.827 129.283 354.328 128.959C354.834 128.631 355.381 128.467 355.969 128.467C356.93 128.467 357.678 128.784 358.211 129.417C358.744 130.05 359.011 130.957 359.011 132.138V132.664H354C354.018 133.393 354.23 133.983 354.636 134.435C355.046 134.881 355.565 135.104 356.194 135.104C356.641 135.104 357.019 135.013 357.329 134.831C357.639 134.649 357.91 134.407 358.143 134.106L358.915 134.708C358.295 135.66 357.366 136.137 356.126 136.137ZM355.969 129.506C355.458 129.506 355.03 129.693 354.684 130.066C354.337 130.436 354.123 130.955 354.041 131.625H357.746V131.529C357.71 130.887 357.536 130.39 357.227 130.039C356.917 129.684 356.497 129.506 355.969 129.506ZM361.677 128.604L361.718 129.533C362.283 128.822 363.021 128.467 363.933 128.467C365.496 128.467 366.284 129.349 366.298 131.112V136H365.033V131.105C365.029 130.572 364.906 130.178 364.664 129.923C364.427 129.668 364.056 129.54 363.55 129.54C363.14 129.54 362.78 129.649 362.47 129.868C362.16 130.087 361.918 130.374 361.745 130.729V136H360.48V128.604H361.677ZM369.921 126.812V128.604H371.302V129.581H369.921V134.168C369.921 134.464 369.982 134.688 370.105 134.838C370.229 134.984 370.438 135.057 370.734 135.057C370.88 135.057 371.081 135.029 371.336 134.975V136C371.003 136.091 370.68 136.137 370.365 136.137C369.8 136.137 369.374 135.966 369.087 135.624C368.8 135.282 368.656 134.797 368.656 134.168V129.581H367.31V128.604H368.656V126.812H369.921Z" fill="black"/>
<circle cx="74" cy="81" r="29.5" stroke="#CACACA"/>
<circle cx="74" cy="81" r="10" fill="#43BAD6"/>
<path d="M49.2471 126.047L52.501 134.168L55.7549 126.047H57.457V136H56.1445V132.124L56.2676 127.94L53 136H51.9951L48.7344 127.961L48.8643 132.124V136H47.5518V126.047H49.2471ZM64.1426 136C64.0697 135.854 64.0104 135.594 63.9648 135.221C63.377 135.831 62.6751 136.137 61.8594 136.137C61.1302 136.137 60.5309 135.932 60.0615 135.521C59.5967 135.107 59.3643 134.583 59.3643 133.949C59.3643 133.179 59.6559 132.582 60.2393 132.158C60.8271 131.73 61.652 131.516 62.7139 131.516H63.9443V130.935C63.9443 130.493 63.8122 130.142 63.5479 129.882C63.2835 129.618 62.8939 129.485 62.3789 129.485C61.9277 129.485 61.5495 129.599 61.2441 129.827C60.9388 130.055 60.7861 130.331 60.7861 130.654H59.5146C59.5146 130.285 59.6445 129.93 59.9043 129.588C60.1686 129.242 60.5241 128.968 60.9707 128.768C61.4219 128.567 61.9163 128.467 62.4541 128.467C63.3063 128.467 63.974 128.681 64.457 129.109C64.9401 129.533 65.1908 130.119 65.209 130.866V134.271C65.209 134.95 65.2956 135.49 65.4688 135.891V136H64.1426ZM62.0439 135.036C62.4404 135.036 62.8164 134.934 63.1719 134.729C63.5273 134.523 63.7848 134.257 63.9443 133.929V132.411H62.9531C61.4036 132.411 60.6289 132.865 60.6289 133.771C60.6289 134.168 60.7611 134.478 61.0254 134.701C61.2897 134.924 61.6292 135.036 62.0439 135.036ZM68.3877 128.604L68.4287 129.533C68.9938 128.822 69.7321 128.467 70.6436 128.467C72.2067 128.467 72.9951 129.349 73.0088 131.112V136H71.7441V131.105C71.7396 130.572 71.6165 130.178 71.375 129.923C71.138 129.668 70.7666 129.54 70.2607 129.54C69.8506 129.54 69.4906 129.649 69.1807 129.868C68.8708 130.087 68.6292 130.374 68.4561 130.729V136H67.1914V128.604H68.3877ZM79.4824 136C79.4095 135.854 79.3503 135.594 79.3047 135.221C78.7168 135.831 78.015 136.137 77.1992 136.137C76.4701 136.137 75.8708 135.932 75.4014 135.521C74.9365 135.107 74.7041 134.583 74.7041 133.949C74.7041 133.179 74.9958 132.582 75.5791 132.158C76.167 131.73 76.9919 131.516 78.0537 131.516H79.2842V130.935C79.2842 130.493 79.152 130.142 78.8877 129.882C78.6234 129.618 78.2337 129.485 77.7188 129.485C77.2676 129.485 76.8893 129.599 76.584 129.827C76.2786 130.055 76.126 130.331 76.126 130.654H74.8545C74.8545 130.285 74.9844 129.93 75.2441 129.588C75.5085 129.242 75.8639 128.968 76.3105 128.768C76.7617 128.567 77.2562 128.467 77.7939 128.467C78.6462 128.467 79.3138 128.681 79.7969 129.109C80.2799 129.533 80.5306 130.119 80.5488 130.866V134.271C80.5488 134.95 80.6354 135.49 80.8086 135.891V136H79.4824ZM77.3838 135.036C77.7803 135.036 78.1562 134.934 78.5117 134.729C78.8672 134.523 79.1247 134.257 79.2842 133.929V132.411H78.293C76.7435 132.411 75.9688 132.865 75.9688 133.771C75.9688 134.168 76.1009 134.478 76.3652 134.701C76.6296 134.924 76.9691 135.036 77.3838 135.036ZM82.2305 132.24C82.2305 131.087 82.4971 130.171 83.0303 129.492C83.5635 128.809 84.2699 128.467 85.1494 128.467C86.0518 128.467 86.7559 128.786 87.2617 129.424L87.3232 128.604H88.4785V135.822C88.4785 136.779 88.1937 137.534 87.624 138.085C87.0589 138.636 86.2979 138.912 85.3408 138.912C84.8076 138.912 84.2858 138.798 83.7754 138.57C83.265 138.342 82.8753 138.03 82.6064 137.634L83.2627 136.875C83.805 137.545 84.4681 137.88 85.252 137.88C85.8672 137.88 86.3457 137.707 86.6875 137.36C87.0339 137.014 87.207 136.526 87.207 135.897V135.262C86.7012 135.845 86.0107 136.137 85.1357 136.137C84.2699 136.137 83.568 135.788 83.0303 135.091C82.4971 134.394 82.2305 133.443 82.2305 132.24ZM83.502 132.384C83.502 133.218 83.6729 133.874 84.0146 134.353C84.3564 134.826 84.835 135.063 85.4502 135.063C86.2477 135.063 86.8333 134.701 87.207 133.977V130.6C86.8197 129.893 86.2386 129.54 85.4639 129.54C84.8486 129.54 84.3678 129.779 84.0215 130.258C83.6751 130.736 83.502 131.445 83.502 132.384ZM93.4619 136.137C92.4593 136.137 91.6436 135.809 91.0146 135.152C90.3857 134.492 90.0713 133.61 90.0713 132.507V132.274C90.0713 131.541 90.2103 130.887 90.4883 130.312C90.7708 129.734 91.1628 129.283 91.6641 128.959C92.1699 128.631 92.7168 128.467 93.3047 128.467C94.2663 128.467 95.0137 128.784 95.5469 129.417C96.0801 130.05 96.3467 130.957 96.3467 132.138V132.664H91.3359C91.3542 133.393 91.5661 133.983 91.9717 134.435C92.3818 134.881 92.9014 135.104 93.5303 135.104C93.9769 135.104 94.3551 135.013 94.665 134.831C94.9749 134.649 95.2461 134.407 95.4785 134.106L96.251 134.708C95.6312 135.66 94.7015 136.137 93.4619 136.137ZM93.3047 129.506C92.7943 129.506 92.3659 129.693 92.0195 130.066C91.6732 130.436 91.459 130.955 91.377 131.625H95.082V131.529C95.0456 130.887 94.8724 130.39 94.5625 130.039C94.2526 129.684 93.8333 129.506 93.3047 129.506ZM101.392 129.738C101.2 129.706 100.993 129.69 100.77 129.69C99.9401 129.69 99.3773 130.044 99.0811 130.75V136H97.8164V128.604H99.0469L99.0674 129.458C99.4821 128.797 100.07 128.467 100.831 128.467C101.077 128.467 101.264 128.499 101.392 128.562V129.738Z" fill="black"/>
<path d="M95 41C95 41 129.556 0.999999 220 0.999999C314.323 0.999999 345 41 345 41" stroke="#BEBEBE" stroke-width="2" stroke-linecap="round" stroke-dasharray="0.5 4"/>
<path d="M95 35V41H101" stroke="#BEBEBE" stroke-width="2" stroke-linecap="round"/>
<path d="M345 35V41H339" stroke="#BEBEBE" stroke-width="2" stroke-linecap="round"/>
<circle opacity="0.2" cx="214" cy="81" r="30" fill="#43BAD6"/>
<circle cx="214" cy="81" r="10" fill="#BEBEBE"/>
<path d="M183.2 131.345C183.2 132.306 183.047 133.136 182.742 133.833C182.437 134.526 182.008 135.068 181.457 135.46L183.234 136.854L182.339 137.682L180.24 136.014C179.912 136.096 179.566 136.137 179.201 136.137C178.417 136.137 177.722 135.945 177.116 135.562C176.51 135.175 176.038 134.626 175.701 133.915C175.368 133.2 175.197 132.372 175.188 131.434V130.716C175.188 129.759 175.355 128.913 175.687 128.18C176.02 127.446 176.489 126.885 177.096 126.498C177.706 126.106 178.403 125.91 179.187 125.91C179.989 125.91 180.693 126.104 181.3 126.491C181.91 126.879 182.38 127.437 182.708 128.166C183.036 128.891 183.2 129.738 183.2 130.709V131.345ZM181.888 130.702C181.888 129.531 181.653 128.629 181.183 127.995C180.719 127.357 180.053 127.038 179.187 127.038C178.362 127.038 177.711 127.355 177.232 127.988C176.758 128.617 176.514 129.492 176.501 130.613V131.345C176.501 132.484 176.738 133.382 177.212 134.038C177.69 134.694 178.353 135.022 179.201 135.022C180.049 135.022 180.705 134.715 181.17 134.1C181.635 133.48 181.874 132.593 181.888 131.44V130.702ZM190.58 133.402H186.41L185.473 136H184.12L187.92 126.047H189.069L192.876 136H191.53L190.58 133.402ZM186.806 132.322H190.19L188.495 127.667L186.806 132.322ZM203.035 131.399H198.721V134.927H203.732V136H197.409V126.047H203.664V127.127H198.721V130.326H203.035V131.399ZM206.224 128.604L206.265 129.533C206.83 128.822 207.568 128.467 208.48 128.467C210.043 128.467 210.831 129.349 210.845 131.112V136H209.58V131.105C209.576 130.572 209.453 130.178 209.211 129.923C208.974 129.668 208.603 129.54 208.097 129.54C207.687 129.54 207.327 129.649 207.017 129.868C206.707 130.087 206.466 130.374 206.292 130.729V136H205.028V128.604H206.224ZM212.312 132.24C212.312 131.087 212.578 130.171 213.111 129.492C213.645 128.809 214.351 128.467 215.23 128.467C216.133 128.467 216.837 128.786 217.343 129.424L217.404 128.604H218.56V135.822C218.56 136.779 218.275 137.534 217.705 138.085C217.14 138.636 216.379 138.912 215.422 138.912C214.889 138.912 214.367 138.798 213.856 138.57C213.346 138.342 212.956 138.03 212.688 137.634L213.344 136.875C213.886 137.545 214.549 137.88 215.333 137.88C215.948 137.88 216.427 137.707 216.769 137.36C217.115 137.014 217.288 136.526 217.288 135.897V135.262C216.782 135.845 216.092 136.137 215.217 136.137C214.351 136.137 213.649 135.788 213.111 135.091C212.578 134.394 212.312 133.443 212.312 132.24ZM213.583 132.384C213.583 133.218 213.754 133.874 214.096 134.353C214.438 134.826 214.916 135.063 215.531 135.063C216.329 135.063 216.914 134.701 217.288 133.977V130.6C216.901 129.893 216.32 129.54 215.545 129.54C214.93 129.54 214.449 129.779 214.103 130.258C213.756 130.736 213.583 131.445 213.583 132.384ZM223.403 136.137C222.4 136.137 221.585 135.809 220.956 135.152C220.327 134.492 220.012 133.61 220.012 132.507V132.274C220.012 131.541 220.151 130.887 220.429 130.312C220.712 129.734 221.104 129.283 221.605 128.959C222.111 128.631 222.658 128.467 223.246 128.467C224.207 128.467 224.955 128.784 225.488 129.417C226.021 130.05 226.288 130.957 226.288 132.138V132.664H221.277C221.295 133.393 221.507 133.983 221.913 134.435C222.323 134.881 222.842 135.104 223.471 135.104C223.918 135.104 224.296 135.013 224.606 134.831C224.916 134.649 225.187 134.407 225.42 134.106L226.192 134.708C225.572 135.66 224.643 136.137 223.403 136.137ZM223.246 129.506C222.735 129.506 222.307 129.693 221.961 130.066C221.614 130.436 221.4 130.955 221.318 131.625H225.023V131.529C224.987 130.887 224.813 130.39 224.504 130.039C224.194 129.684 223.774 129.506 223.246 129.506ZM228.814 128.604L228.855 129.533C229.42 128.822 230.158 128.467 231.07 128.467C232.633 128.467 233.421 129.349 233.435 131.112V136H232.17V131.105C232.166 130.572 232.043 130.178 231.801 129.923C231.564 129.668 231.193 129.54 230.687 129.54C230.277 129.54 229.917 129.649 229.607 129.868C229.297 130.087 229.055 130.374 228.882 130.729V136H227.617V128.604H228.814ZM238.271 136.137C237.269 136.137 236.453 135.809 235.824 135.152C235.195 134.492 234.881 133.61 234.881 132.507V132.274C234.881 131.541 235.02 130.887 235.298 130.312C235.58 129.734 235.972 129.283 236.474 128.959C236.979 128.631 237.526 128.467 238.114 128.467C239.076 128.467 239.823 128.784 240.356 129.417C240.89 130.05 241.156 130.957 241.156 132.138V132.664H236.145C236.164 133.393 236.376 133.983 236.781 134.435C237.191 134.881 237.711 135.104 238.34 135.104C238.786 135.104 239.165 135.013 239.475 134.831C239.784 134.649 240.056 134.407 240.288 134.106L241.06 134.708C240.441 135.66 239.511 136.137 238.271 136.137ZM238.114 129.506C237.604 129.506 237.175 129.693 236.829 130.066C236.483 130.436 236.268 130.955 236.186 131.625H239.892V131.529C239.855 130.887 239.682 130.39 239.372 130.039C239.062 129.684 238.643 129.506 238.114 129.506ZM245.555 136.137C244.553 136.137 243.737 135.809 243.108 135.152C242.479 134.492 242.165 133.61 242.165 132.507V132.274C242.165 131.541 242.304 130.887 242.582 130.312C242.864 129.734 243.256 129.283 243.757 128.959C244.263 128.631 244.81 128.467 245.398 128.467C246.36 128.467 247.107 128.784 247.64 129.417C248.173 130.05 248.44 130.957 248.44 132.138V132.664H243.429C243.447 133.393 243.659 133.983 244.065 134.435C244.475 134.881 244.995 135.104 245.624 135.104C246.07 135.104 246.448 135.013 246.758 134.831C247.068 134.649 247.339 134.407 247.572 134.106L248.344 134.708C247.725 135.66 246.795 136.137 245.555 136.137ZM245.398 129.506C244.888 129.506 244.459 129.693 244.113 130.066C243.766 130.436 243.552 130.955 243.47 131.625H247.175V131.529C247.139 130.887 246.966 130.39 246.656 130.039C246.346 129.684 245.927 129.506 245.398 129.506ZM253.345 129.738C253.154 129.706 252.946 129.69 252.723 129.69C251.893 129.69 251.331 130.044 251.034 130.75V136H249.77V128.604H251L251.021 129.458C251.435 128.797 252.023 128.467 252.784 128.467C253.03 128.467 253.217 128.499 253.345 128.562V129.738Z" fill="black"/>
</svg>
