<svg width="572" height="175" viewBox="0 0 572 175" fill="none" xmlns="http://www.w3.org/2000/svg">
<circle cx="532" cy="118" r="29.5" stroke="#CACACA"/>
<circle cx="532" cy="118" r="9.5" stroke="#43BAD6"/>
<path d="M522.648 167.842C522.525 168.895 522.136 169.708 521.479 170.282C520.828 170.852 519.96 171.137 518.875 171.137C517.699 171.137 516.756 170.715 516.045 169.872C515.339 169.029 514.985 167.901 514.985 166.488V165.531C514.985 164.606 515.149 163.793 515.478 163.091C515.81 162.389 516.28 161.851 516.886 161.478C517.492 161.099 518.194 160.91 518.991 160.91C520.049 160.91 520.896 161.206 521.534 161.799C522.172 162.387 522.544 163.202 522.648 164.246H521.329C521.215 163.453 520.967 162.879 520.584 162.523C520.206 162.168 519.675 161.99 518.991 161.99C518.153 161.99 517.494 162.3 517.016 162.92C516.542 163.54 516.305 164.422 516.305 165.565V166.529C516.305 167.609 516.53 168.468 516.981 169.106C517.433 169.744 518.064 170.063 518.875 170.063C519.604 170.063 520.162 169.899 520.55 169.571C520.942 169.239 521.201 168.662 521.329 167.842H522.648ZM525.622 171H524.357V160.5H525.622V171ZM529.026 171H527.762V163.604H529.026V171ZM527.659 161.642C527.659 161.437 527.721 161.263 527.844 161.122C527.971 160.981 528.158 160.91 528.404 160.91C528.65 160.91 528.837 160.981 528.965 161.122C529.092 161.263 529.156 161.437 529.156 161.642C529.156 161.847 529.092 162.018 528.965 162.154C528.837 162.291 528.65 162.359 528.404 162.359C528.158 162.359 527.971 162.291 527.844 162.154C527.721 162.018 527.659 161.847 527.659 161.642ZM534.126 171.137C533.123 171.137 532.308 170.809 531.679 170.152C531.05 169.492 530.735 168.61 530.735 167.507V167.274C530.735 166.541 530.874 165.887 531.152 165.312C531.435 164.734 531.827 164.283 532.328 163.959C532.834 163.631 533.381 163.467 533.969 163.467C534.93 163.467 535.678 163.784 536.211 164.417C536.744 165.05 537.011 165.957 537.011 167.138V167.664H532C532.018 168.393 532.23 168.983 532.636 169.435C533.046 169.881 533.565 170.104 534.194 170.104C534.641 170.104 535.019 170.013 535.329 169.831C535.639 169.649 535.91 169.407 536.143 169.106L536.915 169.708C536.295 170.66 535.366 171.137 534.126 171.137ZM533.969 164.506C533.458 164.506 533.03 164.693 532.684 165.066C532.337 165.436 532.123 165.955 532.041 166.625H535.746V166.529C535.71 165.887 535.536 165.39 535.227 165.039C534.917 164.684 534.497 164.506 533.969 164.506ZM539.677 163.604L539.718 164.533C540.283 163.822 541.021 163.467 541.933 163.467C543.496 163.467 544.284 164.349 544.298 166.112V171H543.033V166.105C543.029 165.572 542.906 165.178 542.664 164.923C542.427 164.668 542.056 164.54 541.55 164.54C541.14 164.54 540.78 164.649 540.47 164.868C540.16 165.087 539.918 165.374 539.745 165.729V171H538.48V163.604H539.677ZM547.921 161.812V163.604H549.302V164.581H547.921V169.168C547.921 169.464 547.982 169.688 548.105 169.838C548.229 169.984 548.438 170.057 548.734 170.057C548.88 170.057 549.081 170.029 549.336 169.975V171C549.003 171.091 548.68 171.137 548.365 171.137C547.8 171.137 547.374 170.966 547.087 170.624C546.8 170.282 546.656 169.797 546.656 169.168V164.581H545.31V163.604H546.656V161.812H547.921Z" fill="black"/>
<circle cx="40" cy="118" r="29.5" stroke="#CACACA"/>
<circle cx="40" cy="118" r="10" fill="#43BAD6"/>
<path d="M15.2471 161.047L18.501 169.168L21.7549 161.047H23.457V171H22.1445V167.124L22.2676 162.94L19 171H17.9951L14.7344 162.961L14.8643 167.124V171H13.5518V161.047H15.2471ZM30.1426 171C30.0697 170.854 30.0104 170.594 29.9648 170.221C29.377 170.831 28.6751 171.137 27.8594 171.137C27.1302 171.137 26.5309 170.932 26.0615 170.521C25.5967 170.107 25.3643 169.583 25.3643 168.949C25.3643 168.179 25.6559 167.582 26.2393 167.158C26.8271 166.73 27.652 166.516 28.7139 166.516H29.9443V165.935C29.9443 165.493 29.8122 165.142 29.5479 164.882C29.2835 164.618 28.8939 164.485 28.3789 164.485C27.9277 164.485 27.5495 164.599 27.2441 164.827C26.9388 165.055 26.7861 165.331 26.7861 165.654H25.5146C25.5146 165.285 25.6445 164.93 25.9043 164.588C26.1686 164.242 26.5241 163.968 26.9707 163.768C27.4219 163.567 27.9163 163.467 28.4541 163.467C29.3063 163.467 29.974 163.681 30.457 164.109C30.9401 164.533 31.1908 165.119 31.209 165.866V169.271C31.209 169.95 31.2956 170.49 31.4688 170.891V171H30.1426ZM28.0439 170.036C28.4404 170.036 28.8164 169.934 29.1719 169.729C29.5273 169.523 29.7848 169.257 29.9443 168.929V167.411H28.9531C27.4036 167.411 26.6289 167.865 26.6289 168.771C26.6289 169.168 26.7611 169.478 27.0254 169.701C27.2897 169.924 27.6292 170.036 28.0439 170.036ZM34.3877 163.604L34.4287 164.533C34.9938 163.822 35.7321 163.467 36.6436 163.467C38.2067 163.467 38.9951 164.349 39.0088 166.112V171H37.7441V166.105C37.7396 165.572 37.6165 165.178 37.375 164.923C37.138 164.668 36.7666 164.54 36.2607 164.54C35.8506 164.54 35.4906 164.649 35.1807 164.868C34.8708 165.087 34.6292 165.374 34.4561 165.729V171H33.1914V163.604H34.3877ZM45.4824 171C45.4095 170.854 45.3503 170.594 45.3047 170.221C44.7168 170.831 44.015 171.137 43.1992 171.137C42.4701 171.137 41.8708 170.932 41.4014 170.521C40.9365 170.107 40.7041 169.583 40.7041 168.949C40.7041 168.179 40.9958 167.582 41.5791 167.158C42.167 166.73 42.9919 166.516 44.0537 166.516H45.2842V165.935C45.2842 165.493 45.152 165.142 44.8877 164.882C44.6234 164.618 44.2337 164.485 43.7188 164.485C43.2676 164.485 42.8893 164.599 42.584 164.827C42.2786 165.055 42.126 165.331 42.126 165.654H40.8545C40.8545 165.285 40.9844 164.93 41.2441 164.588C41.5085 164.242 41.8639 163.968 42.3105 163.768C42.7617 163.567 43.2562 163.467 43.7939 163.467C44.6462 163.467 45.3138 163.681 45.7969 164.109C46.2799 164.533 46.5306 165.119 46.5488 165.866V169.271C46.5488 169.95 46.6354 170.49 46.8086 170.891V171H45.4824ZM43.3838 170.036C43.7803 170.036 44.1562 169.934 44.5117 169.729C44.8672 169.523 45.1247 169.257 45.2842 168.929V167.411H44.293C42.7435 167.411 41.9688 167.865 41.9688 168.771C41.9688 169.168 42.1009 169.478 42.3652 169.701C42.6296 169.924 42.9691 170.036 43.3838 170.036ZM48.2305 167.24C48.2305 166.087 48.4971 165.171 49.0303 164.492C49.5635 163.809 50.2699 163.467 51.1494 163.467C52.0518 163.467 52.7559 163.786 53.2617 164.424L53.3232 163.604H54.4785V170.822C54.4785 171.779 54.1937 172.534 53.624 173.085C53.0589 173.636 52.2979 173.912 51.3408 173.912C50.8076 173.912 50.2858 173.798 49.7754 173.57C49.265 173.342 48.8753 173.03 48.6064 172.634L49.2627 171.875C49.805 172.545 50.4681 172.88 51.252 172.88C51.8672 172.88 52.3457 172.707 52.6875 172.36C53.0339 172.014 53.207 171.526 53.207 170.897V170.262C52.7012 170.845 52.0107 171.137 51.1357 171.137C50.2699 171.137 49.568 170.788 49.0303 170.091C48.4971 169.394 48.2305 168.443 48.2305 167.24ZM49.502 167.384C49.502 168.218 49.6729 168.874 50.0146 169.353C50.3564 169.826 50.835 170.063 51.4502 170.063C52.2477 170.063 52.8333 169.701 53.207 168.977V165.6C52.8197 164.893 52.2386 164.54 51.4639 164.54C50.8486 164.54 50.3678 164.779 50.0215 165.258C49.6751 165.736 49.502 166.445 49.502 167.384ZM59.4619 171.137C58.4593 171.137 57.6436 170.809 57.0146 170.152C56.3857 169.492 56.0713 168.61 56.0713 167.507V167.274C56.0713 166.541 56.2103 165.887 56.4883 165.312C56.7708 164.734 57.1628 164.283 57.6641 163.959C58.1699 163.631 58.7168 163.467 59.3047 163.467C60.2663 163.467 61.0137 163.784 61.5469 164.417C62.0801 165.05 62.3467 165.957 62.3467 167.138V167.664H57.3359C57.3542 168.393 57.5661 168.983 57.9717 169.435C58.3818 169.881 58.9014 170.104 59.5303 170.104C59.9769 170.104 60.3551 170.013 60.665 169.831C60.9749 169.649 61.2461 169.407 61.4785 169.106L62.251 169.708C61.6312 170.66 60.7015 171.137 59.4619 171.137ZM59.3047 164.506C58.7943 164.506 58.3659 164.693 58.0195 165.066C57.6732 165.436 57.459 165.955 57.377 166.625H61.082V166.529C61.0456 165.887 60.8724 165.39 60.5625 165.039C60.2526 164.684 59.8333 164.506 59.3047 164.506ZM67.3916 164.738C67.2002 164.706 66.9928 164.69 66.7695 164.69C65.9401 164.69 65.3773 165.044 65.0811 165.75V171H63.8164V163.604H65.0469L65.0674 164.458C65.4821 163.797 66.07 163.467 66.8311 163.467C67.0771 163.467 67.264 163.499 67.3916 163.562V164.738Z" fill="black"/>
<path d="M344 78C344 78 328.381 58 287.5 58C244.866 58 231 78 231 78" stroke="#BEBEBE" stroke-width="2" stroke-linecap="round" stroke-dasharray="0.5 4"/>
<path d="M237 78.5L231 78.5L231 72" stroke="#BEBEBE" stroke-width="2" stroke-linecap="round"/>
<path d="M171 78C171 78 155.381 58 114.5 58C71.866 58 58 78 58 78" stroke="#BEBEBE" stroke-width="2" stroke-linecap="round" stroke-dasharray="0.5 4"/>
<path d="M58 78C58 78 121.721 1 288.5 1C462.432 1 519 78 519 78" stroke="#BEBEBE" stroke-width="2" stroke-linecap="round" stroke-dasharray="0.5 4"/>
<path d="M519.5 72V78H513" stroke="#BEBEBE" stroke-width="2" stroke-linecap="round"/>
<path d="M64 78.5L58 78.5L58 72" stroke="#BEBEBE" stroke-width="2" stroke-linecap="round"/>
<path d="M271 118H305M305 118L300 113M305 118L300 123" stroke="#BEBEBE" stroke-width="2" stroke-linecap="round"/>
<circle cx="194" cy="118" r="30" fill="#F0F0F0"/>
<circle cx="194" cy="118" r="10" fill="#43BAD6"/>
<path d="M164.004 161.047V167.814C163.999 168.753 163.703 169.521 163.115 170.118C162.532 170.715 161.739 171.05 160.736 171.123L160.388 171.137C159.299 171.137 158.43 170.843 157.783 170.255C157.136 169.667 156.808 168.858 156.799 167.828V161.047H158.098V167.787C158.098 168.507 158.296 169.068 158.692 169.469C159.089 169.865 159.654 170.063 160.388 170.063C161.131 170.063 161.698 169.865 162.09 169.469C162.486 169.072 162.685 168.514 162.685 167.794V161.047H164.004ZM169.322 164.861L171.708 161.047H173.253L170.108 165.982L173.328 171H171.77L169.322 167.117L166.861 171H165.31L168.536 165.982L165.385 161.047H166.923L169.322 164.861ZM178.325 171V161.047H181.135C182.001 161.047 182.766 161.238 183.432 161.621C184.097 162.004 184.61 162.549 184.97 163.255C185.334 163.961 185.519 164.772 185.523 165.688V166.324C185.523 167.263 185.341 168.086 184.977 168.792C184.617 169.498 184.099 170.041 183.425 170.419C182.755 170.797 181.973 170.991 181.08 171H178.325ZM179.638 162.127V169.927H181.019C182.03 169.927 182.816 169.612 183.377 168.983C183.942 168.354 184.225 167.459 184.225 166.297V165.716C184.225 164.586 183.958 163.708 183.425 163.084C182.896 162.455 182.144 162.136 181.169 162.127H179.638ZM190.384 171.137C189.381 171.137 188.565 170.809 187.937 170.152C187.308 169.492 186.993 168.61 186.993 167.507V167.274C186.993 166.541 187.132 165.887 187.41 165.312C187.693 164.734 188.085 164.283 188.586 163.959C189.092 163.631 189.639 163.467 190.227 163.467C191.188 163.467 191.936 163.784 192.469 164.417C193.002 165.05 193.269 165.957 193.269 167.138V167.664H188.258C188.276 168.393 188.488 168.983 188.894 169.435C189.304 169.881 189.823 170.104 190.452 170.104C190.899 170.104 191.277 170.013 191.587 169.831C191.897 169.649 192.168 169.407 192.4 169.106L193.173 169.708C192.553 170.66 191.623 171.137 190.384 171.137ZM190.227 164.506C189.716 164.506 189.288 164.693 188.941 165.066C188.595 165.436 188.381 165.955 188.299 166.625H192.004V166.529C191.967 165.887 191.794 165.39 191.484 165.039C191.174 164.684 190.755 164.506 190.227 164.506ZM199.045 169.038C199.045 168.696 198.915 168.432 198.655 168.245C198.4 168.054 197.951 167.89 197.309 167.753C196.671 167.616 196.162 167.452 195.784 167.261C195.41 167.069 195.132 166.841 194.95 166.577C194.772 166.313 194.684 165.998 194.684 165.634C194.684 165.028 194.939 164.515 195.449 164.096C195.964 163.676 196.62 163.467 197.418 163.467C198.257 163.467 198.936 163.683 199.455 164.116C199.979 164.549 200.241 165.103 200.241 165.777H198.97C198.97 165.431 198.822 165.132 198.525 164.882C198.234 164.631 197.865 164.506 197.418 164.506C196.958 164.506 196.598 164.606 196.338 164.807C196.078 165.007 195.948 165.269 195.948 165.593C195.948 165.898 196.069 166.128 196.311 166.283C196.552 166.438 196.987 166.586 197.616 166.728C198.25 166.869 198.762 167.037 199.154 167.233C199.546 167.429 199.836 167.666 200.022 167.944C200.214 168.218 200.31 168.553 200.31 168.949C200.31 169.61 200.045 170.141 199.517 170.542C198.988 170.938 198.302 171.137 197.459 171.137C196.867 171.137 196.342 171.032 195.887 170.822C195.431 170.613 195.073 170.321 194.813 169.947C194.558 169.569 194.431 169.161 194.431 168.724H195.695C195.718 169.147 195.887 169.485 196.201 169.735C196.52 169.981 196.939 170.104 197.459 170.104C197.938 170.104 198.32 170.009 198.607 169.817C198.899 169.621 199.045 169.362 199.045 169.038ZM203.331 171H202.066V163.604H203.331V171ZM201.964 161.642C201.964 161.437 202.025 161.263 202.148 161.122C202.276 160.981 202.463 160.91 202.709 160.91C202.955 160.91 203.142 160.981 203.27 161.122C203.397 161.263 203.461 161.437 203.461 161.642C203.461 161.847 203.397 162.018 203.27 162.154C203.142 162.291 202.955 162.359 202.709 162.359C202.463 162.359 202.276 162.291 202.148 162.154C202.025 162.018 201.964 161.847 201.964 161.642ZM205.061 167.24C205.061 166.087 205.327 165.171 205.86 164.492C206.394 163.809 207.1 163.467 207.979 163.467C208.882 163.467 209.586 163.786 210.092 164.424L210.153 163.604H211.309V170.822C211.309 171.779 211.024 172.534 210.454 173.085C209.889 173.636 209.128 173.912 208.171 173.912C207.638 173.912 207.116 173.798 206.605 173.57C206.095 173.342 205.705 173.03 205.437 172.634L206.093 171.875C206.635 172.545 207.298 172.88 208.082 172.88C208.697 172.88 209.176 172.707 209.518 172.36C209.864 172.014 210.037 171.526 210.037 170.897V170.262C209.531 170.845 208.841 171.137 207.966 171.137C207.1 171.137 206.398 170.788 205.86 170.091C205.327 169.394 205.061 168.443 205.061 167.24ZM206.332 167.384C206.332 168.218 206.503 168.874 206.845 169.353C207.187 169.826 207.665 170.063 208.28 170.063C209.078 170.063 209.663 169.701 210.037 168.977V165.6C209.65 164.893 209.069 164.54 208.294 164.54C207.679 164.54 207.198 164.779 206.852 165.258C206.505 165.736 206.332 166.445 206.332 167.384ZM214.419 163.604L214.46 164.533C215.025 163.822 215.763 163.467 216.675 163.467C218.238 163.467 219.026 164.349 219.04 166.112V171H217.775V166.105C217.771 165.572 217.648 165.178 217.406 164.923C217.169 164.668 216.798 164.54 216.292 164.54C215.882 164.54 215.522 164.649 215.212 164.868C214.902 165.087 214.66 165.374 214.487 165.729V171H213.223V163.604H214.419ZM224.017 171.137C223.014 171.137 222.198 170.809 221.569 170.152C220.94 169.492 220.626 168.61 220.626 167.507V167.274C220.626 166.541 220.765 165.887 221.043 165.312C221.326 164.734 221.717 164.283 222.219 163.959C222.725 163.631 223.271 163.467 223.859 163.467C224.821 163.467 225.568 163.784 226.102 164.417C226.635 165.05 226.901 165.957 226.901 167.138V167.664H221.891C221.909 168.393 222.121 168.983 222.526 169.435C222.937 169.881 223.456 170.104 224.085 170.104C224.532 170.104 224.91 170.013 225.22 169.831C225.53 169.649 225.801 169.407 226.033 169.106L226.806 169.708C226.186 170.66 225.256 171.137 224.017 171.137ZM223.859 164.506C223.349 164.506 222.921 164.693 222.574 165.066C222.228 165.436 222.014 165.955 221.932 166.625H225.637V166.529C225.6 165.887 225.427 165.39 225.117 165.039C224.807 164.684 224.388 164.506 223.859 164.506ZM231.946 164.738C231.755 164.706 231.548 164.69 231.324 164.69C230.495 164.69 229.932 165.044 229.636 165.75V171H228.371V163.604H229.602L229.622 164.458C230.037 163.797 230.625 163.467 231.386 163.467C231.632 163.467 231.819 163.499 231.946 163.562V164.738Z" fill="black"/>
<circle cx="375" cy="118" r="30" fill="#43BAD6"/>
<circle cx="375" cy="118" r="10" fill="white"/>
<path d="M346.985 161.047V167.814C346.981 168.753 346.685 169.521 346.097 170.118C345.513 170.715 344.72 171.05 343.718 171.123L343.369 171.137C342.28 171.137 341.412 170.843 340.765 170.255C340.118 169.667 339.789 168.858 339.78 167.828V161.047H341.079V167.787C341.079 168.507 341.277 169.068 341.674 169.469C342.07 169.865 342.635 170.063 343.369 170.063C344.112 170.063 344.679 169.865 345.071 169.469C345.468 169.072 345.666 168.514 345.666 167.794V161.047H346.985ZM350.465 171H349.152V161.047H350.465V171ZM356.344 171V161.047H359.153C360.019 161.047 360.785 161.238 361.45 161.621C362.116 162.004 362.628 162.549 362.988 163.255C363.353 163.961 363.537 164.772 363.542 165.688V166.324C363.542 167.263 363.36 168.086 362.995 168.792C362.635 169.498 362.118 170.041 361.443 170.419C360.773 170.797 359.992 170.991 359.099 171H356.344ZM357.656 162.127V169.927H359.037C360.049 169.927 360.835 169.612 361.396 168.983C361.961 168.354 362.243 167.459 362.243 166.297V165.716C362.243 164.586 361.977 163.708 361.443 163.084C360.915 162.455 360.163 162.136 359.188 162.127H357.656ZM368.402 171.137C367.4 171.137 366.584 170.809 365.955 170.152C365.326 169.492 365.012 168.61 365.012 167.507V167.274C365.012 166.541 365.151 165.887 365.429 165.312C365.711 164.734 366.103 164.283 366.604 163.959C367.11 163.631 367.657 163.467 368.245 163.467C369.207 163.467 369.954 163.784 370.487 164.417C371.021 165.05 371.287 165.957 371.287 167.138V167.664H366.276C366.295 168.393 366.507 168.983 366.912 169.435C367.322 169.881 367.842 170.104 368.471 170.104C368.917 170.104 369.296 170.013 369.605 169.831C369.915 169.649 370.187 169.407 370.419 169.106L371.191 169.708C370.572 170.66 369.642 171.137 368.402 171.137ZM368.245 164.506C367.735 164.506 367.306 164.693 366.96 165.066C366.614 165.436 366.399 165.955 366.317 166.625H370.022V166.529C369.986 165.887 369.813 165.39 369.503 165.039C369.193 164.684 368.774 164.506 368.245 164.506ZM377.063 169.038C377.063 168.696 376.934 168.432 376.674 168.245C376.419 168.054 375.97 167.89 375.327 167.753C374.689 167.616 374.181 167.452 373.803 167.261C373.429 167.069 373.151 166.841 372.969 166.577C372.791 166.313 372.702 165.998 372.702 165.634C372.702 165.028 372.957 164.515 373.468 164.096C373.983 163.676 374.639 163.467 375.437 163.467C376.275 163.467 376.954 163.683 377.474 164.116C377.998 164.549 378.26 165.103 378.26 165.777H376.988C376.988 165.431 376.84 165.132 376.544 164.882C376.252 164.631 375.883 164.506 375.437 164.506C374.976 164.506 374.616 164.606 374.356 164.807C374.097 165.007 373.967 165.269 373.967 165.593C373.967 165.898 374.088 166.128 374.329 166.283C374.571 166.438 375.006 166.586 375.635 166.728C376.268 166.869 376.781 167.037 377.173 167.233C377.565 167.429 377.854 167.666 378.041 167.944C378.232 168.218 378.328 168.553 378.328 168.949C378.328 169.61 378.064 170.141 377.535 170.542C377.007 170.938 376.321 171.137 375.478 171.137C374.885 171.137 374.361 171.032 373.905 170.822C373.45 170.613 373.092 170.321 372.832 169.947C372.577 169.569 372.449 169.161 372.449 168.724H373.714C373.737 169.147 373.905 169.485 374.22 169.735C374.539 169.981 374.958 170.104 375.478 170.104C375.956 170.104 376.339 170.009 376.626 169.817C376.918 169.621 377.063 169.362 377.063 169.038ZM381.35 171H380.085V163.604H381.35V171ZM379.982 161.642C379.982 161.437 380.044 161.263 380.167 161.122C380.295 160.981 380.481 160.91 380.728 160.91C380.974 160.91 381.16 160.981 381.288 161.122C381.416 161.263 381.479 161.437 381.479 161.642C381.479 161.847 381.416 162.018 381.288 162.154C381.16 162.291 380.974 162.359 380.728 162.359C380.481 162.359 380.295 162.291 380.167 162.154C380.044 162.018 379.982 161.847 379.982 161.642ZM383.079 167.24C383.079 166.087 383.346 165.171 383.879 164.492C384.412 163.809 385.118 163.467 385.998 163.467C386.9 163.467 387.604 163.786 388.11 164.424L388.172 163.604H389.327V170.822C389.327 171.779 389.042 172.534 388.473 173.085C387.908 173.636 387.146 173.912 386.189 173.912C385.656 173.912 385.134 173.798 384.624 173.57C384.114 173.342 383.724 173.03 383.455 172.634L384.111 171.875C384.654 172.545 385.317 172.88 386.101 172.88C386.716 172.88 387.194 172.707 387.536 172.36C387.882 172.014 388.056 171.526 388.056 170.897V170.262C387.55 170.845 386.859 171.137 385.984 171.137C385.118 171.137 384.417 170.788 383.879 170.091C383.346 169.394 383.079 168.443 383.079 167.24ZM384.351 167.384C384.351 168.218 384.521 168.874 384.863 169.353C385.205 169.826 385.684 170.063 386.299 170.063C387.096 170.063 387.682 169.701 388.056 168.977V165.6C387.668 164.893 387.087 164.54 386.312 164.54C385.697 164.54 385.216 164.779 384.87 165.258C384.524 165.736 384.351 166.445 384.351 167.384ZM392.438 163.604L392.479 164.533C393.044 163.822 393.782 163.467 394.693 163.467C396.257 163.467 397.045 164.349 397.059 166.112V171H395.794V166.105C395.789 165.572 395.666 165.178 395.425 164.923C395.188 164.668 394.816 164.54 394.311 164.54C393.9 164.54 393.54 164.649 393.23 164.868C392.921 165.087 392.679 165.374 392.506 165.729V171H391.241V163.604H392.438ZM402.035 171.137C401.033 171.137 400.217 170.809 399.588 170.152C398.959 169.492 398.645 168.61 398.645 167.507V167.274C398.645 166.541 398.784 165.887 399.062 165.312C399.344 164.734 399.736 164.283 400.237 163.959C400.743 163.631 401.29 163.467 401.878 163.467C402.84 163.467 403.587 163.784 404.12 164.417C404.653 165.05 404.92 165.957 404.92 167.138V167.664H399.909C399.927 168.393 400.139 168.983 400.545 169.435C400.955 169.881 401.475 170.104 402.104 170.104C402.55 170.104 402.928 170.013 403.238 169.831C403.548 169.649 403.819 169.407 404.052 169.106L404.824 169.708C404.204 170.66 403.275 171.137 402.035 171.137ZM401.878 164.506C401.368 164.506 400.939 164.693 400.593 165.066C400.246 165.436 400.032 165.955 399.95 166.625H403.655V166.529C403.619 165.887 403.446 165.39 403.136 165.039C402.826 164.684 402.407 164.506 401.878 164.506ZM409.965 164.738C409.773 164.706 409.566 164.69 409.343 164.69C408.513 164.69 407.951 165.044 407.654 165.75V171H406.39V163.604H407.62L407.641 164.458C408.055 163.797 408.643 163.467 409.404 163.467C409.65 163.467 409.837 163.499 409.965 163.562V164.738Z" fill="black"/>
</svg>
