<svg width="409" height="143" viewBox="0 0 409 143" fill="none" xmlns="http://www.w3.org/2000/svg">
<circle cx="379" cy="86" r="29.5" stroke="#CACACA"/>
<circle cx="379" cy="86" r="9.5" stroke="#43BAD6"/>
<path d="M100.5 86.0001H134.5M134.5 86.0001L129.5 81M134.5 86.0001L129.5 91" stroke="#BEBEBE" stroke-width="2" stroke-linecap="round"/>
<path d="M174 48C174 48 158.381 28 117.5 28C74.866 28 61 48 61 48" stroke="#BEBEBE" stroke-width="2" stroke-linecap="round" stroke-dasharray="0.5 4"/>
<path d="M369.648 135.842C369.525 136.895 369.136 137.708 368.479 138.282C367.828 138.852 366.96 139.137 365.875 139.137C364.699 139.137 363.756 138.715 363.045 137.872C362.339 137.029 361.985 135.901 361.985 134.488V133.531C361.985 132.606 362.149 131.793 362.478 131.091C362.81 130.389 363.28 129.851 363.886 129.478C364.492 129.099 365.194 128.91 365.991 128.91C367.049 128.91 367.896 129.206 368.534 129.799C369.172 130.387 369.544 131.202 369.648 132.246H368.329C368.215 131.453 367.967 130.879 367.584 130.523C367.206 130.168 366.675 129.99 365.991 129.99C365.153 129.99 364.494 130.3 364.016 130.92C363.542 131.54 363.305 132.422 363.305 133.565V134.529C363.305 135.609 363.53 136.468 363.981 137.106C364.433 137.744 365.064 138.063 365.875 138.063C366.604 138.063 367.162 137.899 367.55 137.571C367.942 137.239 368.201 136.662 368.329 135.842H369.648ZM372.622 139H371.357V128.5H372.622V139ZM376.026 139H374.762V131.604H376.026V139ZM374.659 129.642C374.659 129.437 374.721 129.263 374.844 129.122C374.971 128.981 375.158 128.91 375.404 128.91C375.65 128.91 375.837 128.981 375.965 129.122C376.092 129.263 376.156 129.437 376.156 129.642C376.156 129.847 376.092 130.018 375.965 130.154C375.837 130.291 375.65 130.359 375.404 130.359C375.158 130.359 374.971 130.291 374.844 130.154C374.721 130.018 374.659 129.847 374.659 129.642ZM381.126 139.137C380.123 139.137 379.308 138.809 378.679 138.152C378.05 137.492 377.735 136.61 377.735 135.507V135.274C377.735 134.541 377.874 133.887 378.152 133.312C378.435 132.734 378.827 132.283 379.328 131.959C379.834 131.631 380.381 131.467 380.969 131.467C381.93 131.467 382.678 131.784 383.211 132.417C383.744 133.05 384.011 133.957 384.011 135.138V135.664H379C379.018 136.393 379.23 136.983 379.636 137.435C380.046 137.881 380.565 138.104 381.194 138.104C381.641 138.104 382.019 138.013 382.329 137.831C382.639 137.649 382.91 137.407 383.143 137.106L383.915 137.708C383.295 138.66 382.366 139.137 381.126 139.137ZM380.969 132.506C380.458 132.506 380.03 132.693 379.684 133.066C379.337 133.436 379.123 133.955 379.041 134.625H382.746V134.529C382.71 133.887 382.536 133.39 382.227 133.039C381.917 132.684 381.497 132.506 380.969 132.506ZM386.677 131.604L386.718 132.533C387.283 131.822 388.021 131.467 388.933 131.467C390.496 131.467 391.284 132.349 391.298 134.112V139H390.033V134.105C390.029 133.572 389.906 133.178 389.664 132.923C389.427 132.668 389.056 132.54 388.55 132.54C388.14 132.54 387.78 132.649 387.47 132.868C387.16 133.087 386.918 133.374 386.745 133.729V139H385.48V131.604H386.677ZM394.921 129.812V131.604H396.302V132.581H394.921V137.168C394.921 137.464 394.982 137.688 395.105 137.838C395.229 137.984 395.438 138.057 395.734 138.057C395.88 138.057 396.081 138.029 396.336 137.975V139C396.003 139.091 395.68 139.137 395.365 139.137C394.8 139.137 394.374 138.966 394.087 138.624C393.8 138.282 393.656 137.797 393.656 137.168V132.581H392.31V131.604H393.656V129.812H394.921Z" fill="black"/>
<circle cx="30.5" cy="86" r="29.5" stroke="#CACACA"/>
<circle cx="30.5" cy="86" r="10" fill="#43BAD6"/>
<path d="M5.24707 129.047L8.50098 137.168L11.7549 129.047H13.457V139H12.1445V135.124L12.2676 130.94L9 139H7.99512L4.73438 130.961L4.86426 135.124V139H3.55176V129.047H5.24707ZM20.1426 139C20.0697 138.854 20.0104 138.594 19.9648 138.221C19.377 138.831 18.6751 139.137 17.8594 139.137C17.1302 139.137 16.5309 138.932 16.0615 138.521C15.5967 138.107 15.3643 137.583 15.3643 136.949C15.3643 136.179 15.6559 135.582 16.2393 135.158C16.8271 134.73 17.652 134.516 18.7139 134.516H19.9443V133.935C19.9443 133.493 19.8122 133.142 19.5479 132.882C19.2835 132.618 18.8939 132.485 18.3789 132.485C17.9277 132.485 17.5495 132.599 17.2441 132.827C16.9388 133.055 16.7861 133.331 16.7861 133.654H15.5146C15.5146 133.285 15.6445 132.93 15.9043 132.588C16.1686 132.242 16.5241 131.968 16.9707 131.768C17.4219 131.567 17.9163 131.467 18.4541 131.467C19.3063 131.467 19.974 131.681 20.457 132.109C20.9401 132.533 21.1908 133.119 21.209 133.866V137.271C21.209 137.95 21.2956 138.49 21.4688 138.891V139H20.1426ZM18.0439 138.036C18.4404 138.036 18.8164 137.934 19.1719 137.729C19.5273 137.523 19.7848 137.257 19.9443 136.929V135.411H18.9531C17.4036 135.411 16.6289 135.865 16.6289 136.771C16.6289 137.168 16.7611 137.478 17.0254 137.701C17.2897 137.924 17.6292 138.036 18.0439 138.036ZM24.3877 131.604L24.4287 132.533C24.9938 131.822 25.7321 131.467 26.6436 131.467C28.2067 131.467 28.9951 132.349 29.0088 134.112V139H27.7441V134.105C27.7396 133.572 27.6165 133.178 27.375 132.923C27.138 132.668 26.7666 132.54 26.2607 132.54C25.8506 132.54 25.4906 132.649 25.1807 132.868C24.8708 133.087 24.6292 133.374 24.4561 133.729V139H23.1914V131.604H24.3877ZM35.4824 139C35.4095 138.854 35.3503 138.594 35.3047 138.221C34.7168 138.831 34.015 139.137 33.1992 139.137C32.4701 139.137 31.8708 138.932 31.4014 138.521C30.9365 138.107 30.7041 137.583 30.7041 136.949C30.7041 136.179 30.9958 135.582 31.5791 135.158C32.167 134.73 32.9919 134.516 34.0537 134.516H35.2842V133.935C35.2842 133.493 35.152 133.142 34.8877 132.882C34.6234 132.618 34.2337 132.485 33.7188 132.485C33.2676 132.485 32.8893 132.599 32.584 132.827C32.2786 133.055 32.126 133.331 32.126 133.654H30.8545C30.8545 133.285 30.9844 132.93 31.2441 132.588C31.5085 132.242 31.8639 131.968 32.3105 131.768C32.7617 131.567 33.2562 131.467 33.7939 131.467C34.6462 131.467 35.3138 131.681 35.7969 132.109C36.2799 132.533 36.5306 133.119 36.5488 133.866V137.271C36.5488 137.95 36.6354 138.49 36.8086 138.891V139H35.4824ZM33.3838 138.036C33.7803 138.036 34.1562 137.934 34.5117 137.729C34.8672 137.523 35.1247 137.257 35.2842 136.929V135.411H34.293C32.7435 135.411 31.9688 135.865 31.9688 136.771C31.9688 137.168 32.1009 137.478 32.3652 137.701C32.6296 137.924 32.9691 138.036 33.3838 138.036ZM38.2305 135.24C38.2305 134.087 38.4971 133.171 39.0303 132.492C39.5635 131.809 40.2699 131.467 41.1494 131.467C42.0518 131.467 42.7559 131.786 43.2617 132.424L43.3232 131.604H44.4785V138.822C44.4785 139.779 44.1937 140.534 43.624 141.085C43.0589 141.636 42.2979 141.912 41.3408 141.912C40.8076 141.912 40.2858 141.798 39.7754 141.57C39.265 141.342 38.8753 141.03 38.6064 140.634L39.2627 139.875C39.805 140.545 40.4681 140.88 41.252 140.88C41.8672 140.88 42.3457 140.707 42.6875 140.36C43.0339 140.014 43.207 139.526 43.207 138.897V138.262C42.7012 138.845 42.0107 139.137 41.1357 139.137C40.2699 139.137 39.568 138.788 39.0303 138.091C38.4971 137.394 38.2305 136.443 38.2305 135.24ZM39.502 135.384C39.502 136.218 39.6729 136.874 40.0146 137.353C40.3564 137.826 40.835 138.063 41.4502 138.063C42.2477 138.063 42.8333 137.701 43.207 136.977V133.6C42.8197 132.893 42.2386 132.54 41.4639 132.54C40.8486 132.54 40.3678 132.779 40.0215 133.258C39.6751 133.736 39.502 134.445 39.502 135.384ZM49.4619 139.137C48.4593 139.137 47.6436 138.809 47.0146 138.152C46.3857 137.492 46.0713 136.61 46.0713 135.507V135.274C46.0713 134.541 46.2103 133.887 46.4883 133.312C46.7708 132.734 47.1628 132.283 47.6641 131.959C48.1699 131.631 48.7168 131.467 49.3047 131.467C50.2663 131.467 51.0137 131.784 51.5469 132.417C52.0801 133.05 52.3467 133.957 52.3467 135.138V135.664H47.3359C47.3542 136.393 47.5661 136.983 47.9717 137.435C48.3818 137.881 48.9014 138.104 49.5303 138.104C49.9769 138.104 50.3551 138.013 50.665 137.831C50.9749 137.649 51.2461 137.407 51.4785 137.106L52.251 137.708C51.6312 138.66 50.7015 139.137 49.4619 139.137ZM49.3047 132.506C48.7943 132.506 48.3659 132.693 48.0195 133.066C47.6732 133.436 47.459 133.955 47.377 134.625H51.082V134.529C51.0456 133.887 50.8724 133.39 50.5625 133.039C50.2526 132.684 49.8333 132.506 49.3047 132.506ZM57.3916 132.738C57.2002 132.706 56.9928 132.69 56.7695 132.69C55.9401 132.69 55.3773 133.044 55.0811 133.75V139H53.8164V131.604H55.0469L55.0674 132.458C55.4821 131.797 56.07 131.467 56.8311 131.467C57.0771 131.467 57.264 131.499 57.3916 131.562V132.738Z" fill="black"/>
<path d="M61 48C61 48 101.67 1 205.5 1C313.783 1 349 48 349 48" stroke="#BEBEBE" stroke-width="2" stroke-linecap="round" stroke-dasharray="0.5 4"/>
<path d="M67 48.5L61 48.5L61 42" stroke="#BEBEBE" stroke-width="2" stroke-linecap="round"/>
<path d="M349 42V48H342.5" stroke="#BEBEBE" stroke-width="2" stroke-linecap="round"/>
<circle opacity="0.2" cx="205" cy="86" r="30" fill="#43BAD6"/>
<circle cx="205" cy="86" r="10" fill="#BEBEBE"/>
<path d="M175.004 129.047V135.814C174.999 136.753 174.703 137.521 174.115 138.118C173.532 138.715 172.739 139.05 171.736 139.123L171.388 139.137C170.299 139.137 169.43 138.843 168.783 138.255C168.136 137.667 167.808 136.858 167.799 135.828V129.047H169.098V135.787C169.098 136.507 169.296 137.068 169.692 137.469C170.089 137.865 170.654 138.063 171.388 138.063C172.131 138.063 172.698 137.865 173.09 137.469C173.486 137.072 173.685 136.514 173.685 135.794V129.047H175.004ZM180.322 132.861L182.708 129.047H184.253L181.108 133.982L184.328 139H182.77L180.322 135.117L177.861 139H176.31L179.536 133.982L176.385 129.047H177.923L180.322 132.861ZM189.325 139V129.047H192.135C193.001 129.047 193.766 129.238 194.432 129.621C195.097 130.004 195.61 130.549 195.97 131.255C196.334 131.961 196.519 132.772 196.523 133.688V134.324C196.523 135.263 196.341 136.086 195.977 136.792C195.617 137.498 195.099 138.041 194.425 138.419C193.755 138.797 192.973 138.991 192.08 139H189.325ZM190.638 130.127V137.927H192.019C193.03 137.927 193.816 137.612 194.377 136.983C194.942 136.354 195.225 135.459 195.225 134.297V133.716C195.225 132.586 194.958 131.708 194.425 131.084C193.896 130.455 193.144 130.136 192.169 130.127H190.638ZM201.384 139.137C200.381 139.137 199.565 138.809 198.937 138.152C198.308 137.492 197.993 136.61 197.993 135.507V135.274C197.993 134.541 198.132 133.887 198.41 133.312C198.693 132.734 199.085 132.283 199.586 131.959C200.092 131.631 200.639 131.467 201.227 131.467C202.188 131.467 202.936 131.784 203.469 132.417C204.002 133.05 204.269 133.957 204.269 135.138V135.664H199.258C199.276 136.393 199.488 136.983 199.894 137.435C200.304 137.881 200.823 138.104 201.452 138.104C201.899 138.104 202.277 138.013 202.587 137.831C202.897 137.649 203.168 137.407 203.4 137.106L204.173 137.708C203.553 138.66 202.623 139.137 201.384 139.137ZM201.227 132.506C200.716 132.506 200.288 132.693 199.941 133.066C199.595 133.436 199.381 133.955 199.299 134.625H203.004V134.529C202.967 133.887 202.794 133.39 202.484 133.039C202.174 132.684 201.755 132.506 201.227 132.506ZM210.045 137.038C210.045 136.696 209.915 136.432 209.655 136.245C209.4 136.054 208.951 135.89 208.309 135.753C207.671 135.616 207.162 135.452 206.784 135.261C206.41 135.069 206.132 134.841 205.95 134.577C205.772 134.313 205.684 133.998 205.684 133.634C205.684 133.028 205.939 132.515 206.449 132.096C206.964 131.676 207.62 131.467 208.418 131.467C209.257 131.467 209.936 131.683 210.455 132.116C210.979 132.549 211.241 133.103 211.241 133.777H209.97C209.97 133.431 209.822 133.132 209.525 132.882C209.234 132.631 208.865 132.506 208.418 132.506C207.958 132.506 207.598 132.606 207.338 132.807C207.078 133.007 206.948 133.269 206.948 133.593C206.948 133.898 207.069 134.128 207.311 134.283C207.552 134.438 207.987 134.586 208.616 134.728C209.25 134.869 209.762 135.037 210.154 135.233C210.546 135.429 210.836 135.666 211.022 135.944C211.214 136.218 211.31 136.553 211.31 136.949C211.31 137.61 211.045 138.141 210.517 138.542C209.988 138.938 209.302 139.137 208.459 139.137C207.867 139.137 207.342 139.032 206.887 138.822C206.431 138.613 206.073 138.321 205.813 137.947C205.558 137.569 205.431 137.161 205.431 136.724H206.695C206.718 137.147 206.887 137.485 207.201 137.735C207.52 137.981 207.939 138.104 208.459 138.104C208.938 138.104 209.32 138.009 209.607 137.817C209.899 137.621 210.045 137.362 210.045 137.038ZM214.331 139H213.066V131.604H214.331V139ZM212.964 129.642C212.964 129.437 213.025 129.263 213.148 129.122C213.276 128.981 213.463 128.91 213.709 128.91C213.955 128.91 214.142 128.981 214.27 129.122C214.397 129.263 214.461 129.437 214.461 129.642C214.461 129.847 214.397 130.018 214.27 130.154C214.142 130.291 213.955 130.359 213.709 130.359C213.463 130.359 213.276 130.291 213.148 130.154C213.025 130.018 212.964 129.847 212.964 129.642ZM216.061 135.24C216.061 134.087 216.327 133.171 216.86 132.492C217.394 131.809 218.1 131.467 218.979 131.467C219.882 131.467 220.586 131.786 221.092 132.424L221.153 131.604H222.309V138.822C222.309 139.779 222.024 140.534 221.454 141.085C220.889 141.636 220.128 141.912 219.171 141.912C218.638 141.912 218.116 141.798 217.605 141.57C217.095 141.342 216.705 141.03 216.437 140.634L217.093 139.875C217.635 140.545 218.298 140.88 219.082 140.88C219.697 140.88 220.176 140.707 220.518 140.36C220.864 140.014 221.037 139.526 221.037 138.897V138.262C220.531 138.845 219.841 139.137 218.966 139.137C218.1 139.137 217.398 138.788 216.86 138.091C216.327 137.394 216.061 136.443 216.061 135.24ZM217.332 135.384C217.332 136.218 217.503 136.874 217.845 137.353C218.187 137.826 218.665 138.063 219.28 138.063C220.078 138.063 220.663 137.701 221.037 136.977V133.6C220.65 132.893 220.069 132.54 219.294 132.54C218.679 132.54 218.198 132.779 217.852 133.258C217.505 133.736 217.332 134.445 217.332 135.384ZM225.419 131.604L225.46 132.533C226.025 131.822 226.763 131.467 227.675 131.467C229.238 131.467 230.026 132.349 230.04 134.112V139H228.775V134.105C228.771 133.572 228.648 133.178 228.406 132.923C228.169 132.668 227.798 132.54 227.292 132.54C226.882 132.54 226.522 132.649 226.212 132.868C225.902 133.087 225.66 133.374 225.487 133.729V139H224.223V131.604H225.419ZM235.017 139.137C234.014 139.137 233.198 138.809 232.569 138.152C231.94 137.492 231.626 136.61 231.626 135.507V135.274C231.626 134.541 231.765 133.887 232.043 133.312C232.326 132.734 232.717 132.283 233.219 131.959C233.725 131.631 234.271 131.467 234.859 131.467C235.821 131.467 236.568 131.784 237.102 132.417C237.635 133.05 237.901 133.957 237.901 135.138V135.664H232.891C232.909 136.393 233.121 136.983 233.526 137.435C233.937 137.881 234.456 138.104 235.085 138.104C235.532 138.104 235.91 138.013 236.22 137.831C236.53 137.649 236.801 137.407 237.033 137.106L237.806 137.708C237.186 138.66 236.256 139.137 235.017 139.137ZM234.859 132.506C234.349 132.506 233.921 132.693 233.574 133.066C233.228 133.436 233.014 133.955 232.932 134.625H236.637V134.529C236.6 133.887 236.427 133.39 236.117 133.039C235.807 132.684 235.388 132.506 234.859 132.506ZM242.946 132.738C242.755 132.706 242.548 132.69 242.324 132.69C241.495 132.69 240.932 133.044 240.636 133.75V139H239.371V131.604H240.602L240.622 132.458C241.037 131.797 241.625 131.467 242.386 131.467C242.632 131.467 242.819 131.499 242.946 131.562V132.738Z" fill="black"/>
</svg>
