<svg width="432" height="87" viewBox="0 0 432 87" fill="none" xmlns="http://www.w3.org/2000/svg">
<circle cx="30" cy="30" r="29.5" stroke="#CACACA"/>
<circle cx="30" cy="30" r="9.5" stroke="#43BAD6"/>
<path d="M100 30.0001H133.5M133.5 30.0001L128.5 25M133.5 30.0001L128.5 35" stroke="#BEBEBE" stroke-width="2" stroke-linecap="round"/>
<path d="M273.5 30.0001H307.5M273.5 30.0001L278.5 25M273.5 30.0001L278.5 35M307.5 30.0001L302.5 25M307.5 30.0001L302.5 35" stroke="#BEBEBE" stroke-width="2" stroke-linecap="round"/>
<path d="M20.6484 79.8418C20.5254 80.8945 20.1357 81.708 19.4795 82.2822C18.8278 82.8519 17.9596 83.1367 16.875 83.1367C15.6992 83.1367 14.7559 82.7152 14.0449 81.8721C13.3385 81.029 12.9854 79.901 12.9854 78.4883V77.5312C12.9854 76.6061 13.1494 75.7926 13.4775 75.0908C13.8102 74.389 14.2796 73.8512 14.8857 73.4775C15.4919 73.0993 16.1937 72.9102 16.9912 72.9102C18.0485 72.9102 18.8962 73.2064 19.5342 73.7988C20.1722 74.3867 20.5436 75.2025 20.6484 76.2461H19.3291C19.2152 75.4531 18.9668 74.8789 18.584 74.5234C18.2057 74.168 17.6748 73.9902 16.9912 73.9902C16.1527 73.9902 15.4941 74.3001 15.0156 74.9199C14.5417 75.5397 14.3047 76.4215 14.3047 77.5654V78.5293C14.3047 79.6094 14.5303 80.4684 14.9814 81.1064C15.4326 81.7445 16.0638 82.0635 16.875 82.0635C17.6042 82.0635 18.1624 81.8994 18.5498 81.5713C18.9417 81.2386 19.2015 80.6621 19.3291 79.8418H20.6484ZM23.6221 83H22.3574V72.5H23.6221V83ZM27.0264 83H25.7617V75.6035H27.0264V83ZM25.6592 73.6416C25.6592 73.4365 25.7207 73.2633 25.8438 73.1221C25.9714 72.9808 26.1582 72.9102 26.4043 72.9102C26.6504 72.9102 26.8372 72.9808 26.9648 73.1221C27.0924 73.2633 27.1562 73.4365 27.1562 73.6416C27.1562 73.8467 27.0924 74.0176 26.9648 74.1543C26.8372 74.291 26.6504 74.3594 26.4043 74.3594C26.1582 74.3594 25.9714 74.291 25.8438 74.1543C25.7207 74.0176 25.6592 73.8467 25.6592 73.6416ZM32.126 83.1367C31.1234 83.1367 30.3076 82.8086 29.6787 82.1523C29.0498 81.4915 28.7354 80.6097 28.7354 79.5068V79.2744C28.7354 78.5407 28.8743 77.8867 29.1523 77.3125C29.4349 76.7337 29.8268 76.2826 30.3281 75.959C30.834 75.6309 31.3809 75.4668 31.9688 75.4668C32.9303 75.4668 33.6777 75.7835 34.2109 76.417C34.7441 77.0505 35.0107 77.9574 35.0107 79.1377V79.6641H30C30.0182 80.3932 30.2301 80.9834 30.6357 81.4346C31.0459 81.8812 31.5654 82.1045 32.1943 82.1045C32.641 82.1045 33.0192 82.0133 33.3291 81.8311C33.639 81.6488 33.9102 81.4072 34.1426 81.1064L34.915 81.708C34.2952 82.6605 33.3656 83.1367 32.126 83.1367ZM31.9688 76.5059C31.4583 76.5059 31.0299 76.6927 30.6836 77.0664C30.3372 77.4355 30.123 77.9551 30.041 78.625H33.7461V78.5293C33.7096 77.8867 33.5365 77.39 33.2266 77.0391C32.9167 76.6836 32.4974 76.5059 31.9688 76.5059ZM37.6768 75.6035L37.7178 76.5332C38.2829 75.8223 39.0212 75.4668 39.9326 75.4668C41.4958 75.4668 42.2842 76.3486 42.2979 78.1123V83H41.0332V78.1055C41.0286 77.5723 40.9056 77.1781 40.6641 76.9229C40.4271 76.6676 40.0557 76.54 39.5498 76.54C39.1396 76.54 38.7796 76.6494 38.4697 76.8682C38.1598 77.0869 37.9183 77.374 37.7451 77.7295V83H36.4805V75.6035H37.6768ZM45.9209 73.8125V75.6035H47.3018V76.5811H45.9209V81.168C45.9209 81.4642 45.9824 81.6875 46.1055 81.8379C46.2285 81.9837 46.4382 82.0566 46.7344 82.0566C46.8802 82.0566 47.0807 82.0293 47.3359 81.9746V83C47.0033 83.0911 46.6797 83.1367 46.3652 83.1367C45.8001 83.1367 45.374 82.9658 45.0869 82.624C44.7998 82.2822 44.6562 81.7969 44.6562 81.168V76.5811H43.3096V75.6035H44.6562V73.8125H45.9209Z" fill="black"/>
<circle cx="203.5" cy="30" r="29.5" stroke="#CACACA"/>
<circle cx="203.5" cy="30" r="10" fill="#43BAD6"/>
<path d="M178.247 73.0469L181.501 81.168L184.755 73.0469H186.457V83H185.145V79.124L185.268 74.9404L182 83H180.995L177.734 74.9609L177.864 79.124V83H176.552V73.0469H178.247ZM193.143 83C193.07 82.8542 193.01 82.5944 192.965 82.2207C192.377 82.8314 191.675 83.1367 190.859 83.1367C190.13 83.1367 189.531 82.9316 189.062 82.5215C188.597 82.1068 188.364 81.5827 188.364 80.9492C188.364 80.179 188.656 79.582 189.239 79.1582C189.827 78.7298 190.652 78.5156 191.714 78.5156H192.944V77.9346C192.944 77.4925 192.812 77.1416 192.548 76.8818C192.284 76.6175 191.894 76.4854 191.379 76.4854C190.928 76.4854 190.549 76.5993 190.244 76.8271C189.939 77.055 189.786 77.3307 189.786 77.6543H188.515C188.515 77.2852 188.645 76.9297 188.904 76.5879C189.169 76.2415 189.524 75.9681 189.971 75.7676C190.422 75.5671 190.916 75.4668 191.454 75.4668C192.306 75.4668 192.974 75.681 193.457 76.1094C193.94 76.5332 194.191 77.1188 194.209 77.8662V81.2705C194.209 81.9495 194.296 82.4896 194.469 82.8906V83H193.143ZM191.044 82.0361C191.44 82.0361 191.816 81.9336 192.172 81.7285C192.527 81.5234 192.785 81.2568 192.944 80.9287V79.4111H191.953C190.404 79.4111 189.629 79.8646 189.629 80.7715C189.629 81.168 189.761 81.4779 190.025 81.7012C190.29 81.9245 190.629 82.0361 191.044 82.0361ZM197.388 75.6035L197.429 76.5332C197.994 75.8223 198.732 75.4668 199.644 75.4668C201.207 75.4668 201.995 76.3486 202.009 78.1123V83H200.744V78.1055C200.74 77.5723 200.617 77.1781 200.375 76.9229C200.138 76.6676 199.767 76.54 199.261 76.54C198.851 76.54 198.491 76.6494 198.181 76.8682C197.871 77.0869 197.629 77.374 197.456 77.7295V83H196.191V75.6035H197.388ZM208.482 83C208.41 82.8542 208.35 82.5944 208.305 82.2207C207.717 82.8314 207.015 83.1367 206.199 83.1367C205.47 83.1367 204.871 82.9316 204.401 82.5215C203.937 82.1068 203.704 81.5827 203.704 80.9492C203.704 80.179 203.996 79.582 204.579 79.1582C205.167 78.7298 205.992 78.5156 207.054 78.5156H208.284V77.9346C208.284 77.4925 208.152 77.1416 207.888 76.8818C207.623 76.6175 207.234 76.4854 206.719 76.4854C206.268 76.4854 205.889 76.5993 205.584 76.8271C205.279 77.055 205.126 77.3307 205.126 77.6543H203.854C203.854 77.2852 203.984 76.9297 204.244 76.5879C204.508 76.2415 204.864 75.9681 205.311 75.7676C205.762 75.5671 206.256 75.4668 206.794 75.4668C207.646 75.4668 208.314 75.681 208.797 76.1094C209.28 76.5332 209.531 77.1188 209.549 77.8662V81.2705C209.549 81.9495 209.635 82.4896 209.809 82.8906V83H208.482ZM206.384 82.0361C206.78 82.0361 207.156 81.9336 207.512 81.7285C207.867 81.5234 208.125 81.2568 208.284 80.9287V79.4111H207.293C205.743 79.4111 204.969 79.8646 204.969 80.7715C204.969 81.168 205.101 81.4779 205.365 81.7012C205.63 81.9245 205.969 82.0361 206.384 82.0361ZM211.23 79.2402C211.23 78.0872 211.497 77.1712 212.03 76.4922C212.563 75.8086 213.27 75.4668 214.149 75.4668C215.052 75.4668 215.756 75.7858 216.262 76.4238L216.323 75.6035H217.479V82.8223C217.479 83.7793 217.194 84.5335 216.624 85.085C216.059 85.6364 215.298 85.9121 214.341 85.9121C213.808 85.9121 213.286 85.7982 212.775 85.5703C212.265 85.3424 211.875 85.0303 211.606 84.6338L212.263 83.875C212.805 84.5449 213.468 84.8799 214.252 84.8799C214.867 84.8799 215.346 84.7067 215.688 84.3604C216.034 84.014 216.207 83.5264 216.207 82.8975V82.2617C215.701 82.8451 215.011 83.1367 214.136 83.1367C213.27 83.1367 212.568 82.7881 212.03 82.0908C211.497 81.3936 211.23 80.4434 211.23 79.2402ZM212.502 79.3838C212.502 80.2178 212.673 80.874 213.015 81.3525C213.356 81.8265 213.835 82.0635 214.45 82.0635C215.248 82.0635 215.833 81.7012 216.207 80.9766V77.5996C215.82 76.8932 215.239 76.54 214.464 76.54C213.849 76.54 213.368 76.7793 213.021 77.2578C212.675 77.7363 212.502 78.445 212.502 79.3838ZM222.462 83.1367C221.459 83.1367 220.644 82.8086 220.015 82.1523C219.386 81.4915 219.071 80.6097 219.071 79.5068V79.2744C219.071 78.5407 219.21 77.8867 219.488 77.3125C219.771 76.7337 220.163 76.2826 220.664 75.959C221.17 75.6309 221.717 75.4668 222.305 75.4668C223.266 75.4668 224.014 75.7835 224.547 76.417C225.08 77.0505 225.347 77.9574 225.347 79.1377V79.6641H220.336C220.354 80.3932 220.566 80.9834 220.972 81.4346C221.382 81.8812 221.901 82.1045 222.53 82.1045C222.977 82.1045 223.355 82.0133 223.665 81.8311C223.975 81.6488 224.246 81.4072 224.479 81.1064L225.251 81.708C224.631 82.6605 223.701 83.1367 222.462 83.1367ZM222.305 76.5059C221.794 76.5059 221.366 76.6927 221.02 77.0664C220.673 77.4355 220.459 77.9551 220.377 78.625H224.082V78.5293C224.046 77.8867 223.872 77.39 223.562 77.0391C223.253 76.6836 222.833 76.5059 222.305 76.5059ZM230.392 76.7383C230.2 76.7064 229.993 76.6904 229.77 76.6904C228.94 76.6904 228.377 77.0436 228.081 77.75V83H226.816V75.6035H228.047L228.067 76.458C228.482 75.7972 229.07 75.4668 229.831 75.4668C230.077 75.4668 230.264 75.4987 230.392 75.5625V76.7383Z" fill="black"/>
<circle cx="377.5" cy="30" r="30" fill="#F0F0F0"/>
<circle cx="377.5" cy="30" r="10" fill="#43BAD6"/>
<path d="M323.181 83V73.0469H326.435C327.515 73.0469 328.326 73.2702 328.868 73.7168C329.415 74.1634 329.688 74.8242 329.688 75.6992C329.688 76.1641 329.556 76.5765 329.292 76.9365C329.028 77.292 328.668 77.5677 328.212 77.7637C328.75 77.9141 329.174 78.2012 329.483 78.625C329.798 79.0443 329.955 79.5456 329.955 80.1289C329.955 81.0221 329.666 81.724 329.087 82.2344C328.508 82.7448 327.69 83 326.633 83H323.181ZM324.493 78.3447V81.9268H326.66C327.271 81.9268 327.752 81.7695 328.103 81.4551C328.458 81.1361 328.636 80.6986 328.636 80.1426C328.636 78.944 327.984 78.3447 326.681 78.3447H324.493ZM324.493 77.292H326.476C327.05 77.292 327.508 77.1484 327.85 76.8613C328.196 76.5742 328.369 76.1846 328.369 75.6924C328.369 75.1455 328.21 74.749 327.891 74.5029C327.572 74.2523 327.086 74.127 326.435 74.127H324.493V77.292ZM336.271 82.2686C335.779 82.8473 335.057 83.1367 334.104 83.1367C333.316 83.1367 332.715 82.9089 332.3 82.4531C331.89 81.9928 331.682 81.3138 331.678 80.416V75.6035H332.942V80.3818C332.942 81.5029 333.398 82.0635 334.31 82.0635C335.276 82.0635 335.918 81.7035 336.237 80.9834V75.6035H337.502V83H336.299L336.271 82.2686ZM343.736 81.0381C343.736 80.6963 343.606 80.432 343.347 80.2451C343.091 80.0537 342.643 79.8896 342 79.7529C341.362 79.6162 340.854 79.4521 340.476 79.2607C340.102 79.0693 339.824 78.8415 339.642 78.5771C339.464 78.3128 339.375 77.9984 339.375 77.6338C339.375 77.0277 339.63 76.515 340.141 76.0957C340.656 75.6764 341.312 75.4668 342.109 75.4668C342.948 75.4668 343.627 75.6833 344.146 76.1162C344.671 76.5492 344.933 77.1029 344.933 77.7773H343.661C343.661 77.431 343.513 77.1325 343.217 76.8818C342.925 76.6312 342.556 76.5059 342.109 76.5059C341.649 76.5059 341.289 76.6061 341.029 76.8066C340.77 77.0072 340.64 77.2692 340.64 77.5928C340.64 77.8981 340.76 78.1283 341.002 78.2832C341.243 78.4382 341.679 78.5863 342.308 78.7275C342.941 78.8688 343.454 79.0374 343.846 79.2334C344.238 79.4294 344.527 79.6663 344.714 79.9443C344.905 80.2178 345.001 80.5527 345.001 80.9492C345.001 81.61 344.737 82.141 344.208 82.542C343.679 82.9385 342.993 83.1367 342.15 83.1367C341.558 83.1367 341.034 83.0319 340.578 82.8223C340.122 82.6126 339.765 82.321 339.505 81.9473C339.25 81.569 339.122 81.1611 339.122 80.7236H340.387C340.41 81.1475 340.578 81.4847 340.893 81.7354C341.212 81.9814 341.631 82.1045 342.15 82.1045C342.629 82.1045 343.012 82.0088 343.299 81.8174C343.59 81.6214 343.736 81.3617 343.736 81.0381ZM348.022 83H346.758V75.6035H348.022V83ZM346.655 73.6416C346.655 73.4365 346.717 73.2633 346.84 73.1221C346.967 72.9808 347.154 72.9102 347.4 72.9102C347.646 72.9102 347.833 72.9808 347.961 73.1221C348.089 73.2633 348.152 73.4365 348.152 73.6416C348.152 73.8467 348.089 74.0176 347.961 74.1543C347.833 74.291 347.646 74.3594 347.4 74.3594C347.154 74.3594 346.967 74.291 346.84 74.1543C346.717 74.0176 346.655 73.8467 346.655 73.6416ZM351.249 75.6035L351.29 76.5332C351.855 75.8223 352.593 75.4668 353.505 75.4668C355.068 75.4668 355.856 76.3486 355.87 78.1123V83H354.605V78.1055C354.601 77.5723 354.478 77.1781 354.236 76.9229C353.999 76.6676 353.628 76.54 353.122 76.54C352.712 76.54 352.352 76.6494 352.042 76.8682C351.732 77.0869 351.491 77.374 351.317 77.7295V83H350.053V75.6035H351.249ZM360.847 83.1367C359.844 83.1367 359.028 82.8086 358.399 82.1523C357.771 81.4915 357.456 80.6097 357.456 79.5068V79.2744C357.456 78.5407 357.595 77.8867 357.873 77.3125C358.156 76.7337 358.548 76.2826 359.049 75.959C359.555 75.6309 360.102 75.4668 360.689 75.4668C361.651 75.4668 362.398 75.7835 362.932 76.417C363.465 77.0505 363.731 77.9574 363.731 79.1377V79.6641H358.721C358.739 80.3932 358.951 80.9834 359.356 81.4346C359.767 81.8812 360.286 82.1045 360.915 82.1045C361.362 82.1045 361.74 82.0133 362.05 81.8311C362.36 81.6488 362.631 81.4072 362.863 81.1064L363.636 81.708C363.016 82.6605 362.086 83.1367 360.847 83.1367ZM360.689 76.5059C360.179 76.5059 359.751 76.6927 359.404 77.0664C359.058 77.4355 358.844 77.9551 358.762 78.625H362.467V78.5293C362.43 77.8867 362.257 77.39 361.947 77.0391C361.637 76.6836 361.218 76.5059 360.689 76.5059ZM369.508 81.0381C369.508 80.6963 369.378 80.432 369.118 80.2451C368.863 80.0537 368.414 79.8896 367.771 79.7529C367.133 79.6162 366.625 79.4521 366.247 79.2607C365.873 79.0693 365.595 78.8415 365.413 78.5771C365.235 78.3128 365.146 77.9984 365.146 77.6338C365.146 77.0277 365.402 76.515 365.912 76.0957C366.427 75.6764 367.083 75.4668 367.881 75.4668C368.719 75.4668 369.398 75.6833 369.918 76.1162C370.442 76.5492 370.704 77.1029 370.704 77.7773H369.433C369.433 77.431 369.285 77.1325 368.988 76.8818C368.697 76.6312 368.327 76.5059 367.881 76.5059C367.421 76.5059 367.061 76.6061 366.801 76.8066C366.541 77.0072 366.411 77.2692 366.411 77.5928C366.411 77.8981 366.532 78.1283 366.773 78.2832C367.015 78.4382 367.45 78.5863 368.079 78.7275C368.713 78.8688 369.225 79.0374 369.617 79.2334C370.009 79.4294 370.299 79.6663 370.485 79.9443C370.677 80.2178 370.772 80.5527 370.772 80.9492C370.772 81.61 370.508 82.141 369.979 82.542C369.451 82.9385 368.765 83.1367 367.922 83.1367C367.329 83.1367 366.805 83.0319 366.35 82.8223C365.894 82.6126 365.536 82.321 365.276 81.9473C365.021 81.569 364.894 81.1611 364.894 80.7236H366.158C366.181 81.1475 366.35 81.4847 366.664 81.7354C366.983 81.9814 367.402 82.1045 367.922 82.1045C368.4 82.1045 368.783 82.0088 369.07 81.8174C369.362 81.6214 369.508 81.3617 369.508 81.0381ZM376.727 81.0381C376.727 80.6963 376.597 80.432 376.337 80.2451C376.082 80.0537 375.633 79.8896 374.99 79.7529C374.352 79.6162 373.844 79.4521 373.466 79.2607C373.092 79.0693 372.814 78.8415 372.632 78.5771C372.454 78.3128 372.365 77.9984 372.365 77.6338C372.365 77.0277 372.62 76.515 373.131 76.0957C373.646 75.6764 374.302 75.4668 375.1 75.4668C375.938 75.4668 376.617 75.6833 377.137 76.1162C377.661 76.5492 377.923 77.1029 377.923 77.7773H376.651C376.651 77.431 376.503 77.1325 376.207 76.8818C375.915 76.6312 375.546 76.5059 375.1 76.5059C374.639 76.5059 374.279 76.6061 374.02 76.8066C373.76 77.0072 373.63 77.2692 373.63 77.5928C373.63 77.8981 373.751 78.1283 373.992 78.2832C374.234 78.4382 374.669 78.5863 375.298 78.7275C375.931 78.8688 376.444 79.0374 376.836 79.2334C377.228 79.4294 377.517 79.6663 377.704 79.9443C377.896 80.2178 377.991 80.5527 377.991 80.9492C377.991 81.61 377.727 82.141 377.198 82.542C376.67 82.9385 375.984 83.1367 375.141 83.1367C374.548 83.1367 374.024 83.0319 373.568 82.8223C373.113 82.6126 372.755 82.321 372.495 81.9473C372.24 81.569 372.112 81.1611 372.112 80.7236H373.377C373.4 81.1475 373.568 81.4847 373.883 81.7354C374.202 81.9814 374.621 82.1045 375.141 82.1045C375.619 82.1045 376.002 82.0088 376.289 81.8174C376.581 81.6214 376.727 81.3617 376.727 81.0381ZM388.806 80.4023H384.636L383.699 83H382.346L386.146 73.0469H387.295L391.103 83H389.756L388.806 80.4023ZM385.032 79.3223H388.416L386.721 74.667L385.032 79.3223ZM393.44 75.6035L393.481 76.5332C394.047 75.8223 394.785 75.4668 395.696 75.4668C397.259 75.4668 398.048 76.3486 398.062 78.1123V83H396.797V78.1055C396.792 77.5723 396.669 77.1781 396.428 76.9229C396.191 76.6676 395.819 76.54 395.313 76.54C394.903 76.54 394.543 76.6494 394.233 76.8682C393.924 77.0869 393.682 77.374 393.509 77.7295V83H392.244V75.6035H393.44ZM404.535 83C404.462 82.8542 404.403 82.5944 404.357 82.2207C403.77 82.8314 403.068 83.1367 402.252 83.1367C401.523 83.1367 400.924 82.9316 400.454 82.5215C399.989 82.1068 399.757 81.5827 399.757 80.9492C399.757 80.179 400.049 79.582 400.632 79.1582C401.22 78.7298 402.045 78.5156 403.106 78.5156H404.337V77.9346C404.337 77.4925 404.205 77.1416 403.94 76.8818C403.676 76.6175 403.286 76.4854 402.771 76.4854C402.32 76.4854 401.942 76.5993 401.637 76.8271C401.331 77.055 401.179 77.3307 401.179 77.6543H399.907C399.907 77.2852 400.037 76.9297 400.297 76.5879C400.561 76.2415 400.917 75.9681 401.363 75.7676C401.814 75.5671 402.309 75.4668 402.847 75.4668C403.699 75.4668 404.367 75.681 404.85 76.1094C405.333 76.5332 405.583 77.1188 405.602 77.8662V81.2705C405.602 81.9495 405.688 82.4896 405.861 82.8906V83H404.535ZM402.437 82.0361C402.833 82.0361 403.209 81.9336 403.564 81.7285C403.92 81.5234 404.177 81.2568 404.337 80.9287V79.4111H403.346C401.796 79.4111 401.021 79.8646 401.021 80.7715C401.021 81.168 401.154 81.4779 401.418 81.7012C401.682 81.9245 402.022 82.0361 402.437 82.0361ZM408.958 83H407.693V72.5H408.958V83ZM413.408 81.1475L415.131 75.6035H416.484L413.511 84.1416C413.05 85.3721 412.319 85.9873 411.316 85.9873L411.077 85.9668L410.605 85.8779V84.8525L410.947 84.8799C411.376 84.8799 411.708 84.7933 411.945 84.6201C412.187 84.4469 412.385 84.1302 412.54 83.6699L412.82 82.918L410.182 75.6035H411.562L413.408 81.1475ZM419.335 73.8125V75.6035H420.716V76.5811H419.335V81.168C419.335 81.4642 419.396 81.6875 419.52 81.8379C419.643 81.9837 419.852 82.0566 420.148 82.0566C420.294 82.0566 420.495 82.0293 420.75 81.9746V83C420.417 83.0911 420.094 83.1367 419.779 83.1367C419.214 83.1367 418.788 82.9658 418.501 82.624C418.214 82.2822 418.07 81.7969 418.07 81.168V76.5811H416.724V75.6035H418.07V73.8125H419.335ZM423.573 83H422.309V75.6035H423.573V83ZM422.206 73.6416C422.206 73.4365 422.268 73.2633 422.391 73.1221C422.518 72.9808 422.705 72.9102 422.951 72.9102C423.197 72.9102 423.384 72.9808 423.512 73.1221C423.639 73.2633 423.703 73.4365 423.703 73.6416C423.703 73.8467 423.639 74.0176 423.512 74.1543C423.384 74.291 423.197 74.3594 422.951 74.3594C422.705 74.3594 422.518 74.291 422.391 74.1543C422.268 74.0176 422.206 73.8467 422.206 73.6416ZM428.57 82.1045C429.021 82.1045 429.416 81.9678 429.753 81.6943C430.09 81.4209 430.277 81.0791 430.313 80.6689H431.51C431.487 81.0928 431.341 81.4961 431.072 81.8789C430.803 82.2617 430.443 82.5671 429.992 82.7949C429.546 83.0228 429.072 83.1367 428.57 83.1367C427.563 83.1367 426.761 82.8018 426.164 82.1318C425.572 81.4574 425.275 80.5368 425.275 79.3701V79.1582C425.275 78.4382 425.408 77.7979 425.672 77.2373C425.936 76.6768 426.314 76.2415 426.807 75.9316C427.303 75.6217 427.889 75.4668 428.563 75.4668C429.393 75.4668 430.081 75.7152 430.628 76.2119C431.179 76.7087 431.473 77.3535 431.51 78.1465H430.313C430.277 77.668 430.095 77.276 429.767 76.9707C429.443 76.6608 429.042 76.5059 428.563 76.5059C427.921 76.5059 427.422 76.7383 427.066 77.2031C426.715 77.6634 426.54 78.3311 426.54 79.2061V79.4453C426.54 80.2975 426.715 80.9538 427.066 81.4141C427.417 81.8743 427.919 82.1045 428.57 82.1045Z" fill="black"/>
</svg>
