<svg width="124" height="381" viewBox="0 0 124 381" fill="none" xmlns="http://www.w3.org/2000/svg">
<path d="M39.9999 102L39.9999 132M39.9999 132L45 127.588M39.9999 132L35 127.588" stroke="#BEBEBE" stroke-width="2" stroke-linecap="round"/>
<circle cx="40" cy="324" r="29.5" stroke="#CACACA"/>
<circle cx="40" cy="324" r="9.5" stroke="#43BAD6"/>
<path d="M30.6484 373.842C30.5254 374.895 30.1357 375.708 29.4795 376.282C28.8278 376.852 27.9596 377.137 26.875 377.137C25.6992 377.137 24.7559 376.715 24.0449 375.872C23.3385 375.029 22.9854 373.901 22.9854 372.488V371.531C22.9854 370.606 23.1494 369.793 23.4775 369.091C23.8102 368.389 24.2796 367.851 24.8857 367.478C25.4919 367.099 26.1937 366.91 26.9912 366.91C28.0485 366.91 28.8962 367.207 29.5342 367.799C30.1722 368.387 30.5436 369.203 30.6484 370.246H29.3291C29.2152 369.453 28.9668 368.879 28.584 368.524C28.2057 368.168 27.6748 367.99 26.9912 367.99C26.1527 367.99 25.4941 368.3 25.0156 368.92C24.5417 369.54 24.3047 370.422 24.3047 371.566V372.529C24.3047 373.609 24.5303 374.469 24.9814 375.107C25.4326 375.745 26.0638 376.064 26.875 376.064C27.6042 376.064 28.1624 375.9 28.5498 375.571C28.9417 375.239 29.2015 374.662 29.3291 373.842H30.6484ZM33.6221 377H32.3574V366.5H33.6221V377ZM37.0264 377H35.7617V369.604H37.0264V377ZM35.6592 367.642C35.6592 367.437 35.7207 367.263 35.8438 367.122C35.9714 366.981 36.1582 366.91 36.4043 366.91C36.6504 366.91 36.8372 366.981 36.9648 367.122C37.0924 367.263 37.1562 367.437 37.1562 367.642C37.1562 367.847 37.0924 368.018 36.9648 368.154C36.8372 368.291 36.6504 368.359 36.4043 368.359C36.1582 368.359 35.9714 368.291 35.8438 368.154C35.7207 368.018 35.6592 367.847 35.6592 367.642ZM42.126 377.137C41.1234 377.137 40.3076 376.809 39.6787 376.152C39.0498 375.492 38.7354 374.61 38.7354 373.507V373.275C38.7354 372.541 38.8743 371.887 39.1523 371.313C39.4349 370.734 39.8268 370.283 40.3281 369.959C40.834 369.631 41.3809 369.467 41.9688 369.467C42.9303 369.467 43.6777 369.784 44.2109 370.417C44.7441 371.051 45.0107 371.957 45.0107 373.138V373.664H40C40.0182 374.393 40.2301 374.984 40.6357 375.435C41.0459 375.881 41.5654 376.105 42.1943 376.105C42.641 376.105 43.0192 376.013 43.3291 375.831C43.639 375.649 43.9102 375.407 44.1426 375.107L44.915 375.708C44.2952 376.661 43.3656 377.137 42.126 377.137ZM41.9688 370.506C41.4583 370.506 41.0299 370.693 40.6836 371.067C40.3372 371.436 40.123 371.955 40.041 372.625H43.7461V372.529C43.7096 371.887 43.5365 371.39 43.2266 371.039C42.9167 370.684 42.4974 370.506 41.9688 370.506ZM47.6768 369.604L47.7178 370.533C48.2829 369.822 49.0212 369.467 49.9326 369.467C51.4958 369.467 52.2842 370.349 52.2979 372.112V377H51.0332V372.106C51.0286 371.572 50.9056 371.178 50.6641 370.923C50.4271 370.668 50.0557 370.54 49.5498 370.54C49.1396 370.54 48.7796 370.65 48.4697 370.868C48.1598 371.087 47.9183 371.374 47.7451 371.73V377H46.4805V369.604H47.6768ZM55.9209 367.813V369.604H57.3018V370.581H55.9209V375.168C55.9209 375.464 55.9824 375.688 56.1055 375.838C56.2285 375.984 56.4382 376.057 56.7344 376.057C56.8802 376.057 57.0807 376.029 57.3359 375.975V377C57.0033 377.091 56.6797 377.137 56.3652 377.137C55.8001 377.137 55.374 376.966 55.0869 376.624C54.7998 376.282 54.6562 375.797 54.6562 375.168V370.581H53.3096V369.604H54.6562V367.813H55.9209Z" fill="black"/>
<circle cx="40.5" cy="30.0002" r="29.5" stroke="#CACACA"/>
<circle cx="40.5" cy="30.0002" r="10" fill="#43BAD6"/>
<path d="M15.2471 73.0471L18.501 81.1682L21.7549 73.0471H23.457V83.0002H22.1445V79.1242L22.2676 74.9406L19 83.0002H17.9951L14.7344 74.9611L14.8643 79.1242V83.0002H13.5518V73.0471H15.2471ZM30.1426 83.0002C30.0697 82.8543 30.0104 82.5946 29.9648 82.2209C29.377 82.8316 28.6751 83.1369 27.8594 83.1369C27.1302 83.1369 26.5309 82.9318 26.0615 82.5217C25.5967 82.107 25.3643 81.5829 25.3643 80.9494C25.3643 80.1792 25.6559 79.5822 26.2393 79.1584C26.8271 78.73 27.652 78.5158 28.7139 78.5158H29.9443V77.9348C29.9443 77.4927 29.8122 77.1418 29.5479 76.882C29.2835 76.6177 28.8939 76.4855 28.3789 76.4855C27.9277 76.4855 27.5495 76.5995 27.2441 76.8273C26.9388 77.0552 26.7861 77.3309 26.7861 77.6545H25.5146C25.5146 77.2853 25.6445 76.9299 25.9043 76.5881C26.1686 76.2417 26.5241 75.9683 26.9707 75.7678C27.4219 75.5672 27.9163 75.467 28.4541 75.467C29.3063 75.467 29.974 75.6812 30.457 76.1096C30.9401 76.5334 31.1908 77.119 31.209 77.8664V81.2707C31.209 81.9497 31.2956 82.4898 31.4688 82.8908V83.0002H30.1426ZM28.0439 82.0363C28.4404 82.0363 28.8164 81.9338 29.1719 81.7287C29.5273 81.5236 29.7848 81.257 29.9443 80.9289V79.4113H28.9531C27.4036 79.4113 26.6289 79.8648 26.6289 80.7717C26.6289 81.1682 26.7611 81.478 27.0254 81.7014C27.2897 81.9247 27.6292 82.0363 28.0439 82.0363ZM34.3877 75.6037L34.4287 76.5334C34.9938 75.8224 35.7321 75.467 36.6436 75.467C38.2067 75.467 38.9951 76.3488 39.0088 78.1125V83.0002H37.7441V78.1057C37.7396 77.5724 37.6165 77.1782 37.375 76.923C37.138 76.6678 36.7666 76.5402 36.2607 76.5402C35.8506 76.5402 35.4906 76.6496 35.1807 76.8683C34.8708 77.0871 34.6292 77.3742 34.4561 77.7297V83.0002H33.1914V75.6037H34.3877ZM45.4824 83.0002C45.4095 82.8543 45.3503 82.5946 45.3047 82.2209C44.7168 82.8316 44.015 83.1369 43.1992 83.1369C42.4701 83.1369 41.8708 82.9318 41.4014 82.5217C40.9365 82.107 40.7041 81.5829 40.7041 80.9494C40.7041 80.1792 40.9958 79.5822 41.5791 79.1584C42.167 78.73 42.9919 78.5158 44.0537 78.5158H45.2842V77.9348C45.2842 77.4927 45.152 77.1418 44.8877 76.882C44.6234 76.6177 44.2337 76.4855 43.7188 76.4855C43.2676 76.4855 42.8893 76.5995 42.584 76.8273C42.2786 77.0552 42.126 77.3309 42.126 77.6545H40.8545C40.8545 77.2853 40.9844 76.9299 41.2441 76.5881C41.5085 76.2417 41.8639 75.9683 42.3105 75.7678C42.7617 75.5672 43.2562 75.467 43.7939 75.467C44.6462 75.467 45.3138 75.6812 45.7969 76.1096C46.2799 76.5334 46.5306 77.119 46.5488 77.8664V81.2707C46.5488 81.9497 46.6354 82.4898 46.8086 82.8908V83.0002H45.4824ZM43.3838 82.0363C43.7803 82.0363 44.1562 81.9338 44.5117 81.7287C44.8672 81.5236 45.1247 81.257 45.2842 80.9289V79.4113H44.293C42.7435 79.4113 41.9688 79.8648 41.9688 80.7717C41.9688 81.1682 42.1009 81.478 42.3652 81.7014C42.6296 81.9247 42.9691 82.0363 43.3838 82.0363ZM48.2305 79.2404C48.2305 78.0874 48.4971 77.1714 49.0303 76.4924C49.5635 75.8088 50.2699 75.467 51.1494 75.467C52.0518 75.467 52.7559 75.786 53.2617 76.424L53.3232 75.6037H54.4785V82.8224C54.4785 83.7795 54.1937 84.5337 53.624 85.0851C53.0589 85.6366 52.2979 85.9123 51.3408 85.9123C50.8076 85.9123 50.2858 85.7984 49.7754 85.5705C49.265 85.3426 48.8753 85.0305 48.6064 84.634L49.2627 83.8752C49.805 84.5451 50.4681 84.8801 51.252 84.8801C51.8672 84.8801 52.3457 84.7069 52.6875 84.3605C53.0339 84.0142 53.207 83.5266 53.207 82.8976V82.2619C52.7012 82.8452 52.0107 83.1369 51.1357 83.1369C50.2699 83.1369 49.568 82.7883 49.0303 82.091C48.4971 81.3937 48.2305 80.4435 48.2305 79.2404ZM49.502 79.384C49.502 80.218 49.6729 80.8742 50.0146 81.3527C50.3564 81.8267 50.835 82.0637 51.4502 82.0637C52.2477 82.0637 52.8333 81.7014 53.207 80.9767V77.5998C52.8197 76.8934 52.2386 76.5402 51.4639 76.5402C50.8486 76.5402 50.3678 76.7795 50.0215 77.258C49.6751 77.7365 49.502 78.4452 49.502 79.384ZM59.4619 83.1369C58.4593 83.1369 57.6436 82.8088 57.0146 82.1525C56.3857 81.4917 56.0713 80.6099 56.0713 79.507V79.2746C56.0713 78.5409 56.2103 77.8869 56.4883 77.3127C56.7708 76.7339 57.1628 76.2827 57.6641 75.9592C58.1699 75.631 58.7168 75.467 59.3047 75.467C60.2663 75.467 61.0137 75.7837 61.5469 76.4172C62.0801 77.0506 62.3467 77.9575 62.3467 79.1379V79.6642H57.3359C57.3542 80.3934 57.5661 80.9836 57.9717 81.4348C58.3818 81.8814 58.9014 82.1047 59.5303 82.1047C59.9769 82.1047 60.3551 82.0135 60.665 81.8312C60.9749 81.6489 61.2461 81.4074 61.4785 81.1066L62.251 81.7082C61.6312 82.6607 60.7015 83.1369 59.4619 83.1369ZM59.3047 76.506C58.7943 76.506 58.3659 76.6929 58.0195 77.0666C57.6732 77.4357 57.459 77.9553 57.377 78.6252H61.082V78.5295C61.0456 77.8869 60.8724 77.3902 60.5625 77.0392C60.2526 76.6838 59.8333 76.506 59.3047 76.506ZM67.3916 76.7385C67.2002 76.7066 66.9928 76.6906 66.7695 76.6906C65.9401 76.6906 65.3773 77.0438 65.0811 77.7502V83.0002H63.8164V75.6037H65.0469L65.0674 76.4582C65.4821 75.7974 66.07 75.467 66.8311 75.467C67.0771 75.467 67.264 75.4989 67.3916 75.5627V76.7385Z" fill="black"/>
<path d="M80 142C80 142 100 126.381 100 85.5002C100 42.8663 82 30.0002 82 30.0002" stroke="#BEBEBE" stroke-width="2" stroke-linecap="round" stroke-dasharray="0.5 4"/>
<path d="M82 30.0002C82 30.0002 123 69.6702 123 173.5C123 281.783 82 317 82 317" stroke="#BEBEBE" stroke-width="2" stroke-linecap="round" stroke-dasharray="0.5 4"/>
<path d="M88 30.0002L82 30.0002L82 36.5002" stroke="#BEBEBE" stroke-width="2" stroke-linecap="round"/>
<path d="M88.5 317L82 317L82 310.5" stroke="#BEBEBE" stroke-width="2" stroke-linecap="round"/>
<circle opacity="0.2" cx="40.5" cy="177" r="30" fill="#43BAD6"/>
<circle cx="40.5" cy="177" r="10" fill="#BEBEBE"/>
<path d="M9 225.345C9 226.306 8.84733 227.136 8.54199 227.833C8.23665 228.526 7.80827 229.068 7.25684 229.46L9.03418 230.855L8.13867 231.682L6.04004 230.014C5.71191 230.096 5.36556 230.137 5.00098 230.137C4.21712 230.137 3.52214 229.945 2.91602 229.563C2.3099 229.175 1.83822 228.626 1.50098 227.915C1.16829 227.2 0.997396 226.373 0.988281 225.434V224.716C0.988281 223.759 1.15462 222.914 1.4873 222.18C1.81999 221.446 2.28939 220.886 2.89551 220.498C3.50618 220.106 4.20345 219.91 4.9873 219.91C5.78939 219.91 6.49349 220.104 7.09961 220.491C7.71029 220.879 8.17969 221.437 8.50781 222.166C8.83594 222.891 9 223.738 9 224.709V225.345ZM7.6875 224.702C7.6875 223.531 7.4528 222.629 6.9834 221.995C6.51855 221.357 5.85319 221.038 4.9873 221.038C4.16243 221.038 3.51074 221.355 3.03223 221.988C2.55827 222.617 2.31445 223.492 2.30078 224.613V225.345C2.30078 226.484 2.53776 227.382 3.01172 228.038C3.49023 228.695 4.15332 229.023 5.00098 229.023C5.84863 229.023 6.50488 228.715 6.96973 228.1C7.43457 227.48 7.67383 226.594 7.6875 225.441V224.702ZM16.5195 227.403H12.3496L11.4131 230H10.0596L13.8604 220.047H15.0088L18.8164 230H17.4697L16.5195 227.403ZM12.7461 226.322H16.1299L14.4346 221.667L12.7461 226.322ZM29.2549 225.4H24.9414V228.927H29.9521V230H23.6289V220.047H29.8838V221.127H24.9414V224.326H29.2549V225.4ZM32.584 222.604L32.625 223.533C33.1901 222.822 33.9284 222.467 34.8398 222.467C36.403 222.467 37.1914 223.349 37.2051 225.112V230H35.9404V225.106C35.9359 224.572 35.8128 224.178 35.5713 223.923C35.3343 223.668 34.9629 223.54 34.457 223.54C34.0469 223.54 33.6868 223.65 33.377 223.868C33.0671 224.087 32.8255 224.374 32.6523 224.73V230H31.3877V222.604H32.584ZM38.8115 226.24C38.8115 225.087 39.0781 224.171 39.6113 223.492C40.1445 222.809 40.8509 222.467 41.7305 222.467C42.6328 222.467 43.3369 222.786 43.8428 223.424L43.9043 222.604H45.0596V229.822C45.0596 230.779 44.7747 231.534 44.2051 232.085C43.64 232.637 42.8789 232.912 41.9219 232.912C41.3887 232.912 40.8669 232.798 40.3564 232.57C39.846 232.343 39.4564 232.03 39.1875 231.634L39.8438 230.875C40.3861 231.545 41.0492 231.88 41.833 231.88C42.4482 231.88 42.9268 231.707 43.2686 231.361C43.6149 231.014 43.7881 230.527 43.7881 229.898V229.262C43.2822 229.845 42.5918 230.137 41.7168 230.137C40.8509 230.137 40.1491 229.788 39.6113 229.091C39.0781 228.394 38.8115 227.444 38.8115 226.24ZM40.083 226.384C40.083 227.218 40.2539 227.874 40.5957 228.353C40.9375 228.827 41.416 229.064 42.0312 229.064C42.8288 229.064 43.4144 228.701 43.7881 227.977V224.6C43.4007 223.893 42.8197 223.54 42.0449 223.54C41.4297 223.54 40.9489 223.779 40.6025 224.258C40.2562 224.737 40.083 225.445 40.083 226.384ZM50.043 230.137C49.0404 230.137 48.2246 229.809 47.5957 229.153C46.9668 228.492 46.6523 227.61 46.6523 226.507V226.275C46.6523 225.541 46.7913 224.887 47.0693 224.313C47.3519 223.734 47.7438 223.283 48.2451 222.959C48.751 222.631 49.2979 222.467 49.8857 222.467C50.8473 222.467 51.5947 222.784 52.1279 223.417C52.6611 224.051 52.9277 224.958 52.9277 226.138V226.664H47.917C47.9352 227.393 48.1471 227.984 48.5527 228.435C48.9629 228.881 49.4824 229.105 50.1113 229.105C50.5579 229.105 50.9362 229.014 51.2461 228.831C51.556 228.649 51.8271 228.407 52.0596 228.107L52.832 228.708C52.2122 229.661 51.2826 230.137 50.043 230.137ZM49.8857 223.506C49.3753 223.506 48.9469 223.693 48.6006 224.067C48.2542 224.436 48.04 224.955 47.958 225.625H51.6631V225.529C51.6266 224.887 51.4535 224.39 51.1436 224.039C50.8337 223.684 50.4144 223.506 49.8857 223.506ZM55.5938 222.604L55.6348 223.533C56.1999 222.822 56.9382 222.467 57.8496 222.467C59.4128 222.467 60.2012 223.349 60.2148 225.112V230H58.9502V225.106C58.9456 224.572 58.8226 224.178 58.5811 223.923C58.3441 223.668 57.9727 223.54 57.4668 223.54C57.0566 223.54 56.6966 223.65 56.3867 223.868C56.0768 224.087 55.8353 224.374 55.6621 224.73V230H54.3975V222.604H55.5938ZM65.1914 230.137C64.1888 230.137 63.373 229.809 62.7441 229.153C62.1152 228.492 61.8008 227.61 61.8008 226.507V226.275C61.8008 225.541 61.9398 224.887 62.2178 224.313C62.5003 223.734 62.8923 223.283 63.3936 222.959C63.8994 222.631 64.4463 222.467 65.0342 222.467C65.9958 222.467 66.7432 222.784 67.2764 223.417C67.8096 224.051 68.0762 224.958 68.0762 226.138V226.664H63.0654C63.0837 227.393 63.2956 227.984 63.7012 228.435C64.1113 228.881 64.6309 229.105 65.2598 229.105C65.7064 229.105 66.0846 229.014 66.3945 228.831C66.7044 228.649 66.9756 228.407 67.208 228.107L67.9805 228.708C67.3607 229.661 66.431 230.137 65.1914 230.137ZM65.0342 223.506C64.5238 223.506 64.0954 223.693 63.749 224.067C63.4027 224.436 63.1885 224.955 63.1064 225.625H66.8115V225.529C66.7751 224.887 66.6019 224.39 66.292 224.039C65.9821 223.684 65.5628 223.506 65.0342 223.506ZM72.6152 230.137C71.6126 230.137 70.7969 229.809 70.168 229.153C69.5391 228.492 69.2246 227.61 69.2246 226.507V226.275C69.2246 225.541 69.3636 224.887 69.6416 224.313C69.9242 223.734 70.3161 223.283 70.8174 222.959C71.3232 222.631 71.8701 222.467 72.458 222.467C73.4196 222.467 74.167 222.784 74.7002 223.417C75.2334 224.051 75.5 224.958 75.5 226.138V226.664H70.4893C70.5075 227.393 70.7194 227.984 71.125 228.435C71.5352 228.881 72.0547 229.105 72.6836 229.105C73.1302 229.105 73.5085 229.014 73.8184 228.831C74.1283 228.649 74.3994 228.407 74.6318 228.107L75.4043 228.708C74.7845 229.661 73.8548 230.137 72.6152 230.137ZM72.458 223.506C71.9476 223.506 71.5192 223.693 71.1729 224.067C70.8265 224.436 70.6123 224.955 70.5303 225.625H74.2354V225.529C74.1989 224.887 74.0257 224.39 73.7158 224.039C73.4059 223.684 72.9867 223.506 72.458 223.506ZM80.5449 223.738C80.3535 223.707 80.1462 223.691 79.9229 223.691C79.0934 223.691 78.5306 224.044 78.2344 224.75V230H76.9697V222.604H78.2002L78.2207 223.458C78.6354 222.797 79.2233 222.467 79.9844 222.467C80.2305 222.467 80.4173 222.499 80.5449 222.563V223.738Z" fill="black"/>
</svg>
