<svg width="640" height="181" viewBox="0 0 640 181" fill="none" xmlns="http://www.w3.org/2000/svg">
<circle cx="600" cy="101" r="29.5" stroke="#CACACA"/>
<circle cx="600" cy="101" r="9.5" stroke="#43BAD6"/>
<path d="M590.648 152.842C590.525 153.895 590.136 154.708 589.479 155.282C588.828 155.852 587.96 156.137 586.875 156.137C585.699 156.137 584.756 155.715 584.045 154.872C583.339 154.029 582.985 152.901 582.985 151.488V150.531C582.985 149.606 583.149 148.793 583.478 148.091C583.81 147.389 584.28 146.851 584.886 146.478C585.492 146.099 586.194 145.91 586.991 145.91C588.049 145.91 588.896 146.206 589.534 146.799C590.172 147.387 590.544 148.202 590.648 149.246H589.329C589.215 148.453 588.967 147.879 588.584 147.523C588.206 147.168 587.675 146.99 586.991 146.99C586.153 146.99 585.494 147.3 585.016 147.92C584.542 148.54 584.305 149.422 584.305 150.565V151.529C584.305 152.609 584.53 153.468 584.981 154.106C585.433 154.744 586.064 155.063 586.875 155.063C587.604 155.063 588.162 154.899 588.55 154.571C588.942 154.239 589.201 153.662 589.329 152.842H590.648ZM593.622 156H592.357V145.5H593.622V156ZM597.026 156H595.762V148.604H597.026V156ZM595.659 146.642C595.659 146.437 595.721 146.263 595.844 146.122C595.971 145.981 596.158 145.91 596.404 145.91C596.65 145.91 596.837 145.981 596.965 146.122C597.092 146.263 597.156 146.437 597.156 146.642C597.156 146.847 597.092 147.018 596.965 147.154C596.837 147.291 596.65 147.359 596.404 147.359C596.158 147.359 595.971 147.291 595.844 147.154C595.721 147.018 595.659 146.847 595.659 146.642ZM602.126 156.137C601.123 156.137 600.308 155.809 599.679 155.152C599.05 154.492 598.735 153.61 598.735 152.507V152.274C598.735 151.541 598.874 150.887 599.152 150.312C599.435 149.734 599.827 149.283 600.328 148.959C600.834 148.631 601.381 148.467 601.969 148.467C602.93 148.467 603.678 148.784 604.211 149.417C604.744 150.05 605.011 150.957 605.011 152.138V152.664H600C600.018 153.393 600.23 153.983 600.636 154.435C601.046 154.881 601.565 155.104 602.194 155.104C602.641 155.104 603.019 155.013 603.329 154.831C603.639 154.649 603.91 154.407 604.143 154.106L604.915 154.708C604.295 155.66 603.366 156.137 602.126 156.137ZM601.969 149.506C601.458 149.506 601.03 149.693 600.684 150.066C600.337 150.436 600.123 150.955 600.041 151.625H603.746V151.529C603.71 150.887 603.536 150.39 603.227 150.039C602.917 149.684 602.497 149.506 601.969 149.506ZM607.677 148.604L607.718 149.533C608.283 148.822 609.021 148.467 609.933 148.467C611.496 148.467 612.284 149.349 612.298 151.112V156H611.033V151.105C611.029 150.572 610.906 150.178 610.664 149.923C610.427 149.668 610.056 149.54 609.55 149.54C609.14 149.54 608.78 149.649 608.47 149.868C608.16 150.087 607.918 150.374 607.745 150.729V156H606.48V148.604H607.677ZM615.921 146.812V148.604H617.302V149.581H615.921V154.168C615.921 154.464 615.982 154.688 616.105 154.838C616.229 154.984 616.438 155.057 616.734 155.057C616.88 155.057 617.081 155.029 617.336 154.975V156C617.003 156.091 616.68 156.137 616.365 156.137C615.8 156.137 615.374 155.966 615.087 155.624C614.8 155.282 614.656 154.797 614.656 154.168V149.581H613.31V148.604H614.656V146.812H615.921Z" fill="black"/>
<circle cx="40" cy="101" r="29.5" stroke="#CACACA"/>
<circle cx="40" cy="101" r="10" fill="#43BAD6"/>
<path d="M15.2471 146.047L18.501 154.168L21.7549 146.047H23.457V156H22.1445V152.124L22.2676 147.94L19 156H17.9951L14.7344 147.961L14.8643 152.124V156H13.5518V146.047H15.2471ZM30.1426 156C30.0697 155.854 30.0104 155.594 29.9648 155.221C29.377 155.831 28.6751 156.137 27.8594 156.137C27.1302 156.137 26.5309 155.932 26.0615 155.521C25.5967 155.107 25.3643 154.583 25.3643 153.949C25.3643 153.179 25.6559 152.582 26.2393 152.158C26.8271 151.73 27.652 151.516 28.7139 151.516H29.9443V150.935C29.9443 150.493 29.8122 150.142 29.5479 149.882C29.2835 149.618 28.8939 149.485 28.3789 149.485C27.9277 149.485 27.5495 149.599 27.2441 149.827C26.9388 150.055 26.7861 150.331 26.7861 150.654H25.5146C25.5146 150.285 25.6445 149.93 25.9043 149.588C26.1686 149.242 26.5241 148.968 26.9707 148.768C27.4219 148.567 27.9163 148.467 28.4541 148.467C29.3063 148.467 29.974 148.681 30.457 149.109C30.9401 149.533 31.1908 150.119 31.209 150.866V154.271C31.209 154.95 31.2956 155.49 31.4688 155.891V156H30.1426ZM28.0439 155.036C28.4404 155.036 28.8164 154.934 29.1719 154.729C29.5273 154.523 29.7848 154.257 29.9443 153.929V152.411H28.9531C27.4036 152.411 26.6289 152.865 26.6289 153.771C26.6289 154.168 26.7611 154.478 27.0254 154.701C27.2897 154.924 27.6292 155.036 28.0439 155.036ZM34.3877 148.604L34.4287 149.533C34.9938 148.822 35.7321 148.467 36.6436 148.467C38.2067 148.467 38.9951 149.349 39.0088 151.112V156H37.7441V151.105C37.7396 150.572 37.6165 150.178 37.375 149.923C37.138 149.668 36.7666 149.54 36.2607 149.54C35.8506 149.54 35.4906 149.649 35.1807 149.868C34.8708 150.087 34.6292 150.374 34.4561 150.729V156H33.1914V148.604H34.3877ZM45.4824 156C45.4095 155.854 45.3503 155.594 45.3047 155.221C44.7168 155.831 44.015 156.137 43.1992 156.137C42.4701 156.137 41.8708 155.932 41.4014 155.521C40.9365 155.107 40.7041 154.583 40.7041 153.949C40.7041 153.179 40.9958 152.582 41.5791 152.158C42.167 151.73 42.9919 151.516 44.0537 151.516H45.2842V150.935C45.2842 150.493 45.152 150.142 44.8877 149.882C44.6234 149.618 44.2337 149.485 43.7188 149.485C43.2676 149.485 42.8893 149.599 42.584 149.827C42.2786 150.055 42.126 150.331 42.126 150.654H40.8545C40.8545 150.285 40.9844 149.93 41.2441 149.588C41.5085 149.242 41.8639 148.968 42.3105 148.768C42.7617 148.567 43.2562 148.467 43.7939 148.467C44.6462 148.467 45.3138 148.681 45.7969 149.109C46.2799 149.533 46.5306 150.119 46.5488 150.866V154.271C46.5488 154.95 46.6354 155.49 46.8086 155.891V156H45.4824ZM43.3838 155.036C43.7803 155.036 44.1562 154.934 44.5117 154.729C44.8672 154.523 45.1247 154.257 45.2842 153.929V152.411H44.293C42.7435 152.411 41.9688 152.865 41.9688 153.771C41.9688 154.168 42.1009 154.478 42.3652 154.701C42.6296 154.924 42.9691 155.036 43.3838 155.036ZM48.2305 152.24C48.2305 151.087 48.4971 150.171 49.0303 149.492C49.5635 148.809 50.2699 148.467 51.1494 148.467C52.0518 148.467 52.7559 148.786 53.2617 149.424L53.3232 148.604H54.4785V155.822C54.4785 156.779 54.1937 157.534 53.624 158.085C53.0589 158.636 52.2979 158.912 51.3408 158.912C50.8076 158.912 50.2858 158.798 49.7754 158.57C49.265 158.342 48.8753 158.03 48.6064 157.634L49.2627 156.875C49.805 157.545 50.4681 157.88 51.252 157.88C51.8672 157.88 52.3457 157.707 52.6875 157.36C53.0339 157.014 53.207 156.526 53.207 155.897V155.262C52.7012 155.845 52.0107 156.137 51.1357 156.137C50.2699 156.137 49.568 155.788 49.0303 155.091C48.4971 154.394 48.2305 153.443 48.2305 152.24ZM49.502 152.384C49.502 153.218 49.6729 153.874 50.0146 154.353C50.3564 154.826 50.835 155.063 51.4502 155.063C52.2477 155.063 52.8333 154.701 53.207 153.977V150.6C52.8197 149.893 52.2386 149.54 51.4639 149.54C50.8486 149.54 50.3678 149.779 50.0215 150.258C49.6751 150.736 49.502 151.445 49.502 152.384ZM59.4619 156.137C58.4593 156.137 57.6436 155.809 57.0146 155.152C56.3857 154.492 56.0713 153.61 56.0713 152.507V152.274C56.0713 151.541 56.2103 150.887 56.4883 150.312C56.7708 149.734 57.1628 149.283 57.6641 148.959C58.1699 148.631 58.7168 148.467 59.3047 148.467C60.2663 148.467 61.0137 148.784 61.5469 149.417C62.0801 150.05 62.3467 150.957 62.3467 152.138V152.664H57.3359C57.3542 153.393 57.5661 153.983 57.9717 154.435C58.3818 154.881 58.9014 155.104 59.5303 155.104C59.9769 155.104 60.3551 155.013 60.665 154.831C60.9749 154.649 61.2461 154.407 61.4785 154.106L62.251 154.708C61.6312 155.66 60.7015 156.137 59.4619 156.137ZM59.3047 149.506C58.7943 149.506 58.3659 149.693 58.0195 150.066C57.6732 150.436 57.459 150.955 57.377 151.625H61.082V151.529C61.0456 150.887 60.8724 150.39 60.5625 150.039C60.2526 149.684 59.8333 149.506 59.3047 149.506ZM67.3916 149.738C67.2002 149.706 66.9928 149.69 66.7695 149.69C65.9401 149.69 65.3773 150.044 65.0811 150.75V156H63.8164V148.604H65.0469L65.0674 149.458C65.4821 148.797 66.07 148.467 66.8311 148.467C67.0771 148.467 67.264 148.499 67.3916 148.562V149.738Z" fill="black"/>
<path d="M299 61C299 61 266.103 33 180 33C90.2045 33 61 61 61 61" stroke="#BEBEBE" stroke-width="2" stroke-linecap="round" stroke-dasharray="0.5 4"/>
<path d="M67 61L61 61L61 55" stroke="#BEBEBE" stroke-width="2" stroke-linecap="round"/>
<path d="M61 61C61 61 134.258 0.999999 326 0.999999C525.965 0.999999 591 61 591 61" stroke="#BEBEBE" stroke-width="2" stroke-linecap="round" stroke-dasharray="0.5 4"/>
<path d="M591 55V61H585" stroke="#BEBEBE" stroke-width="2" stroke-linecap="round"/>
<path d="M235 101H265M265 101L260.588 96M265 101L260.588 106" stroke="#BEBEBE" stroke-width="2" stroke-linecap="round"/>
<path d="M375 101H405M405 101L400.588 96M405 101L400.588 106" stroke="#BEBEBE" stroke-width="2" stroke-linecap="round"/>
<path d="M152.485 146.047V152.814C152.481 153.753 152.185 154.521 151.597 155.118C151.013 155.715 150.22 156.05 149.218 156.123L148.869 156.137C147.78 156.137 146.912 155.843 146.265 155.255C145.618 154.667 145.289 153.858 145.28 152.828V146.047H146.579V152.787C146.579 153.507 146.777 154.068 147.174 154.469C147.57 154.865 148.135 155.063 148.869 155.063C149.612 155.063 150.179 154.865 150.571 154.469C150.968 154.072 151.166 153.514 151.166 152.794V146.047H152.485ZM155.965 156H154.652V146.047H155.965V156ZM161.844 156V146.047H164.653C165.519 146.047 166.285 146.238 166.95 146.621C167.616 147.004 168.128 147.549 168.488 148.255C168.853 148.961 169.037 149.772 169.042 150.688V151.324C169.042 152.263 168.86 153.086 168.495 153.792C168.135 154.498 167.618 155.041 166.943 155.419C166.273 155.797 165.492 155.991 164.599 156H161.844ZM163.156 147.127V154.927H164.537C165.549 154.927 166.335 154.612 166.896 153.983C167.461 153.354 167.743 152.459 167.743 151.297V150.716C167.743 149.586 167.477 148.708 166.943 148.084C166.415 147.455 165.663 147.136 164.688 147.127H163.156ZM173.902 156.137C172.9 156.137 172.084 155.809 171.455 155.152C170.826 154.492 170.512 153.61 170.512 152.507V152.274C170.512 151.541 170.651 150.887 170.929 150.312C171.211 149.734 171.603 149.283 172.104 148.959C172.61 148.631 173.157 148.467 173.745 148.467C174.707 148.467 175.454 148.784 175.987 149.417C176.521 150.05 176.787 150.957 176.787 152.138V152.664H171.776C171.795 153.393 172.007 153.983 172.412 154.435C172.822 154.881 173.342 155.104 173.971 155.104C174.417 155.104 174.796 155.013 175.105 154.831C175.415 154.649 175.687 154.407 175.919 154.106L176.691 154.708C176.072 155.66 175.142 156.137 173.902 156.137ZM173.745 149.506C173.235 149.506 172.806 149.693 172.46 150.066C172.114 150.436 171.899 150.955 171.817 151.625H175.522V151.529C175.486 150.887 175.313 150.39 175.003 150.039C174.693 149.684 174.274 149.506 173.745 149.506ZM182.563 154.038C182.563 153.696 182.434 153.432 182.174 153.245C181.919 153.054 181.47 152.89 180.827 152.753C180.189 152.616 179.681 152.452 179.303 152.261C178.929 152.069 178.651 151.841 178.469 151.577C178.291 151.313 178.202 150.998 178.202 150.634C178.202 150.028 178.457 149.515 178.968 149.096C179.483 148.676 180.139 148.467 180.937 148.467C181.775 148.467 182.454 148.683 182.974 149.116C183.498 149.549 183.76 150.103 183.76 150.777H182.488C182.488 150.431 182.34 150.132 182.044 149.882C181.752 149.631 181.383 149.506 180.937 149.506C180.476 149.506 180.116 149.606 179.856 149.807C179.597 150.007 179.467 150.269 179.467 150.593C179.467 150.898 179.588 151.128 179.829 151.283C180.071 151.438 180.506 151.586 181.135 151.728C181.768 151.869 182.281 152.037 182.673 152.233C183.065 152.429 183.354 152.666 183.541 152.944C183.732 153.218 183.828 153.553 183.828 153.949C183.828 154.61 183.564 155.141 183.035 155.542C182.507 155.938 181.821 156.137 180.978 156.137C180.385 156.137 179.861 156.032 179.405 155.822C178.95 155.613 178.592 155.321 178.332 154.947C178.077 154.569 177.949 154.161 177.949 153.724H179.214C179.237 154.147 179.405 154.485 179.72 154.735C180.039 154.981 180.458 155.104 180.978 155.104C181.456 155.104 181.839 155.009 182.126 154.817C182.418 154.621 182.563 154.362 182.563 154.038ZM186.85 156H185.585V148.604H186.85V156ZM185.482 146.642C185.482 146.437 185.544 146.263 185.667 146.122C185.795 145.981 185.981 145.91 186.228 145.91C186.474 145.91 186.66 145.981 186.788 146.122C186.916 146.263 186.979 146.437 186.979 146.642C186.979 146.847 186.916 147.018 186.788 147.154C186.66 147.291 186.474 147.359 186.228 147.359C185.981 147.359 185.795 147.291 185.667 147.154C185.544 147.018 185.482 146.847 185.482 146.642ZM188.579 152.24C188.579 151.087 188.846 150.171 189.379 149.492C189.912 148.809 190.618 148.467 191.498 148.467C192.4 148.467 193.104 148.786 193.61 149.424L193.672 148.604H194.827V155.822C194.827 156.779 194.542 157.534 193.973 158.085C193.408 158.636 192.646 158.912 191.689 158.912C191.156 158.912 190.634 158.798 190.124 158.57C189.614 158.342 189.224 158.03 188.955 157.634L189.611 156.875C190.154 157.545 190.817 157.88 191.601 157.88C192.216 157.88 192.694 157.707 193.036 157.36C193.382 157.014 193.556 156.526 193.556 155.897V155.262C193.05 155.845 192.359 156.137 191.484 156.137C190.618 156.137 189.917 155.788 189.379 155.091C188.846 154.394 188.579 153.443 188.579 152.24ZM189.851 152.384C189.851 153.218 190.021 153.874 190.363 154.353C190.705 154.826 191.184 155.063 191.799 155.063C192.596 155.063 193.182 154.701 193.556 153.977V150.6C193.168 149.893 192.587 149.54 191.812 149.54C191.197 149.54 190.716 149.779 190.37 150.258C190.024 150.736 189.851 151.445 189.851 152.384ZM197.938 148.604L197.979 149.533C198.544 148.822 199.282 148.467 200.193 148.467C201.757 148.467 202.545 149.349 202.559 151.112V156H201.294V151.105C201.289 150.572 201.166 150.178 200.925 149.923C200.688 149.668 200.316 149.54 199.811 149.54C199.4 149.54 199.04 149.649 198.73 149.868C198.421 150.087 198.179 150.374 198.006 150.729V156H196.741V148.604H197.938ZM207.535 156.137C206.533 156.137 205.717 155.809 205.088 155.152C204.459 154.492 204.145 153.61 204.145 152.507V152.274C204.145 151.541 204.284 150.887 204.562 150.312C204.844 149.734 205.236 149.283 205.737 148.959C206.243 148.631 206.79 148.467 207.378 148.467C208.34 148.467 209.087 148.784 209.62 149.417C210.153 150.05 210.42 150.957 210.42 152.138V152.664H205.409C205.427 153.393 205.639 153.983 206.045 154.435C206.455 154.881 206.975 155.104 207.604 155.104C208.05 155.104 208.428 155.013 208.738 154.831C209.048 154.649 209.319 154.407 209.552 154.106L210.324 154.708C209.704 155.66 208.775 156.137 207.535 156.137ZM207.378 149.506C206.868 149.506 206.439 149.693 206.093 150.066C205.746 150.436 205.532 150.955 205.45 151.625H209.155V151.529C209.119 150.887 208.946 150.39 208.636 150.039C208.326 149.684 207.907 149.506 207.378 149.506ZM215.465 149.738C215.273 149.706 215.066 149.69 214.843 149.69C214.013 149.69 213.451 150.044 213.154 150.75V156H211.89V148.604H213.12L213.141 149.458C213.555 148.797 214.143 148.467 214.904 148.467C215.15 148.467 215.337 148.499 215.465 148.562V149.738Z" fill="black"/>
<circle cx="180" cy="101" r="30" fill="#43BAD6"/>
<circle cx="180" cy="101" r="10" fill="white"/>
<circle cx="320" cy="101" r="30" fill="#F0F0F0"/>
<circle cx="320" cy="101" r="10" fill="#43BAD6"/>
<path d="M296.689 151.604H292.513V156H291.2V146.047H297.366V147.127H292.513V150.531H296.689V151.604ZM302.138 149.738C301.946 149.706 301.739 149.69 301.516 149.69C300.686 149.69 300.123 150.044 299.827 150.75V156H298.562V148.604H299.793L299.813 149.458C300.228 148.797 300.816 148.467 301.577 148.467C301.823 148.467 302.01 148.499 302.138 148.562V149.738ZM302.835 152.233C302.835 151.509 302.976 150.857 303.259 150.278C303.546 149.7 303.942 149.253 304.448 148.938C304.959 148.624 305.54 148.467 306.191 148.467C307.199 148.467 308.012 148.815 308.632 149.513C309.256 150.21 309.568 151.137 309.568 152.295V152.384C309.568 153.104 309.429 153.751 309.151 154.325C308.878 154.895 308.484 155.339 307.969 155.658C307.458 155.977 306.87 156.137 306.205 156.137C305.202 156.137 304.389 155.788 303.765 155.091C303.145 154.394 302.835 153.471 302.835 152.322V152.233ZM304.106 152.384C304.106 153.204 304.296 153.863 304.674 154.359C305.057 154.856 305.567 155.104 306.205 155.104C306.848 155.104 307.358 154.854 307.736 154.353C308.115 153.847 308.304 153.14 308.304 152.233C308.304 151.422 308.11 150.766 307.723 150.265C307.34 149.759 306.829 149.506 306.191 149.506C305.567 149.506 305.063 149.754 304.681 150.251C304.298 150.748 304.106 151.459 304.106 152.384ZM312.351 148.604L312.392 149.533C312.957 148.822 313.695 148.467 314.606 148.467C316.17 148.467 316.958 149.349 316.972 151.112V156H315.707V151.105C315.702 150.572 315.579 150.178 315.338 149.923C315.101 149.668 314.729 149.54 314.224 149.54C313.813 149.54 313.453 149.649 313.144 149.868C312.834 150.087 312.592 150.374 312.419 150.729V156H311.154V148.604H312.351ZM320.595 146.812V148.604H321.976V149.581H320.595V154.168C320.595 154.464 320.656 154.688 320.779 154.838C320.902 154.984 321.112 155.057 321.408 155.057C321.554 155.057 321.755 155.029 322.01 154.975V156C321.677 156.091 321.354 156.137 321.039 156.137C320.474 156.137 320.048 155.966 319.761 155.624C319.474 155.282 319.33 154.797 319.33 154.168V149.581H317.983V148.604H319.33V146.812H320.595ZM326.091 152.288H322.755V151.256H326.091V152.288ZM333.152 151.399H328.839V154.927H333.85V156H327.526V146.047H333.781V147.127H328.839V150.326H333.152V151.399ZM336.481 148.604L336.522 149.533C337.088 148.822 337.826 148.467 338.737 148.467C340.3 148.467 341.089 149.349 341.103 151.112V156H339.838V151.105C339.833 150.572 339.71 150.178 339.469 149.923C339.232 149.668 338.86 149.54 338.354 149.54C337.944 149.54 337.584 149.649 337.274 149.868C336.965 150.087 336.723 150.374 336.55 150.729V156H335.285V148.604H336.481ZM342.702 152.24C342.702 151.105 342.971 150.194 343.509 149.506C344.047 148.813 344.751 148.467 345.621 148.467C346.487 148.467 347.173 148.763 347.679 149.355V145.5H348.943V156H347.781L347.72 155.207C347.214 155.827 346.51 156.137 345.607 156.137C344.751 156.137 344.051 155.786 343.509 155.084C342.971 154.382 342.702 153.466 342.702 152.336V152.24ZM343.967 152.384C343.967 153.222 344.14 153.879 344.486 154.353C344.833 154.826 345.311 155.063 345.922 155.063C346.724 155.063 347.31 154.703 347.679 153.983V150.586C347.3 149.889 346.719 149.54 345.936 149.54C345.316 149.54 344.833 149.779 344.486 150.258C344.14 150.736 343.967 151.445 343.967 152.384ZM290.134 176V166.047H292.943C293.809 166.047 294.575 166.238 295.24 166.621C295.906 167.004 296.418 167.549 296.778 168.255C297.143 168.961 297.327 169.772 297.332 170.688V171.324C297.332 172.263 297.15 173.086 296.785 173.792C296.425 174.498 295.908 175.041 295.233 175.419C294.563 175.797 293.782 175.991 292.889 176H290.134ZM291.446 167.127V174.927H292.827C293.839 174.927 294.625 174.612 295.186 173.983C295.751 173.354 296.033 172.459 296.033 171.297V170.716C296.033 169.586 295.767 168.708 295.233 168.084C294.705 167.455 293.953 167.136 292.978 167.127H291.446ZM302.192 176.137C301.19 176.137 300.374 175.809 299.745 175.152C299.116 174.492 298.802 173.61 298.802 172.507V172.274C298.802 171.541 298.941 170.887 299.219 170.312C299.501 169.734 299.893 169.283 300.395 168.959C300.9 168.631 301.447 168.467 302.035 168.467C302.997 168.467 303.744 168.784 304.277 169.417C304.811 170.05 305.077 170.957 305.077 172.138V172.664H300.066C300.085 173.393 300.297 173.983 300.702 174.435C301.112 174.881 301.632 175.104 302.261 175.104C302.707 175.104 303.086 175.013 303.396 174.831C303.705 174.649 303.977 174.407 304.209 174.106L304.981 174.708C304.362 175.66 303.432 176.137 302.192 176.137ZM302.035 169.506C301.525 169.506 301.096 169.693 300.75 170.066C300.404 170.436 300.189 170.955 300.107 171.625H303.812V171.529C303.776 170.887 303.603 170.39 303.293 170.039C302.983 169.684 302.564 169.506 302.035 169.506ZM308.892 174.284L310.724 168.604H312.016L309.363 176H308.399L305.72 168.604H307.012L308.892 174.284ZM316.206 176.137C315.203 176.137 314.388 175.809 313.759 175.152C313.13 174.492 312.815 173.61 312.815 172.507V172.274C312.815 171.541 312.954 170.887 313.232 170.312C313.515 169.734 313.907 169.283 314.408 168.959C314.914 168.631 315.461 168.467 316.049 168.467C317.01 168.467 317.758 168.784 318.291 169.417C318.824 170.05 319.091 170.957 319.091 172.138V172.664H314.08C314.098 173.393 314.31 173.983 314.716 174.435C315.126 174.881 315.646 175.104 316.274 175.104C316.721 175.104 317.099 175.013 317.409 174.831C317.719 174.649 317.99 174.407 318.223 174.106L318.995 174.708C318.375 175.66 317.446 176.137 316.206 176.137ZM316.049 169.506C315.538 169.506 315.11 169.693 314.764 170.066C314.417 170.436 314.203 170.955 314.121 171.625H317.826V171.529C317.79 170.887 317.617 170.39 317.307 170.039C316.997 169.684 316.577 169.506 316.049 169.506ZM321.935 176H320.67V165.5H321.935V176ZM323.63 172.233C323.63 171.509 323.771 170.857 324.054 170.278C324.341 169.7 324.737 169.253 325.243 168.938C325.754 168.624 326.335 168.467 326.986 168.467C327.993 168.467 328.807 168.815 329.427 169.513C330.051 170.21 330.363 171.137 330.363 172.295V172.384C330.363 173.104 330.224 173.751 329.946 174.325C329.673 174.895 329.279 175.339 328.764 175.658C328.253 175.977 327.665 176.137 327 176.137C325.997 176.137 325.184 175.788 324.56 175.091C323.94 174.394 323.63 173.471 323.63 172.322V172.233ZM324.901 172.384C324.901 173.204 325.09 173.863 325.469 174.359C325.852 174.856 326.362 175.104 327 175.104C327.643 175.104 328.153 174.854 328.531 174.353C328.91 173.847 329.099 173.14 329.099 172.233C329.099 171.422 328.905 170.766 328.518 170.265C328.135 169.759 327.624 169.506 326.986 169.506C326.362 169.506 325.858 169.754 325.476 170.251C325.093 170.748 324.901 171.459 324.901 172.384ZM338.197 172.384C338.197 173.509 337.94 174.416 337.425 175.104C336.91 175.793 336.213 176.137 335.333 176.137C334.435 176.137 333.729 175.852 333.214 175.282V178.844H331.949V168.604H333.104L333.166 169.424C333.681 168.786 334.396 168.467 335.312 168.467C336.201 168.467 336.903 168.802 337.418 169.472C337.938 170.142 338.197 171.074 338.197 172.268V172.384ZM336.933 172.24C336.933 171.406 336.755 170.748 336.399 170.265C336.044 169.782 335.556 169.54 334.937 169.54C334.171 169.54 333.597 169.88 333.214 170.559V174.093C333.592 174.767 334.171 175.104 334.95 175.104C335.556 175.104 336.037 174.865 336.393 174.387C336.753 173.904 336.933 173.188 336.933 172.24ZM342.88 176.137C341.877 176.137 341.062 175.809 340.433 175.152C339.804 174.492 339.489 173.61 339.489 172.507V172.274C339.489 171.541 339.628 170.887 339.906 170.312C340.189 169.734 340.581 169.283 341.082 168.959C341.588 168.631 342.135 168.467 342.723 168.467C343.684 168.467 344.432 168.784 344.965 169.417C345.498 170.05 345.765 170.957 345.765 172.138V172.664H340.754C340.772 173.393 340.984 173.983 341.39 174.435C341.8 174.881 342.319 175.104 342.948 175.104C343.395 175.104 343.773 175.013 344.083 174.831C344.393 174.649 344.664 174.407 344.896 174.106L345.669 174.708C345.049 175.66 344.119 176.137 342.88 176.137ZM342.723 169.506C342.212 169.506 341.784 169.693 341.438 170.066C341.091 170.436 340.877 170.955 340.795 171.625H344.5V171.529C344.464 170.887 344.29 170.39 343.98 170.039C343.671 169.684 343.251 169.506 342.723 169.506ZM350.81 169.738C350.618 169.706 350.411 169.69 350.188 169.69C349.358 169.69 348.795 170.044 348.499 170.75V176H347.234V168.604H348.465L348.485 169.458C348.9 168.797 349.488 168.467 350.249 168.467C350.495 168.467 350.682 168.499 350.81 168.562V169.738Z" fill="black"/>
<circle cx="460" cy="101" r="29.5" stroke="#CACACA"/>
<circle cx="460" cy="101" r="9.5" stroke="#43BAD6"/>
<path d="M432.048 156V146.047H435.302C436.382 146.047 437.193 146.27 437.735 146.717C438.282 147.163 438.556 147.824 438.556 148.699C438.556 149.164 438.424 149.576 438.159 149.937C437.895 150.292 437.535 150.568 437.079 150.764C437.617 150.914 438.041 151.201 438.351 151.625C438.665 152.044 438.822 152.546 438.822 153.129C438.822 154.022 438.533 154.724 437.954 155.234C437.375 155.745 436.557 156 435.5 156H432.048ZM433.36 151.345V154.927H435.527C436.138 154.927 436.619 154.77 436.97 154.455C437.325 154.136 437.503 153.699 437.503 153.143C437.503 151.944 436.851 151.345 435.548 151.345H433.36ZM433.36 150.292H435.343C435.917 150.292 436.375 150.148 436.717 149.861C437.063 149.574 437.236 149.185 437.236 148.692C437.236 148.146 437.077 147.749 436.758 147.503C436.439 147.252 435.953 147.127 435.302 147.127H433.36V150.292ZM445.139 156C445.066 155.854 445.007 155.594 444.961 155.221C444.373 155.831 443.671 156.137 442.855 156.137C442.126 156.137 441.527 155.932 441.058 155.521C440.593 155.107 440.36 154.583 440.36 153.949C440.36 153.179 440.652 152.582 441.235 152.158C441.823 151.73 442.648 151.516 443.71 151.516H444.94V150.935C444.94 150.493 444.808 150.142 444.544 149.882C444.28 149.618 443.89 149.485 443.375 149.485C442.924 149.485 442.546 149.599 442.24 149.827C441.935 150.055 441.782 150.331 441.782 150.654H440.511C440.511 150.285 440.641 149.93 440.9 149.588C441.165 149.242 441.52 148.968 441.967 148.768C442.418 148.567 442.912 148.467 443.45 148.467C444.302 148.467 444.97 148.681 445.453 149.109C445.936 149.533 446.187 150.119 446.205 150.866V154.271C446.205 154.95 446.292 155.49 446.465 155.891V156H445.139ZM443.04 155.036C443.437 155.036 443.812 154.934 444.168 154.729C444.523 154.523 444.781 154.257 444.94 153.929V152.411H443.949C442.4 152.411 441.625 152.865 441.625 153.771C441.625 154.168 441.757 154.478 442.021 154.701C442.286 154.924 442.625 155.036 443.04 155.036ZM451.154 155.104C451.605 155.104 452 154.968 452.337 154.694C452.674 154.421 452.861 154.079 452.897 153.669H454.094C454.071 154.093 453.925 154.496 453.656 154.879C453.387 155.262 453.027 155.567 452.576 155.795C452.13 156.023 451.656 156.137 451.154 156.137C450.147 156.137 449.345 155.802 448.748 155.132C448.156 154.457 447.859 153.537 447.859 152.37V152.158C447.859 151.438 447.992 150.798 448.256 150.237C448.52 149.677 448.898 149.242 449.391 148.932C449.887 148.622 450.473 148.467 451.147 148.467C451.977 148.467 452.665 148.715 453.212 149.212C453.763 149.709 454.057 150.354 454.094 151.146H452.897C452.861 150.668 452.679 150.276 452.351 149.971C452.027 149.661 451.626 149.506 451.147 149.506C450.505 149.506 450.006 149.738 449.65 150.203C449.299 150.663 449.124 151.331 449.124 152.206V152.445C449.124 153.298 449.299 153.954 449.65 154.414C450.001 154.874 450.503 155.104 451.154 155.104ZM457.58 152.575L456.787 153.402V156H455.522V145.5H456.787V151.851L457.464 151.037L459.768 148.604H461.306L458.428 151.693L461.641 156H460.157L457.58 152.575ZM465.243 152.288H461.907V151.256H465.243V152.288ZM472.305 151.399H467.991V154.927H473.002V156H466.679V146.047H472.934V147.127H467.991V150.326H472.305V151.399ZM475.634 148.604L475.675 149.533C476.24 148.822 476.978 148.467 477.89 148.467C479.453 148.467 480.241 149.349 480.255 151.112V156H478.99V151.105C478.986 150.572 478.863 150.178 478.621 149.923C478.384 149.668 478.013 149.54 477.507 149.54C477.097 149.54 476.737 149.649 476.427 149.868C476.117 150.087 475.875 150.374 475.702 150.729V156H474.438V148.604H475.634ZM481.854 152.24C481.854 151.105 482.123 150.194 482.661 149.506C483.199 148.813 483.903 148.467 484.773 148.467C485.639 148.467 486.325 148.763 486.831 149.355V145.5H488.096V156H486.934L486.872 155.207C486.366 155.827 485.662 156.137 484.76 156.137C483.903 156.137 483.203 155.786 482.661 155.084C482.123 154.382 481.854 153.466 481.854 152.336V152.24ZM483.119 152.384C483.119 153.222 483.292 153.879 483.639 154.353C483.985 154.826 484.464 155.063 485.074 155.063C485.876 155.063 486.462 154.703 486.831 153.983V150.586C486.453 149.889 485.872 149.54 485.088 149.54C484.468 149.54 483.985 149.779 483.639 150.258C483.292 150.736 483.119 151.445 483.119 152.384ZM430.134 176V166.047H432.943C433.809 166.047 434.575 166.238 435.24 166.621C435.906 167.004 436.418 167.549 436.778 168.255C437.143 168.961 437.327 169.772 437.332 170.688V171.324C437.332 172.263 437.15 173.086 436.785 173.792C436.425 174.498 435.908 175.041 435.233 175.419C434.563 175.797 433.782 175.991 432.889 176H430.134ZM431.446 167.127V174.927H432.827C433.839 174.927 434.625 174.612 435.186 173.983C435.751 173.354 436.033 172.459 436.033 171.297V170.716C436.033 169.586 435.767 168.708 435.233 168.084C434.705 167.455 433.953 167.136 432.978 167.127H431.446ZM442.192 176.137C441.19 176.137 440.374 175.809 439.745 175.152C439.116 174.492 438.802 173.61 438.802 172.507V172.274C438.802 171.541 438.941 170.887 439.219 170.312C439.501 169.734 439.893 169.283 440.395 168.959C440.9 168.631 441.447 168.467 442.035 168.467C442.997 168.467 443.744 168.784 444.277 169.417C444.811 170.05 445.077 170.957 445.077 172.138V172.664H440.066C440.085 173.393 440.297 173.983 440.702 174.435C441.112 174.881 441.632 175.104 442.261 175.104C442.707 175.104 443.086 175.013 443.396 174.831C443.705 174.649 443.977 174.407 444.209 174.106L444.981 174.708C444.362 175.66 443.432 176.137 442.192 176.137ZM442.035 169.506C441.525 169.506 441.096 169.693 440.75 170.066C440.404 170.436 440.189 170.955 440.107 171.625H443.812V171.529C443.776 170.887 443.603 170.39 443.293 170.039C442.983 169.684 442.564 169.506 442.035 169.506ZM448.892 174.284L450.724 168.604H452.016L449.363 176H448.399L445.72 168.604H447.012L448.892 174.284ZM456.206 176.137C455.203 176.137 454.388 175.809 453.759 175.152C453.13 174.492 452.815 173.61 452.815 172.507V172.274C452.815 171.541 452.954 170.887 453.232 170.312C453.515 169.734 453.907 169.283 454.408 168.959C454.914 168.631 455.461 168.467 456.049 168.467C457.01 168.467 457.758 168.784 458.291 169.417C458.824 170.05 459.091 170.957 459.091 172.138V172.664H454.08C454.098 173.393 454.31 173.983 454.716 174.435C455.126 174.881 455.646 175.104 456.274 175.104C456.721 175.104 457.099 175.013 457.409 174.831C457.719 174.649 457.99 174.407 458.223 174.106L458.995 174.708C458.375 175.66 457.446 176.137 456.206 176.137ZM456.049 169.506C455.538 169.506 455.11 169.693 454.764 170.066C454.417 170.436 454.203 170.955 454.121 171.625H457.826V171.529C457.79 170.887 457.617 170.39 457.307 170.039C456.997 169.684 456.577 169.506 456.049 169.506ZM461.935 176H460.67V165.5H461.935V176ZM463.63 172.233C463.63 171.509 463.771 170.857 464.054 170.278C464.341 169.7 464.737 169.253 465.243 168.938C465.754 168.624 466.335 168.467 466.986 168.467C467.993 168.467 468.807 168.815 469.427 169.513C470.051 170.21 470.363 171.137 470.363 172.295V172.384C470.363 173.104 470.224 173.751 469.946 174.325C469.673 174.895 469.279 175.339 468.764 175.658C468.253 175.977 467.665 176.137 467 176.137C465.997 176.137 465.184 175.788 464.56 175.091C463.94 174.394 463.63 173.471 463.63 172.322V172.233ZM464.901 172.384C464.901 173.204 465.09 173.863 465.469 174.359C465.852 174.856 466.362 175.104 467 175.104C467.643 175.104 468.153 174.854 468.531 174.353C468.91 173.847 469.099 173.14 469.099 172.233C469.099 171.422 468.905 170.766 468.518 170.265C468.135 169.759 467.624 169.506 466.986 169.506C466.362 169.506 465.858 169.754 465.476 170.251C465.093 170.748 464.901 171.459 464.901 172.384ZM478.197 172.384C478.197 173.509 477.94 174.416 477.425 175.104C476.91 175.793 476.213 176.137 475.333 176.137C474.435 176.137 473.729 175.852 473.214 175.282V178.844H471.949V168.604H473.104L473.166 169.424C473.681 168.786 474.396 168.467 475.312 168.467C476.201 168.467 476.903 168.802 477.418 169.472C477.938 170.142 478.197 171.074 478.197 172.268V172.384ZM476.933 172.24C476.933 171.406 476.755 170.748 476.399 170.265C476.044 169.782 475.556 169.54 474.937 169.54C474.171 169.54 473.597 169.88 473.214 170.559V174.093C473.592 174.767 474.171 175.104 474.95 175.104C475.556 175.104 476.037 174.865 476.393 174.387C476.753 173.904 476.933 173.188 476.933 172.24ZM482.88 176.137C481.877 176.137 481.062 175.809 480.433 175.152C479.804 174.492 479.489 173.61 479.489 172.507V172.274C479.489 171.541 479.628 170.887 479.906 170.312C480.189 169.734 480.581 169.283 481.082 168.959C481.588 168.631 482.135 168.467 482.723 168.467C483.684 168.467 484.432 168.784 484.965 169.417C485.498 170.05 485.765 170.957 485.765 172.138V172.664H480.754C480.772 173.393 480.984 173.983 481.39 174.435C481.8 174.881 482.319 175.104 482.948 175.104C483.395 175.104 483.773 175.013 484.083 174.831C484.393 174.649 484.664 174.407 484.896 174.106L485.669 174.708C485.049 175.66 484.119 176.137 482.88 176.137ZM482.723 169.506C482.212 169.506 481.784 169.693 481.438 170.066C481.091 170.436 480.877 170.955 480.795 171.625H484.5V171.529C484.464 170.887 484.29 170.39 483.98 170.039C483.671 169.684 483.251 169.506 482.723 169.506ZM490.81 169.738C490.618 169.706 490.411 169.69 490.188 169.69C489.358 169.69 488.795 170.044 488.499 170.75V176H487.234V168.604H488.465L488.485 169.458C488.9 168.797 489.488 168.467 490.249 168.467C490.495 168.467 490.682 168.499 490.81 168.562V169.738Z" fill="black"/>
</svg>
