<svg width="110" height="381" viewBox="0 0 110 381" fill="none" xmlns="http://www.w3.org/2000/svg">
<circle cx="55" cy="30" r="29.5" stroke="#CACACA"/>
<circle cx="55" cy="30" r="9.5" stroke="#43BAD6"/>
<path d="M54.9999 102L54.9999 132M54.9999 132L60 127.522M54.9999 132L50 127.522" stroke="#BEBEBE" stroke-width="2" stroke-linecap="round"/>
<path d="M54.9999 249L54.9999 279M54.9999 249L60 253.412M54.9999 249L50 253.412M54.9999 279L60 274.588M54.9999 279L50 274.588" stroke="#BEBEBE" stroke-width="2" stroke-linecap="round"/>
<path d="M45.6484 79.8418C45.5254 80.8945 45.1357 81.708 44.4795 82.2822C43.8278 82.8519 42.9596 83.1367 41.875 83.1367C40.6992 83.1367 39.7559 82.7152 39.0449 81.8721C38.3385 81.029 37.9854 79.901 37.9854 78.4883V77.5312C37.9854 76.6061 38.1494 75.7926 38.4775 75.0908C38.8102 74.389 39.2796 73.8512 39.8857 73.4775C40.4919 73.0993 41.1937 72.9102 41.9912 72.9102C43.0485 72.9102 43.8962 73.2064 44.5342 73.7988C45.1722 74.3867 45.5436 75.2025 45.6484 76.2461H44.3291C44.2152 75.4531 43.9668 74.8789 43.584 74.5234C43.2057 74.168 42.6748 73.9902 41.9912 73.9902C41.1527 73.9902 40.4941 74.3001 40.0156 74.9199C39.5417 75.5397 39.3047 76.4215 39.3047 77.5654V78.5293C39.3047 79.6094 39.5303 80.4684 39.9814 81.1064C40.4326 81.7445 41.0638 82.0635 41.875 82.0635C42.6042 82.0635 43.1624 81.8994 43.5498 81.5713C43.9417 81.2386 44.2015 80.6621 44.3291 79.8418H45.6484ZM48.6221 83H47.3574V72.5H48.6221V83ZM52.0264 83H50.7617V75.6035H52.0264V83ZM50.6592 73.6416C50.6592 73.4365 50.7207 73.2633 50.8438 73.1221C50.9714 72.9808 51.1582 72.9102 51.4043 72.9102C51.6504 72.9102 51.8372 72.9808 51.9648 73.1221C52.0924 73.2633 52.1562 73.4365 52.1562 73.6416C52.1562 73.8467 52.0924 74.0176 51.9648 74.1543C51.8372 74.291 51.6504 74.3594 51.4043 74.3594C51.1582 74.3594 50.9714 74.291 50.8438 74.1543C50.7207 74.0176 50.6592 73.8467 50.6592 73.6416ZM57.126 83.1367C56.1234 83.1367 55.3076 82.8086 54.6787 82.1523C54.0498 81.4915 53.7354 80.6097 53.7354 79.5068V79.2744C53.7354 78.5407 53.8743 77.8867 54.1523 77.3125C54.4349 76.7337 54.8268 76.2826 55.3281 75.959C55.834 75.6309 56.3809 75.4668 56.9688 75.4668C57.9303 75.4668 58.6777 75.7835 59.2109 76.417C59.7441 77.0505 60.0107 77.9574 60.0107 79.1377V79.6641H55C55.0182 80.3932 55.2301 80.9834 55.6357 81.4346C56.0459 81.8812 56.5654 82.1045 57.1943 82.1045C57.641 82.1045 58.0192 82.0133 58.3291 81.8311C58.639 81.6488 58.9102 81.4072 59.1426 81.1064L59.915 81.708C59.2952 82.6605 58.3656 83.1367 57.126 83.1367ZM56.9688 76.5059C56.4583 76.5059 56.0299 76.6927 55.6836 77.0664C55.3372 77.4355 55.123 77.9551 55.041 78.625H58.7461V78.5293C58.7096 77.8867 58.5365 77.39 58.2266 77.0391C57.9167 76.6836 57.4974 76.5059 56.9688 76.5059ZM62.6768 75.6035L62.7178 76.5332C63.2829 75.8223 64.0212 75.4668 64.9326 75.4668C66.4958 75.4668 67.2842 76.3486 67.2979 78.1123V83H66.0332V78.1055C66.0286 77.5723 65.9056 77.1781 65.6641 76.9229C65.4271 76.6676 65.0557 76.54 64.5498 76.54C64.1396 76.54 63.7796 76.6494 63.4697 76.8682C63.1598 77.0869 62.9183 77.374 62.7451 77.7295V83H61.4805V75.6035H62.6768ZM70.9209 73.8125V75.6035H72.3018V76.5811H70.9209V81.168C70.9209 81.4642 70.9824 81.6875 71.1055 81.8379C71.2285 81.9837 71.4382 82.0566 71.7344 82.0566C71.8802 82.0566 72.0807 82.0293 72.3359 81.9746V83C72.0033 83.0911 71.6797 83.1367 71.3652 83.1367C70.8001 83.1367 70.374 82.9658 70.0869 82.624C69.7998 82.2822 69.6562 81.7969 69.6562 81.168V76.5811H68.3096V75.6035H69.6562V73.8125H70.9209Z" fill="black"/>
<circle cx="55.5" cy="177" r="29.5" stroke="#CACACA"/>
<circle cx="55.5" cy="177" r="10" fill="#43BAD6"/>
<path d="M30.2471 220.047L33.501 228.168L36.7549 220.047H38.457V230H37.1445V226.124L37.2676 221.94L34 230H32.9951L29.7344 221.961L29.8643 226.124V230H28.5518V220.047H30.2471ZM45.1426 230C45.0697 229.854 45.0104 229.594 44.9648 229.221C44.377 229.831 43.6751 230.137 42.8594 230.137C42.1302 230.137 41.5309 229.932 41.0615 229.521C40.5967 229.107 40.3643 228.583 40.3643 227.949C40.3643 227.179 40.6559 226.582 41.2393 226.158C41.8271 225.73 42.652 225.516 43.7139 225.516H44.9443V224.935C44.9443 224.493 44.8122 224.142 44.5479 223.882C44.2835 223.618 43.8939 223.485 43.3789 223.485C42.9277 223.485 42.5495 223.599 42.2441 223.827C41.9388 224.055 41.7861 224.331 41.7861 224.654H40.5146C40.5146 224.285 40.6445 223.93 40.9043 223.588C41.1686 223.242 41.5241 222.968 41.9707 222.768C42.4219 222.567 42.9163 222.467 43.4541 222.467C44.3063 222.467 44.974 222.681 45.457 223.109C45.9401 223.533 46.1908 224.119 46.209 224.866V228.271C46.209 228.95 46.2956 229.49 46.4688 229.891V230H45.1426ZM43.0439 229.036C43.4404 229.036 43.8164 228.934 44.1719 228.729C44.5273 228.523 44.7848 228.257 44.9443 227.929V226.411H43.9531C42.4036 226.411 41.6289 226.865 41.6289 227.771C41.6289 228.168 41.7611 228.478 42.0254 228.701C42.2897 228.924 42.6292 229.036 43.0439 229.036ZM49.3877 222.604L49.4287 223.533C49.9938 222.822 50.7321 222.467 51.6436 222.467C53.2067 222.467 53.9951 223.349 54.0088 225.112V230H52.7441V225.105C52.7396 224.572 52.6165 224.178 52.375 223.923C52.138 223.668 51.7666 223.54 51.2607 223.54C50.8506 223.54 50.4906 223.649 50.1807 223.868C49.8708 224.087 49.6292 224.374 49.4561 224.729V230H48.1914V222.604H49.3877ZM60.4824 230C60.4095 229.854 60.3503 229.594 60.3047 229.221C59.7168 229.831 59.015 230.137 58.1992 230.137C57.4701 230.137 56.8708 229.932 56.4014 229.521C55.9365 229.107 55.7041 228.583 55.7041 227.949C55.7041 227.179 55.9958 226.582 56.5791 226.158C57.167 225.73 57.9919 225.516 59.0537 225.516H60.2842V224.935C60.2842 224.493 60.152 224.142 59.8877 223.882C59.6234 223.618 59.2337 223.485 58.7188 223.485C58.2676 223.485 57.8893 223.599 57.584 223.827C57.2786 224.055 57.126 224.331 57.126 224.654H55.8545C55.8545 224.285 55.9844 223.93 56.2441 223.588C56.5085 223.242 56.8639 222.968 57.3105 222.768C57.7617 222.567 58.2562 222.467 58.7939 222.467C59.6462 222.467 60.3138 222.681 60.7969 223.109C61.2799 223.533 61.5306 224.119 61.5488 224.866V228.271C61.5488 228.95 61.6354 229.49 61.8086 229.891V230H60.4824ZM58.3838 229.036C58.7803 229.036 59.1562 228.934 59.5117 228.729C59.8672 228.523 60.1247 228.257 60.2842 227.929V226.411H59.293C57.7435 226.411 56.9688 226.865 56.9688 227.771C56.9688 228.168 57.1009 228.478 57.3652 228.701C57.6296 228.924 57.9691 229.036 58.3838 229.036ZM63.2305 226.24C63.2305 225.087 63.4971 224.171 64.0303 223.492C64.5635 222.809 65.2699 222.467 66.1494 222.467C67.0518 222.467 67.7559 222.786 68.2617 223.424L68.3232 222.604H69.4785V229.822C69.4785 230.779 69.1937 231.534 68.624 232.085C68.0589 232.636 67.2979 232.912 66.3408 232.912C65.8076 232.912 65.2858 232.798 64.7754 232.57C64.265 232.342 63.8753 232.03 63.6064 231.634L64.2627 230.875C64.805 231.545 65.4681 231.88 66.252 231.88C66.8672 231.88 67.3457 231.707 67.6875 231.36C68.0339 231.014 68.207 230.526 68.207 229.897V229.262C67.7012 229.845 67.0107 230.137 66.1357 230.137C65.2699 230.137 64.568 229.788 64.0303 229.091C63.4971 228.394 63.2305 227.443 63.2305 226.24ZM64.502 226.384C64.502 227.218 64.6729 227.874 65.0146 228.353C65.3564 228.826 65.835 229.063 66.4502 229.063C67.2477 229.063 67.8333 228.701 68.207 227.977V224.6C67.8197 223.893 67.2386 223.54 66.4639 223.54C65.8486 223.54 65.3678 223.779 65.0215 224.258C64.6751 224.736 64.502 225.445 64.502 226.384ZM74.4619 230.137C73.4593 230.137 72.6436 229.809 72.0146 229.152C71.3857 228.492 71.0713 227.61 71.0713 226.507V226.274C71.0713 225.541 71.2103 224.887 71.4883 224.312C71.7708 223.734 72.1628 223.283 72.6641 222.959C73.1699 222.631 73.7168 222.467 74.3047 222.467C75.2663 222.467 76.0137 222.784 76.5469 223.417C77.0801 224.05 77.3467 224.957 77.3467 226.138V226.664H72.3359C72.3542 227.393 72.5661 227.983 72.9717 228.435C73.3818 228.881 73.9014 229.104 74.5303 229.104C74.9769 229.104 75.3551 229.013 75.665 228.831C75.9749 228.649 76.2461 228.407 76.4785 228.106L77.251 228.708C76.6312 229.66 75.7015 230.137 74.4619 230.137ZM74.3047 223.506C73.7943 223.506 73.3659 223.693 73.0195 224.066C72.6732 224.436 72.459 224.955 72.377 225.625H76.082V225.529C76.0456 224.887 75.8724 224.39 75.5625 224.039C75.2526 223.684 74.8333 223.506 74.3047 223.506ZM82.3916 223.738C82.2002 223.706 81.9928 223.69 81.7695 223.69C80.9401 223.69 80.3773 224.044 80.0811 224.75V230H78.8164V222.604H80.0469L80.0674 223.458C80.4821 222.797 81.07 222.467 81.8311 222.467C82.0771 222.467 82.264 222.499 82.3916 222.562V223.738Z" fill="black"/>
<circle cx="55.5" cy="324" r="30" fill="#F0F0F0"/>
<circle cx="55.5" cy="324" r="10" fill="#43BAD6"/>
<path d="M1.18066 377V367.047H4.43457C5.51465 367.047 6.32585 367.27 6.86816 367.717C7.41504 368.163 7.68848 368.824 7.68848 369.699C7.68848 370.164 7.55632 370.576 7.29199 370.937C7.02767 371.292 6.66764 371.568 6.21191 371.764C6.74967 371.914 7.1735 372.201 7.4834 372.625C7.79785 373.044 7.95508 373.546 7.95508 374.129C7.95508 375.022 7.66569 375.724 7.08691 376.234C6.50814 376.745 5.6901 377 4.63281 377H1.18066ZM2.49316 372.345V375.927H4.66016C5.27083 375.927 5.75163 375.77 6.10254 375.455C6.45801 375.136 6.63574 374.699 6.63574 374.143C6.63574 372.944 5.98405 372.345 4.68066 372.345H2.49316ZM2.49316 371.292H4.47559C5.0498 371.292 5.50781 371.148 5.84961 370.861C6.19596 370.574 6.36914 370.185 6.36914 369.692C6.36914 369.146 6.20964 368.749 5.89062 368.503C5.57161 368.252 5.08626 368.127 4.43457 368.127H2.49316V371.292ZM14.2715 376.269C13.7793 376.847 13.057 377.137 12.1045 377.137C11.3161 377.137 10.7145 376.909 10.2998 376.453C9.88965 375.993 9.68229 375.314 9.67773 374.416V369.604H10.9424V374.382C10.9424 375.503 11.3981 376.063 12.3096 376.063C13.2757 376.063 13.9183 375.703 14.2373 374.983V369.604H15.502V377H14.2988L14.2715 376.269ZM21.7363 375.038C21.7363 374.696 21.6064 374.432 21.3467 374.245C21.0915 374.054 20.6426 373.89 20 373.753C19.362 373.616 18.8538 373.452 18.4756 373.261C18.1019 373.069 17.8239 372.841 17.6416 372.577C17.4639 372.313 17.375 371.998 17.375 371.634C17.375 371.028 17.6302 370.515 18.1406 370.096C18.6556 369.676 19.3118 369.467 20.1094 369.467C20.9479 369.467 21.627 369.683 22.1465 370.116C22.6706 370.549 22.9326 371.103 22.9326 371.777H21.6611C21.6611 371.431 21.513 371.132 21.2168 370.882C20.9251 370.631 20.556 370.506 20.1094 370.506C19.6491 370.506 19.2891 370.606 19.0293 370.807C18.7695 371.007 18.6396 371.269 18.6396 371.593C18.6396 371.898 18.7604 372.128 19.002 372.283C19.2435 372.438 19.6787 372.586 20.3076 372.728C20.9411 372.869 21.4538 373.037 21.8457 373.233C22.2376 373.429 22.527 373.666 22.7139 373.944C22.9053 374.218 23.001 374.553 23.001 374.949C23.001 375.61 22.7367 376.141 22.208 376.542C21.6794 376.938 20.9935 377.137 20.1504 377.137C19.5579 377.137 19.0339 377.032 18.5781 376.822C18.1224 376.613 17.7646 376.321 17.5049 375.947C17.2497 375.569 17.1221 375.161 17.1221 374.724H18.3867C18.4095 375.147 18.5781 375.485 18.8926 375.735C19.2116 375.981 19.6309 376.104 20.1504 376.104C20.6289 376.104 21.0117 376.009 21.2988 375.817C21.5905 375.621 21.7363 375.362 21.7363 375.038ZM26.0225 377H24.7578V369.604H26.0225V377ZM24.6553 367.642C24.6553 367.437 24.7168 367.263 24.8398 367.122C24.9674 366.981 25.1543 366.91 25.4004 366.91C25.6465 366.91 25.8333 366.981 25.9609 367.122C26.0885 367.263 26.1523 367.437 26.1523 367.642C26.1523 367.847 26.0885 368.018 25.9609 368.154C25.8333 368.291 25.6465 368.359 25.4004 368.359C25.1543 368.359 24.9674 368.291 24.8398 368.154C24.7168 368.018 24.6553 367.847 24.6553 367.642ZM29.249 369.604L29.29 370.533C29.8551 369.822 30.5934 369.467 31.5049 369.467C33.068 369.467 33.8564 370.349 33.8701 372.112V377H32.6055V372.105C32.6009 371.572 32.4779 371.178 32.2363 370.923C31.9993 370.668 31.6279 370.54 31.1221 370.54C30.7119 370.54 30.3519 370.649 30.042 370.868C29.7321 371.087 29.4906 371.374 29.3174 371.729V377H28.0527V369.604H29.249ZM38.8467 377.137C37.8441 377.137 37.0283 376.809 36.3994 376.152C35.7705 375.492 35.4561 374.61 35.4561 373.507V373.274C35.4561 372.541 35.5951 371.887 35.873 371.312C36.1556 370.734 36.5475 370.283 37.0488 369.959C37.5547 369.631 38.1016 369.467 38.6895 369.467C39.651 369.467 40.3984 369.784 40.9316 370.417C41.4648 371.05 41.7314 371.957 41.7314 373.138V373.664H36.7207C36.7389 374.393 36.9508 374.983 37.3564 375.435C37.7666 375.881 38.2861 376.104 38.915 376.104C39.3617 376.104 39.7399 376.013 40.0498 375.831C40.3597 375.649 40.6309 375.407 40.8633 375.106L41.6357 375.708C41.016 376.66 40.0863 377.137 38.8467 377.137ZM38.6895 370.506C38.179 370.506 37.7507 370.693 37.4043 371.066C37.0579 371.436 36.8438 371.955 36.7617 372.625H40.4668V372.529C40.4303 371.887 40.2572 371.39 39.9473 371.039C39.6374 370.684 39.2181 370.506 38.6895 370.506ZM47.5078 375.038C47.5078 374.696 47.3779 374.432 47.1182 374.245C46.863 374.054 46.4141 373.89 45.7715 373.753C45.1335 373.616 44.6253 373.452 44.2471 373.261C43.8734 373.069 43.5954 372.841 43.4131 372.577C43.2354 372.313 43.1465 371.998 43.1465 371.634C43.1465 371.028 43.4017 370.515 43.9121 370.096C44.4271 369.676 45.0833 369.467 45.8809 369.467C46.7194 369.467 47.3984 369.683 47.918 370.116C48.4421 370.549 48.7041 371.103 48.7041 371.777H47.4326C47.4326 371.431 47.2845 371.132 46.9883 370.882C46.6966 370.631 46.3275 370.506 45.8809 370.506C45.4206 370.506 45.0605 370.606 44.8008 370.807C44.541 371.007 44.4111 371.269 44.4111 371.593C44.4111 371.898 44.5319 372.128 44.7734 372.283C45.015 372.438 45.4502 372.586 46.0791 372.728C46.7126 372.869 47.2253 373.037 47.6172 373.233C48.0091 373.429 48.2985 373.666 48.4854 373.944C48.6768 374.218 48.7725 374.553 48.7725 374.949C48.7725 375.61 48.5081 376.141 47.9795 376.542C47.4508 376.938 46.765 377.137 45.9219 377.137C45.3294 377.137 44.8053 377.032 44.3496 376.822C43.8939 376.613 43.5361 376.321 43.2764 375.947C43.0212 375.569 42.8936 375.161 42.8936 374.724H44.1582C44.181 375.147 44.3496 375.485 44.6641 375.735C44.9831 375.981 45.4023 376.104 45.9219 376.104C46.4004 376.104 46.7832 376.009 47.0703 375.817C47.362 375.621 47.5078 375.362 47.5078 375.038ZM54.7266 375.038C54.7266 374.696 54.5967 374.432 54.3369 374.245C54.0817 374.054 53.6328 373.89 52.9902 373.753C52.3522 373.616 51.8441 373.452 51.4658 373.261C51.0921 373.069 50.8141 372.841 50.6318 372.577C50.4541 372.313 50.3652 371.998 50.3652 371.634C50.3652 371.028 50.6204 370.515 51.1309 370.096C51.6458 369.676 52.3021 369.467 53.0996 369.467C53.9382 369.467 54.6172 369.683 55.1367 370.116C55.6608 370.549 55.9229 371.103 55.9229 371.777H54.6514C54.6514 371.431 54.5033 371.132 54.207 370.882C53.9154 370.631 53.5462 370.506 53.0996 370.506C52.6393 370.506 52.2793 370.606 52.0195 370.807C51.7598 371.007 51.6299 371.269 51.6299 371.593C51.6299 371.898 51.7507 372.128 51.9922 372.283C52.2337 372.438 52.6689 372.586 53.2979 372.728C53.9313 372.869 54.444 373.037 54.8359 373.233C55.2279 373.429 55.5173 373.666 55.7041 373.944C55.8955 374.218 55.9912 374.553 55.9912 374.949C55.9912 375.61 55.7269 376.141 55.1982 376.542C54.6696 376.938 53.9837 377.137 53.1406 377.137C52.5482 377.137 52.0241 377.032 51.5684 376.822C51.1126 376.613 50.7549 376.321 50.4951 375.947C50.2399 375.569 50.1123 375.161 50.1123 374.724H51.377C51.3997 375.147 51.5684 375.485 51.8828 375.735C52.2018 375.981 52.6211 376.104 53.1406 376.104C53.6191 376.104 54.002 376.009 54.2891 375.817C54.5807 375.621 54.7266 375.362 54.7266 375.038ZM66.8057 374.402H62.6357L61.6992 377H60.3457L64.1465 367.047H65.2949L69.1025 377H67.7559L66.8057 374.402ZM63.0322 373.322H66.416L64.7207 368.667L63.0322 373.322ZM71.4404 369.604L71.4814 370.533C72.0465 369.822 72.7848 369.467 73.6963 369.467C75.2594 369.467 76.0479 370.349 76.0615 372.112V377H74.7969V372.105C74.7923 371.572 74.6693 371.178 74.4277 370.923C74.1908 370.668 73.8193 370.54 73.3135 370.54C72.9033 370.54 72.5433 370.649 72.2334 370.868C71.9235 371.087 71.682 371.374 71.5088 371.729V377H70.2441V369.604H71.4404ZM82.5352 377C82.4622 376.854 82.403 376.594 82.3574 376.221C81.7695 376.831 81.0677 377.137 80.252 377.137C79.5228 377.137 78.9235 376.932 78.4541 376.521C77.9893 376.107 77.7568 375.583 77.7568 374.949C77.7568 374.179 78.0485 373.582 78.6318 373.158C79.2197 372.73 80.0446 372.516 81.1064 372.516H82.3369V371.935C82.3369 371.493 82.2048 371.142 81.9404 370.882C81.6761 370.618 81.2865 370.485 80.7715 370.485C80.3203 370.485 79.9421 370.599 79.6367 370.827C79.3314 371.055 79.1787 371.331 79.1787 371.654H77.9072C77.9072 371.285 78.0371 370.93 78.2969 370.588C78.5612 370.242 78.9167 369.968 79.3633 369.768C79.8145 369.567 80.3089 369.467 80.8467 369.467C81.6989 369.467 82.3665 369.681 82.8496 370.109C83.3327 370.533 83.5833 371.119 83.6016 371.866V375.271C83.6016 375.95 83.6882 376.49 83.8613 376.891V377H82.5352ZM80.4365 376.036C80.833 376.036 81.209 375.934 81.5645 375.729C81.9199 375.523 82.1774 375.257 82.3369 374.929V373.411H81.3457C79.7962 373.411 79.0215 373.865 79.0215 374.771C79.0215 375.168 79.1536 375.478 79.418 375.701C79.6823 375.924 80.0218 376.036 80.4365 376.036ZM86.958 377H85.6934V366.5H86.958V377ZM91.4082 375.147L93.1309 369.604H94.4844L91.5107 378.142C91.0505 379.372 90.319 379.987 89.3164 379.987L89.0771 379.967L88.6055 379.878V378.853L88.9473 378.88C89.3757 378.88 89.7083 378.793 89.9453 378.62C90.1868 378.447 90.3851 378.13 90.54 377.67L90.8203 376.918L88.1816 369.604H89.5625L91.4082 375.147ZM97.335 367.812V369.604H98.7158V370.581H97.335V375.168C97.335 375.464 97.3965 375.688 97.5195 375.838C97.6426 375.984 97.8522 376.057 98.1484 376.057C98.2943 376.057 98.4948 376.029 98.75 375.975V377C98.4173 377.091 98.0938 377.137 97.7793 377.137C97.2142 377.137 96.7881 376.966 96.501 376.624C96.2139 376.282 96.0703 375.797 96.0703 375.168V370.581H94.7236V369.604H96.0703V367.812H97.335ZM101.573 377H100.309V369.604H101.573V377ZM100.206 367.642C100.206 367.437 100.268 367.263 100.391 367.122C100.518 366.981 100.705 366.91 100.951 366.91C101.197 366.91 101.384 366.981 101.512 367.122C101.639 367.263 101.703 367.437 101.703 367.642C101.703 367.847 101.639 368.018 101.512 368.154C101.384 368.291 101.197 368.359 100.951 368.359C100.705 368.359 100.518 368.291 100.391 368.154C100.268 368.018 100.206 367.847 100.206 367.642ZM106.57 376.104C107.021 376.104 107.416 375.968 107.753 375.694C108.09 375.421 108.277 375.079 108.313 374.669H109.51C109.487 375.093 109.341 375.496 109.072 375.879C108.803 376.262 108.443 376.567 107.992 376.795C107.546 377.023 107.072 377.137 106.57 377.137C105.563 377.137 104.761 376.802 104.164 376.132C103.572 375.457 103.275 374.537 103.275 373.37V373.158C103.275 372.438 103.408 371.798 103.672 371.237C103.936 370.677 104.314 370.242 104.807 369.932C105.303 369.622 105.889 369.467 106.563 369.467C107.393 369.467 108.081 369.715 108.628 370.212C109.179 370.709 109.473 371.354 109.51 372.146H108.313C108.277 371.668 108.095 371.276 107.767 370.971C107.443 370.661 107.042 370.506 106.563 370.506C105.921 370.506 105.422 370.738 105.066 371.203C104.715 371.663 104.54 372.331 104.54 373.206V373.445C104.54 374.298 104.715 374.954 105.066 375.414C105.417 375.874 105.919 376.104 106.57 376.104Z" fill="black"/>
</svg>
