<svg width="442" height="139" viewBox="0 0 442 139" fill="none" xmlns="http://www.w3.org/2000/svg">
<circle cx="412" cy="82" r="29.5" stroke="#CACACA"/>
<circle cx="412" cy="82" r="9.5" stroke="#43BAD6"/>
<path d="M133.5 82.0001H167.5M167.5 82.0001L162.5 77M167.5 82.0001L162.5 87" stroke="#BEBEBE" stroke-width="2" stroke-linecap="round"/>
<path d="M207 44C207 44 191.381 24 150.5 24C107.866 24 95 42 95 42" stroke="#BEBEBE" stroke-width="2" stroke-linecap="round" stroke-dasharray="0.5 4"/>
<path d="M391.739 130.529H390.529V135H389.217V125.047H390.529V129.436H391.555L395.034 125.047H396.668L392.867 129.873L396.948 135H395.342L391.739 130.529ZM404.017 127.604V135H402.745V128.649H400.229L400.079 131.418C399.997 132.689 399.783 133.599 399.437 134.146C399.095 134.692 398.55 134.977 397.803 135H397.297V133.886L397.659 133.858C398.069 133.813 398.363 133.576 398.541 133.147C398.719 132.719 398.833 131.926 398.883 130.769L399.02 127.604H404.017ZM410.832 127.604H412.097V135H410.832V129.606L407.421 135H406.156V127.604H407.421V133.004L410.832 127.604ZM417.196 135.137C416.194 135.137 415.378 134.809 414.749 134.152C414.12 133.492 413.806 132.61 413.806 131.507V131.274C413.806 130.541 413.945 129.887 414.223 129.312C414.505 128.734 414.897 128.283 415.398 127.959C415.904 127.631 416.451 127.467 417.039 127.467C418.001 127.467 418.748 127.784 419.281 128.417C419.814 129.05 420.081 129.957 420.081 131.138V131.664H415.07C415.089 132.393 415.3 132.983 415.706 133.435C416.116 133.881 416.636 134.104 417.265 134.104C417.711 134.104 418.09 134.013 418.399 133.831C418.709 133.649 418.98 133.407 419.213 133.106L419.985 133.708C419.366 134.66 418.436 135.137 417.196 135.137ZM417.039 128.506C416.529 128.506 416.1 128.693 415.754 129.066C415.408 129.436 415.193 129.955 415.111 130.625H418.816V130.529C418.78 129.887 418.607 129.39 418.297 129.039C417.987 128.684 417.568 128.506 417.039 128.506ZM427.594 135H426.329V131.842H422.932V135H421.66V127.604H422.932V130.81H426.329V127.604H427.594V135ZM435.127 128.629H432.646V135H431.381V128.629H428.947V127.604H435.127V128.629Z" fill="black"/>
<circle cx="63.5" cy="82" r="29.5" stroke="#CACACA"/>
<circle cx="63.5" cy="82" r="10" fill="#43BAD6"/>
<path d="M31.1172 125.047L34.3711 133.168L37.625 125.047H39.3271V135H38.0146V131.124L38.1377 126.94L34.8701 135H33.8652L30.6045 126.961L30.7344 131.124V135H29.4219V125.047H31.1172ZM44.5156 135.137C43.513 135.137 42.6973 134.809 42.0684 134.152C41.4395 133.492 41.125 132.61 41.125 131.507V131.274C41.125 130.541 41.264 129.887 41.542 129.312C41.8245 128.734 42.2165 128.283 42.7178 127.959C43.2236 127.631 43.7705 127.467 44.3584 127.467C45.32 127.467 46.0674 127.784 46.6006 128.417C47.1338 129.05 47.4004 129.957 47.4004 131.138V131.664H42.3896C42.4079 132.393 42.6198 132.983 43.0254 133.435C43.4355 133.881 43.9551 134.104 44.584 134.104C45.0306 134.104 45.4089 134.013 45.7188 133.831C46.0286 133.649 46.2998 133.407 46.5322 133.106L47.3047 133.708C46.6849 134.66 45.7552 135.137 44.5156 135.137ZM44.3584 128.506C43.848 128.506 43.4196 128.693 43.0732 129.066C42.7269 129.436 42.5127 129.955 42.4307 130.625H46.1357V130.529C46.0993 129.887 45.9261 129.39 45.6162 129.039C45.3063 128.684 44.887 128.506 44.3584 128.506ZM54.9131 135H53.6484V131.842H50.251V135H48.9795V127.604H50.251V130.81H53.6484V127.604H54.9131V135ZM60.0195 135.137C59.0169 135.137 58.2012 134.809 57.5723 134.152C56.9434 133.492 56.6289 132.61 56.6289 131.507V131.274C56.6289 130.541 56.7679 129.887 57.0459 129.312C57.3285 128.734 57.7204 128.283 58.2217 127.959C58.7275 127.631 59.2744 127.467 59.8623 127.467C60.8239 127.467 61.5713 127.784 62.1045 128.417C62.6377 129.05 62.9043 129.957 62.9043 131.138V131.664H57.8936C57.9118 132.393 58.1237 132.983 58.5293 133.435C58.9395 133.881 59.459 134.104 60.0879 134.104C60.5345 134.104 60.9128 134.013 61.2227 133.831C61.5326 133.649 61.8037 133.407 62.0361 133.106L62.8086 133.708C62.1888 134.66 61.2591 135.137 60.0195 135.137ZM59.8623 128.506C59.3519 128.506 58.9235 128.693 58.5771 129.066C58.2308 129.436 58.0166 129.955 57.9346 130.625H61.6396V130.529C61.6032 129.887 61.43 129.39 61.1201 129.039C60.8102 128.684 60.391 128.506 59.8623 128.506ZM64.3125 133.968L64.75 133.428C65.2422 132.79 65.5225 131.833 65.5908 130.557L65.707 127.604H70.4717V133.968H71.4219V137.174H70.1572V135H64.9961V137.174H63.7314L63.7383 133.968H64.3125ZM65.8096 133.968H69.207V128.772H66.9307L66.8555 130.536C66.778 132.008 66.4294 133.152 65.8096 133.968ZM78.7227 131.787H77.834V135H76.5693V131.787H75.6807L73.6094 135H72.0098L74.6553 131.172L72.2627 127.604H73.7939L75.7012 130.666H76.5693V127.604H77.834V130.666H78.6953L80.6162 127.604H82.1475L79.748 131.179L82.3936 135H80.7939L78.7227 131.787ZM86.4746 135.137C85.472 135.137 84.6562 134.809 84.0273 134.152C83.3984 133.492 83.084 132.61 83.084 131.507V131.274C83.084 130.541 83.223 129.887 83.501 129.312C83.7835 128.734 84.1755 128.283 84.6768 127.959C85.1826 127.631 85.7295 127.467 86.3174 127.467C87.279 127.467 88.0264 127.784 88.5596 128.417C89.0928 129.05 89.3594 129.957 89.3594 131.138V131.664H84.3486C84.3669 132.393 84.5788 132.983 84.9844 133.435C85.3945 133.881 85.9141 134.104 86.543 134.104C86.9896 134.104 87.3678 134.013 87.6777 133.831C87.9876 133.649 88.2588 133.407 88.4912 133.106L89.2637 133.708C88.6439 134.66 87.7142 135.137 86.4746 135.137ZM86.3174 128.506C85.807 128.506 85.3786 128.693 85.0322 129.066C84.6859 129.436 84.4717 129.955 84.3896 130.625H88.0947V130.529C88.0583 129.887 87.8851 129.39 87.5752 129.039C87.2653 128.684 86.846 128.506 86.3174 128.506ZM97.0771 131.384C97.0771 132.509 96.8197 133.416 96.3047 134.104C95.7897 134.793 95.0924 135.137 94.2129 135.137C93.3151 135.137 92.6087 134.852 92.0938 134.282V137.844H90.8291V127.604H91.9844L92.0459 128.424C92.5609 127.786 93.2764 127.467 94.1924 127.467C95.0811 127.467 95.7829 127.802 96.2979 128.472C96.8174 129.142 97.0771 130.074 97.0771 131.268V131.384ZM95.8125 131.24C95.8125 130.406 95.6348 129.748 95.2793 129.265C94.9238 128.782 94.4362 128.54 93.8164 128.54C93.0508 128.54 92.4766 128.88 92.0938 129.559V133.093C92.472 133.767 93.0508 134.104 93.8301 134.104C94.4362 134.104 94.917 133.865 95.2725 133.387C95.6325 132.904 95.8125 132.188 95.8125 131.24Z" fill="black"/>
<path d="M95 42C95 42 134.67 1 238.5 1C346.783 1 382 42 382 42" stroke="#BEBEBE" stroke-width="2" stroke-linecap="round" stroke-dasharray="0.5 4"/>
<path d="M95 36V42H101.5" stroke="#BEBEBE" stroke-width="2" stroke-linecap="round"/>
<path d="M382 35.5V42H375.5" stroke="#BEBEBE" stroke-width="2" stroke-linecap="round"/>
<circle opacity="0.2" cx="238" cy="82" r="30" fill="#43BAD6"/>
<circle cx="238" cy="82" r="10" fill="#BEBEBE"/>
<path d="M206.376 130.345C206.376 131.306 206.223 132.136 205.918 132.833C205.613 133.526 205.184 134.068 204.633 134.46L206.41 135.854L205.515 136.682L203.416 135.014C203.088 135.096 202.742 135.137 202.377 135.137C201.593 135.137 200.898 134.945 200.292 134.562C199.686 134.175 199.214 133.626 198.877 132.915C198.544 132.2 198.373 131.372 198.364 130.434V129.716C198.364 128.759 198.531 127.913 198.863 127.18C199.196 126.446 199.665 125.885 200.271 125.498C200.882 125.106 201.579 124.91 202.363 124.91C203.165 124.91 203.869 125.104 204.476 125.491C205.086 125.879 205.556 126.437 205.884 127.166C206.212 127.891 206.376 128.738 206.376 129.709V130.345ZM205.063 129.702C205.063 128.531 204.829 127.629 204.359 126.995C203.895 126.357 203.229 126.038 202.363 126.038C201.538 126.038 200.887 126.355 200.408 126.988C199.934 127.617 199.69 128.492 199.677 129.613V130.345C199.677 131.484 199.914 132.382 200.388 133.038C200.866 133.694 201.529 134.022 202.377 134.022C203.225 134.022 203.881 133.715 204.346 133.1C204.811 132.48 205.05 131.593 205.063 130.44V129.702ZM213.896 132.402H209.726L208.789 135H207.436L211.236 125.047H212.385L216.192 135H214.846L213.896 132.402ZM210.122 131.322H213.506L211.811 126.667L210.122 131.322ZM225.592 127.604H226.856V135H225.592V129.606L222.181 135H220.916V127.604H222.181V133.004L225.592 127.604ZM234.93 135H233.665V131.842H230.268V135H228.996V127.604H230.268V130.81H233.665V127.604H234.93V135ZM242.866 131.787H241.978V135H240.713V131.787H239.824L237.753 135H236.153L238.799 131.172L236.406 127.604H237.938L239.845 130.666H240.713V127.604H241.978V130.666H242.839L244.76 127.604H246.291L243.892 131.179L246.537 135H244.938L242.866 131.787ZM250.618 135.137C249.616 135.137 248.8 134.809 248.171 134.152C247.542 133.492 247.228 132.61 247.228 131.507V131.274C247.228 130.541 247.367 129.887 247.645 129.312C247.927 128.734 248.319 128.283 248.82 127.959C249.326 127.631 249.873 127.467 250.461 127.467C251.423 127.467 252.17 127.784 252.703 128.417C253.236 129.05 253.503 129.957 253.503 131.138V131.664H248.492C248.51 132.393 248.722 132.983 249.128 133.435C249.538 133.881 250.058 134.104 250.687 134.104C251.133 134.104 251.511 134.013 251.821 133.831C252.131 133.649 252.402 133.407 252.635 133.106L253.407 133.708C252.787 134.66 251.858 135.137 250.618 135.137ZM250.461 128.506C249.951 128.506 249.522 128.693 249.176 129.066C248.829 129.436 248.615 129.955 248.533 130.625H252.238V130.529C252.202 129.887 252.029 129.39 251.719 129.039C251.409 128.684 250.99 128.506 250.461 128.506ZM261.016 135H259.751V131.842H256.354V135H255.082V127.604H256.354V130.81H259.751V127.604H261.016V135ZM266.122 135.137C265.119 135.137 264.304 134.809 263.675 134.152C263.046 133.492 262.731 132.61 262.731 131.507V131.274C262.731 130.541 262.87 129.887 263.148 129.312C263.431 128.734 263.823 128.283 264.324 127.959C264.83 127.631 265.377 127.467 265.965 127.467C266.926 127.467 267.674 127.784 268.207 128.417C268.74 129.05 269.007 129.957 269.007 131.138V131.664H263.996C264.014 132.393 264.226 132.983 264.632 133.435C265.042 133.881 265.562 134.104 266.19 134.104C266.637 134.104 267.015 134.013 267.325 133.831C267.635 133.649 267.906 133.407 268.139 133.106L268.911 133.708C268.291 134.66 267.362 135.137 266.122 135.137ZM265.965 128.506C265.454 128.506 265.026 128.693 264.68 129.066C264.333 129.436 264.119 129.955 264.037 130.625H267.742V130.529C267.706 129.887 267.533 129.39 267.223 129.039C266.913 128.684 266.493 128.506 265.965 128.506ZM276.725 131.384C276.725 132.509 276.467 133.416 275.952 134.104C275.437 134.793 274.74 135.137 273.86 135.137C272.963 135.137 272.256 134.852 271.741 134.282V137.844H270.477V127.604H271.632L271.693 128.424C272.208 127.786 272.924 127.467 273.84 127.467C274.729 127.467 275.43 127.802 275.945 128.472C276.465 129.142 276.725 130.074 276.725 131.268V131.384ZM275.46 131.24C275.46 130.406 275.282 129.748 274.927 129.265C274.571 128.782 274.084 128.54 273.464 128.54C272.698 128.54 272.124 128.88 271.741 129.559V133.093C272.119 133.767 272.698 134.104 273.478 134.104C274.084 134.104 274.564 133.865 274.92 133.387C275.28 132.904 275.46 132.188 275.46 131.24Z" fill="black"/>
</svg>
