<svg width="194" height="528" viewBox="0 0 194 528" fill="none" xmlns="http://www.w3.org/2000/svg">
<circle cx="63" cy="471" r="29.5" stroke="#CACACA"/>
<circle cx="63" cy="471" r="9.5" stroke="#43BAD6"/>
<path d="M42.7393 519.529H41.5293V524H40.2168V514.047H41.5293V518.436H42.5547L46.0342 514.047H47.668L43.8672 518.873L47.9482 524H46.3418L42.7393 519.529ZM55.0166 516.604V524H53.7451V517.649H51.2295L51.0791 520.418C50.9971 521.689 50.7829 522.599 50.4365 523.146C50.0947 523.692 49.5501 523.977 48.8027 524H48.2969V522.886L48.6592 522.858C49.0693 522.813 49.3633 522.576 49.541 522.147C49.7188 521.719 49.8327 520.926 49.8828 519.769L50.0195 516.604H55.0166ZM61.832 516.604H63.0967V524H61.832V518.606L58.4209 524H57.1562V516.604H58.4209V522.004L61.832 516.604ZM68.1963 524.137C67.1937 524.137 66.3779 523.809 65.749 523.152C65.1201 522.492 64.8057 521.61 64.8057 520.507V520.274C64.8057 519.541 64.9447 518.887 65.2227 518.312C65.5052 517.734 65.8971 517.283 66.3984 516.959C66.9043 516.631 67.4512 516.467 68.0391 516.467C69.0007 516.467 69.748 516.784 70.2812 517.417C70.8145 518.05 71.0811 518.957 71.0811 520.138V520.664H66.0703C66.0885 521.393 66.3005 521.983 66.7061 522.435C67.1162 522.881 67.6357 523.104 68.2646 523.104C68.7113 523.104 69.0895 523.013 69.3994 522.831C69.7093 522.649 69.9805 522.407 70.2129 522.106L70.9854 522.708C70.3656 523.66 69.4359 524.137 68.1963 524.137ZM68.0391 517.506C67.5286 517.506 67.1003 517.693 66.7539 518.066C66.4076 518.436 66.1934 518.955 66.1113 519.625H69.8164V519.529C69.7799 518.887 69.6068 518.39 69.2969 518.039C68.987 517.684 68.5677 517.506 68.0391 517.506ZM78.5938 524H77.3291V520.842H73.9316V524H72.6602V516.604H73.9316V519.81H77.3291V516.604H78.5938V524ZM86.127 517.629H83.6455V524H82.3809V517.629H79.9473V516.604H86.127V517.629Z" fill="black"/>
<circle cx="63.5" cy="30" r="29.5" stroke="#CACACA"/>
<circle cx="63.5" cy="30" r="10" fill="#43BAD6"/>
<path d="M3.30957 73.0469L6.56348 81.168L9.81738 73.0469H11.5195V83H10.207V79.124L10.3301 74.9404L7.0625 83H6.05762L2.79688 74.9609L2.92676 79.124V83H1.61426V73.0469H3.30957ZM16.708 83.1367C15.7054 83.1367 14.8896 82.8086 14.2607 82.1523C13.6318 81.4915 13.3174 80.6097 13.3174 79.5068V79.2744C13.3174 78.5407 13.4564 77.8867 13.7344 77.3125C14.0169 76.7337 14.4089 76.2826 14.9102 75.959C15.416 75.6309 15.9629 75.4668 16.5508 75.4668C17.5124 75.4668 18.2598 75.7835 18.793 76.417C19.3262 77.0505 19.5928 77.9574 19.5928 79.1377V79.6641H14.582C14.6003 80.3932 14.8122 80.9834 15.2178 81.4346C15.6279 81.8812 16.1475 82.1045 16.7764 82.1045C17.223 82.1045 17.6012 82.0133 17.9111 81.8311C18.221 81.6488 18.4922 81.4072 18.7246 81.1064L19.4971 81.708C18.8773 82.6605 17.9476 83.1367 16.708 83.1367ZM16.5508 76.5059C16.0404 76.5059 15.612 76.6927 15.2656 77.0664C14.9193 77.4355 14.7051 77.9551 14.623 78.625H18.3281V78.5293C18.2917 77.8867 18.1185 77.39 17.8086 77.0391C17.4987 76.6836 17.0794 76.5059 16.5508 76.5059ZM27.1055 83H25.8408V79.8418H22.4434V83H21.1719V75.6035H22.4434V78.8096H25.8408V75.6035H27.1055V83ZM32.2119 83.1367C31.2093 83.1367 30.3936 82.8086 29.7646 82.1523C29.1357 81.4915 28.8213 80.6097 28.8213 79.5068V79.2744C28.8213 78.5407 28.9603 77.8867 29.2383 77.3125C29.5208 76.7337 29.9128 76.2826 30.4141 75.959C30.9199 75.6309 31.4668 75.4668 32.0547 75.4668C33.0163 75.4668 33.7637 75.7835 34.2969 76.417C34.8301 77.0505 35.0967 77.9574 35.0967 79.1377V79.6641H30.0859C30.1042 80.3932 30.3161 80.9834 30.7217 81.4346C31.1318 81.8812 31.6514 82.1045 32.2803 82.1045C32.7269 82.1045 33.1051 82.0133 33.415 81.8311C33.7249 81.6488 33.9961 81.4072 34.2285 81.1064L35.001 81.708C34.3812 82.6605 33.4515 83.1367 32.2119 83.1367ZM32.0547 76.5059C31.5443 76.5059 31.1159 76.6927 30.7695 77.0664C30.4232 77.4355 30.209 77.9551 30.127 78.625H33.832V78.5293C33.7956 77.8867 33.6224 77.39 33.3125 77.0391C33.0026 76.6836 32.5833 76.5059 32.0547 76.5059ZM36.5049 81.9678L36.9424 81.4277C37.4346 80.7897 37.7148 79.8327 37.7832 78.5566L37.8994 75.6035H42.6641V81.9678H43.6143V85.1738H42.3496V83H37.1885V85.1738H35.9238L35.9307 81.9678H36.5049ZM38.002 81.9678H41.3994V76.7725H39.123L39.0479 78.5361C38.9704 80.0081 38.6217 81.152 38.002 81.9678ZM50.915 79.7871H50.0264V83H48.7617V79.7871H47.873L45.8018 83H44.2021L46.8477 79.1719L44.4551 75.6035H45.9863L47.8936 78.666H48.7617V75.6035H50.0264V78.666H50.8877L52.8086 75.6035H54.3398L51.9404 79.1787L54.5859 83H52.9863L50.915 79.7871ZM58.667 83.1367C57.6644 83.1367 56.8486 82.8086 56.2197 82.1523C55.5908 81.4915 55.2764 80.6097 55.2764 79.5068V79.2744C55.2764 78.5407 55.4154 77.8867 55.6934 77.3125C55.9759 76.7337 56.3678 76.2826 56.8691 75.959C57.375 75.6309 57.9219 75.4668 58.5098 75.4668C59.4714 75.4668 60.2188 75.7835 60.752 76.417C61.2852 77.0505 61.5518 77.9574 61.5518 79.1377V79.6641H56.541C56.5592 80.3932 56.7712 80.9834 57.1768 81.4346C57.5869 81.8812 58.1064 82.1045 58.7354 82.1045C59.182 82.1045 59.5602 82.0133 59.8701 81.8311C60.18 81.6488 60.4512 81.4072 60.6836 81.1064L61.4561 81.708C60.8363 82.6605 59.9066 83.1367 58.667 83.1367ZM58.5098 76.5059C57.9993 76.5059 57.571 76.6927 57.2246 77.0664C56.8783 77.4355 56.6641 77.9551 56.582 78.625H60.2871V78.5293C60.2507 77.8867 60.0775 77.39 59.7676 77.0391C59.4577 76.6836 59.0384 76.5059 58.5098 76.5059ZM69.2695 79.3838C69.2695 80.5094 69.012 81.4163 68.4971 82.1045C67.9821 82.7926 67.2848 83.1367 66.4053 83.1367C65.5075 83.1367 64.8011 82.8519 64.2861 82.2822V85.8438H63.0215V75.6035H64.1768L64.2383 76.4238C64.7533 75.7858 65.4688 75.4668 66.3848 75.4668C67.2734 75.4668 67.9753 75.8018 68.4902 76.4717C69.0098 77.1416 69.2695 78.0736 69.2695 79.2676V79.3838ZM68.0049 79.2402C68.0049 78.4062 67.8271 77.7477 67.4717 77.2646C67.1162 76.7816 66.6286 76.54 66.0088 76.54C65.2432 76.54 64.6689 76.8796 64.2861 77.5586V81.0928C64.6644 81.7673 65.2432 82.1045 66.0225 82.1045C66.6286 82.1045 67.1094 81.8652 67.4648 81.3867C67.8249 80.9036 68.0049 80.1882 68.0049 79.2402ZM80.4053 83H79.1406V76.6494H75.7363V83H74.4648V75.6035H80.4053V83ZM88.6836 79.3838C88.6836 80.5094 88.4261 81.4163 87.9111 82.1045C87.3962 82.7926 86.6989 83.1367 85.8193 83.1367C84.9215 83.1367 84.2152 82.8519 83.7002 82.2822V85.8438H82.4355V75.6035H83.5908L83.6523 76.4238C84.1673 75.7858 84.8828 75.4668 85.7988 75.4668C86.6875 75.4668 87.3893 75.8018 87.9043 76.4717C88.4238 77.1416 88.6836 78.0736 88.6836 79.2676V79.3838ZM87.4189 79.2402C87.4189 78.4062 87.2412 77.7477 86.8857 77.2646C86.5303 76.7816 86.0426 76.54 85.4229 76.54C84.6572 76.54 84.083 76.8796 83.7002 77.5586V81.0928C84.0785 81.7673 84.6572 82.1045 85.4365 82.1045C86.0426 82.1045 86.5234 81.8652 86.8789 81.3867C87.2389 80.9036 87.4189 80.1882 87.4189 79.2402ZM89.9619 79.2334C89.9619 78.5088 90.1032 77.8571 90.3857 77.2783C90.6729 76.6995 91.0693 76.2529 91.5752 75.9385C92.0856 75.624 92.6667 75.4668 93.3184 75.4668C94.3255 75.4668 95.139 75.8154 95.7588 76.5127C96.3831 77.21 96.6953 78.1374 96.6953 79.2949V79.3838C96.6953 80.1038 96.5563 80.751 96.2783 81.3252C96.0049 81.8949 95.6107 82.3392 95.0957 82.6582C94.5853 82.9772 93.9974 83.1367 93.332 83.1367C92.3294 83.1367 91.516 82.7881 90.8916 82.0908C90.2718 81.3936 89.9619 80.4707 89.9619 79.3223V79.2334ZM91.2334 79.3838C91.2334 80.2041 91.4225 80.8626 91.8008 81.3594C92.1836 81.8561 92.694 82.1045 93.332 82.1045C93.9746 82.1045 94.485 81.8538 94.8633 81.3525C95.2415 80.8467 95.4307 80.1403 95.4307 79.2334C95.4307 78.4222 95.237 77.766 94.8496 77.2646C94.4668 76.7588 93.9564 76.5059 93.3184 76.5059C92.694 76.5059 92.1904 76.7542 91.8076 77.251C91.4248 77.7477 91.2334 78.4587 91.2334 79.3838ZM101.351 83.1367C100.348 83.1367 99.5322 82.8086 98.9033 82.1523C98.2744 81.4915 97.96 80.6097 97.96 79.5068V79.2744C97.96 78.5407 98.099 77.8867 98.377 77.3125C98.6595 76.7337 99.0514 76.2826 99.5527 75.959C100.059 75.6309 100.605 75.4668 101.193 75.4668C102.155 75.4668 102.902 75.7835 103.436 76.417C103.969 77.0505 104.235 77.9574 104.235 79.1377V79.6641H99.2246C99.2428 80.3932 99.4548 80.9834 99.8604 81.4346C100.271 81.8812 100.79 82.1045 101.419 82.1045C101.866 82.1045 102.244 82.0133 102.554 81.8311C102.864 81.6488 103.135 81.4072 103.367 81.1064L104.14 81.708C103.52 82.6605 102.59 83.1367 101.351 83.1367ZM101.193 76.5059C100.683 76.5059 100.255 76.6927 99.9082 77.0664C99.5618 77.4355 99.3477 77.9551 99.2656 78.625H102.971V78.5293C102.934 77.8867 102.761 77.39 102.451 77.0391C102.141 76.6836 101.722 76.5059 101.193 76.5059ZM108.009 79.8486H107.086V83H105.814V75.6035H107.086V78.7344H107.913L110.401 75.6035H111.933L109.007 79.1582L112.179 83H110.572L108.009 79.8486ZM118.762 76.6289H116.28V83H115.016V76.6289H112.582V75.6035H118.762V76.6289ZM124.449 83C124.376 82.8542 124.317 82.5944 124.271 82.2207C123.684 82.8314 122.982 83.1367 122.166 83.1367C121.437 83.1367 120.838 82.9316 120.368 82.5215C119.903 82.1068 119.671 81.5827 119.671 80.9492C119.671 80.179 119.963 79.582 120.546 79.1582C121.134 78.7298 121.959 78.5156 123.021 78.5156H124.251V77.9346C124.251 77.4925 124.119 77.1416 123.854 76.8818C123.59 76.6175 123.201 76.4854 122.686 76.4854C122.234 76.4854 121.856 76.5993 121.551 76.8271C121.245 77.055 121.093 77.3307 121.093 77.6543H119.821C119.821 77.2852 119.951 76.9297 120.211 76.5879C120.475 76.2415 120.831 75.9681 121.277 75.7676C121.729 75.5671 122.223 75.4668 122.761 75.4668C123.613 75.4668 124.281 75.681 124.764 76.1094C125.247 76.5332 125.497 77.1188 125.516 77.8662V81.2705C125.516 81.9495 125.602 82.4896 125.775 82.8906V83H124.449ZM122.351 82.0361C122.747 82.0361 123.123 81.9336 123.479 81.7285C123.834 81.5234 124.091 81.2568 124.251 80.9287V79.4111H123.26C121.71 79.4111 120.936 79.8646 120.936 80.7715C120.936 81.168 121.068 81.4779 121.332 81.7012C121.596 81.9245 121.936 82.0361 122.351 82.0361Z" fill="black"/>
<path d="M116.5 314C116.5 314 136.5 298.381 136.5 257.5C136.5 214.866 116.5 201 116.5 201" stroke="#BEBEBE" stroke-width="2" stroke-linecap="round" stroke-dasharray="0.5 4"/>
<path d="M116 207L116 201L122.5 201" stroke="#BEBEBE" stroke-width="2" stroke-linecap="round"/>
<path d="M116 142C116 142 136 126.381 136 85.5C136 42.866 116 29 116 29" stroke="#BEBEBE" stroke-width="2" stroke-linecap="round" stroke-dasharray="0.5 4"/>
<path d="M115.5 29C115.5 29 192.5 92.7208 192.5 259.5C192.5 433.432 115.5 490 115.5 490" stroke="#BEBEBE" stroke-width="2" stroke-linecap="round" stroke-dasharray="0.5 4"/>
<path d="M121.5 490.5L115.5 490.5L115.5 484" stroke="#BEBEBE" stroke-width="2" stroke-linecap="round"/>
<path d="M115 35L115 29L121.5 29" stroke="#BEBEBE" stroke-width="2" stroke-linecap="round"/>
<path d="M62.9999 247L62.9999 281M62.9999 281L68 276M62.9999 281L58 276" stroke="#BEBEBE" stroke-width="2" stroke-linecap="round"/>
<circle cx="63.5" cy="177" r="30" fill="#F0F0F0"/>
<circle cx="63.5" cy="177" r="10" fill="#43BAD6"/>
<path d="M25.6084 220.047V226.814C25.6038 227.753 25.3076 228.521 24.7197 229.118C24.1364 229.715 23.3434 230.05 22.3408 230.123L21.9922 230.137C20.903 230.137 20.0348 229.843 19.3877 229.255C18.7406 228.667 18.4124 227.858 18.4033 226.828V220.047H19.7021V226.787C19.7021 227.507 19.9004 228.068 20.2969 228.469C20.6934 228.865 21.2585 229.063 21.9922 229.063C22.735 229.063 23.3024 228.865 23.6943 228.469C24.0908 228.072 24.2891 227.514 24.2891 226.794V220.047H25.6084ZM30.9268 223.861L33.3125 220.047H34.8574L31.7129 224.982L34.9326 230H33.374L30.9268 226.117L28.4658 230H26.9141L30.1406 224.982L26.9893 220.047H28.5273L30.9268 223.861ZM39.6699 228.968L40.1074 228.428C40.5996 227.79 40.8799 226.833 40.9482 225.557L41.0645 222.604H45.8291V228.968H46.7793V232.174H45.5146V230H40.3535V232.174H39.0889L39.0957 228.968H39.6699ZM41.167 228.968H44.5645V223.772H42.2881L42.2129 225.536C42.1354 227.008 41.7868 228.152 41.167 228.968ZM52.9658 222.604H54.2305V230H52.9658V224.606L49.5547 230H48.29V222.604H49.5547V228.004L52.9658 222.604ZM60.3281 224.627C60.3281 224.281 60.196 224.007 59.9316 223.807C59.6673 223.602 59.305 223.499 58.8447 223.499C58.3981 223.499 58.0244 223.615 57.7236 223.848C57.4274 224.08 57.2793 224.354 57.2793 224.668H56.0215C56.0215 224.025 56.2904 223.499 56.8281 223.089C57.3659 222.679 58.0381 222.474 58.8447 222.474C59.7106 222.474 60.3851 222.66 60.8682 223.034C61.3512 223.403 61.5928 223.932 61.5928 224.62C61.5928 224.953 61.4925 225.258 61.292 225.536C61.0915 225.814 60.8066 226.035 60.4375 226.199C61.2988 226.491 61.7295 227.065 61.7295 227.922C61.7295 228.601 61.4674 229.139 60.9434 229.535C60.4193 229.932 59.7197 230.13 58.8447 230.13C57.9925 230.13 57.2884 229.923 56.7324 229.508C56.181 229.089 55.9053 228.523 55.9053 227.812H57.1631C57.1631 228.173 57.3226 228.482 57.6416 228.742C57.9652 228.997 58.3662 229.125 58.8447 229.125C59.3278 229.125 59.7174 229.013 60.0137 228.79C60.3099 228.567 60.458 228.277 60.458 227.922C60.458 227.507 60.3327 227.211 60.082 227.033C59.8359 226.851 59.4508 226.76 58.9268 226.76H57.6621V225.693H59.0361C59.8975 225.671 60.3281 225.315 60.3281 224.627ZM69.4131 230H68.1484V226.842H64.751V230H63.4795V222.604H64.751V225.81H68.1484V222.604H69.4131V230ZM76.0166 230C75.9437 229.854 75.8844 229.594 75.8389 229.221C75.251 229.831 74.5492 230.137 73.7334 230.137C73.0042 230.137 72.4049 229.932 71.9355 229.521C71.4707 229.107 71.2383 228.583 71.2383 227.949C71.2383 227.179 71.5299 226.582 72.1133 226.158C72.7012 225.73 73.526 225.516 74.5879 225.516H75.8184V224.935C75.8184 224.493 75.6862 224.142 75.4219 223.882C75.1576 223.618 74.7679 223.485 74.2529 223.485C73.8018 223.485 73.4235 223.599 73.1182 223.827C72.8128 224.055 72.6602 224.331 72.6602 224.654H71.3887C71.3887 224.285 71.5186 223.93 71.7783 223.588C72.0426 223.242 72.3981 222.968 72.8447 222.768C73.2959 222.567 73.7904 222.467 74.3281 222.467C75.1803 222.467 75.848 222.681 76.3311 223.109C76.8141 223.533 77.0648 224.119 77.083 224.866V228.271C77.083 228.95 77.1696 229.49 77.3428 229.891V230H76.0166ZM73.918 229.036C74.3145 229.036 74.6904 228.934 75.0459 228.729C75.4014 228.523 75.6589 228.257 75.8184 227.929V226.411H74.8271C73.2777 226.411 72.5029 226.865 72.5029 227.771C72.5029 228.168 72.6351 228.478 72.8994 228.701C73.1637 228.924 73.5033 229.036 73.918 229.036ZM83.8506 222.604H85.1152V230H83.8506V224.606L80.4395 230H79.1748V222.604H80.4395V228.004L83.8506 222.604ZM84.1924 219.91C84.1924 220.462 84.0033 220.906 83.625 221.243C83.2513 221.576 82.7591 221.742 82.1484 221.742C81.5378 221.742 81.0433 221.574 80.665 221.236C80.2868 220.899 80.0977 220.457 80.0977 219.91H81.1299C81.1299 220.229 81.2165 220.48 81.3896 220.662C81.5628 220.84 81.8158 220.929 82.1484 220.929C82.4674 220.929 82.7158 220.84 82.8936 220.662C83.0758 220.484 83.167 220.234 83.167 219.91H84.1924ZM93.1885 230H91.9238V226.842H88.5264V230H87.2549V222.604H88.5264V225.81H91.9238V222.604H93.1885V230ZM98.2949 230.137C97.2923 230.137 96.4766 229.809 95.8477 229.152C95.2188 228.492 94.9043 227.61 94.9043 226.507V226.274C94.9043 225.541 95.0433 224.887 95.3213 224.312C95.6038 223.734 95.9958 223.283 96.4971 222.959C97.0029 222.631 97.5498 222.467 98.1377 222.467C99.0993 222.467 99.8467 222.784 100.38 223.417C100.913 224.05 101.18 224.957 101.18 226.138V226.664H96.1689C96.1872 227.393 96.3991 227.983 96.8047 228.435C97.2148 228.881 97.7344 229.104 98.3633 229.104C98.8099 229.104 99.1882 229.013 99.498 228.831C99.8079 228.649 100.079 228.407 100.312 228.106L101.084 228.708C100.464 229.66 99.5345 230.137 98.2949 230.137ZM98.1377 223.506C97.6273 223.506 97.1989 223.693 96.8525 224.066C96.5062 224.436 96.292 224.955 96.21 225.625H99.915V225.529C99.8786 224.887 99.7054 224.39 99.3955 224.039C99.0856 223.684 98.6663 223.506 98.1377 223.506ZM108.897 226.384C108.897 227.509 108.64 228.416 108.125 229.104C107.61 229.793 106.913 230.137 106.033 230.137C105.135 230.137 104.429 229.852 103.914 229.282V232.844H102.649V222.604H103.805L103.866 223.424C104.381 222.786 105.097 222.467 106.013 222.467C106.901 222.467 107.603 222.802 108.118 223.472C108.638 224.142 108.897 225.074 108.897 226.268V226.384ZM107.633 226.24C107.633 225.406 107.455 224.748 107.1 224.265C106.744 223.782 106.257 223.54 105.637 223.54C104.871 223.54 104.297 223.88 103.914 224.559V228.093C104.292 228.767 104.871 229.104 105.65 229.104C106.257 229.104 106.737 228.865 107.093 228.387C107.453 227.904 107.633 227.188 107.633 226.24Z" fill="black"/>
<circle cx="64.5" cy="324" r="30" fill="#43BAD6"/>
<circle cx="64.5" cy="324" r="10" fill="white"/>
<path d="M32.6299 367.047V373.814C32.6253 374.753 32.3291 375.521 31.7412 376.118C31.1579 376.715 30.3649 377.05 29.3623 377.123L29.0137 377.137C27.9245 377.137 27.0563 376.843 26.4092 376.255C25.762 375.667 25.4339 374.858 25.4248 373.828V367.047H26.7236V373.787C26.7236 374.507 26.9219 375.068 27.3184 375.469C27.7148 375.865 28.2799 376.063 29.0137 376.063C29.7565 376.063 30.3239 375.865 30.7158 375.469C31.1123 375.072 31.3105 374.514 31.3105 373.794V367.047H32.6299ZM36.1094 377H34.7969V367.047H36.1094V377ZM41.7285 375.968L42.166 375.428C42.6582 374.79 42.9385 373.833 43.0068 372.557L43.123 369.604H47.8877V375.968H48.8379V379.174H47.5732V377H42.4121V379.174H41.1475L41.1543 375.968H41.7285ZM43.2256 375.968H46.623V370.772H44.3467L44.2715 372.536C44.194 374.008 43.8454 375.152 43.2256 375.968ZM55.0244 369.604H56.2891V377H55.0244V371.606L51.6133 377H50.3486V369.604H51.6133V375.004L55.0244 369.604ZM62.3867 371.627C62.3867 371.281 62.2546 371.007 61.9902 370.807C61.7259 370.602 61.3636 370.499 60.9033 370.499C60.4567 370.499 60.083 370.615 59.7822 370.848C59.486 371.08 59.3379 371.354 59.3379 371.668H58.0801C58.0801 371.025 58.349 370.499 58.8867 370.089C59.4245 369.679 60.0967 369.474 60.9033 369.474C61.7692 369.474 62.4437 369.66 62.9268 370.034C63.4098 370.403 63.6514 370.932 63.6514 371.62C63.6514 371.953 63.5511 372.258 63.3506 372.536C63.1501 372.814 62.8652 373.035 62.4961 373.199C63.3574 373.491 63.7881 374.065 63.7881 374.922C63.7881 375.601 63.526 376.139 63.002 376.535C62.4779 376.932 61.7783 377.13 60.9033 377.13C60.0511 377.13 59.347 376.923 58.791 376.508C58.2396 376.089 57.9639 375.523 57.9639 374.812H59.2217C59.2217 375.173 59.3812 375.482 59.7002 375.742C60.0238 375.997 60.4248 376.125 60.9033 376.125C61.3864 376.125 61.776 376.013 62.0723 375.79C62.3685 375.567 62.5166 375.277 62.5166 374.922C62.5166 374.507 62.3913 374.211 62.1406 374.033C61.8945 373.851 61.5094 373.76 60.9854 373.76H59.7207V372.693H61.0947C61.9561 372.671 62.3867 372.315 62.3867 371.627ZM69.9951 377C69.9222 376.854 69.863 376.594 69.8174 376.221C69.2295 376.831 68.5277 377.137 67.7119 377.137C66.9827 377.137 66.3835 376.932 65.9141 376.521C65.4492 376.107 65.2168 375.583 65.2168 374.949C65.2168 374.179 65.5085 373.582 66.0918 373.158C66.6797 372.73 67.5046 372.516 68.5664 372.516H69.7969V371.935C69.7969 371.493 69.6647 371.142 69.4004 370.882C69.1361 370.618 68.7464 370.485 68.2314 370.485C67.7803 370.485 67.402 370.599 67.0967 370.827C66.7913 371.055 66.6387 371.331 66.6387 371.654H65.3672C65.3672 371.285 65.4971 370.93 65.7568 370.588C66.0212 370.242 66.3766 369.968 66.8232 369.768C67.2744 369.567 67.7689 369.467 68.3066 369.467C69.1589 369.467 69.8265 369.681 70.3096 370.109C70.7926 370.533 71.0433 371.119 71.0615 371.866V375.271C71.0615 375.95 71.1481 376.49 71.3213 376.891V377H69.9951ZM67.8965 376.036C68.293 376.036 68.6689 375.934 69.0244 375.729C69.3799 375.523 69.6374 375.257 69.7969 374.929V373.411H68.8057C67.2562 373.411 66.4814 373.865 66.4814 374.771C66.4814 375.168 66.6136 375.478 66.8779 375.701C67.1423 375.924 67.4818 376.036 67.8965 376.036ZM77.8291 369.604H79.0938V377H77.8291V371.606L74.418 377H73.1533V369.604H74.418V375.004L77.8291 369.604ZM78.1709 366.91C78.1709 367.462 77.9818 367.906 77.6035 368.243C77.2298 368.576 76.7376 368.742 76.127 368.742C75.5163 368.742 75.0218 368.574 74.6436 368.236C74.2653 367.899 74.0762 367.457 74.0762 366.91H75.1084C75.1084 367.229 75.195 367.48 75.3682 367.662C75.5413 367.84 75.7943 367.929 76.127 367.929C76.446 367.929 76.6943 367.84 76.8721 367.662C77.0544 367.484 77.1455 367.234 77.1455 366.91H78.1709ZM87.167 377H85.9023V373.842H82.5049V377H81.2334V369.604H82.5049V372.81H85.9023V369.604H87.167V377ZM92.2734 377.137C91.2708 377.137 90.4551 376.809 89.8262 376.152C89.1973 375.492 88.8828 374.61 88.8828 373.507V373.274C88.8828 372.541 89.0218 371.887 89.2998 371.312C89.5824 370.734 89.9743 370.283 90.4756 369.959C90.9814 369.631 91.5283 369.467 92.1162 369.467C93.0778 369.467 93.8252 369.784 94.3584 370.417C94.8916 371.05 95.1582 371.957 95.1582 373.138V373.664H90.1475C90.1657 374.393 90.3776 374.983 90.7832 375.435C91.1934 375.881 91.7129 376.104 92.3418 376.104C92.7884 376.104 93.1667 376.013 93.4766 375.831C93.7865 375.649 94.0576 375.407 94.29 375.106L95.0625 375.708C94.4427 376.66 93.513 377.137 92.2734 377.137ZM92.1162 370.506C91.6058 370.506 91.1774 370.693 90.8311 371.066C90.4847 371.436 90.2705 371.955 90.1885 372.625H93.8936V372.529C93.8571 371.887 93.6839 371.39 93.374 371.039C93.0641 370.684 92.6449 370.506 92.1162 370.506ZM102.876 373.384C102.876 374.509 102.618 375.416 102.104 376.104C101.589 376.793 100.891 377.137 100.012 377.137C99.1139 377.137 98.4076 376.852 97.8926 376.282V379.844H96.6279V369.604H97.7832L97.8447 370.424C98.3597 369.786 99.0752 369.467 99.9912 369.467C100.88 369.467 101.582 369.802 102.097 370.472C102.616 371.142 102.876 372.074 102.876 373.268V373.384ZM101.611 373.24C101.611 372.406 101.434 371.748 101.078 371.265C100.723 370.782 100.235 370.54 99.6152 370.54C98.8496 370.54 98.2754 370.88 97.8926 371.559V375.093C98.2708 375.767 98.8496 376.104 99.6289 376.104C100.235 376.104 100.716 375.865 101.071 375.387C101.431 374.904 101.611 374.188 101.611 373.24Z" fill="black"/>
</svg>
