<svg width="694" height="165" viewBox="0 0 694 165" fill="none" xmlns="http://www.w3.org/2000/svg">
<rect width="693.5" height="164" transform="translate(0 1)" fill="white"/>
<circle cx="513.5" cy="91" r="29.5" stroke="#CACACA"/>
<circle cx="513.5" cy="91" r="9.5" stroke="#43BAD6"/>
<circle cx="663.5" cy="91" r="29.5" stroke="#CACACA"/>
<circle cx="663.5" cy="91" r="9.5" stroke="#43BAD6"/>
<path d="M641.739 139.529H640.529V144H639.217V134.047H640.529V138.436H641.555L645.034 134.047H646.668L642.867 138.873L646.948 144H645.342L641.739 139.529ZM654.017 136.604V144H652.745V137.649H650.229L650.079 140.418C649.997 141.689 649.783 142.599 649.437 143.146C649.095 143.692 648.55 143.977 647.803 144H647.297V142.886L647.659 142.858C648.069 142.813 648.363 142.576 648.541 142.147C648.719 141.719 648.833 140.926 648.883 139.769L649.02 136.604H654.017ZM660.832 136.604H662.097V144H660.832V138.606L657.421 144H656.156V136.604H657.421V142.004L660.832 136.604ZM667.196 144.137C666.194 144.137 665.378 143.809 664.749 143.152C664.12 142.492 663.806 141.61 663.806 140.507V140.274C663.806 139.541 663.945 138.887 664.223 138.312C664.505 137.734 664.897 137.283 665.398 136.959C665.904 136.631 666.451 136.467 667.039 136.467C668.001 136.467 668.748 136.784 669.281 137.417C669.814 138.05 670.081 138.957 670.081 140.138V140.664H665.07C665.089 141.393 665.3 141.983 665.706 142.435C666.116 142.881 666.636 143.104 667.265 143.104C667.711 143.104 668.09 143.013 668.399 142.831C668.709 142.649 668.98 142.407 669.213 142.106L669.985 142.708C669.366 143.66 668.436 144.137 667.196 144.137ZM667.039 137.506C666.529 137.506 666.1 137.693 665.754 138.066C665.408 138.436 665.193 138.955 665.111 139.625H668.816V139.529C668.78 138.887 668.607 138.39 668.297 138.039C667.987 137.684 667.568 137.506 667.039 137.506ZM677.594 144H676.329V140.842H672.932V144H671.66V136.604H672.932V139.81H676.329V136.604H677.594V144ZM685.127 137.629H682.646V144H681.381V137.629H678.947V136.604H685.127V137.629Z" fill="black"/>
<circle cx="63" cy="91" r="29.5" stroke="#CACACA"/>
<circle cx="63" cy="91" r="10" fill="#43BAD6"/>
<path d="M31.1172 134.047L34.3711 142.168L37.625 134.047H39.3271V144H38.0146V140.124L38.1377 135.94L34.8701 144H33.8652L30.6045 135.961L30.7344 140.124V144H29.4219V134.047H31.1172ZM44.5156 144.137C43.513 144.137 42.6973 143.809 42.0684 143.152C41.4395 142.492 41.125 141.61 41.125 140.507V140.274C41.125 139.541 41.264 138.887 41.542 138.312C41.8245 137.734 42.2165 137.283 42.7178 136.959C43.2236 136.631 43.7705 136.467 44.3584 136.467C45.32 136.467 46.0674 136.784 46.6006 137.417C47.1338 138.05 47.4004 138.957 47.4004 140.138V140.664H42.3896C42.4079 141.393 42.6198 141.983 43.0254 142.435C43.4355 142.881 43.9551 143.104 44.584 143.104C45.0306 143.104 45.4089 143.013 45.7188 142.831C46.0286 142.649 46.2998 142.407 46.5322 142.106L47.3047 142.708C46.6849 143.66 45.7552 144.137 44.5156 144.137ZM44.3584 137.506C43.848 137.506 43.4196 137.693 43.0732 138.066C42.7269 138.436 42.5127 138.955 42.4307 139.625H46.1357V139.529C46.0993 138.887 45.9261 138.39 45.6162 138.039C45.3063 137.684 44.887 137.506 44.3584 137.506ZM54.9131 144H53.6484V140.842H50.251V144H48.9795V136.604H50.251V139.81H53.6484V136.604H54.9131V144ZM60.0195 144.137C59.0169 144.137 58.2012 143.809 57.5723 143.152C56.9434 142.492 56.6289 141.61 56.6289 140.507V140.274C56.6289 139.541 56.7679 138.887 57.0459 138.312C57.3285 137.734 57.7204 137.283 58.2217 136.959C58.7275 136.631 59.2744 136.467 59.8623 136.467C60.8239 136.467 61.5713 136.784 62.1045 137.417C62.6377 138.05 62.9043 138.957 62.9043 140.138V140.664H57.8936C57.9118 141.393 58.1237 141.983 58.5293 142.435C58.9395 142.881 59.459 143.104 60.0879 143.104C60.5345 143.104 60.9128 143.013 61.2227 142.831C61.5326 142.649 61.8037 142.407 62.0361 142.106L62.8086 142.708C62.1888 143.66 61.2591 144.137 60.0195 144.137ZM59.8623 137.506C59.3519 137.506 58.9235 137.693 58.5771 138.066C58.2308 138.436 58.0166 138.955 57.9346 139.625H61.6396V139.529C61.6032 138.887 61.43 138.39 61.1201 138.039C60.8102 137.684 60.391 137.506 59.8623 137.506ZM64.3125 142.968L64.75 142.428C65.2422 141.79 65.5225 140.833 65.5908 139.557L65.707 136.604H70.4717V142.968H71.4219V146.174H70.1572V144H64.9961V146.174H63.7314L63.7383 142.968H64.3125ZM65.8096 142.968H69.207V137.772H66.9307L66.8555 139.536C66.778 141.008 66.4294 142.152 65.8096 142.968ZM78.7227 140.787H77.834V144H76.5693V140.787H75.6807L73.6094 144H72.0098L74.6553 140.172L72.2627 136.604H73.7939L75.7012 139.666H76.5693V136.604H77.834V139.666H78.6953L80.6162 136.604H82.1475L79.748 140.179L82.3936 144H80.7939L78.7227 140.787ZM86.4746 144.137C85.472 144.137 84.6562 143.809 84.0273 143.152C83.3984 142.492 83.084 141.61 83.084 140.507V140.274C83.084 139.541 83.223 138.887 83.501 138.312C83.7835 137.734 84.1755 137.283 84.6768 136.959C85.1826 136.631 85.7295 136.467 86.3174 136.467C87.279 136.467 88.0264 136.784 88.5596 137.417C89.0928 138.05 89.3594 138.957 89.3594 140.138V140.664H84.3486C84.3669 141.393 84.5788 141.983 84.9844 142.435C85.3945 142.881 85.9141 143.104 86.543 143.104C86.9896 143.104 87.3678 143.013 87.6777 142.831C87.9876 142.649 88.2588 142.407 88.4912 142.106L89.2637 142.708C88.6439 143.66 87.7142 144.137 86.4746 144.137ZM86.3174 137.506C85.807 137.506 85.3786 137.693 85.0322 138.066C84.6859 138.436 84.4717 138.955 84.3896 139.625H88.0947V139.529C88.0583 138.887 87.8851 138.39 87.5752 138.039C87.2653 137.684 86.846 137.506 86.3174 137.506ZM97.0771 140.384C97.0771 141.509 96.8197 142.416 96.3047 143.104C95.7897 143.793 95.0924 144.137 94.2129 144.137C93.3151 144.137 92.6087 143.852 92.0938 143.282V146.844H90.8291V136.604H91.9844L92.0459 137.424C92.5609 136.786 93.2764 136.467 94.1924 136.467C95.0811 136.467 95.7829 136.802 96.2979 137.472C96.8174 138.142 97.0771 139.074 97.0771 140.268V140.384ZM95.8125 140.24C95.8125 139.406 95.6348 138.748 95.2793 138.265C94.9238 137.782 94.4362 137.54 93.8164 137.54C93.0508 137.54 92.4766 137.88 92.0938 138.559V142.093C92.472 142.767 93.0508 143.104 93.8301 143.104C94.4362 143.104 94.917 142.865 95.2725 142.387C95.6325 141.904 95.8125 141.188 95.8125 140.24Z" fill="black"/>
<path d="M333 51C333 51 300.103 26 214 26C124.205 26 95 51 95 51" stroke="#BEBEBE" stroke-width="2" stroke-linecap="round" stroke-dasharray="0.5 4"/>
<path d="M101 51.5L95 51.5L95 45" stroke="#BEBEBE" stroke-width="2" stroke-linecap="round"/>
<path d="M95 51C95 51 169.502 0.999999 364.5 0.999999C567.86 0.999999 634 51 634 51" stroke="#BEBEBE" stroke-width="2" stroke-linecap="round" stroke-dasharray="0.5 4"/>
<path d="M634.5 45V51H628" stroke="#BEBEBE" stroke-width="2" stroke-linecap="round"/>
<path d="M271 91.0001H305M305 91.0001L300 86M305 91.0001L300 96" stroke="#BEBEBE" stroke-width="2" stroke-linecap="round"/>
<path d="M421 91.0001H455M455 91.0001L450 86M455 91.0001L450 96" stroke="#BEBEBE" stroke-width="2" stroke-linecap="round"/>
<circle cx="363" cy="91" r="30" fill="#F0F0F0"/>
<circle cx="363" cy="91" r="10" fill="#43BAD6"/>
<path d="M178.59 134.047V140.814C178.585 141.753 178.289 142.521 177.701 143.118C177.118 143.715 176.325 144.05 175.322 144.123L174.974 144.137C173.884 144.137 173.016 143.843 172.369 143.255C171.722 142.667 171.394 141.858 171.385 140.828V134.047H172.684V140.787C172.684 141.507 172.882 142.068 173.278 142.469C173.675 142.865 174.24 143.063 174.974 143.063C175.716 143.063 176.284 142.865 176.676 142.469C177.072 142.072 177.271 141.514 177.271 140.794V134.047H178.59ZM182.069 144H180.757V134.047H182.069V144ZM187.688 142.968L188.126 142.428C188.618 141.79 188.898 140.833 188.967 139.557L189.083 136.604H193.848V142.968H194.798V146.174H193.533V144H188.372V146.174H187.107L187.114 142.968H187.688ZM189.186 142.968H192.583V137.772H190.307L190.231 139.536C190.154 141.008 189.805 142.152 189.186 142.968ZM200.984 136.604H202.249V144H200.984V138.606L197.573 144H196.309V136.604H197.573V142.004L200.984 136.604ZM208.347 138.627C208.347 138.281 208.215 138.007 207.95 137.807C207.686 137.602 207.324 137.499 206.863 137.499C206.417 137.499 206.043 137.615 205.742 137.848C205.446 138.08 205.298 138.354 205.298 138.668H204.04C204.04 138.025 204.309 137.499 204.847 137.089C205.384 136.679 206.057 136.474 206.863 136.474C207.729 136.474 208.404 136.66 208.887 137.034C209.37 137.403 209.611 137.932 209.611 138.62C209.611 138.953 209.511 139.258 209.311 139.536C209.11 139.814 208.825 140.035 208.456 140.199C209.317 140.491 209.748 141.065 209.748 141.922C209.748 142.601 209.486 143.139 208.962 143.535C208.438 143.932 207.738 144.13 206.863 144.13C206.011 144.13 205.307 143.923 204.751 143.508C204.2 143.089 203.924 142.523 203.924 141.812H205.182C205.182 142.173 205.341 142.482 205.66 142.742C205.984 142.997 206.385 143.125 206.863 143.125C207.346 143.125 207.736 143.013 208.032 142.79C208.328 142.567 208.477 142.277 208.477 141.922C208.477 141.507 208.351 141.211 208.101 141.033C207.854 140.851 207.469 140.76 206.945 140.76H205.681V139.693H207.055C207.916 139.671 208.347 139.315 208.347 138.627ZM217.432 144H216.167V140.842H212.77V144H211.498V136.604H212.77V139.81H216.167V136.604H217.432V144ZM224.035 144C223.962 143.854 223.903 143.594 223.857 143.221C223.27 143.831 222.568 144.137 221.752 144.137C221.023 144.137 220.424 143.932 219.954 143.521C219.489 143.107 219.257 142.583 219.257 141.949C219.257 141.179 219.549 140.582 220.132 140.158C220.72 139.73 221.545 139.516 222.606 139.516H223.837V138.935C223.837 138.493 223.705 138.142 223.44 137.882C223.176 137.618 222.786 137.485 222.271 137.485C221.82 137.485 221.442 137.599 221.137 137.827C220.831 138.055 220.679 138.331 220.679 138.654H219.407C219.407 138.285 219.537 137.93 219.797 137.588C220.061 137.242 220.417 136.968 220.863 136.768C221.314 136.567 221.809 136.467 222.347 136.467C223.199 136.467 223.867 136.681 224.35 137.109C224.833 137.533 225.083 138.119 225.102 138.866V142.271C225.102 142.95 225.188 143.49 225.361 143.891V144H224.035ZM221.937 143.036C222.333 143.036 222.709 142.934 223.064 142.729C223.42 142.523 223.677 142.257 223.837 141.929V140.411H222.846C221.296 140.411 220.521 140.865 220.521 141.771C220.521 142.168 220.654 142.478 220.918 142.701C221.182 142.924 221.522 143.036 221.937 143.036ZM231.869 136.604H233.134V144H231.869V138.606L228.458 144H227.193V136.604H228.458V142.004L231.869 136.604ZM232.211 133.91C232.211 134.462 232.022 134.906 231.644 135.243C231.27 135.576 230.778 135.742 230.167 135.742C229.556 135.742 229.062 135.574 228.684 135.236C228.305 134.899 228.116 134.457 228.116 133.91H229.148C229.148 134.229 229.235 134.48 229.408 134.662C229.581 134.84 229.834 134.929 230.167 134.929C230.486 134.929 230.734 134.84 230.912 134.662C231.094 134.484 231.186 134.234 231.186 133.91H232.211ZM241.207 144H239.942V140.842H236.545V144H235.273V136.604H236.545V139.81H239.942V136.604H241.207V144ZM246.313 144.137C245.311 144.137 244.495 143.809 243.866 143.152C243.237 142.492 242.923 141.61 242.923 140.507V140.274C242.923 139.541 243.062 138.887 243.34 138.312C243.622 137.734 244.014 137.283 244.516 136.959C245.021 136.631 245.568 136.467 246.156 136.467C247.118 136.467 247.865 136.784 248.398 137.417C248.932 138.05 249.198 138.957 249.198 140.138V140.664H244.188C244.206 141.393 244.418 141.983 244.823 142.435C245.233 142.881 245.753 143.104 246.382 143.104C246.828 143.104 247.207 143.013 247.517 142.831C247.826 142.649 248.098 142.407 248.33 142.106L249.103 142.708C248.483 143.66 247.553 144.137 246.313 144.137ZM246.156 137.506C245.646 137.506 245.217 137.693 244.871 138.066C244.525 138.436 244.311 138.955 244.229 139.625H247.934V139.529C247.897 138.887 247.724 138.39 247.414 138.039C247.104 137.684 246.685 137.506 246.156 137.506ZM256.916 140.384C256.916 141.509 256.659 142.416 256.144 143.104C255.629 143.793 254.931 144.137 254.052 144.137C253.154 144.137 252.448 143.852 251.933 143.282V146.844H250.668V136.604H251.823L251.885 137.424C252.4 136.786 253.115 136.467 254.031 136.467C254.92 136.467 255.622 136.802 256.137 137.472C256.656 138.142 256.916 139.074 256.916 140.268V140.384ZM255.651 140.24C255.651 139.406 255.474 138.748 255.118 138.265C254.763 137.782 254.275 137.54 253.655 137.54C252.89 137.54 252.315 137.88 251.933 138.559V142.093C252.311 142.767 252.89 143.104 253.669 143.104C254.275 143.104 254.756 142.865 255.111 142.387C255.471 141.904 255.651 141.188 255.651 140.24Z" fill="black"/>
<circle cx="213.5" cy="91" r="30" fill="#43BAD6"/>
<circle cx="213.5" cy="91" r="10" fill="white"/>
<path d="M338.689 139.604H334.513V144H333.2V134.047H339.366V135.127H334.513V138.531H338.689V139.604ZM344.138 137.738C343.946 137.706 343.739 137.69 343.516 137.69C342.686 137.69 342.123 138.044 341.827 138.75V144H340.562V136.604H341.793L341.813 137.458C342.228 136.797 342.816 136.467 343.577 136.467C343.823 136.467 344.01 136.499 344.138 136.562V137.738ZM344.835 140.233C344.835 139.509 344.976 138.857 345.259 138.278C345.546 137.7 345.942 137.253 346.448 136.938C346.959 136.624 347.54 136.467 348.191 136.467C349.199 136.467 350.012 136.815 350.632 137.513C351.256 138.21 351.568 139.137 351.568 140.295V140.384C351.568 141.104 351.429 141.751 351.151 142.325C350.878 142.895 350.484 143.339 349.969 143.658C349.458 143.977 348.87 144.137 348.205 144.137C347.202 144.137 346.389 143.788 345.765 143.091C345.145 142.394 344.835 141.471 344.835 140.322V140.233ZM346.106 140.384C346.106 141.204 346.296 141.863 346.674 142.359C347.057 142.856 347.567 143.104 348.205 143.104C348.848 143.104 349.358 142.854 349.736 142.353C350.115 141.847 350.304 141.14 350.304 140.233C350.304 139.422 350.11 138.766 349.723 138.265C349.34 137.759 348.829 137.506 348.191 137.506C347.567 137.506 347.063 137.754 346.681 138.251C346.298 138.748 346.106 139.459 346.106 140.384ZM354.351 136.604L354.392 137.533C354.957 136.822 355.695 136.467 356.606 136.467C358.17 136.467 358.958 137.349 358.972 139.112V144H357.707V139.105C357.702 138.572 357.579 138.178 357.338 137.923C357.101 137.668 356.729 137.54 356.224 137.54C355.813 137.54 355.453 137.649 355.144 137.868C354.834 138.087 354.592 138.374 354.419 138.729V144H353.154V136.604H354.351ZM362.595 134.812V136.604H363.976V137.581H362.595V142.168C362.595 142.464 362.656 142.688 362.779 142.838C362.902 142.984 363.112 143.057 363.408 143.057C363.554 143.057 363.755 143.029 364.01 142.975V144C363.677 144.091 363.354 144.137 363.039 144.137C362.474 144.137 362.048 143.966 361.761 143.624C361.474 143.282 361.33 142.797 361.33 142.168V137.581H359.983V136.604H361.33V134.812H362.595ZM368.091 140.288H364.755V139.256H368.091V140.288ZM375.152 139.399H370.839V142.927H375.85V144H369.526V134.047H375.781V135.127H370.839V138.326H375.152V139.399ZM378.481 136.604L378.522 137.533C379.088 136.822 379.826 136.467 380.737 136.467C382.3 136.467 383.089 137.349 383.103 139.112V144H381.838V139.105C381.833 138.572 381.71 138.178 381.469 137.923C381.232 137.668 380.86 137.54 380.354 137.54C379.944 137.54 379.584 137.649 379.274 137.868C378.965 138.087 378.723 138.374 378.55 138.729V144H377.285V136.604H378.481ZM384.702 140.24C384.702 139.105 384.971 138.194 385.509 137.506C386.047 136.813 386.751 136.467 387.621 136.467C388.487 136.467 389.173 136.763 389.679 137.355V133.5H390.943V144H389.781L389.72 143.207C389.214 143.827 388.51 144.137 387.607 144.137C386.751 144.137 386.051 143.786 385.509 143.084C384.971 142.382 384.702 141.466 384.702 140.336V140.24ZM385.967 140.384C385.967 141.222 386.14 141.879 386.486 142.353C386.833 142.826 387.311 143.063 387.922 143.063C388.724 143.063 389.31 142.703 389.679 141.983V138.586C389.3 137.889 388.719 137.54 387.936 137.54C387.316 137.54 386.833 137.779 386.486 138.258C386.14 138.736 385.967 139.445 385.967 140.384ZM327.396 157.384C327.396 158.509 327.139 159.416 326.624 160.104C326.109 160.793 325.412 161.137 324.532 161.137C323.634 161.137 322.928 160.852 322.413 160.282V163.844H321.148V153.604H322.304L322.365 154.424C322.88 153.786 323.596 153.467 324.512 153.467C325.4 153.467 326.102 153.802 326.617 154.472C327.137 155.142 327.396 156.074 327.396 157.268V157.384ZM326.132 157.24C326.132 156.406 325.954 155.748 325.599 155.265C325.243 154.782 324.756 154.54 324.136 154.54C323.37 154.54 322.796 154.88 322.413 155.559V159.093C322.791 159.767 323.37 160.104 324.149 160.104C324.756 160.104 325.236 159.865 325.592 159.387C325.952 158.904 326.132 158.188 326.132 157.24ZM333.576 161C333.503 160.854 333.444 160.594 333.398 160.221C332.811 160.831 332.109 161.137 331.293 161.137C330.564 161.137 329.965 160.932 329.495 160.521C329.03 160.107 328.798 159.583 328.798 158.949C328.798 158.179 329.09 157.582 329.673 157.158C330.261 156.73 331.086 156.516 332.147 156.516H333.378V155.935C333.378 155.493 333.246 155.142 332.981 154.882C332.717 154.618 332.327 154.485 331.812 154.485C331.361 154.485 330.983 154.599 330.678 154.827C330.372 155.055 330.22 155.331 330.22 155.654H328.948C328.948 155.285 329.078 154.93 329.338 154.588C329.602 154.242 329.958 153.968 330.404 153.768C330.855 153.567 331.35 153.467 331.888 153.467C332.74 153.467 333.408 153.681 333.891 154.109C334.374 154.533 334.624 155.119 334.643 155.866V159.271C334.643 159.95 334.729 160.49 334.902 160.891V161H333.576ZM331.478 160.036C331.874 160.036 332.25 159.934 332.605 159.729C332.961 159.523 333.218 159.257 333.378 158.929V157.411H332.387C330.837 157.411 330.062 157.865 330.062 158.771C330.062 159.168 330.195 159.478 330.459 159.701C330.723 159.924 331.063 160.036 331.478 160.036ZM340.692 155.627C340.692 155.281 340.56 155.007 340.296 154.807C340.032 154.602 339.669 154.499 339.209 154.499C338.762 154.499 338.389 154.615 338.088 154.848C337.792 155.08 337.644 155.354 337.644 155.668H336.386C336.386 155.025 336.655 154.499 337.192 154.089C337.73 153.679 338.402 153.474 339.209 153.474C340.075 153.474 340.749 153.66 341.232 154.034C341.715 154.403 341.957 154.932 341.957 155.62C341.957 155.953 341.857 156.258 341.656 156.536C341.456 156.814 341.171 157.035 340.802 157.199C341.663 157.491 342.094 158.065 342.094 158.922C342.094 159.601 341.832 160.139 341.308 160.535C340.784 160.932 340.084 161.13 339.209 161.13C338.357 161.13 337.653 160.923 337.097 160.508C336.545 160.089 336.27 159.523 336.27 158.812H337.527C337.527 159.173 337.687 159.482 338.006 159.742C338.329 159.997 338.73 160.125 339.209 160.125C339.692 160.125 340.082 160.013 340.378 159.79C340.674 159.567 340.822 159.277 340.822 158.922C340.822 158.507 340.697 158.211 340.446 158.033C340.2 157.851 339.815 157.76 339.291 157.76H338.026V156.693H339.4C340.262 156.671 340.692 156.315 340.692 155.627ZM349.982 157.384C349.982 158.509 349.725 159.416 349.21 160.104C348.695 160.793 347.998 161.137 347.118 161.137C346.22 161.137 345.514 160.852 344.999 160.282V163.844H343.734V153.604H344.89L344.951 154.424C345.466 153.786 346.182 153.467 347.098 153.467C347.986 153.467 348.688 153.802 349.203 154.472C349.723 155.142 349.982 156.074 349.982 157.268V157.384ZM348.718 157.24C348.718 156.406 348.54 155.748 348.185 155.265C347.829 154.782 347.341 154.54 346.722 154.54C345.956 154.54 345.382 154.88 344.999 155.559V159.093C345.377 159.767 345.956 160.104 346.735 160.104C347.341 160.104 347.822 159.865 348.178 159.387C348.538 158.904 348.718 158.188 348.718 157.24ZM356.162 161C356.089 160.854 356.03 160.594 355.984 160.221C355.396 160.831 354.695 161.137 353.879 161.137C353.15 161.137 352.55 160.932 352.081 160.521C351.616 160.107 351.384 159.583 351.384 158.949C351.384 158.179 351.675 157.582 352.259 157.158C352.847 156.73 353.672 156.516 354.733 156.516H355.964V155.935C355.964 155.493 355.832 155.142 355.567 154.882C355.303 154.618 354.913 154.485 354.398 154.485C353.947 154.485 353.569 154.599 353.264 154.827C352.958 155.055 352.806 155.331 352.806 155.654H351.534C351.534 155.285 351.664 154.93 351.924 154.588C352.188 154.242 352.544 153.968 352.99 153.768C353.441 153.567 353.936 153.467 354.474 153.467C355.326 153.467 355.993 153.681 356.477 154.109C356.96 154.533 357.21 155.119 357.229 155.866V159.271C357.229 159.95 357.315 160.49 357.488 160.891V161H356.162ZM354.063 160.036C354.46 160.036 354.836 159.934 355.191 159.729C355.547 159.523 355.804 159.257 355.964 158.929V157.411H354.973C353.423 157.411 352.648 157.865 352.648 158.771C352.648 159.168 352.781 159.478 353.045 159.701C353.309 159.924 353.649 160.036 354.063 160.036ZM362.458 154.027C363.388 154.027 364.131 154.34 364.687 154.964C365.247 155.584 365.527 156.402 365.527 157.418V157.534C365.527 158.231 365.393 158.856 365.124 159.407C364.855 159.954 364.468 160.38 363.962 160.686C363.461 160.986 362.882 161.137 362.226 161.137C361.232 161.137 360.432 160.806 359.826 160.146C359.22 159.48 358.917 158.589 358.917 157.473V156.857C358.917 155.303 359.204 154.068 359.778 153.152C360.357 152.236 361.209 151.678 362.335 151.478C362.973 151.364 363.404 151.225 363.627 151.061C363.85 150.896 363.962 150.671 363.962 150.384H365.001C365.001 150.953 364.871 151.398 364.611 151.717C364.356 152.036 363.946 152.261 363.381 152.394L362.438 152.605C361.686 152.783 361.12 153.084 360.742 153.508C360.368 153.927 360.125 154.488 360.011 155.189C360.681 154.415 361.496 154.027 362.458 154.027ZM362.212 155.066C361.592 155.066 361.1 155.276 360.735 155.695C360.371 156.11 360.188 156.687 360.188 157.425V157.534C360.188 158.327 360.371 158.956 360.735 159.421C361.104 159.881 361.601 160.111 362.226 160.111C362.854 160.111 363.351 159.879 363.716 159.414C364.08 158.949 364.263 158.27 364.263 157.377C364.263 156.68 364.078 156.121 363.709 155.702C363.344 155.278 362.845 155.066 362.212 155.066ZM366.614 157.233C366.614 156.509 366.756 155.857 367.038 155.278C367.325 154.7 367.722 154.253 368.228 153.938C368.738 153.624 369.319 153.467 369.971 153.467C370.978 153.467 371.791 153.815 372.411 154.513C373.035 155.21 373.348 156.137 373.348 157.295V157.384C373.348 158.104 373.209 158.751 372.931 159.325C372.657 159.895 372.263 160.339 371.748 160.658C371.238 160.977 370.65 161.137 369.984 161.137C368.982 161.137 368.168 160.788 367.544 160.091C366.924 159.394 366.614 158.471 366.614 157.322V157.233ZM367.886 157.384C367.886 158.204 368.075 158.863 368.453 159.359C368.836 159.856 369.346 160.104 369.984 160.104C370.627 160.104 371.137 159.854 371.516 159.353C371.894 158.847 372.083 158.14 372.083 157.233C372.083 156.422 371.889 155.766 371.502 155.265C371.119 154.759 370.609 154.506 369.971 154.506C369.346 154.506 368.843 154.754 368.46 155.251C368.077 155.748 367.886 156.459 367.886 157.384ZM380.279 154.629H377.798V161H376.533V154.629H374.1V153.604H380.279V154.629ZM387.095 161H385.823V158.32C385.267 158.466 384.698 158.539 384.114 158.539C383.189 158.539 382.483 158.302 381.995 157.828C381.512 157.354 381.266 156.68 381.257 155.805V153.597H382.521V155.846C382.544 156.949 383.075 157.5 384.114 157.5C384.698 157.5 385.267 157.427 385.823 157.281V153.604H387.095V161ZM393.91 153.604H395.175V161H393.91V155.606L390.499 161H389.234V153.604H390.499V159.004L393.91 153.604ZM399.509 157.849H398.586V161H397.314V153.604H398.586V156.734H399.413L401.901 153.604H403.433L400.507 157.158L403.679 161H402.072L399.509 157.849Z" fill="black"/>
<path d="M485.048 144V134.047H488.302C489.382 134.047 490.193 134.27 490.735 134.717C491.282 135.163 491.556 135.824 491.556 136.699C491.556 137.164 491.424 137.576 491.159 137.937C490.895 138.292 490.535 138.568 490.079 138.764C490.617 138.914 491.041 139.201 491.351 139.625C491.665 140.044 491.822 140.546 491.822 141.129C491.822 142.022 491.533 142.724 490.954 143.234C490.375 143.745 489.557 144 488.5 144H485.048ZM486.36 139.345V142.927H488.527C489.138 142.927 489.619 142.77 489.97 142.455C490.325 142.136 490.503 141.699 490.503 141.143C490.503 139.944 489.851 139.345 488.548 139.345H486.36ZM486.36 138.292H488.343C488.917 138.292 489.375 138.148 489.717 137.861C490.063 137.574 490.236 137.185 490.236 136.692C490.236 136.146 490.077 135.749 489.758 135.503C489.439 135.252 488.953 135.127 488.302 135.127H486.36V138.292ZM498.139 144C498.066 143.854 498.007 143.594 497.961 143.221C497.373 143.831 496.671 144.137 495.855 144.137C495.126 144.137 494.527 143.932 494.058 143.521C493.593 143.107 493.36 142.583 493.36 141.949C493.36 141.179 493.652 140.582 494.235 140.158C494.823 139.73 495.648 139.516 496.71 139.516H497.94V138.935C497.94 138.493 497.808 138.142 497.544 137.882C497.28 137.618 496.89 137.485 496.375 137.485C495.924 137.485 495.546 137.599 495.24 137.827C494.935 138.055 494.782 138.331 494.782 138.654H493.511C493.511 138.285 493.641 137.93 493.9 137.588C494.165 137.242 494.52 136.968 494.967 136.768C495.418 136.567 495.912 136.467 496.45 136.467C497.302 136.467 497.97 136.681 498.453 137.109C498.936 137.533 499.187 138.119 499.205 138.866V142.271C499.205 142.95 499.292 143.49 499.465 143.891V144H498.139ZM496.04 143.036C496.437 143.036 496.812 142.934 497.168 142.729C497.523 142.523 497.781 142.257 497.94 141.929V140.411H496.949C495.4 140.411 494.625 140.865 494.625 141.771C494.625 142.168 494.757 142.478 495.021 142.701C495.286 142.924 495.625 143.036 496.04 143.036ZM504.154 143.104C504.605 143.104 505 142.968 505.337 142.694C505.674 142.421 505.861 142.079 505.897 141.669H507.094C507.071 142.093 506.925 142.496 506.656 142.879C506.387 143.262 506.027 143.567 505.576 143.795C505.13 144.023 504.656 144.137 504.154 144.137C503.147 144.137 502.345 143.802 501.748 143.132C501.156 142.457 500.859 141.537 500.859 140.37V140.158C500.859 139.438 500.992 138.798 501.256 138.237C501.52 137.677 501.898 137.242 502.391 136.932C502.887 136.622 503.473 136.467 504.147 136.467C504.977 136.467 505.665 136.715 506.212 137.212C506.763 137.709 507.057 138.354 507.094 139.146H505.897C505.861 138.668 505.679 138.276 505.351 137.971C505.027 137.661 504.626 137.506 504.147 137.506C503.505 137.506 503.006 137.738 502.65 138.203C502.299 138.663 502.124 139.331 502.124 140.206V140.445C502.124 141.298 502.299 141.954 502.65 142.414C503.001 142.874 503.503 143.104 504.154 143.104ZM510.58 140.575L509.787 141.402V144H508.522V133.5H509.787V139.851L510.464 139.037L512.768 136.604H514.306L511.428 139.693L514.641 144H513.157L510.58 140.575ZM518.243 140.288H514.907V139.256H518.243V140.288ZM525.305 139.399H520.991V142.927H526.002V144H519.679V134.047H525.934V135.127H520.991V138.326H525.305V139.399ZM528.634 136.604L528.675 137.533C529.24 136.822 529.978 136.467 530.89 136.467C532.453 136.467 533.241 137.349 533.255 139.112V144H531.99V139.105C531.986 138.572 531.863 138.178 531.621 137.923C531.384 137.668 531.013 137.54 530.507 137.54C530.097 137.54 529.737 137.649 529.427 137.868C529.117 138.087 528.875 138.374 528.702 138.729V144H527.438V136.604H528.634ZM534.854 140.24C534.854 139.105 535.123 138.194 535.661 137.506C536.199 136.813 536.903 136.467 537.773 136.467C538.639 136.467 539.325 136.763 539.831 137.355V133.5H541.096V144H539.934L539.872 143.207C539.366 143.827 538.662 144.137 537.76 144.137C536.903 144.137 536.203 143.786 535.661 143.084C535.123 142.382 534.854 141.466 534.854 140.336V140.24ZM536.119 140.384C536.119 141.222 536.292 141.879 536.639 142.353C536.985 142.826 537.464 143.063 538.074 143.063C538.876 143.063 539.462 142.703 539.831 141.983V138.586C539.453 137.889 538.872 137.54 538.088 137.54C537.468 137.54 536.985 137.779 536.639 138.258C536.292 138.736 536.119 139.445 536.119 140.384ZM478.396 157.384C478.396 158.509 478.139 159.416 477.624 160.104C477.109 160.793 476.412 161.137 475.532 161.137C474.634 161.137 473.928 160.852 473.413 160.282V163.844H472.148V153.604H473.304L473.365 154.424C473.88 153.786 474.596 153.467 475.512 153.467C476.4 153.467 477.102 153.802 477.617 154.472C478.137 155.142 478.396 156.074 478.396 157.268V157.384ZM477.132 157.24C477.132 156.406 476.954 155.748 476.599 155.265C476.243 154.782 475.756 154.54 475.136 154.54C474.37 154.54 473.796 154.88 473.413 155.559V159.093C473.791 159.767 474.37 160.104 475.149 160.104C475.756 160.104 476.236 159.865 476.592 159.387C476.952 158.904 477.132 158.188 477.132 157.24ZM484.576 161C484.503 160.854 484.444 160.594 484.398 160.221C483.811 160.831 483.109 161.137 482.293 161.137C481.564 161.137 480.965 160.932 480.495 160.521C480.03 160.107 479.798 159.583 479.798 158.949C479.798 158.179 480.09 157.582 480.673 157.158C481.261 156.73 482.086 156.516 483.147 156.516H484.378V155.935C484.378 155.493 484.246 155.142 483.981 154.882C483.717 154.618 483.327 154.485 482.812 154.485C482.361 154.485 481.983 154.599 481.678 154.827C481.372 155.055 481.22 155.331 481.22 155.654H479.948C479.948 155.285 480.078 154.93 480.338 154.588C480.602 154.242 480.958 153.968 481.404 153.768C481.855 153.567 482.35 153.467 482.888 153.467C483.74 153.467 484.408 153.681 484.891 154.109C485.374 154.533 485.624 155.119 485.643 155.866V159.271C485.643 159.95 485.729 160.49 485.902 160.891V161H484.576ZM482.478 160.036C482.874 160.036 483.25 159.934 483.605 159.729C483.961 159.523 484.218 159.257 484.378 158.929V157.411H483.387C481.837 157.411 481.062 157.865 481.062 158.771C481.062 159.168 481.195 159.478 481.459 159.701C481.723 159.924 482.063 160.036 482.478 160.036ZM491.692 155.627C491.692 155.281 491.56 155.007 491.296 154.807C491.032 154.602 490.669 154.499 490.209 154.499C489.762 154.499 489.389 154.615 489.088 154.848C488.792 155.08 488.644 155.354 488.644 155.668H487.386C487.386 155.025 487.655 154.499 488.192 154.089C488.73 153.679 489.402 153.474 490.209 153.474C491.075 153.474 491.749 153.66 492.232 154.034C492.715 154.403 492.957 154.932 492.957 155.62C492.957 155.953 492.857 156.258 492.656 156.536C492.456 156.814 492.171 157.035 491.802 157.199C492.663 157.491 493.094 158.065 493.094 158.922C493.094 159.601 492.832 160.139 492.308 160.535C491.784 160.932 491.084 161.13 490.209 161.13C489.357 161.13 488.653 160.923 488.097 160.508C487.545 160.089 487.27 159.523 487.27 158.812H488.527C488.527 159.173 488.687 159.482 489.006 159.742C489.329 159.997 489.73 160.125 490.209 160.125C490.692 160.125 491.082 160.013 491.378 159.79C491.674 159.567 491.822 159.277 491.822 158.922C491.822 158.507 491.697 158.211 491.446 158.033C491.2 157.851 490.815 157.76 490.291 157.76H489.026V156.693H490.4C491.262 156.671 491.692 156.315 491.692 155.627ZM500.982 157.384C500.982 158.509 500.725 159.416 500.21 160.104C499.695 160.793 498.998 161.137 498.118 161.137C497.22 161.137 496.514 160.852 495.999 160.282V163.844H494.734V153.604H495.89L495.951 154.424C496.466 153.786 497.182 153.467 498.098 153.467C498.986 153.467 499.688 153.802 500.203 154.472C500.723 155.142 500.982 156.074 500.982 157.268V157.384ZM499.718 157.24C499.718 156.406 499.54 155.748 499.185 155.265C498.829 154.782 498.341 154.54 497.722 154.54C496.956 154.54 496.382 154.88 495.999 155.559V159.093C496.377 159.767 496.956 160.104 497.735 160.104C498.341 160.104 498.822 159.865 499.178 159.387C499.538 158.904 499.718 158.188 499.718 157.24ZM507.162 161C507.089 160.854 507.03 160.594 506.984 160.221C506.396 160.831 505.695 161.137 504.879 161.137C504.15 161.137 503.55 160.932 503.081 160.521C502.616 160.107 502.384 159.583 502.384 158.949C502.384 158.179 502.675 157.582 503.259 157.158C503.847 156.73 504.672 156.516 505.733 156.516H506.964V155.935C506.964 155.493 506.832 155.142 506.567 154.882C506.303 154.618 505.913 154.485 505.398 154.485C504.947 154.485 504.569 154.599 504.264 154.827C503.958 155.055 503.806 155.331 503.806 155.654H502.534C502.534 155.285 502.664 154.93 502.924 154.588C503.188 154.242 503.544 153.968 503.99 153.768C504.441 153.567 504.936 153.467 505.474 153.467C506.326 153.467 506.993 153.681 507.477 154.109C507.96 154.533 508.21 155.119 508.229 155.866V159.271C508.229 159.95 508.315 160.49 508.488 160.891V161H507.162ZM505.063 160.036C505.46 160.036 505.836 159.934 506.191 159.729C506.547 159.523 506.804 159.257 506.964 158.929V157.411H505.973C504.423 157.411 503.648 157.865 503.648 158.771C503.648 159.168 503.781 159.478 504.045 159.701C504.309 159.924 504.649 160.036 505.063 160.036ZM513.458 154.027C514.388 154.027 515.131 154.34 515.687 154.964C516.247 155.584 516.527 156.402 516.527 157.418V157.534C516.527 158.231 516.393 158.856 516.124 159.407C515.855 159.954 515.468 160.38 514.962 160.686C514.461 160.986 513.882 161.137 513.226 161.137C512.232 161.137 511.432 160.806 510.826 160.146C510.22 159.48 509.917 158.589 509.917 157.473V156.857C509.917 155.303 510.204 154.068 510.778 153.152C511.357 152.236 512.209 151.678 513.335 151.478C513.973 151.364 514.404 151.225 514.627 151.061C514.85 150.896 514.962 150.671 514.962 150.384H516.001C516.001 150.953 515.871 151.398 515.611 151.717C515.356 152.036 514.946 152.261 514.381 152.394L513.438 152.605C512.686 152.783 512.12 153.084 511.742 153.508C511.368 153.927 511.125 154.488 511.011 155.189C511.681 154.415 512.496 154.027 513.458 154.027ZM513.212 155.066C512.592 155.066 512.1 155.276 511.735 155.695C511.371 156.11 511.188 156.687 511.188 157.425V157.534C511.188 158.327 511.371 158.956 511.735 159.421C512.104 159.881 512.601 160.111 513.226 160.111C513.854 160.111 514.351 159.879 514.716 159.414C515.08 158.949 515.263 158.27 515.263 157.377C515.263 156.68 515.078 156.121 514.709 155.702C514.344 155.278 513.845 155.066 513.212 155.066ZM517.614 157.233C517.614 156.509 517.756 155.857 518.038 155.278C518.325 154.7 518.722 154.253 519.228 153.938C519.738 153.624 520.319 153.467 520.971 153.467C521.978 153.467 522.791 153.815 523.411 154.513C524.035 155.21 524.348 156.137 524.348 157.295V157.384C524.348 158.104 524.209 158.751 523.931 159.325C523.657 159.895 523.263 160.339 522.748 160.658C522.238 160.977 521.65 161.137 520.984 161.137C519.982 161.137 519.168 160.788 518.544 160.091C517.924 159.394 517.614 158.471 517.614 157.322V157.233ZM518.886 157.384C518.886 158.204 519.075 158.863 519.453 159.359C519.836 159.856 520.346 160.104 520.984 160.104C521.627 160.104 522.137 159.854 522.516 159.353C522.894 158.847 523.083 158.14 523.083 157.233C523.083 156.422 522.889 155.766 522.502 155.265C522.119 154.759 521.609 154.506 520.971 154.506C520.346 154.506 519.843 154.754 519.46 155.251C519.077 155.748 518.886 156.459 518.886 157.384ZM531.279 154.629H528.798V161H527.533V154.629H525.1V153.604H531.279V154.629ZM538.095 161H536.823V158.32C536.267 158.466 535.698 158.539 535.114 158.539C534.189 158.539 533.483 158.302 532.995 157.828C532.512 157.354 532.266 156.68 532.257 155.805V153.597H533.521V155.846C533.544 156.949 534.075 157.5 535.114 157.5C535.698 157.5 536.267 157.427 536.823 157.281V153.604H538.095V161ZM544.91 153.604H546.175V161H544.91V155.606L541.499 161H540.234V153.604H541.499V159.004L544.91 153.604ZM550.509 157.849H549.586V161H548.314V153.604H549.586V156.734H550.413L552.901 153.604H554.433L551.507 157.158L554.679 161H553.072L550.509 157.849Z" fill="black"/>
</svg>
