<svg width="167" height="664" viewBox="0 0 167 664" fill="none" xmlns="http://www.w3.org/2000/svg">
<circle cx="44" cy="471" r="29.5" transform="rotate(90 44 471)" stroke="#CACACA"/>
<circle cx="44" cy="471" r="9.5" transform="rotate(90 44 471)" stroke="#43BAD6"/>
<circle cx="44" cy="611" r="29.5" transform="rotate(90 44 611)" stroke="#CACACA"/>
<circle cx="44" cy="611" r="9.5" transform="rotate(90 44 611)" stroke="#43BAD6"/>
<path d="M23.9893 654.779H22.7793V659.25H21.4668V649.297H22.7793V653.686H23.8047L27.2842 649.297H28.918L25.1172 654.123L29.1982 659.25H27.5918L23.9893 654.779ZM36.2666 651.854V659.25H34.9951V652.899H32.4795L32.3291 655.668C32.2471 656.939 32.0329 657.849 31.6865 658.396C31.3447 658.942 30.8001 659.227 30.0527 659.25H29.5469V658.136L29.9092 658.108C30.3193 658.063 30.6133 657.826 30.791 657.397C30.9688 656.969 31.0827 656.176 31.1328 655.019L31.2695 651.854H36.2666ZM43.082 651.854H44.3467V659.25H43.082V653.856L39.6709 659.25H38.4062V651.854H39.6709V657.254L43.082 651.854ZM49.4463 659.387C48.4437 659.387 47.6279 659.059 46.999 658.402C46.3701 657.742 46.0557 656.86 46.0557 655.757V655.524C46.0557 654.791 46.1947 654.137 46.4727 653.562C46.7552 652.984 47.1471 652.533 47.6484 652.209C48.1543 651.881 48.7012 651.717 49.2891 651.717C50.2507 651.717 50.998 652.034 51.5312 652.667C52.0645 653.3 52.3311 654.207 52.3311 655.388V655.914H47.3203C47.3385 656.643 47.5505 657.233 47.9561 657.685C48.3662 658.131 48.8857 658.354 49.5146 658.354C49.9613 658.354 50.3395 658.263 50.6494 658.081C50.9593 657.899 51.2305 657.657 51.4629 657.356L52.2354 657.958C51.6156 658.91 50.6859 659.387 49.4463 659.387ZM49.2891 652.756C48.7786 652.756 48.3503 652.943 48.0039 653.316C47.6576 653.686 47.4434 654.205 47.3613 654.875H51.0664V654.779C51.0299 654.137 50.8568 653.64 50.5469 653.289C50.237 652.934 49.8177 652.756 49.2891 652.756ZM59.8438 659.25H58.5791V656.092H55.1816V659.25H53.9102V651.854H55.1816V655.06H58.5791V651.854H59.8438V659.25ZM67.377 652.879H64.8955V659.25H63.6309V652.879H61.1973V651.854H67.377V652.879Z" fill="black"/>
<circle cx="44" cy="30" r="29.5" transform="rotate(90 44 30)" stroke="#CACACA"/>
<circle cx="44" cy="30" r="10" transform="rotate(90 44 30)" fill="#43BAD6"/>
<path d="M12.3672 68.2969L15.6211 76.418L18.875 68.2969H20.5771V78.25H19.2646V74.374L19.3877 70.1904L16.1201 78.25H15.1152L11.8545 70.2109L11.9844 74.374V78.25H10.6719V68.2969H12.3672ZM25.7656 78.3867C24.763 78.3867 23.9473 78.0586 23.3184 77.4023C22.6895 76.7415 22.375 75.8597 22.375 74.7568V74.5244C22.375 73.7907 22.514 73.1367 22.792 72.5625C23.0745 71.9837 23.4665 71.5326 23.9678 71.209C24.4736 70.8809 25.0205 70.7168 25.6084 70.7168C26.57 70.7168 27.3174 71.0335 27.8506 71.667C28.3838 72.3005 28.6504 73.2074 28.6504 74.3877V74.9141H23.6396C23.6579 75.6432 23.8698 76.2334 24.2754 76.6846C24.6855 77.1312 25.2051 77.3545 25.834 77.3545C26.2806 77.3545 26.6589 77.2633 26.9688 77.0811C27.2786 76.8988 27.5498 76.6572 27.7822 76.3564L28.5547 76.958C27.9349 77.9105 27.0052 78.3867 25.7656 78.3867ZM25.6084 71.7559C25.098 71.7559 24.6696 71.9427 24.3232 72.3164C23.9769 72.6855 23.7627 73.2051 23.6807 73.875H27.3857V73.7793C27.3493 73.1367 27.1761 72.64 26.8662 72.2891C26.5563 71.9336 26.137 71.7559 25.6084 71.7559ZM36.1631 78.25H34.8984V75.0918H31.501V78.25H30.2295V70.8535H31.501V74.0596H34.8984V70.8535H36.1631V78.25ZM41.2695 78.3867C40.2669 78.3867 39.4512 78.0586 38.8223 77.4023C38.1934 76.7415 37.8789 75.8597 37.8789 74.7568V74.5244C37.8789 73.7907 38.0179 73.1367 38.2959 72.5625C38.5785 71.9837 38.9704 71.5326 39.4717 71.209C39.9775 70.8809 40.5244 70.7168 41.1123 70.7168C42.0739 70.7168 42.8213 71.0335 43.3545 71.667C43.8877 72.3005 44.1543 73.2074 44.1543 74.3877V74.9141H39.1436C39.1618 75.6432 39.3737 76.2334 39.7793 76.6846C40.1895 77.1312 40.709 77.3545 41.3379 77.3545C41.7845 77.3545 42.1628 77.2633 42.4727 77.0811C42.7826 76.8988 43.0537 76.6572 43.2861 76.3564L44.0586 76.958C43.4388 77.9105 42.5091 78.3867 41.2695 78.3867ZM41.1123 71.7559C40.6019 71.7559 40.1735 71.9427 39.8271 72.3164C39.4808 72.6855 39.2666 73.2051 39.1846 73.875H42.8896V73.7793C42.8532 73.1367 42.68 72.64 42.3701 72.2891C42.0602 71.9336 41.641 71.7559 41.1123 71.7559ZM45.5625 77.2178L46 76.6777C46.4922 76.0397 46.7725 75.0827 46.8408 73.8066L46.957 70.8535H51.7217V77.2178H52.6719V80.4238H51.4072V78.25H46.2461V80.4238H44.9814L44.9883 77.2178H45.5625ZM47.0596 77.2178H50.457V72.0225H48.1807L48.1055 73.7861C48.028 75.2581 47.6794 76.402 47.0596 77.2178ZM59.9727 75.0371H59.084V78.25H57.8193V75.0371H56.9307L54.8594 78.25H53.2598L55.9053 74.4219L53.5127 70.8535H55.0439L56.9512 73.916H57.8193V70.8535H59.084V73.916H59.9453L61.8662 70.8535H63.3975L60.998 74.4287L63.6436 78.25H62.0439L59.9727 75.0371ZM67.7246 78.3867C66.722 78.3867 65.9062 78.0586 65.2773 77.4023C64.6484 76.7415 64.334 75.8597 64.334 74.7568V74.5244C64.334 73.7907 64.473 73.1367 64.751 72.5625C65.0335 71.9837 65.4255 71.5326 65.9268 71.209C66.4326 70.8809 66.9795 70.7168 67.5674 70.7168C68.529 70.7168 69.2764 71.0335 69.8096 71.667C70.3428 72.3005 70.6094 73.2074 70.6094 74.3877V74.9141H65.5986C65.6169 75.6432 65.8288 76.2334 66.2344 76.6846C66.6445 77.1312 67.1641 77.3545 67.793 77.3545C68.2396 77.3545 68.6178 77.2633 68.9277 77.0811C69.2376 76.8988 69.5088 76.6572 69.7412 76.3564L70.5137 76.958C69.8939 77.9105 68.9642 78.3867 67.7246 78.3867ZM67.5674 71.7559C67.057 71.7559 66.6286 71.9427 66.2822 72.3164C65.9359 72.6855 65.7217 73.2051 65.6396 73.875H69.3447V73.7793C69.3083 73.1367 69.1351 72.64 68.8252 72.2891C68.5153 71.9336 68.096 71.7559 67.5674 71.7559ZM78.3271 74.6338C78.3271 75.7594 78.0697 76.6663 77.5547 77.3545C77.0397 78.0426 76.3424 78.3867 75.4629 78.3867C74.5651 78.3867 73.8587 78.1019 73.3438 77.5322V81.0938H72.0791V70.8535H73.2344L73.2959 71.6738C73.8109 71.0358 74.5264 70.7168 75.4424 70.7168C76.3311 70.7168 77.0329 71.0518 77.5479 71.7217C78.0674 72.3916 78.3271 73.3236 78.3271 74.5176V74.6338ZM77.0625 74.4902C77.0625 73.6562 76.8848 72.9977 76.5293 72.5146C76.1738 72.0316 75.6862 71.79 75.0664 71.79C74.3008 71.79 73.7266 72.1296 73.3438 72.8086V76.3428C73.722 77.0173 74.3008 77.3545 75.0801 77.3545C75.6862 77.3545 76.167 77.1152 76.5225 76.6367C76.8825 76.1536 77.0625 75.4382 77.0625 74.4902ZM24.6855 95.25H23.4209V88.8994H20.0166V95.25H18.7451V87.8535H24.6855V95.25ZM32.9639 91.6338C32.9639 92.7594 32.7064 93.6663 32.1914 94.3545C31.6764 95.0426 30.9792 95.3867 30.0996 95.3867C29.2018 95.3867 28.4954 95.1019 27.9805 94.5322V98.0938H26.7158V87.8535H27.8711L27.9326 88.6738C28.4476 88.0358 29.1631 87.7168 30.0791 87.7168C30.9678 87.7168 31.6696 88.0518 32.1846 88.7217C32.7041 89.3916 32.9639 90.3236 32.9639 91.5176V91.6338ZM31.6992 91.4902C31.6992 90.6562 31.5215 89.9977 31.166 89.5146C30.8105 89.0316 30.3229 88.79 29.7031 88.79C28.9375 88.79 28.3633 89.1296 27.9805 89.8086V93.3428C28.3587 94.0173 28.9375 94.3545 29.7168 94.3545C30.3229 94.3545 30.8037 94.1152 31.1592 93.6367C31.5192 93.1536 31.6992 92.4382 31.6992 91.4902ZM34.2422 91.4834C34.2422 90.7588 34.3835 90.1071 34.666 89.5283C34.9531 88.9495 35.3496 88.5029 35.8555 88.1885C36.3659 87.874 36.9469 87.7168 37.5986 87.7168C38.6058 87.7168 39.4193 88.0654 40.0391 88.7627C40.6634 89.46 40.9756 90.3874 40.9756 91.5449V91.6338C40.9756 92.3538 40.8366 93.001 40.5586 93.5752C40.2852 94.1449 39.891 94.5892 39.376 94.9082C38.8656 95.2272 38.2777 95.3867 37.6123 95.3867C36.6097 95.3867 35.7962 95.0381 35.1719 94.3408C34.5521 93.6436 34.2422 92.7207 34.2422 91.5723V91.4834ZM35.5137 91.6338C35.5137 92.4541 35.7028 93.1126 36.0811 93.6094C36.4639 94.1061 36.9743 94.3545 37.6123 94.3545C38.2549 94.3545 38.7653 94.1038 39.1436 93.6025C39.5218 93.0967 39.7109 92.3903 39.7109 91.4834C39.7109 90.6722 39.5173 90.016 39.1299 89.5146C38.7471 89.0088 38.2367 88.7559 37.5986 88.7559C36.9743 88.7559 36.4707 89.0042 36.0879 89.501C35.7051 89.9977 35.5137 90.7087 35.5137 91.6338ZM45.6309 95.3867C44.6283 95.3867 43.8125 95.0586 43.1836 94.4023C42.5547 93.7415 42.2402 92.8597 42.2402 91.7568V91.5244C42.2402 90.7907 42.3792 90.1367 42.6572 89.5625C42.9398 88.9837 43.3317 88.5326 43.833 88.209C44.3389 87.8809 44.8857 87.7168 45.4736 87.7168C46.4352 87.7168 47.1826 88.0335 47.7158 88.667C48.249 89.3005 48.5156 90.2074 48.5156 91.3877V91.9141H43.5049C43.5231 92.6432 43.735 93.2334 44.1406 93.6846C44.5508 94.1312 45.0703 94.3545 45.6992 94.3545C46.1458 94.3545 46.5241 94.2633 46.834 94.0811C47.1439 93.8988 47.415 93.6572 47.6475 93.3564L48.4199 93.958C47.8001 94.9105 46.8704 95.3867 45.6309 95.3867ZM45.4736 88.7559C44.9632 88.7559 44.5348 88.9427 44.1885 89.3164C43.8421 89.6855 43.6279 90.2051 43.5459 90.875H47.251V90.7793C47.2145 90.1367 47.0413 89.64 46.7314 89.2891C46.4215 88.9336 46.0023 88.7559 45.4736 88.7559ZM52.2891 92.0986H51.3662V95.25H50.0947V87.8535H51.3662V90.9844H52.1934L54.6816 87.8535H56.2129L53.2871 91.4082L56.459 95.25H54.8525L52.2891 92.0986ZM63.042 88.8789H60.5605V95.25H59.2959V88.8789H56.8623V87.8535H63.042V88.8789ZM68.7295 95.25C68.6566 95.1042 68.5973 94.8444 68.5518 94.4707C67.9639 95.0814 67.262 95.3867 66.4463 95.3867C65.7171 95.3867 65.1178 95.1816 64.6484 94.7715C64.1836 94.3568 63.9512 93.8327 63.9512 93.1992C63.9512 92.429 64.2428 91.832 64.8262 91.4082C65.4141 90.9798 66.2389 90.7656 67.3008 90.7656H68.5312V90.1846C68.5312 89.7425 68.3991 89.3916 68.1348 89.1318C67.8704 88.8675 67.4808 88.7354 66.9658 88.7354C66.5146 88.7354 66.1364 88.8493 65.8311 89.0771C65.5257 89.305 65.373 89.5807 65.373 89.9043H64.1016C64.1016 89.5352 64.2314 89.1797 64.4912 88.8379C64.7555 88.4915 65.111 88.2181 65.5576 88.0176C66.0088 87.8171 66.5033 87.7168 67.041 87.7168C67.8932 87.7168 68.5609 87.931 69.0439 88.3594C69.527 88.7832 69.7777 89.3688 69.7959 90.1162V93.5205C69.7959 94.1995 69.8825 94.7396 70.0557 95.1406V95.25H68.7295ZM66.6309 94.2861C67.0273 94.2861 67.4033 94.1836 67.7588 93.9785C68.1143 93.7734 68.3717 93.5068 68.5312 93.1787V91.6611H67.54C65.9906 91.6611 65.2158 92.1146 65.2158 93.0215C65.2158 93.418 65.348 93.7279 65.6123 93.9512C65.8766 94.1745 66.2161 94.2861 66.6309 94.2861Z" fill="black"/>
<path d="M84 299.5C84 299.5 121 266.603 121 180.5C121 90.7045 84 61.5 84 61.5" stroke="#BEBEBE" stroke-width="2" stroke-linecap="round" stroke-dasharray="0.5 4"/>
<path d="M83.5 67.5L83.5 61.5L90 61.5" stroke="#BEBEBE" stroke-width="2" stroke-linecap="round"/>
<path d="M84 61.5C84 61.5 166 136.002 166 331C166 534.36 84 600.5 84 600.5" stroke="#BEBEBE" stroke-width="2" stroke-linecap="round" stroke-dasharray="0.5 4"/>
<path d="M90 601L84 601L84 594.5" stroke="#BEBEBE" stroke-width="2" stroke-linecap="round"/>
<path d="M43.9999 227.5L43.9999 261.5M43.9999 261.5L49 256.5M43.9999 261.5L39 256.5" stroke="#BEBEBE" stroke-width="2" stroke-linecap="round"/>
<path d="M43.9999 391.5L43.9999 425.5M43.9999 425.5L49 420.5M43.9999 425.5L39 420.5" stroke="#BEBEBE" stroke-width="2" stroke-linecap="round"/>
<circle cx="44" cy="306.5" r="30" transform="rotate(90 44 306.5)" fill="#F0F0F0"/>
<circle cx="44" cy="306.5" r="10" transform="rotate(90 44 306.5)" fill="#43BAD6"/>
<path d="M8.83984 198.297V205.064C8.83529 206.003 8.53906 206.771 7.95117 207.368C7.36784 207.965 6.57487 208.3 5.57227 208.373L5.22363 208.387C4.13444 208.387 3.26628 208.093 2.61914 207.505C1.97201 206.917 1.64388 206.108 1.63477 205.078V198.297H2.93359V205.037C2.93359 205.757 3.13184 206.318 3.52832 206.719C3.9248 207.115 4.48991 207.313 5.22363 207.313C5.96647 207.313 6.53385 207.115 6.92578 206.719C7.32227 206.322 7.52051 205.764 7.52051 205.044V198.297H8.83984ZM12.3193 208.25H11.0068V198.297H12.3193V208.25ZM17.9385 207.218L18.376 206.678C18.8682 206.04 19.1484 205.083 19.2168 203.807L19.333 200.854H24.0977V207.218H25.0479V210.424H23.7832V208.25H18.6221V210.424H17.3574L17.3643 207.218H17.9385ZM19.4355 207.218H22.833V202.022H20.5566L20.4814 203.786C20.404 205.258 20.0553 206.402 19.4355 207.218ZM31.2344 200.854H32.499V208.25H31.2344V202.856L27.8232 208.25H26.5586V200.854H27.8232V206.254L31.2344 200.854ZM38.5967 202.877C38.5967 202.531 38.4645 202.257 38.2002 202.057C37.9359 201.852 37.5736 201.749 37.1133 201.749C36.6667 201.749 36.293 201.865 35.9922 202.098C35.696 202.33 35.5479 202.604 35.5479 202.918H34.29C34.29 202.275 34.5589 201.749 35.0967 201.339C35.6344 200.929 36.3066 200.724 37.1133 200.724C37.9792 200.724 38.6536 200.91 39.1367 201.284C39.6198 201.653 39.8613 202.182 39.8613 202.87C39.8613 203.203 39.7611 203.508 39.5605 203.786C39.36 204.064 39.0752 204.285 38.7061 204.449C39.5674 204.741 39.998 205.315 39.998 206.172C39.998 206.851 39.736 207.389 39.2119 207.785C38.6878 208.182 37.9883 208.38 37.1133 208.38C36.2611 208.38 35.557 208.173 35.001 207.758C34.4495 207.339 34.1738 206.773 34.1738 206.062H35.4316C35.4316 206.423 35.5911 206.732 35.9102 206.992C36.2337 207.247 36.6348 207.375 37.1133 207.375C37.5964 207.375 37.986 207.263 38.2822 207.04C38.5785 206.817 38.7266 206.527 38.7266 206.172C38.7266 205.757 38.6012 205.461 38.3506 205.283C38.1045 205.101 37.7194 205.01 37.1953 205.01H35.9307V203.943H37.3047C38.166 203.921 38.5967 203.565 38.5967 202.877ZM47.6816 208.25H46.417V205.092H43.0195V208.25H41.748V200.854H43.0195V204.06H46.417V200.854H47.6816V208.25ZM54.2852 208.25C54.2122 208.104 54.153 207.844 54.1074 207.471C53.5195 208.081 52.8177 208.387 52.002 208.387C51.2728 208.387 50.6735 208.182 50.2041 207.771C49.7393 207.357 49.5068 206.833 49.5068 206.199C49.5068 205.429 49.7985 204.832 50.3818 204.408C50.9697 203.98 51.7946 203.766 52.8564 203.766H54.0869V203.185C54.0869 202.743 53.9548 202.392 53.6904 202.132C53.4261 201.868 53.0365 201.735 52.5215 201.735C52.0703 201.735 51.6921 201.849 51.3867 202.077C51.0814 202.305 50.9287 202.581 50.9287 202.904H49.6572C49.6572 202.535 49.7871 202.18 50.0469 201.838C50.3112 201.492 50.6667 201.218 51.1133 201.018C51.5645 200.817 52.0589 200.717 52.5967 200.717C53.4489 200.717 54.1165 200.931 54.5996 201.359C55.0827 201.783 55.3333 202.369 55.3516 203.116V206.521C55.3516 207.2 55.4382 207.74 55.6113 208.141V208.25H54.2852ZM52.1865 207.286C52.583 207.286 52.959 207.184 53.3145 206.979C53.6699 206.773 53.9274 206.507 54.0869 206.179V204.661H53.0957C51.5462 204.661 50.7715 205.115 50.7715 206.021C50.7715 206.418 50.9036 206.728 51.168 206.951C51.4323 207.174 51.7718 207.286 52.1865 207.286ZM62.1191 200.854H63.3838V208.25H62.1191V202.856L58.708 208.25H57.4434V200.854H58.708V206.254L62.1191 200.854ZM62.4609 198.16C62.4609 198.712 62.2718 199.156 61.8936 199.493C61.5199 199.826 61.0277 199.992 60.417 199.992C59.8063 199.992 59.3118 199.824 58.9336 199.486C58.5553 199.149 58.3662 198.707 58.3662 198.16H59.3984C59.3984 198.479 59.485 198.73 59.6582 198.912C59.8314 199.09 60.0843 199.179 60.417 199.179C60.736 199.179 60.9844 199.09 61.1621 198.912C61.3444 198.734 61.4355 198.484 61.4355 198.16H62.4609ZM71.457 208.25H70.1924V205.092H66.7949V208.25H65.5234V200.854H66.7949V204.06H70.1924V200.854H71.457V208.25ZM76.5635 208.387C75.5609 208.387 74.7451 208.059 74.1162 207.402C73.4873 206.742 73.1729 205.86 73.1729 204.757V204.524C73.1729 203.791 73.3118 203.137 73.5898 202.562C73.8724 201.984 74.2643 201.533 74.7656 201.209C75.2715 200.881 75.8184 200.717 76.4062 200.717C77.3678 200.717 78.1152 201.034 78.6484 201.667C79.1816 202.3 79.4482 203.207 79.4482 204.388V204.914H74.4375C74.4557 205.643 74.6676 206.233 75.0732 206.685C75.4834 207.131 76.0029 207.354 76.6318 207.354C77.0785 207.354 77.4567 207.263 77.7666 207.081C78.0765 206.899 78.3477 206.657 78.5801 206.356L79.3525 206.958C78.7327 207.91 77.8031 208.387 76.5635 208.387ZM76.4062 201.756C75.8958 201.756 75.4674 201.943 75.1211 202.316C74.7747 202.686 74.5605 203.205 74.4785 203.875H78.1836V203.779C78.1471 203.137 77.974 202.64 77.6641 202.289C77.3542 201.934 76.9349 201.756 76.4062 201.756ZM87.166 204.634C87.166 205.759 86.9085 206.666 86.3936 207.354C85.8786 208.043 85.1813 208.387 84.3018 208.387C83.404 208.387 82.6976 208.102 82.1826 207.532V211.094H80.918V200.854H82.0732L82.1348 201.674C82.6497 201.036 83.3652 200.717 84.2812 200.717C85.1699 200.717 85.8717 201.052 86.3867 201.722C86.9062 202.392 87.166 203.324 87.166 204.518V204.634ZM85.9014 204.49C85.9014 203.656 85.7236 202.998 85.3682 202.515C85.0127 202.032 84.5251 201.79 83.9053 201.79C83.1396 201.79 82.5654 202.13 82.1826 202.809V206.343C82.5609 207.017 83.1396 207.354 83.9189 207.354C84.5251 207.354 85.0059 207.115 85.3613 206.637C85.7214 206.154 85.9014 205.438 85.9014 204.49Z" fill="black"/>
<circle cx="44" cy="160" r="30" transform="rotate(90 44 160)" fill="#43BAD6"/>
<circle cx="44" cy="160" r="10" transform="rotate(90 44 160)" fill="white"/>
<path d="M20.9395 350.854H16.7627V355.25H15.4502V345.297H21.6162V346.377H16.7627V349.781H20.9395V350.854ZM26.3877 348.988C26.1963 348.956 25.9889 348.94 25.7656 348.94C24.9362 348.94 24.3734 349.294 24.0771 350V355.25H22.8125V347.854H24.043L24.0635 348.708C24.4782 348.047 25.0661 347.717 25.8271 347.717C26.0732 347.717 26.2601 347.749 26.3877 347.812V348.988ZM27.085 351.483C27.085 350.759 27.2262 350.107 27.5088 349.528C27.7959 348.95 28.1924 348.503 28.6982 348.188C29.2087 347.874 29.7897 347.717 30.4414 347.717C31.4486 347.717 32.262 348.065 32.8818 348.763C33.5062 349.46 33.8184 350.387 33.8184 351.545V351.634C33.8184 352.354 33.6794 353.001 33.4014 353.575C33.1279 354.145 32.7337 354.589 32.2188 354.908C31.7083 355.227 31.1204 355.387 30.4551 355.387C29.4525 355.387 28.639 355.038 28.0146 354.341C27.3949 353.644 27.085 352.721 27.085 351.572V351.483ZM28.3564 351.634C28.3564 352.454 28.5456 353.113 28.9238 353.609C29.3066 354.106 29.8171 354.354 30.4551 354.354C31.0977 354.354 31.6081 354.104 31.9863 353.603C32.3646 353.097 32.5537 352.39 32.5537 351.483C32.5537 350.672 32.36 350.016 31.9727 349.515C31.5898 349.009 31.0794 348.756 30.4414 348.756C29.8171 348.756 29.3135 349.004 28.9307 349.501C28.5479 349.998 28.3564 350.709 28.3564 351.634ZM36.6006 347.854L36.6416 348.783C37.2067 348.072 37.945 347.717 38.8564 347.717C40.4196 347.717 41.208 348.599 41.2217 350.362V355.25H39.957V350.355C39.9525 349.822 39.8294 349.428 39.5879 349.173C39.3509 348.918 38.9795 348.79 38.4736 348.79C38.0635 348.79 37.7035 348.899 37.3936 349.118C37.0837 349.337 36.8421 349.624 36.6689 349.979V355.25H35.4043V347.854H36.6006ZM44.8447 346.062V347.854H46.2256V348.831H44.8447V353.418C44.8447 353.714 44.9062 353.938 45.0293 354.088C45.1523 354.234 45.362 354.307 45.6582 354.307C45.804 354.307 46.0046 354.279 46.2598 354.225V355.25C45.9271 355.341 45.6035 355.387 45.2891 355.387C44.724 355.387 44.2979 355.216 44.0107 354.874C43.7236 354.532 43.5801 354.047 43.5801 353.418V348.831H42.2334V347.854H43.5801V346.062H44.8447ZM50.3408 351.538H47.0049V350.506H50.3408V351.538ZM57.4023 350.649H53.0889V354.177H58.0996V355.25H51.7764V345.297H58.0312V346.377H53.0889V349.576H57.4023V350.649ZM60.7314 347.854L60.7725 348.783C61.3376 348.072 62.0758 347.717 62.9873 347.717C64.5505 347.717 65.3389 348.599 65.3525 350.362V355.25H64.0879V350.355C64.0833 349.822 63.9603 349.428 63.7188 349.173C63.4818 348.918 63.1104 348.79 62.6045 348.79C62.1943 348.79 61.8343 348.899 61.5244 349.118C61.2145 349.337 60.973 349.624 60.7998 349.979V355.25H59.5352V347.854H60.7314ZM66.9521 351.49C66.9521 350.355 67.221 349.444 67.7588 348.756C68.2965 348.063 69.0007 347.717 69.8711 347.717C70.737 347.717 71.4229 348.013 71.9287 348.605V344.75H73.1934V355.25H72.0312L71.9697 354.457C71.4639 355.077 70.7598 355.387 69.8574 355.387C69.0007 355.387 68.3011 355.036 67.7588 354.334C67.221 353.632 66.9521 352.716 66.9521 351.586V351.49ZM68.2168 351.634C68.2168 352.472 68.39 353.129 68.7363 353.603C69.0827 354.076 69.5612 354.313 70.1719 354.313C70.974 354.313 71.5596 353.953 71.9287 353.233V349.836C71.5505 349.139 70.9694 348.79 70.1855 348.79C69.5658 348.79 69.0827 349.029 68.7363 349.508C68.39 349.986 68.2168 350.695 68.2168 351.634ZM9.64648 368.634C9.64648 369.759 9.389 370.666 8.87402 371.354C8.35905 372.043 7.66178 372.387 6.78223 372.387C5.88444 372.387 5.17806 372.102 4.66309 371.532V375.094H3.39844V364.854H4.55371L4.61523 365.674C5.13021 365.036 5.8457 364.717 6.76172 364.717C7.65039 364.717 8.35221 365.052 8.86719 365.722C9.38672 366.392 9.64648 367.324 9.64648 368.518V368.634ZM8.38184 368.49C8.38184 367.656 8.2041 366.998 7.84863 366.515C7.49316 366.032 7.00553 365.79 6.38574 365.79C5.62012 365.79 5.0459 366.13 4.66309 366.809V370.343C5.04134 371.017 5.62012 371.354 6.39941 371.354C7.00553 371.354 7.48633 371.115 7.8418 370.637C8.20182 370.154 8.38184 369.438 8.38184 368.49ZM15.8262 372.25C15.7533 372.104 15.694 371.844 15.6484 371.471C15.0605 372.081 14.3587 372.387 13.543 372.387C12.8138 372.387 12.2145 372.182 11.7451 371.771C11.2803 371.357 11.0479 370.833 11.0479 370.199C11.0479 369.429 11.3395 368.832 11.9229 368.408C12.5107 367.98 13.3356 367.766 14.3975 367.766H15.6279V367.185C15.6279 366.743 15.4958 366.392 15.2314 366.132C14.9671 365.868 14.5775 365.735 14.0625 365.735C13.6113 365.735 13.2331 365.849 12.9277 366.077C12.6224 366.305 12.4697 366.581 12.4697 366.904H11.1982C11.1982 366.535 11.3281 366.18 11.5879 365.838C11.8522 365.492 12.2077 365.218 12.6543 365.018C13.1055 364.817 13.5999 364.717 14.1377 364.717C14.9899 364.717 15.6576 364.931 16.1406 365.359C16.6237 365.783 16.8743 366.369 16.8926 367.116V370.521C16.8926 371.2 16.9792 371.74 17.1523 372.141V372.25H15.8262ZM13.7275 371.286C14.124 371.286 14.5 371.184 14.8555 370.979C15.2109 370.773 15.4684 370.507 15.6279 370.179V368.661H14.6367C13.0872 368.661 12.3125 369.115 12.3125 370.021C12.3125 370.418 12.4447 370.728 12.709 370.951C12.9733 371.174 13.3128 371.286 13.7275 371.286ZM22.9424 366.877C22.9424 366.531 22.8102 366.257 22.5459 366.057C22.2816 365.852 21.9193 365.749 21.459 365.749C21.0124 365.749 20.6387 365.865 20.3379 366.098C20.0417 366.33 19.8936 366.604 19.8936 366.918H18.6357C18.6357 366.275 18.9046 365.749 19.4424 365.339C19.9801 364.929 20.6523 364.724 21.459 364.724C22.3249 364.724 22.9993 364.91 23.4824 365.284C23.9655 365.653 24.207 366.182 24.207 366.87C24.207 367.203 24.1068 367.508 23.9062 367.786C23.7057 368.064 23.4209 368.285 23.0518 368.449C23.9131 368.741 24.3438 369.315 24.3438 370.172C24.3438 370.851 24.0817 371.389 23.5576 371.785C23.0335 372.182 22.334 372.38 21.459 372.38C20.6068 372.38 19.9027 372.173 19.3467 371.758C18.7952 371.339 18.5195 370.773 18.5195 370.062H19.7773C19.7773 370.423 19.9368 370.732 20.2559 370.992C20.5794 371.247 20.9805 371.375 21.459 371.375C21.9421 371.375 22.3317 371.263 22.6279 371.04C22.9242 370.817 23.0723 370.527 23.0723 370.172C23.0723 369.757 22.9469 369.461 22.6963 369.283C22.4502 369.101 22.0651 369.01 21.541 369.01H20.2764V367.943H21.6504C22.5117 367.921 22.9424 367.565 22.9424 366.877ZM32.2324 368.634C32.2324 369.759 31.9749 370.666 31.46 371.354C30.945 372.043 30.2477 372.387 29.3682 372.387C28.4704 372.387 27.764 372.102 27.249 371.532V375.094H25.9844V364.854H27.1396L27.2012 365.674C27.7161 365.036 28.4316 364.717 29.3477 364.717C30.2363 364.717 30.9382 365.052 31.4531 365.722C31.9727 366.392 32.2324 367.324 32.2324 368.518V368.634ZM30.9678 368.49C30.9678 367.656 30.79 366.998 30.4346 366.515C30.0791 366.032 29.5915 365.79 28.9717 365.79C28.2061 365.79 27.6318 366.13 27.249 366.809V370.343C27.6273 371.017 28.2061 371.354 28.9854 371.354C29.5915 371.354 30.0723 371.115 30.4277 370.637C30.7878 370.154 30.9678 369.438 30.9678 368.49ZM38.4121 372.25C38.3392 372.104 38.2799 371.844 38.2344 371.471C37.6465 372.081 36.9447 372.387 36.1289 372.387C35.3997 372.387 34.8005 372.182 34.3311 371.771C33.8662 371.357 33.6338 370.833 33.6338 370.199C33.6338 369.429 33.9255 368.832 34.5088 368.408C35.0967 367.98 35.9215 367.766 36.9834 367.766H38.2139V367.185C38.2139 366.743 38.0817 366.392 37.8174 366.132C37.5531 365.868 37.1634 365.735 36.6484 365.735C36.1973 365.735 35.819 365.849 35.5137 366.077C35.2083 366.305 35.0557 366.581 35.0557 366.904H33.7842C33.7842 366.535 33.9141 366.18 34.1738 365.838C34.4382 365.492 34.7936 365.218 35.2402 365.018C35.6914 364.817 36.1859 364.717 36.7236 364.717C37.5758 364.717 38.2435 364.931 38.7266 365.359C39.2096 365.783 39.4603 366.369 39.4785 367.116V370.521C39.4785 371.2 39.5651 371.74 39.7383 372.141V372.25H38.4121ZM36.3135 371.286C36.71 371.286 37.0859 371.184 37.4414 370.979C37.7969 370.773 38.0544 370.507 38.2139 370.179V368.661H37.2227C35.6732 368.661 34.8984 369.115 34.8984 370.021C34.8984 370.418 35.0306 370.728 35.2949 370.951C35.5592 371.174 35.8988 371.286 36.3135 371.286ZM44.708 365.277C45.6377 365.277 46.3805 365.59 46.9365 366.214C47.4971 366.834 47.7773 367.652 47.7773 368.668V368.784C47.7773 369.481 47.6429 370.106 47.374 370.657C47.1051 371.204 46.7178 371.63 46.2119 371.936C45.7106 372.236 45.1318 372.387 44.4756 372.387C43.4821 372.387 42.6823 372.056 42.0762 371.396C41.4701 370.73 41.167 369.839 41.167 368.723V368.107C41.167 366.553 41.4541 365.318 42.0283 364.402C42.6071 363.486 43.4593 362.928 44.585 362.728C45.223 362.614 45.6536 362.475 45.877 362.311C46.1003 362.146 46.2119 361.921 46.2119 361.634H47.251C47.251 362.203 47.1211 362.648 46.8613 362.967C46.6061 363.286 46.196 363.511 45.6309 363.644L44.6875 363.855C43.9355 364.033 43.3704 364.334 42.9922 364.758C42.6185 365.177 42.3747 365.738 42.2607 366.439C42.9307 365.665 43.7464 365.277 44.708 365.277ZM44.4619 366.316C43.8421 366.316 43.3499 366.526 42.9854 366.945C42.6208 367.36 42.4385 367.937 42.4385 368.675V368.784C42.4385 369.577 42.6208 370.206 42.9854 370.671C43.3545 371.131 43.8512 371.361 44.4756 371.361C45.1045 371.361 45.6012 371.129 45.9658 370.664C46.3304 370.199 46.5127 369.52 46.5127 368.627C46.5127 367.93 46.3281 367.371 45.959 366.952C45.5944 366.528 45.0954 366.316 44.4619 366.316ZM48.8643 368.483C48.8643 367.759 49.0055 367.107 49.2881 366.528C49.5752 365.95 49.9717 365.503 50.4775 365.188C50.988 364.874 51.569 364.717 52.2207 364.717C53.2279 364.717 54.0413 365.065 54.6611 365.763C55.2855 366.46 55.5977 367.387 55.5977 368.545V368.634C55.5977 369.354 55.4587 370.001 55.1807 370.575C54.9072 371.145 54.513 371.589 53.998 371.908C53.4876 372.227 52.8997 372.387 52.2344 372.387C51.2318 372.387 50.4183 372.038 49.7939 371.341C49.1742 370.644 48.8643 369.721 48.8643 368.572V368.483ZM50.1357 368.634C50.1357 369.454 50.3249 370.113 50.7031 370.609C51.0859 371.106 51.5964 371.354 52.2344 371.354C52.877 371.354 53.3874 371.104 53.7656 370.603C54.1439 370.097 54.333 369.39 54.333 368.483C54.333 367.672 54.1393 367.016 53.752 366.515C53.3691 366.009 52.8587 365.756 52.2207 365.756C51.5964 365.756 51.0928 366.004 50.71 366.501C50.3271 366.998 50.1357 367.709 50.1357 368.634ZM62.5293 365.879H60.0479V372.25H58.7832V365.879H56.3496V364.854H62.5293V365.879ZM69.3447 372.25H68.0732V369.57C67.5173 369.716 66.9476 369.789 66.3643 369.789C65.4391 369.789 64.7327 369.552 64.2451 369.078C63.762 368.604 63.516 367.93 63.5068 367.055V364.847H64.7715V367.096C64.7943 368.199 65.3252 368.75 66.3643 368.75C66.9476 368.75 67.5173 368.677 68.0732 368.531V364.854H69.3447V372.25ZM76.1602 364.854H77.4248V372.25H76.1602V366.856L72.749 372.25H71.4844V364.854H72.749V370.254L76.1602 364.854ZM81.7588 369.099H80.8359V372.25H79.5645V364.854H80.8359V367.984H81.6631L84.1514 364.854H85.6826L82.7568 368.408L85.9287 372.25H84.3223L81.7588 369.099Z" fill="black"/>
<path d="M15.2979 519.25V509.297H18.5518C19.6318 509.297 20.443 509.52 20.9854 509.967C21.5322 510.413 21.8057 511.074 21.8057 511.949C21.8057 512.414 21.6735 512.826 21.4092 513.187C21.1449 513.542 20.7848 513.818 20.3291 514.014C20.8669 514.164 21.2907 514.451 21.6006 514.875C21.915 515.294 22.0723 515.796 22.0723 516.379C22.0723 517.272 21.7829 517.974 21.2041 518.484C20.6253 518.995 19.8073 519.25 18.75 519.25H15.2979ZM16.6104 514.595V518.177H18.7773C19.388 518.177 19.8688 518.02 20.2197 517.705C20.5752 517.386 20.7529 516.949 20.7529 516.393C20.7529 515.194 20.1012 514.595 18.7979 514.595H16.6104ZM16.6104 513.542H18.5928C19.167 513.542 19.625 513.398 19.9668 513.111C20.3132 512.824 20.4863 512.435 20.4863 511.942C20.4863 511.396 20.3268 510.999 20.0078 510.753C19.6888 510.502 19.2035 510.377 18.5518 510.377H16.6104V513.542ZM28.3887 519.25C28.3158 519.104 28.2565 518.844 28.2109 518.471C27.623 519.081 26.9212 519.387 26.1055 519.387C25.3763 519.387 24.777 519.182 24.3076 518.771C23.8428 518.357 23.6104 517.833 23.6104 517.199C23.6104 516.429 23.902 515.832 24.4854 515.408C25.0732 514.98 25.8981 514.766 26.96 514.766H28.1904V514.185C28.1904 513.743 28.0583 513.392 27.7939 513.132C27.5296 512.868 27.14 512.735 26.625 512.735C26.1738 512.735 25.7956 512.849 25.4902 513.077C25.1849 513.305 25.0322 513.581 25.0322 513.904H23.7607C23.7607 513.535 23.8906 513.18 24.1504 512.838C24.4147 512.492 24.7702 512.218 25.2168 512.018C25.668 511.817 26.1624 511.717 26.7002 511.717C27.5524 511.717 28.2201 511.931 28.7031 512.359C29.1862 512.783 29.4368 513.369 29.4551 514.116V517.521C29.4551 518.2 29.5417 518.74 29.7148 519.141V519.25H28.3887ZM26.29 518.286C26.6865 518.286 27.0625 518.184 27.418 517.979C27.7734 517.773 28.0309 517.507 28.1904 517.179V515.661H27.1992C25.6497 515.661 24.875 516.115 24.875 517.021C24.875 517.418 25.0072 517.728 25.2715 517.951C25.5358 518.174 25.8753 518.286 26.29 518.286ZM34.4043 518.354C34.8555 518.354 35.2497 518.218 35.5869 517.944C35.9242 517.671 36.111 517.329 36.1475 516.919H37.3438C37.321 517.343 37.1751 517.746 36.9062 518.129C36.6374 518.512 36.2773 518.817 35.8262 519.045C35.3796 519.273 34.9056 519.387 34.4043 519.387C33.3971 519.387 32.5951 519.052 31.998 518.382C31.4056 517.707 31.1094 516.787 31.1094 515.62V515.408C31.1094 514.688 31.2415 514.048 31.5059 513.487C31.7702 512.927 32.1484 512.492 32.6406 512.182C33.1374 511.872 33.723 511.717 34.3975 511.717C35.2269 511.717 35.915 511.965 36.4619 512.462C37.0133 512.959 37.3073 513.604 37.3438 514.396H36.1475C36.111 513.918 35.9287 513.526 35.6006 513.221C35.277 512.911 34.876 512.756 34.3975 512.756C33.7549 512.756 33.2559 512.988 32.9004 513.453C32.5495 513.913 32.374 514.581 32.374 515.456V515.695C32.374 516.548 32.5495 517.204 32.9004 517.664C33.2513 518.124 33.7526 518.354 34.4043 518.354ZM40.8301 515.825L40.0371 516.652V519.25H38.7725V508.75H40.0371V515.101L40.7139 514.287L43.0176 511.854H44.5557L41.6777 514.943L44.8906 519.25H43.4072L40.8301 515.825ZM48.4932 515.538H45.1572V514.506H48.4932V515.538ZM55.5547 514.649H51.2412V518.177H56.252V519.25H49.9287V509.297H56.1836V510.377H51.2412V513.576H55.5547V514.649ZM58.8838 511.854L58.9248 512.783C59.4899 512.072 60.2282 511.717 61.1396 511.717C62.7028 511.717 63.4912 512.599 63.5049 514.362V519.25H62.2402V514.355C62.2357 513.822 62.1126 513.428 61.8711 513.173C61.6341 512.918 61.2627 512.79 60.7568 512.79C60.3467 512.79 59.9867 512.899 59.6768 513.118C59.3669 513.337 59.1253 513.624 58.9521 513.979V519.25H57.6875V511.854H58.8838ZM65.1045 515.49C65.1045 514.355 65.3734 513.444 65.9111 512.756C66.4489 512.063 67.153 511.717 68.0234 511.717C68.8893 511.717 69.5752 512.013 70.0811 512.605V508.75H71.3457V519.25H70.1836L70.1221 518.457C69.6162 519.077 68.9121 519.387 68.0098 519.387C67.153 519.387 66.4535 519.036 65.9111 518.334C65.3734 517.632 65.1045 516.716 65.1045 515.586V515.49ZM66.3691 515.634C66.3691 516.472 66.5423 517.129 66.8887 517.603C67.235 518.076 67.7135 518.313 68.3242 518.313C69.1263 518.313 69.7119 517.953 70.0811 517.233V513.836C69.7028 513.139 69.1217 512.79 68.3379 512.79C67.7181 512.79 67.235 513.029 66.8887 513.508C66.5423 513.986 66.3691 514.695 66.3691 515.634ZM8.64648 532.634C8.64648 533.759 8.389 534.666 7.87402 535.354C7.35905 536.043 6.66178 536.387 5.78223 536.387C4.88444 536.387 4.17806 536.102 3.66309 535.532V539.094H2.39844V528.854H3.55371L3.61523 529.674C4.13021 529.036 4.8457 528.717 5.76172 528.717C6.65039 528.717 7.35221 529.052 7.86719 529.722C8.38672 530.392 8.64648 531.324 8.64648 532.518V532.634ZM7.38184 532.49C7.38184 531.656 7.2041 530.998 6.84863 530.515C6.49316 530.032 6.00553 529.79 5.38574 529.79C4.62012 529.79 4.0459 530.13 3.66309 530.809V534.343C4.04134 535.017 4.62012 535.354 5.39941 535.354C6.00553 535.354 6.48633 535.115 6.8418 534.637C7.20182 534.154 7.38184 533.438 7.38184 532.49ZM14.8262 536.25C14.7533 536.104 14.694 535.844 14.6484 535.471C14.0605 536.081 13.3587 536.387 12.543 536.387C11.8138 536.387 11.2145 536.182 10.7451 535.771C10.2803 535.357 10.0479 534.833 10.0479 534.199C10.0479 533.429 10.3395 532.832 10.9229 532.408C11.5107 531.98 12.3356 531.766 13.3975 531.766H14.6279V531.185C14.6279 530.743 14.4958 530.392 14.2314 530.132C13.9671 529.868 13.5775 529.735 13.0625 529.735C12.6113 529.735 12.2331 529.849 11.9277 530.077C11.6224 530.305 11.4697 530.581 11.4697 530.904H10.1982C10.1982 530.535 10.3281 530.18 10.5879 529.838C10.8522 529.492 11.2077 529.218 11.6543 529.018C12.1055 528.817 12.5999 528.717 13.1377 528.717C13.9899 528.717 14.6576 528.931 15.1406 529.359C15.6237 529.783 15.8743 530.369 15.8926 531.116V534.521C15.8926 535.2 15.9792 535.74 16.1523 536.141V536.25H14.8262ZM12.7275 535.286C13.124 535.286 13.5 535.184 13.8555 534.979C14.2109 534.773 14.4684 534.507 14.6279 534.179V532.661H13.6367C12.0872 532.661 11.3125 533.115 11.3125 534.021C11.3125 534.418 11.4447 534.728 11.709 534.951C11.9733 535.174 12.3128 535.286 12.7275 535.286ZM21.9424 530.877C21.9424 530.531 21.8102 530.257 21.5459 530.057C21.2816 529.852 20.9193 529.749 20.459 529.749C20.0124 529.749 19.6387 529.865 19.3379 530.098C19.0417 530.33 18.8936 530.604 18.8936 530.918H17.6357C17.6357 530.275 17.9046 529.749 18.4424 529.339C18.9801 528.929 19.6523 528.724 20.459 528.724C21.3249 528.724 21.9993 528.91 22.4824 529.284C22.9655 529.653 23.207 530.182 23.207 530.87C23.207 531.203 23.1068 531.508 22.9062 531.786C22.7057 532.064 22.4209 532.285 22.0518 532.449C22.9131 532.741 23.3438 533.315 23.3438 534.172C23.3438 534.851 23.0817 535.389 22.5576 535.785C22.0335 536.182 21.334 536.38 20.459 536.38C19.6068 536.38 18.9027 536.173 18.3467 535.758C17.7952 535.339 17.5195 534.773 17.5195 534.062H18.7773C18.7773 534.423 18.9368 534.732 19.2559 534.992C19.5794 535.247 19.9805 535.375 20.459 535.375C20.9421 535.375 21.3317 535.263 21.6279 535.04C21.9242 534.817 22.0723 534.527 22.0723 534.172C22.0723 533.757 21.9469 533.461 21.6963 533.283C21.4502 533.101 21.0651 533.01 20.541 533.01H19.2764V531.943H20.6504C21.5117 531.921 21.9424 531.565 21.9424 530.877ZM31.2324 532.634C31.2324 533.759 30.9749 534.666 30.46 535.354C29.945 536.043 29.2477 536.387 28.3682 536.387C27.4704 536.387 26.764 536.102 26.249 535.532V539.094H24.9844V528.854H26.1396L26.2012 529.674C26.7161 529.036 27.4316 528.717 28.3477 528.717C29.2363 528.717 29.9382 529.052 30.4531 529.722C30.9727 530.392 31.2324 531.324 31.2324 532.518V532.634ZM29.9678 532.49C29.9678 531.656 29.79 530.998 29.4346 530.515C29.0791 530.032 28.5915 529.79 27.9717 529.79C27.2061 529.79 26.6318 530.13 26.249 530.809V534.343C26.6273 535.017 27.2061 535.354 27.9854 535.354C28.5915 535.354 29.0723 535.115 29.4277 534.637C29.7878 534.154 29.9678 533.438 29.9678 532.49ZM37.4121 536.25C37.3392 536.104 37.2799 535.844 37.2344 535.471C36.6465 536.081 35.9447 536.387 35.1289 536.387C34.3997 536.387 33.8005 536.182 33.3311 535.771C32.8662 535.357 32.6338 534.833 32.6338 534.199C32.6338 533.429 32.9255 532.832 33.5088 532.408C34.0967 531.98 34.9215 531.766 35.9834 531.766H37.2139V531.185C37.2139 530.743 37.0817 530.392 36.8174 530.132C36.5531 529.868 36.1634 529.735 35.6484 529.735C35.1973 529.735 34.819 529.849 34.5137 530.077C34.2083 530.305 34.0557 530.581 34.0557 530.904H32.7842C32.7842 530.535 32.9141 530.18 33.1738 529.838C33.4382 529.492 33.7936 529.218 34.2402 529.018C34.6914 528.817 35.1859 528.717 35.7236 528.717C36.5758 528.717 37.2435 528.931 37.7266 529.359C38.2096 529.783 38.4603 530.369 38.4785 531.116V534.521C38.4785 535.2 38.5651 535.74 38.7383 536.141V536.25H37.4121ZM35.3135 535.286C35.71 535.286 36.0859 535.184 36.4414 534.979C36.7969 534.773 37.0544 534.507 37.2139 534.179V532.661H36.2227C34.6732 532.661 33.8984 533.115 33.8984 534.021C33.8984 534.418 34.0306 534.728 34.2949 534.951C34.5592 535.174 34.8988 535.286 35.3135 535.286ZM43.708 529.277C44.6377 529.277 45.3805 529.59 45.9365 530.214C46.4971 530.834 46.7773 531.652 46.7773 532.668V532.784C46.7773 533.481 46.6429 534.106 46.374 534.657C46.1051 535.204 45.7178 535.63 45.2119 535.936C44.7106 536.236 44.1318 536.387 43.4756 536.387C42.4821 536.387 41.6823 536.056 41.0762 535.396C40.4701 534.73 40.167 533.839 40.167 532.723V532.107C40.167 530.553 40.4541 529.318 41.0283 528.402C41.6071 527.486 42.4593 526.928 43.585 526.728C44.223 526.614 44.6536 526.475 44.877 526.311C45.1003 526.146 45.2119 525.921 45.2119 525.634H46.251C46.251 526.203 46.1211 526.648 45.8613 526.967C45.6061 527.286 45.196 527.511 44.6309 527.644L43.6875 527.855C42.9355 528.033 42.3704 528.334 41.9922 528.758C41.6185 529.177 41.3747 529.738 41.2607 530.439C41.9307 529.665 42.7464 529.277 43.708 529.277ZM43.4619 530.316C42.8421 530.316 42.3499 530.526 41.9854 530.945C41.6208 531.36 41.4385 531.937 41.4385 532.675V532.784C41.4385 533.577 41.6208 534.206 41.9854 534.671C42.3545 535.131 42.8512 535.361 43.4756 535.361C44.1045 535.361 44.6012 535.129 44.9658 534.664C45.3304 534.199 45.5127 533.52 45.5127 532.627C45.5127 531.93 45.3281 531.371 44.959 530.952C44.5944 530.528 44.0954 530.316 43.4619 530.316ZM47.8643 532.483C47.8643 531.759 48.0055 531.107 48.2881 530.528C48.5752 529.95 48.9717 529.503 49.4775 529.188C49.988 528.874 50.569 528.717 51.2207 528.717C52.2279 528.717 53.0413 529.065 53.6611 529.763C54.2855 530.46 54.5977 531.387 54.5977 532.545V532.634C54.5977 533.354 54.4587 534.001 54.1807 534.575C53.9072 535.145 53.513 535.589 52.998 535.908C52.4876 536.227 51.8997 536.387 51.2344 536.387C50.2318 536.387 49.4183 536.038 48.7939 535.341C48.1742 534.644 47.8643 533.721 47.8643 532.572V532.483ZM49.1357 532.634C49.1357 533.454 49.3249 534.113 49.7031 534.609C50.0859 535.106 50.5964 535.354 51.2344 535.354C51.877 535.354 52.3874 535.104 52.7656 534.603C53.1439 534.097 53.333 533.39 53.333 532.483C53.333 531.672 53.1393 531.016 52.752 530.515C52.3691 530.009 51.8587 529.756 51.2207 529.756C50.5964 529.756 50.0928 530.004 49.71 530.501C49.3271 530.998 49.1357 531.709 49.1357 532.634ZM61.5293 529.879H59.0479V536.25H57.7832V529.879H55.3496V528.854H61.5293V529.879ZM68.3447 536.25H67.0732V533.57C66.5173 533.716 65.9476 533.789 65.3643 533.789C64.4391 533.789 63.7327 533.552 63.2451 533.078C62.762 532.604 62.516 531.93 62.5068 531.055V528.847H63.7715V531.096C63.7943 532.199 64.3252 532.75 65.3643 532.75C65.9476 532.75 66.5173 532.677 67.0732 532.531V528.854H68.3447V536.25ZM75.1602 528.854H76.4248V536.25H75.1602V530.856L71.749 536.25H70.4844V528.854H71.749V534.254L75.1602 528.854ZM80.7588 533.099H79.8359V536.25H78.5645V528.854H79.8359V531.984H80.6631L83.1514 528.854H84.6826L81.7568 532.408L84.9287 536.25H83.3223L80.7588 533.099Z" fill="black"/>
</svg>
