<svg width="124" height="398" viewBox="0 0 124 398" fill="none" xmlns="http://www.w3.org/2000/svg">
<path d="M80 162C80 162 100 146.381 100 105.5C100 62.866 82 50 82 50" stroke="#BEBEBE" stroke-width="2" stroke-linecap="round" stroke-dasharray="0.5 4"/>
<path d="M82 50C82 50 123 89.67 123 193.5C123 301.783 82 337 82 337" stroke="#BEBEBE" stroke-width="2" stroke-linecap="round" stroke-dasharray="0.5 4"/>
<path d="M88 50L82 50L82 56.5" stroke="#BEBEBE" stroke-width="2" stroke-linecap="round"/>
<path d="M88.5 337L82 337L82 330.5" stroke="#BEBEBE" stroke-width="2" stroke-linecap="round"/>
<path d="M40.9999 119L40.9999 149M40.9999 149L46 144.588M40.9999 149L36 144.588" stroke="#BEBEBE" stroke-width="2" stroke-linecap="round"/>
<circle cx="42" cy="341" r="29.5" stroke="#CACACA"/>
<circle cx="42" cy="341" r="9.5" stroke="#43BAD6"/>
<path d="M21.7393 389.529H20.5293V394H19.2168V384.047H20.5293V388.436H21.5547L25.0342 384.047H26.668L22.8672 388.873L26.9482 394H25.3418L21.7393 389.529ZM34.0166 386.604V394H32.7451V387.649H30.2295L30.0791 390.418C29.9971 391.689 29.7829 392.599 29.4365 393.146C29.0947 393.692 28.5501 393.977 27.8027 394H27.2969V392.886L27.6592 392.858C28.0693 392.813 28.3633 392.576 28.541 392.147C28.7188 391.719 28.8327 390.926 28.8828 389.769L29.0195 386.604H34.0166ZM40.832 386.604H42.0967V394H40.832V388.606L37.4209 394H36.1562V386.604H37.4209V392.004L40.832 386.604ZM47.1963 394.137C46.1937 394.137 45.3779 393.809 44.749 393.152C44.1201 392.492 43.8057 391.61 43.8057 390.507V390.274C43.8057 389.541 43.9447 388.887 44.2227 388.312C44.5052 387.734 44.8971 387.283 45.3984 386.959C45.9043 386.631 46.4512 386.467 47.0391 386.467C48.0007 386.467 48.748 386.784 49.2812 387.417C49.8145 388.05 50.0811 388.957 50.0811 390.138V390.664H45.0703C45.0885 391.393 45.3005 391.983 45.7061 392.435C46.1162 392.881 46.6357 393.104 47.2646 393.104C47.7113 393.104 48.0895 393.013 48.3994 392.831C48.7093 392.649 48.9805 392.407 49.2129 392.106L49.9854 392.708C49.3656 393.66 48.4359 394.137 47.1963 394.137ZM47.0391 387.506C46.5286 387.506 46.1003 387.693 45.7539 388.066C45.4076 388.436 45.1934 388.955 45.1113 389.625H48.8164V389.529C48.7799 388.887 48.6068 388.39 48.2969 388.039C47.987 387.684 47.5677 387.506 47.0391 387.506ZM57.5938 394H56.3291V390.842H52.9316V394H51.6602V386.604H52.9316V389.81H56.3291V386.604H57.5938V394ZM65.127 387.629H62.6455V394H61.3809V387.629H58.9473V386.604H65.127V387.629Z" fill="black"/>
<circle cx="41.5" cy="30" r="29.5" stroke="#CACACA"/>
<circle cx="41.5" cy="30" r="10" fill="#43BAD6"/>
<path d="M9.11719 73.0469L12.3711 81.168L15.625 73.0469H17.3271V83H16.0146V79.124L16.1377 74.9404L12.8701 83H11.8652L8.60449 74.9609L8.73438 79.124V83H7.42188V73.0469H9.11719ZM22.5156 83.1367C21.513 83.1367 20.6973 82.8086 20.0684 82.1523C19.4395 81.4915 19.125 80.6097 19.125 79.5068V79.2744C19.125 78.5407 19.264 77.8867 19.542 77.3125C19.8245 76.7337 20.2165 76.2826 20.7178 75.959C21.2236 75.6309 21.7705 75.4668 22.3584 75.4668C23.32 75.4668 24.0674 75.7835 24.6006 76.417C25.1338 77.0505 25.4004 77.9574 25.4004 79.1377V79.6641H20.3896C20.4079 80.3932 20.6198 80.9834 21.0254 81.4346C21.4355 81.8812 21.9551 82.1045 22.584 82.1045C23.0306 82.1045 23.4089 82.0133 23.7188 81.8311C24.0286 81.6488 24.2998 81.4072 24.5322 81.1064L25.3047 81.708C24.6849 82.6605 23.7552 83.1367 22.5156 83.1367ZM22.3584 76.5059C21.848 76.5059 21.4196 76.6927 21.0732 77.0664C20.7269 77.4355 20.5127 77.9551 20.4307 78.625H24.1357V78.5293C24.0993 77.8867 23.9261 77.39 23.6162 77.0391C23.3063 76.6836 22.887 76.5059 22.3584 76.5059ZM32.9131 83H31.6484V79.8418H28.251V83H26.9795V75.6035H28.251V78.8096H31.6484V75.6035H32.9131V83ZM38.0195 83.1367C37.0169 83.1367 36.2012 82.8086 35.5723 82.1523C34.9434 81.4915 34.6289 80.6097 34.6289 79.5068V79.2744C34.6289 78.5407 34.7679 77.8867 35.0459 77.3125C35.3285 76.7337 35.7204 76.2826 36.2217 75.959C36.7275 75.6309 37.2744 75.4668 37.8623 75.4668C38.8239 75.4668 39.5713 75.7835 40.1045 76.417C40.6377 77.0505 40.9043 77.9574 40.9043 79.1377V79.6641H35.8936C35.9118 80.3932 36.1237 80.9834 36.5293 81.4346C36.9395 81.8812 37.459 82.1045 38.0879 82.1045C38.5345 82.1045 38.9128 82.0133 39.2227 81.8311C39.5326 81.6488 39.8037 81.4072 40.0361 81.1064L40.8086 81.708C40.1888 82.6605 39.2591 83.1367 38.0195 83.1367ZM37.8623 76.5059C37.3519 76.5059 36.9235 76.6927 36.5771 77.0664C36.2308 77.4355 36.0166 77.9551 35.9346 78.625H39.6396V78.5293C39.6032 77.8867 39.43 77.39 39.1201 77.0391C38.8102 76.6836 38.391 76.5059 37.8623 76.5059ZM42.3125 81.9678L42.75 81.4277C43.2422 80.7897 43.5225 79.8327 43.5908 78.5566L43.707 75.6035H48.4717V81.9678H49.4219V85.1738H48.1572V83H42.9961V85.1738H41.7314L41.7383 81.9678H42.3125ZM43.8096 81.9678H47.207V76.7725H44.9307L44.8555 78.5361C44.778 80.0081 44.4294 81.152 43.8096 81.9678ZM56.7227 79.7871H55.834V83H54.5693V79.7871H53.6807L51.6094 83H50.0098L52.6553 79.1719L50.2627 75.6035H51.7939L53.7012 78.666H54.5693V75.6035H55.834V78.666H56.6953L58.6162 75.6035H60.1475L57.748 79.1787L60.3936 83H58.7939L56.7227 79.7871ZM64.4746 83.1367C63.472 83.1367 62.6562 82.8086 62.0273 82.1523C61.3984 81.4915 61.084 80.6097 61.084 79.5068V79.2744C61.084 78.5407 61.223 77.8867 61.501 77.3125C61.7835 76.7337 62.1755 76.2826 62.6768 75.959C63.1826 75.6309 63.7295 75.4668 64.3174 75.4668C65.279 75.4668 66.0264 75.7835 66.5596 76.417C67.0928 77.0505 67.3594 77.9574 67.3594 79.1377V79.6641H62.3486C62.3669 80.3932 62.5788 80.9834 62.9844 81.4346C63.3945 81.8812 63.9141 82.1045 64.543 82.1045C64.9896 82.1045 65.3678 82.0133 65.6777 81.8311C65.9876 81.6488 66.2588 81.4072 66.4912 81.1064L67.2637 81.708C66.6439 82.6605 65.7142 83.1367 64.4746 83.1367ZM64.3174 76.5059C63.807 76.5059 63.3786 76.6927 63.0322 77.0664C62.6859 77.4355 62.4717 77.9551 62.3896 78.625H66.0947V78.5293C66.0583 77.8867 65.8851 77.39 65.5752 77.0391C65.2653 76.6836 64.846 76.5059 64.3174 76.5059ZM75.0771 79.3838C75.0771 80.5094 74.8197 81.4163 74.3047 82.1045C73.7897 82.7926 73.0924 83.1367 72.2129 83.1367C71.3151 83.1367 70.6087 82.8519 70.0938 82.2822V85.8438H68.8291V75.6035H69.9844L70.0459 76.4238C70.5609 75.7858 71.2764 75.4668 72.1924 75.4668C73.0811 75.4668 73.7829 75.8018 74.2979 76.4717C74.8174 77.1416 75.0771 78.0736 75.0771 79.2676V79.3838ZM73.8125 79.2402C73.8125 78.4062 73.6348 77.7477 73.2793 77.2646C72.9238 76.7816 72.4362 76.54 71.8164 76.54C71.0508 76.54 70.4766 76.8796 70.0938 77.5586V81.0928C70.472 81.7673 71.0508 82.1045 71.8301 82.1045C72.4362 82.1045 72.917 81.8652 73.2725 81.3867C73.6325 80.9036 73.8125 80.1882 73.8125 79.2402ZM21.4355 100H20.1709V93.6494H16.7666V100H15.4951V92.6035H21.4355V100ZM29.7139 96.3838C29.7139 97.5094 29.4564 98.4163 28.9414 99.1045C28.4264 99.7926 27.7292 100.137 26.8496 100.137C25.9518 100.137 25.2454 99.8519 24.7305 99.2822V102.844H23.4658V92.6035H24.6211L24.6826 93.4238C25.1976 92.7858 25.9131 92.4668 26.8291 92.4668C27.7178 92.4668 28.4196 92.8018 28.9346 93.4717C29.4541 94.1416 29.7139 95.0736 29.7139 96.2676V96.3838ZM28.4492 96.2402C28.4492 95.4062 28.2715 94.7477 27.916 94.2646C27.5605 93.7816 27.0729 93.54 26.4531 93.54C25.6875 93.54 25.1133 93.8796 24.7305 94.5586V98.0928C25.1087 98.7673 25.6875 99.1045 26.4668 99.1045C27.0729 99.1045 27.5537 98.8652 27.9092 98.3867C28.2692 97.9036 28.4492 97.1882 28.4492 96.2402ZM30.9922 96.2334C30.9922 95.5088 31.1335 94.8571 31.416 94.2783C31.7031 93.6995 32.0996 93.2529 32.6055 92.9385C33.1159 92.624 33.6969 92.4668 34.3486 92.4668C35.3558 92.4668 36.1693 92.8154 36.7891 93.5127C37.4134 94.21 37.7256 95.1374 37.7256 96.2949V96.3838C37.7256 97.1038 37.5866 97.751 37.3086 98.3252C37.0352 98.8949 36.641 99.3392 36.126 99.6582C35.6156 99.9772 35.0277 100.137 34.3623 100.137C33.3597 100.137 32.5462 99.7881 31.9219 99.0908C31.3021 98.3936 30.9922 97.4707 30.9922 96.3223V96.2334ZM32.2637 96.3838C32.2637 97.2041 32.4528 97.8626 32.8311 98.3594C33.2139 98.8561 33.7243 99.1045 34.3623 99.1045C35.0049 99.1045 35.5153 98.8538 35.8936 98.3525C36.2718 97.8467 36.4609 97.1403 36.4609 96.2334C36.4609 95.4222 36.2673 94.766 35.8799 94.2646C35.4971 93.7588 34.9867 93.5059 34.3486 93.5059C33.7243 93.5059 33.2207 93.7542 32.8379 94.251C32.4551 94.7477 32.2637 95.4587 32.2637 96.3838ZM42.3809 100.137C41.3783 100.137 40.5625 99.8086 39.9336 99.1523C39.3047 98.4915 38.9902 97.6097 38.9902 96.5068V96.2744C38.9902 95.5407 39.1292 94.8867 39.4072 94.3125C39.6898 93.7337 40.0817 93.2826 40.583 92.959C41.0889 92.6309 41.6357 92.4668 42.2236 92.4668C43.1852 92.4668 43.9326 92.7835 44.4658 93.417C44.999 94.0505 45.2656 94.9574 45.2656 96.1377V96.6641H40.2549C40.2731 97.3932 40.485 97.9834 40.8906 98.4346C41.3008 98.8812 41.8203 99.1045 42.4492 99.1045C42.8958 99.1045 43.2741 99.0133 43.584 98.8311C43.8939 98.6488 44.165 98.4072 44.3975 98.1064L45.1699 98.708C44.5501 99.6605 43.6204 100.137 42.3809 100.137ZM42.2236 93.5059C41.7132 93.5059 41.2848 93.6927 40.9385 94.0664C40.5921 94.4355 40.3779 94.9551 40.2959 95.625H44.001V95.5293C43.9645 94.8867 43.7913 94.39 43.4814 94.0391C43.1715 93.6836 42.7523 93.5059 42.2236 93.5059ZM49.0391 96.8486H48.1162V100H46.8447V92.6035H48.1162V95.7344H48.9434L51.4316 92.6035H52.9629L50.0371 96.1582L53.209 100H51.6025L49.0391 96.8486ZM59.792 93.6289H57.3105V100H56.0459V93.6289H53.6123V92.6035H59.792V93.6289ZM65.4795 100C65.4066 99.8542 65.3473 99.5944 65.3018 99.2207C64.7139 99.8314 64.012 100.137 63.1963 100.137C62.4671 100.137 61.8678 99.9316 61.3984 99.5215C60.9336 99.1068 60.7012 98.5827 60.7012 97.9492C60.7012 97.179 60.9928 96.582 61.5762 96.1582C62.1641 95.7298 62.9889 95.5156 64.0508 95.5156H65.2812V94.9346C65.2812 94.4925 65.1491 94.1416 64.8848 93.8818C64.6204 93.6175 64.2308 93.4854 63.7158 93.4854C63.2646 93.4854 62.8864 93.5993 62.5811 93.8271C62.2757 94.055 62.123 94.3307 62.123 94.6543H60.8516C60.8516 94.2852 60.9814 93.9297 61.2412 93.5879C61.5055 93.2415 61.861 92.9681 62.3076 92.7676C62.7588 92.5671 63.2533 92.4668 63.791 92.4668C64.6432 92.4668 65.3109 92.681 65.7939 93.1094C66.277 93.5332 66.5277 94.1188 66.5459 94.8662V98.2705C66.5459 98.9495 66.6325 99.4896 66.8057 99.8906V100H65.4795ZM63.3809 99.0361C63.7773 99.0361 64.1533 98.9336 64.5088 98.7285C64.8643 98.5234 65.1217 98.2568 65.2812 97.9287V96.4111H64.29C62.7406 96.4111 61.9658 96.8646 61.9658 97.7715C61.9658 98.168 62.098 98.4779 62.3623 98.7012C62.6266 98.9245 62.9661 99.0361 63.3809 99.0361Z" fill="black"/>
<circle opacity="0.2" cx="40.5" cy="194" r="30" fill="#43BAD6"/>
<circle cx="40.5" cy="194" r="10" fill="#BEBEBE"/>
<path d="M8.87598 242.345C8.87598 243.306 8.72331 244.136 8.41797 244.833C8.11263 245.526 7.68424 246.068 7.13281 246.46L8.91016 247.854L8.01465 248.682L5.91602 247.014C5.58789 247.096 5.24154 247.137 4.87695 247.137C4.0931 247.137 3.39811 246.945 2.79199 246.562C2.18587 246.175 1.71419 245.626 1.37695 244.915C1.04427 244.2 0.873372 243.372 0.864258 242.434V241.716C0.864258 240.759 1.0306 239.913 1.36328 239.18C1.69596 238.446 2.16536 237.885 2.77148 237.498C3.38216 237.106 4.07943 236.91 4.86328 236.91C5.66536 236.91 6.36947 237.104 6.97559 237.491C7.58626 237.879 8.05566 238.437 8.38379 239.166C8.71191 239.891 8.87598 240.738 8.87598 241.709V242.345ZM7.56348 241.702C7.56348 240.531 7.32878 239.629 6.85938 238.995C6.39453 238.357 5.72917 238.038 4.86328 238.038C4.03841 238.038 3.38672 238.355 2.9082 238.988C2.43424 239.617 2.19043 240.492 2.17676 241.613V242.345C2.17676 243.484 2.41374 244.382 2.8877 245.038C3.36621 245.694 4.0293 246.022 4.87695 246.022C5.72461 246.022 6.38086 245.715 6.8457 245.1C7.31055 244.48 7.5498 243.593 7.56348 242.44V241.702ZM16.3955 244.402H12.2256L11.2891 247H9.93555L13.7363 237.047H14.8848L18.6924 247H17.3457L16.3955 244.402ZM12.6221 243.322H16.0059L14.3105 238.667L12.6221 243.322ZM28.0918 239.604H29.3564V247H28.0918V241.606L24.6807 247H23.416V239.604H24.6807V245.004L28.0918 239.604ZM37.4297 247H36.165V243.842H32.7676V247H31.4961V239.604H32.7676V242.81H36.165V239.604H37.4297V247ZM45.3662 243.787H44.4775V247H43.2129V243.787H42.3242L40.2529 247H38.6533L41.2988 243.172L38.9062 239.604H40.4375L42.3447 242.666H43.2129V239.604H44.4775V242.666H45.3389L47.2598 239.604H48.791L46.3916 243.179L49.0371 247H47.4375L45.3662 243.787ZM53.1182 247.137C52.1156 247.137 51.2998 246.809 50.6709 246.152C50.042 245.492 49.7275 244.61 49.7275 243.507V243.274C49.7275 242.541 49.8665 241.887 50.1445 241.312C50.4271 240.734 50.819 240.283 51.3203 239.959C51.8262 239.631 52.373 239.467 52.9609 239.467C53.9225 239.467 54.6699 239.784 55.2031 240.417C55.7363 241.05 56.0029 241.957 56.0029 243.138V243.664H50.9922C51.0104 244.393 51.2223 244.983 51.6279 245.435C52.0381 245.881 52.5576 246.104 53.1865 246.104C53.6331 246.104 54.0114 246.013 54.3213 245.831C54.6312 245.649 54.9023 245.407 55.1348 245.106L55.9072 245.708C55.2874 246.66 54.3577 247.137 53.1182 247.137ZM52.9609 240.506C52.4505 240.506 52.0221 240.693 51.6758 241.066C51.3294 241.436 51.1152 241.955 51.0332 242.625H54.7383V242.529C54.7018 241.887 54.5286 241.39 54.2188 241.039C53.9089 240.684 53.4896 240.506 52.9609 240.506ZM63.5156 247H62.251V243.842H58.8535V247H57.582V239.604H58.8535V242.81H62.251V239.604H63.5156V247ZM68.6221 247.137C67.6195 247.137 66.8037 246.809 66.1748 246.152C65.5459 245.492 65.2314 244.61 65.2314 243.507V243.274C65.2314 242.541 65.3704 241.887 65.6484 241.312C65.931 240.734 66.3229 240.283 66.8242 239.959C67.3301 239.631 67.877 239.467 68.4648 239.467C69.4264 239.467 70.1738 239.784 70.707 240.417C71.2402 241.05 71.5068 241.957 71.5068 243.138V243.664H66.4961C66.5143 244.393 66.7262 244.983 67.1318 245.435C67.542 245.881 68.0615 246.104 68.6904 246.104C69.137 246.104 69.5153 246.013 69.8252 245.831C70.1351 245.649 70.4062 245.407 70.6387 245.106L71.4111 245.708C70.7913 246.66 69.8617 247.137 68.6221 247.137ZM68.4648 240.506C67.9544 240.506 67.526 240.693 67.1797 241.066C66.8333 241.436 66.6191 241.955 66.5371 242.625H70.2422V242.529C70.2057 241.887 70.0326 241.39 69.7227 241.039C69.4128 240.684 68.9935 240.506 68.4648 240.506ZM79.2246 243.384C79.2246 244.509 78.9671 245.416 78.4521 246.104C77.9372 246.793 77.2399 247.137 76.3604 247.137C75.4626 247.137 74.7562 246.852 74.2412 246.282V249.844H72.9766V239.604H74.1318L74.1934 240.424C74.7083 239.786 75.4238 239.467 76.3398 239.467C77.2285 239.467 77.9303 239.802 78.4453 240.472C78.9648 241.142 79.2246 242.074 79.2246 243.268V243.384ZM77.96 243.24C77.96 242.406 77.7822 241.748 77.4268 241.265C77.0713 240.782 76.5837 240.54 75.9639 240.54C75.1982 240.54 74.624 240.88 74.2412 241.559V245.093C74.6195 245.767 75.1982 246.104 75.9775 246.104C76.5837 246.104 77.0645 245.865 77.4199 245.387C77.7799 244.904 77.96 244.188 77.96 243.24Z" fill="black"/>
</svg>
