<svg width="520" height="151" viewBox="0 0 520 151" fill="none" xmlns="http://www.w3.org/2000/svg">
<circle cx="480" cy="91" r="29.5" stroke="#CACACA"/>
<circle cx="480" cy="91" r="9.5" stroke="#43BAD6"/>
<path d="M460.039 141.529H458.829V146H457.517V136.047H458.829V140.436H459.854L463.334 136.047H464.968L461.167 140.873L465.248 146H463.642L460.039 141.529ZM472.316 138.604V146H471.045V139.649H468.529L468.379 142.418C468.297 143.689 468.083 144.599 467.736 145.146C467.395 145.692 466.85 145.977 466.103 146H465.597V144.886L465.959 144.858C466.369 144.813 466.663 144.576 466.841 144.147C467.019 143.719 467.132 142.926 467.183 141.769L467.319 138.604H472.316ZM479.132 138.604H480.396V146H479.132V140.606L475.721 146H474.456V138.604H475.721V144.004L479.132 138.604ZM485.496 146.137C484.493 146.137 483.678 145.809 483.049 145.152C482.42 144.492 482.105 143.61 482.105 142.507V142.274C482.105 141.541 482.244 140.887 482.522 140.312C482.805 139.734 483.197 139.283 483.698 138.959C484.204 138.631 484.751 138.467 485.339 138.467C486.3 138.467 487.048 138.784 487.581 139.417C488.114 140.05 488.381 140.957 488.381 142.138V142.664H483.37C483.388 143.393 483.6 143.983 484.006 144.435C484.416 144.881 484.936 145.104 485.564 145.104C486.011 145.104 486.389 145.013 486.699 144.831C487.009 144.649 487.28 144.407 487.513 144.106L488.285 144.708C487.665 145.66 486.736 146.137 485.496 146.137ZM485.339 139.506C484.828 139.506 484.4 139.693 484.054 140.066C483.707 140.436 483.493 140.955 483.411 141.625H487.116V141.529C487.08 140.887 486.907 140.39 486.597 140.039C486.287 139.684 485.868 139.506 485.339 139.506ZM495.894 146H494.629V142.842H491.231V146H489.96V138.604H491.231V141.81H494.629V138.604H495.894V146ZM503.427 139.629H500.945V146H499.681V139.629H497.247V138.604H503.427V139.629Z" fill="black"/>
<circle cx="40" cy="91" r="29.5" stroke="#CACACA"/>
<circle cx="40" cy="91" r="10" fill="#43BAD6"/>
<path d="M8.11719 136.047L11.3711 144.168L14.625 136.047H16.3271V146H15.0146V142.124L15.1377 137.94L11.8701 146H10.8652L7.60449 137.961L7.73438 142.124V146H6.42188V136.047H8.11719ZM21.5156 146.137C20.513 146.137 19.6973 145.809 19.0684 145.152C18.4395 144.492 18.125 143.61 18.125 142.507V142.274C18.125 141.541 18.264 140.887 18.542 140.312C18.8245 139.734 19.2165 139.283 19.7178 138.959C20.2236 138.631 20.7705 138.467 21.3584 138.467C22.32 138.467 23.0674 138.784 23.6006 139.417C24.1338 140.05 24.4004 140.957 24.4004 142.138V142.664H19.3896C19.4079 143.393 19.6198 143.983 20.0254 144.435C20.4355 144.881 20.9551 145.104 21.584 145.104C22.0306 145.104 22.4089 145.013 22.7188 144.831C23.0286 144.649 23.2998 144.407 23.5322 144.106L24.3047 144.708C23.6849 145.66 22.7552 146.137 21.5156 146.137ZM21.3584 139.506C20.848 139.506 20.4196 139.693 20.0732 140.066C19.7269 140.436 19.5127 140.955 19.4307 141.625H23.1357V141.529C23.0993 140.887 22.9261 140.39 22.6162 140.039C22.3063 139.684 21.887 139.506 21.3584 139.506ZM31.9131 146H30.6484V142.842H27.251V146H25.9795V138.604H27.251V141.81H30.6484V138.604H31.9131V146ZM37.0195 146.137C36.0169 146.137 35.2012 145.809 34.5723 145.152C33.9434 144.492 33.6289 143.61 33.6289 142.507V142.274C33.6289 141.541 33.7679 140.887 34.0459 140.312C34.3285 139.734 34.7204 139.283 35.2217 138.959C35.7275 138.631 36.2744 138.467 36.8623 138.467C37.8239 138.467 38.5713 138.784 39.1045 139.417C39.6377 140.05 39.9043 140.957 39.9043 142.138V142.664H34.8936C34.9118 143.393 35.1237 143.983 35.5293 144.435C35.9395 144.881 36.459 145.104 37.0879 145.104C37.5345 145.104 37.9128 145.013 38.2227 144.831C38.5326 144.649 38.8037 144.407 39.0361 144.106L39.8086 144.708C39.1888 145.66 38.2591 146.137 37.0195 146.137ZM36.8623 139.506C36.3519 139.506 35.9235 139.693 35.5771 140.066C35.2308 140.436 35.0166 140.955 34.9346 141.625H38.6396V141.529C38.6032 140.887 38.43 140.39 38.1201 140.039C37.8102 139.684 37.391 139.506 36.8623 139.506ZM41.3125 144.968L41.75 144.428C42.2422 143.79 42.5225 142.833 42.5908 141.557L42.707 138.604H47.4717V144.968H48.4219V148.174H47.1572V146H41.9961V148.174H40.7314L40.7383 144.968H41.3125ZM42.8096 144.968H46.207V139.772H43.9307L43.8555 141.536C43.778 143.008 43.4294 144.152 42.8096 144.968ZM55.7227 142.787H54.834V146H53.5693V142.787H52.6807L50.6094 146H49.0098L51.6553 142.172L49.2627 138.604H50.7939L52.7012 141.666H53.5693V138.604H54.834V141.666H55.6953L57.6162 138.604H59.1475L56.748 142.179L59.3936 146H57.7939L55.7227 142.787ZM63.4746 146.137C62.472 146.137 61.6562 145.809 61.0273 145.152C60.3984 144.492 60.084 143.61 60.084 142.507V142.274C60.084 141.541 60.223 140.887 60.501 140.312C60.7835 139.734 61.1755 139.283 61.6768 138.959C62.1826 138.631 62.7295 138.467 63.3174 138.467C64.279 138.467 65.0264 138.784 65.5596 139.417C66.0928 140.05 66.3594 140.957 66.3594 142.138V142.664H61.3486C61.3669 143.393 61.5788 143.983 61.9844 144.435C62.3945 144.881 62.9141 145.104 63.543 145.104C63.9896 145.104 64.3678 145.013 64.6777 144.831C64.9876 144.649 65.2588 144.407 65.4912 144.106L66.2637 144.708C65.6439 145.66 64.7142 146.137 63.4746 146.137ZM63.3174 139.506C62.807 139.506 62.3786 139.693 62.0322 140.066C61.6859 140.436 61.4717 140.955 61.3896 141.625H65.0947V141.529C65.0583 140.887 64.8851 140.39 64.5752 140.039C64.2653 139.684 63.846 139.506 63.3174 139.506ZM74.0771 142.384C74.0771 143.509 73.8197 144.416 73.3047 145.104C72.7897 145.793 72.0924 146.137 71.2129 146.137C70.3151 146.137 69.6087 145.852 69.0938 145.282V148.844H67.8291V138.604H68.9844L69.0459 139.424C69.5609 138.786 70.2764 138.467 71.1924 138.467C72.0811 138.467 72.7829 138.802 73.2979 139.472C73.8174 140.142 74.0771 141.074 74.0771 142.268V142.384ZM72.8125 142.24C72.8125 141.406 72.6348 140.748 72.2793 140.265C71.9238 139.782 71.4362 139.54 70.8164 139.54C70.0508 139.54 69.4766 139.88 69.0938 140.559V144.093C69.472 144.767 70.0508 145.104 70.8301 145.104C71.4362 145.104 71.917 144.865 72.2725 144.387C72.6325 143.904 72.8125 143.188 72.8125 142.24Z" fill="black"/>
<path d="M255 91.0001H285M285 91.0001L280.588 86M285 91.0001L280.588 96" stroke="#BEBEBE" stroke-width="2" stroke-linecap="round"/>
<circle cx="190" cy="91" r="30" fill="#F0F0F0"/>
<circle cx="190" cy="91" r="10" fill="#43BAD6"/>
<path d="M152.108 136.047V142.814C152.104 143.753 151.808 144.521 151.22 145.118C150.636 145.715 149.843 146.05 148.841 146.123L148.492 146.137C147.403 146.137 146.535 145.843 145.888 145.255C145.241 144.667 144.912 143.858 144.903 142.828V136.047H146.202V142.787C146.202 143.507 146.4 144.068 146.797 144.469C147.193 144.865 147.758 145.063 148.492 145.063C149.235 145.063 149.802 144.865 150.194 144.469C150.591 144.072 150.789 143.514 150.789 142.794V136.047H152.108ZM157.427 139.861L159.812 136.047H161.357L158.213 140.982L161.433 146H159.874L157.427 142.117L154.966 146H153.414L156.641 140.982L153.489 136.047H155.027L157.427 139.861ZM166.17 144.968L166.607 144.428C167.1 143.79 167.38 142.833 167.448 141.557L167.564 138.604H172.329V144.968H173.279V148.174H172.015V146H166.854V148.174H165.589L165.596 144.968H166.17ZM167.667 144.968H171.064V139.772H168.788L168.713 141.536C168.635 143.008 168.287 144.152 167.667 144.968ZM179.466 138.604H180.73V146H179.466V140.606L176.055 146H174.79V138.604H176.055V144.004L179.466 138.604ZM186.828 140.627C186.828 140.281 186.696 140.007 186.432 139.807C186.167 139.602 185.805 139.499 185.345 139.499C184.898 139.499 184.524 139.615 184.224 139.848C183.927 140.08 183.779 140.354 183.779 140.668H182.521C182.521 140.025 182.79 139.499 183.328 139.089C183.866 138.679 184.538 138.474 185.345 138.474C186.211 138.474 186.885 138.66 187.368 139.034C187.851 139.403 188.093 139.932 188.093 140.62C188.093 140.953 187.993 141.258 187.792 141.536C187.591 141.814 187.307 142.035 186.938 142.199C187.799 142.491 188.229 143.065 188.229 143.922C188.229 144.601 187.967 145.139 187.443 145.535C186.919 145.932 186.22 146.13 185.345 146.13C184.493 146.13 183.788 145.923 183.232 145.508C182.681 145.089 182.405 144.523 182.405 143.812H183.663C183.663 144.173 183.823 144.482 184.142 144.742C184.465 144.997 184.866 145.125 185.345 145.125C185.828 145.125 186.217 145.013 186.514 144.79C186.81 144.567 186.958 144.277 186.958 143.922C186.958 143.507 186.833 143.211 186.582 143.033C186.336 142.851 185.951 142.76 185.427 142.76H184.162V141.693H185.536C186.397 141.671 186.828 141.315 186.828 140.627ZM195.913 146H194.648V142.842H191.251V146H189.979V138.604H191.251V141.81H194.648V138.604H195.913V146ZM202.517 146C202.444 145.854 202.384 145.594 202.339 145.221C201.751 145.831 201.049 146.137 200.233 146.137C199.504 146.137 198.905 145.932 198.436 145.521C197.971 145.107 197.738 144.583 197.738 143.949C197.738 143.179 198.03 142.582 198.613 142.158C199.201 141.73 200.026 141.516 201.088 141.516H202.318V140.935C202.318 140.493 202.186 140.142 201.922 139.882C201.658 139.618 201.268 139.485 200.753 139.485C200.302 139.485 199.924 139.599 199.618 139.827C199.313 140.055 199.16 140.331 199.16 140.654H197.889C197.889 140.285 198.019 139.93 198.278 139.588C198.543 139.242 198.898 138.968 199.345 138.768C199.796 138.567 200.29 138.467 200.828 138.467C201.68 138.467 202.348 138.681 202.831 139.109C203.314 139.533 203.565 140.119 203.583 140.866V144.271C203.583 144.95 203.67 145.49 203.843 145.891V146H202.517ZM200.418 145.036C200.814 145.036 201.19 144.934 201.546 144.729C201.901 144.523 202.159 144.257 202.318 143.929V142.411H201.327C199.778 142.411 199.003 142.865 199.003 143.771C199.003 144.168 199.135 144.478 199.399 144.701C199.664 144.924 200.003 145.036 200.418 145.036ZM210.351 138.604H211.615V146H210.351V140.606L206.939 146H205.675V138.604H206.939V144.004L210.351 138.604ZM210.692 135.91C210.692 136.462 210.503 136.906 210.125 137.243C209.751 137.576 209.259 137.742 208.648 137.742C208.038 137.742 207.543 137.574 207.165 137.236C206.787 136.899 206.598 136.457 206.598 135.91H207.63C207.63 136.229 207.716 136.48 207.89 136.662C208.063 136.84 208.316 136.929 208.648 136.929C208.967 136.929 209.216 136.84 209.394 136.662C209.576 136.484 209.667 136.234 209.667 135.91H210.692ZM219.688 146H218.424V142.842H215.026V146H213.755V138.604H215.026V141.81H218.424V138.604H219.688V146ZM224.795 146.137C223.792 146.137 222.977 145.809 222.348 145.152C221.719 144.492 221.404 143.61 221.404 142.507V142.274C221.404 141.541 221.543 140.887 221.821 140.312C222.104 139.734 222.496 139.283 222.997 138.959C223.503 138.631 224.05 138.467 224.638 138.467C225.599 138.467 226.347 138.784 226.88 139.417C227.413 140.05 227.68 140.957 227.68 142.138V142.664H222.669C222.687 143.393 222.899 143.983 223.305 144.435C223.715 144.881 224.234 145.104 224.863 145.104C225.31 145.104 225.688 145.013 225.998 144.831C226.308 144.649 226.579 144.407 226.812 144.106L227.584 144.708C226.964 145.66 226.035 146.137 224.795 146.137ZM224.638 139.506C224.127 139.506 223.699 139.693 223.353 140.066C223.006 140.436 222.792 140.955 222.71 141.625H226.415V141.529C226.379 140.887 226.205 140.39 225.896 140.039C225.586 139.684 225.166 139.506 224.638 139.506ZM235.397 142.384C235.397 143.509 235.14 144.416 234.625 145.104C234.11 145.793 233.413 146.137 232.533 146.137C231.635 146.137 230.929 145.852 230.414 145.282V148.844H229.149V138.604H230.305L230.366 139.424C230.881 138.786 231.597 138.467 232.513 138.467C233.401 138.467 234.103 138.802 234.618 139.472C235.138 140.142 235.397 141.074 235.397 142.268V142.384ZM234.133 142.24C234.133 141.406 233.955 140.748 233.6 140.265C233.244 139.782 232.757 139.54 232.137 139.54C231.371 139.54 230.797 139.88 230.414 140.559V144.093C230.792 144.767 231.371 145.104 232.15 145.104C232.757 145.104 233.237 144.865 233.593 144.387C233.953 143.904 234.133 143.188 234.133 142.24Z" fill="black"/>
<circle cx="340.5" cy="91" r="30" fill="#43BAD6"/>
<circle cx="340.5" cy="91" r="10" fill="white"/>
<path d="M308.63 136.047V142.814C308.625 143.753 308.329 144.521 307.741 145.118C307.158 145.715 306.365 146.05 305.362 146.123L305.014 146.137C303.924 146.137 303.056 145.843 302.409 145.255C301.762 144.667 301.434 143.858 301.425 142.828V136.047H302.724V142.787C302.724 143.507 302.922 144.068 303.318 144.469C303.715 144.865 304.28 145.063 305.014 145.063C305.757 145.063 306.324 144.865 306.716 144.469C307.112 144.072 307.311 143.514 307.311 142.794V136.047H308.63ZM312.109 146H310.797V136.047H312.109V146ZM317.729 144.968L318.166 144.428C318.658 143.79 318.938 142.833 319.007 141.557L319.123 138.604H323.888V144.968H324.838V148.174H323.573V146H318.412V148.174H317.147L317.154 144.968H317.729ZM319.226 144.968H322.623V139.772H320.347L320.271 141.536C320.194 143.008 319.845 144.152 319.226 144.968ZM331.024 138.604H332.289V146H331.024V140.606L327.613 146H326.349V138.604H327.613V144.004L331.024 138.604ZM338.387 140.627C338.387 140.281 338.255 140.007 337.99 139.807C337.726 139.602 337.364 139.499 336.903 139.499C336.457 139.499 336.083 139.615 335.782 139.848C335.486 140.08 335.338 140.354 335.338 140.668H334.08C334.08 140.025 334.349 139.499 334.887 139.089C335.424 138.679 336.097 138.474 336.903 138.474C337.769 138.474 338.444 138.66 338.927 139.034C339.41 139.403 339.651 139.932 339.651 140.62C339.651 140.953 339.551 141.258 339.351 141.536C339.15 141.814 338.865 142.035 338.496 142.199C339.357 142.491 339.788 143.065 339.788 143.922C339.788 144.601 339.526 145.139 339.002 145.535C338.478 145.932 337.778 146.13 336.903 146.13C336.051 146.13 335.347 145.923 334.791 145.508C334.24 145.089 333.964 144.523 333.964 143.812H335.222C335.222 144.173 335.381 144.482 335.7 144.742C336.024 144.997 336.425 145.125 336.903 145.125C337.386 145.125 337.776 145.013 338.072 144.79C338.368 144.567 338.517 144.277 338.517 143.922C338.517 143.507 338.391 143.211 338.141 143.033C337.895 142.851 337.509 142.76 336.985 142.76H335.721V141.693H337.095C337.956 141.671 338.387 141.315 338.387 140.627ZM345.995 146C345.922 145.854 345.863 145.594 345.817 145.221C345.229 145.831 344.528 146.137 343.712 146.137C342.983 146.137 342.383 145.932 341.914 145.521C341.449 145.107 341.217 144.583 341.217 143.949C341.217 143.179 341.508 142.582 342.092 142.158C342.68 141.73 343.505 141.516 344.566 141.516H345.797V140.935C345.797 140.493 345.665 140.142 345.4 139.882C345.136 139.618 344.746 139.485 344.231 139.485C343.78 139.485 343.402 139.599 343.097 139.827C342.791 140.055 342.639 140.331 342.639 140.654H341.367C341.367 140.285 341.497 139.93 341.757 139.588C342.021 139.242 342.377 138.968 342.823 138.768C343.274 138.567 343.769 138.467 344.307 138.467C345.159 138.467 345.826 138.681 346.31 139.109C346.793 139.533 347.043 140.119 347.062 140.866V144.271C347.062 144.95 347.148 145.49 347.321 145.891V146H345.995ZM343.896 145.036C344.293 145.036 344.669 144.934 345.024 144.729C345.38 144.523 345.637 144.257 345.797 143.929V142.411H344.806C343.256 142.411 342.481 142.865 342.481 143.771C342.481 144.168 342.614 144.478 342.878 144.701C343.142 144.924 343.482 145.036 343.896 145.036ZM353.829 138.604H355.094V146H353.829V140.606L350.418 146H349.153V138.604H350.418V144.004L353.829 138.604ZM354.171 135.91C354.171 136.462 353.982 136.906 353.604 137.243C353.23 137.576 352.738 137.742 352.127 137.742C351.516 137.742 351.022 137.574 350.644 137.236C350.265 136.899 350.076 136.457 350.076 135.91H351.108C351.108 136.229 351.195 136.48 351.368 136.662C351.541 136.84 351.794 136.929 352.127 136.929C352.446 136.929 352.694 136.84 352.872 136.662C353.054 136.484 353.146 136.234 353.146 135.91H354.171ZM363.167 146H361.902V142.842H358.505V146H357.233V138.604H358.505V141.81H361.902V138.604H363.167V146ZM368.273 146.137C367.271 146.137 366.455 145.809 365.826 145.152C365.197 144.492 364.883 143.61 364.883 142.507V142.274C364.883 141.541 365.022 140.887 365.3 140.312C365.582 139.734 365.974 139.283 366.476 138.959C366.981 138.631 367.528 138.467 368.116 138.467C369.078 138.467 369.825 138.784 370.358 139.417C370.892 140.05 371.158 140.957 371.158 142.138V142.664H366.147C366.166 143.393 366.378 143.983 366.783 144.435C367.193 144.881 367.713 145.104 368.342 145.104C368.788 145.104 369.167 145.013 369.477 144.831C369.786 144.649 370.058 144.407 370.29 144.106L371.062 144.708C370.443 145.66 369.513 146.137 368.273 146.137ZM368.116 139.506C367.606 139.506 367.177 139.693 366.831 140.066C366.485 140.436 366.271 140.955 366.188 141.625H369.894V141.529C369.857 140.887 369.684 140.39 369.374 140.039C369.064 139.684 368.645 139.506 368.116 139.506ZM378.876 142.384C378.876 143.509 378.618 144.416 378.104 145.104C377.589 145.793 376.891 146.137 376.012 146.137C375.114 146.137 374.408 145.852 373.893 145.282V148.844H372.628V138.604H373.783L373.845 139.424C374.36 138.786 375.075 138.467 375.991 138.467C376.88 138.467 377.582 138.802 378.097 139.472C378.616 140.142 378.876 141.074 378.876 142.268V142.384ZM377.611 142.24C377.611 141.406 377.434 140.748 377.078 140.265C376.723 139.782 376.235 139.54 375.615 139.54C374.85 139.54 374.275 139.88 373.893 140.559V144.093C374.271 144.767 374.85 145.104 375.629 145.104C376.235 145.104 376.716 144.865 377.071 144.387C377.431 143.904 377.611 143.188 377.611 142.24Z" fill="black"/>
<path d="M327 51C327 51 310.413 34 267 34C221.725 34 207 51 207 51" stroke="#BEBEBE" stroke-width="2" stroke-linecap="round" stroke-dasharray="0.5 4"/>
<path d="M213 51L207 51L207 45" stroke="#BEBEBE" stroke-width="2" stroke-linecap="round"/>
<path d="M187 51C187 51 167.649 34 117 34C64.1791 34 47 51 47 51" stroke="#BEBEBE" stroke-width="2" stroke-linecap="round" stroke-dasharray="0.5 4"/>
<path d="M47 51C47 51 106.436 1 262 1C424.236 1 477 51 477 51" stroke="#BEBEBE" stroke-width="2" stroke-linecap="round" stroke-dasharray="0.5 4"/>
<path d="M477 45V51H471" stroke="#BEBEBE" stroke-width="2" stroke-linecap="round"/>
<path d="M53 51L47 51L47 45" stroke="#BEBEBE" stroke-width="2" stroke-linecap="round"/>
</svg>
