<svg width="70" height="251" viewBox="0 0 70 251" fill="none" xmlns="http://www.w3.org/2000/svg">
<circle cx="35" cy="30" r="29.5" stroke="#CACACA"/>
<circle cx="35" cy="30" r="9.5" stroke="#43BAD6"/>
<path d="M34.9999 102L40 106.925M34.9999 102L34.9999 117L34.9999 132M34.9999 102L30 106.925M34.9999 132L40 127.522M34.9999 132L30 127.522" stroke="#BEBEBE" stroke-width="2" stroke-linecap="round"/>
<path d="M14.7393 78.5293H13.5293V83H12.2168V73.0469H13.5293V77.4355H14.5547L18.0342 73.0469H19.668L15.8672 77.873L19.9482 83H18.3418L14.7393 78.5293ZM27.0166 75.6035V83H25.7451V76.6494H23.2295L23.0791 79.418C22.9971 80.6895 22.7829 81.5986 22.4365 82.1455C22.0947 82.6924 21.5501 82.9772 20.8027 83H20.2969V81.8857L20.6592 81.8584C21.0693 81.8128 21.3633 81.5758 21.541 81.1475C21.7188 80.7191 21.8327 79.9261 21.8828 78.7686L22.0195 75.6035H27.0166ZM33.832 75.6035H35.0967V83H33.832V77.6064L30.4209 83H29.1562V75.6035H30.4209V81.0039L33.832 75.6035ZM40.1963 83.1367C39.1937 83.1367 38.3779 82.8086 37.749 82.1523C37.1201 81.4915 36.8057 80.6097 36.8057 79.5068V79.2744C36.8057 78.5407 36.9447 77.8867 37.2227 77.3125C37.5052 76.7337 37.8971 76.2826 38.3984 75.959C38.9043 75.6309 39.4512 75.4668 40.0391 75.4668C41.0007 75.4668 41.748 75.7835 42.2812 76.417C42.8145 77.0505 43.0811 77.9574 43.0811 79.1377V79.6641H38.0703C38.0885 80.3932 38.3005 80.9834 38.7061 81.4346C39.1162 81.8812 39.6357 82.1045 40.2646 82.1045C40.7113 82.1045 41.0895 82.0133 41.3994 81.8311C41.7093 81.6488 41.9805 81.4072 42.2129 81.1064L42.9854 81.708C42.3656 82.6605 41.4359 83.1367 40.1963 83.1367ZM40.0391 76.5059C39.5286 76.5059 39.1003 76.6927 38.7539 77.0664C38.4076 77.4355 38.1934 77.9551 38.1113 78.625H41.8164V78.5293C41.7799 77.8867 41.6068 77.39 41.2969 77.0391C40.987 76.6836 40.5677 76.5059 40.0391 76.5059ZM50.5938 83H49.3291V79.8418H45.9316V83H44.6602V75.6035H45.9316V78.8096H49.3291V75.6035H50.5938V83ZM58.127 76.6289H55.6455V83H54.3809V76.6289H51.9473V75.6035H58.127V76.6289Z" fill="black"/>
<circle cx="35.5" cy="177" r="29.5" stroke="#CACACA"/>
<circle cx="35.5" cy="177" r="10" fill="#43BAD6"/>
<path d="M3.11719 220.047L6.37109 228.168L9.625 220.047H11.3271V230H10.0146V226.124L10.1377 221.94L6.87012 230H5.86523L2.60449 221.961L2.73438 226.124V230H1.42188V220.047H3.11719ZM16.5156 230.137C15.513 230.137 14.6973 229.809 14.0684 229.152C13.4395 228.492 13.125 227.61 13.125 226.507V226.274C13.125 225.541 13.264 224.887 13.542 224.312C13.8245 223.734 14.2165 223.283 14.7178 222.959C15.2236 222.631 15.7705 222.467 16.3584 222.467C17.32 222.467 18.0674 222.784 18.6006 223.417C19.1338 224.05 19.4004 224.957 19.4004 226.138V226.664H14.3896C14.4079 227.393 14.6198 227.983 15.0254 228.435C15.4355 228.881 15.9551 229.104 16.584 229.104C17.0306 229.104 17.4089 229.013 17.7188 228.831C18.0286 228.649 18.2998 228.407 18.5322 228.106L19.3047 228.708C18.6849 229.66 17.7552 230.137 16.5156 230.137ZM16.3584 223.506C15.848 223.506 15.4196 223.693 15.0732 224.066C14.7269 224.436 14.5127 224.955 14.4307 225.625H18.1357V225.529C18.0993 224.887 17.9261 224.39 17.6162 224.039C17.3063 223.684 16.887 223.506 16.3584 223.506ZM26.9131 230H25.6484V226.842H22.251V230H20.9795V222.604H22.251V225.81H25.6484V222.604H26.9131V230ZM32.0195 230.137C31.0169 230.137 30.2012 229.809 29.5723 229.152C28.9434 228.492 28.6289 227.61 28.6289 226.507V226.274C28.6289 225.541 28.7679 224.887 29.0459 224.312C29.3285 223.734 29.7204 223.283 30.2217 222.959C30.7275 222.631 31.2744 222.467 31.8623 222.467C32.8239 222.467 33.5713 222.784 34.1045 223.417C34.6377 224.05 34.9043 224.957 34.9043 226.138V226.664H29.8936C29.9118 227.393 30.1237 227.983 30.5293 228.435C30.9395 228.881 31.459 229.104 32.0879 229.104C32.5345 229.104 32.9128 229.013 33.2227 228.831C33.5326 228.649 33.8037 228.407 34.0361 228.106L34.8086 228.708C34.1888 229.66 33.2591 230.137 32.0195 230.137ZM31.8623 223.506C31.3519 223.506 30.9235 223.693 30.5771 224.066C30.2308 224.436 30.0166 224.955 29.9346 225.625H33.6396V225.529C33.6032 224.887 33.43 224.39 33.1201 224.039C32.8102 223.684 32.391 223.506 31.8623 223.506ZM36.3125 228.968L36.75 228.428C37.2422 227.79 37.5225 226.833 37.5908 225.557L37.707 222.604H42.4717V228.968H43.4219V232.174H42.1572V230H36.9961V232.174H35.7314L35.7383 228.968H36.3125ZM37.8096 228.968H41.207V223.772H38.9307L38.8555 225.536C38.778 227.008 38.4294 228.152 37.8096 228.968ZM50.7227 226.787H49.834V230H48.5693V226.787H47.6807L45.6094 230H44.0098L46.6553 226.172L44.2627 222.604H45.7939L47.7012 225.666H48.5693V222.604H49.834V225.666H50.6953L52.6162 222.604H54.1475L51.748 226.179L54.3936 230H52.7939L50.7227 226.787ZM58.4746 230.137C57.472 230.137 56.6562 229.809 56.0273 229.152C55.3984 228.492 55.084 227.61 55.084 226.507V226.274C55.084 225.541 55.223 224.887 55.501 224.312C55.7835 223.734 56.1755 223.283 56.6768 222.959C57.1826 222.631 57.7295 222.467 58.3174 222.467C59.279 222.467 60.0264 222.784 60.5596 223.417C61.0928 224.05 61.3594 224.957 61.3594 226.138V226.664H56.3486C56.3669 227.393 56.5788 227.983 56.9844 228.435C57.3945 228.881 57.9141 229.104 58.543 229.104C58.9896 229.104 59.3678 229.013 59.6777 228.831C59.9876 228.649 60.2588 228.407 60.4912 228.106L61.2637 228.708C60.6439 229.66 59.7142 230.137 58.4746 230.137ZM58.3174 223.506C57.807 223.506 57.3786 223.693 57.0322 224.066C56.6859 224.436 56.4717 224.955 56.3896 225.625H60.0947V225.529C60.0583 224.887 59.8851 224.39 59.5752 224.039C59.2653 223.684 58.846 223.506 58.3174 223.506ZM69.0771 226.384C69.0771 227.509 68.8197 228.416 68.3047 229.104C67.7897 229.793 67.0924 230.137 66.2129 230.137C65.3151 230.137 64.6087 229.852 64.0938 229.282V232.844H62.8291V222.604H63.9844L64.0459 223.424C64.5609 222.786 65.2764 222.467 66.1924 222.467C67.0811 222.467 67.7829 222.802 68.2979 223.472C68.8174 224.142 69.0771 225.074 69.0771 226.268V226.384ZM67.8125 226.24C67.8125 225.406 67.6348 224.748 67.2793 224.265C66.9238 223.782 66.4362 223.54 65.8164 223.54C65.0508 223.54 64.4766 223.88 64.0938 224.559V228.093C64.472 228.767 65.0508 229.104 65.8301 229.104C66.4362 229.104 66.917 228.865 67.2725 228.387C67.6325 227.904 67.8125 227.188 67.8125 226.24ZM15.4355 247H14.1709V240.649H10.7666V247H9.49512V239.604H15.4355V247ZM23.7139 243.384C23.7139 244.509 23.4564 245.416 22.9414 246.104C22.4264 246.793 21.7292 247.137 20.8496 247.137C19.9518 247.137 19.2454 246.852 18.7305 246.282V249.844H17.4658V239.604H18.6211L18.6826 240.424C19.1976 239.786 19.9131 239.467 20.8291 239.467C21.7178 239.467 22.4196 239.802 22.9346 240.472C23.4541 241.142 23.7139 242.074 23.7139 243.268V243.384ZM22.4492 243.24C22.4492 242.406 22.2715 241.748 21.916 241.265C21.5605 240.782 21.0729 240.54 20.4531 240.54C19.6875 240.54 19.1133 240.88 18.7305 241.559V245.093C19.1087 245.767 19.6875 246.104 20.4668 246.104C21.0729 246.104 21.5537 245.865 21.9092 245.387C22.2692 244.904 22.4492 244.188 22.4492 243.24ZM24.9922 243.233C24.9922 242.509 25.1335 241.857 25.416 241.278C25.7031 240.7 26.0996 240.253 26.6055 239.938C27.1159 239.624 27.6969 239.467 28.3486 239.467C29.3558 239.467 30.1693 239.815 30.7891 240.513C31.4134 241.21 31.7256 242.137 31.7256 243.295V243.384C31.7256 244.104 31.5866 244.751 31.3086 245.325C31.0352 245.895 30.641 246.339 30.126 246.658C29.6156 246.977 29.0277 247.137 28.3623 247.137C27.3597 247.137 26.5462 246.788 25.9219 246.091C25.3021 245.394 24.9922 244.471 24.9922 243.322V243.233ZM26.2637 243.384C26.2637 244.204 26.4528 244.863 26.8311 245.359C27.2139 245.856 27.7243 246.104 28.3623 246.104C29.0049 246.104 29.5153 245.854 29.8936 245.353C30.2718 244.847 30.4609 244.14 30.4609 243.233C30.4609 242.422 30.2673 241.766 29.8799 241.265C29.4971 240.759 28.9867 240.506 28.3486 240.506C27.7243 240.506 27.2207 240.754 26.8379 241.251C26.4551 241.748 26.2637 242.459 26.2637 243.384ZM36.3809 247.137C35.3783 247.137 34.5625 246.809 33.9336 246.152C33.3047 245.492 32.9902 244.61 32.9902 243.507V243.274C32.9902 242.541 33.1292 241.887 33.4072 241.312C33.6898 240.734 34.0817 240.283 34.583 239.959C35.0889 239.631 35.6357 239.467 36.2236 239.467C37.1852 239.467 37.9326 239.784 38.4658 240.417C38.999 241.05 39.2656 241.957 39.2656 243.138V243.664H34.2549C34.2731 244.393 34.485 244.983 34.8906 245.435C35.3008 245.881 35.8203 246.104 36.4492 246.104C36.8958 246.104 37.2741 246.013 37.584 245.831C37.8939 245.649 38.165 245.407 38.3975 245.106L39.1699 245.708C38.5501 246.66 37.6204 247.137 36.3809 247.137ZM36.2236 240.506C35.7132 240.506 35.2848 240.693 34.9385 241.066C34.5921 241.436 34.3779 241.955 34.2959 242.625H38.001V242.529C37.9645 241.887 37.7913 241.39 37.4814 241.039C37.1715 240.684 36.7523 240.506 36.2236 240.506ZM43.0391 243.849H42.1162V247H40.8447V239.604H42.1162V242.734H42.9434L45.4316 239.604H46.9629L44.0371 243.158L47.209 247H45.6025L43.0391 243.849ZM53.792 240.629H51.3105V247H50.0459V240.629H47.6123V239.604H53.792V240.629ZM59.4795 247C59.4066 246.854 59.3473 246.594 59.3018 246.221C58.7139 246.831 58.012 247.137 57.1963 247.137C56.4671 247.137 55.8678 246.932 55.3984 246.521C54.9336 246.107 54.7012 245.583 54.7012 244.949C54.7012 244.179 54.9928 243.582 55.5762 243.158C56.1641 242.73 56.9889 242.516 58.0508 242.516H59.2812V241.935C59.2812 241.493 59.1491 241.142 58.8848 240.882C58.6204 240.618 58.2308 240.485 57.7158 240.485C57.2646 240.485 56.8864 240.599 56.5811 240.827C56.2757 241.055 56.123 241.331 56.123 241.654H54.8516C54.8516 241.285 54.9814 240.93 55.2412 240.588C55.5055 240.242 55.861 239.968 56.3076 239.768C56.7588 239.567 57.2533 239.467 57.791 239.467C58.6432 239.467 59.3109 239.681 59.7939 240.109C60.277 240.533 60.5277 241.119 60.5459 241.866V245.271C60.5459 245.95 60.6325 246.49 60.8057 246.891V247H59.4795ZM57.3809 246.036C57.7773 246.036 58.1533 245.934 58.5088 245.729C58.8643 245.523 59.1217 245.257 59.2812 244.929V243.411H58.29C56.7406 243.411 55.9658 243.865 55.9658 244.771C55.9658 245.168 56.098 245.478 56.3623 245.701C56.6266 245.924 56.9661 246.036 57.3809 246.036Z" fill="black"/>
</svg>
