<svg width="50" height="50" viewBox="0 0 50 50" fill="none" xmlns="http://www.w3.org/2000/svg">
<circle cx="25" cy="25" r="24" stroke="#DADFE2" stroke-width="2"/>
<mask id="mask0" mask-type="alpha" maskUnits="userSpaceOnUse" x="16" y="16" width="18" height="18">
<path fill-rule="evenodd" clip-rule="evenodd" d="M18 16H32C33.1001 16 34 16.9 34 18V32C34 33.1 33.1001 34 32 34H18C16.8999 34 16 33.1 16 32V18C16 16.9 16.8999 16 18 16ZM32 32H18V18H32V32ZM26 30H24V20H26V30ZM22 30H20V23H22V30ZM28 30H30V26H28V30Z" fill="white"/>
</mask>
<g mask="url(#mask0)">
<path fill-rule="evenodd" clip-rule="evenodd" d="M13 13H37V37H13V13Z" fill="#EB5757"/>
</g>
</svg>
