<svg width="25" height="34" viewBox="0 0 25 34" fill="none" xmlns="http://www.w3.org/2000/svg">
<mask id="path-1-outside-1" maskUnits="userSpaceOnUse" x="0" y="0" width="25" height="34" fill="black">
<rect fill="white" width="25" height="34"/>
<path d="M16.9171 4.36428L18.3968 1.89797C18.5651 1.61709 18.4744 1.25324 18.1935 1.08495C17.9121 0.916068 17.5488 1.00673 17.3805 1.28821L15.8191 3.89081C14.8893 3.56015 13.8938 3.37052 12.852 3.37052C11.8103 3.37052 10.8148 3.56015 9.88501 3.89081L8.32356 1.28821C8.15527 1.00673 7.79143 0.916661 7.51055 1.08495C7.22967 1.25324 7.139 1.61709 7.30729 1.89797L8.78696 4.36428C5.92659 5.84276 3.96338 8.82342 3.96338 12.2598C3.96338 12.5875 4.22885 12.8524 4.55596 12.8524H21.1481C21.4752 12.8524 21.7407 12.5875 21.7407 12.2598C21.7401 8.82402 19.7775 5.84335 16.9171 4.36428ZM5.17105 11.6672C5.47445 7.69516 8.80355 4.55627 12.852 4.55627C16.9005 4.55627 20.2296 7.69516 20.533 11.6672H5.17105Z"/>
<path d="M16.9865 7.73425H16.2055C15.9898 7.73425 15.8149 7.90906 15.8149 8.12476V8.90578C15.8149 9.12148 15.9898 9.29629 16.2055 9.29629H16.9871C17.2028 9.29629 17.3776 9.12148 17.3776 8.90578V8.12476C17.3776 7.90906 17.2022 7.73425 16.9865 7.73425Z"/>
<path d="M9.49829 7.73425H8.71668C8.50098 7.73425 8.32617 7.90906 8.32617 8.12476V8.90578C8.32617 9.12148 8.50098 9.29629 8.71668 9.29629H9.49829C9.71399 9.29629 9.8888 9.12148 9.8888 8.90578V8.12476C9.8888 7.90906 9.71399 7.73425 9.49829 7.73425Z"/>
<path d="M21.1476 11.6672H4.55547C4.22837 11.6672 3.96338 11.9321 3.96338 12.2598L3.96289 24.2126C3.96289 25.7907 5.24819 27.0742 6.82741 27.0742H7.51836V30.6332C7.51836 31.9381 8.58144 33 9.88867 33C11.1959 33 12.259 31.9381 12.259 30.6332V27.0742H13.4441V30.6332C13.4441 31.9381 14.5072 33 15.8144 33C17.1217 33 18.1848 31.9381 18.1848 30.6332V27.0742H18.8757C20.4555 27.0742 21.7402 25.7907 21.7402 24.2126L21.7407 12.2598C21.7407 11.9321 21.4753 11.6672 21.1476 11.6672ZM20.5551 24.2126C20.5551 25.1371 19.8019 25.889 18.8757 25.889H17.5922C17.2651 25.889 16.9996 26.1539 16.9996 26.4816V30.6332C16.9996 31.2851 16.4681 31.8148 15.8144 31.8148C15.1608 31.8148 14.6293 31.2845 14.6293 30.6332V26.4816C14.6293 26.1539 14.3638 25.889 14.0367 25.889H11.6664C11.3393 25.889 11.0738 26.1539 11.0738 26.4816V30.6332C11.0738 31.2851 10.5423 31.8148 9.88867 31.8148C9.23505 31.8148 8.70351 31.2845 8.70351 30.6332V26.4816C8.70351 26.1539 8.43804 25.889 8.11093 25.889H6.828C5.9018 25.889 5.14805 25.1365 5.14805 24.2126V12.8523H20.5551V24.2126Z"/>
<path d="M22.6292 12.2598C21.4855 12.2598 20.5552 13.1913 20.5552 14.3362V22.6275C20.5552 23.7724 21.4855 24.7039 22.6292 24.7039C23.7729 24.7039 24.7032 23.7724 24.7032 22.6275V14.3362C24.7032 13.1913 23.7729 12.2598 22.6292 12.2598ZM23.5181 22.6275C23.5181 23.1188 23.1193 23.5187 22.6292 23.5187C22.1391 23.5187 21.7403 23.1188 21.7403 22.6275V14.3362C21.7403 13.8449 22.1391 13.4449 22.6292 13.4449C23.1193 13.4449 23.5181 13.8449 23.5181 14.3362V22.6275Z"/>
<path d="M3.07402 12.2598C1.93035 12.2598 1 13.1913 1 14.3362V22.6275C1 23.7724 1.93035 24.7039 3.07402 24.7039C4.2177 24.7039 5.14804 23.7724 5.14804 22.6275V14.3362C5.14804 13.1913 4.2177 12.2598 3.07402 12.2598ZM3.96289 22.6275C3.96289 23.1188 3.56408 23.5187 3.07402 23.5187C2.58396 23.5187 2.18516 23.1188 2.18516 22.6275V14.3362C2.18516 13.8449 2.58396 13.4449 3.07402 13.4449C3.56408 13.4449 3.96289 13.8449 3.96289 14.3362V22.6275Z"/>
</mask>
<path d="M16.9171 4.36428L18.3968 1.89797C18.5651 1.61709 18.4744 1.25324 18.1935 1.08495C17.9121 0.916068 17.5488 1.00673 17.3805 1.28821L15.8191 3.89081C14.8893 3.56015 13.8938 3.37052 12.852 3.37052C11.8103 3.37052 10.8148 3.56015 9.88501 3.89081L8.32356 1.28821C8.15527 1.00673 7.79143 0.916661 7.51055 1.08495C7.22967 1.25324 7.139 1.61709 7.30729 1.89797L8.78696 4.36428C5.92659 5.84276 3.96338 8.82342 3.96338 12.2598C3.96338 12.5875 4.22885 12.8524 4.55596 12.8524H21.1481C21.4752 12.8524 21.7407 12.5875 21.7407 12.2598C21.7401 8.82402 19.7775 5.84335 16.9171 4.36428ZM5.17105 11.6672C5.47445 7.69516 8.80355 4.55627 12.852 4.55627C16.9005 4.55627 20.2296 7.69516 20.533 11.6672H5.17105Z" fill="#4F4F4F"/>
<path d="M16.9865 7.73425H16.2055C15.9898 7.73425 15.8149 7.90906 15.8149 8.12476V8.90578C15.8149 9.12148 15.9898 9.29629 16.2055 9.29629H16.9871C17.2028 9.29629 17.3776 9.12148 17.3776 8.90578V8.12476C17.3776 7.90906 17.2022 7.73425 16.9865 7.73425Z" fill="#4F4F4F"/>
<path d="M9.49829 7.73425H8.71668C8.50098 7.73425 8.32617 7.90906 8.32617 8.12476V8.90578C8.32617 9.12148 8.50098 9.29629 8.71668 9.29629H9.49829C9.71399 9.29629 9.8888 9.12148 9.8888 8.90578V8.12476C9.8888 7.90906 9.71399 7.73425 9.49829 7.73425Z" fill="#4F4F4F"/>
<path d="M21.1476 11.6672H4.55547C4.22837 11.6672 3.96338 11.9321 3.96338 12.2598L3.96289 24.2126C3.96289 25.7907 5.24819 27.0742 6.82741 27.0742H7.51836V30.6332C7.51836 31.9381 8.58144 33 9.88867 33C11.1959 33 12.259 31.9381 12.259 30.6332V27.0742H13.4441V30.6332C13.4441 31.9381 14.5072 33 15.8144 33C17.1217 33 18.1848 31.9381 18.1848 30.6332V27.0742H18.8757C20.4555 27.0742 21.7402 25.7907 21.7402 24.2126L21.7407 12.2598C21.7407 11.9321 21.4753 11.6672 21.1476 11.6672ZM20.5551 24.2126C20.5551 25.1371 19.8019 25.889 18.8757 25.889H17.5922C17.2651 25.889 16.9996 26.1539 16.9996 26.4816V30.6332C16.9996 31.2851 16.4681 31.8148 15.8144 31.8148C15.1608 31.8148 14.6293 31.2845 14.6293 30.6332V26.4816C14.6293 26.1539 14.3638 25.889 14.0367 25.889H11.6664C11.3393 25.889 11.0738 26.1539 11.0738 26.4816V30.6332C11.0738 31.2851 10.5423 31.8148 9.88867 31.8148C9.23505 31.8148 8.70351 31.2845 8.70351 30.6332V26.4816C8.70351 26.1539 8.43804 25.889 8.11093 25.889H6.828C5.9018 25.889 5.14805 25.1365 5.14805 24.2126V12.8523H20.5551V24.2126Z" fill="#4F4F4F"/>
<path d="M22.6292 12.2598C21.4855 12.2598 20.5552 13.1913 20.5552 14.3362V22.6275C20.5552 23.7724 21.4855 24.7039 22.6292 24.7039C23.7729 24.7039 24.7032 23.7724 24.7032 22.6275V14.3362C24.7032 13.1913 23.7729 12.2598 22.6292 12.2598ZM23.5181 22.6275C23.5181 23.1188 23.1193 23.5187 22.6292 23.5187C22.1391 23.5187 21.7403 23.1188 21.7403 22.6275V14.3362C21.7403 13.8449 22.1391 13.4449 22.6292 13.4449C23.1193 13.4449 23.5181 13.8449 23.5181 14.3362V22.6275Z" fill="#4F4F4F"/>
<path d="M3.07402 12.2598C1.93035 12.2598 1 13.1913 1 14.3362V22.6275C1 23.7724 1.93035 24.7039 3.07402 24.7039C4.2177 24.7039 5.14804 23.7724 5.14804 22.6275V14.3362C5.14804 13.1913 4.2177 12.2598 3.07402 12.2598ZM3.96289 22.6275C3.96289 23.1188 3.56408 23.5187 3.07402 23.5187C2.58396 23.5187 2.18516 23.1188 2.18516 22.6275V14.3362C2.18516 13.8449 2.58396 13.4449 3.07402 13.4449C3.56408 13.4449 3.96289 13.8449 3.96289 14.3362V22.6275Z" fill="#4F4F4F"/>
<path d="M16.9171 4.36428L16.7456 4.26138L16.636 4.44408L16.8253 4.54193L16.9171 4.36428ZM18.3968 1.89797L18.5683 2.00086L18.5684 2.00076L18.3968 1.89797ZM18.1935 1.08495L18.0906 1.25645L18.0907 1.25652L18.1935 1.08495ZM17.3805 1.28821L17.552 1.3911L17.5522 1.39084L17.3805 1.28821ZM15.8191 3.89081L15.7521 4.07925L15.9063 4.13411L15.9906 3.9937L15.8191 3.89081ZM9.88501 3.89081L9.7135 3.9937L9.79775 4.13411L9.95202 4.07925L9.88501 3.89081ZM8.32356 1.28821L8.15191 1.39084L8.15206 1.3911L8.32356 1.28821ZM7.30729 1.89797L7.13573 2.00076L7.13579 2.00086L7.30729 1.89797ZM8.78696 4.36428L8.8788 4.54195L9.06809 4.44411L8.95846 4.26138L8.78696 4.36428ZM5.17105 11.6672L4.97163 11.652L4.95519 11.8672H5.17105V11.6672ZM20.533 11.6672V11.8672H20.7489L20.7325 11.652L20.533 11.6672ZM3.96289 24.2126L3.76289 24.2126V24.2126H3.96289ZM7.51836 27.0742H7.71836V26.8742H7.51836V27.0742ZM12.259 27.0742V26.8742H12.059V27.0742H12.259ZM13.4441 27.0742H13.6441V26.8742H13.4441V27.0742ZM18.1848 27.0742V26.8742H17.9848V27.0742H18.1848ZM21.7402 24.2126L21.5402 24.2126V24.2126H21.7402ZM5.14805 12.8523V12.6523H4.94805V12.8523H5.14805ZM20.5551 12.8523H20.7551V12.6523H20.5551V12.8523ZM17.0886 4.46717L18.5683 2.00086L18.2253 1.79508L16.7456 4.26138L17.0886 4.46717ZM18.5684 2.00076C18.7933 1.62541 18.6722 1.13862 18.2963 0.91339L18.0907 1.25652C18.2766 1.36787 18.3369 1.60877 18.2252 1.79518L18.5684 2.00076ZM18.2964 0.913454C17.9204 0.687851 17.4341 0.808902 17.2089 1.18557L17.5522 1.39084C17.6636 1.20456 17.9037 1.14429 18.0906 1.25645L18.2964 0.913454ZM17.209 1.18531L15.6476 3.78791L15.9906 3.9937L17.552 1.3911L17.209 1.18531ZM15.8861 3.70237C14.9365 3.36465 13.9183 3.17052 12.852 3.17052V3.57052C13.8693 3.57052 14.8422 3.75565 15.7521 4.07925L15.8861 3.70237ZM12.852 3.17052C11.7857 3.17052 10.7676 3.36465 9.81799 3.70237L9.95202 4.07925C10.8619 3.75565 11.8348 3.57052 12.852 3.57052V3.17052ZM10.0565 3.78791L8.49507 1.18531L8.15206 1.3911L9.7135 3.9937L10.0565 3.78791ZM8.49522 1.18557C8.26986 0.808652 7.78287 0.688639 7.40776 0.91339L7.61334 1.25652C7.79999 1.14468 8.04068 1.20481 8.15191 1.39084L8.49522 1.18557ZM7.40776 0.91339C7.03185 1.13862 6.91083 1.62541 7.13573 2.00076L7.47886 1.79518C7.36717 1.60877 7.42749 1.36787 7.61334 1.25652L7.40776 0.91339ZM7.13579 2.00086L8.61546 4.46717L8.95846 4.26138L7.4788 1.79508L7.13579 2.00086ZM8.69513 4.18661C5.7714 5.69784 3.76338 8.74523 3.76338 12.2598H4.16338C4.16338 8.90162 6.08178 5.98768 8.8788 4.54195L8.69513 4.18661ZM3.76338 12.2598C3.76338 12.6981 4.11853 13.0524 4.55596 13.0524V12.6524C4.33918 12.6524 4.16338 12.4769 4.16338 12.2598H3.76338ZM4.55596 13.0524H21.1481V12.6524H4.55596V13.0524ZM21.1481 13.0524C21.5856 13.0524 21.9407 12.6981 21.9407 12.2598H21.5407C21.5407 12.4769 21.3649 12.6524 21.1481 12.6524V13.0524ZM21.9407 12.2597C21.9401 8.74582 19.9327 5.69845 17.009 4.18662L16.8253 4.54193C19.6223 5.98825 21.5401 8.90221 21.5407 12.2598L21.9407 12.2597ZM5.37047 11.6824C5.66597 7.81377 8.90896 4.75627 12.852 4.75627V4.35627C8.69814 4.35627 5.28293 7.57654 4.97163 11.652L5.37047 11.6824ZM12.852 4.75627C16.7951 4.75627 20.0381 7.81377 20.3336 11.6824L20.7325 11.652C20.4212 7.57654 17.0059 4.35627 12.852 4.35627V4.75627ZM20.533 11.4672H5.17105V11.8672H20.533V11.4672ZM16.9865 7.53425H16.2055V7.93425H16.9865V7.53425ZM16.2055 7.53425C15.8793 7.53425 15.6149 7.79861 15.6149 8.12476H16.0149C16.0149 8.01952 16.1002 7.93425 16.2055 7.93425V7.53425ZM15.6149 8.12476V8.90578H16.0149V8.12476H15.6149ZM15.6149 8.90578C15.6149 9.23193 15.8793 9.49629 16.2055 9.49629V9.09629C16.1002 9.09629 16.0149 9.01102 16.0149 8.90578H15.6149ZM16.2055 9.49629H16.9871V9.09629H16.2055V9.49629ZM16.9871 9.49629C17.3132 9.49629 17.5776 9.23193 17.5776 8.90578H17.1776C17.1776 9.01102 17.0923 9.09629 16.9871 9.09629V9.49629ZM17.5776 8.90578V8.12476H17.1776V8.90578H17.5776ZM17.5776 8.12476C17.5776 7.79821 17.3122 7.53425 16.9865 7.53425V7.93425C17.0921 7.93425 17.1776 8.01991 17.1776 8.12476H17.5776ZM9.49829 7.53425H8.71668V7.93425H9.49829V7.53425ZM8.71668 7.53425C8.39052 7.53425 8.12617 7.79861 8.12617 8.12476H8.52617C8.52617 8.01952 8.61144 7.93425 8.71668 7.93425V7.53425ZM8.12617 8.12476V8.90578H8.52617V8.12476H8.12617ZM8.12617 8.90578C8.12617 9.23193 8.39052 9.49629 8.71668 9.49629V9.09629C8.61144 9.09629 8.52617 9.01102 8.52617 8.90578H8.12617ZM8.71668 9.49629H9.49829V9.09629H8.71668V9.49629ZM9.49829 9.49629C9.82445 9.49629 10.0888 9.23193 10.0888 8.90578H9.6888C9.6888 9.01102 9.60353 9.09629 9.49829 9.09629V9.49629ZM10.0888 8.90578V8.12476H9.6888V8.90578H10.0888ZM10.0888 8.12476C10.0888 7.79861 9.82444 7.53425 9.49829 7.53425V7.93425C9.60353 7.93425 9.6888 8.01952 9.6888 8.12476H10.0888ZM21.1476 11.4672H4.55547V11.8672H21.1476V11.4672ZM4.55547 11.4672C4.11781 11.4672 3.76338 11.8217 3.76338 12.2598H4.16338C4.16338 12.0424 4.33892 11.8672 4.55547 11.8672V11.4672ZM3.76338 12.2598L3.76289 24.2126L4.16289 24.2126L4.16338 12.2598L3.76338 12.2598ZM3.76289 24.2126C3.76289 25.9013 5.13795 27.2742 6.82741 27.2742V26.8742C5.35843 26.8742 4.16289 25.68 4.16289 24.2126H3.76289ZM6.82741 27.2742H7.51836V26.8742H6.82741V27.2742ZM7.31836 27.0742V30.6332H7.71836V27.0742H7.31836ZM7.31836 30.6332C7.31836 32.0488 8.47124 33.2 9.88867 33.2V32.8C8.69164 32.8 7.71836 31.8274 7.71836 30.6332H7.31836ZM9.88867 33.2C11.3061 33.2 12.459 32.0488 12.459 30.6332H12.059C12.059 31.8274 11.0857 32.8 9.88867 32.8V33.2ZM12.459 30.6332V27.0742H12.059V30.6332H12.459ZM12.259 27.2742H13.4441V26.8742H12.259V27.2742ZM13.2441 27.0742V30.6332H13.6441V27.0742H13.2441ZM13.2441 30.6332C13.2441 32.0488 14.397 33.2 15.8144 33.2V32.8C14.6174 32.8 13.6441 31.8274 13.6441 30.6332H13.2441ZM15.8144 33.2C17.2319 33.2 18.3848 32.0488 18.3848 30.6332H17.9848C17.9848 31.8274 17.0115 32.8 15.8144 32.8V33.2ZM18.3848 30.6332V27.0742H17.9848V30.6332H18.3848ZM18.1848 27.2742H18.8757V26.8742H18.1848V27.2742ZM18.8757 27.2742C20.5658 27.2742 21.9402 25.9013 21.9402 24.2126H21.5402C21.5402 25.68 20.3452 26.8742 18.8757 26.8742V27.2742ZM21.9402 24.2126L21.9407 12.2598L21.5407 12.2598L21.5402 24.2126L21.9402 24.2126ZM21.9407 12.2598C21.9407 11.8214 21.5856 11.4672 21.1476 11.4672V11.8672C21.3651 11.8672 21.5407 12.0427 21.5407 12.2598H21.9407ZM20.3551 24.2126C20.3551 25.0263 19.6918 25.689 18.8757 25.689V26.089C19.912 26.089 20.7551 25.2478 20.7551 24.2126H20.3551ZM18.8757 25.689H17.5922V26.089H18.8757V25.689ZM17.5922 25.689C17.1547 25.689 16.7996 26.0433 16.7996 26.4816H17.1996C17.1996 26.2645 17.3754 26.089 17.5922 26.089V25.689ZM16.7996 26.4816V30.6332H17.1996V26.4816H16.7996ZM16.7996 30.6332C16.7996 31.174 16.3582 31.6148 15.8144 31.6148V32.0148C16.5779 32.0148 17.1996 31.3961 17.1996 30.6332H16.7996ZM15.8144 31.6148C15.2708 31.6148 14.8293 31.1735 14.8293 30.6332H14.4293C14.4293 31.3954 15.0509 32.0148 15.8144 32.0148V31.6148ZM14.8293 30.6332V26.4816H14.4293V30.6332H14.8293ZM14.8293 26.4816C14.8293 26.0433 14.4741 25.689 14.0367 25.689V26.089C14.2535 26.089 14.4293 26.2645 14.4293 26.4816H14.8293ZM14.0367 25.689H11.6664V26.089H14.0367V25.689ZM11.6664 25.689C11.229 25.689 10.8738 26.0433 10.8738 26.4816H11.2738C11.2738 26.2645 11.4496 26.089 11.6664 26.089V25.689ZM10.8738 26.4816V30.6332H11.2738V26.4816H10.8738ZM10.8738 30.6332C10.8738 31.174 10.4324 31.6148 9.88867 31.6148V32.0148C10.6522 32.0148 11.2738 31.3961 11.2738 30.6332H10.8738ZM9.88867 31.6148C9.34499 31.6148 8.90351 31.1735 8.90351 30.6332H8.50351C8.50351 31.3954 9.12512 32.0148 9.88867 32.0148V31.6148ZM8.90351 30.6332V26.4816H8.50351V30.6332H8.90351ZM8.90351 26.4816C8.90351 26.0433 8.54836 25.689 8.11093 25.689V26.089C8.32771 26.089 8.50351 26.2645 8.50351 26.4816H8.90351ZM8.11093 25.689H6.828V26.089H8.11093V25.689ZM6.828 25.689C6.01189 25.689 5.34805 25.0256 5.34805 24.2126H4.94805C4.94805 25.2473 5.79172 26.089 6.828 26.089V25.689ZM5.34805 24.2126V12.8523H4.94805V24.2126H5.34805ZM5.14805 13.0523H20.5551V12.6523H5.14805V13.0523ZM20.3551 12.8523V24.2126H20.7551V12.8523H20.3551ZM22.6292 12.0598C21.3748 12.0598 20.3552 13.0811 20.3552 14.3362H20.7552C20.7552 13.3015 21.5962 12.4598 22.6292 12.4598V12.0598ZM20.3552 14.3362V22.6275H20.7552V14.3362H20.3552ZM20.3552 22.6275C20.3552 23.8826 21.3748 24.9039 22.6292 24.9039V24.5039C21.5962 24.5039 20.7552 23.6621 20.7552 22.6275H20.3552ZM22.6292 24.9039C23.8836 24.9039 24.9032 23.8826 24.9032 22.6275H24.5032C24.5032 23.6621 23.6622 24.5039 22.6292 24.5039V24.9039ZM24.9032 22.6275V14.3362H24.5032V22.6275H24.9032ZM24.9032 14.3362C24.9032 13.0811 23.8836 12.0598 22.6292 12.0598V12.4598C23.6622 12.4598 24.5032 13.3015 24.5032 14.3362H24.9032ZM23.3181 22.6275C23.3181 23.0088 23.0083 23.3187 22.6292 23.3187V23.7187C23.2302 23.7187 23.7181 23.2287 23.7181 22.6275H23.3181ZM22.6292 23.3187C22.2501 23.3187 21.9403 23.0088 21.9403 22.6275H21.5403C21.5403 23.2287 22.0282 23.7187 22.6292 23.7187V23.3187ZM21.9403 22.6275V14.3362H21.5403V22.6275H21.9403ZM21.9403 14.3362C21.9403 13.9548 22.2501 13.6449 22.6292 13.6449V13.2449C22.0282 13.2449 21.5403 13.735 21.5403 14.3362H21.9403ZM22.6292 13.6449C23.0083 13.6449 23.3181 13.9548 23.3181 14.3362H23.7181C23.7181 13.735 23.2302 13.2449 22.6292 13.2449V13.6449ZM23.3181 14.3362V22.6275H23.7181V14.3362H23.3181ZM3.07402 12.0598C1.81967 12.0598 0.8 13.0811 0.8 14.3362H1.2C1.2 13.3015 2.04103 12.4598 3.07402 12.4598V12.0598ZM0.8 14.3362V22.6275H1.2V14.3362H0.8ZM0.8 22.6275C0.8 23.8826 1.81967 24.9039 3.07402 24.9039V24.5039C2.04103 24.5039 1.2 23.6621 1.2 22.6275H0.8ZM3.07402 24.9039C4.32838 24.9039 5.34804 23.8826 5.34804 22.6275H4.94804C4.94804 23.6621 4.10702 24.5039 3.07402 24.5039V24.9039ZM5.34804 22.6275V14.3362H4.94804V22.6275H5.34804ZM5.34804 14.3362C5.34804 13.0811 4.32838 12.0598 3.07402 12.0598V12.4598C4.10702 12.4598 4.94804 13.3015 4.94804 14.3362H5.34804ZM3.76289 22.6275C3.76289 23.0088 3.45311 23.3187 3.07402 23.3187V23.7187C3.67506 23.7187 4.16289 23.2287 4.16289 22.6275H3.76289ZM3.07402 23.3187C2.69494 23.3187 2.38516 23.0088 2.38516 22.6275H1.98516C1.98516 23.2287 2.47298 23.7187 3.07402 23.7187V23.3187ZM2.38516 22.6275V14.3362H1.98516V22.6275H2.38516ZM2.38516 14.3362C2.38516 13.9548 2.69494 13.6449 3.07402 13.6449V13.2449C2.47298 13.2449 1.98516 13.735 1.98516 14.3362H2.38516ZM3.07402 13.6449C3.45311 13.6449 3.76289 13.9548 3.76289 14.3362H4.16289C4.16289 13.735 3.67506 13.2449 3.07402 13.2449V13.6449ZM3.76289 14.3362V22.6275H4.16289V14.3362H3.76289Z" fill="#4F4F4F" mask="url(#path-1-outside-1)"/>
</svg>
