<svg width="29" height="35" viewBox="0 0 29 35" fill="none" xmlns="http://www.w3.org/2000/svg">
<path d="M26.6322 26.9378C26.1628 28.0557 25.6067 29.0844 24.9622 30.0306C24.0839 31.3219 23.3626 32.2142 22.8097 32.7109C21.951 33.5224 21.0285 33.9399 20.0422 33.9635C19.3356 33.9635 18.4818 33.7564 17.4873 33.3355C16.4896 32.9163 15.5736 32.7109 14.7345 32.7109C13.8562 32.7109 12.9141 32.9163 11.9049 33.3355C10.8973 33.7564 10.0828 33.977 9.45957 33.9972C8.5158 34.0393 7.57203 33.6116 6.63154 32.7109C6.03125 32.1721 5.28049 31.2461 4.37925 29.9363C3.41422 28.5406 2.62093 26.9159 1.99938 25.0689C1.33367 23.0705 1 21.1377 1 19.2655C1 17.1223 1.4498 15.272 2.35105 13.723C3.06092 12.4772 4.00305 11.4956 5.18072 10.775C6.36002 10.0527 7.63582 9.68404 9.00813 9.66047C9.76053 9.66047 10.7468 9.89954 11.9687 10.371C13.1905 10.8424 13.9756 11.0814 14.3174 11.0814C14.5759 11.0814 15.4444 10.8003 16.923 10.243C18.3182 9.72613 19.4959 9.51231 20.4609 9.59649C23.078 9.81367 25.0424 10.8744 26.3493 12.7869C24.0103 14.2466 22.8539 16.2889 22.8768 18.9103C22.8964 20.9525 23.6177 22.6513 25.0309 23.9998C25.6721 24.6262 26.3869 25.1094 27.1818 25.4528C27.0084 25.9697 26.8253 26.463 26.6322 26.9378ZM20.6343 1.64146C20.6343 3.2409 20.0651 4.73595 18.9349 6.1182C17.5675 7.76141 15.9155 8.71266 14.1244 8.56282C14.1244 8.56282 14.0901 8.16885 14.0901 7.95671C14.0901 6.41957 14.7378 4.77636 15.8942 3.43115C16.47 2.75096 17.2027 2.18358 18.0909 1.73237C18.9774 1.2879 19.8149 1.04209 20.6032 1C20.6245 1.2155 20.6343 1.42932 20.6343 1.64146Z" stroke="#4F4F4F" stroke-width="1.5"/>
</svg>
