<svg width="50" height="50" viewBox="0 0 50 50" fill="none" xmlns="http://www.w3.org/2000/svg">
<circle cx="25" cy="25" r="24" stroke="#DADFE2" stroke-width="2"/>
<path d="M36.4092 19.7407L33.8246 17.1481L32.4215 18.5556C30.9446 17.8148 29.3938 17.4444 27.7692 17.4444C26.2923 17.4444 24.8154 17.7407 23.4123 18.4074L25.7754 16.037L25.9231 15.8889C26.0708 15.963 26.1446 15.963 26.2923 15.963C27.1046 15.963 27.7692 15.2963 27.7692 14.4815C27.7692 13.6667 27.1046 13 26.2923 13C25.48 13 24.8154 13.6667 24.8154 14.4815C24.8154 14.6296 24.8154 14.7037 24.8892 14.8519L24.7415 15L21.4185 18.3333L20.3846 17.2222L17.2092 20.4074L18.2431 21.4444L14.92 24.7778L14.7723 24.9259C14.6985 24.8519 14.6246 24.8519 14.4769 24.8519C13.6646 24.8519 13 25.5185 13 26.3333C13 27.1481 13.6646 27.8148 14.4769 27.8148C15.2892 27.8148 15.9538 27.1481 15.9538 26.3333C15.9538 26.1852 15.9538 26.1111 15.88 25.963L16.0277 25.8148L18.3908 23.4444C17.8 24.7778 17.4308 26.2593 17.4308 27.7407C17.4308 29.3704 17.8 31 18.5385 32.4815L17.1354 33.8889L20.2369 37L23.4123 33.8889L22.8954 33.3704L20.2369 30.7037L19.6462 31.2963C19.1292 30.1852 18.9077 28.9259 18.9077 27.7407C18.9077 26.1852 19.3508 24.6296 20.1631 23.2963L20.3846 23.5185L23.4862 20.4074L23.2646 20.1852C24.6677 19.3704 26.2185 18.9259 27.7692 18.9259C28.9508 18.9259 30.1323 19.1481 31.3138 19.6667L31.24 19.7407L30.7231 20.2593L33.8985 23.4444L37 20.2593L36.4092 19.7407ZM19.9415 33.1481L20.2369 32.8519L21.2708 33.8889L20.2369 34.9259L19.2031 33.8889L19.9415 33.1481ZM20.3846 21.4444L19.8677 20.9259L19.3508 20.4074L20.3846 19.3704L20.9015 19.8889L21.4185 20.4074L20.3846 21.4444ZM33.8246 21.2963L32.7908 20.2593L33.0862 19.963L33.8246 19.2222L34.8585 20.2593L33.8246 21.2963Z" fill="#2C83D2"/>
</svg>
