<svg width="50" height="50" viewBox="0 0 50 50" fill="none" xmlns="http://www.w3.org/2000/svg">
<circle cx="25" cy="25" r="24" stroke="#DADFE2" stroke-width="2"/>
<path d="M37 16.25C37 14.975 36.025 14 34.75 14H15.25C13.975 14 13 14.975 13 16.25V34.25C13 35.525 13.975 36.5 15.25 36.5H34.75C36.025 36.5 37 35.525 37 34.25V16.25ZM35.5 34.25C35.5 34.7 35.2 35 34.75 35H15.25C14.8 35 14.5 34.7 14.5 34.25V16.25C14.5 15.8 14.8 15.5 15.25 15.5H34.75C35.2 15.5 35.5 15.8 35.5 16.25V34.25Z" fill="#395292"/>
<path d="M18.25 33.5C18.6642 33.5 19 33.1642 19 32.75C19 32.3358 18.6642 32 18.25 32C17.8358 32 17.5 32.3358 17.5 32.75C17.5 33.1642 17.8358 33.5 18.25 33.5Z" fill="#395292"/>
<path d="M21.25 33.5C21.6642 33.5 22 33.1642 22 32.75C22 32.3358 21.6642 32 21.25 32C20.8358 32 20.5 32.3358 20.5 32.75C20.5 33.1642 20.8358 33.5 21.25 33.5Z" fill="#395292"/>
<path d="M31.1444 24.2426C31.3035 24.0835 31.3565 23.9244 31.3565 23.7122C31.3565 23.5001 31.3035 23.341 31.1444 23.1819L28.4927 20.5303C28.1745 20.2121 27.7503 20.2121 27.4321 20.5303C27.1139 20.8485 27.1139 21.2727 27.4321 21.5909L29.5534 23.7123L27.4321 25.8336C27.1139 26.1518 27.1139 26.576 27.4321 26.8942C27.7503 27.2124 28.1745 27.2124 28.4927 26.8942L31.1444 24.2426Z" fill="#395292"/>
<path d="M18.7804 23.182C18.6213 23.3411 18.5683 23.5002 18.5683 23.7123C18.5683 23.9244 18.6213 24.0835 18.7804 24.2426L21.4321 26.8943C21.7503 27.2125 22.1745 27.2125 22.4927 26.8943C22.8109 26.5761 22.8109 26.1518 22.4927 25.8336L20.3714 23.7123L22.4927 21.591C22.8109 21.2728 22.8109 20.8485 22.4927 20.5303C22.1745 20.2121 21.7503 20.2121 21.4321 20.5303L18.7804 23.182Z" fill="#395292"/>
</svg>
