<svg width="32" height="32" viewBox="0 0 32 32" fill="none" xmlns="http://www.w3.org/2000/svg">
<path fill-rule="evenodd" clip-rule="evenodd" d="M30 0L27.4492 28.7967L15.9829 32L4.54822 28.8011L2 0H30ZM27.4925 2.46877L25.3985 26.8222L15.9859 29.5313L6.59927 26.826L4.50745 2.46877H27.4925ZM15.9878 9.41961H11.041L11.3614 13.0368H15.9878H15.9998H24.1357L24.0502 13.9853L23.1737 23.8817L15.9998 25.8852V25.8858L15.9837 25.8902L8.80329 23.8817L8.31224 18.3354H11.831L12.0806 21.1525L15.9844 22.2148L15.9877 22.2139V22.2137L19.8972 21.1503L20.3041 16.5691H15.9998H15.9878H8.15561L7.21017 5.88727H15.9878H15.9998H24.7684L24.4547 9.41961H15.9998H15.9878Z" fill="#232531"/>
</svg>
