<svg width="33" height="32" viewBox="0 0 33 32" fill="none" xmlns="http://www.w3.org/2000/svg">
<path d="M29.4784 24.7498C27.7373 24.7056 26.3879 24.883 25.2562 25.3707C24.9297 25.5036 24.4073 25.5038 24.3638 25.9251C24.5379 26.1025 24.5597 26.3907 24.712 26.6345C24.9735 27.0779 25.4302 27.6766 25.8438 27.9871C26.3007 28.3418 26.7579 28.6964 27.2366 29.0069C28.0855 29.5391 29.0432 29.8494 29.8702 30.3815C30.3492 30.6917 30.8277 31.0911 31.3065 31.4236C31.546 31.6007 31.6982 31.8893 32.0031 32V31.9336C31.8506 31.7339 31.807 31.4458 31.6548 31.224C31.4374 31.0023 31.2195 30.8027 31.0018 30.581C30.3707 29.7165 29.5872 28.9625 28.7384 28.3418C28.042 27.854 26.5184 27.1889 26.2355 26.3684C26.2355 26.3684 26.2137 26.3464 26.192 26.3242C26.6708 26.2799 27.2366 26.1025 27.6938 25.9694C28.4337 25.7697 29.1084 25.8142 29.8702 25.6146C30.2183 25.5259 30.5666 25.4151 30.9147 25.3042V25.1048C30.5232 24.7056 30.2402 24.1736 29.8267 23.7966C28.7167 22.8208 27.4978 21.8676 26.2355 21.0695C25.5608 20.626 24.6901 20.3377 23.972 19.9609C23.711 19.8277 23.2755 19.7613 23.1233 19.5396C22.7314 19.0519 22.5137 18.4089 22.2309 17.8324C21.5999 16.6128 20.9903 15.2605 20.4462 13.9746C20.0546 13.1098 19.8152 12.2451 19.3363 11.447C17.0946 7.67783 14.657 5.39416 10.9137 3.1547C10.1083 2.68917 9.1507 2.4896 8.1278 2.24582C7.58389 2.22352 7.0396 2.17929 6.49556 2.15699C6.1473 2.00177 5.79903 1.58059 5.4943 1.38103C4.25398 0.582761 1.05443 -1.14644 0.14036 1.13724C-0.447336 2.5783 1.01102 3.99719 1.5114 4.72906C1.88168 5.23894 2.3603 5.81534 2.62149 6.39186C2.77386 6.76857 2.81727 7.16795 2.96963 7.56696C3.31802 8.54224 3.64427 9.6289 4.10149 10.538C4.34092 11.0036 4.602 11.4913 4.90673 11.9126C5.08086 12.1564 5.38547 12.2674 5.45089 12.6664C5.14629 13.1098 5.12439 13.7751 4.95014 14.3293C4.16667 16.8347 4.47152 19.9387 5.58137 21.7789C5.92951 22.333 6.75663 23.5528 7.8666 23.087C8.8461 22.688 8.62843 21.4242 8.91114 20.3157C8.97669 20.0493 8.93316 19.8722 9.06364 19.6948V19.7393C9.36837 20.3599 9.67297 20.9587 9.95594 21.5795C10.6307 22.6657 11.8058 23.7966 12.7852 24.5505C13.3077 24.9494 13.7212 25.6368 14.3742 25.8807V25.8141H14.3305C14.1999 25.6145 14.004 25.5259 13.83 25.3706C13.4383 24.9717 13.0029 24.4839 12.6983 24.0404C11.7843 22.7986 10.9788 21.4241 10.2607 20.0051C9.91253 19.318 9.60767 18.564 9.32483 17.8768C9.19411 17.6104 9.19411 17.2115 8.97657 17.0786C8.65007 17.5663 8.17133 17.9876 7.9319 18.5862C7.51859 19.5396 7.47493 20.7147 7.32256 21.934C7.2355 21.9564 7.27891 21.934 7.23537 21.9786C6.53909 21.8009 6.29966 21.0695 6.03834 20.4486C5.38534 18.8745 5.27651 16.3469 5.84257 14.5289C5.99493 14.0632 6.64793 12.6 6.38673 12.1565C6.25613 11.7352 5.82067 11.4913 5.58137 11.1588C5.29853 10.7375 4.99367 10.2056 4.7979 9.73977C4.2755 8.49815 4.0143 7.12348 3.4485 5.88186C3.1873 5.30533 2.73045 4.70689 2.3603 4.17471C1.94686 3.57613 1.48976 3.1547 1.16326 2.44526C1.05455 2.20147 0.902063 1.80234 1.0762 1.53625C1.11973 1.35885 1.20667 1.29246 1.38093 1.24811C1.66389 1.00407 2.46925 1.31451 2.75197 1.44755C3.55733 1.77991 4.23197 2.0906 4.90673 2.55613C5.21134 2.77787 5.53783 3.19918 5.92951 3.31005H6.3866C7.08313 3.46514 7.86648 3.35439 8.51947 3.55383C9.6731 3.93067 10.7176 4.48502 11.6536 5.08372C14.5048 6.92391 16.8551 9.5402 18.444 12.6664C18.7052 13.1761 18.8139 13.642 19.0533 14.1739C19.5106 15.2605 20.0764 16.3691 20.5332 17.4333C20.9903 18.4752 21.4255 19.5396 22.0785 20.4044C22.405 20.8698 23.7108 21.1138 24.2985 21.3577C24.7338 21.5572 25.4085 21.7347 25.8002 21.9785C26.5402 22.4439 27.2801 22.9763 27.9766 23.486C28.3249 23.7521 29.413 24.3065 29.4784 24.7498Z" fill="#232531"/>
<path d="M7.27321 5.37769C6.90359 5.37769 6.64271 5.42144 6.38171 5.48656V5.53006H6.42521C6.59934 5.87806 6.90359 6.11731 7.12096 6.42169C7.29509 6.76956 7.44721 7.11769 7.62134 7.46569C7.64296 7.44381 7.66471 7.42219 7.66471 7.42219C7.96934 7.20456 8.12146 6.85669 8.12146 6.33469C7.99096 6.18256 7.96921 6.03031 7.86046 5.87806C7.73009 5.66044 7.44721 5.55181 7.27321 5.37769Z" fill="#232531"/>
</svg>
