<svg width="40" height="64" viewBox="0 0 40 64" fill="none" xmlns="http://www.w3.org/2000/svg">
<path d="M37.492 28.6213C44.0664 15.4715 34.505 0 19.8026 0C5.10025 0 -4.46112 15.4715 2.11325 28.6213L19.8026 64L37.492 28.6213Z" fill="#FF4800"/>
<path d="M30.8372 19.8621C30.8372 13.7677 25.8971 8.82762 19.8027 8.82762C13.7084 8.82762 8.76825 13.7677 8.76825 19.8621C8.76825 25.9565 13.7084 30.8966 19.8027 30.8966C25.8971 30.8966 30.8372 25.9564 30.8372 19.8621Z" fill="white"/>
<path d="M21.8784 14.375V18.1827H17.6476V14.375H14.263V25.375H17.6476V21.5673H21.8784V25.375H25.263V14.375H21.8784Z" fill="#3DCF09"/>
</svg>
