<svg width="32" height="32" viewBox="0 0 32 32" fill="none" xmlns="http://www.w3.org/2000/svg">
<path d="M24 0C19.6 0 16 3.1 16 7C16 10.9 19.6 14 24 14H24.2V14.1C24 14.7 23.5 15.3 23 15.6C22.4 15.9 22 16 22 16C22 16 22.4 16.1 23 16.2C23.7 16.2 24.6 16.1 25.5 15.6C26.4 15.1 27.1 14.2 27.5 13.4L27.6 13.3C30.2 12.1 32 9.7 32 7C32 3.1 28.4 0 24 0ZM27 10H21C20.5 10 20 9.6 20 9C20 8.4 20.5 8 21 8H27C27.6 8 28 8.4 28 9C28 9.6 27.5 10 27 10ZM27 6H21C20.5 6 20 5.6 20 5C20 4.4 20.5 4 21 4H27C27.6 4 28 4.4 28 5C28 5.6 27.5 6 27 6Z" fill="#939393"/>
<path d="M28 26.1C27.9 25.3 27.5 24.5 27 23.9C25.2 22 23 21.1 21.1 20.3C20.1 19.9 19.3 19.5 18.8 19.2C18.2 18.8 18 18.5 17.9 18.1L17.8 17.7C17.8 17.4 17.9 17 18.3 16.4C18.3 16.4 18.3 16.4 18.4 16.3C18.5 16.2 18.7 16.1 18.8 16C19.1 15.7 19.3 15.5 19.6 15.2L18 14C17.7 14.3 17.4 14.6 17.1 14.9C16.2 15.6 15.2 16.1 14.1 16.1C13 16.1 12 15.7 11.1 14.9C9.4 13.4 8.2 10.6 8.2 8C8.2 7.1 8.3 6.2 8.6 5.4C8.9 4.6 9.4 3.8 10.2 3.2C11 2.5 12.2 2 14 2C14.8 2 15.5 2.1 16 2.2L16.5 0.3C15.8 0.1 14.9 0 14 0C11.8 0 10.1 0.6 9 1.5C7.8 2.4 7.1 3.6 6.7 4.6C6.3 5.6 6.2 6.7 6.2 7.9C6.2 10.9 7.3 13.9 9.4 16C9.5 16.1 9.6 16.2 9.7 16.3C9.7 16.3 9.7 16.3 9.8 16.4C10.2 17 10.3 17.4 10.3 17.7L10.2 18.1C10.1 18.5 9.8 18.8 9.3 19.2C8.7 19.6 7.9 19.9 7 20.3C5.1 21.1 2.8 22 1 23.9C0.5 24.5 0.1 25.2 0 25.8V25.9V30C0 31.1 0.9 32 2 32H26C27.1 32 28 31.1 28 30V26.1ZM26 30H2V26.1C2 25.9 2.2 25.6 2.5 25.2C3.9 23.7 5.8 22.8 7.7 22C8.7 21.6 9.5 21.2 10.3 20.7C11.1 20.2 11.8 19.5 12.1 18.5C12.2 18.2 12.2 17.9 12.2 17.6C12.8 17.8 13.4 17.9 14 17.9C14.6 17.9 15.2 17.8 15.8 17.6C15.8 17.9 15.8 18.2 15.9 18.5C16.2 19.5 16.9 20.2 17.7 20.7C18.5 21.2 19.4 21.6 20.3 22C22.2 22.8 24.1 23.6 25.5 25.2C25.8 25.5 26 25.9 26 26.2V30Z" fill="#666666"/>
</svg>
