<svg width="26" height="32" viewBox="0 0 26 32" fill="none" xmlns="http://www.w3.org/2000/svg">
<path d="M24.4 8.4L17.1 1.1L17 1.2L17 7C17 8.1 17.9 9 19 9L24.2 9C24.3 8.7 24.3 8.7 24.4 8.4Z" fill="#939393"/>
<path d="M23 31L23 32L3 32C1.3 32 -1.1365e-07 30.7 -2.62268e-07 29L-2.53526e-06 3C-2.68388e-06 1.3 1.3 -1.1365e-07 3 -2.62268e-07L16.2 -1.41625e-06C17 -1.48619e-06 17.8 0.299998 18.3 0.899998L25.1 7.7C25.7 8.3 26 9 26 9.8L26 29C26 30.7 24.7 32 23 32L23 31L23 30C23.6 30 24 29.6 24 29L24 9.8C24 9.5 23.9 9.3 23.7 9.1L16.9 2.3C16.7 2.1 16.5 2 16.2 2L3 2C2.4 2 2 2.4 2 3L2 29C2 29.6 2.4 30 3 30L23 30L23 31Z" fill="#4F4F4F"/>
<path d="M12.9289 23.1569C12.7168 23.369 12.5047 23.4397 12.2218 23.4397C11.939 23.4397 11.7269 23.369 11.5147 23.1569L7.97919 19.6214C7.55492 19.1971 7.55492 18.6314 7.97919 18.2071C8.40345 17.7829 8.96913 17.7829 9.3934 18.2071L12.2218 21.0356L17.8787 15.3787C18.3029 14.9544 18.8686 14.9544 19.2929 15.3787C19.7172 15.803 19.7172 16.3687 19.2929 16.7929L12.9289 23.1569Z" fill="#939393"/>
</svg>
