<svg width="50" height="50" viewBox="0 0 50 50" fill="none" xmlns="http://www.w3.org/2000/svg">
<circle cx="25" cy="25" r="24" stroke="#DADFE2" stroke-width="2"/>
<path d="M33.3 19.3L27.825 13.825L27.75 13.9L27.75 18.25C27.75 19.075 28.425 19.75 29.25 19.75L33.15 19.75C33.225 19.525 33.225 19.525 33.3 19.3Z" fill="#06D880"/>
<path d="M32.25 36.25L32.25 37L17.25 37C15.975 37 15 36.025 15 34.75L15 15.25C15 13.975 15.975 13 17.25 13L27.15 13C27.75 13 28.35 13.225 28.725 13.675L33.825 18.775C34.275 19.225 34.5 19.75 34.5 20.35L34.5 34.75C34.5 36.025 33.525 37 32.25 37L32.25 36.25L32.25 35.5C32.7 35.5 33 35.2 33 34.75L33 20.35C33 20.125 32.925 19.975 32.775 19.825L27.675 14.725C27.525 14.575 27.375 14.5 27.15 14.5L17.25 14.5C16.8 14.5 16.5 14.8 16.5 15.25L16.5 34.75C16.5 35.2 16.8 35.5 17.25 35.5L32.25 35.5L32.25 36.25Z" fill="#06D880"/>
<path d="M24.6967 30.3678C24.5376 30.5269 24.3785 30.5799 24.1664 30.5799C23.9542 30.5799 23.7951 30.5269 23.636 30.3678L20.9844 27.7161C20.6662 27.3979 20.6662 26.9736 20.9844 26.6554C21.3026 26.3372 21.7269 26.3372 22.045 26.6554L24.1664 28.7768L28.409 24.5341C28.7272 24.2159 29.1515 24.2159 29.4697 24.5341C29.7879 24.8523 29.7879 25.2766 29.4697 25.5948L24.6967 30.3678Z" fill="#06D880"/>
</svg>
