<svg width="32" height="28" viewBox="0 0 32 28" fill="none" xmlns="http://www.w3.org/2000/svg">
<g clip-path="url(#clip0)">
<path fill-rule="evenodd" clip-rule="evenodd" d="M24.7881 20.5322C27.3791 19.4188 29.9071 18.3324 30.7393 17.8988C31.5845 17.4583 31.9956 17.1128 31.9934 16.8022C31.9935 16.8022 31.9935 16.8022 31.9935 16.8022L31.9927 19.9903C31.993 20.31 31.6091 20.6607 30.74 21.1136C29.9074 21.5475 27.3779 22.6345 24.7859 23.7484C22.0623 24.9188 19.2697 26.1188 18.3049 26.6218C16.4219 27.6036 15.3759 27.5941 13.8883 26.883C13.1687 26.539 10.5943 25.4716 7.9362 24.3694C5.09989 23.1934 2.16825 21.9779 1.29299 21.5595C0.445659 21.1546 0 20.8126 0 20.4897L0 17.2607C8.94657e-05 17.5872 0.432986 17.9334 1.29333 18.3447C2.16889 18.763 5.10243 19.9794 7.93973 21.1559C10.5965 22.2576 13.1689 23.3242 13.8883 23.6678C15.3757 24.3789 16.4218 24.3886 18.3046 23.4066C19.2698 22.9036 22.0637 21.7029 24.7881 20.5322ZM0 17.2605C4.28899e-07 17.259 1.08048e-05 17.2574 3.11282e-05 17.2558C1.03463e-05 17.2559 0 17.2559 0 17.2559L0 17.2605Z" fill="#232531"/>
<path fill-rule="evenodd" clip-rule="evenodd" d="M24.7893 15.2993C27.3798 14.1861 29.9072 13.1 30.7393 12.6663C31.5847 12.2257 31.9958 11.8801 31.9934 11.5694C31.9935 11.5694 31.9935 11.5694 31.9935 11.5694L31.9927 14.7579C31.993 15.0774 31.6091 15.4281 30.74 15.881C29.9077 16.3149 27.3796 17.4013 24.7886 18.5148C22.0641 19.6856 19.27 20.8863 18.3049 21.3897C16.4219 22.3711 15.3759 22.3616 13.8883 21.6505C13.1695 21.307 10.6003 20.2417 7.94548 19.1409C5.10628 17.9636 2.16921 16.7458 1.29299 16.3269C0.445659 15.922 0 15.5806 0 15.2575L0 12.0284C8.94657e-05 12.3549 0.432986 12.7011 1.29333 13.1122C2.16914 13.5307 5.10409 14.7477 7.94213 15.9245C10.5981 17.0258 13.1691 18.0918 13.8883 18.4354C15.3757 19.1465 16.4218 19.1561 18.3046 18.1746C19.2699 17.6712 22.0645 16.4703 24.7893 15.2993ZM0 12.0282C4.44042e-07 12.0266 1.15498e-05 12.0249 3.3318e-05 12.0233C1.11371e-05 12.0233 0 12.0233 0 12.0233L0 12.0282Z" fill="#232531"/>
<path d="M24.7849 9.87479C27.377 8.76087 29.9068 7.67373 30.7393 7.23981C31.5845 6.79932 31.9956 6.45374 31.9934 6.14313C31.9934 6.14312 31.9934 6.14313 31.9934 6.14313L31.9927 9.33151C31.993 9.65082 31.609 10.0015 30.74 10.4545C29.908 10.8881 27.3817 11.9738 24.7918 13.0868C22.0663 14.2581 19.2704 15.4596 18.3049 15.9632C16.4219 16.9447 15.3758 16.9351 13.8883 16.224C13.1688 15.8803 10.5956 14.8133 7.93826 13.7114C5.1013 12.5351 2.16844 11.319 1.29296 10.9007C0.445631 10.4954 -2.7977e-05 10.1538 -2.7977e-05 9.83116V6.5968C-0.00441876 6.9248 0.428588 7.27239 1.29343 7.6856C2.16827 8.1037 5.09813 9.31859 7.93348 10.4943C10.5925 11.5969 13.1684 12.665 13.8882 13.0091C15.3757 13.7199 16.4217 13.7295 18.3046 12.7479C19.2693 12.245 22.0615 11.0451 24.7849 9.87479Z" fill="#232531"/>
<path fill-rule="evenodd" clip-rule="evenodd" d="M30.7393 7.23985C29.9068 7.67376 27.377 8.7609 24.7849 9.87482C22.0615 11.0452 19.2694 12.2451 18.3046 12.748C16.4218 13.7295 15.3757 13.7199 13.8883 13.0092C13.1684 12.665 10.5925 11.5969 7.9335 10.4943C5.09816 9.31863 2.1683 8.10374 1.29346 7.68563C-0.402073 6.87555 -0.43744 6.31753 1.22785 5.66529L1.68009 5.48814C4.15552 4.51831 12.3909 1.29184 14.2321 0.631193C16.2102 -0.0785377 16.8964 -0.104033 18.5798 0.512717C19.4245 0.822147 22.0583 1.85712 24.6836 2.8887C27.2909 3.91324 29.8897 4.93442 30.7186 5.23813C32.3828 5.84751 32.4466 6.35003 30.7393 7.23985ZM19.9063 4.09383L17.1556 4.37939L16.5399 5.86109L15.5453 4.20768L12.3691 3.92224L14.7391 3.06754L14.028 1.75555L16.2469 2.62338L18.3387 1.93852L17.7733 3.29512L19.9063 4.09383ZM16.3756 11.2821L11.2421 9.15292L18.5981 8.02378L16.3756 11.2821ZM9.25835 4.91741C11.4298 4.91741 13.19 5.59977 13.19 6.44135C13.19 7.28318 11.4298 7.96541 9.25835 7.96541C7.08692 7.96541 5.32666 7.28305 5.32666 6.44135C5.32666 5.59977 7.08692 4.91741 9.25835 4.91741ZM23.1572 4.49884L18.3406 6.40406L22.6886 8.1227L23.1609 7.93801L27.5108 6.21924L23.1572 4.49884Z" fill="#232531"/>
</g>
<defs>
<clipPath id="clip0">
<rect width="32" height="27.4944" fill="white"/>
</clipPath>
</defs>
</svg>
