<svg width="24" height="24" viewBox="0 0 24 24" fill="none" xmlns="http://www.w3.org/2000/svg">
<mask id="mask0" mask-type="alpha" maskUnits="userSpaceOnUse" x="2" y="2" width="20" height="20">
<path fill-rule="evenodd" clip-rule="evenodd" d="M2 12C2 6.47998 6.46997 2 11.99 2C17.52 2 22 6.47998 22 12C22 17.52 17.52 22 11.99 22C6.46997 22 2 17.52 2 12ZM15.97 8H18.9202C17.9602 6.34998 16.4302 5.07001 14.5901 4.44C15.1902 5.54999 15.6501 6.75 15.97 8ZM12 4.03998C12.8301 5.23999 13.48 6.57001 13.9102 8H10.0901C10.52 6.57001 11.1702 5.23999 12 4.03998ZM4 12C4 12.69 4.1001 13.36 4.26001 14H7.63989C7.56006 13.34 7.5 12.68 7.5 12C7.5 11.32 7.56006 10.66 7.63989 10H4.26001C4.1001 10.64 4 11.31 4 12ZM5.08008 16H8.03003C8.3501 17.25 8.81006 18.45 9.41016 19.56C7.57007 18.93 6.04004 17.66 5.08008 16ZM5.08008 8H8.03003C8.3501 6.75 8.81006 5.54999 9.41016 4.44C7.57007 5.07001 6.04004 6.34003 5.08008 8ZM12 19.96C11.1702 18.76 10.52 17.43 10.0901 16H13.9102C13.48 17.43 12.8301 18.76 12 19.96ZM9.5 12C9.5 12.68 9.57007 13.34 9.65991 14H14.3401C14.4299 13.34 14.5 12.68 14.5 12C14.5 11.32 14.4299 10.65 14.3401 10H9.65991C9.57007 10.65 9.5 11.32 9.5 12ZM14.5901 19.56C15.1902 18.45 15.6501 17.25 15.97 16H18.9202C17.9602 17.65 16.4302 18.93 14.5901 19.56ZM16.5 12C16.5 12.68 16.4402 13.34 16.3601 14H19.74C19.9001 13.36 20 12.69 20 12C20 11.31 19.9001 10.64 19.74 10H16.3601C16.4402 10.66 16.5 11.32 16.5 12Z" fill="white"/>
</mask>
<g mask="url(#mask0)">
<path fill-rule="evenodd" clip-rule="evenodd" d="M0 0H24V24H0V0Z" fill="#FA914B"/>
</g>
</svg>
