<svg width="50" height="50" viewBox="0 0 50 50" fill="none" xmlns="http://www.w3.org/2000/svg">
<circle cx="25" cy="25" r="24" stroke="#DADFE2" stroke-width="2"/>
<mask id="mask0" mask-type="alpha" maskUnits="userSpaceOnUse" x="15" y="15" width="20" height="20">
<path fill-rule="evenodd" clip-rule="evenodd" d="M15 25C15 19.48 19.4702 15 24.9902 15C30.52 15 35 19.48 35 25C35 30.52 30.52 35 24.9902 35C19.4702 35 15 30.52 15 25ZM28.9697 21H31.9199C30.96 19.35 29.4297 18.07 27.5898 17.44C28.1899 18.55 28.6499 19.75 28.9697 21ZM25 17.04C25.8301 18.24 26.48 19.57 26.9097 21H23.0898C23.52 19.57 24.1699 18.24 25 17.04ZM17 25C17 25.69 17.1001 26.36 17.2598 27H20.6401C20.5601 26.34 20.5 25.68 20.5 25C20.5 24.32 20.5601 23.66 20.6401 23H17.2598C17.1001 23.64 17 24.31 17 25ZM18.0801 29H21.0303C21.3501 30.25 21.8101 31.45 22.4102 32.56C20.5703 31.93 19.04 30.66 18.0801 29ZM18.0801 21H21.0303C21.3501 19.75 21.8101 18.55 22.4102 17.44C20.5703 18.07 19.04 19.34 18.0801 21ZM25 32.96C24.1699 31.76 23.52 30.43 23.0898 29H26.9097C26.48 30.43 25.8301 31.76 25 32.96ZM22.5 25C22.5 25.68 22.5698 26.34 22.6602 27H27.3398C27.4302 26.34 27.5 25.68 27.5 25C27.5 24.32 27.4302 23.65 27.3398 23H22.6602C22.5698 23.65 22.5 24.32 22.5 25ZM27.5898 32.56C28.1899 31.45 28.6499 30.25 28.9697 29H31.9199C30.96 30.65 29.4297 31.93 27.5898 32.56ZM29.4609 25.9949C29.4355 26.3317 29.4004 26.6658 29.3599 27H32.7397C32.8999 26.36 33 25.69 33 25C33 24.31 32.8999 23.64 32.7397 23H29.3599C29.4399 23.66 29.5 24.32 29.5 25C29.5 25.3357 29.4854 25.6666 29.4609 25.9949Z" fill="white"/>
</mask>
<g mask="url(#mask0)">
<path fill-rule="evenodd" clip-rule="evenodd" d="M13 13H37V37H13V13Z" fill="#FA914B"/>
</g>
</svg>
