<svg width="32" height="32" viewBox="0 0 32 32" fill="none" xmlns="http://www.w3.org/2000/svg">
<path d="M31.2123 8.98765L27.7662 5.53086L25.8954 7.40741C23.9262 6.41975 21.8585 5.92593 19.6923 5.92593C17.7231 5.92593 15.7538 6.32099 13.8831 7.20988L17.0338 4.04938L17.2308 3.85185C17.4277 3.95062 17.5262 3.95062 17.7231 3.95062C18.8062 3.95062 19.6923 3.06173 19.6923 1.97531C19.6923 0.888889 18.8062 0 17.7231 0C16.64 0 15.7538 0.888889 15.7538 1.97531C15.7538 2.17284 15.7538 2.2716 15.8523 2.46914L15.6554 2.66667L11.2246 7.11111L9.84615 5.62963L5.61231 9.87654L6.99077 11.2593L2.56 15.7037L2.36308 15.9012C2.26462 15.8025 2.16615 15.8025 1.96923 15.8025C0.886154 15.8025 0 16.6914 0 17.7778C0 18.8642 0.886154 19.7531 1.96923 19.7531C3.05231 19.7531 3.93846 18.8642 3.93846 17.7778C3.93846 17.5802 3.93846 17.4815 3.84 17.2839L4.03692 17.0864L7.18769 13.9259C6.4 15.7037 5.90769 17.679 5.90769 19.6543C5.90769 21.8272 6.4 24 7.38462 25.9753L5.51385 27.8519L9.64923 32L13.8831 27.8519L13.1938 27.1605L9.64923 23.6049L8.86154 24.3951C8.17231 22.9136 7.87692 21.2346 7.87692 19.6543C7.87692 17.5802 8.46769 15.5062 9.55077 13.7284L9.84615 14.0247L13.9815 9.87654L13.6862 9.58025C15.5569 8.49383 17.6246 7.90123 19.6923 7.90123C21.2677 7.90123 22.8431 8.19753 24.4185 8.88889L24.32 8.98765L23.6308 9.67901L27.8646 13.9259L32 9.67901L31.2123 8.98765ZM9.25538 26.8642L9.64923 26.4691L11.0277 27.8519L9.64923 29.2346L8.27077 27.8519L9.25538 26.8642ZM9.84615 11.2593L9.15692 10.5679L8.46769 9.87654L9.84615 8.49383L10.5354 9.18518L11.2246 9.87654L9.84615 11.2593ZM27.7662 11.0617L26.3877 9.67901L26.7815 9.28395L27.7662 8.2963L29.1446 9.67901L27.7662 11.0617Z" fill="#4F4F4F"/>
</svg>
