<svg width="32" height="30" viewBox="0 0 32 30" fill="none" xmlns="http://www.w3.org/2000/svg">
<path d="M32 3C32 1.3 30.7 0 29 0H3C1.3 0 0 1.3 0 3V27C0 28.7 1.3 30 3 30H29C30.7 30 32 28.7 32 27V3ZM30 27C30 27.6 29.6 28 29 28H3C2.4 28 2 27.6 2 27V3C2 2.4 2.4 2 3 2H29C29.6 2 30 2.4 30 3V27Z" fill="#4F4F4F"/>
<path d="M7 26C7.55228 26 8 25.5523 8 25C8 24.4477 7.55228 24 7 24C6.44772 24 6 24.4477 6 25C6 25.5523 6.44772 26 7 26Z" fill="#4F4F4F"/>
<path d="M11 26C11.5523 26 12 25.5523 12 25C12 24.4477 11.5523 24 11 24C10.4477 24 10 24.4477 10 25C10 25.5523 10.4477 26 11 26Z" fill="#4F4F4F"/>
<path d="M24.1923 13.6569C24.4045 13.4448 24.4752 13.2326 24.4752 12.9498C24.4752 12.6669 24.4045 12.4548 24.1923 12.2427L20.6568 8.70715C20.2325 8.28288 19.6669 8.28288 19.2426 8.70715C18.8183 9.13141 18.8183 9.6971 19.2426 10.1214L22.071 12.9498L19.2426 15.7782C18.8183 16.2025 18.8183 16.7682 19.2426 17.1924C19.6669 17.6167 20.2325 17.6167 20.6568 17.1924L24.1923 13.6569Z" fill="#939393"/>
<path d="M7.70707 12.2426C7.49493 12.4548 7.42422 12.6669 7.42422 12.9497C7.42422 13.2326 7.49493 13.4447 7.70707 13.6569L11.2426 17.1924C11.6669 17.6167 12.2325 17.6167 12.6568 17.1924C13.0811 16.7681 13.0811 16.2024 12.6568 15.7782L9.82839 12.9497L12.6568 10.1213C13.0811 9.69706 13.0811 9.13137 12.6568 8.70711C12.2325 8.28284 11.6669 8.28284 11.2426 8.70711L7.70707 12.2426Z" fill="#939393"/>
</svg>
