<svg width="60" height="60" viewBox="0 0 60 60" fill="none" xmlns="http://www.w3.org/2000/svg">
<path fill-rule="evenodd" clip-rule="evenodd" d="M17 6.82051C17 3.05365 20.0536 0 23.8205 0H46V6.5C46 13.4036 40.4036 19 33.5 19H29.1795C22.4529 19 17 13.5471 17 6.82051ZM7 13.5C7 9.91015 10.4101 6.5 14 6.5L15.5 11.5L16 16L14 19L11 20.5L8.5 17.5C8.5 17.5 7 17.0899 7 13.5ZM32 26C33.1046 26 34 25.1046 34 24C34 22.8954 33.1046 22 32 22C30.8954 22 30 22.8954 30 24C30 25.1046 30.8954 26 32 26Z" fill="#5ED2ED"/>
<path fill-rule="evenodd" clip-rule="evenodd" d="M38.6225 41.209C39.5659 41.916 40.2783 42.8872 40.6684 44H35C34.5532 43.9995 34.1606 44.2954 34.0381 44.7251L31.3882 54H24H22V59C22 59.5522 22.4478 60 23 60H55C55.4468 60.0005 55.8394 59.7046 55.9619 59.2749L59.9619 45.2749C60.0483 44.9731 59.9878 44.6484 59.7988 44.3975C59.6099 44.147 59.314 44 59 44H54H51.75H49.6689H44H42.7495C42.3735 42.5083 41.5693 41.1597 40.4365 40.1191C40.8095 39.1216 41.0004 38.0649 40.9995 37C40.9916 34.1182 39.6074 31.4136 37.2744 29.7222C38.4081 27.6631 39.0019 25.3506 38.9995 23V18.1489C42.1782 15.3145 43.997 11.2588 43.9995 7V1C43.9995 0.447754 43.5517 0 42.9995 0H18.8383C16.1674 0.00341798 14.0029 2.16797 13.9995 4.83887V5.05908C11.1259 5.37061 8.57856 7.04785 7.15766 9.56494C5.73676 12.082 5.32446 14.502 6.83442 17.751C8.34437 21 10.9995 22.4141 10.9995 22.4141V23C11.0009 25.0771 11.4682 27.1274 12.3676 29C9.1142 31.5967 8.07856 36.0918 9.86762 39.8501C8.04926 41.3594 6.99799 43.6001 6.99946 45.9629V48C4.79057 48.0003 3 49.791 3 52V53.0354C1.30385 53.2781 0 54.7368 0 56.5V59C0 59.5523 0.447716 60 1 60H9H11H19C19.5523 60 20 59.5523 20 59V56.5C20 54.7368 18.6961 53.2781 17 53.0354V52C17 49.7909 15.2091 48 13 48H8.99946V45.9629C8.99799 43.9478 10.0165 42.0688 11.7065 40.9712C12.1577 40.6763 12.2944 40.0771 12.0156 39.6162C10.3359 36.8604 10.7729 33.311 13.0703 31.0449C13.4086 34.7178 15.5522 37.9819 18.7885 39.751L24.5205 42.8779C24.8188 43.041 25.1801 43.041 25.4785 42.8779L31.2104 39.751C34.1704 38.1318 36.2319 35.2529 36.8105 31.9292C38.2026 33.249 38.9936 35.0815 38.9995 37C38.999 38.0327 38.7675 39.0522 38.3227 39.9839C38.1201 40.4121 38.2451 40.9233 38.6225 41.209ZM15 53H5V52C5 50.8954 5.89543 50 7 50H13C14.1046 50 15 50.8954 15 52V53ZM2 56.5C2 55.6716 2.67157 55 3.5 55H9V58H2V56.5ZM18 58H11V55H16.5C17.3284 55 18 55.6716 18 56.5V58ZM15.9995 4.83887C16.0009 3.27197 17.2714 2.00146 18.8383 2H41.9995V7C41.9951 12.9043 38.0126 18.064 32.3027 19.564C26.5922 21.064 20.5878 18.5278 17.6826 13.3882L16.6577 11.0552C16.2241 9.74707 16.0019 8.37793 15.9995 7V4.83887ZM24.9995 35C18.3749 34.9927 13.0068 29.6245 12.9995 23V20.4141C16.5 19.5 17.0234 16.0239 17.0234 16.0239C20.4995 20 23.9995 21 27.9995 21.5C31.9995 22 36.3461 20.0845 36.9995 19.667V23C36.9921 29.6245 31.624 34.9927 24.9995 35ZM34.3276 33.4111C33.6498 35.0806 32.4916 36.5107 30.9995 37.52V35.6299C32.2089 35.0527 33.3295 34.3057 34.3276 33.4111ZM28.9995 36.4102V38.6792L24.9995 40.8608L20.9995 38.6792V36.4102C23.6083 37.1968 26.3906 37.1968 28.9995 36.4102ZM18.9995 35.6299V37.52C17.5073 36.5107 16.3491 35.0806 15.6713 33.4111C16.6694 34.3057 17.79 35.0527 18.9995 35.6299ZM13.9995 7.0791C14.0078 8.59375 14.246 10.0981 14.7065 11.541C14.7065 11.541 16.5 15.5 14.232 17.751C10.2181 21.7348 8.3686 16.2129 8.3686 16.2129C7.69721 14.248 7.93989 12.0854 9.02973 10.3179C10.1191 8.55029 11.9423 7.3623 13.9995 7.0791ZM23 24C23 25.1046 22.1046 26 21 26C19.8954 26 19 25.1046 19 24C19 22.8954 19.8954 22 21 22C22.1046 22 23 22.8954 23 24ZM32.3262 58H54.2461L57.6738 46H35.7539L32.3262 58ZM30.8169 56H24V58H30.2451L30.8169 56Z" fill="#4F4F4F"/>
</svg>
