<svg width="60" height="60" viewBox="0 0 60 60" fill="none" xmlns="http://www.w3.org/2000/svg">
<path fill-rule="evenodd" clip-rule="evenodd" d="M24 25C25.1046 25 26 24.1046 26 23C26 21.8954 25.1046 21 24 21C22.8954 21 22 21.8954 22 23C22 24.1046 22.8954 25 24 25ZM36 25C37.1046 25 38 24.1046 38 23C38 21.8954 37.1046 21 36 21C34.8954 21 34 21.8954 34 23C34 24.1046 34.8954 25 36 25Z" fill="#5ED2ED"/>
<path fill-rule="evenodd" clip-rule="evenodd" d="M41 12L23 12V4C23 2.89543 23.8954 2 25 2L42 2C43.6569 2 45 3.34315 45 5V8C45 10.2091 43.2091 12 41 12ZM47 8C47 10.973 44.8377 13.441 42 13.917V20V22V23C42 23.6035 41.9555 24.1965 41.8695 24.7761C41.9131 24.7944 41.9566 24.8131 42 24.832C43.7628 25.6022 45.2606 26.8659 46.3188 28.4485C47.2301 29.8111 47.8154 31.4103 47.9631 33.135C47.9796 33.3268 47.9906 33.5202 47.996 33.7149C47.9987 33.8096 48 33.9047 48 33.9999L48 46H50C52.2091 46 54 47.7909 54 50V52H59C59.5523 52 60 52.4477 60 53C60 53.5523 59.5523 54 59 54H1C0.447714 54 0 53.5523 0 53C0 52.4477 0.447715 52 1 52H6V50C6 47.7909 7.79086 46 10 46H11V33.9999L11.0001 33.9647C11.0044 32.6945 11.2457 31.48 11.6819 30.3632C12.2463 28.9181 13.1371 27.6365 14.2638 26.6091C15.3251 25.6414 16.5957 24.8989 18 24.4577C18.0281 24.4489 18.0563 24.4402 18.0845 24.4316C18.0287 23.9622 18 23.4844 18 23V22V20V14C15.7909 14 14 12.2091 14 10L14 8C14 5.79086 15.7909 4 18 4L21 4C21 1.79086 22.7909 0 25 0H42C44.7614 0 47 2.23858 47 5V8ZM20 20V22C20 23.1046 20.8954 24 22 24H24C25.1046 24 26 23.1046 26 22V20C26 19.4477 25.5523 19 25 19H21C20.4477 19 20 19.4477 20 20ZM20.354 25.6467C21.5143 29.8851 25.3934 33 30 33C34.6066 33 38.4857 29.8851 39.646 25.6467C39.144 25.8737 38.5867 26 38 26H36C33.7909 26 32 24.2091 32 22C32 21.931 31.9965 21.8627 31.9897 21.7955C31.8873 20.787 31.0355 20 30 20C29.931 20 29.8627 20.0035 29.7955 20.0103C28.787 20.1127 28 20.9645 28 22C28 24.2091 26.2091 26 24 26H22C21.4133 26 20.856 25.8737 20.354 25.6467ZM40 22V20C40 19.4477 39.5523 19 39 19H35C34.4477 19 34 19.4477 34 20V22C34 23.1046 34.8954 24 36 24H38C39.1046 24 40 23.1046 40 22ZM40 17.1707C39.6872 17.0602 39.3506 17 39 17H35C33.8019 17 32.7678 17.7024 32.287 18.7179C31.6389 18.2654 30.8504 18 30 18C29.1496 18 28.3611 18.2654 27.713 18.7179C27.2322 17.7024 26.1981 17 25 17H21C20.6494 17 20.3128 17.0602 20 17.1707V14L23 14L40 14V17.1707ZM21 6V12L18 12C16.8954 12 16 11.1046 16 10L16 8C16 6.89543 16.8954 6 18 6H21ZM13.0034 33.7658C13.1022 30.3269 15.3713 27.4316 18.489 26.4018C19.1279 28.5671 20.3612 30.4777 22 31.9444V33C22 33.0795 22.0012 33.1588 22.0035 33.2378C22.0102 33.4673 22.0265 33.6944 22.0522 33.9186L22.058 33.9685L22.0619 34C22.554 37.9463 25.9204 41 30 41C33.866 41 37.0915 38.2577 37.8375 34.6123C37.8787 34.4108 37.9123 34.2066 37.9381 34C37.9694 33.7494 37.989 33.4951 37.9965 33.2378C37.9988 33.1588 38 33.0795 38 33V31.9444C39.5487 30.5583 40.7353 28.7758 41.4003 26.7564C42.0828 27.0774 42.7126 27.4919 43.2731 27.9836C43.5141 28.195 43.7423 28.4207 43.9565 28.6594C44.1149 28.8359 44.2655 29.0195 44.4079 29.2096C45.2373 30.3177 45.7863 31.6479 45.9493 33.0944C45.9728 33.3034 45.9884 33.5148 45.9955 33.7283C45.998 33.8039 45.9995 33.8798 45.9999 33.956L46 33.9999V46H44C41.7909 46 40 47.7909 40 50V52H20V50C20 47.7909 18.2091 46 16 46H13V33.9999C13 33.923 13.0011 33.8464 13.0032 33.77L13.0034 33.7658ZM24.0133 33.4023C24.1236 35.0694 24.9149 36.5504 26.1116 37.5697C27.1588 38.4616 28.5166 39 30 39C33.1785 39 35.7798 36.5284 35.9867 33.4023C34.2247 34.4186 32.1802 35 30 35C27.8198 35 25.7753 34.4186 24.0133 33.4023ZM8 50C8 48.8954 8.89543 48 10 48H16C17.1046 48 18 48.8954 18 50V52H8V50ZM50 48C51.1046 48 52 48.8954 52 50V52H42V50C42 48.8954 42.8954 48 44 48H50Z" fill="#4F4F4F"/>
<rect x="11" y="37" width="38" height="18" rx="1" fill="#5ED2ED" stroke="#4F4F4F" stroke-width="2"/>
</svg>
