<svg width="60" height="61" viewBox="0 0 60 61" fill="none" xmlns="http://www.w3.org/2000/svg">
<path fill-rule="evenodd" clip-rule="evenodd" d="M49 4C48.4477 4 48 4.44772 48 5V7C48 7.55228 48.4477 8 49 8H51C51.5523 8 52 7.55228 52 7V5C52 4.44772 51.5523 4 51 4H49ZM25 30C26.1046 30 27 29.1046 27 28C27 26.8954 26.1046 26 25 26C23.8954 26 23 26.8954 23 28C23 29.1046 23.8954 30 25 30ZM48 15C48 14.4477 48.4477 14 49 14H51C51.5523 14 52 14.4477 52 15V17C52 17.5523 51.5523 18 51 18H49C48.4477 18 48 17.5523 48 17V15ZM49 24C48.4477 24 48 24.4477 48 25V27C48 27.5523 48.4477 28 49 28H51C51.5523 28 52 27.5523 52 27V25C52 24.4477 51.5523 24 51 24H49ZM40 25C40 24.4477 40.4477 24 41 24H45C45.5523 24 46 24.4477 46 25V27C46 27.5523 45.5523 28 45 28H41C40.4477 28 40 27.5523 40 27V25ZM41 30C40.4477 30 40 30.4477 40 31V33C40 33.5523 40.4477 34 41 34H51C51.5523 34 52 33.5523 52 33V31C52 30.4477 51.5523 30 51 30H41ZM42 5C42 4.44772 42.4477 4 43 4H45C45.5523 4 46 4.44772 46 5V7C46 7.55228 45.5523 8 45 8H43C42.4477 8 42 7.55228 42 7V5ZM35 30C36.1046 30 37 29.1046 37 28C37 26.8954 36.1046 26 35 26C33.8954 26 33 26.8954 33 28C33 29.1046 33.8954 30 35 30Z" fill="#5ED2ED"/>
<path fill-rule="evenodd" clip-rule="evenodd" d="M9 0C6.23858 0 4 2.23858 4 5V7C4 8.6356 4.78534 10.0878 5.99952 11C4.78534 11.9122 4 13.3644 4 15V17C4 18.6356 4.78534 20.0878 5.99952 21C4.78534 21.9122 4 23.3644 4 25V56C4 58.7614 6.23857 61 9 61L12 61H48L51 61C53.7614 61 56 58.7614 56 56V25C56 23.3644 55.2147 21.9122 54.0005 21C55.2147 20.0878 56 18.6356 56 17V15C56 13.3644 55.2147 11.9122 54.0005 11C55.2147 10.0878 56 8.6356 56 7V5C56 2.23858 53.7614 0 51 0H9ZM48 59H51C52.6569 59 54 57.6569 54 56V25C54 23.3431 52.6569 22 51 22H43.2361C42.6868 22.6137 41.8885 23 41 23V31C41 32.2389 40.7952 33.43 40.4175 34.5413C44.8195 35.9787 48 40.118 48 45V59ZM44 20H51C52.6569 20 54 18.6569 54 17V15C54 13.3431 52.6569 12 51 12H42.2211C43.3462 13.7256 44 15.7864 44 18V20ZM40.5499 10H51C52.6569 10 54 8.65685 54 7V5C54 3.34315 52.6569 2 51 2H9C7.34315 2 6 3.34315 6 5V7C6 8.65685 7.34315 10 9 10H19.4501C21.4201 8.14015 24.0769 7 27 7H33C35.9231 7 38.5799 8.14015 40.5499 10ZM17.7789 12H9C7.34315 12 6 13.3431 6 15V17C6 18.6569 7.34315 20 9 20H16V18C16 15.7864 16.6538 13.7256 17.7789 12ZM16.7639 22H9C7.34315 22 6 23.3431 6 25V56C6 57.6569 7.34315 59 9 59H12V45C12 40.118 15.1804 35.9787 19.5825 34.5413C19.2048 33.43 19 32.2389 19 31V23C18.1115 23 17.3132 22.6137 16.7639 22ZM14 59L29 59V44.9382C25.634 44.5186 22.9174 42.008 22.191 38.7472C21.4942 38.0449 20.8915 37.2491 20.4033 36.3803C16.6987 37.4947 14 40.9322 14 45V59ZM31 59L46 59V45C46 40.9322 43.3013 37.4947 39.5967 36.3803C39.1083 37.2495 38.5052 38.0456 37.808 38.7482C37.0814 42.0082 34.3653 44.5183 31 44.9381V59ZM30 42C31.5609 42 33.0458 41.6749 34.3908 41.0887C33.2955 42.2646 31.7334 43 29.9996 43C28.2656 43 26.7033 42.2644 25.6079 41.0882C26.9532 41.6747 28.4386 42 30 42ZM19 21H41C41.5523 21 42 20.5523 42 20V18C42 13.0294 37.9706 9 33 9H27C22.0294 9 18 13.0294 18 18V20C18 20.5523 18.4477 21 19 21ZM21 23V31C21 35.9706 25.0294 40 30 40C34.9706 40 39 35.9706 39 31V23H21ZM43 48C43 47.4477 42.5523 47 42 47H36C35.4477 47 35 47.4477 35 48C35 48.5523 35.4477 49 36 49H42C42.5523 49 43 48.5523 43 48Z" fill="#4F4F4F"/>
</svg>
