<svg width="60" height="60" viewBox="0 0 60 60" fill="none" xmlns="http://www.w3.org/2000/svg">
<path fill-rule="evenodd" clip-rule="evenodd" d="M23 21C23 21.5523 22.5523 22 22 22C21.4477 22 21 21.5523 21 21C21 20.4477 21.4477 20 22 20C22.5523 20 23 20.4477 23 21ZM21 38C14.9249 38 10 42.9249 10 49V58C10 59.1046 10.8954 60 12 60H44C45.1046 60 46 59.1046 46 58V49C46 42.9249 41.0751 38 35 38H33V40H35L34 47H30.5L29 48L31 54L28 57L25 54L27 48L25 47L22 46.5L21 40H23V38H21ZM34 22C34.5523 22 35 21.5523 35 21C35 20.4477 34.5523 20 34 20C33.4477 20 33 20.4477 33 21C33 21.5523 33.4477 22 34 22Z" fill="#5ED2ED"/>
<path fill-rule="evenodd" clip-rule="evenodd" d="M20.0035 0.805385C20.9144 0.278829 21.9478 0.00107923 23 0H48V5C47.999 6.94489 47.4309 8.84729 46.3652 10.4742C45.2995 12.1012 43.7825 13.382 42 14.16V22C41.9986 24.8334 41.1376 27.5997 39.5307 29.9333C37.9237 32.2669 35.6465 34.0581 33 35.07V38H35C41.0751 38 46 42.9249 46 49V58C46 59.1046 45.1046 60 44 60H12C10.8954 60 10 59.1046 10 58V49C10 42.9249 14.9249 38 21 38H23V35.07C20.3535 34.0581 18.0763 32.2669 16.4693 29.9333C14.8624 27.5997 14.0014 24.8334 14 22V19C12.9149 18.9218 11.8996 18.4361 11.1577 17.6404C10.4158 16.8447 10.0022 15.7979 10 14.71V9C10 7.4087 10.6321 5.88258 11.7574 4.75736C12.8826 3.63214 14.4087 3 16 3H17.81C18.3361 2.08879 19.0925 1.33194 20.0035 0.805385ZM25 35.6724V39.1716L28 42.1716L31 39.1716V35.6724C29.0241 36.1088 26.9759 36.1088 25 35.6724ZM12.5742 16.2401C12.942 16.6575 13.4485 16.9275 14 17H14.3C14.9194 17.0048 15.5209 16.7925 16 16.4C16.3129 16.1446 16.565 15.8227 16.7379 15.4578C16.9109 15.0928 17.0004 14.6939 17 14.29V5H16C14.9391 5 13.9217 5.42143 13.1716 6.17157C12.4214 6.92172 12 7.93913 12 9V14.73C12.0025 15.2863 12.2065 15.8227 12.5742 16.2401ZM36.4853 30.4853C38.7357 28.2348 40 25.1826 40 22V20H39V21C39 22.3261 38.4732 23.5979 37.5355 24.5355C36.5979 25.4732 35.3261 26 34 26C32.6739 26 31.4021 25.4732 30.4645 24.5355C29.5268 23.5979 29 22.3261 29 21V20H27V21C27 22.3261 26.4732 23.5979 25.5355 24.5355C24.5979 25.4732 23.3261 26 22 26C20.6739 26 19.4021 25.4732 18.4645 24.5355C17.5268 23.5979 17 22.3261 17 21V20H16V22C16 25.1826 17.2643 28.2348 19.5147 30.4853C21.7652 32.7357 24.8174 34 28 34C31.1826 34 34.2348 32.7357 36.4853 30.4853ZM19 20V21C19 21.7956 19.3161 22.5587 19.8787 23.1213C20.4413 23.6839 21.2044 24 22 24C22.7956 24 23.5587 23.6839 24.1213 23.1213C24.6839 22.5587 25 21.7956 25 21V20H19ZM31 20V21C31 21.7956 31.3161 22.5587 31.8787 23.1213C32.4413 23.6839 33.2044 24 34 24C34.7956 24 35.5587 23.6839 36.1213 23.1213C36.6839 22.5587 37 21.7956 37 21V20H31ZM17.18 18H40V14.8C39.3417 14.9337 38.6717 15.0007 38 15H18.94C18.7635 16.19 18.1327 17.2653 17.18 18ZM43.6569 10.6569C45.1571 9.15656 46 7.12173 46 5V2H23C21.9391 2 20.9217 2.42143 20.1716 3.17157C19.4214 3.92172 19 4.93913 19 6V13H38C40.1217 13 42.1566 12.1571 43.6569 10.6569ZM29.5619 43.4381L33 40H33.8825L33.3226 45.0388C33.2458 45.7303 32.5038 46.1339 31.8815 45.8227L30.9286 45.3462C30.7494 44.54 30.2458 43.856 29.5619 43.4381ZM30.6349 47.4355C30.4931 47.6952 30.314 47.9317 30.1048 48.1377C30.1844 48.2592 30.2541 48.3887 30.3126 48.5252L32.1758 52.8727C32.8015 54.3327 32.1808 56.0274 30.76 56.7378L29.3412 57.4472C28.4966 57.8695 27.5025 57.8695 26.6579 57.4472L25.239 56.7378C23.8183 56.0274 23.1975 54.3327 23.8232 52.8727L25.6865 48.5252C25.7451 48.3885 25.8149 48.2588 25.8946 48.1371C25.6683 47.9142 25.4773 47.6556 25.3306 47.3704L24.849 47.6113C22.9821 48.5449 20.756 47.3339 20.5255 45.2594L19.948 40.0608C15.4731 40.5818 12 44.3853 12 49V58H44V49C44 44.3297 40.4427 40.4903 35.8899 40.0434L35.3104 45.2596C35.0799 47.3342 32.8539 48.5451 30.9869 47.6115L30.6349 47.4355ZM26.4381 43.4381C25.7808 43.8397 25.2901 44.4872 25.0938 45.2527L23.9545 45.8225C23.3322 46.1337 22.5901 45.73 22.5133 45.0385L21.9535 40H23L26.4381 43.4381ZM28 45C27.4477 45 27 45.4477 27 46C27 46.5523 27.4477 47 28 47C28.5523 47 29 46.5523 29 46C29 45.4477 28.5523 45 28 45ZM27.9995 49C27.7929 49 27.6061 49.1231 27.5247 49.3131L25.6615 53.6606C25.453 54.1473 25.6599 54.7121 26.1335 54.9489L27.5523 55.6584C27.8338 55.7991 28.1652 55.7991 28.4467 55.6584L29.8656 54.9489C30.3392 54.7121 30.5461 54.1473 30.3375 53.6606L28.4743 49.3131C28.3929 49.1231 28.2062 49 27.9995 49Z" fill="#4F4F4F"/>
</svg>
